<?xml version="1.0" encoding="UTF-8" standalone="no"?>
<svg
   width="1431.2645"
   height="1417.3318"
   viewBox="0 -410 1469.4315 1346.4652"
   id="svg2"
   sodipodi:version="0.32"
   inkscape:version="1.2 (dc2aedaf03, 2022-05-15)"
   sodipodi:docname="alo.svg"
   inkscape:output_extension="org.inkscape.output.svg.inkscape"
   version="1.0"
   xmlns:inkscape="http://www.inkscape.org/namespaces/inkscape"
   xmlns:sodipodi="http://sodipodi.sourceforge.net/DTD/sodipodi-0.dtd"
   xmlns="http://www.w3.org/2000/svg"
   xmlns:svg="http://www.w3.org/2000/svg"
   xmlns:rdf="http://www.w3.org/1999/02/22-rdf-syntax-ns#"
   xmlns:cc="http://creativecommons.org/ns#"
   xmlns:dc="http://purl.org/dc/elements/1.1/">
  <metadata
     id="metadata15">
    <rdf:RDF>
      <cc:Work
         rdf:about="">
        <dc:format>image/svg+xml</dc:format>
        <dc:type
           rdf:resource="http://purl.org/dc/dcmitype/StillImage" />
      </cc:Work>
    </rdf:RDF>
  </metadata>
  <defs
     id="defs13" />
  <sodipodi:namedview
     inkscape:window-height="991"
     inkscape:window-width="1920"
     inkscape:pageshadow="2"
     inkscape:pageopacity="0.0"
     guidetolerance="10.0"
     gridtolerance="10.0"
     objecttolerance="10.0"
     borderopacity="1.0"
     bordercolor="#666666"
     pagecolor="#ffffff"
     id="base"
     inkscape:zoom="0.28209838"
     inkscape:cx="868.49134"
     inkscape:cy="334.98952"
     inkscape:window-x="-9"
     inkscape:window-y="-9"
     inkscape:current-layer="svg2"
     width="3000px"
     height="2000px"
     inkscape:showpageshadow="false"
     inkscape:pagecheckerboard="0"
     showgrid="false"
     fit-margin-top="10"
     fit-margin-left="10"
     fit-margin-right="10"
     fit-margin-bottom="10"
     inkscape:window-maximized="1"
     inkscape:deskcolor="#d1d1d1" />
  <path
     style="font-style:normal;font-weight:normal;font-size:2050.28px;font-family:'Times New Roman';fill:#008000;fill-opacity:1;stroke:none;stroke-width:1px;stroke-linecap:butt;stroke-linejoin:miter;stroke-opacity:1"
     d="m 1229.0407,678.57703 h 36.04 c 0,105.45068 -17.1867,182.20255 -51.5573,230.25584 -34.3724,48.0534 -77.2533,72.08005 -128.6429,72.08005 -42.0475,0 -82.4255,-15.85091 -121.13454,-47.5528 -38.7103,-31.70183 -73.4155,-116.62944 -104.1157,-254.78309 l -86.0956,-388.43159 -298.3315,676.75194 h -189.2102 l 428.476,-923.025574 c -22.6923,-119.465026 -50.056,-207.896536 -82.0912,-265.294776 -32.0359,-57.39586 -71.7467,-86.09438 -119.1323,-86.09566 -38.0425,10e-4 -71.246,14.51739 -99.6107,43.54839 -28.365,29.03346 -44.2159,73.91662 -47.5529,134.64961 h -36.04 c 2.0022,-98.10782 21.6907,-176.69506 59.0656,-235.76196 37.3747,-59.06424 84.0933,-88.59702 140.1558,-88.59844 36.0397,0.001 70.2443,14.85124 102.614,44.5495 32.3689,29.70101 60.4,80.42398 84.0934,152.16907 23.6925,71.74754 60.5668,220.412578 110.6229,445.99555 l 71.079,317.35261 c 28.6979,131.47975 58.8981,219.4107 90.6007,263.79311 31.70104,44.3828 69.57644,66.5741 113.62614,66.57397 74.7488,1.3e-4 117.1292,-52.72507 127.1413,-158.17575 z"
     id="text2175"
     sodipodi:nodetypes="cccsccccccccccccccccccsc"
     inkscape:label="lambda" />
  <path
     id="text2175-4"
     d="m 306.76246,88.966323 h 71.906 l -43.5576,195.823327 c -8.4496,37.22042 -14.2376,60.05964 -17.3639,68.51768 11.2802,51.88467 27.6301,77.82489 49.0921,77.82489 25.3487,0 38.4878,-17.48219 39.3328,-52.44657 h 15.2092 c -0.8449,32.70834 -6.8441,59.14286 -17.9553,79.30357 -11.1535,20.16916 -25.729,30.22416 -43.8111,30.22416 -14.9135,0 -26.067,-6.04145 -33.3759,-18.17083 -7.3511,-12.12515 -15.2515,-36.93735 -23.7011,-74.43661 -29.32,61.74956 -77.2714,92.60744 -143.8119,92.60744 -45.3742,0 -81.496194,-17.67653 -108.281394,-53.06339 -26.7852,-35.38685 -40.1777,-86.07168 -40.1777,-152.05026 0,-64.85056 14.66,-115.32414 43.98,-151.41653 29.3201,-36.090707 64.597094,-54.136487 105.746594,-54.136487 29.0665,0 52.8944,10.29202 71.4834,30.874787 18.6314,20.58318 35.1081,54.13647 49.4724,100.6641 z m -37.2204,165.797727 c -13.2658,-45.39961 -28.0526,-80.85406 -44.4025,-106.37181 -16.35,-25.51773 -35.953,-38.2766 -58.8092,-38.2766 -51.5846,0 -77.398094,60.33847 -77.398094,181.01965 0,114.47918 24.672794,171.71666 74.018294,171.71666 42.8817,0 74.6098,-50.46936 95.1846,-151.41654 z"
     sodipodi:nodetypes="ccccscccsccssscsccccsssscc"
     inkscape:label="alpha"
     style="stroke-width:0.422479;fill:#800000" />
  <path
     style="font-style:normal;font-weight:normal;font-size:2050.28px;font-family:'Times New Roman';fill:#000080;fill-opacity:1;stroke:none;stroke-width:0.422462px;stroke-linecap:butt;stroke-linejoin:miter;stroke-opacity:1"
     d="m 1206.6747,404.47254 c -24.5303,55.82697 -62.0302,83.74046 -112.4998,83.74046 -35.2444,0 -67.5987,-16.28286 -97.06284,-48.84862 -29.4642,-32.56564 -44.1963,-79.44056 -44.1963,-140.62476 0,-50.18766 8.811,-91.14152 26.4332,-122.86168 17.6221,-31.71953 40.67184,-56.03807 69.14934,-72.95568 28.4772,-16.916887 66.4001,-25.375507 113.7686,-25.375927 v 15.64849 c -41.7295,3.8e-4 -74.1542,17.199607 -97.2743,51.597657 -23.1204,34.39874 -34.6805,83.17681 -34.6804,146.33438 -10e-5,64.00375 7.5422,107.84764 22.6269,131.53173 15.0844,23.68422 32.918,35.52629 53.5008,35.52625 13.2517,4e-5 26.1511,-4.08829 38.6983,-12.265 12.5467,-8.17666 21.3578,-16.84676 26.4332,-26.01029 5.0749,-9.16349 12.8286,-27.98391 23.2612,-56.46138 -17.7634,-37.21787 -26.6449,-76.55045 -26.6447,-117.99796 -2e-4,-62.87554 12.8287,-94.31345 38.4868,-94.31375 25.6575,3e-4 38.4865,29.04159 38.4868,87.12391 -3e-4,40.03772 -9.3048,81.76697 -27.9135,125.1878 20.3004,63.15782 49.3417,94.73671 87.1239,94.73667 21.1462,4e-5 39.4028,-11.06668 54.7697,-33.20013 15.3661,-22.13337 23.0493,-63.93304 23.0497,-125.39924 0,-51.31546 -5.0051,-90.57762 -15.014,-117.78648 -10.0098,-27.20827 -24.8829,-48.49582 -44.6193,-63.86264 -19.7372,-15.36617 -43.8443,-23.613347 -72.3213,-24.741527 v -15.64849 c 47.368,0 85.2908,8.60001 113.7686,25.798847 28.4769,17.19957 51.4562,41.44764 68.9379,72.74424 17.4806,31.29719 26.2212,71.75762 26.2217,121.38138 0,62.0301 -14.1687,109.32794 -42.5046,141.89358 -28.3369,32.56576 -61.396,48.84862 -99.1775,48.84862 -51.88,0 -88.816,-27.91349 -110.8081,-83.74046 z"
     id="text2175-40"
     sodipodi:nodetypes="csssccccsccssccccccsccccccccccsc"
     inkscape:label="omega" />
</svg>
