<?xml version="1.0" encoding="UTF-8" standalone="no"?>
<svg
   version="1.1"
   width="420.99994"
   height="367.4101"
   id="svg27"
   sodipodi:docname="Alo Nine Internal Letters.svg"
   inkscape:version="1.3 (0e150ed6c4, 2023-07-21)"
   xmlns:inkscape="http://www.inkscape.org/namespaces/inkscape"
   xmlns:sodipodi="http://sodipodi.sourceforge.net/DTD/sodipodi-0.dtd"
   xmlns="http://www.w3.org/2000/svg"
   xmlns:svg="http://www.w3.org/2000/svg">
  <sodipodi:namedview
     id="namedview29"
     pagecolor="#ffffff"
     bordercolor="#666666"
     borderopacity="1.0"
     inkscape:pageshadow="2"
     inkscape:pageopacity="0.0"
     inkscape:pagecheckerboard="0"
     showgrid="false"
     fit-margin-top="10"
     fit-margin-left="10"
     fit-margin-bottom="10"
     fit-margin-right="10"
     inkscape:zoom="1.0288404"
     inkscape:cx="-18.953378"
     inkscape:cy="122.95396"
     inkscape:window-width="2560"
     inkscape:window-height="1369"
     inkscape:window-x="1592"
     inkscape:window-y="-8"
     inkscape:window-maximized="1"
     inkscape:current-layer="svg27"
     inkscape:showpageshadow="2"
     inkscape:deskcolor="#d1d1d1" />
  <defs
     id="defs4">
    <style
       id="style2">&#10;	  .s_path {&#10;	     fill : #5ba9a6; /*  #58c8fd; */&#10;	     stroke : black;&#10;	     stroke-width : 1px;&#10;	     stroke-linecap : round;&#10;	     stroke-linejoin : round;&#10;	  }&#10;	</style>
  </defs>
  <path
     id="_p_template"
     class="s_path"
     d="" />
  <path
     class="s_path"
     d="m 10.499963,356.91011 50,-86.60254 49.999997,86.60254 z"
     id="path7"
     style="fill:#800000" />
  <path
     class="s_path"
     d="m 110.49996,356.91011 50,-86.60254 50,86.60254 z"
     id="path9"
     style="fill:#800000" />
  <path
     class="s_path"
     d="m 60.499963,270.30757 49.999997,-86.60254 50,86.60254 z"
     id="path11"
     style="fill:#800000" />
  <path
     class="s_path"
     d="m 210.49996,356.91011 50,-86.60254 50,86.60254 z"
     id="path13"
     style="fill:#000080" />
  <path
     class="s_path"
     d="m 310.49996,356.91011 50,-86.60254 50,86.60254 z"
     id="path15"
     style="fill:#000080" />
  <path
     class="s_path"
     d="m 260.49996,270.30757 50,-86.60254 50,86.60254 z"
     id="path17"
     style="fill:#000080" />
  <path
     class="s_path"
     d="m 110.49996,183.70503 50,-86.60254 50,86.60254 z"
     id="path19"
     style="fill:#008000" />
  <path
     class="s_path"
     d="m 210.49996,183.70503 50,-86.60254 50,86.60254 z"
     id="path21"
     style="fill:#008000" />
  <path
     class="s_path"
     d="m 160.49996,97.10249 50,-86.60254 50,86.60254 z"
     id="path23"
     style="fill:#008000" />
  <path
     class="s_path"
     d="m 232.98314,171.70674 26.79096,-46.40329 26.79096,46.40329 z"
     id="path17-2"
     style="fill:#000080;stroke:#000000;stroke-width:0.535819px;stroke-linecap:round;stroke-linejoin:round" />
  <path
     class="s_path"
     d="m 132.3607,348.49441 26.79096,-46.40329 26.79096,46.40329 z"
     id="path17-2-2"
     style="fill:#000080;stroke:#000000;stroke-width:0.535819px;stroke-linecap:round;stroke-linejoin:round" />
  <path
     class="s_path"
     d="m 130.73426,172.06362 26.79096,-46.40329 26.79096,46.40329 z"
     id="path17-2-8"
     style="fill:#800000;stroke:#000000;stroke-width:0.535819px;stroke-linecap:round;stroke-linejoin:round;fill-opacity:1" />
  <path
     class="s_path"
     d="m 282.30566,255.61511 26.79096,-46.40329 26.79096,46.40329 z"
     id="path17-2-8-6"
     style="fill:#008000;fill-opacity:1;stroke:#000000;stroke-width:0.535819px;stroke-linecap:round;stroke-linejoin:round" />
  <path
     class="s_path"
     d="m 79.192066,256.06391 26.790964,-46.40329 26.79096,46.40329 z"
     id="path17-2-8-1"
     style="fill:#008000;fill-opacity:1;stroke:#000000;stroke-width:0.535819px;stroke-linecap:round;stroke-linejoin:round" />
  <path
     class="s_path"
     d="m 231.25889,346.69035 26.79096,-46.40329 26.79096,46.40329 z"
     id="path17-2-8-4"
     style="fill:#800000;fill-opacity:1;stroke:#000000;stroke-width:0.535819px;stroke-linecap:round;stroke-linejoin:round" />
  <path
     id="_p_template-6"
     class="s_path"
     d=""
     style="fill:#5ba9a6;stroke:#000000;stroke-width:1px;stroke-linecap:round;stroke-linejoin:round" />
  <g
     id="g1104"
     transform="matrix(0.06812117,0,0,0.06812117,158.63274,224.71397)">
    <path
       style="font-style:normal;font-weight:normal;font-size:2050.28px;font-family:'Times New Roman';fill:#008000;fill-opacity:1;stroke:none;stroke-width:1px;stroke-linecap:butt;stroke-linejoin:miter;stroke-opacity:1"
       d="m 1229.0407,678.57703 h 36.04 c 0,105.45068 -17.1867,182.20255 -51.5573,230.25584 -34.3724,48.0534 -77.2533,72.08005 -128.6429,72.08005 -42.0475,0 -82.4255,-15.85091 -121.13454,-47.5528 -38.7103,-31.70183 -73.4155,-116.62944 -104.1157,-254.78309 l -86.0956,-388.43159 -298.3315,676.75194 h -189.2102 l 428.476,-923.025574 c -22.6923,-119.465026 -50.056,-207.896536 -82.0912,-265.294776 -32.0359,-57.39586 -71.7467,-86.09438 -119.1323,-86.09566 -38.0425,10e-4 -71.246,14.51739 -99.6107,43.54839 -28.365,29.03346 -44.2159,73.91662 -47.5529,134.64961 h -36.04 c 2.0022,-98.10782 21.6907,-176.69506 59.0656,-235.76196 37.3747,-59.06424 84.0933,-88.59702 140.1558,-88.59844 36.0397,0.001 70.2443,14.85124 102.614,44.5495 32.3689,29.70101 60.4,80.42398 84.0934,152.16907 23.6925,71.74754 60.5668,220.412578 110.6229,445.99555 l 71.079,317.35261 c 28.6979,131.47975 58.8981,219.4107 90.6007,263.79311 31.70104,44.3828 69.57644,66.5741 113.62614,66.57397 74.7488,1.3e-4 117.1292,-52.72507 127.1413,-158.17575 z"
       id="text2175"
       sodipodi:nodetypes="cccsccccccccccccccccccsc"
       inkscape:label="lambda" />
    <path
       id="text2175-4"
       d="m 306.76246,88.966323 h 71.906 l -43.5576,195.823327 c -8.4496,37.22042 -14.2376,60.05964 -17.3639,68.51768 11.2802,51.88467 27.6301,77.82489 49.0921,77.82489 25.3487,0 38.4878,-17.48219 39.3328,-52.44657 h 15.2092 c -0.8449,32.70834 -6.8441,59.14286 -17.9553,79.30357 -11.1535,20.16916 -25.729,30.22416 -43.8111,30.22416 -14.9135,0 -26.067,-6.04145 -33.3759,-18.17083 -7.3511,-12.12515 -15.2515,-36.93735 -23.7011,-74.43661 -29.32,61.74956 -77.2714,92.60744 -143.8119,92.60744 -45.3742,0 -81.496194,-17.67653 -108.281394,-53.06339 -26.7852,-35.38685 -40.1777,-86.07168 -40.1777,-152.05026 0,-64.85056 14.66,-115.32414 43.98,-151.41653 29.3201,-36.090707 64.597094,-54.136487 105.746594,-54.136487 29.0665,0 52.8944,10.29202 71.4834,30.874787 18.6314,20.58318 35.1081,54.13647 49.4724,100.6641 z m -37.2204,165.797727 c -13.2658,-45.39961 -28.0526,-80.85406 -44.4025,-106.37181 -16.35,-25.51773 -35.953,-38.2766 -58.8092,-38.2766 -51.5846,0 -77.398094,60.33847 -77.398094,181.01965 0,114.47918 24.672794,171.71666 74.018294,171.71666 42.8817,0 74.6098,-50.46936 95.1846,-151.41654 z"
       sodipodi:nodetypes="ccccscccsccssscsccccsssscc"
       inkscape:label="alpha"
       style="fill:#800000;stroke-width:0.422479" />
    <path
       style="font-style:normal;font-weight:normal;font-size:2050.28px;font-family:'Times New Roman';fill:#000080;fill-opacity:1;stroke:none;stroke-width:0.422462px;stroke-linecap:butt;stroke-linejoin:miter;stroke-opacity:1"
       d="m 1206.6747,404.47254 c -24.5303,55.82697 -62.0302,83.74046 -112.4998,83.74046 -35.2444,0 -67.5987,-16.28286 -97.06284,-48.84862 -29.4642,-32.56564 -44.1963,-79.44056 -44.1963,-140.62476 0,-50.18766 8.811,-91.14152 26.4332,-122.86168 17.6221,-31.71953 40.67184,-56.03807 69.14934,-72.95568 28.4772,-16.916887 66.4001,-25.375507 113.7686,-25.375927 v 15.64849 c -41.7295,3.8e-4 -74.1542,17.199607 -97.2743,51.597657 -23.1204,34.39874 -34.6805,83.17681 -34.6804,146.33438 -10e-5,64.00375 7.5422,107.84764 22.6269,131.53173 15.0844,23.68422 32.918,35.52629 53.5008,35.52625 13.2517,4e-5 26.1511,-4.08829 38.6983,-12.265 12.5467,-8.17666 21.3578,-16.84676 26.4332,-26.01029 5.0749,-9.16349 12.8286,-27.98391 23.2612,-56.46138 -17.7634,-37.21787 -26.6449,-76.55045 -26.6447,-117.99796 -2e-4,-62.87554 12.8287,-94.31345 38.4868,-94.31375 25.6575,3e-4 38.4865,29.04159 38.4868,87.12391 -3e-4,40.03772 -9.3048,81.76697 -27.9135,125.1878 20.3004,63.15782 49.3417,94.73671 87.1239,94.73667 21.1462,4e-5 39.4028,-11.06668 54.7697,-33.20013 15.3661,-22.13337 23.0493,-63.93304 23.0497,-125.39924 0,-51.31546 -5.0051,-90.57762 -15.014,-117.78648 -10.0098,-27.20827 -24.8829,-48.49582 -44.6193,-63.86264 -19.7372,-15.36617 -43.8443,-23.613347 -72.3213,-24.741527 v -15.64849 c 47.368,0 85.2908,8.60001 113.7686,25.798847 28.4769,17.19957 51.4562,41.44764 68.9379,72.74424 17.4806,31.29719 26.2212,71.75762 26.2217,121.38138 0,62.0301 -14.1687,109.32794 -42.5046,141.89358 -28.3369,32.56576 -61.396,48.84862 -99.1775,48.84862 -51.88,0 -88.816,-27.91349 -110.8081,-83.74046 z"
       id="text2175-40"
       sodipodi:nodetypes="csssccccsccssccccccsccccccccccsc"
       inkscape:label="omega" />
  </g>
  <path
     style="font-style:normal;font-weight:normal;font-size:2050.28px;font-family:'Times New Roman';fill:#008000;fill-opacity:1;stroke:none;stroke-width:0.0311039px;stroke-linecap:butt;stroke-linejoin:miter;stroke-opacity:1"
     d="m 227.52751,136.1961 h 1.12099 c 0,3.27992 -0.53458,5.66721 -1.60364,7.16185 -1.06911,1.49465 -2.40288,2.24198 -4.00129,2.24198 -1.30785,0 -2.56376,-0.49303 -3.76776,-1.47908 -1.20404,-0.98605 -2.28351,-3.62763 -3.2384,-7.92475 l -2.67791,-12.08174 -9.27927,21.04963 h -5.88518 l 13.32727,-28.7097 c -0.70581,-3.71583 -1.55693,-6.46639 -2.55335,-8.2517 -0.99644,-1.78523 -2.23161,-2.67787 -3.70549,-2.67791 -1.18327,3e-5 -2.21602,0.45154 -3.09828,1.35452 -0.88226,0.90306 -1.37529,2.2991 -1.47908,4.18813 h -1.12098 c 0.0623,-3.05153 0.67466,-5.4959 1.83717,-7.33311 1.1625,-1.83713 2.61563,-2.75572 4.35939,-2.75576 1.12098,3e-5 2.18487,0.46193 3.1917,1.38566 1.0068,0.92382 1.87867,2.5015 2.61563,4.73306 0.73693,2.23162 1.88387,6.85569 3.44081,13.87219 l 2.21083,9.87091 c 0.89262,4.08953 1.83196,6.82453 2.81803,8.205 0.98603,1.38047 2.1641,2.07071 3.53422,2.07071 2.32498,0 3.64317,-1.63997 3.95459,-4.91989 z"
     id="text2175-3"
     sodipodi:nodetypes="cccsccccccccccccccccccsc"
     inkscape:label="lambda" />
  <path
     id="text2175-4-8"
     d="m 119.33775,277.85469 h 7.70641 l -4.66823,20.98706 c -0.90556,3.98904 -1.52589,6.43681 -1.86095,7.34328 1.20896,5.56066 2.96122,8.34076 5.26139,8.34076 2.7167,0 4.12486,-1.87363 4.21542,-5.62088 h 1.63002 c -0.0905,3.50547 -0.73351,6.33855 -1.92434,8.49924 -1.19534,2.1616 -2.75745,3.23923 -4.69538,3.23923 -1.59832,0 -2.79368,-0.64748 -3.577,-1.94743 -0.78785,-1.2995 -1.63455,-3.95871 -2.54013,-7.97763 -3.14232,6.61791 -8.28145,9.92506 -15.41283,9.92506 -4.862904,0 -8.734224,-1.89446 -11.604884,-5.68698 -2.87066,-3.79254 -4.30598,-9.22461 -4.30598,-16.29577 0,-6.95025 1.57115,-12.35967 4.71349,-16.22783 3.14234,-3.86796 6.92309,-5.80199 11.333224,-5.80199 3.11516,0 5.66888,1.10304 7.66112,3.30896 1.99679,2.20597 3.76267,5.802 5.30213,10.78853 z m -3.98905,17.76913 c -1.42174,-4.86565 -3.0065,-8.66542 -4.75877,-11.40025 -1.75228,-2.73481 -3.8532,-4.10223 -6.30278,-4.10223 -5.528494,0 -8.295024,6.46668 -8.295024,19.4005 0,12.26912 2.64427,18.40347 7.932794,18.40347 4.59578,0 7.9962,-5.40899 10.20127,-16.22784 z"
     sodipodi:nodetypes="ccccscccsccssscsccccsssscc"
     inkscape:label="alpha"
     style="fill:#800000;stroke-width:0.0452786" />
  <path
     style="font-style:normal;font-weight:normal;font-size:2050.28px;font-family:'Times New Roman';fill:#000080;fill-opacity:1;stroke:none;stroke-width:0.0367686px;stroke-linecap:butt;stroke-linejoin:miter;stroke-opacity:1"
     d="m 313.82473,307.51447 c -2.13498,4.85886 -5.39875,7.28829 -9.79134,7.28829 -3.06747,0 -5.8834,-1.41717 -8.44778,-4.25149 -2.5644,-2.83433 -3.84659,-6.91406 -3.84659,-12.23918 0,-4.36804 0.76685,-7.93242 2.30059,-10.69317 1.53373,-2.76068 3.53984,-4.87723 6.01836,-6.34965 2.47849,-1.47233 5.77908,-2.20852 9.90176,-2.20856 v 1.36195 c -3.63189,4e-5 -6.45395,1.49696 -8.4662,4.49076 -2.01226,2.99388 -3.01838,7.23923 -3.01838,12.7361 0,5.57052 0.65644,9.38644 1.96932,11.44777 1.31286,2.06133 2.865,3.092 4.6564,3.092 1.15335,0 2.27604,-0.35582 3.36807,-1.06748 1.092,-0.71165 1.85886,-1.46624 2.3006,-2.26378 0.44169,-0.79754 1.11652,-2.43557 2.02452,-4.91408 -1.54602,-3.23923 -2.31902,-6.6625 -2.31899,-10.26985 -3e-5,-5.47233 1.11652,-8.20851 3.34966,-8.20854 2.23308,3e-5 3.34965,2.52762 3.34967,7.58277 -2e-5,3.48465 -0.80984,7.11653 -2.42943,10.89562 1.76682,5.4969 4.29441,8.24534 7.58276,8.24534 1.84044,0 3.42939,-0.96319 4.76684,-2.88955 1.33737,-1.92637 2.00608,-5.56437 2.00611,-10.91403 0,-4.4662 -0.43561,-7.88335 -1.30673,-10.25145 -0.87119,-2.36806 -2.16566,-4.2208 -3.8834,-5.55824 -1.71781,-1.33738 -3.81597,-2.05517 -6.29443,-2.15336 v -1.36195 c 4.12263,0 7.42322,0.74849 9.90176,2.24537 2.47847,1.49696 4.47844,3.60738 5.99996,6.33125 1.52141,2.72393 2.28214,6.24537 2.28218,10.56433 0,5.39874 -1.23316,9.51528 -3.69935,12.34961 -2.46629,2.83432 -5.34356,4.25149 -8.63184,4.25149 -4.51534,0 -7.73003,-2.42943 -9.6441,-7.28829 z"
     id="text2175-40-9"
     sodipodi:nodetypes="csssccccsccssccccccsccccccccccsc"
     inkscape:label="omega" />
</svg>
