<?xml version="1.0" encoding="UTF-8" standalone="no"?>
<!-- Created with Inkscape (http://www.inkscape.org/) -->

<svg
   width="570.61707mm"
   height="570.61719mm"
   viewBox="0 0 570.61707 570.61718"
   version="1.1"
   id="svg8"
   inkscape:version="1.4 (86a8ad7, 2024-10-11)"
   sodipodi:docname="Wufang_Shangdi_–_Five_Forms_of_the_Supreme_Deity_color.svg"
   xmlns:inkscape="http://www.inkscape.org/namespaces/inkscape"
   xmlns:sodipodi="http://sodipodi.sourceforge.net/DTD/sodipodi-0.dtd"
   xmlns="http://www.w3.org/2000/svg"
   xmlns:svg="http://www.w3.org/2000/svg"
   xmlns:rdf="http://www.w3.org/1999/02/22-rdf-syntax-ns#"
   xmlns:cc="http://creativecommons.org/ns#"
   xmlns:dc="http://purl.org/dc/elements/1.1/">
  <defs
     id="defs2" />
  <sodipodi:namedview
     id="base"
     pagecolor="#ffffff"
     bordercolor="#666666"
     borderopacity="1.0"
     inkscape:pageopacity="0.0"
     inkscape:pageshadow="2"
     inkscape:zoom="0.7"
     inkscape:cx="919.28571"
     inkscape:cy="720.71429"
     inkscape:document-units="mm"
     inkscape:current-layer="layer1"
     showgrid="false"
     inkscape:window-width="2560"
     inkscape:window-height="1369"
     inkscape:window-x="1912"
     inkscape:window-y="-8"
     inkscape:window-maximized="1"
     inkscape:pagecheckerboard="0"
     fit-margin-top="0"
     fit-margin-left="0"
     fit-margin-right="0"
     fit-margin-bottom="0"
     inkscape:showpageshadow="2"
     inkscape:deskcolor="#d1d1d1" />
  <metadata
     id="metadata5">
    <rdf:RDF>
      <cc:Work
         rdf:about="">
        <dc:format>image/svg+xml</dc:format>
        <dc:type
           rdf:resource="http://purl.org/dc/dcmitype/StillImage" />
      </cc:Work>
    </rdf:RDF>
  </metadata>
  <g
     inkscape:label="Livello 1"
     inkscape:groupmode="layer"
     id="layer1"
     transform="translate(-623.94239,263.7626)">
    <rect
       style="opacity:1;fill:#ffe680;fill-opacity:1;fill-rule:nonzero;stroke:none;stroke-width:1.59769;stroke-opacity:1"
       id="rect151"
       width="303.823"
       height="304.99301"
       x="-2799.0896"
       y="-1457.8674" />
    <rect
       style="fill:#ffe680;fill-opacity:1;stroke:#000000;stroke-width:5.30461;stroke-opacity:1"
       id="rect361-2"
       width="304.61072"
       height="304.61072"
       x="-2799.8772"
       y="-1457.4852" />
    <rect
       style="fill:#87de87;fill-opacity:1;stroke:#000000;stroke-width:5.30461;stroke-opacity:1"
       id="rect361-2-85"
       width="304.61072"
       height="304.61072"
       x="-2495.2668"
       y="-1457.4852" />
    <rect
       style="fill:#000000;fill-opacity:1;stroke:#000000;stroke-width:5.30461;stroke-opacity:1"
       id="rect361-2-3"
       width="304.61072"
       height="304.61072"
       x="-2799.877"
       y="-1762.0959" />
    <rect
       style="fill:#ff8068;fill-opacity:1;stroke:#000000;stroke-width:5.30461;stroke-opacity:1"
       id="rect361-2-34"
       width="304.61072"
       height="304.61072"
       x="-2799.877"
       y="-1152.8744" />
    <rect
       style="fill:#f9f9f9;fill-opacity:1;stroke:#000000;stroke-width:5.30461;stroke-opacity:1"
       id="rect361-2-8"
       width="304.61072"
       height="304.61072"
       x="-3104.488"
       y="-1457.4852" />
    <g
       aria-label="N       S"
       transform="matrix(1.7149846,0,0,1.7988508,-3120.4155,-1784.0247)"
       style="font-style:normal;font-variant:normal;font-weight:normal;font-stretch:normal;font-size:17.5px;line-height:125%;font-family:Calibri;-inkscape-font-specification:Calibri;text-align:center;letter-spacing:0px;word-spacing:0px;text-anchor:middle;fill:#000000;fill-opacity:1;stroke:none;stroke-width:1px;stroke-linecap:butt;stroke-linejoin:miter;stroke-opacity:1"
       id="flowRoot3402">
      <path
         d="m 279.81738,194.10229 q 0,0.1709 -0.0598,0.29053 -0.0513,0.11963 -0.14527,0.19654 -0.0854,0.0769 -0.19653,0.11108 -0.11108,0.0342 -0.22217,0.0342 h -0.46997 q -0.22217,0 -0.39306,-0.0427 -0.16236,-0.0513 -0.31617,-0.17089 -0.14526,-0.12818 -0.29907,-0.3418 -0.14526,-0.21362 -0.32471,-0.54688 l -3.48632,-6.28906 q -0.27344,-0.48706 -0.55542,-1.01684 -0.27344,-0.53833 -0.5127,-1.04248 h -0.0171 q 0.0171,0.61523 0.0256,1.2561 0.009,0.64087 0.009,1.27319 v 6.67359 q 0,0.0598 -0.0342,0.11963 -0.0342,0.0513 -0.11963,0.0854 -0.0769,0.0256 -0.21362,0.0427 -0.12817,0.0256 -0.33325,0.0256 -0.20508,0 -0.3418,-0.0256 -0.12817,-0.0171 -0.20508,-0.0427 -0.0769,-0.0342 -0.11108,-0.0854 -0.0342,-0.0598 -0.0342,-0.11963 v -10.20264 q 0,-0.3418 0.18799,-0.48706 0.18799,-0.14526 0.41015,-0.14526 h 0.70069 q 0.2478,0 0.41015,0.0427 0.1709,0.0427 0.29908,0.14526 0.13671,0.094 0.25634,0.27344 0.12818,0.1709 0.27344,0.43579 l 2.68311,4.85352 q 0.2478,0.44433 0.47851,0.87158 0.23071,0.4187 0.44434,0.82886 0.21362,0.41015 0.4187,0.81176 0.21362,0.39307 0.4187,0.79468 h 0.009 q -0.0171,-0.67505 -0.0256,-1.40136 0,-0.73487 0,-1.40992 v -5.99853 q 0,-0.0598 0.0342,-0.11109 0.0342,-0.0513 0.11108,-0.0854 0.0854,-0.0427 0.21363,-0.0598 0.13672,-0.0171 0.35034,-0.0171 0.18799,0 0.32471,0.0171 0.13671,0.0171 0.21362,0.0598 0.0769,0.0342 0.11108,0.0854 0.0342,0.0513 0.0342,0.11109 z"
         id="path325"
         inkscape:connector-curvature="0" />
      <path
         d="m 279.03979,344.73218 q 0,0.77759 -0.29052,1.38428 -0.28198,0.60668 -0.79468,1.03393 -0.50415,0.4187 -1.19629,0.63232 -0.68359,0.21363 -1.47827,0.21363 -0.55542,0 -1.03394,-0.094 -0.46997,-0.094 -0.84594,-0.23071 -0.36744,-0.13672 -0.62378,-0.28198 -0.24781,-0.14527 -0.35034,-0.2478 -0.094,-0.10254 -0.14527,-0.25635 -0.0427,-0.16236 -0.0427,-0.42725 0,-0.18799 0.0171,-0.30762 0.0171,-0.12817 0.0513,-0.20507 0.0342,-0.0769 0.0854,-0.10254 0.0513,-0.0342 0.11962,-0.0342 0.11963,0 0.33326,0.14526 0.22216,0.14527 0.56396,0.31616 0.3418,0.1709 0.82031,0.32471 0.48706,0.14526 1.11939,0.14526 0.47851,0 0.87158,-0.12817 0.40161,-0.12817 0.68359,-0.35889 0.29053,-0.23925 0.44434,-0.58105 0.15381,-0.3418 0.15381,-0.77759 0,-0.46997 -0.21362,-0.80322 -0.21363,-0.33325 -0.56397,-0.58106 -0.35034,-0.25634 -0.80322,-0.46142 -0.44434,-0.21362 -0.91431,-0.42725 -0.46997,-0.22217 -0.9143,-0.48706 -0.44434,-0.26489 -0.79468,-0.62378 -0.35034,-0.35888 -0.57251,-0.8374 -0.21363,-0.48706 -0.21363,-1.16211 0,-0.69214 0.24781,-1.23047 0.25634,-0.54687 0.70068,-0.9143 0.45288,-0.36744 1.06812,-0.55542 0.62378,-0.19654 1.34155,-0.19654 0.36743,0 0.73486,0.0684 0.37598,0.0598 0.70069,0.1709 0.33325,0.10254 0.5896,0.23926 0.25634,0.12817 0.33325,0.21362 0.0855,0.0769 0.11108,0.12817 0.0256,0.0427 0.0427,0.11963 0.0171,0.0684 0.0256,0.1709 0.009,0.10254 0.009,0.26489 0,0.15381 -0.0171,0.27344 -0.009,0.11963 -0.0342,0.20508 -0.0256,0.0769 -0.0769,0.11963 -0.0427,0.0342 -0.10254,0.0342 -0.094,0 -0.29907,-0.11963 -0.19653,-0.11963 -0.48706,-0.26489 -0.29053,-0.15381 -0.69214,-0.27344 -0.39307,-0.12817 -0.88867,-0.12817 -0.46143,0 -0.80322,0.12817 -0.3418,0.11963 -0.56397,0.32471 -0.22217,0.20507 -0.33325,0.48706 -0.11108,0.28198 -0.11108,0.59814 0,0.46143 0.21362,0.79468 0.21362,0.33325 0.56396,0.5896 0.35889,0.25635 0.81177,0.46997 0.45288,0.21362 0.92285,0.43579 0.46997,0.21362 0.92285,0.47852 0.45289,0.25634 0.80323,0.61523 0.35888,0.35034 0.57251,0.8374 0.22216,0.47852 0.22216,1.13648 z"
         id="path327"
         inkscape:connector-curvature="0" />
    </g>
    <g
       aria-label="W                                    E"
       transform="matrix(1.6525831,0,0,1.6077978,-3126.8312,-1718.3852)"
       style="font-style:normal;font-weight:normal;font-size:40px;line-height:25px;font-family:sans-serif;letter-spacing:0px;word-spacing:0px;fill:#000000;fill-opacity:1;stroke:none"
       id="flowRoot126">
      <path
         d="m 214.37435,262.45936 q -0.0365,0.1276 -0.10938,0.20963 -0.0729,0.0729 -0.20052,0.11849 -0.1276,0.0365 -0.31901,0.0547 -0.18229,0.0182 -0.45573,0.0182 -0.28255,0 -0.48307,-0.0182 -0.19141,-0.0182 -0.31901,-0.0547 -0.1276,-0.0456 -0.19141,-0.11849 -0.0638,-0.082 -0.10026,-0.20963 l -2.47005,-8.90495 h -0.0182 l -2.27864,8.90495 q -0.0273,0.1276 -0.0911,0.20963 -0.0638,0.0729 -0.18229,0.11849 -0.11849,0.0365 -0.3099,0.0547 -0.18229,0.0182 -0.47396,0.0182 -0.30078,0 -0.5013,-0.0182 -0.20052,-0.0182 -0.32812,-0.0547 -0.12761,-0.0456 -0.20052,-0.11849 -0.0638,-0.082 -0.0911,-0.20963 l -3.11719,-10.89193 q -0.0547,-0.20963 -0.0638,-0.32812 0,-0.11849 0.0729,-0.18229 0.082,-0.0638 0.25521,-0.082 0.17317,-0.0182 0.46484,-0.0182 0.28255,0 0.44661,0.0182 0.16407,0.009 0.2461,0.0456 0.0911,0.0365 0.11849,0.10026 0.0365,0.0638 0.0547,0.16406 l 2.65234,9.88021 h 0.009 l 2.51563,-9.86198 q 0.0273,-0.10026 0.0638,-0.16406 0.0456,-0.0729 0.13672,-0.10938 0.0911,-0.0365 0.25521,-0.0547 0.17317,-0.0182 0.44661,-0.0182 0.25521,0 0.40104,0.0182 0.15495,0.0182 0.2461,0.0547 0.0911,0.0365 0.1276,0.10938 0.0456,0.0638 0.0729,0.16406 l 2.70703,9.86198 h 0.0182 l 2.59766,-9.8711 q 0.0273,-0.0911 0.0547,-0.15494 0.0274,-0.0729 0.10938,-0.10938 0.0911,-0.0365 0.24609,-0.0547 0.16406,-0.0182 0.42839,-0.0182 0.27343,0 0.42838,0.0274 0.16406,0.0182 0.23698,0.082 0.0729,0.0638 0.0638,0.18229 0,0.11849 -0.0456,0.32813 z"
         style="font-style:normal;font-variant:normal;font-weight:normal;font-stretch:normal;font-size:18.6667px;font-family:Calibri;-inkscape-font-specification:Calibri"
         id="path330"
         inkscape:connector-curvature="0" />
      <path
         d="m 378.51888,262.15858 q 0,0.16406 -0.0182,0.29166 -0.0182,0.11849 -0.0638,0.20052 -0.0456,0.082 -0.10938,0.11849 -0.0547,0.0365 -0.1276,0.0365 h -5.66016 q -0.20963,0 -0.40104,-0.13672 -0.18229,-0.14583 -0.18229,-0.5013 V 251.6495 q 0,-0.35547 0.18229,-0.49218 0.19141,-0.14584 0.40104,-0.14584 h 5.59636 q 0.0729,0 0.1276,0.0365 0.0638,0.0365 0.10026,0.11849 0.0365,0.082 0.0547,0.20964 0.0273,0.11849 0.0273,0.30078 0,0.16406 -0.0273,0.29166 -0.0182,0.11849 -0.0547,0.20052 -0.0365,0.0729 -0.10026,0.10938 -0.0547,0.0365 -0.1276,0.0365 h -4.61198 v 3.70052 h 3.95573 q 0.0729,0 0.1276,0.0456 0.0638,0.0365 0.10026,0.10938 0.0456,0.0729 0.0638,0.20052 0.0182,0.1276 0.0182,0.30078 0,0.16406 -0.0182,0.28255 -0.0182,0.11849 -0.0638,0.19141 -0.0365,0.0729 -0.10026,0.10937 -0.0547,0.0274 -0.1276,0.0274 h -3.95573 v 4.22005 h 4.67578 q 0.0729,0 0.1276,0.0365 0.0638,0.0365 0.10938,0.11849 0.0456,0.0729 0.0638,0.20052 0.0182,0.11849 0.0182,0.30078 z"
         style="font-style:normal;font-variant:normal;font-weight:normal;font-stretch:normal;font-size:18.6667px;font-family:Calibri;-inkscape-font-specification:Calibri"
         id="path332"
         inkscape:connector-curvature="0" />
    </g>
    <text
       xml:space="preserve"
       style="font-style:normal;font-weight:normal;font-size:29.6056px;line-height:1.25;font-family:sans-serif;text-align:center;text-anchor:middle;fill:#ffffff;fill-opacity:1;stroke:none;stroke-width:0.614598"
       x="-2649.6594"
       y="-1678.9192"
       id="text2666"><tspan
         sodipodi:role="line"
         id="tspan2664"
         style="font-size:29.6056px;text-align:center;text-anchor:middle;fill:#ffffff;stroke-width:0.614598"
         x="-2649.6594"
         y="-1678.9192">黑帝 Heidi</tspan><tspan
         sodipodi:role="line"
         style="font-size:29.6056px;text-align:center;text-anchor:middle;fill:#ffffff;stroke-width:0.614598"
         x="-2649.6594"
         y="-1641.9122"
         id="tspan5212">Black Deity</tspan><tspan
         sodipodi:role="line"
         style="font-size:29.6056px;text-align:center;text-anchor:middle;fill:#ffffff;stroke-width:0.614598"
         x="-2649.6594"
         y="-1604.9052"
         id="tspan5214">water, winter</tspan><tspan
         sodipodi:role="line"
         style="font-size:29.6056px;text-align:center;text-anchor:middle;fill:#ffffff;stroke-width:0.614598"
         x="-2649.6594"
         y="-1567.8982"
         id="tspan5216">Zhuanxu</tspan><tspan
         sodipodi:role="line"
         style="font-size:29.6056px;text-align:center;text-anchor:middle;fill:#ffffff;stroke-width:0.614598"
         x="-2649.6594"
         y="-1530.8912"
         id="tspan5218">Mercury</tspan></text>
    <text
       xml:space="preserve"
       style="font-style:normal;font-weight:normal;font-size:29.6056px;line-height:1.25;font-family:sans-serif;text-align:center;text-anchor:middle;fill:#000000;fill-opacity:1;stroke:none;stroke-width:0.740142"
       x="-2647.5862"
       y="-1368.6143"
       id="text2666-3"><tspan
         sodipodi:role="line"
         id="tspan2664-6"
         style="text-align:center;text-anchor:middle;fill:#000000;stroke-width:0.740142"
         x="-2647.5862"
         y="-1368.6143">黄帝 Huangdi</tspan><tspan
         sodipodi:role="line"
         style="text-align:center;text-anchor:middle;fill:#000000;stroke-width:0.740142"
         x="-2647.5862"
         y="-1331.6073"
         id="tspan5212-1">Yellow Deity</tspan><tspan
         sodipodi:role="line"
         style="text-align:center;text-anchor:middle;fill:#000000;stroke-width:0.740142"
         x="-2647.5862"
         y="-1294.6002"
         id="tspan52510">earth, year</tspan><tspan
         sodipodi:role="line"
         style="text-align:center;text-anchor:middle;fill:#000000;stroke-width:0.740142"
         x="-2647.5862"
         y="-1257.5933"
         id="tspan57730">Xuanyuan</tspan><tspan
         sodipodi:role="line"
         style="text-align:center;text-anchor:middle;fill:#000000;stroke-width:0.740142"
         x="-2647.5862"
         y="-1220.5863"
         id="tspan27428">Saturn</tspan></text>
    <text
       xml:space="preserve"
       style="font-style:normal;font-weight:normal;font-size:29.6056px;line-height:1.25;font-family:sans-serif;text-align:center;text-anchor:middle;fill:#000000;fill-opacity:1;stroke:none;stroke-width:0.740142"
       x="-2347.5161"
       y="-1371.0361"
       id="text2666-3-9"><tspan
         sodipodi:role="line"
         id="tspan2664-6-33"
         style="text-align:center;text-anchor:middle;fill:#000000;stroke-width:0.740142"
         x="-2347.5161"
         y="-1371.0361">蒼帝 Qingdi</tspan><tspan
         sodipodi:role="line"
         style="text-align:center;text-anchor:middle;fill:#000000;stroke-width:0.740142"
         x="-2347.5161"
         y="-1334.0292"
         id="tspan5212-1-09">Green Deity</tspan><tspan
         sodipodi:role="line"
         style="text-align:center;text-anchor:middle;fill:#000000;stroke-width:0.740142"
         x="-2347.5161"
         y="-1297.0221"
         id="tspan36220">wood, spring</tspan><tspan
         sodipodi:role="line"
         style="text-align:center;text-anchor:middle;fill:#000000;stroke-width:0.740142"
         x="-2347.5161"
         y="-1260.0151"
         id="tspan43091">Taihao</tspan><tspan
         sodipodi:role="line"
         style="text-align:center;text-anchor:middle;fill:#000000;stroke-width:0.740142"
         x="-2347.5161"
         y="-1223.0082"
         id="tspan41460">Jupiter</tspan></text>
    <text
       xml:space="preserve"
       style="font-style:normal;font-weight:normal;font-size:29.6056px;line-height:1.25;font-family:sans-serif;text-align:center;text-anchor:middle;fill:#000000;fill-opacity:1;stroke:none;stroke-width:0.740142"
       x="-2945.2192"
       y="-1368.453"
       id="text2666-3-5"><tspan
         sodipodi:role="line"
         id="tspan2664-6-9"
         style="text-align:center;text-anchor:middle;fill:#000000;stroke-width:0.740142"
         x="-2945.2192"
         y="-1368.453">白帝 Baidi</tspan><tspan
         sodipodi:role="line"
         style="text-align:center;text-anchor:middle;fill:#000000;stroke-width:0.740142"
         x="-2945.2192"
         y="-1331.446"
         id="tspan5212-1-3">White Deity</tspan><tspan
         sodipodi:role="line"
         style="text-align:center;text-anchor:middle;fill:#000000;stroke-width:0.740142"
         x="-2945.2192"
         y="-1294.439"
         id="tspan37638">metal, autumn</tspan><tspan
         sodipodi:role="line"
         style="text-align:center;text-anchor:middle;fill:#000000;stroke-width:0.740142"
         x="-2945.2192"
         y="-1257.432"
         id="tspan17387-7">Shaohao</tspan><tspan
         sodipodi:role="line"
         style="text-align:center;text-anchor:middle;fill:#000000;stroke-width:0.740142"
         x="-2945.2192"
         y="-1220.425"
         id="tspan25102">Venus</tspan></text>
    <text
       xml:space="preserve"
       style="font-style:normal;font-weight:normal;font-size:29.6056px;line-height:1.25;font-family:sans-serif;text-align:center;text-anchor:middle;fill:#000000;fill-opacity:1;stroke:none;stroke-width:0.740142"
       x="-2648.2102"
       y="-1063.5752"
       id="text2666-3-6"><tspan
         sodipodi:role="line"
         id="tspan2664-6-3"
         style="text-align:center;text-anchor:middle;fill:#000000;stroke-width:0.740142"
         x="-2648.2102"
         y="-1063.5752">赤帝 Chidi</tspan><tspan
         sodipodi:role="line"
         style="text-align:center;text-anchor:middle;fill:#000000;stroke-width:0.740142"
         x="-2648.2102"
         y="-1026.5682"
         id="tspan5212-1-0">Red Deity</tspan><tspan
         sodipodi:role="line"
         style="text-align:center;text-anchor:middle;fill:#000000;stroke-width:0.740142"
         x="-2648.2102"
         y="-989.56128"
         id="tspan5218-4-3">fire, summer</tspan><tspan
         sodipodi:role="line"
         style="text-align:center;text-anchor:middle;fill:#000000;stroke-width:0.740142"
         x="-2648.2102"
         y="-952.55426"
         id="tspan17387-6">Shennong</tspan><tspan
         sodipodi:role="line"
         style="text-align:center;text-anchor:middle;fill:#000000;stroke-width:0.740142"
         x="-2648.2102"
         y="-915.54724"
         id="tspan33824">Mars</tspan></text>
    <path
       id="_p_template"
       class="s_path"
       d=""
       style="fill:#5ba9a6;stroke:#000000;stroke-width:1.66155px;stroke-linecap:round;stroke-linejoin:round" />
    <path
       class="s_path"
       d="m 755.67881,24.574061 33.78121,-58.510808 33.78133,58.510808 z"
       id="path7"
       style="fill:#800000;stroke:#000000;stroke-width:0.675623px;stroke-linecap:round;stroke-linejoin:round" />
    <path
       class="s_path"
       d="m 823.24135,24.574061 33.7812,-58.510808 33.78121,58.510808 z"
       id="path9"
       style="fill:#800000;stroke:#000000;stroke-width:0.675623px;stroke-linecap:round;stroke-linejoin:round" />
    <path
       class="s_path"
       d="m 789.46002,-33.936747 33.78133,-58.510817 33.7812,58.510817 z"
       id="path11"
       style="fill:#800000;stroke:#000000;stroke-width:0.675623px;stroke-linecap:round;stroke-linejoin:round" />
    <path
       class="s_path"
       d="m 890.80376,24.574061 33.78121,-58.510808 33.78121,58.510808 z"
       id="path13"
       style="fill:#000080;stroke:#000000;stroke-width:0.675623px;stroke-linecap:round;stroke-linejoin:round" />
    <path
       class="s_path"
       d="m 958.36618,24.574061 33.78132,-58.510808 33.7813,58.510808 z"
       id="path15"
       style="fill:#000080;stroke:#000000;stroke-width:0.675623px;stroke-linecap:round;stroke-linejoin:round" />
    <path
       class="s_path"
       d="m 924.58497,-33.936747 33.78121,-58.510817 33.78132,58.510817 z"
       id="path17"
       style="fill:#000080;stroke:#000000;stroke-width:0.675623px;stroke-linecap:round;stroke-linejoin:round" />
    <path
       class="s_path"
       d="m 823.24135,-92.447564 33.7812,-58.510816 33.78121,58.510816 z"
       id="path19"
       style="fill:#008000;stroke:#000000;stroke-width:0.675623px;stroke-linecap:round;stroke-linejoin:round" />
    <path
       class="s_path"
       d="m 890.80376,-92.447564 33.78121,-58.510816 33.78121,58.510816 z"
       id="path21"
       style="fill:#008000;stroke:#000000;stroke-width:0.675623px;stroke-linecap:round;stroke-linejoin:round" />
    <path
       class="s_path"
       d="m 857.02255,-150.95838 33.78121,-58.51081 33.78121,58.51081 z"
       id="path23"
       style="fill:#008000;stroke:#000000;stroke-width:0.675623px;stroke-linecap:round;stroke-linejoin:round" />
    <text
       xml:space="preserve"
       style="font-style:normal;font-weight:normal;font-size:44.8482px;line-height:1.25;font-family:sans-serif;fill:#000000;fill-opacity:1;stroke:none;stroke-width:1.1212"
       x="773.09753"
       y="20.253698"
       id="text2373"><tspan
         sodipodi:role="line"
         id="tspan2371"
         x="773.09753"
         y="20.253698"
         style="stroke-width:1.1212">1</tspan></text>
    <text
       xml:space="preserve"
       style="font-style:normal;font-weight:normal;font-size:44.8482px;line-height:1.25;font-family:sans-serif;fill:#000000;fill-opacity:1;stroke:none;stroke-width:1.1212"
       x="808.19965"
       y="-41.398506"
       id="text2373-1"><tspan
         sodipodi:role="line"
         id="tspan2371-3"
         x="808.19965"
         y="-41.398506"
         style="stroke-width:1.1212">2</tspan></text>
    <text
       xml:space="preserve"
       style="font-style:normal;font-weight:normal;font-size:44.8482px;line-height:1.25;font-family:sans-serif;fill:#000000;fill-opacity:1;stroke:none;stroke-width:1.1212"
       x="843.72217"
       y="20.591833"
       id="text2373-4"><tspan
         sodipodi:role="line"
         id="tspan2371-2"
         x="843.72217"
         y="20.591833"
         style="stroke-width:1.1212">3</tspan></text>
    <text
       xml:space="preserve"
       style="font-style:normal;font-weight:normal;font-size:44.8482px;line-height:1.25;font-family:sans-serif;fill:#000000;fill-opacity:1;stroke:none;stroke-width:1.1212"
       x="837.68573"
       y="-96.655731"
       id="text2373-16"><tspan
         sodipodi:role="line"
         id="tspan2371-4"
         x="837.68573"
         y="-96.655731"
         style="stroke-width:1.1212">4</tspan></text>
    <text
       xml:space="preserve"
       style="font-style:normal;font-weight:normal;font-size:44.8482px;line-height:1.25;font-family:sans-serif;fill:#000000;fill-opacity:1;stroke:none;stroke-width:1.1212"
       x="874.60126"
       y="-157.94957"
       id="text2373-2"><tspan
         sodipodi:role="line"
         id="tspan2371-8"
         x="874.60126"
         y="-157.94957"
         style="stroke-width:1.1212">5</tspan></text>
    <text
       xml:space="preserve"
       style="font-style:normal;font-weight:normal;font-size:44.8482px;line-height:1.25;font-family:sans-serif;fill:#000000;fill-opacity:1;stroke:none;stroke-width:1.1212"
       x="909.65942"
       y="-95.030563"
       id="text2373-9"><tspan
         sodipodi:role="line"
         id="tspan2371-9"
         x="909.65942"
         y="-95.030563"
         style="stroke-width:1.1212">6</tspan></text>
    <text
       xml:space="preserve"
       style="font-style:normal;font-weight:normal;font-size:44.8482px;line-height:1.25;font-family:sans-serif;fill:#000000;fill-opacity:1;stroke:none;stroke-width:1.1212"
       x="909.8916"
       y="22.449228"
       id="text2373-3"><tspan
         sodipodi:role="line"
         id="tspan2371-6"
         x="909.8916"
         y="22.449228"
         style="stroke-width:1.1212">7</tspan></text>
    <text
       xml:space="preserve"
       style="font-style:normal;font-weight:normal;font-size:44.8482px;line-height:1.25;font-family:sans-serif;fill:#000000;fill-opacity:1;stroke:none;stroke-width:1.1212"
       x="944.02106"
       y="-37.683708"
       id="text2373-40"><tspan
         sodipodi:role="line"
         id="tspan2371-65"
         x="944.02106"
         y="-37.683708"
         style="stroke-width:1.1212">8</tspan></text>
    <text
       xml:space="preserve"
       style="font-style:normal;font-weight:normal;font-size:44.8482px;line-height:1.25;font-family:sans-serif;fill:#000000;fill-opacity:1;stroke:none;stroke-width:1.1212"
       x="977.22186"
       y="21.984837"
       id="text2373-18"><tspan
         sodipodi:role="line"
         id="tspan2371-66"
         x="977.22186"
         y="21.984837"
         style="stroke-width:1.1212">9</tspan></text>
    <text
       xml:space="preserve"
       style="font-style:normal;font-weight:normal;font-size:66.4619px;line-height:1.25;font-family:sans-serif;fill:#000000;fill-opacity:1;stroke:none;stroke-width:1.66155"
       x="48.819805"
       y="36.594231"
       id="text4843"><tspan
         sodipodi:role="line"
         id="tspan4841"
         x="48.819805"
         y="36.594231"
         style="stroke-width:1.66155" /></text>
    <path
       style="fill:#000000;stroke-width:0.426184"
       id="path14"
       d="m -2427.1513,-1616.7536 c 1.5417,0.09 3.0859,0.1434 4.6248,0.2697 12.1791,1.0045 24.306,2.693 36.4492,4.0351 13.9975,1.5469 19.718,2.0897 33.5731,3.4846 11.2756,1.9834 23.4107,0.9009 34.2431,5.2565 2.22,0.8927 4.5958,1.8359 6.2075,3.6042 0.5311,0.5828 -1.1003,1.395 -0.9459,2.1681 0.5176,2.5878 1.9038,4.9226 2.8558,7.3837 4.5108,19.8448 3.4569,40.3469 2.4865,60.5119 -0.7203,11.6074 -1.7979,23.1881 -2.7882,34.7745 0,0 5.5544,2.8864 5.5544,2.8864 v 0 c 0.8734,-11.6327 1.8708,-23.2564 2.5889,-34.9004 0.9498,-20.2244 2.0067,-40.7531 -2.2965,-60.6929 -0.9109,-2.5146 -1.1076,-5.4196 -2.7325,-7.5438 -2.9515,-3.8581 -10.4585,-9.8694 -15.7508,-11.8901 -10.827,-4.134 -22.8359,-3.065 -34.0565,-4.9963 -14.1193,-1.4062 -19.2915,-1.8727 -33.5763,-3.4991 -13.8566,-1.5776 -27.675,-3.6695 -41.5959,-4.6005 z" />
    <path
       style="fill:#000000;stroke-width:0.426184"
       id="path16"
       d="m -2342.0556,-1532.1408 c 4.8765,5.6497 10.88,10.1671 16.5452,14.9811 3.7817,3.5699 8.1026,6.528 11.8151,10.1725 2.2953,2.2533 4.298,4.6 6.4273,7.0054 3.6545,4.1157 4.2182,5.5525 11.3922,7.1034 1.5129,0.3271 3.0325,-0.6756 4.4772,-1.2308 5.633,-2.1649 10.7801,-5.7466 15.8734,-8.9078 4.581,-2.9659 9.3607,-5.6018 14.1093,-8.2842 0,0 -5.2376,-3.406 -5.2376,-3.406 v 0 c -4.7296,2.7103 -9.4856,5.3811 -14.0679,8.3385 -5.0361,3.1096 -10.1853,6.7435 -15.8267,8.7053 -1.3924,0.4842 -3.4619,-0.2563 -4.3212,0.9417 -0.5865,0.8174 2.6832,2.9942 2.0695,2.1971 -0.8267,-1.0739 -1.8071,-2.0201 -2.7106,-3.0301 -1.8273,-2.0793 -4.4211,-5.0973 -6.3776,-7.0576 -3.6787,-3.6859 -8.0266,-6.6112 -11.8028,-10.1917 -5.6245,-4.7885 -11.5576,-9.2798 -16.5214,-14.78 z" />
    <path
       style="fill:#000000;stroke-width:0.426184"
       id="path18"
       d="m -2326.982,-1086.7285 c 0.2391,25.4869 0.2368,50.9754 0.1879,76.463 -0.089,5.9196 -0.1933,15.42596 -0.4211,21.58476 -0.064,1.74173 -0.1619,10.24615 -1.514,12.52363 -2.372,3.99633 -7.1384,3.64277 -10.9676,4.32638 -3.6885,0.10631 -7.3756,0.30959 -11.0657,0.32006 -7.2218,0.0209 -19.3825,-0.47582 -26.4936,-0.76528 -12.3733,-0.50336 -24.7433,-1.1 -37.1155,-1.62881 -3.1811,-0.12887 -6.3622,-0.25773 -9.5432,-0.38659 0,0 4.8823,3.57609 4.8823,3.57609 v 0 c 3.1623,0.11597 6.3244,0.23146 9.4865,0.34728 12.3461,0.49725 24.6892,1.06408 37.035,1.56712 7.0732,0.28817 19.4175,0.80636 26.6,0.79412 3.7496,0 7.4964,-0.20747 11.2445,-0.31137 4.3275,-0.86547 8.8723,-0.49467 11.4223,-4.89772 1.3557,-2.34046 1.3591,-10.87967 1.4096,-12.70935 0.1498,-5.42816 0.2257,-16.66232 0.2724,-21.67432 -0.048,-25.424 -0.052,-50.8486 0.1878,-76.2719 z" />
    <path
       style="fill:#000000;stroke-width:0.426184"
       id="path20"
       d="m -2393.6963,-1019.694 c -6.7011,9.738 -14.3193,18.7942 -21.3086,28.32037 -3.1564,4.54802 -6.1055,9.24489 -8.94,13.99974 -1.0807,1.81293 -2.2923,3.41951 -2.2767,5.64287 0,1.05458 0.4201,2.06679 0.6302,3.10026 0.79,1.45405 1.4819,2.96592 2.3702,4.36198 2.7213,4.27678 6.366,8.68692 9.5888,12.50849 6.2058,7.35851 12.8205,14.31706 19.4741,21.26611 0,0 5.6017,2.3337 5.6017,2.3337 v 0 c -6.6645,-6.92634 -13.2833,-13.86315 -19.4829,-21.21586 -3.3475,-3.97008 -6.6451,-7.98559 -9.4829,-12.34435 -0.8729,-1.34065 -1.5845,-2.77988 -2.3767,-4.16982 -0.2458,-0.95068 -0.6881,-1.8714 -0.7374,-2.8522 -0.108,-2.13975 1.0882,-3.74393 2.1024,-5.48952 2.7715,-4.77016 5.6886,-9.46799 8.8268,-14.00554 6.987,-9.54514 14.6151,-18.59993 21.4997,-28.22323 z" />
    <path
       style="fill:#000000;stroke-width:0.426184"
       id="path22"
       d="m -2740.0835,-1095.1585 c 0.7022,-13.681 0.6923,-27.3894 0.804,-41.0848 0.1159,-14.3395 0.1862,-28.6791 0.2181,-43.0189 -5e-4,-5.1134 0,-10.2268 0.016,-15.34 0,-2.292 0.2804,-4.5977 0.027,-6.8756 -0.053,-0.4791 -0.3294,-0.9058 -0.4942,-1.3586 -2.5053,-0.772 -4.8942,-2.3283 -7.5158,-2.3161 -1.318,0 -2.1244,1.5617 -3.1687,2.3661 -4.4088,3.3955 -8.7732,6.8147 -13.2687,10.0976 0,0 5.2464,3.3267 5.2464,3.3267 v 0 c 4.4873,-3.2942 8.8511,-6.7489 13.3265,-10.0564 1.0276,-0.7594 3.2342,-0.9192 3.1435,-2.194 -0.124,-1.752 -2.3833,-2.5811 -3.5749,-3.8717 0.2244,0.3791 0.6,0.7025 0.6733,1.1368 0.1646,0.9761 0.016,1.9796 0.019,2.9696 0,1.3123 0.016,2.6248 0.016,3.9371 0.016,5.1185 0.021,10.2371 0.018,15.3558 0.016,14.3625 0.034,28.7255 -0.073,43.0878 -0.1305,13.6322 -0.1531,27.2848 -1.0664,40.8921 z" />
    <path
       style="fill:#000000;stroke-width:0.426184"
       id="path24"
       d="m -2744.2771,-1199.8706 c 15.7485,9.0199 32.3648,16.3689 49.2918,22.8595 7.5684,2.5231 4.0043,1.4888 10.6601,3.2114 0,0 -4.9611,-3.8011 -4.9611,-3.8011 v 0 c -6.5504,-1.7129 -3.0373,-0.6878 -10.5081,-3.1808 -8.5948,-3.2961 -17.0963,-6.7587 -25.4411,-10.6564 -4.8372,-2.2593 -9.4607,-4.9699 -14.3515,-7.111 -0.4804,-0.2102 0.8308,0.6402 1.2464,0.9602 z" />
    <path
       style="fill:#000000;stroke-width:0.426184"
       id="path25"
       d="m -2751.8943,-1258.8416 c -16.5504,-0.063 -33.091,-1.0403 -49.6272,-1.7144 -9.1691,-0.3749 -18.342,-0.6266 -27.5181,-0.7116 -3.428,-0.2764 -6.8366,-0.7418 -10.2505,-1.1496 0,0 5.0532,3.764 5.0532,3.764 v 0 c 3.4281,0.41 6.8522,0.8791 10.2996,1.0994 9.123,0.074 18.2442,0.2756 27.361,0.6206 16.6011,0.6232 33.1979,1.5419 49.8075,1.8154 z" />
    <path
       style="fill:#000000;stroke-width:0.426184"
       id="path26"
       d="m -2822.1876,-1297.146 c -5.4669,10.1715 -11.246,20.1714 -16.9717,30.199 -1.434,3.3839 -5.806,8.169 -4.9016,12.2093 0.3621,1.6171 1.2978,2.5732 2.2529,3.8648 3.977,4.303 8.13,8.4404 12.2543,12.6017 2.6534,2.6658 1.3279,1.2949 3.9734,4.1165 0,0 5.8323,2.4403 5.8323,2.4403 v 0 c -2.6265,-2.844 -1.3045,-1.4675 -3.9613,-4.1335 -4.1206,-4.1433 -8.2292,-8.2984 -12.2663,-12.5232 -0.8384,-1.0275 -1.9733,-2.1902 -2.3958,-3.5147 -1.1951,-3.7468 3.3135,-8.8179 4.5849,-11.9647 5.6704,-10.0633 11.4342,-20.0717 17.1216,-30.1249 z" />
    <path
       style="fill:#000000;stroke-width:0.426184"
       id="path27"
       d="m -2947.5069,-1488.0445 c -0.2479,-1.713 -0.5322,-3.4211 -0.7437,-5.139 -1.2399,-10.0673 -2.31,-20.1444 -3.7086,-30.1943 -0.5659,-4.0664 -3.55,-24.2238 -4.1207,-28.0907 -1.8466,-12.2179 -4.0158,-24.3829 -6.1066,-36.5604 -0.4832,-2.8147 -0.9895,-5.6257 -1.4413,-8.4456 -0.3417,-2.1309 -1.1753,-4.2609 -0.9391,-6.4059 0.1704,-1.5477 1.4022,-2.7804 2.1033,-4.1705 1.8874,-0.7777 3.6597,-1.937 5.6622,-2.333 6.8205,-1.3491 21.7772,-1.6869 28.1132,-1.8077 13.5114,-0.2578 27.0234,0.074 40.5293,0.4129 11.4487,0.3824 6.0765,0.1843 16.1169,0.5813 0,0 -4.9676,-3.6366 -4.9676,-3.6366 v 0 c -9.9482,-0.3199 -4.6234,-0.1611 -15.9747,-0.4672 -13.4669,-0.2694 -26.9395,-0.5346 -40.4097,-0.2857 -5.9551,0.1095 -22.068,0.4159 -28.5536,1.7751 -2.1259,0.4455 -3.9616,1.7821 -5.9424,2.6732 -0.7404,1.5125 -2.0368,2.8635 -2.2212,4.5374 -0.2384,2.165 0.6466,4.3085 1.0099,6.4562 0.4792,2.8323 1.0123,5.6554 1.5179,8.4833 2.1789,12.1881 4.3966,24.371 6.2532,36.6139 1.0484,7.1613 3.0651,20.7838 4.0414,28.0399 1.3469,10.0102 2.3682,20.0327 3.4485,30.0706 0.1827,1.6978 0.4288,3.388 0.6432,5.082 z" />
    <path
       style="fill:#000000;stroke-width:0.426184"
       id="path28"
       d="m -2905.699,-1647.7973 c 7.8301,10.2866 15.2745,20.8541 22.5399,31.5447 6.9977,9.5227 11.917,20.3982 18.8244,29.9645 1.5753,1.983 1.8875,2.8174 6.0758,2.2597 0.6791,-0.09 -0.6483,-1.2087 -1.018,-1.7855 -1.1134,-1.7381 -2.4568,-3.264 -3.8807,-4.746 -2.1778,-1.1798 -4.1527,-2.8555 -6.5331,-3.5395 -0.4519,-0.1305 -1.7137,2.1154 -2.3229,3.5854 -1.8125,4.3732 -3.1121,9.0177 -4.6885,13.4794 -3.8069,11.4852 -10.8647,21.2819 -17.9671,30.9105 0,0 5.333,3.1579 5.333,3.1579 v 0 c 7.1057,-9.6957 14.2352,-19.5221 18.078,-31.0562 1.5808,-4.4227 2.9081,-9.025 4.7534,-13.3479 0.3072,-0.7195 0.6505,-1.4303 1.0837,-2.0817 0.1964,-0.2953 1.0347,-0.4739 0.7813,-0.7221 -1.245,-1.2204 -2.9339,-1.8837 -4.4008,-2.8255 1.4563,1.4223 2.8064,2.9102 3.952,4.6028 0.3721,0.5499 0.5,1.3049 1.0295,1.7056 2.0036,1.5167 4.2036,2.7696 6.4278,3.9395 0.4015,0.2113 -0.5954,-0.6854 -0.893,-1.028 -7.1622,-9.4493 -11.9802,-20.4738 -19.0227,-30.0228 -7.2076,-10.6522 -14.6421,-21.144 -22.2933,-31.4823 z" />
    <text
       xml:space="preserve"
       style="font-size:3.175px;text-align:start;writing-mode:lr-tb;direction:ltr;text-anchor:start;fill:#000000;stroke-width:0.264583"
       x="-87.408752"
       y="306.22546"
       id="text28"><tspan
         sodipodi:role="line"
         id="tspan28"
         style="stroke-width:0.264583"></tspan></text>
    <text
       xml:space="preserve"
       style="font-size:3.175px;text-align:start;writing-mode:lr-tb;direction:ltr;text-anchor:start;fill:#000000;stroke-width:0.264583"
       x="-75.31356"
       y="9.1362104"
       id="text34"><tspan
         sodipodi:role="line"
         id="tspan34"
         style="stroke-width:0.264583"></tspan></text>
    <text
       xml:space="preserve"
       style="font-size:3.175px;text-align:start;writing-mode:lr-tb;direction:ltr;text-anchor:start;fill:#000000;stroke-width:0.264583"
       x="-39.687832"
       y="220.93068"
       id="text35"><tspan
         sodipodi:role="line"
         id="tspan35"
         style="stroke-width:0.264583"
         x="-39.687832"
         y="220.93068" /></text>
    <text
       xml:space="preserve"
       style="font-size:8.12925px;text-align:start;writing-mode:lr-tb;direction:ltr;text-anchor:start;fill:#000000;stroke-width:0.677436"
       x="703.10297"
       y="-1.1018045"
       id="text36"><tspan
         sodipodi:role="line"
         id="tspan36"
         style="text-align:center;text-anchor:middle;stroke-width:0.677436"
         x="703.10297"
         y="-1.1018045">αα Alienation - The Pride</tspan><tspan
         sodipodi:role="line"
         style="text-align:center;text-anchor:middle;stroke-width:0.677436"
         x="703.10297"
         y="9.0597572"
         id="tspan69">Houtu</tspan><tspan
         sodipodi:role="line"
         style="text-align:center;text-anchor:middle;stroke-width:0.677436"
         x="703.10297"
         y="19.806988"
         id="tspan70">后土大帝</tspan><tspan
         sodipodi:role="line"
         style="text-align:center;text-anchor:middle;stroke-width:0.677436"
         x="703.10297"
         y="29.96855"
         id="tspan37" /><tspan
         sodipodi:role="line"
         style="text-align:center;text-anchor:middle;stroke-width:0.677436"
         x="703.10297"
         y="40.130112"
         id="tspan38" /></text>
    <text
       xml:space="preserve"
       style="font-size:8.12925px;text-align:start;writing-mode:lr-tb;direction:ltr;text-anchor:start;fill:#000000;stroke-width:0.677436"
       x="746.83411"
       y="-70.838348"
       id="text39"><tspan
         sodipodi:role="line"
         id="tspan39"
         style="text-align:center;text-anchor:middle;stroke-width:0.677436"
         x="746.83411"
         y="-70.838348">αλ Angst - Inner Dialogue</tspan><tspan
         sodipodi:role="line"
         style="text-align:center;text-anchor:middle;stroke-width:0.677436"
         x="746.83411"
         y="-60.091118"
         id="tspan41">黑帝 Heidi</tspan></text>
    <text
       xml:space="preserve"
       style="font-size:8.12925px;text-align:start;writing-mode:lr-tb;direction:ltr;text-anchor:start;fill:#000000;stroke-width:0.677436"
       x="821.17084"
       y="42.360123"
       id="text42"><tspan
         sodipodi:role="line"
         id="tspan42"
         style="text-align:center;text-anchor:middle;stroke-width:0.677436"
         x="821.17084"
         y="42.360123">αω Absurdity - Enlensing</tspan><tspan
         sodipodi:role="line"
         style="text-align:center;text-anchor:middle;stroke-width:0.677436"
         x="821.17084"
         y="53.107353"
         id="tspan44">白帝 Baidi</tspan></text>
    <text
       xml:space="preserve"
       style="font-size:8.12925px;text-align:start;writing-mode:lr-tb;direction:ltr;text-anchor:start;fill:#000000;stroke-width:0.677436"
       x="780.20111"
       y="-135.65744"
       id="text45"><tspan
         sodipodi:role="line"
         id="tspan45"
         style="text-align:center;text-anchor:middle;stroke-width:0.677436"
         x="780.20111"
         y="-135.65744">λα Forgetting - Remembering</tspan><tspan
         sodipodi:role="line"
         style="text-align:center;text-anchor:middle;stroke-width:0.677436"
         x="780.20111"
         y="-125.49588"
         id="tspan66">Tianhuang Emperor</tspan><tspan
         sodipodi:role="line"
         style="text-align:center;text-anchor:middle;stroke-width:0.677436"
         x="780.20111"
         y="-114.74865"
         id="tspan64">天皇大帝</tspan><tspan
         sodipodi:role="line"
         style="text-align:center;text-anchor:middle;stroke-width:0.677436"
         x="780.20111"
         y="-104.58708"
         id="tspan46" /><tspan
         sodipodi:role="line"
         style="text-align:center;text-anchor:middle;stroke-width:0.677436"
         x="780.20111"
         y="-94.425522"
         id="tspan47" /></text>
    <text
       xml:space="preserve"
       style="font-size:8.12925px;text-align:start;writing-mode:lr-tb;direction:ltr;text-anchor:start;fill:#000000;stroke-width:0.677436"
       x="897.93402"
       y="-227.26794"
       id="text48"><tspan
         sodipodi:role="line"
         id="tspan48"
         style="text-align:center;text-anchor:middle;stroke-width:0.677436"
         x="897.93402"
         y="-227.26794">λλ Spiralling - Counter-Spiralling</tspan><tspan
         sodipodi:role="line"
         style="text-align:center;text-anchor:middle;stroke-width:0.677436"
         x="897.93402"
         y="-216.52071"
         id="tspan71">蒼帝 Qingdi</tspan><tspan
         sodipodi:role="line"
         style="text-align:center;text-anchor:middle;stroke-width:0.677436"
         x="897.93402"
         y="-206.35915"
         id="tspan49" /><tspan
         sodipodi:role="line"
         style="text-align:center;text-anchor:middle;stroke-width:0.677436"
         x="897.93402"
         y="-196.19759"
         id="tspan50" /></text>
    <text
       xml:space="preserve"
       style="font-size:8.12925px;text-align:start;writing-mode:lr-tb;direction:ltr;text-anchor:start;fill:#000000;stroke-width:0.677436"
       x="987.5484"
       y="-131.38448"
       id="text51"><tspan
         sodipodi:role="line"
         id="tspan51"
         style="text-align:center;text-anchor:middle;stroke-width:0.677436"
         x="987.5484"
         y="-131.38448">λω Drowning - Flow</tspan><tspan
         sodipodi:role="line"
         style="text-align:center;text-anchor:middle;stroke-width:0.677436"
         x="987.5484"
         y="-121.22292"
         id="tspan65">Ziwei Emperor</tspan><tspan
         sodipodi:role="line"
         style="text-align:center;text-anchor:middle;stroke-width:0.677436"
         x="987.5484"
         y="-110.47569"
         id="tspan63">紫微大帝</tspan><tspan
         sodipodi:role="line"
         style="text-align:center;text-anchor:middle;stroke-width:0.677436"
         x="987.5484"
         y="-100.31412"
         id="tspan52" /><tspan
         sodipodi:role="line"
         style="text-align:center;text-anchor:middle;stroke-width:0.677436"
         x="987.5484"
         y="-90.152557"
         id="tspan53" /></text>
    <text
       xml:space="preserve"
       style="font-size:8.12925px;text-align:start;writing-mode:lr-tb;direction:ltr;text-anchor:start;fill:#000000;stroke-width:0.677436"
       x="963.01532"
       y="42.137321"
       id="text54"><tspan
         sodipodi:role="line"
         id="tspan54"
         style="text-align:center;text-anchor:middle;stroke-width:0.677436"
         x="963.01532"
         y="42.137321">ωα Foreign Entrapment - Antibodies</tspan><tspan
         sodipodi:role="line"
         style="text-align:center;text-anchor:middle;stroke-width:0.677436"
         x="963.01532"
         y="52.884552"
         id="tspan56">黄帝 Huangdi</tspan></text>
    <text
       xml:space="preserve"
       style="font-size:8.12925px;text-align:start;writing-mode:lr-tb;direction:ltr;text-anchor:start;fill:#000000;stroke-width:0.677436"
       x="1056.1555"
       y="-69.286713"
       id="text57"><tspan
         sodipodi:role="line"
         style="text-align:center;text-anchor:middle;stroke-width:0.677436"
         x="1056.1555"
         y="-69.286713"
         id="tspan58">ωλ Ego Entrapment - Ego loosening</tspan><tspan
         sodipodi:role="line"
         style="text-align:center;text-anchor:middle;stroke-width:0.677436"
         x="1056.1555"
         y="-58.539482"
         id="tspan59">赤帝 Chidi</tspan></text>
    <text
       xml:space="preserve"
       style="font-size:8.12925px;text-align:start;writing-mode:lr-tb;direction:ltr;text-anchor:start;fill:#000000;stroke-width:0.677436"
       x="1084.825"
       y="-15.393017"
       id="text60"><tspan
         sodipodi:role="line"
         id="tspan60"
         style="text-align:center;text-anchor:middle;stroke-width:0.677436"
         x="1084.825"
         y="-15.393017">ωω Empathic Entrapment - Larping</tspan><tspan
         sodipodi:role="line"
         style="text-align:center;text-anchor:middle;stroke-width:0.677436"
         x="1084.825"
         y="-5.2314548"
         id="tspan67">Jade Emperor</tspan><tspan
         sodipodi:role="line"
         style="text-align:center;text-anchor:middle;stroke-width:0.677436"
         x="1084.825"
         y="5.5157762"
         id="tspan68">玉皇大帝</tspan><tspan
         sodipodi:role="line"
         style="text-align:center;text-anchor:middle;stroke-width:0.677436"
         x="1084.825"
         y="15.677339"
         id="tspan61" /><tspan
         sodipodi:role="line"
         style="text-align:center;text-anchor:middle;stroke-width:0.677436"
         x="1084.825"
         y="25.8389"
         id="tspan62" /></text>
    <path
       style="fill:#000000;stroke-width:0.0647521"
       id="path72"
       d="m 966.98724,-214.54759 c 4.64544,-0.0604 9.28155,-0.0643 13.90207,0.50036 4.39642,0.53731 5.81709,0.91799 10.14727,1.80347 8.2524,1.8142 15.56992,6.02388 22.47772,10.74254 1.7207,1.17538 3.3882,2.42677 5.0823,3.64013 7.3227,5.39021 13.4301,12.14998 18.7142,19.51349 3.1642,4.40967 5.198,7.84025 8.0584,12.43314 3.3448,5.47362 6.6287,10.99274 9.5165,16.72494 1.3589,2.69744 3.1062,6.39036 4.1096,9.28601 0.5244,1.51342 0.8931,3.0764 1.3395,4.61461 1.9296,8.12514 2.2639,16.49074 2.3983,24.80426 0.058,8.02983 0,16.059479 -0.1703,24.087505 -0.1022,4.232783 -0.035,2.205349 -0.1945,6.082613 0,0 0.8197,0.421735 0.8197,0.421735 v 0 c 0.1473,-3.885123 0.086,-1.85411 0.1774,-6.09328 0.1625,-8.028519 0.2165,-16.058513 0.1754,-24.088683 -0.137,-8.32449 -0.4936,-16.69925 -2.4108,-24.83683 -0.4452,-1.54093 -0.8109,-3.10717 -1.3357,-4.62283 -0.9991,-2.88488 -2.772,-6.61961 -4.1268,-9.30352 -2.8963,-5.73786 -6.1875,-11.26281 -9.5403,-16.74207 -2.8412,-4.56255 -4.917,-8.0576 -8.055,-12.44024 -5.2743,-7.3663 -11.3671,-14.13531 -18.6845,-19.52821 -1.6908,-1.21351 -3.355,-2.46499 -5.0724,-3.64049 -4.6595,-3.18915 -9.6104,-6.29714 -14.79216,-8.57046 -3.99022,-1.75056 -4.97383,-1.85499 -9.18253,-3.01175 -4.33108,-0.88194 -5.76141,-1.26213 -10.1594,-1.80044 -4.64341,-0.56835 -9.30243,-0.56584 -13.97122,-0.54072 z" />
    <path
       style="fill:#000000;stroke-width:0.0647521"
       id="path73"
       d="m 1052.9864,-89.594355 c 1.808,1.516186 3.596,3.057925 5.2189,4.77283 1.151,1.248812 2.1478,2.632496 3.098,4.037396 0.6521,1.015984 1.0012,1.604386 2.2368,2.09016 0.3844,0.151116 1.1545,-0.194959 1.4213,-0.281385 3.335,-1.298817 6.467,-3.034358 9.5988,-4.750575 0,0 -0.7883,-0.514358 -0.7883,-0.514358 v 0 c -3.1268,1.720631 -6.2598,3.45361 -9.6041,4.723877 -0.2831,0.08308 -0.558,0.203738 -0.8494,0.249207 -0.1764,0.02751 -0.4506,-0.191006 -0.5342,-0.03346 -0.076,0.144381 0.313,0.409912 0.4057,0.275356 0.097,-0.139474 -0.2246,-0.253991 -0.3277,-0.388492 -0.1582,-0.206488 -0.5362,-0.77761 -0.6748,-0.984088 -0.949,-1.411426 -1.9512,-2.79824 -3.0996,-4.055191 -1.6167,-1.71733 -3.4006,-3.259799 -5.2049,-4.776142 z" />
    <path
       style="fill:#000000;stroke-width:0.0647521"
       id="path74"
       d="m 1131.7054,-57.290566 c 5.8436,0.335454 11.5745,1.642019 17.2433,3.027959 5.2786,1.456795 10.318,3.598958 15.0568,6.337785 2.1024,1.215187 3.8268,2.502644 5.8285,3.907849 5.6792,4.426284 9.6283,10.485637 12.9178,16.804853 0.6924,1.330063 1.3173,2.694155 1.976,4.041238 2.0457,4.667362 3.9706,9.563948 4.4859,14.6841546 0.3116,3.0980272 0.065,3.971013 -0.2455,7.0681755 -0.9874,5.0521371 -2.8973,9.8820562 -5.8248,14.1327249 -2.1487,3.11992 -3.2468,4.095913 -5.8438,6.899364 -4.8702,4.832468 -10.3481,9.041158 -16.1561,12.68599 -3.417,2.144353 -5.2984,3.087699 -8.8057,4.979397 -7.0287,3.698093 -14.4769,6.477574 -22.0005,8.972786 -7.2793,2.450504 -14.8581,3.806535 -22.415,5.070492 -7.8858,1.274837 -15.8084,2.300545 -23.7115,3.461056 -6.0153,0.975298 -12.0824,1.563845 -18.1634,1.9144 -3.1156,0.231109 -6.2256,0.06613 -9.2997,-0.46058 -3.1958,-0.62279 -6.3541,-1.480708 -9.3914,-2.655591 -1.0082,-0.453327 -1.3294,-0.5798 -2.2859,-1.075971 -0.3615,-0.187548 -0.6314,-0.514706 -0.9469,-0.772402 0,0 -0.8867,-0.357583 -0.8867,-0.357583 v 0 c 0.2836,0.237824 0.5431,0.507668 0.8508,0.713471 1.2581,0.841786 2.6297,1.480506 4.0146,2.077495 3.0437,1.16397 6.2033,2.022596 9.4024,2.640255 3.0756,0.518736 6.1858,0.677375 9.3009,0.435038 6.0735,-0.365565 12.133,-0.965103 18.1414,-1.940009 7.9021,-1.16362 15.8239,-2.189148 23.7089,-3.464985 7.5625,-1.264956 15.1463,-2.62284 22.4305,-5.076769 7.5216,-2.499443 14.9657,-5.289568 21.9871,-9.000426 3.5004,-1.895538 5.3889,-2.848079 8.801,-4.991938 5.8124,-3.651871 11.3047,-7.856789 16.1798,-12.695577 2.5976,-2.799353 3.7126,-3.792278 5.8637,-6.908381 2.9399,-4.2587396 4.8542,-9.0999198 5.8525,-14.16327326 0.3163,-3.10027204 0.5665,-3.98665144 0.2577,-7.08919224 -0.5107,-5.1312545 -2.4447,-10.0392585 -4.4929,-14.7159725 -0.659,-1.348801 -1.2846,-2.71442 -1.9769,-4.046413 -3.2863,-6.322528 -7.2153,-12.397522 -12.8882,-16.836312 -1.0658,-0.750026 -2.1054,-1.538482 -3.1972,-2.250077 -5.9564,-3.882397 -12.3665,-7.006471 -19.2441,-8.874896 -5.6912,-1.385918 -11.4421,-2.692 -17.3058,-3.046597 z" />
    <path
       style="fill:#000000;stroke-width:0.0647521"
       id="path75"
       d="m 1049.2667,45.387347 c -1.6219,1.429232 -3.2518,2.868331 -4.6994,4.476995 -1.6221,1.895403 -3.3767,3.671563 -4.9473,5.611246 -0.1456,0.231065 -0.3089,0.451823 -0.4366,0.693218 -0.6452,1.219486 0.1737,1.25831 1.1702,1.852886 0.086,0.05108 -0.185,-0.07443 -0.2777,-0.111598 1.6947,1.404869 2.6737,3.438377 3.8493,5.258435 0.8413,1.510224 1.9932,2.778415 3.1494,4.04684 0.727,0.803434 1.3409,1.699514 2.0015,2.556916 0,0 0.8857,0.380171 0.8857,0.380171 v 0 c -0.6643,-0.857502 -1.2773,-1.756142 -2.0009,-2.565245 -1.1568,-1.265821 -2.3172,-2.52576 -3.1596,-4.034041 -1.1848,-1.819924 -2.1575,-3.854094 -3.8262,-5.291634 -0.4607,-0.280902 -0.9101,-0.58135 -1.3821,-0.842695 -0.1646,-0.09105 0.2813,0.263724 0.4572,0.330649 0.093,0.0356 -0.156,-0.136869 -0.1925,-0.229863 -0.044,-0.110362 -0.059,-0.237273 -0.037,-0.354024 0.076,-0.418479 0.4142,-0.86663 0.6203,-1.199143 1.5627,-1.94477 3.3221,-3.71425 4.947,-5.605442 1.4442,-1.607878 3.0687,-3.050594 4.7015,-4.463018 z" />
    <path
       style="fill:#000000;stroke-width:0.0647521"
       id="path76"
       d="m 913.67089,53.521254 c -1.70203,1.004421 -3.36892,2.088824 -4.89603,3.348066 -1.07837,0.889186 -1.95386,1.757815 -2.96721,2.722167 -1.98136,1.849888 -3.69966,3.963793 -5.74906,5.742873 -1.36611,1.185851 -1.65173,1.324719 -3.12562,2.345228 -2.94813,1.942938 -5.95014,2.934796 -9.38676,3.572406 -2.97259,0.459065 -5.99246,0.42499 -8.99211,0.435375 -3.13349,-0.001 -6.29077,-0.0033 -9.36474,-0.667024 -1.40115,-0.401852 -2.75166,-0.94147 -4.05456,-1.592957 -0.34153,-0.170742 -1.35904,-0.682192 -1.83833,-1.024629 -0.41236,-0.2946 -0.8125,-0.606061 -1.21869,-0.909092 -2.24745,-1.805204 -4.06601,-4.058348 -5.60862,-6.477743 -0.19692,-0.355932 -0.39384,-0.711854 -0.59076,-1.067775 0,0 -0.87055,-0.389681 -0.87055,-0.389681 v 0 c 0.19647,0.357897 0.39294,0.715784 0.58942,1.073681 1.53856,2.42933 3.35702,4.691467 5.59996,6.511266 0.40474,0.306084 0.78893,0.641651 1.21444,0.918254 2.33254,1.516241 4.86335,2.757947 7.53697,3.534907 3.0787,0.642886 6.23531,0.642795 9.36991,0.645749 3.00404,-0.009 6.0294,0.02481 9.00481,-0.4474 3.44178,-0.651632 6.45187,-1.656065 9.40145,-3.610354 1.46705,-1.019847 1.77232,-1.173815 3.13236,-2.356893 2.04761,-1.781089 3.76456,-3.896756 5.74771,-5.744827 1.03021,-0.977464 1.87056,-1.811492 2.96677,-2.710456 1.53059,-1.255235 3.20006,-2.336438 4.91005,-3.327813 z" />
    <path
       style="fill:#000000;stroke-width:0.0647521"
       id="path77"
       d="m 862.82438,54.962745 c -1.59593,1.298964 -3.22352,2.561407 -4.88121,3.781174 -0.91545,0.718445 -1.94453,1.264486 -2.91388,1.901657 -0.2379,0.156371 -0.51891,0.268709 -0.70147,0.487122 -0.40563,0.485111 -0.27102,1.033083 -0.25732,1.59757 0.51285,2.590574 1.29179,5.148747 2.29863,7.591258 0,0 0.86932,0.400593 0.86932,0.400593 v 0 c -1.02021,-2.427769 -1.79016,-4.978622 -2.31065,-7.558608 -0.0213,-0.507566 -0.16279,-1.069033 0.21073,-1.513986 0.18177,-0.216648 0.45998,-0.329447 0.69596,-0.485358 0.96902,-0.640192 1.9963,-1.192003 2.91344,-1.910178 1.66262,-1.220868 3.29347,-2.485353 4.8995,-3.779321 z" />
    <path
       style="fill:#000000;stroke-width:0.0647521"
       id="path78"
       d="m 787.34192,53.4827 c -3.79622,3.096242 -7.7769,5.99765 -11.92127,8.613012 -1.39396,0.879633 -2.82766,1.694663 -4.24137,2.541984 -7.79127,4.232424 -16.03162,7.882196 -24.75138,9.710674 -1.85168,0.388301 -3.73165,0.627404 -5.59748,0.941112 -14.62577,1.750356 -29.32676,2.631005 -44.03807,3.22955 -9.54785,0.218975 -19.13153,0.8129 -28.67367,0.06907 -1.24586,-0.09711 -2.48432,-0.272166 -3.7266,-0.408249 -3.47737,-0.532107 -6.95519,-1.416669 -9.91364,-3.403475 -0.34321,-0.230514 -0.62187,-0.545042 -0.92949,-0.821239 -0.51409,-0.461468 -1.02369,-0.92783 -1.53542,-1.391734 -3.22218,-3.238445 -5.48219,-7.235728 -7.65935,-11.210042 -2.19107,-4.27374 -4.21488,-8.63293 -5.84112,-13.153531 -1.56943,-4.623329 -2.61467,-9.397372 -3.35982,-14.215716 -0.98058,-6.64104 -1.2727,-13.351296 -1.50252,-20.051874 -0.15898,-5.3420315 -0.17391,-10.6867463 -0.1765,-16.0306877 -0.13124,-4.5638366 1.40597,-8.8456043 3.05681,-13.0227463 1.31671,-3.345158 2.83361,-6.612591 4.69966,-9.689972 1.22735,-2.024234 1.78589,-2.721515 3.15785,-4.62617 2.62107,-3.662379 6.02985,-6.543387 9.60602,-9.219814 3.50936,-2.35961 7.40999,-4.077222 11.34396,-5.594552 4.70685,-1.744567 9.5583,-3.052682 14.34408,-4.559986 3.38587,-1.052462 6.79182,-2.040918 10.16265,-3.141263 1.55316,-0.484977 3.11451,-0.949465 4.68462,-1.377711 1.19445,-0.209722 2.33243,-0.621948 3.45783,-1.059927 0,0 -0.796,-0.534601 -0.796,-0.534601 v 0 c -1.12563,0.432344 -2.26326,0.836138 -3.45457,1.050318 -1.56944,0.430457 -3.13304,0.888062 -4.68261,1.384884 -3.36116,1.10606 -6.75646,2.103498 -10.13345,3.159821 -4.78994,1.51284 -9.65138,2.806718 -14.36306,4.554283 -3.93633,1.530029 -7.84201,3.253758 -11.35677,5.617029 -3.59468,2.702137 -6.97056,5.559231 -9.6068,9.252351 -1.37487,1.91222 -1.92859,2.605224 -3.16088,4.635937 -1.86908,3.0803 -3.39428,6.348058 -4.71335,9.697022 -1.65454,4.185406 -3.2114,8.4762556 -3.07982,13.0503428 0.0113,5.3489147 0.0415,10.6985582 0.19883,16.0454852 0.23644,6.70069 0.51657,13.41272 1.48579,20.055624 0.73774,4.820904 1.7776,9.597888 3.3386,14.225416 1.62715,4.527405 3.66049,8.888739 5.84697,13.172044 2.16952,3.980814 4.42583,7.981994 7.63622,11.233799 0.51117,0.466935 0.98686,0.975915 1.53351,1.400815 3.89165,3.025177 7.5583,4.425579 12.4358,5.10788 1.24015,0.132449 2.47693,0.303493 3.72067,0.397354 9.52596,0.718844 19.08987,0.110138 28.61988,-0.11763 14.724,-0.604662 29.43936,-1.476405 44.07972,-3.212947 1.8702,-0.31363 3.75489,-0.55115 5.61074,-0.940888 8.72569,-1.832453 16.96526,-5.509686 24.76866,-9.729357 1.41775,-0.846455 2.85515,-1.660993 4.25338,-2.539344 4.16199,-2.614511 8.15536,-5.516602 11.99581,-8.580398 z" />
    <path
       style="fill:#000000;stroke-width:0.0647521"
       id="path79"
       d="m 687.29154,-59.869924 c 0.90535,0.180858 1.81396,0.365341 2.69371,0.650475 0.58965,0.19112 1.0979,0.403896 1.67486,0.632715 1.14674,0.500515 2.25979,1.077767 3.34163,1.706024 0.0336,0.01965 -0.14067,-0.06714 -0.10777,-0.04615 0.21185,0.134848 0.43044,0.258954 0.64566,0.388435 1.16538,0.775176 2.37802,1.472815 3.58841,2.173903 0.11373,0.06591 -0.22914,-0.128865 -0.34377,-0.193297 0.30256,0.210272 0.66217,0.35948 0.92376,0.627179 0.11755,0.120254 0.0943,0.154429 -0.0371,0.190176 -0.45278,0.0741 -0.91421,0.06691 -1.37161,0.06422 -0.0674,-7.3e-4 -0.13652,-0.01583 -0.20254,-0.0022 -0.42449,0.09015 -0.65948,0.566822 -0.84899,0.889994 -0.27136,0.462602 -0.71045,1.335654 -0.94363,1.789588 -1.03233,2.01432 -1.86337,4.121815 -2.77276,6.192552 -0.27518,0.703625 -0.64017,1.373657 -0.85236,2.101251 -0.0831,0.284024 -0.10105,0.407746 -0.15483,0.689424 -0.0112,0.09207 -0.0168,0.184236 -0.0247,0.276354 0,0 0.85472,0.443785 0.85472,0.443785 v 0 c 0.0113,-0.08959 0.0113,-0.179095 0.0168,-0.268642 0.0505,-0.281149 0.064,-0.397597 0.14371,-0.681496 0.20355,-0.727976 0.55721,-1.40204 0.82306,-2.107034 0.8875,-2.078102 1.72,-4.183812 2.76052,-6.192058 0.24116,-0.459109 0.67408,-1.305779 0.95924,-1.768695 0.25676,-0.416536 0.49231,-0.831388 1.02335,-0.794687 0.46706,-7.41e-4 0.94432,0.01234 1.40059,-0.0988 0.0471,-0.0311 0.10553,-0.05008 0.1428,-0.09318 0.25924,-0.302974 -0.81711,-0.80907 -0.95632,-0.91786 -1.2169,-0.707408 -1.60065,-0.915155 -3.25653,-1.984232 -1.77905,-1.069044 -3.56573,-2.141434 -5.47938,-2.956544 -0.61099,-0.240652 -1.06344,-0.430828 -1.68643,-0.630222 -0.89042,-0.285011 -1.80936,-0.469236 -2.72347,-0.658603 z" />
    <path
       style="fill:#000000;stroke-width:0.0647521"
       id="path80"
       d="m 721.51161,-81.42953 c -1.94632,-1.560205 -3.46513,-3.574492 -4.98931,-5.528646 -2.22556,-2.853479 -1.88616,-2.453547 -4.09251,-5.563218 -3.29672,-4.766362 -6.37003,-9.709046 -8.93564,-14.911706 -1.47525,-2.99148 -2.34916,-5.1666 -3.65139,-8.2306 -2.60245,-6.37062 -4.60951,-12.99395 -5.97035,-19.7417 -0.23992,-1.19002 -0.42607,-2.39028 -0.63905,-3.58543 -0.57875,-3.83033 -0.85247,-7.69721 -1.0394,-11.56356 -0.13001,-2.69074 -0.21376,-4.58702 -0.0943,-7.27244 0.0528,-1.18106 0.1793,-2.35766 0.2689,-3.53649 0.67295,-5.47096 2.16559,-10.81514 4.30581,-15.89189 1.36375,-3.23466 2.10407,-4.44555 3.754,-7.52359 2.64623,-4.53634 5.56987,-8.91785 8.95148,-12.94224 1.97305,-2.34814 2.79398,-3.13572 4.90916,-5.34752 6.6333,-6.70865 14.16489,-12.41927 21.81402,-17.9034 6.94991,-4.7182 14.05071,-9.30786 21.62058,-12.98355 1.21814,-0.59151 2.46592,-1.12016 3.69888,-1.68026 4.01009,-1.74418 8.20016,-3.05829 12.52484,-3.7342 2.35117,-0.36744 3.37149,-0.39521 5.75893,-0.57485 1.00236,-0.0428 2.00427,-0.0955 3.00708,-0.12821 2.3835,-0.0777 3.79677,-0.11115 6.21329,0.0392 3.3248,0.20686 6.63914,0.66684 9.93957,1.10154 4.54349,0.53926 8.99358,1.58095 13.39864,2.78792 2.6532,0.74678 5.36184,1.26122 8.06229,1.80075 1.5224,0.34927 3.07848,0.52066 4.58391,0.9401 0,0 -0.76422,-0.58703 -0.76422,-0.58703 v 0 c -1.5078,-0.40364 -3.06084,-0.58326 -4.58212,-0.93027 -2.69484,-0.53666 -5.39742,-1.05126 -8.04489,-1.79585 -4.40102,-1.20074 -8.84751,-2.23082 -13.38617,-2.7626 -3.30189,-0.43056 -6.61714,-0.8874 -9.94295,-1.0928 -2.44504,-0.15103 -3.81294,-0.11693 -6.2216,-0.0368 -1.0037,0.0334 -2.00651,0.0866 -3.00976,0.12994 -2.40226,0.18246 -3.40091,0.20816 -5.76535,0.58272 -4.32411,0.68497 -8.51058,2.0139 -12.51786,3.76558 -1.23105,0.56302 -2.47693,1.09493 -3.69327,1.68903 -7.56246,3.69363 -14.66371,8.28413 -21.61553,13.00213 -7.65789,5.48697 -15.19846,11.19821 -21.85062,17.90002 -2.13506,2.23417 -2.91972,2.98341 -4.91074,5.35579 -3.38272,4.03077 -6.3021,8.42045 -8.9526,12.96072 -1.65183,3.08429 -2.39069,4.29413 -3.75781,7.53449 -2.14426,5.08283 -3.64185,10.43182 -4.33119,15.90772 -0.0898,1.18061 -0.21793,2.35895 -0.2708,3.54184 -0.12148,2.72258 -0.0348,4.55266 0.0977,7.28135 0.18772,3.8683 0.45481,7.73749 1.0293,11.57056 0.21287,1.19657 0.39834,2.39835 0.63871,3.58972 1.36275,6.75502 3.38015,13.38284 5.97765,19.76299 1.29246,3.04367 2.18625,5.2653 3.64902,8.23745 2.56046,5.20247 5.62804,10.145892 8.91533,14.915735 2.21241,3.132528 1.84214,2.68679 4.07117,5.55949 1.51285,1.949776 3.01504,3.964298 4.94138,5.531846 z" />
    <path
       style="fill:#000000;stroke-width:0.0647521"
       id="path81"
       d="m 816.46186,-245.74532 c 1.87448,2.40543 3.66621,4.87746 5.3057,7.44927 0.80296,1.2945 1.46637,2.66895 2.00269,4.09376 0.15078,0.40077 0.50197,1.39654 0.55855,1.87898 0.0236,0.20302 -0.0202,0.40834 -0.0314,0.61252 -0.14753,0.16942 -0.26664,0.36865 -0.44268,0.50831 -0.50803,0.40299 -2.09543,1.24446 -2.52049,1.4857 -0.62186,0.35304 -1.24665,0.70159 -1.85976,1.06974 -1.55923,0.93628 -2.63545,1.65542 -4.15594,2.64441 0,0 0.78174,0.50182 0.78174,0.50182 v 0 c 1.61132,-1.04835 2.49983,-1.64873 4.15807,-2.63682 0.61513,-0.36651 1.24194,-0.71315 1.86606,-1.0642 0.45492,-0.25596 2.03591,-1.08022 2.55652,-1.50306 0.19041,-0.15472 0.31649,-0.37501 0.47479,-0.56253 0.0135,-0.21325 0.0628,-0.42739 0.0393,-0.6398 -0.0528,-0.48036 -0.41236,-1.4993 -0.56135,-1.89609 -0.53755,-1.43082 -1.19962,-2.81296 -2.0046,-4.11346 -1.63197,-2.57085 -3.4246,-5.03383 -5.27471,-7.45169 z" />
  </g>
</svg>
