<?xml version="1.0" encoding="utf-8" ?>
    <svg version="1.1"
        baseProfile="full"
        xmlns="http://www.w3.org/2000/svg"
        xmlns:xlink="http://www.w3.org/1999/xlink" 
         xmlns:rdf="http://www.w3.org/1999/02/22-rdf-syntax-ns#"
         xmlns:cc="http://creativecommons.org/ns#"
         xmlns:dc="http://purl.org/dc/elements/1.1/" 
        preserveAspectRatio="xMidYMid meet" height="1200" width="1000" viewBox="0,0,1030,1230 ">
<metadata>
<rdf:RDF>
      <cc:Work
         rdf:about="">
        <dc:format>image/svg+xml</dc:format>
        <dc:type
           rdf:resource="http://purl.org/dc/dcmitype/StillImage" />
        <dc:rights>
          <cc:Agent>
            <dc:title>This work is licensed under a &lt;a rel=&quot;license&quot; href=&quot;http://creativecommons.org/licenses/by-nc-sa/4.0/&quot;&gt;Creative Commons Attribution-NonCommercial-ShareAlike 4.0 International License&lt;/a&gt;.</dc:title>
          </cc:Agent>
        </dc:rights>
         <dc:creator>
           <cc:Agent>
              <dc:title>chalice/utensil - http://commons.wikimedia.org/wiki/User:Bernina
thunderbolt/celestial - unknown
heater shape - https://commons.wikimedia.org/wiki/User:MG
</dc:title>
           </cc:Agent>
        </dc:creator>
      </cc:Work>
      </rdf:RDF>
</metadata>
<defs>
      <filter id="shiny" x="0" y="0" width="150%" height="150%">
      <feGaussianBlur in = "SourceAlpha" stdDeviation = "4" result = "blur1"/>
        <feSpecularLighting result = "specOut" in = "blur1" specularExponent = "20" lighting-color = "#696969">
            <fePointLight x = "300" y = "300" z = "500"/>
        </feSpecularLighting>
        <feComposite result="highlight" in = "SourceGraphic" in2 = "specOut" operator = "arithmetic" k1 = "0" k2 = "1" k3 = "1" k4 = "0"/>
      <feOffset result="offOut" in="SourceGraphic" dx="14" dy="14" />
      <feColorMatrix result = "matrixOut" in = "offOut" type = "matrix" values = "0.2 0 0 0 0 0 0.2 0 0 0 0 0 0.2 0 0 0 0 0 1 0"/>
      <feGaussianBlur result="blurOut" in="matrixOut" stdDeviation="10" />
      <feBlend in="highlight" in2="blurOut" mode="normal"/>
    </filter></defs><g  filter="url(#shiny)" ><g mask="url(#mask12-1)"><g><defs><clipPath id="clipPath10-1" >
<rect x='-100' y='0' width='1200' height='940' />
</clipPath>
</defs><defs><pattern  patternContentUnits="userSpaceOnUse" patternUnits="userSpaceOnUse" x="0" y="0" width="200" height="200" id="pattern11-1" >
<g  fill="#fcdd07"><rect x="0" y="0" width="200" height="200" /></g><g  fill="#000000"><g class="PlaceCharge" transform=" translate(50,-50) scale(0.098309538001208, 0.1135180816652) " >
<title> hexagons</title><g  transform="translate(8.5976299,0.458468)"  ><path d="M 1002.8241,440 751.41206,875.45847 H 248.58794 L -2.8241272,440 248.58794,4.541532 h 502.82412 z"  stroke="#696969" stroke-width="10" />
</g>
</g>
</g><g  fill="#000000"><g class="PlaceCharge" transform=" translate(50,150) scale(0.098309538001208, 0.1135180816652) " >
<title> hexagons</title><g  transform="translate(8.5976299,0.458468)"  ><path d="M 1002.8241,440 751.41206,875.45847 H 248.58794 L -2.8241272,440 248.58794,4.541532 h 502.82412 z"  stroke="#696969" stroke-width="10" />
</g>
</g>
</g><g  fill="#000000"><g class="PlaceCharge" transform=" translate(-50,50) scale(0.098309538001208, 0.1135180816652) " >
<title> hexagons</title><g  transform="translate(8.5976299,0.458468)"  ><path d="M 1002.8241,440 751.41206,875.45847 H 248.58794 L -2.8241272,440 248.58794,4.541532 h 502.82412 z"  stroke="#696969" stroke-width="10" />
</g>
</g>
</g><g  fill="#000000"><g class="PlaceCharge" transform=" translate(150,50) scale(0.098309538001208, 0.1135180816652) " >
<title> hexagons</title><g  transform="translate(8.5976299,0.458468)"  ><path d="M 1002.8241,440 751.41206,875.45847 H 248.58794 L -2.8241272,440 248.58794,4.541532 h 502.82412 z"  stroke="#696969" stroke-width="10" />
</g>
</g>
</g>
</pattern>
</defs><g  fill="url(#pattern11-1)"><rect x='0' y='0' width='1000' height='1200'><title>Field</title></rect></g><g transform='translate(0,360)' clip-path='url(#clipPath10-1)'><g  fill="#ffffff"><g class="PlaceCharge" transform=" translate(342.87770804405,84) scale(1.6115027531757, 1.6115027531757) " >
<title>a chalice</title><g transform="translate(-21,-15)"><g  ><path d="m214.5,406.5   c0,-13.25 -42.98,-24 -96,-24 -53.02,0 -96,10.75 -96,24 0,13.25 42.98,24 96,24 53.02,0 96,-10.75 96,-24   z "  fill-rule="evenodd" stroke="#000000" stroke-width="3" />
<path d="m106.5,256.5 24,0 0,-78 -24,0 0,78   z "  fill-rule="evenodd" stroke="#000000" stroke-width="3" />
<path d="m208.5,394.5   c0,-13.25 -40.29,-24 -90,-24 -49.71,0 -90,10.75 -90,24 0,13.25 40.29,24 90,24 49.71,0 90,-10.75 90,-24   z "  fill-rule="evenodd" stroke="#000000" stroke-width="3" />
<path d="m136.5,172.5   c0,-6.627 -8.059,-12 -18,-12 -9.941,0 -18,5.373 -18,12 0,6.627 8.059,12 18,12 9.941,0 18,-5.373 18,-12   z "  fill-rule="evenodd" stroke="#000000" stroke-width="3" />
<path d="m178.5,388.5   c-8,-10 -16,-20 -22,-30 -6,-10 -10,-20 -12,-32 -2,-12 -2,-26 -2,-40   l-48,0   c0,14 0,28 -2,40 -2,12 -6,22 -12,32 -6,10 -14,20 -22,30   "  fill-rule="evenodd" stroke="#000000" stroke-width="3" />
<path d="m148.6,154.9   c0,-9.941 -13.43,-18 -30,-18 -16.57,0 -30,8.059 -30,18 0,9.941 13.43,18 30,18 16.57,0 30,-8.059 30,-18   l0,0   z "  fill-rule="evenodd" stroke="#000000" stroke-width="3" />
<path d="m150.5,214.5   c0,-9.941 -6.268,-18 -14,-18 -7.732,0 -14,8.059 -14,18 0,9.941 6.268,18 14,18 7.732,0 14,-8.059 14,-18   l0,0   z "  fill-rule="evenodd" stroke="#000000" stroke-width="3" />
<path d="m114.5,214.5   c0,-9.941 -6.268,-18 -14,-18 -7.732,0 -14,8.059 -14,18 0,9.941 6.268,18 14,18 7.732,0 14,-8.059 14,-18   z "  fill-rule="evenodd" stroke="#000000" stroke-width="3" />
<path d="m132.5,220.5   c0,-9.941 -6.268,-18 -14,-18 -7.732,0 -14,8.059 -14,18 0,9.941 6.268,18 14,18 7.732,0 14,-8.059 14,-18   z "  fill-rule="evenodd" stroke="#000000" stroke-width="3" />
<path d="m34.5,28.5   c12,48 24,96 46,120 22,24 54,24 76,0 22,-24 34,-72 46,-120   l-168,0   z "  fill-rule="evenodd" stroke="#000000" stroke-width="3" />
<path d="m106.5,286.5   c0,22 0,44 -3,62 -3,18 -9,32 -15,46   "  fill-rule="evenodd" stroke="#000000" stroke-width="3" />
<path d="m130.5,286.5   c0,22 0,44 3,62 3,18 9,32 15,46   "  fill-rule="evenodd" stroke="#000000" stroke-width="3" />
<path d="m88.5,394.5   c-2,2 -4,4 -7,5 -3,1 -7,1 -12,0 -5,-1 -11,-3 -13,-5 -2,-2 0,-4 2,-6   "  fill-rule="evenodd" stroke="#000000" stroke-width="3" />
<path d="m88.5,394.5   c2,4 4,8 9,10 5,2 13,2 21,2 8,0 16,0 21,-2 5,-2 7,-6 9,-10   "  fill-rule="evenodd" stroke="#000000" stroke-width="3" />
<path d="m148.5,394.5   c2,2 4,4 7,5 3,1 7,1 12,0 5,-1 11,-3 13,-5 2,-2 0,-4 -2,-6   "  fill-rule="evenodd" stroke="#000000" stroke-width="3" />
<path d="m142.5,286.5   c0,-3.314 -10.75,-6 -24,-6 -13.25,0 -24,2.686 -24,6 0,3.314 10.75,6 24,6 13.25,0 24,-2.686 24,-6   z "  fill-rule="evenodd" stroke="#000000" stroke-width="3" />
<path d="m142.5,280.5   c0,-3.314 -10.75,-6 -24,-6 -13.25,0 -24,2.686 -24,6 0,3.314 10.75,6 24,6 13.25,0 24,-2.686 24,-6   z "  fill-rule="evenodd" stroke="#000000" stroke-width="3" />
<path d="m202.5,28.5   c0,-6.627 -37.61,-12 -84,-12 -46.39,0 -84,5.373 -84,12 0,6.627 37.61,12 84,12 46.39,0 84,-5.373 84,-12   z "  fill-rule="evenodd" stroke="#000000" stroke-width="3" />
<path d="m94.5,280.5 12,-24 24,0 12,24   "  fill-rule="evenodd" stroke="#000000" stroke-width="3" />
</g>
</g>
</g>
</g></g><g><title>chief</title><g  fill="#0f47af"><path fill-rule="evenodd" d="M-100,-8h1200 v368   q-30.000,40.000 -60.000,0.000   q-30.000,-40.000 -60.000,0.000    q-30.000,40.000 -60.000,0.000   q-30.000,-40.000 -60.000,0.000    q-30.000,40.000 -60.000,0.000   q-30.000,-40.000 -60.000,0.000    q-30.000,40.000 -60.000,0.000   q-30.000,-40.000 -60.000,0.000    q-30.000,40.000 -60.000,0.000   q-30.000,-40.000 -60.000,0.000    q-30.000,40.000 -60.000,0.000   q-30.000,-40.000 -60.000,0.000    q-30.000,40.000 -60.000,0.000   q-30.000,-40.000 -60.000,0.000    q-30.000,40.000 -60.000,0.000   q-30.000,-40.000 -60.000,0.000    q-30.000,40.000 -60.000,0.000   q-30.000,-40.000 -60.000,0.000    q-30.000,40.000 -60.000,0.000   q-30.000,-40.000 -60.000,0.000    v-368.000  z" /></g><g  fill="#fcdd07"><g class="PlaceCharge" transform=" translate(59.995,62.665) scale(0.586675, 0.586675) " >
<title>three thunderbolts</title><g  stroke="#000000" stroke-width="1.5" ><g  stroke="#000000" stroke-width="1.5" ><path d="M202.738,196.833 C202.738,196.833 261.167,202.621 264.5,189.796 C267.833,176.971 269.833,144.35 292.5,144.35 C315.167,144.35 389.167,94.35 387.833,80.35 C386.5,66.35 385.833,117.683 376.5,117.683 C367.167,117.683 380.5,132.35 365.833,144.35 C351.167,156.35 357.833,168.926 342.5,176.971 C327.167,185.017 333.167,202.017 320.5,200.35 C307.833,198.683 308.5,223.683 297.833,219.683 C287.167,215.683 271.182,240.35 261.833,233.683 C252.485,227.017 202.738,231.5 202.738,231.5 L202.738,196.833 z"  stroke="#000000" stroke-width="1.5" />
<path d="M202.738,196.833 C202.738,196.833 261.167,202.621 264.5,189.796 C267.833,176.971 269.833,144.35 292.5,144.35 C315.167,144.35 389.167,94.35 387.833,80.35 C386.5,66.35 385.833,117.683 376.5,117.683 C367.167,117.683 380.5,132.35 365.833,144.35 C351.167,156.35 357.833,168.926 342.5,176.971 C327.167,185.017 333.167,202.017 320.5,200.35 C307.833,198.683 308.5,223.683 297.833,219.683 C287.167,215.683 271.182,240.35 261.833,233.683 C252.485,227.017 202.738,231.5 202.738,231.5 L202.738,196.833 z" fill-opacity="0"  stroke="#000000" stroke-width="1.5" />
</g>
<g  stroke="#000000" stroke-width="1.5" ><path d="M230.886,200.167"  stroke="#000000" stroke-width="1.5" />
<path d="M230.886,200.167" fill-opacity="0"  stroke="#000000" stroke-width="1.5" />
</g>
<path d="M373.833,118.833 C373.833,140.188 334.136,157.5 285.167,157.5" fill-opacity="0" stroke-linecap="round"  stroke="#000000" stroke-width="1.5" />
<path d="M353.167,161.017 C353.167,167.644 322.722,173.017 285.167,173.017" fill-opacity="0" stroke-linecap="round"  stroke="#000000" stroke-width="1.5" />
<path d="M332.5,185.017 C332.5,187.104 308.025,188.796 277.833,188.796" fill-opacity="0" stroke-linecap="round"  stroke="#000000" stroke-width="1.5" />
<path d="M311.833,203.017 C311.833,204.858 286.463,206.35 255.167,206.35" fill-opacity="0" stroke-linecap="round"  stroke="#000000" stroke-width="1.5" />
<path d="M285.167,220.35 C285.167,222.191 249.167,223.683 241.167,219.017" fill-opacity="0" stroke-linecap="round"  stroke="#000000" stroke-width="1.5" />
<g  stroke="#000000" stroke-width="1.5" ><path d="M200.851,196.833 C200.851,196.833 142.423,202.621 139.089,189.796 C135.756,176.971 133.756,144.35 111.089,144.35 C88.423,144.35 14.423,94.35 15.756,80.35 C17.089,66.35 17.756,117.683 27.089,117.683 C36.423,117.683 23.089,132.35 37.756,144.35 C52.423,156.35 45.756,168.926 61.089,176.971 C76.423,185.017 70.423,202.017 83.089,200.35 C95.756,198.683 95.089,223.683 105.756,219.683 C116.423,215.683 132.408,240.35 141.756,233.683 C151.104,227.017 200.851,231.5 200.851,231.5 L200.851,196.833 z"  stroke="#000000" stroke-width="1.5" />
<path d="M200.851,196.833 C200.851,196.833 142.423,202.621 139.089,189.796 C135.756,176.971 133.756,144.35 111.089,144.35 C88.423,144.35 14.423,94.35 15.756,80.35 C17.089,66.35 17.756,117.683 27.089,117.683 C36.423,117.683 23.089,132.35 37.756,144.35 C52.423,156.35 45.756,168.926 61.089,176.971 C76.423,185.017 70.423,202.017 83.089,200.35 C95.756,198.683 95.089,223.683 105.756,219.683 C116.423,215.683 132.408,240.35 141.756,233.683 C151.104,227.017 200.851,231.5 200.851,231.5 L200.851,196.833 z" fill-opacity="0"  stroke="#000000" stroke-width="1.5" />
</g>
<path d="M29.756,118.833 C29.756,140.188 69.454,157.5 118.423,157.5" fill-opacity="0" stroke-linecap="round"  stroke="#000000" stroke-width="1.5" />
<path d="M50.423,161.017 C50.423,167.644 80.867,173.017 118.423,173.017" fill-opacity="0" stroke-linecap="round"  stroke="#000000" stroke-width="1.5" />
<path d="M71.089,185.017 C71.089,187.104 95.565,188.796 125.756,188.796" fill-opacity="0" stroke-linecap="round"  stroke="#000000" stroke-width="1.5" />
<path d="M91.756,203.017 C91.756,204.858 117.127,206.35 148.423,206.35" fill-opacity="0" stroke-linecap="round"  stroke="#000000" stroke-width="1.5" />
<path d="M118.423,220.35 C118.423,222.191 154.423,223.683 162.423,219.017" fill-opacity="0" stroke-linecap="round"  stroke="#000000" stroke-width="1.5" />
</g>
<g  stroke="#000000" stroke-width="1.5" ><g  stroke="#000000" stroke-width="1.5" ><path d="M156.735,7.121 C156.735,7.121 145.088,46.107 145.427,44.818 C145.767,43.528 152.657,35.691 153.301,35.861 C153.946,36.031 158.413,92.36 158.413,92.36 L174.024,85.441 L178.793,156.327 L189.551,149.509 L196.358,212.658 L202.738,206.756 L197.598,126.81 L186.16,136.207 L180.542,68.544 L167.85,74.853 L162.192,36.135 L174.576,41.465 L156.735,7.121 z"  stroke="#000000" stroke-width="1.5" />
<path d="M156.735,7.121 C156.735,7.121 145.088,46.107 145.427,44.818 C145.767,43.528 152.657,35.691 153.301,35.861 C153.946,36.031 158.413,92.36 158.413,92.36 L174.024,85.441 L178.793,156.327 L189.551,149.509 L196.358,212.658 L202.738,206.756 L197.598,126.81 L186.16,136.207 L180.542,68.544 L167.85,74.853 L162.192,36.135 L174.576,41.465 L156.735,7.121 z" fill-opacity="0"  stroke="#000000" stroke-width="1.5" />
</g>
<g  stroke="#000000" stroke-width="1.5" ><path d="M241.17,8.121 C241.17,8.121 252.817,47.107 252.478,45.818 C252.138,44.528 245.248,36.691 244.604,36.861 C243.959,37.031 239.492,93.36 239.492,93.36 L223.881,86.441 L219.112,157.327 L208.354,150.509 L201.547,213.658 L195.167,207.756 L200.307,127.81 L211.745,137.207 L217.363,69.544 L230.055,75.853 L235.713,37.135 L223.329,42.465 L241.17,8.121 z"  stroke="#000000" stroke-width="1.5" />
<path d="M241.17,8.121 C241.17,8.121 252.817,47.107 252.478,45.818 C252.138,44.528 245.248,36.691 244.604,36.861 C243.959,37.031 239.492,93.36 239.492,93.36 L223.881,86.441 L219.112,157.327 L208.354,150.509 L201.547,213.658 L195.167,207.756 L200.307,127.81 L211.745,137.207 L217.363,69.544 L230.055,75.853 L235.713,37.135 L223.329,42.465 L241.17,8.121 z" fill-opacity="0"  stroke="#000000" stroke-width="1.5" />
</g>
<g  stroke="#000000" stroke-width="1.5" ><path d="M96.5,11.167 C96.5,11.167 95.167,51.833 95.167,50.5 C95.167,49.167 99.833,39.833 100.5,39.833 C101.167,39.833 119.833,93.167 119.833,93.167 L133.167,82.5 L155.833,149.833 L164.5,140.5 L187.167,199.833 L191.833,192.5 L166.5,116.5 L157.833,128.5 L135.167,64.5 L124.5,73.833 L109.167,37.833 L122.5,39.833 L96.5,11.167 z"  stroke="#000000" stroke-width="1.5" />
<path d="M96.5,11.167 C96.5,11.167 95.167,51.833 95.167,50.5 C95.167,49.167 99.833,39.833 100.5,39.833 C101.167,39.833 119.833,93.167 119.833,93.167 L133.167,82.5 L155.833,149.833 L164.5,140.5 L187.167,199.833 L191.833,192.5 L166.5,116.5 L157.833,128.5 L135.167,64.5 L124.5,73.833 L109.167,37.833 L122.5,39.833 L96.5,11.167 z" fill-opacity="0"  stroke="#000000" stroke-width="1.5" />
</g>
<g  stroke="#000000" stroke-width="1.5" ><path d="M96.5,11.167"  stroke="#000000" stroke-width="1.5" />
<path d="M96.5,11.167" fill-opacity="0"  stroke="#000000" stroke-width="1.5" />
</g>
<g  stroke="#000000" stroke-width="1.5" ><path d="M301.405,12.167 C301.405,12.167 302.738,52.833 302.738,51.5 C302.738,50.167 298.072,40.833 297.405,40.833 C296.738,40.833 278.072,94.167 278.072,94.167 L264.738,83.5 L242.072,150.833 L233.405,141.5 L210.738,200.833 L206.072,193.5 L231.405,117.5 L240.072,129.5 L262.738,65.5 L273.405,74.833 L288.738,38.833 L275.405,40.833 L301.405,12.167 z"  stroke="#000000" stroke-width="1.5" />
<path d="M301.405,12.167 C301.405,12.167 302.738,52.833 302.738,51.5 C302.738,50.167 298.072,40.833 297.405,40.833 C296.738,40.833 278.072,94.167 278.072,94.167 L264.738,83.5 L242.072,150.833 L233.405,141.5 L210.738,200.833 L206.072,193.5 L231.405,117.5 L240.072,129.5 L262.738,65.5 L273.405,74.833 L288.738,38.833 L275.405,40.833 L301.405,12.167 z" fill-opacity="0"  stroke="#000000" stroke-width="1.5" />
</g>
<g  stroke="#000000" stroke-width="1.5" ><path d="M301.405,12.167"  stroke="#000000" stroke-width="1.5" />
<path d="M301.405,12.167" fill-opacity="0"  stroke="#000000" stroke-width="1.5" />
</g>
<g  stroke="#000000" stroke-width="1.5" ><path d="M156.735,383.658 C156.735,383.658 145.088,344.673 145.427,345.962 C145.767,347.251 152.657,355.088 153.301,354.918 C153.946,354.749 158.413,298.42 158.413,298.42 L174.024,305.339 L178.793,234.453 L189.551,241.271 L196.358,178.121 L202.738,184.024 L197.598,263.97 L186.16,254.573 L180.542,322.236 L167.85,315.927 L162.192,354.645 L174.576,349.315 L156.735,383.658 z"  stroke="#000000" stroke-width="1.5" />
<path d="M156.735,383.658 C156.735,383.658 145.088,344.673 145.427,345.962 C145.767,347.251 152.657,355.088 153.301,354.918 C153.946,354.749 158.413,298.42 158.413,298.42 L174.024,305.339 L178.793,234.453 L189.551,241.271 L196.358,178.121 L202.738,184.024 L197.598,263.97 L186.16,254.573 L180.542,322.236 L167.85,315.927 L162.192,354.645 L174.576,349.315 L156.735,383.658 z" fill-opacity="0"  stroke="#000000" stroke-width="1.5" />
</g>
<g  stroke="#000000" stroke-width="1.5" ><path d="M241.17,382.658 C241.17,382.658 252.817,343.673 252.478,344.962 C252.138,346.251 245.248,354.088 244.604,353.918 C243.959,353.749 239.492,297.42 239.492,297.42 L223.881,304.339 L219.112,233.453 L208.354,240.271 L201.547,177.121 L195.167,183.024 L200.307,262.97 L211.745,253.573 L217.363,321.236 L230.055,314.927 L235.713,353.645 L223.329,348.315 L241.17,382.658 z"  stroke="#000000" stroke-width="1.5" />
<path d="M241.17,382.658 C241.17,382.658 252.817,343.673 252.478,344.962 C252.138,346.251 245.248,354.088 244.604,353.918 C243.959,353.749 239.492,297.42 239.492,297.42 L223.881,304.339 L219.112,233.453 L208.354,240.271 L201.547,177.121 L195.167,183.024 L200.307,262.97 L211.745,253.573 L217.363,321.236 L230.055,314.927 L235.713,353.645 L223.329,348.315 L241.17,382.658 z" fill-opacity="0"  stroke="#000000" stroke-width="1.5" />
</g>
<g  stroke="#000000" stroke-width="1.5" ><path d="M96.5,379.613 C96.5,379.613 95.167,338.946 95.167,340.28 C95.167,341.613 99.833,350.946 100.5,350.946 C101.167,350.946 119.833,297.613 119.833,297.613 L133.167,308.28 L155.833,240.946 L164.5,250.28 L187.167,190.946 L191.833,198.28 L166.5,274.28 L157.833,262.28 L135.167,326.28 L124.5,316.946 L109.167,352.946 L122.5,350.946 L96.5,379.613 z"  stroke-width="1.5" stroke="#000000" />
<path d="M96.5,379.613 C96.5,379.613 95.167,338.946 95.167,340.28 C95.167,341.613 99.833,350.946 100.5,350.946 C101.167,350.946 119.833,297.613 119.833,297.613 L133.167,308.28 L155.833,240.946 L164.5,250.28 L187.167,190.946 L191.833,198.28 L166.5,274.28 L157.833,262.28 L135.167,326.28 L124.5,316.946 L109.167,352.946 L122.5,350.946 L96.5,379.613 z" fill-opacity="0"  stroke-width="1.5" stroke="#000000" />
</g>
<g  stroke="#000000" stroke-width="1.5" ><path d="M96.5,379.613"  stroke="#000000" stroke-width="1.5" />
<path d="M96.5,379.613" fill-opacity="0"  stroke="#000000" stroke-width="1.5" />
</g>
<g  stroke="#000000" stroke-width="1.5" ><path d="M301.405,378.613 C301.405,378.613 302.738,337.946 302.738,339.28 C302.738,340.613 298.072,349.946 297.405,349.946 C296.738,349.946 278.072,296.613 278.072,296.613 L264.738,307.28 L242.072,239.946 L233.405,249.28 L210.738,189.946 L206.072,197.28 L231.405,273.28 L240.072,261.28 L262.738,325.28 L273.405,315.946 L288.738,351.946 L275.405,349.946 L301.405,378.613 z"  stroke="#000000" stroke-width="1.5" />
<path d="M301.405,378.613 C301.405,378.613 302.738,337.946 302.738,339.28 C302.738,340.613 298.072,349.946 297.405,349.946 C296.738,349.946 278.072,296.613 278.072,296.613 L264.738,307.28 L242.072,239.946 L233.405,249.28 L210.738,189.946 L206.072,197.28 L231.405,273.28 L240.072,261.28 L262.738,325.28 L273.405,315.946 L288.738,351.946 L275.405,349.946 L301.405,378.613 z" fill-opacity="0"  stroke="#000000" stroke-width="1.5" />
</g>
<g  stroke="#000000" stroke-width="1.5" ><path d="M301.405,378.613"  stroke="#000000" stroke-width="1.5" />
<path d="M301.405,378.613" fill-opacity="0"  stroke="#000000" stroke-width="1.5" />
</g>
</g>
<g  stroke="#000000" stroke-width="1.5" ><g  stroke="#000000" stroke-width="1.5" ><path d="M170.5,200.167 C174.5,104.167 183.167,98.167 183.167,98.167 L218.5,98.167 C218.5,98.167 235.167,192.167 229.833,201.5"  stroke="#000000" stroke-width="1.5" />
<path d="M170.5,200.167 C174.5,104.167 183.167,98.167 183.167,98.167 L218.5,98.167 C218.5,98.167 235.167,192.167 229.833,201.5" fill-opacity="0"  stroke="#000000" stroke-width="1.5" />
</g>
<path d="M211.833,98.167 L177.167,128.833" fill-opacity="0" stroke-linecap="round"  stroke="#000000" stroke-width="1.5" />
<path d="M225.167,145.5 L170.5,186.167" fill-opacity="0"  stroke="#000000" stroke-width="1.5" />
<path d="M230.886,170.167 L187.167,200.167" fill-opacity="0"  stroke="#000000" stroke-width="1.5" />
<path d="M221.833,118.833 L174.5,157.5" fill-opacity="0" stroke-linecap="round"  stroke="#000000" stroke-width="1.5" />
<g  stroke="#000000" stroke-width="1.5" ><path d="M230.886,229.5 C226.886,325.5 218.219,331.5 218.219,331.5 L182.886,331.5 C182.886,331.5 166.219,237.5 171.553,228.167"  stroke="#000000" stroke-width="1.5" />
<path d="M230.886,229.5 C226.886,325.5 218.219,331.5 218.219,331.5 L182.886,331.5 C182.886,331.5 166.219,237.5 171.553,228.167" fill-opacity="0"  stroke="#000000" stroke-width="1.5" />
</g>
<path d="M189.553,331.5 L224.219,300.833" fill-opacity="0" stroke-linecap="round"  stroke="#000000" stroke-width="1.5" />
<path d="M176.219,284.167 L230.886,243.5" fill-opacity="0"  stroke="#000000" stroke-width="1.5" />
<path d="M170.5,259.5 L214.219,229.5" fill-opacity="0"  stroke="#000000" stroke-width="1.5" />
<path d="M179.553,310.833 L226.886,272.167" fill-opacity="0" stroke-linecap="round"  stroke="#000000" stroke-width="1.5" />
<g  stroke="#000000" stroke-width="1.5" ><path d="M170.5,200.167 L230.886,200.167 L230.886,234.833 L170.5,234.833 L170.5,200.167 z"  stroke="#000000" stroke-width="1.5" />
<path d="M170.5,200.167 L230.886,200.167 L230.886,234.833 L170.5,234.833 L170.5,200.167 z" fill-opacity="0"  stroke="#000000" stroke-width="1.5" />
</g>
</g>
</g>
</g><g  fill="#fcdd07"><g class="PlaceCharge" transform=" translate(382.665,62.665) scale(0.586675, 0.586675) " >
<title>three thunderbolts</title><g  stroke="#000000" stroke-width="1.5" ><g  stroke="#000000" stroke-width="1.5" ><path d="M202.738,196.833 C202.738,196.833 261.167,202.621 264.5,189.796 C267.833,176.971 269.833,144.35 292.5,144.35 C315.167,144.35 389.167,94.35 387.833,80.35 C386.5,66.35 385.833,117.683 376.5,117.683 C367.167,117.683 380.5,132.35 365.833,144.35 C351.167,156.35 357.833,168.926 342.5,176.971 C327.167,185.017 333.167,202.017 320.5,200.35 C307.833,198.683 308.5,223.683 297.833,219.683 C287.167,215.683 271.182,240.35 261.833,233.683 C252.485,227.017 202.738,231.5 202.738,231.5 L202.738,196.833 z"  stroke="#000000" stroke-width="1.5" />
<path d="M202.738,196.833 C202.738,196.833 261.167,202.621 264.5,189.796 C267.833,176.971 269.833,144.35 292.5,144.35 C315.167,144.35 389.167,94.35 387.833,80.35 C386.5,66.35 385.833,117.683 376.5,117.683 C367.167,117.683 380.5,132.35 365.833,144.35 C351.167,156.35 357.833,168.926 342.5,176.971 C327.167,185.017 333.167,202.017 320.5,200.35 C307.833,198.683 308.5,223.683 297.833,219.683 C287.167,215.683 271.182,240.35 261.833,233.683 C252.485,227.017 202.738,231.5 202.738,231.5 L202.738,196.833 z" fill-opacity="0"  stroke="#000000" stroke-width="1.5" />
</g>
<g  stroke="#000000" stroke-width="1.5" ><path d="M230.886,200.167"  stroke="#000000" stroke-width="1.5" />
<path d="M230.886,200.167" fill-opacity="0"  stroke="#000000" stroke-width="1.5" />
</g>
<path d="M373.833,118.833 C373.833,140.188 334.136,157.5 285.167,157.5" fill-opacity="0" stroke-linecap="round"  stroke="#000000" stroke-width="1.5" />
<path d="M353.167,161.017 C353.167,167.644 322.722,173.017 285.167,173.017" fill-opacity="0" stroke-linecap="round"  stroke="#000000" stroke-width="1.5" />
<path d="M332.5,185.017 C332.5,187.104 308.025,188.796 277.833,188.796" fill-opacity="0" stroke-linecap="round"  stroke="#000000" stroke-width="1.5" />
<path d="M311.833,203.017 C311.833,204.858 286.463,206.35 255.167,206.35" fill-opacity="0" stroke-linecap="round"  stroke="#000000" stroke-width="1.5" />
<path d="M285.167,220.35 C285.167,222.191 249.167,223.683 241.167,219.017" fill-opacity="0" stroke-linecap="round"  stroke="#000000" stroke-width="1.5" />
<g  stroke="#000000" stroke-width="1.5" ><path d="M200.851,196.833 C200.851,196.833 142.423,202.621 139.089,189.796 C135.756,176.971 133.756,144.35 111.089,144.35 C88.423,144.35 14.423,94.35 15.756,80.35 C17.089,66.35 17.756,117.683 27.089,117.683 C36.423,117.683 23.089,132.35 37.756,144.35 C52.423,156.35 45.756,168.926 61.089,176.971 C76.423,185.017 70.423,202.017 83.089,200.35 C95.756,198.683 95.089,223.683 105.756,219.683 C116.423,215.683 132.408,240.35 141.756,233.683 C151.104,227.017 200.851,231.5 200.851,231.5 L200.851,196.833 z"  stroke="#000000" stroke-width="1.5" />
<path d="M200.851,196.833 C200.851,196.833 142.423,202.621 139.089,189.796 C135.756,176.971 133.756,144.35 111.089,144.35 C88.423,144.35 14.423,94.35 15.756,80.35 C17.089,66.35 17.756,117.683 27.089,117.683 C36.423,117.683 23.089,132.35 37.756,144.35 C52.423,156.35 45.756,168.926 61.089,176.971 C76.423,185.017 70.423,202.017 83.089,200.35 C95.756,198.683 95.089,223.683 105.756,219.683 C116.423,215.683 132.408,240.35 141.756,233.683 C151.104,227.017 200.851,231.5 200.851,231.5 L200.851,196.833 z" fill-opacity="0"  stroke="#000000" stroke-width="1.5" />
</g>
<path d="M29.756,118.833 C29.756,140.188 69.454,157.5 118.423,157.5" fill-opacity="0" stroke-linecap="round"  stroke="#000000" stroke-width="1.5" />
<path d="M50.423,161.017 C50.423,167.644 80.867,173.017 118.423,173.017" fill-opacity="0" stroke-linecap="round"  stroke="#000000" stroke-width="1.5" />
<path d="M71.089,185.017 C71.089,187.104 95.565,188.796 125.756,188.796" fill-opacity="0" stroke-linecap="round"  stroke="#000000" stroke-width="1.5" />
<path d="M91.756,203.017 C91.756,204.858 117.127,206.35 148.423,206.35" fill-opacity="0" stroke-linecap="round"  stroke="#000000" stroke-width="1.5" />
<path d="M118.423,220.35 C118.423,222.191 154.423,223.683 162.423,219.017" fill-opacity="0" stroke-linecap="round"  stroke="#000000" stroke-width="1.5" />
</g>
<g  stroke="#000000" stroke-width="1.5" ><g  stroke="#000000" stroke-width="1.5" ><path d="M156.735,7.121 C156.735,7.121 145.088,46.107 145.427,44.818 C145.767,43.528 152.657,35.691 153.301,35.861 C153.946,36.031 158.413,92.36 158.413,92.36 L174.024,85.441 L178.793,156.327 L189.551,149.509 L196.358,212.658 L202.738,206.756 L197.598,126.81 L186.16,136.207 L180.542,68.544 L167.85,74.853 L162.192,36.135 L174.576,41.465 L156.735,7.121 z"  stroke="#000000" stroke-width="1.5" />
<path d="M156.735,7.121 C156.735,7.121 145.088,46.107 145.427,44.818 C145.767,43.528 152.657,35.691 153.301,35.861 C153.946,36.031 158.413,92.36 158.413,92.36 L174.024,85.441 L178.793,156.327 L189.551,149.509 L196.358,212.658 L202.738,206.756 L197.598,126.81 L186.16,136.207 L180.542,68.544 L167.85,74.853 L162.192,36.135 L174.576,41.465 L156.735,7.121 z" fill-opacity="0"  stroke="#000000" stroke-width="1.5" />
</g>
<g  stroke="#000000" stroke-width="1.5" ><path d="M241.17,8.121 C241.17,8.121 252.817,47.107 252.478,45.818 C252.138,44.528 245.248,36.691 244.604,36.861 C243.959,37.031 239.492,93.36 239.492,93.36 L223.881,86.441 L219.112,157.327 L208.354,150.509 L201.547,213.658 L195.167,207.756 L200.307,127.81 L211.745,137.207 L217.363,69.544 L230.055,75.853 L235.713,37.135 L223.329,42.465 L241.17,8.121 z"  stroke="#000000" stroke-width="1.5" />
<path d="M241.17,8.121 C241.17,8.121 252.817,47.107 252.478,45.818 C252.138,44.528 245.248,36.691 244.604,36.861 C243.959,37.031 239.492,93.36 239.492,93.36 L223.881,86.441 L219.112,157.327 L208.354,150.509 L201.547,213.658 L195.167,207.756 L200.307,127.81 L211.745,137.207 L217.363,69.544 L230.055,75.853 L235.713,37.135 L223.329,42.465 L241.17,8.121 z" fill-opacity="0"  stroke="#000000" stroke-width="1.5" />
</g>
<g  stroke="#000000" stroke-width="1.5" ><path d="M96.5,11.167 C96.5,11.167 95.167,51.833 95.167,50.5 C95.167,49.167 99.833,39.833 100.5,39.833 C101.167,39.833 119.833,93.167 119.833,93.167 L133.167,82.5 L155.833,149.833 L164.5,140.5 L187.167,199.833 L191.833,192.5 L166.5,116.5 L157.833,128.5 L135.167,64.5 L124.5,73.833 L109.167,37.833 L122.5,39.833 L96.5,11.167 z"  stroke="#000000" stroke-width="1.5" />
<path d="M96.5,11.167 C96.5,11.167 95.167,51.833 95.167,50.5 C95.167,49.167 99.833,39.833 100.5,39.833 C101.167,39.833 119.833,93.167 119.833,93.167 L133.167,82.5 L155.833,149.833 L164.5,140.5 L187.167,199.833 L191.833,192.5 L166.5,116.5 L157.833,128.5 L135.167,64.5 L124.5,73.833 L109.167,37.833 L122.5,39.833 L96.5,11.167 z" fill-opacity="0"  stroke="#000000" stroke-width="1.5" />
</g>
<g  stroke="#000000" stroke-width="1.5" ><path d="M96.5,11.167"  stroke="#000000" stroke-width="1.5" />
<path d="M96.5,11.167" fill-opacity="0"  stroke="#000000" stroke-width="1.5" />
</g>
<g  stroke="#000000" stroke-width="1.5" ><path d="M301.405,12.167 C301.405,12.167 302.738,52.833 302.738,51.5 C302.738,50.167 298.072,40.833 297.405,40.833 C296.738,40.833 278.072,94.167 278.072,94.167 L264.738,83.5 L242.072,150.833 L233.405,141.5 L210.738,200.833 L206.072,193.5 L231.405,117.5 L240.072,129.5 L262.738,65.5 L273.405,74.833 L288.738,38.833 L275.405,40.833 L301.405,12.167 z"  stroke="#000000" stroke-width="1.5" />
<path d="M301.405,12.167 C301.405,12.167 302.738,52.833 302.738,51.5 C302.738,50.167 298.072,40.833 297.405,40.833 C296.738,40.833 278.072,94.167 278.072,94.167 L264.738,83.5 L242.072,150.833 L233.405,141.5 L210.738,200.833 L206.072,193.5 L231.405,117.5 L240.072,129.5 L262.738,65.5 L273.405,74.833 L288.738,38.833 L275.405,40.833 L301.405,12.167 z" fill-opacity="0"  stroke="#000000" stroke-width="1.5" />
</g>
<g  stroke="#000000" stroke-width="1.5" ><path d="M301.405,12.167"  stroke="#000000" stroke-width="1.5" />
<path d="M301.405,12.167" fill-opacity="0"  stroke="#000000" stroke-width="1.5" />
</g>
<g  stroke="#000000" stroke-width="1.5" ><path d="M156.735,383.658 C156.735,383.658 145.088,344.673 145.427,345.962 C145.767,347.251 152.657,355.088 153.301,354.918 C153.946,354.749 158.413,298.42 158.413,298.42 L174.024,305.339 L178.793,234.453 L189.551,241.271 L196.358,178.121 L202.738,184.024 L197.598,263.97 L186.16,254.573 L180.542,322.236 L167.85,315.927 L162.192,354.645 L174.576,349.315 L156.735,383.658 z"  stroke="#000000" stroke-width="1.5" />
<path d="M156.735,383.658 C156.735,383.658 145.088,344.673 145.427,345.962 C145.767,347.251 152.657,355.088 153.301,354.918 C153.946,354.749 158.413,298.42 158.413,298.42 L174.024,305.339 L178.793,234.453 L189.551,241.271 L196.358,178.121 L202.738,184.024 L197.598,263.97 L186.16,254.573 L180.542,322.236 L167.85,315.927 L162.192,354.645 L174.576,349.315 L156.735,383.658 z" fill-opacity="0"  stroke="#000000" stroke-width="1.5" />
</g>
<g  stroke="#000000" stroke-width="1.5" ><path d="M241.17,382.658 C241.17,382.658 252.817,343.673 252.478,344.962 C252.138,346.251 245.248,354.088 244.604,353.918 C243.959,353.749 239.492,297.42 239.492,297.42 L223.881,304.339 L219.112,233.453 L208.354,240.271 L201.547,177.121 L195.167,183.024 L200.307,262.97 L211.745,253.573 L217.363,321.236 L230.055,314.927 L235.713,353.645 L223.329,348.315 L241.17,382.658 z"  stroke="#000000" stroke-width="1.5" />
<path d="M241.17,382.658 C241.17,382.658 252.817,343.673 252.478,344.962 C252.138,346.251 245.248,354.088 244.604,353.918 C243.959,353.749 239.492,297.42 239.492,297.42 L223.881,304.339 L219.112,233.453 L208.354,240.271 L201.547,177.121 L195.167,183.024 L200.307,262.97 L211.745,253.573 L217.363,321.236 L230.055,314.927 L235.713,353.645 L223.329,348.315 L241.17,382.658 z" fill-opacity="0"  stroke="#000000" stroke-width="1.5" />
</g>
<g  stroke="#000000" stroke-width="1.5" ><path d="M96.5,379.613 C96.5,379.613 95.167,338.946 95.167,340.28 C95.167,341.613 99.833,350.946 100.5,350.946 C101.167,350.946 119.833,297.613 119.833,297.613 L133.167,308.28 L155.833,240.946 L164.5,250.28 L187.167,190.946 L191.833,198.28 L166.5,274.28 L157.833,262.28 L135.167,326.28 L124.5,316.946 L109.167,352.946 L122.5,350.946 L96.5,379.613 z"  stroke-width="1.5" stroke="#000000" />
<path d="M96.5,379.613 C96.5,379.613 95.167,338.946 95.167,340.28 C95.167,341.613 99.833,350.946 100.5,350.946 C101.167,350.946 119.833,297.613 119.833,297.613 L133.167,308.28 L155.833,240.946 L164.5,250.28 L187.167,190.946 L191.833,198.28 L166.5,274.28 L157.833,262.28 L135.167,326.28 L124.5,316.946 L109.167,352.946 L122.5,350.946 L96.5,379.613 z" fill-opacity="0"  stroke-width="1.5" stroke="#000000" />
</g>
<g  stroke="#000000" stroke-width="1.5" ><path d="M96.5,379.613"  stroke="#000000" stroke-width="1.5" />
<path d="M96.5,379.613" fill-opacity="0"  stroke="#000000" stroke-width="1.5" />
</g>
<g  stroke="#000000" stroke-width="1.5" ><path d="M301.405,378.613 C301.405,378.613 302.738,337.946 302.738,339.28 C302.738,340.613 298.072,349.946 297.405,349.946 C296.738,349.946 278.072,296.613 278.072,296.613 L264.738,307.28 L242.072,239.946 L233.405,249.28 L210.738,189.946 L206.072,197.28 L231.405,273.28 L240.072,261.28 L262.738,325.28 L273.405,315.946 L288.738,351.946 L275.405,349.946 L301.405,378.613 z"  stroke="#000000" stroke-width="1.5" />
<path d="M301.405,378.613 C301.405,378.613 302.738,337.946 302.738,339.28 C302.738,340.613 298.072,349.946 297.405,349.946 C296.738,349.946 278.072,296.613 278.072,296.613 L264.738,307.28 L242.072,239.946 L233.405,249.28 L210.738,189.946 L206.072,197.28 L231.405,273.28 L240.072,261.28 L262.738,325.28 L273.405,315.946 L288.738,351.946 L275.405,349.946 L301.405,378.613 z" fill-opacity="0"  stroke="#000000" stroke-width="1.5" />
</g>
<g  stroke="#000000" stroke-width="1.5" ><path d="M301.405,378.613"  stroke="#000000" stroke-width="1.5" />
<path d="M301.405,378.613" fill-opacity="0"  stroke="#000000" stroke-width="1.5" />
</g>
</g>
<g  stroke="#000000" stroke-width="1.5" ><g  stroke="#000000" stroke-width="1.5" ><path d="M170.5,200.167 C174.5,104.167 183.167,98.167 183.167,98.167 L218.5,98.167 C218.5,98.167 235.167,192.167 229.833,201.5"  stroke="#000000" stroke-width="1.5" />
<path d="M170.5,200.167 C174.5,104.167 183.167,98.167 183.167,98.167 L218.5,98.167 C218.5,98.167 235.167,192.167 229.833,201.5" fill-opacity="0"  stroke="#000000" stroke-width="1.5" />
</g>
<path d="M211.833,98.167 L177.167,128.833" fill-opacity="0" stroke-linecap="round"  stroke="#000000" stroke-width="1.5" />
<path d="M225.167,145.5 L170.5,186.167" fill-opacity="0"  stroke="#000000" stroke-width="1.5" />
<path d="M230.886,170.167 L187.167,200.167" fill-opacity="0"  stroke="#000000" stroke-width="1.5" />
<path d="M221.833,118.833 L174.5,157.5" fill-opacity="0" stroke-linecap="round"  stroke="#000000" stroke-width="1.5" />
<g  stroke="#000000" stroke-width="1.5" ><path d="M230.886,229.5 C226.886,325.5 218.219,331.5 218.219,331.5 L182.886,331.5 C182.886,331.5 166.219,237.5 171.553,228.167"  stroke="#000000" stroke-width="1.5" />
<path d="M230.886,229.5 C226.886,325.5 218.219,331.5 218.219,331.5 L182.886,331.5 C182.886,331.5 166.219,237.5 171.553,228.167" fill-opacity="0"  stroke="#000000" stroke-width="1.5" />
</g>
<path d="M189.553,331.5 L224.219,300.833" fill-opacity="0" stroke-linecap="round"  stroke="#000000" stroke-width="1.5" />
<path d="M176.219,284.167 L230.886,243.5" fill-opacity="0"  stroke="#000000" stroke-width="1.5" />
<path d="M170.5,259.5 L214.219,229.5" fill-opacity="0"  stroke="#000000" stroke-width="1.5" />
<path d="M179.553,310.833 L226.886,272.167" fill-opacity="0" stroke-linecap="round"  stroke="#000000" stroke-width="1.5" />
<g  stroke="#000000" stroke-width="1.5" ><path d="M170.5,200.167 L230.886,200.167 L230.886,234.833 L170.5,234.833 L170.5,200.167 z"  stroke="#000000" stroke-width="1.5" />
<path d="M170.5,200.167 L230.886,200.167 L230.886,234.833 L170.5,234.833 L170.5,200.167 z" fill-opacity="0"  stroke="#000000" stroke-width="1.5" />
</g>
</g>
</g>
</g><g  fill="#fcdd07"><g class="PlaceCharge" transform=" translate(705.335,62.665) scale(0.586675, 0.586675) " >
<title>three thunderbolts</title><g  stroke="#000000" stroke-width="1.5" ><g  stroke="#000000" stroke-width="1.5" ><path d="M202.738,196.833 C202.738,196.833 261.167,202.621 264.5,189.796 C267.833,176.971 269.833,144.35 292.5,144.35 C315.167,144.35 389.167,94.35 387.833,80.35 C386.5,66.35 385.833,117.683 376.5,117.683 C367.167,117.683 380.5,132.35 365.833,144.35 C351.167,156.35 357.833,168.926 342.5,176.971 C327.167,185.017 333.167,202.017 320.5,200.35 C307.833,198.683 308.5,223.683 297.833,219.683 C287.167,215.683 271.182,240.35 261.833,233.683 C252.485,227.017 202.738,231.5 202.738,231.5 L202.738,196.833 z"  stroke="#000000" stroke-width="1.5" />
<path d="M202.738,196.833 C202.738,196.833 261.167,202.621 264.5,189.796 C267.833,176.971 269.833,144.35 292.5,144.35 C315.167,144.35 389.167,94.35 387.833,80.35 C386.5,66.35 385.833,117.683 376.5,117.683 C367.167,117.683 380.5,132.35 365.833,144.35 C351.167,156.35 357.833,168.926 342.5,176.971 C327.167,185.017 333.167,202.017 320.5,200.35 C307.833,198.683 308.5,223.683 297.833,219.683 C287.167,215.683 271.182,240.35 261.833,233.683 C252.485,227.017 202.738,231.5 202.738,231.5 L202.738,196.833 z" fill-opacity="0"  stroke="#000000" stroke-width="1.5" />
</g>
<g  stroke="#000000" stroke-width="1.5" ><path d="M230.886,200.167"  stroke="#000000" stroke-width="1.5" />
<path d="M230.886,200.167" fill-opacity="0"  stroke="#000000" stroke-width="1.5" />
</g>
<path d="M373.833,118.833 C373.833,140.188 334.136,157.5 285.167,157.5" fill-opacity="0" stroke-linecap="round"  stroke="#000000" stroke-width="1.5" />
<path d="M353.167,161.017 C353.167,167.644 322.722,173.017 285.167,173.017" fill-opacity="0" stroke-linecap="round"  stroke="#000000" stroke-width="1.5" />
<path d="M332.5,185.017 C332.5,187.104 308.025,188.796 277.833,188.796" fill-opacity="0" stroke-linecap="round"  stroke="#000000" stroke-width="1.5" />
<path d="M311.833,203.017 C311.833,204.858 286.463,206.35 255.167,206.35" fill-opacity="0" stroke-linecap="round"  stroke="#000000" stroke-width="1.5" />
<path d="M285.167,220.35 C285.167,222.191 249.167,223.683 241.167,219.017" fill-opacity="0" stroke-linecap="round"  stroke="#000000" stroke-width="1.5" />
<g  stroke="#000000" stroke-width="1.5" ><path d="M200.851,196.833 C200.851,196.833 142.423,202.621 139.089,189.796 C135.756,176.971 133.756,144.35 111.089,144.35 C88.423,144.35 14.423,94.35 15.756,80.35 C17.089,66.35 17.756,117.683 27.089,117.683 C36.423,117.683 23.089,132.35 37.756,144.35 C52.423,156.35 45.756,168.926 61.089,176.971 C76.423,185.017 70.423,202.017 83.089,200.35 C95.756,198.683 95.089,223.683 105.756,219.683 C116.423,215.683 132.408,240.35 141.756,233.683 C151.104,227.017 200.851,231.5 200.851,231.5 L200.851,196.833 z"  stroke="#000000" stroke-width="1.5" />
<path d="M200.851,196.833 C200.851,196.833 142.423,202.621 139.089,189.796 C135.756,176.971 133.756,144.35 111.089,144.35 C88.423,144.35 14.423,94.35 15.756,80.35 C17.089,66.35 17.756,117.683 27.089,117.683 C36.423,117.683 23.089,132.35 37.756,144.35 C52.423,156.35 45.756,168.926 61.089,176.971 C76.423,185.017 70.423,202.017 83.089,200.35 C95.756,198.683 95.089,223.683 105.756,219.683 C116.423,215.683 132.408,240.35 141.756,233.683 C151.104,227.017 200.851,231.5 200.851,231.5 L200.851,196.833 z" fill-opacity="0"  stroke="#000000" stroke-width="1.5" />
</g>
<path d="M29.756,118.833 C29.756,140.188 69.454,157.5 118.423,157.5" fill-opacity="0" stroke-linecap="round"  stroke="#000000" stroke-width="1.5" />
<path d="M50.423,161.017 C50.423,167.644 80.867,173.017 118.423,173.017" fill-opacity="0" stroke-linecap="round"  stroke="#000000" stroke-width="1.5" />
<path d="M71.089,185.017 C71.089,187.104 95.565,188.796 125.756,188.796" fill-opacity="0" stroke-linecap="round"  stroke="#000000" stroke-width="1.5" />
<path d="M91.756,203.017 C91.756,204.858 117.127,206.35 148.423,206.35" fill-opacity="0" stroke-linecap="round"  stroke="#000000" stroke-width="1.5" />
<path d="M118.423,220.35 C118.423,222.191 154.423,223.683 162.423,219.017" fill-opacity="0" stroke-linecap="round"  stroke="#000000" stroke-width="1.5" />
</g>
<g  stroke="#000000" stroke-width="1.5" ><g  stroke="#000000" stroke-width="1.5" ><path d="M156.735,7.121 C156.735,7.121 145.088,46.107 145.427,44.818 C145.767,43.528 152.657,35.691 153.301,35.861 C153.946,36.031 158.413,92.36 158.413,92.36 L174.024,85.441 L178.793,156.327 L189.551,149.509 L196.358,212.658 L202.738,206.756 L197.598,126.81 L186.16,136.207 L180.542,68.544 L167.85,74.853 L162.192,36.135 L174.576,41.465 L156.735,7.121 z"  stroke="#000000" stroke-width="1.5" />
<path d="M156.735,7.121 C156.735,7.121 145.088,46.107 145.427,44.818 C145.767,43.528 152.657,35.691 153.301,35.861 C153.946,36.031 158.413,92.36 158.413,92.36 L174.024,85.441 L178.793,156.327 L189.551,149.509 L196.358,212.658 L202.738,206.756 L197.598,126.81 L186.16,136.207 L180.542,68.544 L167.85,74.853 L162.192,36.135 L174.576,41.465 L156.735,7.121 z" fill-opacity="0"  stroke="#000000" stroke-width="1.5" />
</g>
<g  stroke="#000000" stroke-width="1.5" ><path d="M241.17,8.121 C241.17,8.121 252.817,47.107 252.478,45.818 C252.138,44.528 245.248,36.691 244.604,36.861 C243.959,37.031 239.492,93.36 239.492,93.36 L223.881,86.441 L219.112,157.327 L208.354,150.509 L201.547,213.658 L195.167,207.756 L200.307,127.81 L211.745,137.207 L217.363,69.544 L230.055,75.853 L235.713,37.135 L223.329,42.465 L241.17,8.121 z"  stroke="#000000" stroke-width="1.5" />
<path d="M241.17,8.121 C241.17,8.121 252.817,47.107 252.478,45.818 C252.138,44.528 245.248,36.691 244.604,36.861 C243.959,37.031 239.492,93.36 239.492,93.36 L223.881,86.441 L219.112,157.327 L208.354,150.509 L201.547,213.658 L195.167,207.756 L200.307,127.81 L211.745,137.207 L217.363,69.544 L230.055,75.853 L235.713,37.135 L223.329,42.465 L241.17,8.121 z" fill-opacity="0"  stroke="#000000" stroke-width="1.5" />
</g>
<g  stroke="#000000" stroke-width="1.5" ><path d="M96.5,11.167 C96.5,11.167 95.167,51.833 95.167,50.5 C95.167,49.167 99.833,39.833 100.5,39.833 C101.167,39.833 119.833,93.167 119.833,93.167 L133.167,82.5 L155.833,149.833 L164.5,140.5 L187.167,199.833 L191.833,192.5 L166.5,116.5 L157.833,128.5 L135.167,64.5 L124.5,73.833 L109.167,37.833 L122.5,39.833 L96.5,11.167 z"  stroke="#000000" stroke-width="1.5" />
<path d="M96.5,11.167 C96.5,11.167 95.167,51.833 95.167,50.5 C95.167,49.167 99.833,39.833 100.5,39.833 C101.167,39.833 119.833,93.167 119.833,93.167 L133.167,82.5 L155.833,149.833 L164.5,140.5 L187.167,199.833 L191.833,192.5 L166.5,116.5 L157.833,128.5 L135.167,64.5 L124.5,73.833 L109.167,37.833 L122.5,39.833 L96.5,11.167 z" fill-opacity="0"  stroke="#000000" stroke-width="1.5" />
</g>
<g  stroke="#000000" stroke-width="1.5" ><path d="M96.5,11.167"  stroke="#000000" stroke-width="1.5" />
<path d="M96.5,11.167" fill-opacity="0"  stroke="#000000" stroke-width="1.5" />
</g>
<g  stroke="#000000" stroke-width="1.5" ><path d="M301.405,12.167 C301.405,12.167 302.738,52.833 302.738,51.5 C302.738,50.167 298.072,40.833 297.405,40.833 C296.738,40.833 278.072,94.167 278.072,94.167 L264.738,83.5 L242.072,150.833 L233.405,141.5 L210.738,200.833 L206.072,193.5 L231.405,117.5 L240.072,129.5 L262.738,65.5 L273.405,74.833 L288.738,38.833 L275.405,40.833 L301.405,12.167 z"  stroke="#000000" stroke-width="1.5" />
<path d="M301.405,12.167 C301.405,12.167 302.738,52.833 302.738,51.5 C302.738,50.167 298.072,40.833 297.405,40.833 C296.738,40.833 278.072,94.167 278.072,94.167 L264.738,83.5 L242.072,150.833 L233.405,141.5 L210.738,200.833 L206.072,193.5 L231.405,117.5 L240.072,129.5 L262.738,65.5 L273.405,74.833 L288.738,38.833 L275.405,40.833 L301.405,12.167 z" fill-opacity="0"  stroke="#000000" stroke-width="1.5" />
</g>
<g  stroke="#000000" stroke-width="1.5" ><path d="M301.405,12.167"  stroke="#000000" stroke-width="1.5" />
<path d="M301.405,12.167" fill-opacity="0"  stroke="#000000" stroke-width="1.5" />
</g>
<g  stroke="#000000" stroke-width="1.5" ><path d="M156.735,383.658 C156.735,383.658 145.088,344.673 145.427,345.962 C145.767,347.251 152.657,355.088 153.301,354.918 C153.946,354.749 158.413,298.42 158.413,298.42 L174.024,305.339 L178.793,234.453 L189.551,241.271 L196.358,178.121 L202.738,184.024 L197.598,263.97 L186.16,254.573 L180.542,322.236 L167.85,315.927 L162.192,354.645 L174.576,349.315 L156.735,383.658 z"  stroke="#000000" stroke-width="1.5" />
<path d="M156.735,383.658 C156.735,383.658 145.088,344.673 145.427,345.962 C145.767,347.251 152.657,355.088 153.301,354.918 C153.946,354.749 158.413,298.42 158.413,298.42 L174.024,305.339 L178.793,234.453 L189.551,241.271 L196.358,178.121 L202.738,184.024 L197.598,263.97 L186.16,254.573 L180.542,322.236 L167.85,315.927 L162.192,354.645 L174.576,349.315 L156.735,383.658 z" fill-opacity="0"  stroke="#000000" stroke-width="1.5" />
</g>
<g  stroke="#000000" stroke-width="1.5" ><path d="M241.17,382.658 C241.17,382.658 252.817,343.673 252.478,344.962 C252.138,346.251 245.248,354.088 244.604,353.918 C243.959,353.749 239.492,297.42 239.492,297.42 L223.881,304.339 L219.112,233.453 L208.354,240.271 L201.547,177.121 L195.167,183.024 L200.307,262.97 L211.745,253.573 L217.363,321.236 L230.055,314.927 L235.713,353.645 L223.329,348.315 L241.17,382.658 z"  stroke="#000000" stroke-width="1.5" />
<path d="M241.17,382.658 C241.17,382.658 252.817,343.673 252.478,344.962 C252.138,346.251 245.248,354.088 244.604,353.918 C243.959,353.749 239.492,297.42 239.492,297.42 L223.881,304.339 L219.112,233.453 L208.354,240.271 L201.547,177.121 L195.167,183.024 L200.307,262.97 L211.745,253.573 L217.363,321.236 L230.055,314.927 L235.713,353.645 L223.329,348.315 L241.17,382.658 z" fill-opacity="0"  stroke="#000000" stroke-width="1.5" />
</g>
<g  stroke="#000000" stroke-width="1.5" ><path d="M96.5,379.613 C96.5,379.613 95.167,338.946 95.167,340.28 C95.167,341.613 99.833,350.946 100.5,350.946 C101.167,350.946 119.833,297.613 119.833,297.613 L133.167,308.28 L155.833,240.946 L164.5,250.28 L187.167,190.946 L191.833,198.28 L166.5,274.28 L157.833,262.28 L135.167,326.28 L124.5,316.946 L109.167,352.946 L122.5,350.946 L96.5,379.613 z"  stroke-width="1.5" stroke="#000000" />
<path d="M96.5,379.613 C96.5,379.613 95.167,338.946 95.167,340.28 C95.167,341.613 99.833,350.946 100.5,350.946 C101.167,350.946 119.833,297.613 119.833,297.613 L133.167,308.28 L155.833,240.946 L164.5,250.28 L187.167,190.946 L191.833,198.28 L166.5,274.28 L157.833,262.28 L135.167,326.28 L124.5,316.946 L109.167,352.946 L122.5,350.946 L96.5,379.613 z" fill-opacity="0"  stroke-width="1.5" stroke="#000000" />
</g>
<g  stroke="#000000" stroke-width="1.5" ><path d="M96.5,379.613"  stroke="#000000" stroke-width="1.5" />
<path d="M96.5,379.613" fill-opacity="0"  stroke="#000000" stroke-width="1.5" />
</g>
<g  stroke="#000000" stroke-width="1.5" ><path d="M301.405,378.613 C301.405,378.613 302.738,337.946 302.738,339.28 C302.738,340.613 298.072,349.946 297.405,349.946 C296.738,349.946 278.072,296.613 278.072,296.613 L264.738,307.28 L242.072,239.946 L233.405,249.28 L210.738,189.946 L206.072,197.28 L231.405,273.28 L240.072,261.28 L262.738,325.28 L273.405,315.946 L288.738,351.946 L275.405,349.946 L301.405,378.613 z"  stroke="#000000" stroke-width="1.5" />
<path d="M301.405,378.613 C301.405,378.613 302.738,337.946 302.738,339.28 C302.738,340.613 298.072,349.946 297.405,349.946 C296.738,349.946 278.072,296.613 278.072,296.613 L264.738,307.28 L242.072,239.946 L233.405,249.28 L210.738,189.946 L206.072,197.28 L231.405,273.28 L240.072,261.28 L262.738,325.28 L273.405,315.946 L288.738,351.946 L275.405,349.946 L301.405,378.613 z" fill-opacity="0"  stroke="#000000" stroke-width="1.5" />
</g>
<g  stroke="#000000" stroke-width="1.5" ><path d="M301.405,378.613"  stroke="#000000" stroke-width="1.5" />
<path d="M301.405,378.613" fill-opacity="0"  stroke="#000000" stroke-width="1.5" />
</g>
</g>
<g  stroke="#000000" stroke-width="1.5" ><g  stroke="#000000" stroke-width="1.5" ><path d="M170.5,200.167 C174.5,104.167 183.167,98.167 183.167,98.167 L218.5,98.167 C218.5,98.167 235.167,192.167 229.833,201.5"  stroke="#000000" stroke-width="1.5" />
<path d="M170.5,200.167 C174.5,104.167 183.167,98.167 183.167,98.167 L218.5,98.167 C218.5,98.167 235.167,192.167 229.833,201.5" fill-opacity="0"  stroke="#000000" stroke-width="1.5" />
</g>
<path d="M211.833,98.167 L177.167,128.833" fill-opacity="0" stroke-linecap="round"  stroke="#000000" stroke-width="1.5" />
<path d="M225.167,145.5 L170.5,186.167" fill-opacity="0"  stroke="#000000" stroke-width="1.5" />
<path d="M230.886,170.167 L187.167,200.167" fill-opacity="0"  stroke="#000000" stroke-width="1.5" />
<path d="M221.833,118.833 L174.5,157.5" fill-opacity="0" stroke-linecap="round"  stroke="#000000" stroke-width="1.5" />
<g  stroke="#000000" stroke-width="1.5" ><path d="M230.886,229.5 C226.886,325.5 218.219,331.5 218.219,331.5 L182.886,331.5 C182.886,331.5 166.219,237.5 171.553,228.167"  stroke="#000000" stroke-width="1.5" />
<path d="M230.886,229.5 C226.886,325.5 218.219,331.5 218.219,331.5 L182.886,331.5 C182.886,331.5 166.219,237.5 171.553,228.167" fill-opacity="0"  stroke="#000000" stroke-width="1.5" />
</g>
<path d="M189.553,331.5 L224.219,300.833" fill-opacity="0" stroke-linecap="round"  stroke="#000000" stroke-width="1.5" />
<path d="M176.219,284.167 L230.886,243.5" fill-opacity="0"  stroke="#000000" stroke-width="1.5" />
<path d="M170.5,259.5 L214.219,229.5" fill-opacity="0"  stroke="#000000" stroke-width="1.5" />
<path d="M179.553,310.833 L226.886,272.167" fill-opacity="0" stroke-linecap="round"  stroke="#000000" stroke-width="1.5" />
<g  stroke="#000000" stroke-width="1.5" ><path d="M170.5,200.167 L230.886,200.167 L230.886,234.833 L170.5,234.833 L170.5,200.167 z"  stroke="#000000" stroke-width="1.5" />
<path d="M170.5,200.167 L230.886,200.167 L230.886,234.833 L170.5,234.833 L170.5,200.167 z" fill-opacity="0"  stroke="#000000" stroke-width="1.5" />
</g>
</g>
</g>
</g></g></g></g><defs><mask id="mask12-1" >
<path fill="#FFFFFF" d="m 0,0 v 800 c -2.5063876,43.11115 1.2341419,84.33503 21.489586,125.13639 20.255443,40.80137 53.477613,79.98631 98.039434,115.63581 44.56181,35.6494 100.44867,67.7517 164.92346,94.7345 64.47479,26.9828 137.51639,48.8374 215.54752,64.4933 78.03113,-15.6559 151.07273,-37.5105 215.54752,-64.4933 64.47479,-26.9828 120.36165,-59.0851 164.92346,-94.7345 44.56182,-35.6495 77.78399,-74.83444 98.03943,-115.63581 C 998.76586,884.33503 1000.1453,841.93063 1000,800 V 0 Z" />
</mask>
</defs></g></svg>
