<?xml version="1.0" encoding="UTF-8" standalone="no"?>
<!-- Generator: Adobe Illustrator 15.1.0, SVG Export Plug-In . SVG Version: 6.00 Build 0)  -->

<svg
   version="1.1"
   id="Layer_1"
   x="0px"
   y="0px"
   width="262.32114"
   height="299.33664"
   viewBox="0 0 262.32114 299.33664"
   enable-background="new 0 0 196 213"
   xml:space="preserve"
   sodipodi:docname="Component_letters_in_Alo-Alluh (1).svg"
   inkscape:version="1.1.2 (b8e25be833, 2022-02-05)"
   xmlns:inkscape="http://www.inkscape.org/namespaces/inkscape"
   xmlns:sodipodi="http://sodipodi.sourceforge.net/DTD/sodipodi-0.dtd"
   xmlns="http://www.w3.org/2000/svg"
   xmlns:svg="http://www.w3.org/2000/svg"><defs
   id="defs51" /><sodipodi:namedview
   id="namedview49"
   pagecolor="#ffffff"
   bordercolor="#666666"
   borderopacity="1.0"
   inkscape:pageshadow="2"
   inkscape:pageopacity="0.0"
   inkscape:pagecheckerboard="0"
   showgrid="false"
   inkscape:zoom="2.8981418"
   inkscape:cx="108.17276"
   inkscape:cy="162.86298"
   inkscape:window-width="2560"
   inkscape:window-height="1377"
   inkscape:window-x="-8"
   inkscape:window-y="-8"
   inkscape:window-maximized="1"
   inkscape:current-layer="Layer_1"
   fit-margin-top="10"
   fit-margin-left="10"
   fit-margin-right="10"
   fit-margin-bottom="10" />

<path
   fill="#1c3f1d"
   d="m 218.32114,83.135078 c 0,0 0.235,15.53 0.706,24.941002 0.471,9.411 7.765,51.293 7.765,68.235 0,16.942 -6.637,33.397 -8.054,33.397 -1.417,0 0.666,-6.333 0.666,-15 0,-8.667 -9.749,-68.083 -9.749,-86.083 0,-18.000002 8.666,-25.490002 8.666,-25.490002 z"
   id="path4" />
<path
   fill="#d28cbd"
   d="m 233.65514,40.958078 c -13.312,0 -25.386,15.723 -28.532,20.167 -3.032,0 -5.417,0 -6.302,0 -3.166,0 -6.833,3.333 -6.833,7.833 0,7.833 5.833,11.833 5.833,11.833 0,0 -0.333,-3.334 -0.333,-5.167 0,-1.833 1.833,-3.667 3.333,-3.667 1.5,0 24.001,0 26.334,0 2.333,0 17.333,-5 17.333,-16.167 0,-11.167 -3.833,-14.832 -10.833,-14.832 z m -6.667,20.167 c -1.421,0 -8.423,0 -15.135,0 2.468,-2.891 10.938,-12.333 16.302,-12.333 3.833,0 5.5,2.666 5.5,4.333 0,1.667 -4,8 -6.667,8 z"
   id="path6" />
<path
   fill="#eb2127"
   d="m 172.15314,115.78908 c 0,0 -5,6.167 -5,12.333 0,4.333 14,57 14,58.833 0,1.833 -2.667,4.834 -8,4.834 -1.808,0 -3.471,-0.354 -5.016,-1.013 0,6.989 0,13.978 0,20.968 0.71,0.134 1.437,0.211 2.182,0.211 8.166,0 16.5,-13.166 16.5,-27.166 0,-14 -14.666,-69 -14.666,-69 z"
   id="path8" />


<path
   fill="#007ec6"
   d="m 152.32014,165.28908 c -5,-15.5 -11,-49.833 -11,-49.833 0,0 -6.5,5.833 -6.5,13.667 0,3.333 2,15.667 5.667,29.833 3.667,14.166 5.833,21.167 5.833,21.167 0,0 -8.5,14.167 -21,14.167 -1.44,0 -2.745,-0.151 -3.931,-0.427 v 18.954 c 0.732,0.09 1.485,0.139 2.265,0.139 18.333,0 26.167,-22 26.167,-22 0,0 6.803,18.624 18.318,20.789 0,-6.99 0,-13.979 0,-20.968 -7.144,-3.048 -11.709,-12.744 -15.819,-25.488 z"
   id="path14" />
<path
   fill="#4db748"
   d="m 149.19614,65.459078 c 0,0 3.75,5.875 3.75,15 0,9.125 -5.25,18.625 -12.375,18.625 -7.125,0 -9.125,-2.25 -9.125,-2.25 0,0 -6.25,12.125002 -13,12.125002 -6.75,0 -11.375,-7.125 -11.375,-13.500002 0,-10 3.75,-13.75 3.75,-13.75 0,0 -0.5,12.25 7.375,12.25 10.375,0 11.875,-20.75 11.875,-20.75 0,0 3,11.625 9.75,11.625 9,0 9.375,-19.375 9.375,-19.375 z"
   id="path16" />








<path
   style="fill:#eb2127;fill-opacity:1;stroke-width:0.304326"
   d="m 110.55546,65.055026 c -0.67661,-0.144196 -1.68685,-0.448506 -2.24497,-0.676245 l -1.01478,-0.414072 4.22309,-2.572148 c 5.60337,-3.412838 9.4542,-6.352526 12.55734,-9.58617 l 2.55208,-2.659398 -1.03045,-0.784255 c -4.53598,-3.452267 -5.55999,-6.965328 -3.63901,-12.484354 1.55914,-4.479427 4.91644,-9.271763 7.44736,-10.630638 1.28239,-0.688527 4.57643,-0.679846 5.87296,0.01548 3.98624,2.137821 4.55699,9.660566 1.31495,17.331552 l -0.93463,2.211444 1.15245,1.06514 c 0.63385,0.585827 1.68346,1.522673 2.33247,2.081881 l 1.18002,1.01674 -0.48803,2.483003 c -0.26842,1.36565 -0.67901,3.030789 -0.91243,3.700306 -0.35646,1.022409 -0.54058,1.200044 -1.15001,1.109507 -1.12944,-0.16779 -2.98889,-1.203523 -5.03948,-2.807036 l -1.87569,-1.466743 -2.86044,3.408088 c -5.39556,6.428559 -10.00391,9.628854 -14.14505,9.823114 -1.13716,0.05334 -2.62114,-0.021 -3.29775,-0.165185 z m 21.74633,-26.078039 c 0.52683,-1.908046 -0.45104,-4.271491 -2.12561,-5.137445 -1.12162,-0.580015 -2.99838,-0.475862 -3.41486,0.189513 -0.78722,1.257697 0.59954,3.817513 3.26032,6.018208 1.13555,0.939197 1.23887,0.968757 1.61036,0.46072 0.21832,-0.298576 0.51973,-0.987525 0.66979,-1.530996 z"
   id="path3358"
   inkscape:connector-curvature="0"
   sodipodi:nodetypes="sscsscssssscsscsssscssssssssss" /><path
   style="font-size:107.001px;line-height:125%;font-family:'Geeza Pro';fill:#f58020;fill-opacity:1;fill-rule:evenodd;stroke-width:2;stroke-miterlimit:10"
   d="m 124.18944,198.65403 c -7e-5,15.53468 -3.69216,29.08396 -11.07628,40.64786 -8.5685,13.37511 -20.202062,20.06268 -34.900728,20.0627 -10.588666,-2e-5 -18.982944,-2.47303 -25.182862,-7.41902 -2.716828,-2.2292 -5.259492,-5.22467 -7.628004,-8.98642 -2.438172,-3.69209 -4.667358,-8.15046 -6.687566,-13.37513 1.671898,3.41345 6.583074,7.1752 14.733542,11.28527 7.662822,3.90107 13.68859,5.85161 18.077326,5.85162 4.597672,-1e-5 9.125706,-0.80112 13.584116,-2.40335 4.458334,-1.60223 8.568396,-3.79659 12.330198,-6.58307 3.761698,-2.78648 7.000988,-6.09543 9.717868,-9.92685 2.78642,-3.83141 4.77179,-7.94147 5.95611,-12.3302 -0.41803,0.0697 -0.83601,0.13934 -1.25391,0.20898 -0.41804,3e-5 -0.83601,3e-5 -1.25392,0 -3.62249,3e-5 -7.07077,-0.66176 -10.34483,-1.98537 -3.27417,-1.32355 -6.165146,-3.13476 -8.672936,-5.43364 -2.50788,-2.29882 -4.493248,-4.98081 -5.956114,-8.04598 -1.462942,-3.06509 -2.194394,-6.30438 -2.194356,-9.71787 -3.8e-5,-5.43359 2.472966,-11.87733 7.419016,-19.33124 5.363936,-7.87175 10.58859,-11.80766 15.67398,-11.80773 1.46285,7e-5 3.06507,0.62703 4.80669,1.88087 8.56837,5.92135 12.85259,18.39086 12.85266,37.40857 m -9.29989,-2.71682 c -7e-5,-1.88084 -0.34838,-3.79654 -1.04493,-5.74713 -0.62703,-1.95049 -1.4978,-3.69204 -2.61233,-5.22466 -1.11466,-1.53251 -2.43824,-2.78643 -3.97075,-3.76176 -1.53262,-0.97521 -3.16968,-1.46284 -4.91118,-1.4629 -0.97532,6e-5 -1.95059,0.31354 -2.925806,0.94044 -0.90566,0.55735 -1.741604,1.32364 -2.507838,2.29885 -0.766332,0.90566 -1.39329,1.91576 -1.880876,3.0303 -0.418022,1.11465 -0.627008,2.19441 -0.62696,3.23929 -4.8e-5,1.11464 0.55725,2.22924 1.671892,3.34378 1.184206,1.04498 2.647108,1.98542 4.388718,2.82132 1.74149,0.76633 3.6572,1.39328 5.74712,1.88088 2.08981,0.48767 4.07517,0.73149 5.95612,0.73145 1.81114,4e-5 2.71675,-0.69658 2.71682,-2.08986"
   id="text2518" /><g
   transform="matrix(0.16752487,0,0,0.16752487,-19.703523,103.51478)"
   id="layer1"
   style="fill:#007ec6;fill-opacity:1"><path
     d="m 484.04909,534.33746 c -1.6e-4,36.43813 -6.11659,64.02691 -18.3491,82.76635 -18.47948,28.62993 -52.18463,42.94484 -101.11552,42.94478 -18.9999,6e-5 -34.74629,-3.77389 -47.23927,-11.32179 -14.31497,-8.84918 -21.47248,-21.08192 -21.47242,-36.69827 -6e-5,-17.95865 4.68483,-39.04062 14.05466,-63.24601 8.32864,-20.56126 16.65733,-40.9926 24.98607,-61.29394 l -5.85612,-1.56163 23.81483,-65.97883 c 46.58853,24.46575 74.6978,40.21219 84.32799,47.23927 31.23242,21.86304 46.84872,44.24634 46.84888,67.15007 z m -33.9654,30.45174 c -2.2e-4,-13.79425 -27.4588,-33.83513 -82.37596,-60.1227 -21.34238,23.16431 -32.01348,40.73262 -32.01343,52.705 -5e-5,28.10944 13.66422,42.16405 40.99281,42.164 14.0545,5e-5 29.80095,-4.09922 47.23928,-12.29787 17.438,-8.19843 26.15708,-15.6812 26.1573,-22.44843 z"
     style="font-style:normal;font-variant:normal;font-weight:normal;font-stretch:normal;font-size:144px;line-height:125%;font-family:'Simplified Arabic';text-align:start;writing-mode:lr-tb;text-anchor:start;fill:#007ec6;fill-opacity:1;stroke:none;stroke-width:1px;stroke-linecap:butt;stroke-linejoin:miter;stroke-opacity:1"
     id="text1903" /></g><text
   xml:space="preserve"
   style="font-style:normal;font-weight:normal;font-size:40px;line-height:1.25;font-family:sans-serif;fill:#000000;fill-opacity:1;stroke:none"
   x="228.50041"
   y="155.45776"
   id="text25655"><tspan
     sodipodi:role="line"
     id="tspan25653"
     x="228.50041"
     y="155.45776">1</tspan></text><text
   xml:space="preserve"
   style="font-style:normal;font-weight:normal;font-size:40px;line-height:1.25;font-family:sans-serif;fill:#000000;fill-opacity:1;stroke:none"
   x="185.71439"
   y="45.387241"
   id="text28815"><tspan
     sodipodi:role="line"
     id="tspan28813"
     x="185.71439"
     y="45.387241">2</tspan></text><text
   xml:space="preserve"
   style="font-size:33.3333px;line-height:1.25;font-family:sans-serif"
   x="191.92526"
   y="218.60167"
   id="text33373"><tspan
     sodipodi:role="line"
     id="tspan33371"
     x="191.92526"
     y="218.60167">3</tspan></text><text
   xml:space="preserve"
   style="font-size:33.3333px;line-height:1.25;font-family:sans-serif"
   x="137.75264"
   y="244.48033"
   id="text47897"><tspan
     sodipodi:role="line"
     id="tspan47895"
     x="137.75264"
     y="244.48033">4</tspan></text><text
   xml:space="preserve"
   style="font-size:33.3333px;line-height:1.25;font-family:sans-serif"
   x="83.23494"
   y="100.94008"
   id="text50387"><tspan
     sodipodi:role="line"
     id="tspan50385"
     x="83.23494"
     y="100.94008">5</tspan></text><text
   xml:space="preserve"
   style="font-size:33.3333px;line-height:1.25;font-family:sans-serif"
   x="91.516106"
   y="34.690731"
   id="text52503"><tspan
     sodipodi:role="line"
     id="tspan52501"
     x="91.516106"
     y="34.690731">6</tspan></text><text
   xml:space="preserve"
   style="font-size:33.3333px;line-height:1.25;font-family:sans-serif"
   x="73.573578"
   y="289.33664"
   id="text56473"><tspan
     sodipodi:role="line"
     id="tspan56471"
     x="73.573578"
     y="289.33664">7</tspan></text><text
   xml:space="preserve"
   style="font-size:33.3333px;line-height:1.25;font-family:sans-serif"
   x="8.0143251"
   y="192.37798"
   id="text57247"><tspan
     sodipodi:role="line"
     id="tspan57245"
     x="8.0143251"
     y="192.37798">8</tspan></text></svg>
