<?xml version="1.0" encoding="UTF-8" standalone="no"?>
<svg
   version="1.0"
   width="300.000000pt"
   height="307.000000pt"
   viewBox="0 0 300.000000 307.000000"
   preserveAspectRatio="xMidYMid meet"
   id="svg14"
   sodipodi:docname="0zpIUK01.svg"
   inkscape:version="1.3 (0e150ed6c4, 2023-07-21)"
   xmlns:inkscape="http://www.inkscape.org/namespaces/inkscape"
   xmlns:sodipodi="http://sodipodi.sourceforge.net/DTD/sodipodi-0.dtd"
   xmlns="http://www.w3.org/2000/svg"
   xmlns:svg="http://www.w3.org/2000/svg">
  <defs
     id="defs14" />
  <sodipodi:namedview
     id="namedview14"
     pagecolor="#ffffff"
     bordercolor="#000000"
     borderopacity="0.25"
     inkscape:showpageshadow="2"
     inkscape:pageopacity="0.0"
     inkscape:pagecheckerboard="0"
     inkscape:deskcolor="#d1d1d1"
     inkscape:document-units="pt"
     inkscape:zoom="1.4328176"
     inkscape:cx="172.73657"
     inkscape:cy="74.329071"
     inkscape:window-width="2560"
     inkscape:window-height="1369"
     inkscape:window-x="1592"
     inkscape:window-y="-8"
     inkscape:window-maximized="1"
     inkscape:current-layer="svg14" />
  <metadata
     id="metadata1">&#10;Created by potrace 1.10, written by Peter Selinger 2001-2011&#10;</metadata>
  <path
     d="m 264.7,26.8 c -2.9,4.2 -6.5,6.4 -10.5,6.4 -52,-0.4 -60.5,-0.3 -61.2,0.8 -0.8,1.3 -27.3,1.9 -41,0.9 -5.3,-0.4 -11.3,-0.8 -13.5,-1 -2.2,-0.1 -5.2,-0.8 -6.6,-1.5 -1.5,-0.7 -6.2,-1.6 -10.5,-1.9 -4.4,-0.3 -8.9,-0.8 -10.1,-1.1 -1.7,-0.3 -2.3,0 -2.3,1.2 0,0.9 -4.4,8.2 -9.8,16.1 C 93.9,54.6 88.8,62.3 88,63.8 84.2,70.6 76.2,83 72.4,88 c -4.9,6.5 -12.8,14 -14.7,14 -1.5,0 -1.8,1.7 -3.8,20.5 -1.3,11.8 -1.7,19.2 -2.4,42 -0.3,10.4 -1,21.7 -1.5,25 -0.5,3.3 -1.2,13.2 -1.5,22 -0.3,8.8 -0.8,20.7 -1.1,26.5 -0.2,5.8 -0.6,17.3 -0.8,25.7 -0.5,17.3 -0.2,18 6.1,16.6 4.1,-0.9 41.1,-0.7 50.8,0.3 3.3,0.3 8.7,0.8 12,1 3.3,0.3 8,0.7 10.5,0.9 31.6,2.8 46.7,3.3 63.9,2.2 7.5,-0.5 9.8,-1 11.5,-2.6 1.2,-1.2 2.6,-2.1 3,-2.1 1.1,0 11.2,-10.3 18.5,-18.7 5.2,-6.2 9.3,-9.5 12.8,-10.6 0.4,-0.1 0.7,-0.8 0.5,-1.5 -0.7,-2.8 20.2,-24.5 31.3,-32.6 5.5,-4 5.7,-4.4 5,-10.6 -0.4,-3 -0.8,-16.5 -1.1,-30 -0.2,-13.5 -0.7,-26.8 -1,-29.5 -0.3,-2.8 -0.7,-13.6 -0.9,-24 -1.3,-68.7 -1.6,-78 -3.2,-82.4 -1.5,-4.2 -1.5,-4.5 0.2,-5.8 1.1,-0.7 2.5,-1.3 3.2,-1.3 1.7,0 1.6,-1.2 -0.1,-5.5 -1.8,-4.2 -2.5,-4.3 -4.9,-0.7 z M 125.5,37 c 1.1,0.4 7.4,1.1 14,1.4 6.6,0.4 15.8,1.1 20.5,1.5 8.1,0.8 21.7,0.7 41.5,-0.4 13.8,-0.7 40.6,-0.5 44.5,0.3 2.2,0.5 3.5,1.4 3.5,2.3 0,0.9 -4.1,6.3 -9.2,12 -5,5.7 -13.2,15.1 -18.1,20.9 -12.8,15 -23.7,25.8 -26.7,26.6 -1.4,0.3 -4.7,0.4 -7.4,0 -2.6,-0.3 -12.3,-0.6 -21.7,-0.5 -17.9,0.2 -20.2,0.3 -38.4,1.3 -6.3,0.3 -19.2,0.8 -28.6,1.1 -9.5,0.2 -17.6,0.5 -18,0.6 -0.5,0.1 -1.3,0 -1.9,-0.1 -0.5,-0.1 -1.4,-0.3 -2,-0.5 -0.5,-0.1 -2.6,-0.3 -4.7,-0.3 -3.2,-0.2 -3.6,-0.4 -3.1,-2.5 0.3,-1.2 1.6,-3.3 2.8,-4.7 2.8,-3.1 9.5,-12.8 9.5,-13.7 0,-0.3 0.6,-1.4 1.4,-2.2 0.8,-0.9 2.6,-3.9 4.1,-6.6 4.4,-8.1 19.7,-30.6 23.3,-34.2 2.9,-3 3.9,-3.4 8,-3.2 2.6,0.1 5.6,0.5 6.7,0.9 z m 136.6,3 c 0.7,2.2 1,4.2 0.8,4.5 -0.3,0.2 -2.4,-0.1 -4.7,-0.7 -3.9,-1 -7.2,-4.1 -5.8,-5.5 0.4,-0.4 5.4,-1.9 7.8,-2.2 0.4,-0.1 1.3,1.7 1.9,3.9 z m -1.9,8.8 c 1.7,0.7 2.8,2.1 3.2,3.9 0.9,4.4 2.1,50.3 3,112.8 0.2,12.1 0.5,26.9 0.6,32.8 l 0.2,10.8 -5.8,5.2 c -6.8,6.1 -18.6,18.3 -23.9,24.7 -4,4.9 -10.6,11 -11.7,11 -0.4,0 -2.6,2.6 -5,5.7 -2.3,3.2 -7,8.6 -10.5,12.1 -6.3,6.5 -9.3,7.6 -9.9,3.7 -0.5,-2.8 -1.2,-21.2 -1.9,-51.5 -0.4,-14 -0.7,-26 -0.7,-26.5 0,-0.6 0.3,-3.7 0.8,-7 0.4,-3.3 0.7,-7.1 0.6,-8.5 -0.1,-2.4 -0.4,-68.7 -0.3,-70.3 0.1,-0.4 0.7,-0.7 1.4,-0.7 0.7,0 1.9,-1.1 2.7,-2.4 1.3,-2.1 10,-12 19,-21.6 1.4,-1.5 3.7,-4.2 5.2,-6.1 6.9,-8.9 21.2,-24.8 23.5,-26.2 0.7,-0.4 1.3,-1.5 1.3,-2.3 0,-1.7 3.3,-1.5 8.2,0.4 z m -79.8,58.8 c 6.9,0.3 12.6,0.9 12.7,1.3 0.4,2.2 0.5,65.8 0.2,66.4 -0.3,0.4 -0.4,17.2 -0.3,37.2 0,24.7 -0.3,36.5 -1,36.5 -1.2,0 -0.9,2.2 0.5,3.2 0.5,0.4 1.3,5.8 1.7,12 0.5,9.3 0.4,11.5 -0.8,12.4 -3.1,2.5 -26.5,2.8 -48.4,0.8 -2.5,-0.2 -7.6,-0.6 -11.5,-0.9 -3.8,-0.3 -10.6,-1.1 -15,-1.6 -8.4,-1.1 -41.5,-2.3 -57.3,-2.1 L 52,273 51.9,270.2 c -0.2,-4.6 -0.1,-8.3 0.5,-18.2 0.3,-5.2 0.8,-15.6 1.1,-23 0.5,-14.6 1.2,-28.1 2.1,-40 0.3,-4.1 0.7,-17.2 0.8,-29 0.2,-11.8 0.6,-23.3 0.9,-25.5 0.3,-2.2 0.8,-8.1 1.2,-13 1,-13.3 0.4,-12.9 18.7,-11.9 8.4,0.5 18.9,0.6 23.3,0.2 4.4,-0.4 13.9,-0.9 21,-1.2 23,-0.8 43,-1.8 43.4,-2.2 0.3,-0.3 1,-0.3 1.7,0 0.6,0.2 6.8,0.8 13.8,1.2 z"
     id="path1"
     style="fill:#000000;stroke:none;stroke-width:0.1" />
  <path
     d="m 144.2,43.6 c -1.2,0.8 -2.2,2.5 -2.2,3.7 0,1.2 -2.1,8.5 -4.6,16.1 -4.5,14 -8.3,20.9 -13.7,25.5 -3.4,2.9 -3.5,7.4 -0.1,7.9 1.5,0.2 3.4,-1.3 6.8,-5.2 2.6,-3.1 4.9,-6.5 5.1,-7.6 0.2,-1.1 1.2,-3.3 2.3,-4.8 1,-1.5 2.6,-5.6 3.6,-9.2 4,-14.4 4.9,-14.9 9.5,-5.5 1.8,3.6 3.6,6.5 4.1,6.5 0.5,0 1.1,0.9 1.5,1.9 0.7,2.3 12.8,15 16.7,17.5 2.6,1.7 2.7,1.7 3.8,-0.3 1.4,-2.7 0.7,-3.8 -5.8,-9.6 -5.6,-5 -12.8,-14 -15.2,-19 -0.8,-1.7 -2.4,-4.6 -3.6,-6.5 -1.1,-1.9 -2.7,-5.3 -3.4,-7.5 -1.7,-5.3 -2.2,-5.8 -4.8,-3.9 z"
     id="path2"
     style="fill:#000000;stroke:none;stroke-width:0.1" />
  <path
     d="m 229.3,138.4 c -4.3,4.3 -8.3,10.9 -8.3,13.7 0,3.2 -2.4,4.1 -7.3,2.7 -4.8,-1.2 -7.7,-0.2 -7.7,2.8 0,1.6 5,4.4 8,4.4 1.1,0 2,0.2 2,0.5 0,1.6 -3.1,11.6 -4.5,14.2 -0.9,1.8 -1.4,3.7 -1.1,4.2 0.3,0.4 -0.3,1.6 -1.4,2.6 -2.5,2.2 -2.6,5.1 -0.2,6 1.7,0.7 19.4,0.7 26.7,0 2.2,-0.2 8.2,-0.7 13.3,-1.1 5,-0.4 9.6,-1.2 10.1,-1.8 0.4,-0.6 1.1,-2.7 1.5,-4.7 0.5,-3.1 0.3,-3.9 -1.7,-5.2 -2.5,-1.6 -7.7,-9.6 -7.7,-11.7 0,-0.7 1.6,-1.1 4.3,-1 6.2,0.3 6.4,0.2 7,-2.2 1.1,-4 -1.8,-5.8 -9.5,-5.8 H 246 l -2.9,-6.3 c -1.6,-3.4 -3.7,-8.1 -4.6,-10.4 -2.4,-5.7 -4.3,-5.9 -9.2,-0.9 z m 8.3,11.2 c 1.3,3 2.2,6 1.9,6.5 -0.4,0.5 -3.3,0.9 -6.6,0.9 -6.4,0 -6.9,-0.6 -4.7,-5.7 2.1,-4.8 4,-7.3 5.5,-7.3 0.8,0 2.5,2.5 3.9,5.6 z m 5.6,13.5 c 2.1,1.2 6.8,11 6.8,14.4 0,2.8 -2.8,5.3 -6.6,6 -6.9,1.2 -26.4,1.2 -27.3,0.1 -1.3,-1.5 3.4,-18.7 5.6,-20.3 1.8,-1.4 18.9,-1.6 21.5,-0.2 z"
     id="path3"
     style="fill:#000000;stroke:none;stroke-width:0.1" />
  <path
     d="m 129.4,162.1 c -1.4,2.3 -3.7,6.3 -5.1,8.8 -3.3,6.3 -3.7,6.5 -6.7,4.6 -2.9,-1.9 -4.9,-1.2 -2.4,0.8 3.1,2.5 3.1,6.3 -0.2,10 -1.7,1.9 -3,4.6 -3,6 0,1.4 -0.5,2.9 -1,3.2 -1.4,0.9 -7.6,10.7 -8.5,13.4 -0.3,1.2 -1.8,3.3 -3.2,4.7 -2.2,2.2 -2.4,2.8 -1.2,4 1.1,1.1 2.2,1.2 4.9,0.4 4.9,-1.4 23.3,-1.3 26.5,0.2 2.3,1 2.8,1 3.6,-0.5 0.9,-1.5 2.8,-1.7 14.9,-1.7 h 14 v -2.6 c 0,-1.4 -2.5,-6.9 -5.6,-12.2 -3,-5.3 -5.8,-11.1 -6.1,-12.7 -0.3,-1.7 -1.3,-4.1 -2.1,-5.5 -0.9,-1.4 -1.6,-3.2 -1.7,-4 -0.1,-0.9 -2.4,-4.4 -5.2,-7.8 -2.8,-3.4 -5.4,-7.7 -5.9,-9.4 -1.3,-4.6 -2.9,-4.5 -6,0.3 z m 8.2,9.5 c 1.1,2.3 3.1,5.4 4.2,6.9 4.1,5.2 3.7,5.6 -9.7,7.5 -6.1,0.9 -7.7,0.8 -8.9,-0.3 -1.1,-1.2 -1.1,-1.9 0.1,-4.8 0.8,-1.9 2.1,-4 3,-4.8 1,-0.7 1.7,-1.8 1.7,-2.3 0,-2.1 4.3,-6.9 5.9,-6.6 0.9,0.2 2.5,2.2 3.7,4.4 z m -0.2,27.7 c -2,4.3 -4,7.7 -4.5,7.7 -2,0 -8.4,-12.2 -7.5,-14.5 0.2,-0.7 3.2,-1.7 6.8,-2.2 9.3,-1.4 9.8,-0.5 5.2,9 z m -17.1,-6.6 c -1,0.3 -0.9,0.8 0.2,2 0.8,0.8 1.7,2.6 2,4.1 0.3,1.5 1.5,4.5 2.5,6.7 2.3,4.7 2.4,5.1 0.8,5.4 -4.5,0.9 -18.2,1.1 -19,0.3 -0.8,-0.8 2.3,-7.6 4.2,-9.2 0.3,-0.3 1.6,-2.2 2.9,-4.3 1.2,-2 2.7,-3.7 3.2,-3.7 0.6,0 0.7,-0.5 0.4,-1 -0.3,-0.6 0.4,-1 1.7,-0.9 1.3,0 1.7,0.3 1.1,0.6 z M 149,197 c 0,1 0.4,2.1 0.9,2.4 0.5,0.3 1.2,1.8 1.6,3.3 0.3,1.6 1.4,3.6 2.3,4.6 1.1,1.3 1.3,2 0.5,2.5 -1.3,0.8 -16.1,0.8 -16.9,0 -0.3,-0.3 0.5,-1.7 1.8,-3.1 1.3,-1.4 3.2,-4.2 4.3,-6.4 3.3,-6.3 5.5,-7.7 5.5,-3.3 z m -15.1,13.9 c 1.1,0.7 0.9,1.1 -0.8,2 -2.5,1.4 -4.3,0.7 -3.4,-1.4 0.6,-1.7 2.1,-1.9 4.2,-0.6 z"
     id="path4"
     style="fill:#000000;stroke:none;stroke-width:0.1" />
  <rect
     style="fill:#000000;stroke:#000000;stroke-width:1.41732"
     id="rect14"
     width="6.6411972"
     height="5.5615945"
     x="128.08023"
     y="208.98509" />
  <rect
     style="fill:#000000;stroke:#000000;stroke-width:1.41732"
     id="rect15"
     width="11.497191"
     height="8.1197472"
     x="251.50397"
     y="36.64296" />
</svg>
