<?xml version="1.0" encoding="utf-8" ?>
    <svg version="1.1"
        baseProfile="full"
        xmlns="http://www.w3.org/2000/svg"
        xmlns:xlink="http://www.w3.org/1999/xlink" 
         xmlns:rdf="http://www.w3.org/1999/02/22-rdf-syntax-ns#"
         xmlns:cc="http://creativecommons.org/ns#"
         xmlns:dc="http://purl.org/dc/elements/1.1/" 
        preserveAspectRatio="xMidYMid meet" height="1200" width="1000" viewBox="0,0,1030,1230 ">
<metadata>
<rdf:RDF>
      <cc:Work
         rdf:about="">
        <dc:format>image/svg+xml</dc:format>
        <dc:type
           rdf:resource="http://purl.org/dc/dcmitype/StillImage" />
        <dc:rights>
          <cc:Agent>
            <dc:title>This work is licensed under a &lt;a rel=&quot;license&quot; href=&quot;http://creativecommons.org/licenses/by-nc-sa/4.0/&quot;&gt;Creative Commons Attribution-NonCommercial-ShareAlike 4.0 International License&lt;/a&gt;.</dc:title>
          </cc:Agent>
        </dc:rights>
         <dc:creator>
           <cc:Agent>
              <dc:title>skull/human - https://commons.wikimedia.org/wiki/User:Poeticbent
heater shape - https://commons.wikimedia.org/wiki/User:MG
</dc:title>
           </cc:Agent>
        </dc:creator>
      </cc:Work>
      </rdf:RDF>
</metadata>
<defs>
      <filter id="shiny" x="0" y="0" width="150%" height="150%">
      <feGaussianBlur in = "SourceAlpha" stdDeviation = "4" result = "blur1"/>
        <feSpecularLighting result = "specOut" in = "blur1" specularExponent = "20" lighting-color = "#696969">
            <fePointLight x = "300" y = "300" z = "500"/>
        </feSpecularLighting>
        <feComposite result="highlight" in = "SourceGraphic" in2 = "specOut" operator = "arithmetic" k1 = "0" k2 = "1" k3 = "1" k4 = "0"/>
      <feOffset result="offOut" in="SourceGraphic" dx="14" dy="14" />
      <feColorMatrix result = "matrixOut" in = "offOut" type = "matrix" values = "0.2 0 0 0 0 0 0.2 0 0 0 0 0 0.2 0 0 0 0 0 1 0"/>
      <feGaussianBlur result="blurOut" in="matrixOut" stdDeviation="10" />
      <feBlend in="highlight" in2="blurOut" mode="normal"/>
    </filter></defs><g  filter="url(#shiny)" ><g mask="url(#mask8-1)"><g><g  fill="#ffffff"><rect x='0' y='0' width='1000' height='1200'><title>Field</title></rect></g><g transform='translate(0,0)'><g><title>plain-cross</title><g  fill="#fcdd07"><path fill-rule="evenodd" d="M-100,400h500 v-500.000  h200 v500  h500 v200   h-500.000   v700   h-200.000   v-700.000   h-500.000   v-200.000  z" /></g></g></g><g  fill="#000000"><g class="PlaceCharge" transform=" translate(373.9251298235,433.3) scale(0.73550638289225, 0.73550638289225) " >
<title>a skull</title><path d="M 44.51,223.11 C 25.37,204.51 12,172.22 10.14,137.36 8.13,98.94 28.36,60.79 58.68,39.041 92.65,15.132 149.44,8.5191 184.76,10.304 c 23.92,0.02 77.21,12.42 96.01,26.427 33,23.99 50.69,58.04 51.92,96.849 1.81,38.98 -14.61,68.68 -34.71,87.21"  stroke="#696969" stroke-width="10" />
<path d="m 46.41,216.55 c 0,0 -22.51,70.03 21.44,81.97 l 16.25,93.66 c 14.68,69.4 154.4,73.77 174.6,0 l 16.25,-93.66 c 45.7,-12.2 22.5,-82 22.5,-82 z"  stroke-width="0.2" />
<g  fill="#696969" stroke="none"   fill-opacity="0.999" ><path d="m 171.8371,247.26229 c -11.19223,7.373 -13.68208,9.849 -19.86689,18.008 -2.23822,3.149 -6.41799,10.508 -7.56076,15.445 -1.14161,4.936 -1.99696,12.098 -1.9935,15.891 0.0138,12.853 4.73615,20.916 9.89362,20.635 4.60803,-0.458 10.47194,-4.621 19.35785,-14.076"  stroke-width="1.07438993pt"  fill-opacity="0.999" />
<path d="m 170.07876,247.47039 c 11.52472,7.373 14.08855,9.849 20.4571,18.008 2.3047,3.149 6.60865,10.508 7.78536,15.445 1.17553,4.936 2.0563,12.098 2.05273,15.891 -0.0142,12.853 -4.87685,20.916 -10.18754,20.635 -4.74491,-0.458 -10.78304,-4.621 -19.93291,-14.076"  stroke-width="1.09023204pt"  fill-opacity="0.999" />
<path d="m 85.485666,191.11226 c 13.46,-2.359 26.503004,-3.885 39.963004,-5.411 17.623,-4.441 26.504,15.68 21.647,30.805 -6.105,13.46 -14.708,25.255 -24.56,36.633 -7.632,8.603 -16.724,9.995 -25.394004,7.076 -6.998,-1.94 -13.461,-6.243 -20.399,-16.234 -3.052,-8.604 -5.688,-13.045 -9.574,-23.729 -3.052,-9.852 1.695,-24.6 18.317,-29.14 z"  stroke-width="1.00000003pt"  fill-opacity="0.999" />
<path d="m 257.56775,191.11226 c -13.46,-2.359 -26.503,-3.885 -39.963,-5.411 -17.623,-4.441 -26.504,15.68 -21.647,30.805 6.105,13.46 14.708,25.255 24.56,36.633 7.632,8.603 16.724,9.995 25.394,7.076 6.998,-1.94 13.461,-6.243 20.399,-16.234 3.052,-8.604 5.688,-13.045 9.574,-23.729 3.052,-9.852 -1.695,-24.6 -18.317,-29.14 z"  stroke-width="1.00000003pt"  fill-opacity="0.999" />
<path d="m 85.240946,306.08129 c 5.69,13.344 7.45,18.415 11.553,31.718 3.496004,12.289 4.781004,19.794 6.941004,37.258"  stroke="#696969" stroke-width="7.05000019"  fill-opacity="0.999" />
<path d="m 257.09525,305.3454 c -5.69,13.344 -7.45,18.415 -11.553,31.718 -3.496,12.289 -4.781,19.794 -6.941,37.258"  stroke="#696969" stroke-width="7.05000019"  fill-opacity="0.999" />
<path d="m 109.52495,337.28329 c 14.718,9.027 40.161,10.419 62.956,10.009 25.394,-0.129 47.133,-1.963 61.409,-10.597"  stroke="#696969" stroke-width="5"  fill-opacity="0.999" />
<path d="m 114.67595,360.83329 c 16.238,10.204 35.334,13.708 57.326,12.878 22.842,-0.556 40.351,-2.478 56.001,-13.172"  stroke="#696969" stroke-width="5"  fill-opacity="0.999" />
<path d="m 114.45295,341.80729 -0.416,41.212"  stroke="#696969" stroke-width="7"  fill-opacity="0.999" />
<path d="m 127.98195,346.17829 -0.208,44.126"  stroke="#696969" stroke-width="7"  fill-opacity="0.999" />
<path d="m 142.96795,348.05129 -0.416,46.208"  stroke="#696969" stroke-width="7"  fill-opacity="0.999" />
<path d="m 156.49795,349.09229 -0.209,46.832"  stroke="#696969" stroke-width="7"  fill-opacity="0.999" />
<path d="m 171.69195,349.50829 v 46.832"  stroke="#696969" stroke-width="7"  fill-opacity="0.999" />
<path d="m 186.26195,349.30029 0.208,46.832"  stroke="#696969" stroke-width="7"  fill-opacity="0.999" />
<path d="m 199.37469,348.05126 0.416,46"  stroke="#696969" stroke-width="7"  fill-opacity="0.999" />
<path d="m 214.56895,345.55429 0.208,44.126"  stroke="#696969" stroke-width="7"  fill-opacity="0.999" />
<path d="m 228.30595,340.14229 0.417,41.628"  stroke="#696969" stroke-width="7"  fill-opacity="0.999" />
<path d="m 232.47184,358.24717 v -17.59953 l 1.83483,-0.83601 c 1.537,-0.7003 1.90049,-1.56002 2.23928,-5.29631 0.55716,-6.14441 2.85929,-10.9048 7.53452,-15.58004 2.18094,-2.18094 4.0901,-3.8406 4.24257,-3.68813 0.15247,0.15247 -1.10781,4.2828 -2.80061,9.17851 -4.51937,13.07037 -6.71322,22.07032 -8.86846,36.38155 -1.18978,7.90039 -2.35429,13.20489 -3.05282,13.90601 -0.98981,0.99347 -1.12931,-1.04052 -1.12931,-16.46605 z"  stroke-width="14"  fill-opacity="0.999" />
<path d="m 109.77936,383.25384 c -1.39425,-1.23585 -3.18886,-7.27329 -5.04231,-16.96336 -3.66679,-19.17057 -12.150634,-43.46663 -20.963304,-60.03476 -3.67412,-6.90749 15.52129,7.27302 20.071144,14.82745 1.80152,2.99118 3.67172,8.01893 4.156,11.17282 0.58025,3.77872 1.74284,6.26223 3.40905,7.28233 2.39349,1.46534 2.47529,2.72543 1.53131,23.59115 -0.92425,20.4304 -1.15558,21.90274 -3.16189,20.12437 z"  stroke-width="14"  fill-opacity="0.999" />
<path d="m 229.79205,362.98048 c -2.98066,-21.10977 -2.9237,-22.98517 0.76557,-25.19674 2.44197,-1.46388 4.9763,-5.87877 6.54281,-11.39774 1.90046,-6.69569 4.43067,-10.616 9.85566,-15.27047 6.75661,-5.79691 13.17367,-10.02895 14.52106,-9.57651 0.31053,0.10426 -2.61996,7.10836 -6.51217,15.56465 -8.79915,19.1169 -10.73584,25.02291 -15.25992,46.53539 -1.98484,9.43799 -4.30264,18.28247 -5.15069,19.65439 -0.89545,1.44855 -2.89216,-7.06818 -4.76232,-20.31297 z"  stroke-width="14"  fill-opacity="0.999" />
</g>
<rect width="483.3" height="197.65" x="-77.296" y="-75.309"  transform="matrix(0.99679,-0.08009,0.07154,0.99744,0,0)"  fill="none" stroke-width="10.0001" />
<path d="m 45.670946,113.81829 c -7.752,6.782 -6.774,16.977 -5.378,32.192 1.102,11.56 8.478,22.939 8.866,33.5 2.712,22.285 -3.876,44.57 -6.977,62.786 -2.132,20.928 3.877,38.95 11.628,45.926 7.751,6.88 17.756,9.729 28.268,12.936 9.551,2.498 14.504,6.842 21.728004,12.228 8.606,9.137 10.659,16.694 10.465,25.996"  fill="none" stroke="#696969" stroke-width="10" />
<path d="m 298.06975,113.2369 c 7.752,6.782 6.774,16.977 5.378,32.192 -1.102,11.56 -8.478,22.939 -8.866,33.5 -2.712,22.285 3.876,44.57 6.977,62.786 2.132,20.928 -3.877,38.95 -11.628,45.926 -7.751,6.88 -21.937,10.575 -28.268,12.936 -7.377,2.581 -14.92,7.258 -21.728,12.644 -8.19,7.888 -10.659,16.278 -10.465,25.58"  fill="none" stroke="#696969" stroke-width="10" />
<path d="m 67.83,298.51 c 6.938,16.79 10.584,33.16 14.986,50.37 -3.191,13.88 -2.22,30.25 1.249,43.29 4.441,17.9 21.785,39.13 39.135,46.21 17.76,6.45 28.86,8.12 48.7,8.12"  fill="none" stroke="#696969" stroke-width="10" />
<path d="m 274.93,298.51 c -6.56,16.79 -7.35,33.16 -14.98,50.37 3.19,13.88 2.22,30.25 -1.25,43.29 -4.44,17.9 -22,38.51 -39.34,45.59 -17.35,7.07 -28.45,8.74 -48.29,8.74"  fill="none" stroke="#696969" stroke-width="10" />
<path d="m 114.17642,360.72981 c 36.0101,15.36312 73.65695,17.63224 113.79147,0"  fill="none" stroke="#696969" stroke-width="13" />
<path d="m 102.90195,373.19529 c 17.367,20.948 41.608,24.585 69.173,25.315 29.519,1.077 59.166,-10.645 66.819,-25.314"  fill="none" stroke="#696969" stroke-width="6.25" />
</g>
</g></g></g><defs><mask id="mask8-1" >
<path fill="#FFFFFF" d="m 0,0 v 800 c -2.5063876,43.11115 1.2341419,84.33503 21.489586,125.13639 20.255443,40.80137 53.477613,79.98631 98.039434,115.63581 44.56181,35.6494 100.44867,67.7517 164.92346,94.7345 64.47479,26.9828 137.51639,48.8374 215.54752,64.4933 78.03113,-15.6559 151.07273,-37.5105 215.54752,-64.4933 64.47479,-26.9828 120.36165,-59.0851 164.92346,-94.7345 44.56182,-35.6495 77.78399,-74.83444 98.03943,-115.63581 C 998.76586,884.33503 1000.1453,841.93063 1000,800 V 0 Z" />
</mask>
</defs></g></svg>
