<?xml version="1.0" encoding="UTF-8" standalone="no"?>
<svg
   version="1.1"
   width="100px"
   height="100px"
   style="shape-rendering:geometricPrecision; text-rendering:geometricPrecision; image-rendering:optimizeQuality; fill-rule:evenodd; clip-rule:evenodd"
   id="svg62"
   sodipodi:docname="edge.svg"
   inkscape:version="1.1.2 (b8e25be833, 2022-02-05)"
   xmlns:inkscape="http://www.inkscape.org/namespaces/inkscape"
   xmlns:sodipodi="http://sodipodi.sourceforge.net/DTD/sodipodi-0.dtd"
   xmlns="http://www.w3.org/2000/svg"
   xmlns:svg="http://www.w3.org/2000/svg">
  <defs
     id="defs66" />
  <sodipodi:namedview
     id="namedview64"
     pagecolor="#ffffff"
     bordercolor="#666666"
     borderopacity="1.0"
     inkscape:pageshadow="2"
     inkscape:pageopacity="0.0"
     inkscape:pagecheckerboard="0"
     showgrid="false"
     inkscape:zoom="24.692169"
     inkscape:cx="40.19493"
     inkscape:cy="48.517407"
     inkscape:window-width="2560"
     inkscape:window-height="1369"
     inkscape:window-x="-8"
     inkscape:window-y="-8"
     inkscape:window-maximized="1"
     inkscape:current-layer="svg62" />
  <g
     id="g4">
    <path
       style="opacity:0.996"
       fill="#000000"
       d="M 2.5,-0.5 C 33.8333,-0.5 65.1667,-0.5 96.5,-0.5C 97.1667,0.833333 98.1667,1.83333 99.5,2.5C 99.5,33.8333 99.5,65.1667 99.5,96.5C 98.1667,97.1667 97.1667,98.1667 96.5,99.5C 65.1667,99.5 33.8333,99.5 2.5,99.5C 1.83333,98.1667 0.833333,97.1667 -0.5,96.5C -0.5,65.1667 -0.5,33.8333 -0.5,2.5C 0.833333,1.83333 1.83333,0.833333 2.5,-0.5 Z"
       id="path2" />
  </g>
  <g
     id="g8">
    <path
       style="opacity:1"
       fill="#eae2ba"
       d="M 7.5,6.5 C 16.1731,6.33358 24.8397,6.50025 33.5,7C 22.1064,12.3935 13.273,20.5602 7,31.5C 6.19898,23.0881 6.36565,14.7548 7.5,6.5 Z"
       id="path6" />
  </g>
  <g
     id="g12">
    <path
       style="opacity:1"
       fill="#ece3bb"
       d="M 65.5,7.5 C 74.3178,6.5067 83.3178,6.17336 92.5,6.5C 92.6664,14.84 92.4997,23.1733 92,31.5C 85.821,20.4838 76.9877,12.4838 65.5,7.5 Z"
       id="path10" />
  </g>
  <g
     id="g16">
    <path
       style="opacity:1"
       fill="#eae1bb"
       d="M 40.5,10.5 C 64.5197,8.05209 80.6864,18.0521 89,40.5C 92.3914,64.8841 82.5581,81.3841 59.5,90C 34.6524,93.5011 18.1524,83.3344 10,59.5C 7.30699,35.0496 17.4737,18.7163 40.5,10.5 Z"
       id="path14" />
  </g>
  <g
     id="g20">
    <path
       style="opacity:1"
       fill="#010100"
       d="M 44.5,15.5 C 47.695,14.9607 50.195,15.9607 52,18.5C 52.5792,24.9109 52.5792,31.2442 52,37.5C 52.5,38 53,38.5 53.5,39C 57.8333,39.3333 62.1667,39.6667 66.5,40C 67.1667,40.6667 67.8333,41.3333 68.5,42C 60.9692,57.5649 52.8025,72.7316 44,87.5C 43.0853,86.6721 42.4186,85.6721 42,84.5C 41.1669,62.1592 41.3336,39.8259 42.5,17.5C 43.5223,17.1445 44.189,16.4778 44.5,15.5 Z"
       id="path18" />
  </g>
  <g
     id="g24"
     style="fill:#eae1bb;fill-opacity:1">
    <path
       style="opacity:1;fill:#eae1bb;fill-opacity:1"
       fill="#cdc6a3"
       d="m 46.5,19.5 c 0.6174,0.1107 1.1174,0.444 1.5,1 0.6667,5.6667 0.6667,11.3333 0,17 -0.414,0.4574 -0.914,0.7907 -1.5,1 -1.2903,-6.3885 -1.2903,-12.7218 0,-19 z"
       id="path22" />
  </g>
  <g
     id="g28">
    <path
       style="opacity:1"
       fill="#030302"
       d="M 27.5,22.5 C 28.5585,23.6002 29.3918,24.9336 30,26.5C 31.8446,27.0495 33.3446,28.0495 34.5,29.5C 31.8791,30.5804 29.7124,32.2471 28,34.5C 26.9596,31.9595 25.1263,30.2929 22.5,29.5C 23.8651,28.059 25.3651,26.7256 27,25.5C 27.4828,24.552 27.6495,23.552 27.5,22.5 Z"
       id="path26" />
  </g>
  <g
     id="g32">
    <path
       style="opacity:1"
       fill="#010100"
       d="M 67.5,24.5 C 73.3732,24.2436 75.3732,26.9103 73.5,32.5C 70.8333,33.8333 68.1667,33.8333 65.5,32.5C 65.1072,29.4867 65.7739,26.8201 67.5,24.5 Z"
       id="path30" />
  </g>
  <g
     id="g36"
     style="fill:#eae1bb;fill-opacity:1">
    <path
       style="opacity:1;fill:#eae1bb;fill-opacity:1"
       fill="#cac39f"
       d="m 69.5,27.5 c 2.2602,0.7376 2.4269,1.7376 0.5,3 -1.7284,-0.8523 -1.895,-1.8523 -0.5,-3 z"
       id="path34" />
  </g>
  <g
     id="g40">
    <path
       style="opacity:1"
       fill="#e9e1ba"
       d="M 46.5,43.5 C 51.8333,43.5 57.1667,43.5 62.5,43.5C 58.071,55.0246 52.571,66.0246 46,76.5C 45.1909,65.4236 45.3575,54.4236 46.5,43.5 Z"
       id="path38" />
  </g>
  <g
     id="g44">
    <path
       style="opacity:1"
       fill="#0d0d0b"
       d="M 21.5,56.5 C 24.9397,56.8906 27.2731,58.7239 28.5,62C 24.4115,68.2979 21.4115,67.9646 19.5,61C 19.7586,59.2134 20.4253,57.7134 21.5,56.5 Z"
       id="path42" />
  </g>
  <g
     id="g48">
    <path
       style="opacity:1"
       fill="#13120f"
       d="M 71.5,59.5 C 73.309,62.1393 75.6424,64.3059 78.5,66C 75.8732,68.2862 73.5399,70.7862 71.5,73.5C 71.0016,70.4645 69.6683,67.9645 67.5,66C 69.9229,64.4293 71.2562,62.2626 71.5,59.5 Z"
       id="path46" />
  </g>
  <g
     id="g52">
    <path
       style="opacity:1;fill:#eae1bb;fill-opacity:1"
       fill="#e2d9b5"
       d="m 22.5,59.5 c 2.5454,0.9376 3.0454,2.2709 1.5,4 -2.012,-1.0665 -2.512,-2.3998 -1.5,-4 z"
       id="path50" />
  </g>
  <g
     id="g56">
    <path
       style="opacity:1"
       fill="#eae1b9"
       d="M 6.5,69.5 C 10.5926,74.7688 14.926,79.9354 19.5,85C 22.8333,87.3333 26.1667,89.6667 29.5,92C 22.1667,92.6667 14.8333,92.6667 7.5,92C 6.51916,84.5871 6.18583,77.0871 6.5,69.5 Z"
       id="path54" />
  </g>
  <g
     id="g60">
    <path
       style="opacity:1"
       fill="#ebe2ba"
       d="M 91.5,70.5 C 92.4916,77.6476 92.825,84.9809 92.5,92.5C 85.1591,92.6663 77.8258,92.4997 70.5,92C 79.0439,86.29 86.0439,79.1233 91.5,70.5 Z"
       id="path58" />
  </g>
</svg>
