<?xml version="1.0" encoding="utf-8" ?>
    <svg version="1.1"
        baseProfile="full"
        xmlns="http://www.w3.org/2000/svg"
        xmlns:xlink="http://www.w3.org/1999/xlink" 
         xmlns:rdf="http://www.w3.org/1999/02/22-rdf-syntax-ns#"
         xmlns:cc="http://creativecommons.org/ns#"
         xmlns:dc="http://purl.org/dc/elements/1.1/" 
        preserveAspectRatio="xMidYMid meet" height="1200" width="1000" viewBox="0,0,1000,1200 ">
<metadata>
<rdf:RDF>
      <cc:Work
         rdf:about="">
        <dc:format>image/svg+xml</dc:format>
        <dc:type
           rdf:resource="http://purl.org/dc/dcmitype/StillImage" />
        <dc:rights>
          <cc:Agent>
            <dc:title>This work is licensed under a &lt;a rel=&quot;license&quot; href=&quot;http://creativecommons.org/licenses/by-nc-sa/4.0/&quot;&gt;Creative Commons Attribution-NonCommercial-ShareAlike 4.0 International License&lt;/a&gt;.</dc:title>
          </cc:Agent>
        </dc:rights>
         <dc:creator>
           <cc:Agent>
              <dc:title>symbol/astronomical - (Drawshield internal)
heater shape - https://commons.wikimedia.org/wiki/User:MG
</dc:title>
           </cc:Agent>
        </dc:creator>
      </cc:Work>
      </rdf:RDF>
</metadata>
<defs></defs><g ><g mask="url(#mask10-1)"><g><defs><pattern  patternContentUnits="userSpaceOnUse" patternUnits="userSpaceOnUse" x="0" y="0" width="222" height="400" id="pattern9-1" >
<g class="fur">        <polygon points="0,0 222,0 222,400 0,400" fill="#F0F0F0"/>
        <g stroke-width="2" stroke="none" fill="#050505">
            <circle r="10" cx="55" cy="30" fill="#E21313"/>
            <circle r="10" cx="36" cy="55" fill="#E21313"/>
            <circle r="10" cx="74" cy="55" fill="#E21313"/>
            <path d="M 53 60 A 50 210 0 0,1 10,180 A 60 40 0 0,0 45,170 A 30 40 0, 0,0 55 200 A 30 40 0, 0,0 62,170 A 60 40 0 0,0 101, 180 A 50 210 0 0,1 57 60 Z"/>
        </g>
       <g stroke-width="2" stroke="none" transform="translate(111,200)" fill="#050505">
            <circle r="10" cx="55" cy="30" fill="#E21313"/>
            <circle r="10" cx="36" cy="55" fill="#E21313"/>
            <circle r="10" cx="74" cy="55" fill="#E21313"/>
            <path d="M 53 60 A 50 210 0 0,1 10,180 A 60 40 0 0,0 45,170 A 30 40 0, 0,0 55 200 A 30 40 0, 0,0 62,170 A 60 40 0 0,0 101, 180 A 50 210 0 0,1 57 60 Z"/>
        </g></g>
</pattern>
</defs><g  fill="url(#pattern9-1)"><rect x='0' y='0' width='1000' height='1200'><title>Field</title></rect></g><g transform='translate(0,0)'><g><title>bordure</title><g  fill="#E21313"><path fill-rule='evenodd' d='M 1100 -100 L 1100,846.4 C 1101.2,1084 809.6,1228 500,1300 190.4,1228 -101.2,1084 -100,846.4 L -100,-100 L 1100,-100 ZM 920 80 L 80,80 L 80,802.48 C 79.16,968.8 283.28,1069.6 500,1120 716.72,1069.6 920.84,968.8 920,802.48 L 920,80 Z'/></g></g><g  fill="#EFD807"><g class="PlaceCharge" transform=" translate(50,50) scale(1, 1) " >
<title>a astronomical symbol</title><g  fill-rule="evenodd" stroke="#696969" stroke-width="3" ><path  stroke-width="2" d="m 175,21 50,0 0,156 157,0 0,49 -157,0 0,154 -50,0 0,-154 -156.4,0 0,-49 156.4,0 z"  />
<path  stroke-width="2" d="M 199,3 C 90.2,3 2,91 2,200 2,309 90.2,400 199,400 308,400 396,309 396,200 396,91 308,3 199,3 z m 0,40 c 87,0 157,70 157,157 0,87 -70,160 -157,160 C 112,360 42,287 42,200 42,113 112,43 199,43 z"  />
</g>
</g>
</g><g  fill="#EFD807"><g class="PlaceCharge" transform=" translate(550,50) scale(1, 1) " >
<title>a astronomical symbol</title><g  fill-rule="evenodd" stroke="#696969" stroke-width="3" ><path  stroke-width="2" d="M 159,390 C 89.6,360 37.6,313 20.2,247 13.6,222 13.6,177 20.4,151 39,80 102,23 175,14 272,1 351,48 386,137 c 10,31 14,79 3,112 -27,101 -134,161 -230,141 z m 86,-55 c 37,-12 71,-41 88,-78 9,-17 10,-24 10,-57 0,-37 -1,-40 -12,-62 C 289,52 176,34 107,102 c -76.4,74 -44.1,200 59,233 19,6 59,6 79,0 z M 174,233 c -17,-16 -20,-33 -11,-51 13,-26 43,-36 66,-22 14,8 22,23 22,43 0,15 -2,18 -14,30 -12,12 -15,13 -31,13 -17,0 -20,-1 -32,-13 z"  />
</g>
</g>
</g></g></g></g><defs><mask id="mask10-1" >
<path fill="#FFFFFF" d="m 0,0 v 800 c -2.5063876,43.11115 1.2341419,84.33503 21.489586,125.13639 20.255443,40.80137 53.477613,79.98631 98.039434,115.63581 44.56181,35.6494 100.44867,67.7517 164.92346,94.7345 64.47479,26.9828 137.51639,48.8374 215.54752,64.4933 78.03113,-15.6559 151.07273,-37.5105 215.54752,-64.4933 64.47479,-26.9828 120.36165,-59.0851 164.92346,-94.7345 44.56182,-35.6495 77.78399,-74.83444 98.03943,-115.63581 C 998.76586,884.33503 1000.1453,841.93063 1000,800 V 0 Z" />
</mask>
</defs></g></svg>
