<?xml version="1.0" encoding="UTF-8"?>
<!DOCTYPE svg PUBLIC "-//W3C//DTD SVG 1.1//EN" "http://www.w3.org/Graphics/SVG/1.1/DTD/svg11.dtd">
<svg xmlns="http://www.w3.org/2000/svg" version="1.1" width="100px" height="100px" style="shape-rendering:geometricPrecision; text-rendering:geometricPrecision; image-rendering:optimizeQuality; fill-rule:evenodd; clip-rule:evenodd" xmlns:xlink="http://www.w3.org/1999/xlink">
<g><path style="opacity:0.989" fill="#010000" d="M -0.5,-0.5 C 32.8333,-0.5 66.1667,-0.5 99.5,-0.5C 99.5,32.8333 99.5,66.1667 99.5,99.5C 66.1667,99.5 32.8333,99.5 -0.5,99.5C -0.5,66.1667 -0.5,32.8333 -0.5,-0.5 Z"/></g>
<g><path style="opacity:1" fill="#7e461e" d="M 6.5,7.5 C 28.6703,6.17151 51.0036,6.17151 73.5,7.5C 73.3764,8.10667 73.0431,8.44001 72.5,8.5C 50.673,7.50261 28.673,7.16928 6.5,7.5 Z"/></g>
<g><path style="opacity:1" fill="#f78b3c" d="M 90.5,10.5 C 91.4977,34.9944 91.831,59.661 91.5,84.5C 88.8996,83.0812 86.3996,81.4146 84,79.5C 83.1301,80.1079 82.6301,80.9412 82.5,82C 85.6437,85.3089 88.977,88.4756 92.5,91.5C 79.1833,92.4992 65.85,92.8325 52.5,92.5C 52.5,85.5 52.5,78.5 52.5,71.5C 58.1764,71.6661 63.8431,71.4994 69.5,71C 70.6389,65.5838 70.8056,60.0838 70,54.5C 65.0025,52.2649 59.8359,51.9315 54.5,53.5C 53.914,53.2907 53.414,52.9574 53,52.5C 52.6667,50.5 52.3333,48.5 52,46.5C 50.3333,45.1667 48.6667,45.1667 47,46.5C 47.7348,53.1018 45.0682,55.1018 39,52.5C 35.589,52.985 32.2556,53.6517 29,54.5C 28.5006,59.8229 28.334,65.1563 28.5,70.5C 30.5,70.8333 32.5,71.1667 34.5,71.5C 37.9619,72.4816 41.6286,72.815 45.5,72.5C 45.5,78.8333 45.5,85.1667 45.5,91.5C 43.901,91.2322 42.5676,91.5655 41.5,92.5C 29.8333,92.5 18.1667,92.5 6.5,92.5C 6.33499,89.1501 6.50166,85.8168 7,82.5C 9.41399,80.7093 11.914,79.0426 14.5,77.5C 14.0814,76.3279 13.4147,75.3279 12.5,74.5C 11.3777,75.6302 10.0443,76.2969 8.5,76.5C 7.50299,57.3405 7.16965,38.0072 7.5,18.5C 10.6215,20.4482 13.6215,22.6148 16.5,25C 17.448,25.4828 18.448,25.6495 19.5,25.5C 19.6495,24.448 19.4828,23.448 19,22.5C 15.1847,18.9284 11.1847,15.5951 7,12.5C 6.50649,10.8659 6.33982,9.19919 6.5,7.5C 28.673,7.16928 50.673,7.50261 72.5,8.5C 71.4249,10.8555 71.4249,13.1889 72.5,15.5C 74.6105,12.7919 76.6105,9.95858 78.5,7C 81.8823,6.17638 85.2156,6.34305 88.5,7.5C 85.5237,11.6438 82.357,15.6438 79,19.5C 78.3987,20.9653 78.8987,21.9653 80.5,22.5C 84.2034,18.7977 87.5367,14.7977 90.5,10.5 Z"/></g>
<g><path style="opacity:1" fill="#0c0602" d="M 55.5,8.5 C 57.4109,8.5743 58.5776,9.5743 59,11.5C 59.1378,17.5813 59.8044,23.5813 61,29.5C 62.6667,31.1667 64.3333,32.8333 66,34.5C 63.8001,17.0963 68.1335,15.0963 79,28.5C 88.305,43.84 88.9717,59.5066 81,75.5C 76.4583,81.5377 70.625,85.871 63.5,88.5C 60.7183,88.141 60.0517,86.8077 61.5,84.5C 78.2593,75.3043 84.426,61.3043 80,42.5C 77.853,37.5398 75.1864,32.8731 72,28.5C 71.6667,32.8333 71.3333,37.1667 71,41.5C 69.2705,43.6018 67.4372,43.4351 65.5,41C 61.9636,37.7988 58.7969,34.2988 56,30.5C 54.7964,26.2841 54.1298,21.9508 54,17.5C 53.6924,16.6919 53.1924,16.0253 52.5,15.5C 47.9109,18.7114 43.4109,22.0447 39,25.5C 32.8431,33.1361 29.3431,41.8028 28.5,51.5C 24.2428,52.4029 21.7428,50.7363 21,46.5C 15.6141,64.4002 21.6141,77.0669 39,84.5C 39.49,85.7932 39.6567,87.1266 39.5,88.5C 34.9872,88.412 30.9872,86.912 27.5,84C 15.1835,73.8556 11.0168,61.0223 15,45.5C 16.2085,40.1965 18.3751,35.3631 21.5,31C 22.9437,30.2195 24.277,30.3861 25.5,31.5C 23.5143,35.3799 23.181,39.3799 24.5,43.5C 29.5998,27.0739 39.9332,15.4073 55.5,8.5 Z"/></g>
<g><path style="opacity:1" fill="#bc692d" d="M 90.5,10.5 C 90.56,9.95691 90.8933,9.62358 91.5,9.5C 91.8333,22.1667 92.1667,34.8333 92.5,47.5C 92.5095,60.5741 92.1761,72.9074 91.5,84.5C 91.831,59.661 91.4977,34.9944 90.5,10.5 Z"/></g>
<g><path style="opacity:1" fill="#7f471f" d="M 7.5,18.5 C 7.16965,38.0072 7.50299,57.3405 8.5,76.5C 8.44001,77.0431 8.10667,77.3764 7.5,77.5C 6.17215,57.6707 6.17215,38.0041 7.5,18.5 Z"/></g>
<g><path style="opacity:1" fill="#bb682d" d="M 34.5,71.5 C 38.5,71.5 42.5,71.5 46.5,71.5C 46.5,78.5 46.5,85.5 46.5,92.5C 44.8333,92.5 43.1667,92.5 41.5,92.5C 42.5676,91.5655 43.901,91.2322 45.5,91.5C 45.5,85.1667 45.5,78.8333 45.5,72.5C 41.6286,72.815 37.9619,72.4816 34.5,71.5 Z"/></g>
</svg>
