<?xml version="1.0" encoding="UTF-8" standalone="no"?>
<svg
   width="5201.0039"
   height="2800"
   id="svg2"
   version="1.0"
   sodipodi:docname="Forgetting Inceldom.svg"
   inkscape:version="1.1.2 (b8e25be833, 2022-02-05)"
   xmlns:inkscape="http://www.inkscape.org/namespaces/inkscape"
   xmlns:sodipodi="http://sodipodi.sourceforge.net/DTD/sodipodi-0.dtd"
   xmlns="http://www.w3.org/2000/svg"
   xmlns:svg="http://www.w3.org/2000/svg"
   xmlns:rdf="http://www.w3.org/1999/02/22-rdf-syntax-ns#"
   xmlns:cc="http://creativecommons.org/ns#"
   xmlns:dc="http://purl.org/dc/elements/1.1/">
  <sodipodi:namedview
     id="namedview10"
     pagecolor="#ffffff"
     bordercolor="#666666"
     borderopacity="1.0"
     inkscape:pageshadow="2"
     inkscape:pageopacity="0.0"
     inkscape:pagecheckerboard="0"
     showgrid="false"
     inkscape:zoom="0.4546875"
     inkscape:cx="3214.2955"
     inkscape:cy="1460.3436"
     inkscape:window-width="2560"
     inkscape:window-height="1377"
     inkscape:window-x="-8"
     inkscape:window-y="-8"
     inkscape:window-maximized="1"
     inkscape:current-layer="svg2"
     fit-margin-top="0"
     fit-margin-left="0"
     fit-margin-right="0"
     fit-margin-bottom="0" />
  <defs
     id="defs4" />
  <metadata
     id="metadata7">
    <rdf:RDF>
      <cc:Work
         rdf:about="">
        <dc:format>image/svg+xml</dc:format>
        <dc:type
           rdf:resource="http://purl.org/dc/dcmitype/StillImage" />
      </cc:Work>
    </rdf:RDF>
  </metadata>
  <g
     id="layer2"
     transform="matrix(2.3365055,0,0,2.3365055,3677.4671,1566.4713)">
    <path
       id="path3796"
       d="m 31.32353,106.79411 55.88236,16.47059 51.47058,-17.35294"
       style="fill:none;fill-opacity:0.75;fill-rule:evenodd;stroke:#000000;stroke-width:2;stroke-linecap:round;stroke-linejoin:round;stroke-miterlimit:4;stroke-dasharray:none;stroke-opacity:1" />
    <path
       id="path3798"
       d="M 46.61765,216.49999 87.5,156.20587 l 31.76471,59.70589"
       style="fill:none;fill-opacity:0.75;fill-rule:evenodd;stroke:#000000;stroke-width:2;stroke-linecap:round;stroke-linejoin:round;stroke-miterlimit:4;stroke-dasharray:none;stroke-opacity:1" />
    <path
       id="path3800"
       d="M 87.52805,156.31517 V 91.94766"
       style="fill:none;fill-opacity:0.75;fill-rule:evenodd;stroke:#000000;stroke-width:2;stroke-linecap:round;stroke-linejoin:round;stroke-miterlimit:4;stroke-dasharray:none;stroke-opacity:1" />
    <ellipse
       id="path3802"
       style="fill:none;fill-opacity:1;fill-rule:nonzero;stroke:#000000;stroke-width:2;stroke-linecap:round;stroke-linejoin:round;stroke-miterlimit:100;stroke-dasharray:none;stroke-opacity:1"
       cx="88.186562"
       cy="57.841484"
       rx="37.282658"
       ry="34.34148" />
  </g>
  <path
     d="m 4384.0518,1818.2604 h -301.941 c -6.627,0 -12,5.373 -12,12 v 56 c 0,6.627 5.373,12 12,12 h 301.941 v 46.059 c 0,21.382 25.851,32.09 40.971,16.971 l 86.059,-86.059 c 9.373,-9.373 9.373,-24.569 0,-33.941 l -86.059,-86.059 c -15.119,-15.119 -40.971,-4.411 -40.971,16.971 z"
     id="path2" />
  <g
     id="layer2-9"
     transform="matrix(2.3365055,0,0,2.3365055,4519.9755,1573.4816)">
    <path
       id="path3796-8"
       d="m 31.32353,106.79411 55.88236,16.47059 51.47058,-17.35294"
       style="fill:none;fill-opacity:0.75;fill-rule:evenodd;stroke:#000000;stroke-width:2;stroke-linecap:round;stroke-linejoin:round;stroke-miterlimit:4;stroke-dasharray:none;stroke-opacity:1" />
    <path
       id="path3798-4"
       d="M 46.61765,216.49999 87.5,156.20587 l 31.76471,59.70589"
       style="fill:none;fill-opacity:0.75;fill-rule:evenodd;stroke:#000000;stroke-width:2;stroke-linecap:round;stroke-linejoin:round;stroke-miterlimit:4;stroke-dasharray:none;stroke-opacity:1" />
    <path
       id="path3800-8"
       d="M 87.52805,156.31517 V 91.94766"
       style="fill:none;fill-opacity:0.75;fill-rule:evenodd;stroke:#000000;stroke-width:2;stroke-linecap:round;stroke-linejoin:round;stroke-miterlimit:4;stroke-dasharray:none;stroke-opacity:1" />
    <ellipse
       id="path3802-3"
       style="fill:none;fill-opacity:1;fill-rule:nonzero;stroke:#000000;stroke-width:2;stroke-linecap:round;stroke-linejoin:round;stroke-miterlimit:100;stroke-dasharray:none;stroke-opacity:1"
       cx="88.186562"
       cy="57.841484"
       rx="37.282658"
       ry="34.34148" />
  </g>
  <text
     xml:space="preserve"
     style="font-style:normal;font-weight:normal;font-size:40px;line-height:1.25;font-family:sans-serif;fill:#000000;fill-opacity:1;stroke:none"
     x="3727.7881"
     y="2189.2573"
     id="text4257"><tspan
       sodipodi:role="line"
       id="tspan4255"
       x="3727.7881"
       y="2189.2573">Incel</tspan><tspan
       sodipodi:role="line"
       x="3727.7881"
       y="2239.2573"
       id="tspan22401">Mundane self</tspan><tspan
       sodipodi:role="line"
       x="3727.7881"
       y="2289.2573"
       id="tspan4261">Ego/Ahumgar</tspan></text>
  <text
     xml:space="preserve"
     style="font-style:normal;font-weight:normal;font-size:40px;line-height:1.25;font-family:sans-serif;fill:#000000;fill-opacity:1;stroke:none"
     x="4581.1211"
     y="2195.8555"
     id="text9283"><tspan
       sodipodi:role="line"
       id="tspan9281"
       x="4581.1211"
       y="2195.8555">Sex-haver</tspan><tspan
       sodipodi:role="line"
       x="4581.1211"
       y="2245.8555"
       id="tspan24149">Divine Double (Corbin)</tspan><tspan
       sodipodi:role="line"
       x="4581.1211"
       y="2295.8555"
       id="tspan9285">Sacred Second Self (Vervaeke)</tspan><tspan
       sodipodi:role="line"
       x="4581.1211"
       y="2345.8555"
       id="tspan9287">Omega Self (Leonhart)</tspan></text>
  <text
     xml:space="preserve"
     style="font-style:normal;font-weight:normal;font-size:40px;line-height:1.25;font-family:sans-serif;fill:#000000;fill-opacity:1;stroke:none"
     x="4040.0906"
     y="1652.6252"
     id="text28347"><tspan
       sodipodi:role="line"
       id="tspan28345"
       x="4040.0906"
       y="1652.6252">Becoming Sex</tspan><tspan
       sodipodi:role="line"
       x="4040.0906"
       y="1702.6252"
       id="tspan36738">Developing as a person</tspan></text>
  <g
     id="layer2-98"
     transform="matrix(2.3365055,0,0,2.3365055,1918.3789,55.249793)">
    <path
       id="path3796-0"
       d="m 31.32353,106.79411 55.88236,16.47059 51.47058,-17.35294"
       style="fill:none;fill-opacity:0.75;fill-rule:evenodd;stroke:#000000;stroke-width:2;stroke-linecap:round;stroke-linejoin:round;stroke-miterlimit:4;stroke-dasharray:none;stroke-opacity:1" />
    <path
       id="path3798-5"
       d="M 46.61765,216.49999 87.5,156.20587 l 31.76471,59.70589"
       style="fill:none;fill-opacity:0.75;fill-rule:evenodd;stroke:#000000;stroke-width:2;stroke-linecap:round;stroke-linejoin:round;stroke-miterlimit:4;stroke-dasharray:none;stroke-opacity:1" />
    <path
       id="path3800-4"
       d="M 87.52805,156.31517 V 91.94766"
       style="fill:none;fill-opacity:0.75;fill-rule:evenodd;stroke:#000000;stroke-width:2;stroke-linecap:round;stroke-linejoin:round;stroke-miterlimit:4;stroke-dasharray:none;stroke-opacity:1" />
    <ellipse
       id="path3802-1"
       style="fill:none;fill-opacity:1;fill-rule:nonzero;stroke:#000000;stroke-width:2;stroke-linecap:round;stroke-linejoin:round;stroke-miterlimit:100;stroke-dasharray:none;stroke-opacity:1"
       cx="88.186562"
       cy="57.841484"
       rx="37.282658"
       ry="34.34148" />
  </g>
  <g
     id="layer2-9-7"
     transform="matrix(2.3365055,0,0,2.3365055,2760.8872,62.260093)">
    <path
       id="path3796-8-2"
       d="m 31.32353,106.79411 55.88236,16.47059 51.47058,-17.35294"
       style="fill:none;fill-opacity:0.75;fill-rule:evenodd;stroke:#000000;stroke-width:2;stroke-linecap:round;stroke-linejoin:round;stroke-miterlimit:4;stroke-dasharray:none;stroke-opacity:1" />
    <path
       id="path3798-4-9"
       d="M 46.61765,216.49999 87.5,156.20587 l 31.76471,59.70589"
       style="fill:none;fill-opacity:0.75;fill-rule:evenodd;stroke:#000000;stroke-width:2;stroke-linecap:round;stroke-linejoin:round;stroke-miterlimit:4;stroke-dasharray:none;stroke-opacity:1" />
    <path
       id="path3800-8-8"
       d="M 87.52805,156.31517 V 91.94766"
       style="fill:none;fill-opacity:0.75;fill-rule:evenodd;stroke:#000000;stroke-width:2;stroke-linecap:round;stroke-linejoin:round;stroke-miterlimit:4;stroke-dasharray:none;stroke-opacity:1" />
    <ellipse
       id="path3802-3-4"
       style="fill:none;fill-opacity:1;fill-rule:nonzero;stroke:#000000;stroke-width:2;stroke-linecap:round;stroke-linejoin:round;stroke-miterlimit:100;stroke-dasharray:none;stroke-opacity:1"
       cx="88.186562"
       cy="57.841484"
       rx="37.282658"
       ry="34.34148" />
  </g>
  <text
     xml:space="preserve"
     style="font-style:normal;font-weight:normal;font-size:40px;line-height:1.25;font-family:sans-serif;fill:#000000;fill-opacity:1;stroke:none"
     x="1968.6998"
     y="678.03601"
     id="text4257-4"><tspan
       sodipodi:role="line"
       id="tspan4255-9"
       x="1968.6998"
       y="678.03601">Incel</tspan><tspan
       sodipodi:role="line"
       x="1968.6998"
       y="728.03601"
       id="tspan22401-4">Mundane self</tspan><tspan
       sodipodi:role="line"
       x="1968.6998"
       y="778.03601"
       id="tspan4261-3">Ego/Ahumgar</tspan></text>
  <text
     xml:space="preserve"
     style="font-style:normal;font-weight:normal;font-size:40px;line-height:1.25;font-family:sans-serif;fill:#000000;fill-opacity:1;stroke:none"
     x="2822.0332"
     y="684.63391"
     id="text9283-5"><tspan
       sodipodi:role="line"
       id="tspan9281-2"
       x="2822.0332"
       y="684.63391">Sex-haver</tspan><tspan
       sodipodi:role="line"
       x="2822.0332"
       y="734.63391"
       id="tspan24149-2">Divine Double (Corbin)</tspan><tspan
       sodipodi:role="line"
       x="2822.0332"
       y="784.63391"
       id="tspan9285-1">Sacred Second Self (Vervaeke)</tspan><tspan
       sodipodi:role="line"
       x="2822.0332"
       y="834.63391"
       id="tspan9287-2">Omega Self (Leonhart)</tspan></text>
  <text
     xml:space="preserve"
     style="font-style:normal;font-weight:normal;font-size:40px;line-height:1.25;font-family:sans-serif;text-align:center;text-anchor:middle;fill:#000000;fill-opacity:1;stroke:none"
     x="2478.7266"
     y="30.585938"
     id="text34468"><tspan
       sodipodi:role="line"
       id="tspan34466"
       x="2478.7266"
       y="30.585938">Forgetting/Modal Confusion explained with Inceldom</tspan></text>
  <g
     id="layer2-7"
     transform="matrix(2.3365055,0,0,2.3365055,808.00246,1513.9796)">
    <path
       id="path3796-1"
       d="m 31.32353,106.79411 55.88236,16.47059 51.47058,-17.35294"
       style="fill:none;fill-opacity:0.75;fill-rule:evenodd;stroke:#000000;stroke-width:2;stroke-linecap:round;stroke-linejoin:round;stroke-miterlimit:4;stroke-dasharray:none;stroke-opacity:1" />
    <path
       id="path3798-52"
       d="M 46.61765,216.49999 87.5,156.20587 l 31.76471,59.70589"
       style="fill:none;fill-opacity:0.75;fill-rule:evenodd;stroke:#000000;stroke-width:2;stroke-linecap:round;stroke-linejoin:round;stroke-miterlimit:4;stroke-dasharray:none;stroke-opacity:1" />
    <path
       id="path3800-7"
       d="M 87.52805,156.31517 V 91.94766"
       style="fill:none;fill-opacity:0.75;fill-rule:evenodd;stroke:#000000;stroke-width:2;stroke-linecap:round;stroke-linejoin:round;stroke-miterlimit:4;stroke-dasharray:none;stroke-opacity:1" />
    <ellipse
       id="path3802-5"
       style="fill:none;fill-opacity:1;fill-rule:nonzero;stroke:#000000;stroke-width:2;stroke-linecap:round;stroke-linejoin:round;stroke-miterlimit:100;stroke-dasharray:none;stroke-opacity:1"
       cx="88.186562"
       cy="57.841484"
       rx="37.282658"
       ry="34.34148" />
  </g>
  <path
     d="m 1514.5871,1765.7687 h -301.941 c -6.627,0 -12,5.373 -12,12 v 56 c 0,6.627 5.373,12 12,12 h 301.941 v 46.059 c 0,21.382 25.851,32.09 40.971,16.971 l 86.059,-86.059 c 9.373,-9.373 9.373,-24.569 0,-33.941 l -86.059,-86.059 c -15.119,-15.119 -40.971,-4.411 -40.971,16.971 z"
     id="path2-8" />
  <g
     id="layer2-9-8"
     transform="matrix(2.3365055,0,0,2.3365055,1650.5109,1520.9899)">
    <path
       id="path3796-8-1"
       d="m 31.32353,106.79411 55.88236,16.47059 51.47058,-17.35294"
       style="fill:none;fill-opacity:0.75;fill-rule:evenodd;stroke:#000000;stroke-width:2;stroke-linecap:round;stroke-linejoin:round;stroke-miterlimit:4;stroke-dasharray:none;stroke-opacity:1" />
    <path
       id="path3798-4-5"
       d="M 46.61765,216.49999 87.5,156.20587 l 31.76471,59.70589"
       style="fill:none;fill-opacity:0.75;fill-rule:evenodd;stroke:#000000;stroke-width:2;stroke-linecap:round;stroke-linejoin:round;stroke-miterlimit:4;stroke-dasharray:none;stroke-opacity:1" />
    <path
       id="path3800-8-2"
       d="M 87.52805,156.31517 V 91.94766"
       style="fill:none;fill-opacity:0.75;fill-rule:evenodd;stroke:#000000;stroke-width:2;stroke-linecap:round;stroke-linejoin:round;stroke-miterlimit:4;stroke-dasharray:none;stroke-opacity:1" />
    <ellipse
       id="path3802-3-2"
       style="fill:none;fill-opacity:1;fill-rule:nonzero;stroke:#000000;stroke-width:2;stroke-linecap:round;stroke-linejoin:round;stroke-miterlimit:100;stroke-dasharray:none;stroke-opacity:1"
       cx="88.186562"
       cy="57.841484"
       rx="37.282658"
       ry="34.34148" />
  </g>
  <text
     xml:space="preserve"
     style="font-style:normal;font-weight:normal;font-size:40px;line-height:1.25;font-family:sans-serif;fill:#000000;fill-opacity:1;stroke:none"
     x="858.32324"
     y="2136.7656"
     id="text4257-7"><tspan
       sodipodi:role="line"
       id="tspan4255-1"
       x="858.32324"
       y="2136.7656">Incel</tspan><tspan
       sodipodi:role="line"
       x="858.32324"
       y="2186.7656"
       id="tspan22401-1">Mundane self</tspan><tspan
       sodipodi:role="line"
       x="858.32324"
       y="2236.7656"
       id="tspan4261-2">Ego/Ahumgar</tspan></text>
  <text
     xml:space="preserve"
     style="font-style:normal;font-weight:normal;font-size:40px;line-height:1.25;font-family:sans-serif;fill:#000000;fill-opacity:1;stroke:none"
     x="1711.6567"
     y="2143.3638"
     id="text9283-6"><tspan
       sodipodi:role="line"
       id="tspan9281-7"
       x="1711.6567"
       y="2143.3638">Sex-haver</tspan><tspan
       sodipodi:role="line"
       x="1711.6567"
       y="2193.3638"
       id="tspan24149-9">Divine Double (Corbin)</tspan><tspan
       sodipodi:role="line"
       x="1711.6567"
       y="2243.3638"
       id="tspan9285-13">Sacred Second Self (Vervaeke)</tspan><tspan
       sodipodi:role="line"
       x="1711.6567"
       y="2293.3638"
       id="tspan9287-0">Omega Self (Leonhart)</tspan></text>
  <text
     xml:space="preserve"
     style="font-style:normal;font-weight:normal;font-size:40px;line-height:1.25;font-family:sans-serif;fill:#000000;fill-opacity:1;stroke:none"
     x="1170.6257"
     y="1560.1334"
     id="text28347-7"><tspan
       sodipodi:role="line"
       x="1170.6257"
       y="1560.1334"
       id="tspan36738-1">Having Sex</tspan><tspan
       sodipodi:role="line"
       x="1170.6257"
       y="1610.1334"
       id="tspan53820">Staying the same person</tspan><tspan
       sodipodi:role="line"
       x="1170.6257"
       y="1660.1334"
       id="tspan76935">Palace Life</tspan></text>
  <path
     d="m 3692.338,1261.8624 -202.14,-224.294 c -4.4365,-4.9228 -12.0249,-5.317 -16.9477,-0.8805 l -41.599,37.4902 c -4.9229,4.4366 -5.3171,12.0249 -0.8805,16.9478 l 202.1399,224.294 -34.2145,30.835 c -15.8834,14.3146 -6.5313,40.6864 14.8221,41.7965 l 121.5418,6.3144 c 13.2376,0.6877 24.5258,-9.4856 25.2128,-22.7225 l 6.3143,-121.5419 c 1.1094,-21.3527 -24.1521,-33.3879 -40.0355,-19.0733 z"
     id="path2-8-9" />
  <text
     xml:space="preserve"
     style="font-style:normal;font-weight:normal;font-size:40px;line-height:1.25;font-family:sans-serif;fill:#000000;fill-opacity:1;stroke:none"
     x="3826.353"
     y="1109.8593"
     id="text42559"><tspan
       sodipodi:role="line"
       id="tspan42557"
       x="3826.353"
       y="1109.8593">Being mode</tspan><tspan
       sodipodi:role="line"
       x="3826.353"
       y="1159.8593"
       id="tspan42561">Wonder driven</tspan><tspan
       sodipodi:role="line"
       x="3826.353"
       y="1209.8593"
       id="tspan42563">Growth Driven</tspan></text>
  <path
     d="m 1849.6487,1179.4933 202.14,-224.29401 c 4.4365,-4.9228 12.0249,-5.31703 16.9477,-0.88047 l 41.599,37.49023 c 4.9228,4.43656 5.3171,12.02495 0.8805,16.94775 l -202.1399,224.294 34.2145,30.835 c 15.8834,14.3146 6.5313,40.6865 -14.8221,41.7965 l -121.5419,6.3144 c -13.2375,0.6877 -24.5257,-9.4856 -25.2127,-22.7225 l -6.3144,-121.5419 c -1.1093,-21.3527 24.1521,-33.3879 40.0356,-19.0733 z"
     id="path2-8-9-1" />
  <text
     xml:space="preserve"
     style="font-style:normal;font-weight:normal;font-size:40px;line-height:1.25;font-family:sans-serif;fill:#000000;fill-opacity:1;stroke:none"
     x="1400.6013"
     y="998.89905"
     id="text42559-5"><tspan
       sodipodi:role="line"
       x="1400.6013"
       y="998.89905"
       id="tspan42563-6">Having mode</tspan><tspan
       sodipodi:role="line"
       x="1400.6013"
       y="1048.899"
       id="tspan47034">Power Driven</tspan><tspan
       sodipodi:role="line"
       x="1400.6013"
       y="1098.899"
       id="tspan47036">Not pursuing growth</tspan></text>
  <rect
     style="fill:#ff0000"
     id="rect57981"
     width="77.757446"
     height="261.26501"
     x="222.14891"
     y="2125.8374"
     transform="rotate(-30.716603)" />
  <text
     xml:space="preserve"
     style="font-style:normal;font-weight:normal;font-size:40px;line-height:1.25;font-family:sans-serif;fill:#ff0000;fill-opacity:1;stroke:none"
     x="1213.7029"
     y="2008.7352"
     id="text58901"><tspan
       sodipodi:role="line"
       id="tspan58899"
       x="1213.7029"
       y="2008.7352">No transformation</tspan><tspan
       sodipodi:role="line"
       x="1213.7029"
       y="2058.7354"
       id="tspan58903">Stay Incel</tspan></text>
  <g
     transform="matrix(1.134642,0,0,1.134642,-120.75733,1259.6579)"
     id="g6">
    <path
       transform="translate(-13.38452,-3.282995)"
       d="m 599.52555,250.30106 a 37.375645,36.36549 0 1 1 -74.75129,0 37.375645,36.36549 0 1 1 74.75129,0 z"
       style="opacity:1;fill:#000000;fill-opacity:1;fill-rule:evenodd;stroke:#000000;stroke-width:2.97634;stroke-linecap:square;stroke-linejoin:miter;stroke-miterlimit:4;stroke-dasharray:none;stroke-dashoffset:0;stroke-opacity:1"
       id="path2-1" />
    <path
       d="m 455.07372,542.23515 h 49.75002 l 0.50507,141.16882 c 0,0 1.49266,15.17857 18.45695,15.26786 18.92854,0.0947 19.17123,-15.26786 19.17123,-15.26786 l 0.0446,-142.17198 11.06704,-0.007 v 142.17898 c 0,0 1.96076,15.26786 18.83576,15.26786 17.58951,-0.002 19.55004,-15.26786 19.55004,-15.26786 l -0.19126,-140.91629 49.94127,-0.3788 -54.42197,-187.63584 9.21765,-0.25254 v 0 l 32.95622,109.72782 c 0,0 7.88376,15.25978 21.31422,9.2429 13.45368,-6.02729 10.00051,-20.10204 10.00051,-20.10204 L 624.03968,329.25512 c 0,0 -7.01258,-13.82522 -16.70373,-20.86472 -9.69115,-7.0395 -23.84659,-10.86471 -23.84659,-10.86471 l -68.94291,0.25254 c 0,0 -14.16086,2.72221 -23.94671,9.73015 -9.78585,7.00793 -16.80663,21.80772 -16.80663,21.80772 l -37.79368,122.02064 c 0,0 -2.69216,16.30842 12.12927,21.35306 15.84992,5.43798 20.70069,-11.50407 20.70069,-11.50407 l 31.57493,-106.58642 h 7.82868 z"
       style="opacity:1;fill:#000000;fill-opacity:1;fill-rule:evenodd;stroke:#000000;stroke-width:0.480132px;stroke-linecap:butt;stroke-linejoin:miter;stroke-opacity:1"
       id="path4" />
  </g>
  <text
     xml:space="preserve"
     style="font-style:normal;font-weight:normal;font-size:40px;line-height:1.25;font-family:sans-serif;fill:#000000;fill-opacity:1;stroke:none"
     x="-2.2460938"
     y="2099.0857"
     id="text71079"><tspan
       sodipodi:role="line"
       id="tspan71077"
       x="-2.2460938"
       y="2099.0857">Sexual partner treated in having mode</tspan><tspan
       sodipodi:role="line"
       x="-2.2460938"
       y="2149.0857"
       id="tspan73481">Relationship treated as a thing to have</tspan><tspan
       sodipodi:role="line"
       x="-2.2460938"
       y="2199.0857"
       id="tspan78779">Either promiscuity</tspan><tspan
       sodipodi:role="line"
       x="-2.2460938"
       y="2249.0857"
       id="tspan78781">Or romantic idolatry of partner</tspan><tspan
       sodipodi:role="line"
       x="-2.2460938"
       y="2299.0857"
       id="tspan75553" /></text>
  <g
     transform="matrix(1.134642,0,0,1.134642,3687.0859,1859.9667)"
     id="g6-0">
    <path
       transform="translate(-13.38452,-3.282995)"
       d="m 599.52555,250.30106 a 37.375645,36.36549 0 1 1 -74.75129,0 37.375645,36.36549 0 1 1 74.75129,0 z"
       style="opacity:1;fill:#000000;fill-opacity:1;fill-rule:evenodd;stroke:#000000;stroke-width:2.97634;stroke-linecap:square;stroke-linejoin:miter;stroke-miterlimit:4;stroke-dasharray:none;stroke-dashoffset:0;stroke-opacity:1"
       id="path2-1-8" />
    <path
       d="m 455.07372,542.23515 h 49.75002 l 0.50507,141.16882 c 0,0 1.49266,15.17857 18.45695,15.26786 18.92854,0.0947 19.17123,-15.26786 19.17123,-15.26786 l 0.0446,-142.17198 11.06704,-0.007 v 142.17898 c 0,0 1.96076,15.26786 18.83576,15.26786 17.58951,-0.002 19.55004,-15.26786 19.55004,-15.26786 l -0.19126,-140.91629 49.94127,-0.3788 -54.42197,-187.63584 9.21765,-0.25254 v 0 l 32.95622,109.72782 c 0,0 7.88376,15.25978 21.31422,9.2429 13.45368,-6.02729 10.00051,-20.10204 10.00051,-20.10204 L 624.03968,329.25512 c 0,0 -7.01258,-13.82522 -16.70373,-20.86472 -9.69115,-7.0395 -23.84659,-10.86471 -23.84659,-10.86471 l -68.94291,0.25254 c 0,0 -14.16086,2.72221 -23.94671,9.73015 -9.78585,7.00793 -16.80663,21.80772 -16.80663,21.80772 l -37.79368,122.02064 c 0,0 -2.69216,16.30842 12.12927,21.35306 15.84992,5.43798 20.70069,-11.50407 20.70069,-11.50407 l 31.57493,-106.58642 h 7.82868 z"
       style="opacity:1;fill:#000000;fill-opacity:1;fill-rule:evenodd;stroke:#000000;stroke-width:0.480132px;stroke-linecap:butt;stroke-linejoin:miter;stroke-opacity:1"
       id="path4-5" />
  </g>
  <text
     xml:space="preserve"
     style="font-style:normal;font-weight:normal;font-size:40px;line-height:1.25;font-family:sans-serif;fill:#000000;fill-opacity:1;stroke:none"
     x="3805.5972"
     y="2699.3945"
     id="text71079-1"><tspan
       sodipodi:role="line"
       id="tspan71077-1"
       x="3805.5972"
       y="2699.3945">Sexual partner treated in being mode</tspan><tspan
       sodipodi:role="line"
       x="3805.5972"
       y="2749.3945"
       id="tspan78781-3">Relationship treated as a developmental process</tspan><tspan
       sodipodi:role="line"
       x="3805.5972"
       y="2799.3945"
       id="tspan81934">Partner seen as mirror of divine</tspan><tspan
       sodipodi:role="line"
       x="3805.5972"
       y="2849.3945"
       id="tspan75553-8" /></text>
  <text
     xml:space="preserve"
     style="font-style:normal;font-weight:normal;font-size:40px;line-height:1.25;font-family:sans-serif;fill:#000000;fill-opacity:1;stroke:none"
     x="2296.0356"
     y="361.62854"
     id="text90014"><tspan
       sodipodi:role="line"
       id="tspan90012"
       x="2296.0356"
       y="361.62854">Dichotomy of the self </tspan><tspan
       sodipodi:role="line"
       x="2296.0356"
       y="411.62854"
       id="tspan90016">And the self that can be</tspan></text>
</svg>
