<?xml version="1.0" encoding="UTF-8"?>
<!DOCTYPE svg PUBLIC "-//W3C//DTD SVG 1.1//EN" "http://www.w3.org/Graphics/SVG/1.1/DTD/svg11.dtd">
<svg xmlns="http://www.w3.org/2000/svg" version="1.1" width="100px" height="100px" style="shape-rendering:geometricPrecision; text-rendering:geometricPrecision; image-rendering:optimizeQuality; fill-rule:evenodd; clip-rule:evenodd" xmlns:xlink="http://www.w3.org/1999/xlink">
<g><path style="opacity:0.996" fill="#000200" d="M 2.5,-0.5 C 33.8333,-0.5 65.1667,-0.5 96.5,-0.5C 97.1667,0.833333 98.1667,1.83333 99.5,2.5C 99.5,33.8333 99.5,65.1667 99.5,96.5C 98.1667,97.1667 97.1667,98.1667 96.5,99.5C 65.1667,99.5 33.8333,99.5 2.5,99.5C 1.83333,98.1667 0.833333,97.1667 -0.5,96.5C -0.5,65.1667 -0.5,33.8333 -0.5,2.5C 0.833333,1.83333 1.83333,0.833333 2.5,-0.5 Z"/></g>
<g><path style="opacity:1" fill="#369130" d="M 30.5,8.5 C 23.0182,7.50797 15.3516,7.17464 7.5,7.5C 7.17503,15.0191 7.50837,22.3524 8.5,29.5C 8.21719,30.2891 7.71719,30.9558 7,31.5C 6.50027,23.1733 6.3336,14.84 6.5,6.5C 15.1731,6.33358 23.8397,6.50025 32.5,7C 31.9558,7.71719 31.2891,8.21719 30.5,8.5 Z"/></g>
<g><path style="opacity:1" fill="#4abd43" d="M 30.5,8.5 C 20.5792,12.7533 13.2459,19.7533 8.5,29.5C 7.50837,22.3524 7.17503,15.0191 7.5,7.5C 15.3516,7.17464 23.0182,7.50797 30.5,8.5 Z"/></g>
<g><path style="opacity:1" fill="#4abe43" d="M 69.5,8.5 C 76.6476,7.50837 83.9809,7.17503 91.5,7.5C 91.825,15.0191 91.4916,22.3524 90.5,29.5C 85.8333,20.1667 78.8333,13.1667 69.5,8.5 Z"/></g>
<g><path style="opacity:1" fill="#358e2f" d="M 90.5,29.5 C 91.4916,22.3524 91.825,15.0191 91.5,7.5C 83.9809,7.17503 76.6476,7.50837 69.5,8.5C 68.2438,8.53859 67.2438,8.03859 66.5,7C 75.1603,6.50025 83.8269,6.33358 92.5,6.5C 92.6664,15.1731 92.4998,23.8397 92,32.5C 91.4867,31.4734 90.9867,30.4734 90.5,29.5 Z"/></g>
<g><path style="opacity:1" fill="#49bc43" d="M 42.5,10.5 C 66.3677,9.22537 81.8677,19.892 89,42.5C 91.2638,59.7998 85.4305,73.6331 71.5,84C 49.8051,95.2614 31.3051,91.4281 16,72.5C 4.66054,51.3742 8.16054,33.2075 26.5,18C 31.5424,14.6426 36.8757,12.1426 42.5,10.5 Z"/></g>
<g><path style="opacity:1" fill="#010301" d="M 20.5,28.5 C 40.0761,28.1737 59.5761,28.5071 79,29.5C 78.7409,46.0981 70.5743,56.5981 54.5,61C 57.2068,62.1277 59.7068,63.6277 62,65.5C 63.0269,68.7542 64.5269,71.7542 66.5,74.5C 66.0233,75.4776 65.3567,76.3109 64.5,77C 54.2562,77.8186 44.0895,77.652 34,76.5C 34.7088,69.4347 38.2088,64.1014 44.5,60.5C 37.8286,59.0817 32.3286,55.7484 28,50.5C 25.3311,45.1172 22.6644,39.7839 20,34.5C 19.3224,32.4024 19.4891,30.4024 20.5,28.5 Z"/></g>
<g><path style="opacity:1" fill="#45b33f" d="M 28.5,35.5 C 34.5,35.5 40.5,35.5 46.5,35.5C 46.6663,42.175 46.4996,48.8417 46,55.5C 35.6283,52.6382 29.795,45.9715 28.5,35.5 Z"/></g>
<g><path style="opacity:1" fill="#358d2f" d="M 71.5,36.5 C 65.5,36.5 59.5,36.5 53.5,36.5C 52.88,42.9262 53.5467,48.9262 55.5,54.5C 54.791,55.404 53.791,55.7373 52.5,55.5C 52.5,48.8333 52.5,42.1667 52.5,35.5C 59.0221,35.1765 65.3554,35.5098 71.5,36.5 Z"/></g>
<g><path style="opacity:1" fill="#47b741" d="M 71.5,36.5 C 70.0685,45.9333 64.7352,51.9333 55.5,54.5C 53.5467,48.9262 52.88,42.9262 53.5,36.5C 59.5,36.5 65.5,36.5 71.5,36.5 Z"/></g>
<g><path style="opacity:1" fill="#040a02" d="M 35.5,38.5 C 42.9974,37.8038 44.9974,40.6372 41.5,47C 34.4924,47.5082 32.4924,44.6749 35.5,38.5 Z"/></g>
<g><path style="opacity:1" fill="#020602" d="M 58.5,38.5 C 65.9974,37.8038 67.9974,40.6372 64.5,47C 57.7813,47.7259 55.7813,44.8925 58.5,38.5 Z"/></g>
<g><path style="opacity:1" fill="#358b30" d="M 61.5,41.5 C 64.6741,41.9522 65.0075,42.9522 62.5,44.5C 61.6143,43.675 61.281,42.675 61.5,41.5 Z"/></g>
<g><path style="opacity:1" fill="#286e25" d="M 38.5,41.5 C 40.0847,42.0024 40.5847,43.0024 40,44.5C 38.9614,43.7562 38.4614,42.7562 38.5,41.5 Z"/></g>
<g><path style="opacity:1" fill="#40a73a" d="M 45.5,64.5 C 46.4731,66.9479 46.8064,69.6146 46.5,72.5C 44.396,72.7989 42.396,72.4656 40.5,71.5C 41.4658,68.5314 43.1325,66.198 45.5,64.5 Z"/></g>
<g><path style="opacity:1" fill="#20581d" d="M 54.5,66.5 C 53.5386,68.2646 53.2053,70.2646 53.5,72.5C 52.2031,70.3066 52.2031,67.9732 53.5,65.5C 54.1067,65.6236 54.44,65.9569 54.5,66.5 Z"/></g>
<g><path style="opacity:1" fill="#44af3d" d="M 54.5,66.5 C 57.1213,67.1211 58.788,68.7877 59.5,71.5C 57.604,72.4656 55.604,72.7989 53.5,72.5C 53.2053,70.2646 53.5386,68.2646 54.5,66.5 Z"/></g>
<g><path style="opacity:1" fill="#4abd43" d="M 8.5,71.5 C 12.4647,79.7638 18.4647,86.0971 26.5,90.5C 20.3554,91.4902 14.0221,91.8235 7.5,91.5C 7.17596,84.6457 7.50929,77.979 8.5,71.5 Z"/></g>
<g><path style="opacity:1" fill="#49bc42" d="M 91.5,69.5 C 92.492,76.9818 92.8254,84.6484 92.5,92.5C 85.1591,92.6663 77.8258,92.4997 70.5,92C 80.1058,86.8954 87.1058,79.3954 91.5,69.5 Z"/></g>
<g><path style="opacity:1" fill="#2f7f2a" d="M 8.5,71.5 C 7.50929,77.979 7.17596,84.6457 7.5,91.5C 14.0221,91.8235 20.3554,91.4902 26.5,90.5C 27.4734,90.9867 28.4734,91.4867 29.5,92C 21.8406,92.4997 14.1739,92.6664 6.5,92.5C 6.33365,84.8261 6.50031,77.1594 7,69.5C 7.71719,70.0442 8.21719,70.7109 8.5,71.5 Z"/></g>
</svg>
