<?xml version="1.0" encoding="UTF-8"?>
<!DOCTYPE svg PUBLIC "-//W3C//DTD SVG 1.1//EN" "http://www.w3.org/Graphics/SVG/1.1/DTD/svg11.dtd">
<svg xmlns="http://www.w3.org/2000/svg" version="1.1" width="100px" height="100px" style="shape-rendering:geometricPrecision; text-rendering:geometricPrecision; image-rendering:optimizeQuality; fill-rule:evenodd; clip-rule:evenodd" xmlns:xlink="http://www.w3.org/1999/xlink">
<g><path style="opacity:0.996" fill="#010100" d="M 2.5,-0.5 C 33.8333,-0.5 65.1667,-0.5 96.5,-0.5C 97.1667,0.833333 98.1667,1.83333 99.5,2.5C 99.5,33.8333 99.5,65.1667 99.5,96.5C 98.1667,97.1667 97.1667,98.1667 96.5,99.5C 65.1667,99.5 33.8333,99.5 2.5,99.5C 1.83333,98.1667 0.833333,97.1667 -0.5,96.5C -0.5,65.1667 -0.5,33.8333 -0.5,2.5C 0.833333,1.83333 1.83333,0.833333 2.5,-0.5 Z"/></g>
<g><path style="opacity:1" fill="#c6bf64" d="M 6.5,6.5 C 15.1731,6.33358 23.8397,6.50025 32.5,7C 27.228,9.94108 22.228,13.2744 17.5,17C 13.3879,21.3911 9.88792,26.2245 7,31.5C 6.50027,23.1733 6.3336,14.84 6.5,6.5 Z"/></g>
<g><path style="opacity:1" fill="#c6bf64" d="M 66.5,7.5 C 74.9839,6.50698 83.6506,6.17364 92.5,6.5C 92.6664,15.1731 92.4998,23.8397 92,32.5C 86.9476,20.6139 78.4476,12.2806 66.5,7.5 Z"/></g>
<g><path style="opacity:1" fill="#cac26a" d="M 42.5,10.5 C 66.3677,9.22537 81.8677,19.892 89,42.5C 91.2524,66.8958 80.7524,82.7291 57.5,90C 32.2571,92.0807 16.4238,80.9141 10,56.5C 8.99146,32.6915 19.8248,17.3582 42.5,10.5 Z"/></g>
<g><path style="opacity:1" fill="#040301" d="M 42.5,12.5 C 46.6838,11.7036 49.8504,13.037 52,16.5C 58.3281,13.786 61.8281,15.786 62.5,22.5C 68.1667,22.1667 70.8333,24.8333 70.5,30.5C 75.9316,31.534 77.9316,34.7007 76.5,40C 84.5204,59.2893 78.1871,70.6226 57.5,74C 53.8167,76.687 50.4834,79.687 47.5,83C 34.8763,84.0215 25.2096,79.1881 18.5,68.5C 20.3206,66.5247 21.3206,64.1914 21.5,61.5C 20.5576,57.5237 20.3909,53.5237 21,49.5C 23.7799,42.0474 25.7799,34.3808 27,26.5C 31.7645,21.2277 36.9312,16.5611 42.5,12.5 Z"/></g>
<g><path style="opacity:1" fill="#cdc66e" d="M 44.5,14.5 C 47.6653,14.7515 49.6653,16.4182 50.5,19.5C 49.8482,23.8612 49.0149,28.1946 48,32.5C 46.172,34.0814 44.172,35.4147 42,36.5C 42.3628,32.4704 42.1961,28.4704 41.5,24.5C 40.0043,29.0584 38.671,33.725 37.5,38.5C 35.2269,39.6509 32.8935,40.6509 30.5,41.5C 32.4213,42.641 34.4213,42.8077 36.5,42C 42.9822,38.6749 49.4822,35.5083 56,32.5C 60.7552,33.6868 61.5886,36.1868 58.5,40C 50.6866,46.3124 43.0199,52.8124 35.5,59.5C 37.1353,60.6808 38.802,60.6808 40.5,59.5C 43.3635,65.8633 48.0301,70.3633 54.5,73C 51.7761,74.5221 49.7761,76.6888 48.5,79.5C 37.3529,81.5955 28.3529,78.0955 21.5,69C 22.2106,67.7453 23.044,66.5786 24,65.5C 23.7005,59.8526 23.7005,54.1859 24,48.5C 26.4265,42.3676 28.0932,36.0342 29,29.5C 33.4012,23.597 38.5679,18.597 44.5,14.5 Z"/></g>
<g><path style="opacity:1" fill="#cac36b" d="M 55.5,17.5 C 57.2292,18.1175 58.7292,19.1175 60,20.5C 60.3301,23.866 59.9967,27.1994 59,30.5C 56.5679,29.5504 54.0679,29.5504 51.5,30.5C 52.1621,26.5341 52.4955,22.5341 52.5,18.5C 53.791,18.7373 54.791,18.404 55.5,17.5 Z"/></g>
<g><path style="opacity:1" fill="#cac36b" d="M 62.5,24.5 C 66.1339,24.1565 67.8005,25.8232 67.5,29.5C 66.9878,33.8943 66.1545,38.2276 65,42.5C 63.2536,45.9814 61.087,46.3147 58.5,43.5C 63.7502,40.1651 64.7502,35.8318 61.5,30.5C 62.1556,28.5466 62.4889,26.5466 62.5,24.5 Z"/></g>
<g><path style="opacity:1" fill="#cac36b" d="M 69.5,32.5 C 72.4849,32.8182 74.1515,34.4848 74.5,37.5C 73.9578,41.4998 72.2911,44.8331 69.5,47.5C 68.0089,46.6519 67.3422,45.3186 67.5,43.5C 68.3296,39.8514 68.9963,36.1847 69.5,32.5 Z"/></g>
<g><path style="opacity:1" fill="#cdc66f" d="M 55.5,44.5 C 57.6616,48.3969 60.8283,49.3969 65,47.5C 69.6404,51.5317 72.9737,50.5317 75,44.5C 80.1193,56.4644 76.6193,64.9644 64.5,70C 57.1424,71.2142 50.9758,69.0475 46,63.5C 44.4101,61.3502 43.7434,59.0168 44,56.5C 47.3635,51.9715 51.1969,47.9715 55.5,44.5 Z"/></g>
<g><path style="opacity:1" fill="#777227" d="M 8.5,71.5 C 7.50881,78.3134 7.17547,85.3134 7.5,92.5C 6.34434,85.0113 6.17767,77.3446 7,69.5C 7.71719,70.0442 8.21719,70.7109 8.5,71.5 Z"/></g>
<g><path style="opacity:1" fill="#c7c066" d="M 8.5,71.5 C 13.6701,80.1697 20.6701,87.003 29.5,92C 22.1742,92.4997 14.8409,92.6663 7.5,92.5C 7.17547,85.3134 7.50881,78.3134 8.5,71.5 Z"/></g>
<g><path style="opacity:1" fill="#cac36b" d="M 91.5,69.5 C 92.492,76.9818 92.8254,84.6484 92.5,92.5C 85.1591,92.6663 77.8258,92.4997 70.5,92C 80.1058,86.8954 87.1058,79.3954 91.5,69.5 Z"/></g>
</svg>
