<?xml version="1.0" encoding="UTF-8"?>
<!DOCTYPE svg PUBLIC "-//W3C//DTD SVG 1.1//EN" "http://www.w3.org/Graphics/SVG/1.1/DTD/svg11.dtd">
<svg xmlns="http://www.w3.org/2000/svg" version="1.1" width="100px" height="100px" style="shape-rendering:geometricPrecision; text-rendering:geometricPrecision; image-rendering:optimizeQuality; fill-rule:evenodd; clip-rule:evenodd" xmlns:xlink="http://www.w3.org/1999/xlink">
<g><path style="opacity:0.99" fill="#030101" d="M -0.5,-0.5 C 32.8333,-0.5 66.1667,-0.5 99.5,-0.5C 99.5,32.8333 99.5,66.1667 99.5,99.5C 66.1667,99.5 32.8333,99.5 -0.5,99.5C -0.5,66.1667 -0.5,32.8333 -0.5,-0.5 Z"/></g>
<g><path style="opacity:1" fill="#7c3d44" d="M 92.5,7.5 C 84.3159,7.17428 76.3159,7.50761 68.5,8.5C 67.7109,8.21719 67.0442,7.71719 66.5,7C 75.3433,6.17639 84.0099,6.34305 92.5,7.5 Z"/></g>
<g><path style="opacity:1" fill="#bc5c67" d="M 29.5,8.5 C 22.3524,7.50837 15.0191,7.17503 7.5,7.5C 7.17503,15.0191 7.50837,22.3524 8.5,29.5C 8.21719,30.2891 7.71719,30.9558 7,31.5C 6.50027,23.1733 6.3336,14.84 6.5,6.5C 15.1731,6.33358 23.8397,6.50025 32.5,7C 31.7562,8.03859 30.7562,8.53859 29.5,8.5 Z"/></g>
<g><path style="opacity:1" fill="#fa7b89" d="M 29.5,8.5 C 20.1667,13.1667 13.1667,20.1667 8.5,29.5C 7.50837,22.3524 7.17503,15.0191 7.5,7.5C 15.0191,7.17503 22.3524,7.50837 29.5,8.5 Z"/></g>
<g><path style="opacity:1" fill="#f57986" d="M 68.5,8.5 C 76.3159,7.50761 84.3159,7.17428 92.5,7.5C 92.6664,15.5069 92.4997,23.5069 92,31.5C 86.9284,20.9275 79.0951,13.2608 68.5,8.5 Z"/></g>
<g><path style="opacity:1" fill="#f67a87" d="M 42.5,10.5 C 66.3595,9.21467 81.8595,19.8813 89,42.5C 91.1879,67.3025 80.3546,83.1358 56.5,90C 25.0363,90.5363 9.53632,75.0363 10,43.5C 14.3482,25.9858 25.1816,14.9858 42.5,10.5 Z"/></g>
<g><path style="opacity:1" fill="#0c0506" d="M 42.5,14.5 C 45.1873,14.3359 47.854,14.5026 50.5,15C 51.2744,17.405 51.7744,19.905 52,22.5C 52.5613,23.0219 53.228,23.3552 54,23.5C 56.7838,21.7201 59.2838,19.5535 61.5,17C 65.3541,16.164 68.5208,17.3306 71,20.5C 71.6667,21.5 71.6667,22.5 71,23.5C 69.3149,25.0175 67.8149,26.6841 66.5,28.5C 68.524,30.6898 70.3573,33.0232 72,35.5C 76.3953,52.6777 72.062,67.0111 59,78.5C 57.4977,81.0184 55.9977,83.5184 54.5,86C 46.4491,86.8947 39.9491,84.0614 35,77.5C 27.4876,67.7885 24.4876,56.7885 26,44.5C 27.5795,41.0061 29.4128,37.6728 31.5,34.5C 30.1287,32.1433 28.7954,29.81 27.5,27.5C 28.6602,24.4883 30.8269,22.4883 34,21.5C 36.1749,23.5233 38.6749,24.8566 41.5,25.5C 41.244,21.7307 41.5773,18.0641 42.5,14.5 Z"/></g>
<g><path style="opacity:1" fill="#de6e7a" d="M 44.5,18.5 C 48.0681,18.7593 49.4015,20.7593 48.5,24.5C 47.5,24.5 46.5,24.5 45.5,24.5C 45.1667,22.5 44.8333,20.5 44.5,18.5 Z"/></g>
<g><path style="opacity:1" fill="#de6e7a" d="M 61.5,21.5 C 67.7839,21.8016 68.1172,23.4683 62.5,26.5C 60.2957,25.218 59.9624,23.5514 61.5,21.5 Z"/></g>
<g><path style="opacity:1" fill="#df6e7a" d="M 32.5,26.5 C 33.5,26.5 34.5,26.5 35.5,26.5C 34.5716,33.0919 33.5716,33.0919 32.5,26.5 Z"/></g>
<g><path style="opacity:1" fill="#f17784" d="M 45.5,28.5 C 51.9467,27.4201 57.6134,28.9201 62.5,33C 55.2684,34.1159 48.9351,37.1159 43.5,42C 32.8016,43.3483 31.1349,40.3483 38.5,33C 40.76,31.2117 43.0934,29.7117 45.5,28.5 Z"/></g>
<g><path style="opacity:1" fill="#f37885" d="M 55.5,38.5 C 59.1817,38.3347 62.8484,38.5014 66.5,39C 68.6251,44.0095 68.9584,49.1762 67.5,54.5C 65.9596,52.6132 64.2929,50.7799 62.5,49C 61.5165,48.4092 60.8499,48.7425 60.5,50C 61.7885,52.7412 63.4552,55.2412 65.5,57.5C 60.3858,58.9732 60.3858,60.6399 65.5,62.5C 63.328,68.3389 59.6613,73.0056 54.5,76.5C 53.6679,66.8505 53.1679,57.1838 53,47.5C 52.3333,46.1667 51.6667,46.1667 51,47.5C 49.4134,58.7983 49.2467,70.1317 50.5,81.5C 47.0722,81.4535 44.0722,80.2868 41.5,78C 38.2488,74.5806 35.5821,70.7473 33.5,66.5C 34.3128,65.1861 35.3128,64.0195 36.5,63C 38.8907,62.7132 41.2241,62.2132 43.5,61.5C 44.3857,60.675 44.719,59.675 44.5,58.5C 42.8008,58.6602 41.1341,58.4935 39.5,58C 41.617,55.9654 42.617,53.7987 42.5,51.5C 40.7419,52.1279 39.2419,53.1279 38,54.5C 36.6233,56.7538 35.1233,58.9205 33.5,61C 32.5509,61.6172 31.7175,61.4506 31,60.5C 30.1701,54.8041 30.3368,49.1375 31.5,43.5C 35.8514,46.127 40.5181,46.9603 45.5,46C 48.7342,43.2519 52.0676,40.7519 55.5,38.5 Z"/></g>
<g><path style="opacity:1" fill="#fa7b89" d="M 8.5,71.5 C 12.4459,79.7793 18.4459,86.1126 26.5,90.5C 20.3554,91.4902 14.0221,91.8235 7.5,91.5C 7.17596,84.6457 7.50929,77.979 8.5,71.5 Z"/></g>
<g><path style="opacity:1" fill="#fa7b89" d="M 90.5,72.5 C 91.4902,78.6446 91.8235,84.9779 91.5,91.5C 84.9779,91.8235 78.6446,91.4902 72.5,90.5C 80.1667,86.1667 86.1667,80.1667 90.5,72.5 Z"/></g>
<g><path style="opacity:1" fill="#a6525b" d="M 8.5,71.5 C 7.50929,77.979 7.17596,84.6457 7.5,91.5C 14.0221,91.8235 20.3554,91.4902 26.5,90.5C 27.2891,90.7828 27.9558,91.2828 28.5,92C 21.1742,92.4997 13.8409,92.6663 6.5,92.5C 6.33365,84.8261 6.50031,77.1594 7,69.5C 7.71719,70.0442 8.21719,70.7109 8.5,71.5 Z"/></g>
<g><path style="opacity:1" fill="#bb5c66" d="M 72.5,90.5 C 78.6446,91.4902 84.9779,91.8235 91.5,91.5C 91.8235,84.9779 91.4902,78.6446 90.5,72.5C 90.7828,71.7109 91.2828,71.0442 92,70.5C 92.4997,77.8258 92.6663,85.1591 92.5,92.5C 85.1591,92.6663 77.8258,92.4997 70.5,92C 71.0442,91.2828 71.7109,90.7828 72.5,90.5 Z"/></g>
</svg>
