<?xml version="1.0" encoding="utf-8" ?>
    <svg version="1.1"
        baseProfile="full"
        xmlns="http://www.w3.org/2000/svg"
        xmlns:xlink="http://www.w3.org/1999/xlink" 
         xmlns:rdf="http://www.w3.org/1999/02/22-rdf-syntax-ns#"
         xmlns:cc="http://creativecommons.org/ns#"
         xmlns:dc="http://purl.org/dc/elements/1.1/" 
        preserveAspectRatio="xMidYMid meet" height="1200" width="1000" viewBox="0,0,1030,1230 ">
<metadata>
<rdf:RDF>
      <cc:Work
         rdf:about="">
        <dc:format>image/svg+xml</dc:format>
        <dc:type
           rdf:resource="http://purl.org/dc/dcmitype/StillImage" />
        <dc:rights>
          <cc:Agent>
            <dc:title>This work is licensed under a &lt;a rel=&quot;license&quot; href=&quot;http://creativecommons.org/licenses/by-nc-sa/4.0/&quot;&gt;Creative Commons Attribution-NonCommercial-ShareAlike 4.0 International License&lt;/a&gt;.</dc:title>
          </cc:Agent>
        </dc:rights>
         <dc:creator>
           <cc:Agent>
              <dc:title>ringed-planet/retro-scifi - unknown
mullet/mullet - (Drawshield internal)
heater shape - https://commons.wikimedia.org/wiki/User:MG
</dc:title>
           </cc:Agent>
        </dc:creator>
      </cc:Work>
      </rdf:RDF>
</metadata>
<defs>
      <filter id="shiny" x="0" y="0" width="150%" height="150%">
      <feGaussianBlur in = "SourceAlpha" stdDeviation = "4" result = "blur1"/>
        <feSpecularLighting result = "specOut" in = "blur1" specularExponent = "20" lighting-color = "#696969">
            <fePointLight x = "300" y = "300" z = "500"/>
        </feSpecularLighting>
        <feComposite result="highlight" in = "SourceGraphic" in2 = "specOut" operator = "arithmetic" k1 = "0" k2 = "1" k3 = "1" k4 = "0"/>
      <feOffset result="offOut" in="SourceGraphic" dx="14" dy="14" />
      <feColorMatrix result = "matrixOut" in = "offOut" type = "matrix" values = "0.2 0 0 0 0 0 0.2 0 0 0 0 0 0.2 0 0 0 0 0 1 0"/>
      <feGaussianBlur result="blurOut" in="matrixOut" stdDeviation="10" />
      <feBlend in="highlight" in2="blurOut" mode="normal"/>
    </filter></defs><g  filter="url(#shiny)" ><g mask="url(#mask9-1)"><g><g  fill="#9116a1"><rect x='0' y='0' width='1000' height='1200'><title>Field</title></rect></g><g transform='translate(0,0)'><g  fill="#fcdd07"><g class="PlaceCharge" transform=" translate(100,316.08132347001) scale(0.92763056519058, 0.92763056519058) " >
<title>a planet</title><g  ><g  ><path d="m167.6,123.5   c98.85,-133.9 287.6,-162.4 421.5,-63.54 133.9,98.85 93.77,284.9 6.782,397.4 -86.99,112.5 -230.8,186.5 -364.8,87.68   C97.21,446.1 68.76,257.4 167.6,123.5   z "  opacity="0.5" fill="#999999" stroke="#000000" stroke-width="2" />
<path d="M666.3,478.8   C572.4,616.2 384.8,651.5 247.4,557.5 110,463.5 143.4,276.2 226.3,160.6 309.2,45.06 450.2,-34.11 587.7,59.86   c137.4,93.97 172.6,281.5 78.68,419   z "  stroke="#000000" stroke-width="4" />
</g>
<path  fill="#ffffff" d="M673,150   C815.9,223.9 801,330 628.9,397.2 457.2,464.3 188.7,469.5 2,413.1   c12.64,6.547 26.47,12.84 41.58,18.83 185.8,73.76 488.3,74.21 675.6,1.023 187.3,-73.19 188.4,-192.3 2.602,-266.1 -15.48,-6.145 -31.8,-11.75 -48.77,-16.88   z "  class="feature ringed"  stroke="#000000" stroke-width="4"  fill-opacity="0.999" />
</g>
<g class="881" transform="translate(210.836685,85.699235) scale(0.440739)"><g  fill="#ffffff"><g class="PlaceCharge" transform=" translate(100,100) scale(2, 2) " >
<title>a charge</title><g  fill-rule="evenodd" stroke="#000000" stroke-width="3" ><path d="M 200 3 L 200 3 256.8345 101.55975837723 370.60700454553 101.5 313.669 200 370.60700454553 298.5 256.8345 298.44024162277 200 397 143.1655 298.44024162277 29.392995454466 298.5 86.331 200 29.392995454466 101.5 143.1655 101.55975837723 z"  />
</g>
</g>
</g></g></g>
</g></g></g></g><defs><mask id="mask9-1" >
<path fill="#FFFFFF" d="m 0,0 v 800 c -2.5063876,43.11115 1.2341419,84.33503 21.489586,125.13639 20.255443,40.80137 53.477613,79.98631 98.039434,115.63581 44.56181,35.6494 100.44867,67.7517 164.92346,94.7345 64.47479,26.9828 137.51639,48.8374 215.54752,64.4933 78.03113,-15.6559 151.07273,-37.5105 215.54752,-64.4933 64.47479,-26.9828 120.36165,-59.0851 164.92346,-94.7345 44.56182,-35.6495 77.78399,-74.83444 98.03943,-115.63581 C 998.76586,884.33503 1000.1453,841.93063 1000,800 V 0 Z" />
</mask>
</defs></g></svg>
