<?xml version="1.0" encoding="UTF-8" standalone="no"?>
<svg
   width="567.25"
   height="566.62494"
   version="1.0"
   id="svg1"
   sodipodi:docname="Ihl-logo.svg"
   inkscape:version="1.4 (86a8ad7, 2024-10-11)"
   xmlns:inkscape="http://www.inkscape.org/namespaces/inkscape"
   xmlns:sodipodi="http://sodipodi.sourceforge.net/DTD/sodipodi-0.dtd"
   xmlns="http://www.w3.org/2000/svg"
   xmlns:svg="http://www.w3.org/2000/svg"
   xmlns:rdf="http://www.w3.org/1999/02/22-rdf-syntax-ns#"
   xmlns:cc="http://creativecommons.org/ns#"
   xmlns:dc="http://purl.org/dc/elements/1.1/">
  <defs
     id="defs1" />
  <sodipodi:namedview
     id="namedview1"
     pagecolor="#ffffff"
     bordercolor="#000000"
     borderopacity="0.25"
     inkscape:showpageshadow="2"
     inkscape:pageopacity="0.0"
     inkscape:pagecheckerboard="0"
     inkscape:deskcolor="#d1d1d1"
     inkscape:zoom="0.96464787"
     inkscape:cx="200.07301"
     inkscape:cy="254.49701"
     inkscape:window-width="1920"
     inkscape:window-height="991"
     inkscape:window-x="-9"
     inkscape:window-y="-9"
     inkscape:window-maximized="1"
     inkscape:current-layer="svg1" />
  <metadata
     id="metadata1">
    <rdf:RDF>
      <cc:Work
         rdf:about="">
        <dc:format>image/svg+xml</dc:format>
        <dc:type
           rdf:resource="http://purl.org/dc/dcmitype/StillImage" />
      </cc:Work>
    </rdf:RDF>
  </metadata>
  <circle
     cx="283.312496"
     cy="283.375006"
     r="139"
     fill="#ffffff"
     id="circle1" />
  <path
     transform="translate(-87.803574,-46.192594)"
     style="opacity:1;fill:#000000;fill-opacity:1;fill-rule:nonzero;stroke:#000000;stroke-width:0.0612275;stroke-linecap:butt;stroke-linejoin:miter;stroke-miterlimit:4;stroke-dasharray:none;stroke-opacity:1"
     d="m 370.42857,46.255094 c -4.78159,46.118193 -6.9893,94.254926 -12.875,139.343756 -3.45138,-53.03192 -26.44183,-47.3059 -21.90625,-63.5 12.57582,-41.543053 -25.11735,-24.406553 -17.40625,-69.531256 -19.8145,46.904953 14.59605,37.877533 3.28125,58.968756 -24.8563,39.08801 20.37235,37.29835 8.4375,79.40625 L 263.92857,66.630094 303.64732,201.0051 c -24.75178,-47.49164 -43.54095,-32.81747 -45.96875,-49.5 -5.3534,-43.0734 -32.84104,-12.12575 -44.09375,-56.500003 0.91139,50.910273 28.6948,28.726103 26.90625,52.593753 -6.87841,45.8827 33.86959,25.77442 39.9375,69.375 -0.64029,0.51625 -1.27501,1.03563 -1.90625,1.5625 l -108.875,-88.625 90.71875,106.6875 c -0.14726,0.17514 -0.29105,0.35541 -0.4375,0.53125 -40.57474,-34.51729 -52.4513,-13.99752 -60.9375,-28.53125 -21.09941,-37.93145 -34.97475,1.0526 -62.03125,-35.875 19.91671,46.86164 37.3422,15.88784 44.625,38.6875 10.75145,44.87091 40.72776,11.58776 62.65625,48.75 -0.47747,0.87007 -0.94628,1.74418 -1.40625,2.625 l -133.5625,-41.21875 123.78125,64.78125 c -0.0482,0.15383 -0.0773,0.3147 -0.125,0.46875 -50.25654,-16.44056 -53.56584,6.95524 -66.875,-3.28125 -33.84571,-27.17436 -32.0156,14.15447 -70.999996,-9.84375 36.117896,35.89128 40.594496,0.62998 55.937496,19 26.85245,37.46739 42.0591,-4.55328 76.3125,21.4375 -0.10822,1.01799 -0.1943,2.03833 -0.28125,3.0625 L 87.866074,329.3801 227.08482,342.66135 c 0.0244,0.27154 0.0678,0.54139 0.0937,0.8125 -53.11891,3.13172 -47.51332,26.19309 -63.6875,21.5625 -41.47011,-12.81449 -24.5454,24.93925 -69.624996,16.96875 46.790196,20.08389 37.942946,-14.34215 58.968746,-2.90625 39.02192,25.13065 37.453,-20.33645 79.75,-7.90625 0.23188,0.77167 0.47438,1.5463 0.71875,2.3125 l -125.6875,62.93745 132.25,-38.24995 c -43.52228,23.54339 -30.0905,41.52555 -46.375,43.78125 -43.10921,5.0573 -12.33065,32.77115 -56.78125,43.71865 50.91541,-0.5616 28.8952,-28.48365 52.75,-26.53115 45.48779,7.1391 26.32129,-33.09524 68.6875,-39.34375 0.65704,0.82081 1.32559,1.63145 2,2.4375 L 171.30357,529.88 278.11607,440.25505 c 0.19149,0.1611 0.37016,0.34 0.5625,0.5 -34.56933,40.50335 -14.07846,52.41475 -28.625,60.87495 -37.96774,21.0342 1.00534,35.00732 -35.96875,62.00002 46.89588,-19.836 15.93785,-37.31892 38.75,-44.56242 44.90024,-10.6768 11.66373,-40.7578 48.90625,-62.62495 l -38.875,134.93737 c 10.99862,-12.5425 56.66417,-126.20307 66.3125,-123.40617 -16.20067,50.19055 7.12262,53.38745 -3.0625,66.71877 -27.0649,33.9332 14.27835,31.9696 -9.59375,71.0312 35.77442,-36.2337 0.4922,-40.5666 18.8125,-55.9688 37.3498,-26.95132 -4.6229,-42.06522 21.125,-76.34372 l 15.75,139.34372 c 5.26597,-45.921 6.93362,-94.97562 13.78125,-139.34372 3.81179,52.2631 26.54628,46.5791 22.09375,62.71872 -12.41358,41.5919 25.19105,24.3144 17.65625,69.4688 19.6312,-46.9819 -14.7324,-37.8335 -3.5,-58.9688 24.57654,-38.98322 -20.03686,-37.26192 -8.90625,-78.74997 l 66.6875,123.40627 -37.875,-126.34367 c 22.07912,39.06665 39.19265,27.10395 41.21875,42.90615 4.6202,43.15832 32.6282,12.691 43.125,57.25002 -0.0458,-50.91842 -28.1941,-29.2287 -26,-53.06252 7.64513,-45.68585 -33.28686,-26.4181 -38.71875,-69.84375 l 109.25,88.71875 c -29.13997,-36.3869 -60.87451,-72.39865 -88.8125,-108.8437 40.30489,35.06765 52.40656,14.61605 60.75,29.24995 20.70672,38.14725 35.0137,-0.7049 61.6875,36.49995 -19.43178,-47.06465 -37.2029,-16.25135 -44.25,-39.12495 -10.32453,-45.14076 -40.81717,-11.7838 -62.375,-49.81245 l 134.78125,40.40625 c -40.77864,-22.55902 -83.93187,-43.77174 -123.5625,-66.84375 51.14652,16.79464 54.29423,-6.8991 67.71875,3.34375 33.95062,27.0433 31.95425,-14.31605 71.03125,9.53125 -36.2565,-35.75131 -40.5862,-0.47075 -56,-18.78125 -27.17513,-37.60936 -42.25614,5.2797 -77.09375,-21.65625 l 140.09375,-15.25 -139.84375,-12.78125 c -0.003,-0.031 0.003,-0.0628 0,-0.0937 53.35375,-3.34891 47.59113,-26.42977 63.8125,-21.875 41.53482,12.60324 24.41155,-25.08449 69.53125,-17.34375 -11.723,-4.96132 -19.95105,-6.53759 -26.03125,-6.28125 -18.24058,0.76902 -17.1247,17.9965 -32.9375,9.5 -39.12569,-24.91647 -37.31406,20.45061 -79.59375,8.3125 l 124.53125,-65.875 c -44.91206,12.13157 -91.34667,28.9266 -135.4375,38.9375 48.34577,-24.50075 33.64133,-43.5423 50.40625,-45.84375 43.1153,-5.0046 12.4111,-32.73173 56.875,-43.625 -50.916,0.49941 -28.9601,28.45038 -52.8125,26.46875 -45.94685,-7.26861 -25.96079,33.8626 -70.0625,39.40625 l 88.3125,-110.09375 -107.84375,90.25 c -0.0337,-0.0282 -0.06,-0.0656 -0.0937,-0.0937 35.29593,-41.45172 14.28854,-53.31169 28.875,-61.9375 37.8138,-21.30935 -1.24575,-34.98923 35.53125,-62.250003 -46.75048,20.176163 -15.6786,37.434653 -38.4375,44.843753 -45.15897,11.08558 -10.80879,41.28309 -49.25,63.46875 l 38.6875,-135.718756 c -9.83837,12.247363 -57.69405,126.863816 -65.3125,124.406256 16.32907,-50.79061 -7.22649,-53.88836 2.9375,-67.3125 26.91722,-34.050583 -14.42095,-31.897413 9.28125,-71.062506 -35.6167,36.388793 -0.3093,40.580833 -18.5625,56.062506 -37.33967,27.19152 5.03374,42.08575 -21.03125,76.6875 z m 0.6875,144.375006 c 76.69972,-2e-5 138.9375,62.23777 138.9375,138.9375 1e-5,76.69975 -62.23777,138.93745 -138.9375,138.93745 -76.69973,1e-4 -138.96875,-62.23772 -138.96875,-138.93745 0,-76.6997 62.26902,-138.9375 138.96875,-138.9375 z m -21.59375,23.46875 16.59375,14.65625 v 16.4375 h -27.5 l -14.4375,-16.0625 -0.125,42.78125 14.65625,-16.78125 h 27.28125 l 0.125,80.9375 h -16.0625 v -34.90625 c 0,-3.62578 5.4153,-6.09373 9,-6.09375 h 3.875 v -4.09375 h -40.84375 v 4.15625 h 4.78125 c 3.5761,10e-6 8.1875,2.99276 8.1875,7.09375 v 74.84375 c 0,3.36409 -3.0141,6.96865 -7.9375,6.96875 h -5.09375 v 4.28125 h 40.96875 v -4.28125 h -4.71875 c -4.42538,-3e-5 -8.1875,-3.15815 -8.1875,-6.53125 l -0.0312,-35.53125 16.0625,0.0312 v 1 l 4.53125,29.8125 5.40625,-29.6875 v -1.09375 l 18.03125,0.0625 v 35.59375 c 2e-5,3.00999 -3.62335,6.34375 -8.03125,6.34375 h -6 v 4.0625 h 40.96875 v -3.9375 h -4.78125 c -5.4583,-3e-5 -9.21875,-3.1622 -9.21875,-7.3125 l 0.0625,-73.8125 c 2e-5,-2.82798 3.76595,-7.72168 10.59375,-7.9375 h 3.53125 v -4 l -41.15625,0.0625 v 3.9375 h 3.5 c 5.4413,-0.0434 10.45715,4.72031 10.59375,8.0625 v 32.90625 h -18.09375 v -80.96875 h 28.03125 l 14,18.125 V 228.5676 l -13.21875,16.78125 h -28.75 v -16.25 l 16.96875,-15 z m -85.6875,76.875 v 4.15625 h 4.78125 c 3.5761,10e-6 8.1875,2.99276 8.1875,7.09375 v 74.84375 c 0,3.36409 -3.0141,6.96865 -7.9375,6.96875 h -5.09375 v 4.28125 h 40.96875 v -4.28125 h -4.71875 c -4.42538,-3e-5 -8.1875,-3.15815 -8.1875,-6.53125 l -0.0312,-76.34375 c 0,-3.62578 5.4153,-6.09373 9,-6.09375 h 3.875 v -4.09375 z M 370.05357,403.7551 c -0.56513,-0.002 -1.14387,0.014 -1.71875,0.0312 -2.75938,0.0829 -5.61675,0.38815 -8.65625,1.03125 -1.2516,3.23689 -0.5794,5.04275 0,6.90625 2.8981,0.9088 5.3845,2.3392 6.875,5.125 l 4.25,30.0625 4.40625,-30.59375 c 1.24032,-2.00281 1.8055,-4.2075 6.1875,-5.3125 1.10582,-4.27401 0.169,-4.4631 0,-6.1875 -3.66772,-0.59195 -7.38782,-1.05154 -11.34375,-1.0625 z m -42.84375,17.21875 c -4.25728,5.294 -8.2324,11.01325 -10.75,18.9062 2.19442,2.6885 4.06245,2.9882 5.96875,3.4063 2.223,-2.0695 4.7166,-3.5509 7.875,-3.4688 l 28.21875,11.1875 -24.40625,-18.9687 c -1.1273,-2.06833 -2.73775,-3.6449 -1.53125,-8 -3.16798,-3.07483 -3.7926,-2.3566 -5.375,-3.0625 z m 87.53125,0.4375 c -3.4362,0.48597 -4.68695,1.92905 -6.03125,3.34375 0.62012,2.97329 0.61115,5.87135 -1.09375,8.53125 l -24.1875,18.375 28.875,-11.0625 c 2.3532,0.1061 4.523,-0.474 7.625,2.8125 4.2705,-1.1192 3.98325,-2.0427 5.40625,-3.0313 -2.32618,-6.38276 -5.14335,-12.7294 -10.59375,-18.9687 z"
     id="path1"
     sodipodi:nodetypes="ccccccccccccccccccccccccccccccccccccccccccccccccccccccccccccccccccccccccccccccccccccccsccccccccccccccccccccccsssssccccccccccssccccssscccccscccccccccsccccsccccccccccccccccccccccssscccccsccscccsccccccccscccccccccccccccc" />
  <text
     xml:space="preserve"
     style="font-size:136.038px;text-align:start;writing-mode:lr-tb;direction:ltr;text-anchor:start;fill:#000000;stroke-width:11.3364"
     x="363.17917"
     y="316.9505"
     id="text1"
     transform="scale(0.92693104,1.0788289)"><tspan
       sodipodi:role="line"
       id="tspan1"
       x="363.17917"
       y="316.9505"
       style="font-style:normal;font-variant:normal;font-weight:normal;font-stretch:normal;font-family:'Times New Roman';-inkscape-font-specification:'Times New Roman, ';stroke-width:11.3364">L</tspan></text>
</svg>
