<?xml version="1.0" encoding="UTF-8"?>
<!DOCTYPE svg PUBLIC "-//W3C//DTD SVG 1.1//EN" "http://www.w3.org/Graphics/SVG/1.1/DTD/svg11.dtd">
<svg xmlns="http://www.w3.org/2000/svg" version="1.1" width="6344px" height="4404px" style="shape-rendering:geometricPrecision; text-rendering:geometricPrecision; image-rendering:optimizeQuality; fill-rule:evenodd; clip-rule:evenodd" xmlns:xlink="http://www.w3.org/1999/xlink">
<g><path style="opacity:0.375" fill="#fefefe" d="M -0.5,-0.5 C 2114.17,-0.5 4228.83,-0.5 6343.5,-0.5C 6343.5,1467.5 6343.5,2935.5 6343.5,4403.5C 4228.83,4403.5 2114.17,4403.5 -0.5,4403.5C -0.5,2935.5 -0.5,1467.5 -0.5,-0.5 Z"/></g>
<g><path style="opacity:1" fill="#020202" d="M 2574.5,25.5 C 2580.83,25.5 2587.17,25.5 2593.5,25.5C 2593.44,48.9023 2593.44,72.2356 2593.5,95.5C 2606.96,80.034 2623.96,74.2007 2644.5,78C 2665.87,82.3732 2679.04,95.2065 2684,116.5C 2688.85,137.46 2687.85,158.127 2681,178.5C 2669.46,202.692 2650.29,212.859 2623.5,209C 2611.57,207.203 2601.91,201.536 2594.5,192C 2593.55,191.517 2592.55,191.351 2591.5,191.5C 2590.53,196.641 2589.2,201.641 2587.5,206.5C 2583.28,207.798 2579.12,207.798 2575,206.5C 2574.5,146.168 2574.33,85.8343 2574.5,25.5 Z"/></g>
<g><path style="opacity:1" fill="#020202" d="M 2469.5,35.5 C 2475.43,35.1918 2481.26,35.5251 2487,36.5C 2507.06,89.6694 2527.73,142.669 2549,195.5C 2550.46,199.423 2551.63,203.423 2552.5,207.5C 2545.8,207.83 2539.13,207.497 2532.5,206.5C 2525.82,188.633 2518.66,170.966 2511,153.5C 2510.11,152.919 2509.11,152.585 2508,152.5C 2486.18,153.14 2464.35,153.807 2442.5,154.5C 2435.38,172.033 2428.38,189.533 2421.5,207C 2415.18,207.5 2408.84,207.666 2402.5,207.5C 2423.72,149.733 2446.05,92.3995 2469.5,35.5 Z"/></g>
<g><path style="opacity:1" fill="#020202" d="M 2845.5,49.5 C 2848.83,49.5 2852.17,49.5 2855.5,49.5C 2855.5,59.5 2855.5,69.5 2855.5,79.5C 2868.17,79.5 2880.83,79.5 2893.5,79.5C 2894.07,84.6483 2893.41,89.4816 2891.5,94C 2879.59,94.1775 2867.76,94.6775 2856,95.5C 2855.33,120.5 2855.33,145.5 2856,170.5C 2855.8,180.951 2860.3,188.451 2869.5,193C 2877.52,193.442 2885.52,193.442 2893.5,193C 2894.63,196.744 2894.79,200.577 2894,204.5C 2892.12,206.859 2889.62,208.193 2886.5,208.5C 2878.86,209.602 2871.2,209.768 2863.5,209C 2850.11,205.944 2841.61,197.777 2838,184.5C 2836.74,154.858 2836.08,125.192 2836,95.5C 2830.58,94.6911 2825.08,94.1911 2819.5,94C 2816.57,90.304 2816.91,86.9707 2820.5,84C 2825.17,82 2829.83,80 2834.5,78C 2835.33,77.1667 2836.17,76.3333 2837,75.5C 2839.53,66.6366 2842.36,57.9699 2845.5,49.5 Z"/></g>
<g><path style="opacity:1" fill="#030303" d="M 3276.5,49.5 C 3279.52,49.3354 3282.52,49.502 3285.5,50C 3286,50.5 3286.5,51 3287,51.5C 3287.5,60.8274 3287.67,70.1607 3287.5,79.5C 3299.92,78.8659 3312.08,79.5325 3324,81.5C 3324.77,85.5575 3324.6,89.5575 3323.5,93.5C 3311.61,94.1762 3299.77,94.8429 3288,95.5C 3287.33,123.5 3287.33,151.5 3288,179.5C 3290.47,185.635 3294.64,190.135 3300.5,193C 3308.52,193.39 3316.52,193.39 3324.5,193C 3325.63,197.079 3325.8,201.245 3325,205.5C 3321.54,207.66 3317.71,208.827 3313.5,209C 3297.83,212.299 3284.67,208.133 3274,196.5C 3270.42,190.682 3268.42,184.348 3268,177.5C 3267.67,150.167 3267.33,122.833 3267,95.5C 3261.92,94.6929 3256.75,94.1929 3251.5,94C 3247.9,90.5782 3247.9,87.2449 3251.5,84C 3255.28,81.7754 3259.28,80.1087 3263.5,79C 3265,77.5 3266.5,76 3268,74.5C 3270.38,65.9739 3273.21,57.6405 3276.5,49.5 Z"/></g>
<g><path style="opacity:1" fill="#fcfcfc" d="M 2476.5,60.5 C 2477.5,60.4142 2478.33,60.7476 2479,61.5C 2487.41,86.2296 2495.91,110.896 2504.5,135.5C 2486.5,135.5 2468.5,135.5 2450.5,135.5C 2456.47,116.545 2463.31,97.8783 2471,79.5C 2472.77,73.1098 2474.61,66.7764 2476.5,60.5 Z"/></g>
<g><path style="opacity:1" fill="#020202" d="M 2753.5,76.5 C 2764.62,76.5316 2775.62,77.6983 2786.5,80C 2791.18,81.4217 2795.68,83.255 2800,85.5C 2798.98,90.538 2797.15,95.3713 2794.5,100C 2786.7,97.6299 2778.7,95.6299 2770.5,94C 2762.5,93.3333 2754.5,93.3333 2746.5,94C 2735.25,96.5503 2730.41,103.384 2732,114.5C 2734.13,117.63 2736.63,120.463 2739.5,123C 2754.22,130.241 2769.22,136.908 2784.5,143C 2804.75,155.12 2809.25,171.62 2798,192.5C 2789.42,202.373 2778.59,207.873 2765.5,209C 2752.4,210.034 2739.4,209.367 2726.5,207C 2722,205.834 2717.84,204 2714,201.5C 2713.17,195.804 2713.34,190.137 2714.5,184.5C 2733.41,193.772 2753.07,195.939 2773.5,191C 2784.37,185.349 2787.54,176.849 2783,165.5C 2778.29,160.558 2772.79,156.725 2766.5,154C 2752.59,149.148 2739.26,143.148 2726.5,136C 2712.42,124.2 2709.59,110.034 2718,93.5C 2727.64,83.1261 2739.48,77.4595 2753.5,76.5 Z"/></g>
<g><path style="opacity:1" fill="#060606" d="M 2972.5,76.5 C 2979.22,76.2896 2985.89,76.7896 2992.5,78C 2993.11,79.231 2993.44,80.5643 2993.5,82C 2992.78,86.5022 2992.11,91.0022 2991.5,95.5C 2963.88,90.951 2946.71,102.284 2940,129.5C 2939.5,155.498 2939.33,181.498 2939.5,207.5C 2932.83,207.5 2926.17,207.5 2919.5,207.5C 2919.5,164.833 2919.5,122.167 2919.5,79.5C 2925.09,79.1934 2930.59,79.5268 2936,80.5C 2936.9,87.4895 2937.73,94.4895 2938.5,101.5C 2944.01,95.4879 2949.68,89.6546 2955.5,84C 2960.87,80.6071 2966.54,78.1071 2972.5,76.5 Z"/></g>
<g><path style="opacity:1" fill="#020202" d="M 3055.5,77.5 C 3067.39,76.6894 3079.06,77.8561 3090.5,81C 3103.13,86.7572 3109.97,96.5906 3111,110.5C 3111.5,142.832 3111.67,175.165 3111.5,207.5C 3106.46,207.827 3101.46,207.494 3096.5,206.5C 3095.88,200.734 3094.71,195.068 3093,189.5C 3088.53,192.965 3084.37,196.798 3080.5,201C 3067.65,209.025 3053.65,211.692 3038.5,209C 3015.6,203.063 3005.77,188.23 3009,164.5C 3012.2,151.627 3020.04,142.793 3032.5,138C 3040.26,135.061 3048.26,133.061 3056.5,132C 3068.21,131.813 3079.88,131.313 3091.5,130.5C 3095.41,101.247 3082.75,89.0804 3053.5,94C 3046.62,95.7204 3039.95,98.0538 3033.5,101C 3031.56,101.743 3029.73,101.576 3028,100.5C 3027.19,97.5544 3025.86,94.8877 3024,92.5C 3023.2,90.7412 3023.37,89.0745 3024.5,87.5C 3034.31,82.1165 3044.65,78.7832 3055.5,77.5 Z"/></g>
<g><path style="opacity:1" fill="#020202" d="M 3188.5,77.5 C 3201.61,76.8998 3214.61,77.7332 3227.5,80C 3233.83,80.3202 3236.33,83.4868 3235,89.5C 3233.48,92.3823 3232.15,95.3823 3231,98.5C 3230.44,99.0219 3229.77,99.3552 3229,99.5C 3217.24,94.9666 3205.07,93.4666 3192.5,95C 3180.04,97.8163 3171.87,105.316 3168,117.5C 3163.38,134.804 3163.38,152.137 3168,169.5C 3172.28,181.224 3180.44,188.724 3192.5,192C 3199.5,192.667 3206.5,192.667 3213.5,192C 3220.75,189.97 3228.08,188.47 3235.5,187.5C 3235.67,192.179 3235.5,196.845 3235,201.5C 3228.78,206.467 3221.61,208.967 3213.5,209C 3174.78,213.601 3151.94,196.768 3145,158.5C 3140.37,132.521 3146.53,109.687 3163.5,90C 3171.1,84.2002 3179.43,80.0335 3188.5,77.5 Z"/></g>
<g><path style="opacity:1" fill="#fefefe" d="M 2621.5,93.5 C 2647.47,90.3082 2662.3,101.642 2666,127.5C 2666.67,137.833 2666.67,148.167 2666,158.5C 2662.38,184.552 2647.55,196.052 2621.5,193C 2608.03,189.527 2599.53,181.027 2596,167.5C 2592.11,148.963 2592.78,130.63 2598,112.5C 2602.8,102.176 2610.64,95.8427 2621.5,93.5 Z"/></g>
<g><path style="opacity:1" fill="#fdfdfd" d="M 3086.5,143.5 C 3088.14,143.286 3089.64,143.62 3091,144.5C 3094.74,181.429 3078.24,197.263 3041.5,192C 3029.93,185.829 3026.1,176.329 3030,163.5C 3036.28,153.27 3045.44,147.437 3057.5,146C 3067.36,145.617 3077.02,144.783 3086.5,143.5 Z"/></g>
<g><path style="opacity:1" fill="#070707" d="M 2392.5,361.5 C 2398.83,361.5 2405.17,361.5 2411.5,361.5C 2411.5,422.167 2411.5,482.833 2411.5,543.5C 2404.83,543.5 2398.17,543.5 2391.5,543.5C 2391.17,482.792 2391.51,422.125 2392.5,361.5 Z"/></g>
<g><path style="opacity:1" fill="#070707" d="M 2452.5,361.5 C 2458.83,361.5 2465.17,361.5 2471.5,361.5C 2471.5,422.167 2471.5,482.833 2471.5,543.5C 2464.83,543.5 2458.17,543.5 2451.5,543.5C 2451.17,482.792 2451.51,422.125 2452.5,361.5 Z"/></g>
<g><path style="opacity:1" fill="#020202" d="M 2766.5,361.5 C 2772.83,361.5 2779.17,361.5 2785.5,361.5C 2785.44,384.902 2785.44,408.236 2785.5,431.5C 2798.96,416.034 2815.96,410.201 2836.5,414C 2857.87,418.373 2871.04,431.206 2876,452.5C 2880.85,473.46 2879.85,494.127 2873,514.5C 2861.46,538.692 2842.29,548.859 2815.5,545C 2803.57,543.203 2793.91,537.536 2786.5,528C 2785.55,527.517 2784.55,527.351 2783.5,527.5C 2782.53,532.641 2781.2,537.641 2779.5,542.5C 2775.28,543.798 2771.12,543.798 2767,542.5C 2766.5,482.168 2766.33,421.834 2766.5,361.5 Z"/></g>
<g><path style="opacity:1" fill="#000000" d="M 2913.5,361.5 C 2919.76,361.19 2925.92,361.524 2932,362.5C 2932.67,422.5 2932.67,482.5 2932,542.5C 2925.92,543.476 2919.76,543.81 2913.5,543.5C 2913.5,482.833 2913.5,422.167 2913.5,361.5 Z"/></g>
<g><path style="opacity:1" fill="#070707" d="M 3600.5,361.5 C 3606.83,361.5 3613.17,361.5 3619.5,361.5C 3619.5,422.167 3619.5,482.833 3619.5,543.5C 3612.83,543.5 3606.17,543.5 3599.5,543.5C 3599.17,482.792 3599.51,422.125 3600.5,361.5 Z"/></g>
<g><path style="opacity:1" fill="#010101" d="M 3747.5,361.5 C 3753.83,361.5 3760.17,361.5 3766.5,361.5C 3766.2,422.178 3766.53,482.845 3767.5,543.5C 3762.13,543.828 3756.79,543.495 3751.5,542.5C 3749.85,537.646 3749.18,532.646 3749.5,527.5C 3748.45,527.351 3747.45,527.517 3746.5,528C 3732.78,543.024 3715.78,548.691 3695.5,545C 3673.29,538.791 3660.13,524.291 3656,501.5C 3652.94,482.148 3654.27,463.148 3660,444.5C 3671.86,419.013 3691.69,408.846 3719.5,414C 3730.59,416.438 3739.59,422.105 3746.5,431C 3747.45,431.617 3748.28,431.451 3749,430.5C 3747.58,407.606 3747.08,384.606 3747.5,361.5 Z"/></g>
<g><path style="opacity:1" fill="#040404" d="M 1969.5,367.5 C 1981.25,366.414 1986.41,371.748 1985,383.5C 1983.45,390.801 1978.95,393.968 1971.5,393C 1964.03,390.066 1961.2,384.566 1963,376.5C 1964.58,373.084 1966.75,370.084 1969.5,367.5 Z"/></g>
<g><path style="opacity:1" fill="#050505" d="M 2518.5,367.5 C 2531.86,367.719 2536.69,374.385 2533,387.5C 2524.65,396.098 2517.65,395.098 2512,384.5C 2510.31,377.241 2512.47,371.575 2518.5,367.5 Z"/></g>
<g><path style="opacity:1" fill="#050505" d="M 2710.5,367.5 C 2723.86,367.719 2728.69,374.385 2725,387.5C 2716.65,396.098 2709.65,395.098 2704,384.5C 2702.31,377.241 2704.47,371.575 2710.5,367.5 Z"/></g>
<g><path style="opacity:1" fill="#020202" d="M 2184.5,384.5 C 2187.67,384.664 2190.51,385.664 2193,387.5C 2193.5,396.827 2193.67,406.161 2193.5,415.5C 2205.83,415.5 2218.17,415.5 2230.5,415.5C 2230.67,419.846 2230.5,424.179 2230,428.5C 2229.5,429 2229,429.5 2228.5,430C 2216.59,430.178 2204.76,430.678 2193,431.5C 2192.13,459.519 2192.47,487.519 2194,515.5C 2195.79,522.287 2199.96,526.787 2206.5,529C 2214.85,529.519 2223.18,529.352 2231.5,528.5C 2231.67,532.846 2231.5,537.179 2231,541.5C 2227.85,543.502 2224.35,544.668 2220.5,545C 2204.49,548.464 2190.99,544.297 2180,532.5C 2176.5,527.007 2174.5,521.007 2174,514.5C 2173.5,486.502 2173.33,458.502 2173.5,430.5C 2167.5,430.5 2161.5,430.5 2155.5,430.5C 2155.18,427.102 2155.51,423.768 2156.5,420.5C 2160.6,418.115 2164.94,416.282 2169.5,415C 2171.09,413.954 2172.59,412.787 2174,411.5C 2175.79,404.464 2177.79,397.464 2180,390.5C 2181.28,388.253 2182.78,386.253 2184.5,384.5 Z"/></g>
<g><path style="opacity:1" fill="#010101" d="M 3555.5,412.5 C 3561.97,412.081 3568.31,412.747 3574.5,414.5C 3575.48,419.833 3575.32,425.166 3574,430.5C 3546.19,426.65 3528.86,438.316 3522,465.5C 3521.5,491.498 3521.33,517.498 3521.5,543.5C 3515.24,543.81 3509.08,543.476 3503,542.5C 3502.33,500.5 3502.33,458.5 3503,416.5C 3508,415.167 3513,415.167 3518,416.5C 3519.16,423.453 3519.66,430.453 3519.5,437.5C 3520.68,437.719 3521.68,437.386 3522.5,436.5C 3530.65,424.289 3541.65,416.289 3555.5,412.5 Z"/></g>
<g><path style="opacity:1" fill="#010101" d="M 2079.5,412.5 C 2092.21,411.831 2104.21,414.331 2115.5,420C 2123.87,425.71 2129.04,433.543 2131,443.5C 2132.6,476.475 2132.93,509.475 2132,542.5C 2125.92,543.476 2119.76,543.81 2113.5,543.5C 2113.67,513.831 2113.5,484.165 2113,454.5C 2110.55,437.051 2100.55,428.718 2083,429.5C 2059.39,429.776 2046.72,441.776 2045,465.5C 2044.67,491.167 2044.33,516.833 2044,542.5C 2037.92,543.476 2031.76,543.81 2025.5,543.5C 2025.5,500.833 2025.5,458.167 2025.5,415.5C 2030.51,415.334 2035.51,415.501 2040.5,416C 2042.01,421.047 2043.01,426.213 2043.5,431.5C 2044.55,431.649 2045.55,431.483 2046.5,431C 2054.9,420.134 2065.9,413.968 2079.5,412.5 Z"/></g>
<g><path style="opacity:1" fill="#040404" d="M 2292.5,413.5 C 2319.59,408.469 2339.76,417.802 2353,441.5C 2357.88,455.077 2359.71,469.077 2358.5,483.5C 2329.17,483.5 2299.83,483.5 2270.5,483.5C 2271.82,517.65 2289.49,532.483 2323.5,528C 2333.67,526.401 2343.67,524.234 2353.5,521.5C 2353.67,526.179 2353.5,530.845 2353,535.5C 2352.17,537 2351,538.167 2349.5,539C 2328.01,546.763 2306.34,547.429 2284.5,541C 2267.02,532.848 2256.18,519.348 2252,500.5C 2247.4,478.067 2250.4,456.733 2261,436.5C 2269.03,425.257 2279.53,417.59 2292.5,413.5 Z"/></g>
<g><path style="opacity:1" fill="#020202" d="M 2614.5,412.5 C 2620.94,412.487 2627.27,413.321 2633.5,415C 2648.83,415.5 2664.16,415.667 2679.5,415.5C 2679.5,419.5 2679.5,423.5 2679.5,427.5C 2672.17,428.24 2664.84,428.907 2657.5,429.5C 2659.56,435.33 2661.4,441.33 2663,447.5C 2666.27,471.469 2656.43,487.302 2633.5,495C 2622.77,495.855 2612.1,496.855 2601.5,498C 2595.98,501.515 2592.98,506.515 2592.5,513C 2593.31,517.15 2595.65,520.15 2599.5,522C 2615.12,523.253 2630.79,523.92 2646.5,524C 2669.72,528.273 2679.88,542.106 2677,565.5C 2673.46,580.044 2664.62,589.877 2650.5,595C 2632.18,600.12 2613.52,601.787 2594.5,600C 2572.75,597.748 2560.42,585.914 2557.5,564.5C 2559.79,548.219 2568.79,537.886 2584.5,533.5C 2573.48,522.872 2572.65,511.539 2582,499.5C 2584.64,498.024 2586.81,496.024 2588.5,493.5C 2567.87,477.095 2563.03,456.762 2574,432.5C 2584.18,418.994 2597.68,412.327 2614.5,412.5 Z"/></g>
<g><path style="opacity:1" fill="#040404" d="M 3017.5,412.5 C 3050.99,412.162 3070.16,428.496 3075,461.5C 3075.5,468.826 3075.67,476.159 3075.5,483.5C 3046.17,483.5 3016.83,483.5 2987.5,483.5C 2988.93,518.074 3006.93,532.907 3041.5,528C 3051.31,526.272 3060.98,524.106 3070.5,521.5C 3070.67,526.179 3070.5,530.845 3070,535.5C 3069.5,537.333 3068.33,538.5 3066.5,539C 3045.01,546.711 3023.34,547.378 3001.5,541C 2977.34,528.198 2966.01,508.031 2967.5,480.5C 2966.43,462.881 2970.93,446.881 2981,432.5C 2990.78,421.166 3002.95,414.5 3017.5,412.5 Z"/></g>
<g><path style="opacity:1" fill="#020202" d="M 3401.5,412.5 C 3437.67,411.16 3459.5,428.16 3467,463.5C 3470.31,484.89 3466.65,504.89 3456,523.5C 3439.13,543.02 3417.96,549.854 3392.5,544C 3370.35,536.534 3356.85,521.367 3352,498.5C 3348.14,478.015 3350.47,458.349 3359,439.5C 3369.07,424.047 3383.24,415.047 3401.5,412.5 Z"/></g>
<g><path style="opacity:1" fill="#060606" d="M 1963.5,415.5 C 1970.17,415.5 1976.83,415.5 1983.5,415.5C 1983.5,458.167 1983.5,500.833 1983.5,543.5C 1976.83,543.5 1970.17,543.5 1963.5,543.5C 1963.5,500.833 1963.5,458.167 1963.5,415.5 Z"/></g>
<g><path style="opacity:1" fill="#000000" d="M 2513.5,415.5 C 2519.76,415.19 2525.92,415.524 2532,416.5C 2532.67,458.5 2532.67,500.5 2532,542.5C 2525.92,543.476 2519.76,543.81 2513.5,543.5C 2513.5,500.833 2513.5,458.167 2513.5,415.5 Z"/></g>
<g><path style="opacity:1" fill="#000000" d="M 2705.5,415.5 C 2711.76,415.19 2717.92,415.524 2724,416.5C 2724.67,458.5 2724.67,500.5 2724,542.5C 2717.92,543.476 2711.76,543.81 2705.5,543.5C 2705.5,500.833 2705.5,458.167 2705.5,415.5 Z"/></g>
<g><path style="opacity:1" fill="#020202" d="M 3153.5,415.5 C 3160.17,415.334 3166.84,415.5 3173.5,416C 3182.54,450.861 3191.71,485.694 3201,520.5C 3211.12,485.436 3221.95,450.602 3233.5,416C 3240.5,415.333 3247.5,415.333 3254.5,416C 3266.27,450.818 3276.94,485.984 3286.5,521.5C 3295.64,487.594 3304.48,453.594 3313,419.5C 3313.47,418.069 3314.3,416.903 3315.5,416C 3321.82,415.5 3328.16,415.334 3334.5,415.5C 3322.83,458.163 3311.17,500.83 3299.5,543.5C 3291.5,543.5 3283.5,543.5 3275.5,543.5C 3264.96,508.327 3254.3,473.327 3243.5,438.5C 3232.99,473.539 3222.32,508.539 3211.5,543.5C 3203.58,543.815 3195.75,543.482 3188,542.5C 3176.58,500.08 3165.08,457.747 3153.5,415.5 Z"/></g>
<g><path style="opacity:1" fill="#fdfdfd" d="M 2605.5,427.5 C 2612.51,427.334 2619.51,427.5 2626.5,428C 2638.93,432.291 2644.93,441.125 2644.5,454.5C 2645.28,465.085 2641.62,473.585 2633.5,480C 2621.32,484.988 2609.32,484.654 2597.5,479C 2588.11,470.479 2584.94,459.979 2588,447.5C 2590.52,437.816 2596.36,431.15 2605.5,427.5 Z"/></g>
<g><path style="opacity:1" fill="#fdfdfd" d="M 2296.5,429.5 C 2323.89,426.73 2337.39,439.064 2337,466.5C 2315.24,467.494 2293.41,467.827 2271.5,467.5C 2271.37,449.056 2279.7,436.39 2296.5,429.5 Z"/></g>
<g><path style="opacity:1" fill="#fefefe" d="M 2813.5,429.5 C 2839.47,426.308 2854.3,437.642 2858,463.5C 2858.67,473.833 2858.67,484.167 2858,494.5C 2854.38,520.552 2839.55,532.052 2813.5,529C 2800.03,525.527 2791.53,517.027 2788,503.5C 2784.11,484.963 2784.78,466.63 2790,448.5C 2794.8,438.176 2802.64,431.843 2813.5,429.5 Z"/></g>
<g><path style="opacity:1" fill="#fcfcfc" d="M 3013.5,429.5 C 3040.91,426.751 3054.41,439.085 3054,466.5C 3032.24,467.66 3010.41,467.827 2988.5,467C 2988.48,448.847 2996.82,436.347 3013.5,429.5 Z"/></g>
<g><path style="opacity:1" fill="#fefefe" d="M 3398.5,429.5 C 3425.73,425.902 3441.9,437.568 3447,464.5C 3449.17,481.073 3447.17,497.073 3441,512.5C 3431.17,526.623 3417.67,532.123 3400.5,529C 3384.86,524.689 3375.36,514.522 3372,498.5C 3369.53,483.005 3370.19,467.672 3374,452.5C 3378.51,440.822 3386.68,433.155 3398.5,429.5 Z"/></g>
<g><path style="opacity:1" fill="#fefefe" d="M 3700.5,429.5 C 3725.79,425.373 3740.96,435.707 3746,460.5C 3748.76,477.758 3747.76,494.758 3743,511.5C 3737.98,521.199 3730.14,527.032 3719.5,529C 3695.76,532.568 3681.26,522.735 3676,499.5C 3673.52,483.673 3674.19,468.006 3678,452.5C 3681.68,440.984 3689.18,433.317 3700.5,429.5 Z"/></g>
<g><path style="opacity:1" fill="#030303" d="M 4707.5,511.5 C 4719.48,510.73 4724.64,516.397 4723,528.5C 4719.27,536.629 4713.44,538.796 4705.5,535C 4701.18,530.689 4699.68,525.523 4701,519.5C 4702.36,516.097 4704.53,513.431 4707.5,511.5 Z"/></g>
<g><path style="opacity:1" fill="#020202" d="M 4197.5,513.5 C 4215.67,513.316 4233.34,516.149 4250.5,522C 4253.39,522.869 4254.56,524.702 4254,527.5C 4252.08,531.088 4250.24,534.754 4248.5,538.5C 4247.56,539.553 4246.4,540.22 4245,540.5C 4221.99,530.642 4198.49,529.142 4174.5,536C 4152.38,546.035 4139.88,563.201 4137,587.5C 4134.92,605.342 4136.92,622.676 4143,639.5C 4151.6,656.746 4165.43,667.246 4184.5,671C 4201.27,673.151 4217.94,672.484 4234.5,669C 4235.42,668.626 4236.25,668.126 4237,667.5C 4237.5,650.17 4237.67,632.837 4237.5,615.5C 4224.83,615.5 4212.17,615.5 4199.5,615.5C 4199.33,610.156 4199.5,604.823 4200,599.5C 4200.5,599 4201,598.5 4201.5,598C 4220.07,597.175 4238.57,597.341 4257,598.5C 4257.67,625.833 4257.67,653.167 4257,680.5C 4244.24,684.987 4231.07,687.82 4217.5,689C 4202.07,690.121 4186.74,689.455 4171.5,687C 4137.81,675.625 4119.31,652.125 4116,616.5C 4111.8,588.116 4118.47,562.783 4136,540.5C 4153.08,523.642 4173.58,514.642 4197.5,513.5 Z"/></g>
<g><path style="opacity:1" fill="#fdfdfd" d="M 2597.5,540.5 C 2610.84,540.333 2624.17,540.5 2637.5,541C 2657.85,542.673 2663.68,552.839 2655,571.5C 2650.73,577.72 2644.89,581.553 2637.5,583C 2621.46,587.566 2605.46,587.566 2589.5,583C 2577.82,577.375 2573.99,568.209 2578,555.5C 2582.08,547.247 2588.58,542.247 2597.5,540.5 Z"/></g>
<g><path style="opacity:1" fill="#040404" d="M 4348.5,556.5 C 4363.28,555.181 4376.95,558.348 4389.5,566C 4397.59,573.355 4402.09,582.521 4403,593.5C 4403.5,624.832 4403.67,656.165 4403.5,687.5C 4396.83,687.5 4390.17,687.5 4383.5,687.5C 4383.97,654.784 4383.47,622.117 4382,589.5C 4376.47,577.73 4367.14,572.396 4354,573.5C 4331.31,573.522 4318.64,584.855 4316,607.5C 4315.5,634.165 4315.33,660.831 4315.5,687.5C 4308.83,687.5 4302.17,687.5 4295.5,687.5C 4295.5,644.833 4295.5,602.167 4295.5,559.5C 4300.84,559.334 4306.18,559.501 4311.5,560C 4313.15,563.94 4313.98,568.107 4314,572.5C 4314.37,573.91 4315.2,574.91 4316.5,575.5C 4325.06,565.554 4335.73,559.221 4348.5,556.5 Z"/></g>
<g><path style="opacity:1" fill="#020202" d="M 4488.5,556.5 C 4524.89,555.437 4546.39,572.77 4553,608.5C 4555.74,627.4 4553.07,645.4 4545,662.5C 4536.65,677.1 4524.15,685.933 4507.5,689C 4482.4,693.52 4462.23,685.687 4447,665.5C 4436.72,645.636 4433.72,624.636 4438,602.5C 4444.6,575.723 4461.44,560.39 4488.5,556.5 Z"/></g>
<g><path style="opacity:1" fill="#030303" d="M 4623.5,556.5 C 4637.98,556.362 4651.98,558.862 4665.5,564C 4666.8,564.804 4667.47,565.971 4667.5,567.5C 4665.58,571.012 4663.91,574.679 4662.5,578.5C 4660.24,579.647 4657.9,579.814 4655.5,579C 4639.8,572.972 4623.8,571.972 4607.5,576C 4595.64,585.12 4595.64,594.453 4607.5,604C 4618.51,609.448 4629.84,614.115 4641.5,618C 4647.48,621.3 4653.48,624.634 4659.5,628C 4668.98,636.428 4672.48,646.928 4670,659.5C 4667.41,671.839 4660.24,680.339 4648.5,685C 4630.37,690.159 4612.04,690.826 4593.5,687C 4589,685.834 4584.84,684 4581,681.5C 4580.19,675.916 4580.36,670.416 4581.5,665C 4590.14,668.416 4599.14,671.082 4608.5,673C 4616.5,673.667 4624.5,673.667 4632.5,673C 4647.65,670.87 4653.81,662.37 4651,647.5C 4646.92,642.036 4641.75,637.869 4635.5,635C 4622.17,630.111 4609.17,624.445 4596.5,618C 4583.27,609.714 4578.11,597.88 4581,582.5C 4584.97,571.076 4592.8,563.576 4604.5,560C 4610.91,558.438 4617.24,557.271 4623.5,556.5 Z"/></g>
<g><path style="opacity:1" fill="#020202" d="M 4798.5,556.5 C 4812.93,556.62 4826.93,559.12 4840.5,564C 4841.52,564.519 4842.18,565.353 4842.5,566.5C 4840.84,570.495 4839.17,574.495 4837.5,578.5C 4836.67,579.415 4835.67,580.081 4834.5,580.5C 4819.79,574.127 4804.46,571.96 4788.5,574C 4772.85,578.601 4769.52,587.601 4778.5,601C 4782.84,604.172 4787.51,606.839 4792.5,609C 4804.91,613.024 4816.91,618.024 4828.5,624C 4845.11,634.423 4849.94,648.923 4843,667.5C 4834.91,680.637 4823.08,687.804 4807.5,689C 4790.3,691.082 4773.63,689.082 4757.5,683C 4757,682.5 4756.5,682 4756,681.5C 4755.5,675.843 4755.33,670.176 4755.5,664.5C 4767.98,670.231 4781.15,673.231 4795,673.5C 4803.6,674.299 4811.77,672.799 4819.5,669C 4829.56,659.901 4829.89,650.568 4820.5,641C 4816.47,638.653 4812.47,636.32 4808.5,634C 4795.82,629.492 4783.48,624.159 4771.5,618C 4754.56,606.696 4750.73,591.863 4760,573.5C 4770.31,561.926 4783.14,556.259 4798.5,556.5 Z"/></g>
<g><path style="opacity:1" fill="#000000" d="M 4703.5,559.5 C 4709.5,559.5 4715.5,559.5 4721.5,559.5C 4721.5,602.167 4721.5,644.833 4721.5,687.5C 4715.24,687.81 4709.08,687.476 4703,686.5C 4702.17,644.096 4702.34,601.762 4703.5,559.5 Z"/></g>
<g><path style="opacity:1" fill="#fefefe" d="M 4485.5,573.5 C 4512.72,570.564 4528.56,582.564 4533,609.5C 4535.74,627.093 4533.07,643.759 4525,659.5C 4510,674.88 4492.83,677.714 4473.5,668C 4465.42,661.344 4460.25,652.844 4458,642.5C 4455.49,627 4456.16,611.667 4460,596.5C 4464.58,584.415 4473.08,576.749 4485.5,573.5 Z"/></g>
<g><path style="opacity:1" fill="#000000" d="M 2861.5,706.5 C 2865.53,706.672 2869.53,707.172 2873.5,708C 2875.92,709.663 2877.75,711.829 2879,714.5C 2879.67,883.833 2879.67,1053.17 2879,1222.5C 2873.97,1230.07 2867.13,1232.23 2858.5,1229C 2855.6,1226.76 2853.43,1223.93 2852,1220.5C 2851.33,1052.5 2851.33,884.5 2852,716.5C 2853.35,711.319 2856.52,707.986 2861.5,706.5 Z"/></g>
<g><path style="opacity:1" fill="#010101" d="M 3983.5,783.5 C 3993.21,784.208 3999.21,789.375 4001.5,799C 3999.33,804.177 3996,808.511 3991.5,812C 3802.32,947.421 3613.32,1083.09 3424.5,1219C 3412.75,1229.23 3403.58,1227.39 3397,1213.5C 3396.33,1211.17 3396.33,1208.83 3397,1206.5C 3399.13,1203.37 3401.63,1200.54 3404.5,1198C 3597.92,1060.3 3790.92,922.136 3983.5,783.5 Z"/></g>
<g><path style="opacity:1" fill="#050505" d="M 584.5,1285.5 C 590.833,1285.5 597.167,1285.5 603.5,1285.5C 603.613,1308.2 603.446,1330.87 603,1353.5C 603.718,1354.45 604.551,1354.62 605.5,1354C 618.894,1339.14 635.56,1333.81 655.5,1338C 669.028,1340.84 679.528,1348.01 687,1359.5C 700.798,1388.44 700.798,1417.44 687,1446.5C 672.998,1466.81 653.831,1473.98 629.5,1468C 623.73,1466.63 618.396,1464.3 613.5,1461C 610.276,1457.27 606.609,1454.11 602.5,1451.5C 600.555,1456.62 598.889,1461.79 597.5,1467C 592.845,1467.5 588.179,1467.67 583.5,1467.5C 583.174,1406.79 583.508,1346.13 584.5,1285.5 Z"/></g>
<g><path style="opacity:1" fill="#070707" d="M 3304.5,1285.5 C 3310.83,1285.5 3317.17,1285.5 3323.5,1285.5C 3323.5,1346.17 3323.5,1406.83 3323.5,1467.5C 3316.83,1467.5 3310.17,1467.5 3303.5,1467.5C 3303.17,1406.79 3303.51,1346.13 3304.5,1285.5 Z"/></g>
<g><path style="opacity:1" fill="#050505" d="M 4544.5,1285.5 C 4550.83,1285.5 4557.17,1285.5 4563.5,1285.5C 4563.61,1308.2 4563.45,1330.87 4563,1353.5C 4563.72,1354.45 4564.55,1354.62 4565.5,1354C 4578.89,1339.14 4595.56,1333.81 4615.5,1338C 4629.03,1340.84 4639.53,1348.01 4647,1359.5C 4660.8,1388.44 4660.8,1417.44 4647,1446.5C 4633,1466.81 4613.83,1473.98 4589.5,1468C 4583.73,1466.63 4578.4,1464.3 4573.5,1461C 4570.28,1457.27 4566.61,1454.11 4562.5,1451.5C 4560.56,1456.62 4558.89,1461.79 4557.5,1467C 4552.85,1467.5 4548.18,1467.67 4543.5,1467.5C 4543.17,1406.79 4543.51,1346.13 4544.5,1285.5 Z"/></g>
<g><path style="opacity:1" fill="#040404" d="M 737.5,1291.5 C 748.692,1290.84 753.858,1296.17 753,1307.5C 749.162,1317.5 742.662,1319.66 733.5,1314C 730.669,1309.56 729.836,1304.73 731,1299.5C 733.001,1296.67 735.167,1294 737.5,1291.5 Z"/></g>
<g><path style="opacity:1" fill="#030303" d="M 1131.5,1291.5 C 1143.48,1290.73 1148.64,1296.4 1147,1308.5C 1143.27,1316.63 1137.44,1318.8 1129.5,1315C 1125.18,1310.69 1123.68,1305.52 1125,1299.5C 1126.36,1296.1 1128.53,1293.43 1131.5,1291.5 Z"/></g>
<g><path style="opacity:1" fill="#010101" d="M 2968.5,1291.5 C 2971.52,1291.34 2974.52,1291.5 2977.5,1292C 2983.34,1297.16 2985.18,1303.66 2983,1311.5C 2975.15,1319.95 2968.15,1319.29 2962,1309.5C 2960,1301.85 2962.17,1295.85 2968.5,1291.5 Z"/></g>
<g><path style="opacity:1" fill="#010101" d="M 4696.5,1291.5 C 4699.52,1291.34 4702.52,1291.5 4705.5,1292C 4711.34,1297.16 4713.18,1303.66 4711,1311.5C 4703.15,1319.95 4696.15,1319.29 4690,1309.5C 4688,1301.85 4690.17,1295.85 4696.5,1291.5 Z"/></g>
<g><path style="opacity:1" fill="#040404" d="M 5090.5,1291.5 C 5103.86,1291.72 5108.69,1298.39 5105,1311.5C 5096.65,1320.1 5089.65,1319.1 5084,1308.5C 5082.31,1301.24 5084.47,1295.57 5090.5,1291.5 Z"/></g>
<g><path style="opacity:1" fill="#020202" d="M 4420.5,1293.5 C 4471.73,1291.58 4500.9,1315.91 4508,1366.5C 4510.85,1390.76 4506.85,1413.76 4496,1435.5C 4483.8,1454.86 4466.3,1466.02 4443.5,1469C 4391.27,1474.16 4360.77,1450.99 4352,1399.5C 4348.82,1373.92 4352.82,1349.58 4364,1326.5C 4377.56,1306.43 4396.39,1295.43 4420.5,1293.5 Z"/></g>
<g><path style="opacity:1" fill="#020202" d="M 344.5,1293.5 C 361.906,1293.27 378.906,1295.77 395.5,1301C 399.104,1302.33 400.271,1304.83 399,1308.5C 397.107,1311.62 395.774,1314.95 395,1318.5C 394.275,1319.06 393.442,1319.39 392.5,1319.5C 373.992,1312.07 354.992,1310.23 335.5,1314C 319.361,1322.14 314.861,1334.64 322,1351.5C 324.833,1355.67 328.333,1359.17 332.5,1362C 348.085,1368.86 363.752,1375.53 379.5,1382C 400.88,1394.09 408.713,1412.26 403,1436.5C 393.702,1456.59 377.868,1467.42 355.5,1469C 335.758,1471.21 316.592,1469.04 298,1462.5C 297.764,1456.96 297.264,1451.46 296.5,1446C 296.645,1445.23 296.978,1444.56 297.5,1444C 306.699,1446.44 316.032,1448.78 325.5,1451C 336.839,1452.92 348.172,1452.92 359.5,1451C 380.069,1446.07 387.902,1433.24 383,1412.5C 378.598,1405.04 372.431,1399.54 364.5,1396C 350.138,1390.77 336.138,1384.77 322.5,1378C 303.455,1366.4 295.955,1349.57 300,1327.5C 304.313,1313.19 313.48,1303.35 327.5,1298C 333.2,1296.17 338.866,1294.67 344.5,1293.5 Z"/></g>
<g><path style="opacity:1" fill="#030303" d="M 2411.5,1295.5 C 2417.18,1295.33 2422.84,1295.5 2428.5,1296C 2429.42,1296.37 2430.25,1296.87 2431,1297.5C 2431.5,1354.17 2431.67,1410.83 2431.5,1467.5C 2424.83,1467.5 2418.17,1467.5 2411.5,1467.5C 2411.5,1410.17 2411.5,1352.83 2411.5,1295.5 Z"/></g>
<g><path style="opacity:1" fill="#020202" d="M 1051.5,1309.5 C 1054.83,1309.5 1058.17,1309.5 1061.5,1309.5C 1061.33,1318.84 1061.5,1328.17 1062,1337.5C 1062.5,1338 1063,1338.5 1063.5,1339C 1075.5,1339.5 1087.5,1339.67 1099.5,1339.5C 1099.67,1343.85 1099.5,1348.18 1099,1352.5C 1098.5,1353 1098,1353.5 1097.5,1354C 1086.17,1354.33 1074.83,1354.67 1063.5,1355C 1063,1355.5 1062.5,1356 1062,1356.5C 1061.33,1382.17 1061.33,1407.83 1062,1433.5C 1062.67,1442.69 1067.17,1449.19 1075.5,1453C 1083.3,1453.76 1090.96,1453.42 1098.5,1452C 1100.83,1456.98 1101.16,1462.15 1099.5,1467.5C 1092.91,1468.81 1086.25,1469.48 1079.5,1469.5C 1057.84,1469.68 1045.68,1459.01 1043,1437.5C 1042.67,1410.17 1042.33,1382.83 1042,1355.5C 1036.58,1354.69 1031.08,1354.19 1025.5,1354C 1022.89,1350.8 1022.89,1347.63 1025.5,1344.5C 1029.61,1342.11 1033.95,1340.28 1038.5,1339C 1040.33,1337.83 1041.83,1336.33 1043,1334.5C 1045.34,1325.97 1048.18,1317.64 1051.5,1309.5 Z"/></g>
<g><path style="opacity:1" fill="#020202" d="M 5012.5,1308.5 C 5015.75,1308.42 5018.58,1309.42 5021,1311.5C 5021.5,1320.83 5021.67,1330.16 5021.5,1339.5C 5033.83,1339.5 5046.17,1339.5 5058.5,1339.5C 5058.67,1343.85 5058.5,1348.18 5058,1352.5C 5057.5,1353 5057,1353.5 5056.5,1354C 5044.84,1354.5 5033.17,1354.67 5021.5,1354.5C 5020.04,1382.84 5020.21,1411.17 5022,1439.5C 5025.35,1449.67 5032.35,1454.34 5043,1453.5C 5048.51,1453.19 5054.01,1452.85 5059.5,1452.5C 5059.67,1456.85 5059.5,1461.18 5059,1465.5C 5055.79,1467.29 5052.29,1468.45 5048.5,1469C 5032.49,1472.46 5018.99,1468.3 5008,1456.5C 5004.5,1451.01 5002.5,1445.01 5002,1438.5C 5001.67,1410.83 5001.33,1383.17 5001,1355.5C 4995.58,1354.69 4990.08,1354.19 4984.5,1354C 4983.17,1350.67 4983.17,1347.33 4984.5,1344C 4988.73,1342.05 4993.07,1340.38 4997.5,1339C 4999.09,1337.95 5000.59,1336.79 5002,1335.5C 5003.79,1328.46 5005.79,1321.46 5008,1314.5C 5009.28,1312.25 5010.78,1310.25 5012.5,1308.5 Z"/></g>
<g><path style="opacity:1" fill="#fefefe" d="M 4417.5,1311.5 C 4457.65,1307.17 4480.82,1324.84 4487,1364.5C 4488.58,1382.08 4487.24,1399.42 4483,1416.5C 4472.06,1443.73 4451.89,1455.56 4422.5,1452C 4404.87,1450.6 4391.37,1442.44 4382,1427.5C 4378.34,1420.18 4375.67,1412.52 4374,1404.5C 4370.92,1384.16 4372.25,1364.16 4378,1344.5C 4385.58,1326.74 4398.75,1315.74 4417.5,1311.5 Z"/></g>
<g><path style="opacity:1" fill="#050505" d="M 832.5,1336.5 C 856.616,1333.98 874.783,1342.98 887,1363.5C 893.635,1377.62 895.135,1392.12 891.5,1407C 862.835,1407.5 834.169,1407.67 805.5,1407.5C 806.971,1442.12 824.971,1456.96 859.5,1452C 869.195,1450.7 878.529,1448.2 887.5,1444.5C 888.496,1449.46 888.663,1454.46 888,1459.5C 887.535,1460.93 886.701,1462.1 885.5,1463C 866.943,1469.45 847.943,1471.12 828.5,1468C 804.867,1460.7 790.7,1444.86 786,1420.5C 782.119,1397.38 786.453,1376.04 799,1356.5C 808.033,1346.07 819.199,1339.41 832.5,1336.5 Z"/></g>
<g><path style="opacity:1" fill="#030303" d="M 974.5,1336.5 C 986.476,1336.33 998.143,1338.16 1009.5,1342C 1011.44,1344.15 1011.94,1346.65 1011,1349.5C 1009.39,1352.38 1008.06,1355.38 1007,1358.5C 1006.44,1359.02 1005.77,1359.36 1005,1359.5C 993.237,1354.97 981.071,1353.47 968.5,1355C 958.329,1357.52 950.829,1363.35 946,1372.5C 939.421,1391.23 938.754,1410.23 944,1429.5C 948.33,1441.16 956.497,1448.66 968.5,1452C 975.5,1452.67 982.5,1452.67 989.5,1452C 996.809,1450.17 1004.14,1448.67 1011.5,1447.5C 1011.67,1452.18 1011.5,1456.85 1011,1461.5C 1009.79,1463.05 1008.29,1464.22 1006.5,1465C 988.473,1470.89 970.473,1470.89 952.5,1465C 933.713,1455.2 923.213,1439.7 921,1418.5C 918.202,1399.28 920.868,1380.95 929,1363.5C 939.572,1346.76 954.738,1337.76 974.5,1336.5 Z"/></g>
<g><path style="opacity:1" fill="#040404" d="M 1349.5,1336.5 C 1373.81,1334.57 1391.64,1344.23 1403,1365.5C 1408.09,1379.16 1409.26,1393 1406.5,1407C 1377.84,1407.5 1349.17,1407.67 1320.5,1407.5C 1321.85,1441.68 1339.52,1456.52 1373.5,1452C 1383.64,1450.4 1393.64,1448.24 1403.5,1445.5C 1403.67,1450.18 1403.5,1454.85 1403,1459.5C 1402.53,1460.93 1401.7,1462.1 1400.5,1463C 1383.67,1469.12 1366.34,1471.12 1348.5,1469C 1320.87,1462.7 1305.04,1445.54 1301,1417.5C 1297.42,1395.38 1301.76,1375.04 1314,1356.5C 1323.22,1344.98 1335.05,1338.31 1349.5,1336.5 Z"/></g>
<g><path style="opacity:1" fill="#010101" d="M 2524.5,1336.5 C 2533.99,1336.46 2543.32,1337.63 2552.5,1340C 2560.91,1343.75 2567.41,1349.58 2572,1357.5C 2586.1,1340.09 2604.26,1333.59 2626.5,1338C 2642.76,1341.92 2652.59,1352.09 2656,1368.5C 2657.42,1401.48 2657.92,1434.48 2657.5,1467.5C 2651.49,1467.67 2645.49,1467.5 2639.5,1467C 2639,1466.5 2638.5,1466 2638,1465.5C 2637.67,1434.83 2637.33,1404.17 2637,1373.5C 2633.43,1359.54 2624.43,1352.88 2610,1353.5C 2590.56,1353.57 2579.23,1363.23 2576,1382.5C 2575.5,1410.83 2575.33,1439.16 2575.5,1467.5C 2568.83,1467.5 2562.17,1467.5 2555.5,1467.5C 2555.67,1435.83 2555.5,1404.16 2555,1372.5C 2550.9,1358.9 2541.73,1352.57 2527.5,1353.5C 2510.82,1353.34 2500.32,1361.34 2496,1377.5C 2495.59,1380.23 2494.92,1382.9 2494,1385.5C 2493.5,1412.83 2493.33,1440.16 2493.5,1467.5C 2487.24,1467.81 2481.08,1467.48 2475,1466.5C 2474.33,1424.5 2474.33,1382.5 2475,1340.5C 2479.75,1339.37 2484.58,1339.2 2489.5,1340C 2490.13,1340.75 2490.63,1341.58 2491,1342.5C 2491.5,1346.82 2491.67,1351.15 2491.5,1355.5C 2492.55,1355.65 2493.55,1355.48 2494.5,1355C 2498.53,1350.63 2502.87,1346.63 2507.5,1343C 2513.1,1340.36 2518.77,1338.2 2524.5,1336.5 Z"/></g>
<g><path style="opacity:1" fill="#020202" d="M 2732.5,1337.5 C 2741.51,1337.33 2750.51,1337.5 2759.5,1338C 2777.83,1341.33 2788.33,1352.16 2791,1370.5C 2791.5,1402.83 2791.67,1435.16 2791.5,1467.5C 2786.46,1467.83 2781.46,1467.49 2776.5,1466.5C 2775.99,1460.71 2774.82,1455.04 2773,1449.5C 2768.53,1453.64 2764.03,1457.81 2759.5,1462C 2746.74,1469.06 2733.07,1471.39 2718.5,1469C 2695.62,1463.08 2685.79,1448.24 2689,1424.5C 2692.2,1411.63 2700.04,1402.79 2712.5,1398C 2720.26,1395.06 2728.26,1393.06 2736.5,1392C 2747.83,1391.67 2759.17,1391.33 2770.5,1391C 2775.81,1361.64 2763.47,1349.31 2733.5,1354C 2726.62,1355.72 2719.95,1358.05 2713.5,1361C 2711.56,1361.74 2709.73,1361.58 2708,1360.5C 2706.75,1357.01 2705.25,1353.68 2703.5,1350.5C 2704.9,1347.44 2707.23,1345.28 2710.5,1344C 2717.8,1341.29 2725.13,1339.12 2732.5,1337.5 Z"/></g>
<g><path style="opacity:1" fill="#020202" d="M 2860.5,1337.5 C 2885.47,1338.72 2910.47,1339.72 2935.5,1340.5C 2936.83,1343.83 2936.83,1347.17 2935.5,1350.5C 2928.28,1352.32 2920.95,1353.32 2913.5,1353.5C 2913.34,1354.87 2913.51,1356.21 2914,1357.5C 2918.8,1363.8 2920.97,1370.97 2920.5,1379C 2920.4,1399.77 2910.4,1413.1 2890.5,1419C 2879.76,1419.82 2869.1,1420.82 2858.5,1422C 2851.4,1426.69 2848.57,1433.19 2850,1441.5C 2852.86,1444.52 2856.36,1446.35 2860.5,1447C 2874.83,1447.33 2889.17,1447.67 2903.5,1448C 2926.14,1451.63 2936.31,1464.8 2934,1487.5C 2931.38,1503.13 2922.54,1513.63 2907.5,1519C 2887.15,1525.26 2866.48,1526.6 2845.5,1523C 2820.18,1516.37 2811.01,1500.54 2818,1475.5C 2823.65,1466.68 2831.49,1460.68 2841.5,1457.5C 2831.41,1448.02 2829.91,1437.35 2837,1425.5C 2839.9,1422.6 2842.73,1419.77 2845.5,1417C 2823.86,1400.1 2819.36,1379.27 2832,1354.5C 2839.53,1345.33 2849.03,1339.66 2860.5,1337.5 Z"/></g>
<g><path style="opacity:1" fill="#040404" d="M 3077.5,1336.5 C 3091.59,1335.44 3104.59,1338.61 3116.5,1346C 3124.23,1353.51 3128.73,1362.67 3130,1373.5C 3130.5,1404.83 3130.67,1436.16 3130.5,1467.5C 3124.17,1467.5 3117.83,1467.5 3111.5,1467.5C 3111.96,1436.13 3111.46,1404.79 3110,1373.5C 3105.71,1358.77 3095.88,1352.1 3080.5,1353.5C 3055.87,1353.97 3043.37,1366.63 3043,1391.5C 3042.5,1416.83 3042.33,1442.16 3042.5,1467.5C 3036.17,1467.5 3029.83,1467.5 3023.5,1467.5C 3023.5,1424.83 3023.5,1382.17 3023.5,1339.5C 3028.83,1339.5 3034.17,1339.5 3039.5,1339.5C 3039.73,1344.98 3040.73,1350.31 3042.5,1355.5C 3051.82,1344.68 3063.49,1338.34 3077.5,1336.5 Z"/></g>
<g><path style="opacity:1" fill="#020202" d="M 3206.5,1337.5 C 3215.17,1337.33 3223.84,1337.5 3232.5,1338C 3251.27,1341.43 3261.77,1352.6 3264,1371.5C 3264.83,1403.4 3264.66,1435.24 3263.5,1467C 3259.13,1467.83 3254.8,1467.66 3250.5,1466.5C 3248.55,1461.69 3247.38,1456.69 3247,1451.5C 3246.59,1451.04 3246.09,1450.71 3245.5,1450.5C 3226.83,1469.94 3204.83,1474.77 3179.5,1465C 3169.76,1459.25 3163.93,1450.75 3162,1439.5C 3159.62,1418.77 3168.12,1404.6 3187.5,1397C 3191.17,1396 3194.83,1395 3198.5,1394C 3214.03,1392.3 3229.53,1390.8 3245,1389.5C 3247.91,1360.75 3235.08,1348.91 3206.5,1354C 3199.63,1355.73 3192.96,1358.07 3186.5,1361C 3184.56,1361.74 3182.73,1361.58 3181,1360.5C 3179.64,1356.94 3178.14,1353.44 3176.5,1350C 3176.76,1348.74 3177.43,1347.74 3178.5,1347C 3187.53,1342.59 3196.86,1339.42 3206.5,1337.5 Z"/></g>
<g><path style="opacity:1" fill="#050505" d="M 4792.5,1336.5 C 4816.62,1333.98 4834.78,1342.98 4847,1363.5C 4853.63,1377.62 4855.13,1392.12 4851.5,1407C 4822.84,1407.5 4794.17,1407.67 4765.5,1407.5C 4766.97,1442.12 4784.97,1456.96 4819.5,1452C 4829.2,1450.7 4838.53,1448.2 4847.5,1444.5C 4848.5,1449.46 4848.66,1454.46 4848,1459.5C 4847.53,1460.93 4846.7,1462.1 4845.5,1463C 4826.94,1469.45 4807.94,1471.12 4788.5,1468C 4764.87,1460.7 4750.7,1444.86 4746,1420.5C 4742.12,1397.38 4746.45,1376.04 4759,1356.5C 4768.03,1346.07 4779.2,1339.41 4792.5,1336.5 Z"/></g>
<g><path style="opacity:1" fill="#030303" d="M 4928.5,1336.5 C 4940.3,1336.35 4951.97,1337.51 4963.5,1340C 4966.98,1341.06 4969.65,1343.06 4971.5,1346C 4969.49,1350.36 4967.49,1354.69 4965.5,1359C 4959.59,1357.69 4953.59,1356.36 4947.5,1355C 4920.62,1350.55 4904.79,1361.72 4900,1388.5C 4897.19,1406.45 4899.86,1423.45 4908,1439.5C 4918.64,1451.27 4931.81,1455.43 4947.5,1452C 4954.88,1450.49 4962.21,1448.99 4969.5,1447.5C 4969.67,1452.51 4969.5,1457.51 4969,1462.5C 4963.18,1466.51 4956.68,1468.67 4949.5,1469C 4902.8,1472.64 4879.47,1450.97 4879.5,1404C 4877.81,1381.06 4885.48,1362.06 4902.5,1347C 4910.59,1341.81 4919.26,1338.31 4928.5,1336.5 Z"/></g>
<g><path style="opacity:1" fill="#040404" d="M 5308.5,1336.5 C 5342.48,1335.65 5361.98,1351.99 5367,1385.5C 5367.5,1392.83 5367.67,1400.16 5367.5,1407.5C 5338.17,1407.5 5308.83,1407.5 5279.5,1407.5C 5280.95,1442.1 5298.95,1456.93 5333.5,1452C 5343.19,1449.94 5352.85,1447.77 5362.5,1445.5C 5362.67,1450.18 5362.5,1454.85 5362,1459.5C 5361.5,1461.33 5360.33,1462.5 5358.5,1463C 5337.03,1470.71 5315.36,1471.38 5293.5,1465C 5269.35,1452.21 5258.01,1432.04 5259.5,1404.5C 5258.19,1381.64 5265.86,1362.47 5282.5,1347C 5290.42,1341.42 5299.08,1337.92 5308.5,1336.5 Z"/></g>
<g><path style="opacity:1" fill="#010101" d="M 435.5,1339.5 C 442.167,1339.5 448.833,1339.5 455.5,1339.5C 455.333,1370.17 455.5,1400.84 456,1431.5C 459.564,1446.72 469.231,1454.05 485,1453.5C 508.227,1453.27 520.893,1441.61 523,1418.5C 523.5,1392.17 523.667,1365.84 523.5,1339.5C 530.167,1339.5 536.833,1339.5 543.5,1339.5C 543.5,1382.17 543.5,1424.83 543.5,1467.5C 538.125,1467.83 532.792,1467.49 527.5,1466.5C 526.409,1461.36 525.076,1456.36 523.5,1451.5C 506.062,1468.86 485.396,1474.03 461.5,1467C 444.997,1460.51 436.497,1448.35 436,1430.5C 435.5,1400.17 435.333,1369.84 435.5,1339.5 Z"/></g>
<g><path style="opacity:1" fill="#060606" d="M 731.5,1339.5 C 738.167,1339.5 744.833,1339.5 751.5,1339.5C 751.667,1391.5 751.5,1443.5 751,1495.5C 747.736,1515.41 735.903,1525.41 715.5,1525.5C 710.427,1525.1 705.427,1524.27 700.5,1523C 698.358,1518.11 698.025,1513.11 699.5,1508C 706.487,1508.25 713.487,1508.25 720.5,1508C 725.573,1506.59 729.073,1503.43 731,1498.5C 731.5,1445.5 731.667,1392.5 731.5,1339.5 Z"/></g>
<g><path style="opacity:1" fill="#000000" d="M 1127.5,1339.5 C 1133.5,1339.5 1139.5,1339.5 1145.5,1339.5C 1145.5,1382.17 1145.5,1424.83 1145.5,1467.5C 1139.24,1467.81 1133.08,1467.48 1127,1466.5C 1126.17,1424.1 1126.34,1381.76 1127.5,1339.5 Z"/></g>
<g><path style="opacity:1" fill="#020202" d="M 1167.5,1339.5 C 1174.2,1339.17 1180.87,1339.5 1187.5,1340.5C 1201.25,1376.19 1214.09,1412.19 1226,1448.5C 1239.18,1412.63 1252.18,1376.63 1265,1340.5C 1272.11,1339.19 1279.28,1339.19 1286.5,1340.5C 1269.81,1382.44 1253.81,1424.61 1238.5,1467C 1230.59,1467.81 1222.75,1467.65 1215,1466.5C 1198.53,1424.25 1182.69,1381.92 1167.5,1339.5 Z"/></g>
<g><path style="opacity:1" fill="#060606" d="M 2963.5,1339.5 C 2969.83,1339.5 2976.17,1339.5 2982.5,1339.5C 2982.5,1382.17 2982.5,1424.83 2982.5,1467.5C 2976.17,1467.5 2969.83,1467.5 2963.5,1467.5C 2963.5,1424.83 2963.5,1382.17 2963.5,1339.5 Z"/></g>
<g><path style="opacity:1" fill="#060606" d="M 4691.5,1339.5 C 4697.83,1339.5 4704.17,1339.5 4710.5,1339.5C 4710.97,1393.53 4710.47,1447.53 4709,1501.5C 4704.74,1515.56 4695.24,1523.4 4680.5,1525C 4672.52,1526.32 4665.02,1525.15 4658,1521.5C 4657.5,1516.85 4657.33,1512.18 4657.5,1507.5C 4666.22,1508.81 4674.88,1508.65 4683.5,1507C 4687.66,1503.85 4690.16,1499.68 4691,1494.5C 4691.5,1442.83 4691.67,1391.17 4691.5,1339.5 Z"/></g>
<g><path style="opacity:1" fill="#000000" d="M 5085.5,1339.5 C 5091.76,1339.19 5097.92,1339.52 5104,1340.5C 5104.67,1382.5 5104.67,1424.5 5104,1466.5C 5097.92,1467.48 5091.76,1467.81 5085.5,1467.5C 5085.5,1424.83 5085.5,1382.17 5085.5,1339.5 Z"/></g>
<g><path style="opacity:1" fill="#020202" d="M 5126.5,1339.5 C 5133.5,1339.5 5140.5,1339.5 5147.5,1339.5C 5155.95,1365.68 5165.12,1391.68 5175,1417.5C 5178.06,1428.14 5181.56,1438.47 5185.5,1448.5C 5198.54,1412.71 5211.38,1376.71 5224,1340.5C 5230.74,1339.52 5237.58,1339.19 5244.5,1339.5C 5229.58,1382.42 5213.58,1424.92 5196.5,1467C 5189.17,1467.67 5181.83,1467.67 5174.5,1467C 5157.8,1424.72 5141.8,1382.22 5126.5,1339.5 Z"/></g>
<g><path style="opacity:1" fill="#fdfdfd" d="M 2861.5,1351.5 C 2868.84,1351.33 2876.17,1351.5 2883.5,1352C 2892.43,1355.26 2898.26,1361.43 2901,1370.5C 2904.22,1397.95 2892.05,1410.11 2864.5,1407C 2853.99,1404.49 2847.49,1397.99 2845,1387.5C 2841.65,1371.22 2847.15,1359.22 2861.5,1351.5 Z"/></g>
<g><path style="opacity:1" fill="#fefefe" d="M 630.5,1353.5 C 654.143,1349.38 668.977,1358.72 675,1381.5C 677.754,1399.09 676.754,1416.42 672,1433.5C 663.936,1449.95 650.77,1456.45 632.5,1453C 618.106,1450.27 609.273,1441.77 606,1427.5C 602.839,1411.14 602.839,1394.81 606,1378.5C 609.656,1365.68 617.823,1357.34 630.5,1353.5 Z"/></g>
<g><path style="opacity:1" fill="#fcfcfc" d="M 831.5,1353.5 C 858.875,1350.71 872.375,1363.04 872,1390.5C 850.24,1391.66 828.406,1391.83 806.5,1391C 806.278,1372.73 814.611,1360.23 831.5,1353.5 Z"/></g>
<g><path style="opacity:1" fill="#fcfcfc" d="M 1346.5,1353.5 C 1374.24,1350.91 1387.91,1363.57 1387.5,1391.5C 1365.5,1391.67 1343.5,1391.5 1321.5,1391C 1321.47,1372.88 1329.8,1360.38 1346.5,1353.5 Z"/></g>
<g><path style="opacity:1" fill="#fefefe" d="M 4590.5,1353.5 C 4614.14,1349.38 4628.98,1358.72 4635,1381.5C 4637.75,1399.09 4636.75,1416.42 4632,1433.5C 4623.94,1449.95 4610.77,1456.45 4592.5,1453C 4578.11,1450.27 4569.27,1441.77 4566,1427.5C 4562.84,1411.14 4562.84,1394.81 4566,1378.5C 4569.66,1365.68 4577.82,1357.34 4590.5,1353.5 Z"/></g>
<g><path style="opacity:1" fill="#fcfcfc" d="M 4791.5,1353.5 C 4818.87,1350.71 4832.37,1363.04 4832,1390.5C 4810.24,1391.66 4788.41,1391.83 4766.5,1391C 4766.28,1372.73 4774.61,1360.23 4791.5,1353.5 Z"/></g>
<g><path style="opacity:1" fill="#fcfcfc" d="M 5305.5,1353.5 C 5328.39,1349.67 5341.89,1359 5346,1381.5C 5346.67,1384.5 5346.67,1387.5 5346,1390.5C 5324.24,1391.66 5302.41,1391.83 5280.5,1391C 5280.49,1372.84 5288.82,1360.34 5305.5,1353.5 Z"/></g>
<g><path style="opacity:1" fill="#010101" d="M 1741.5,1360.5 C 1909.5,1360.33 2077.5,1360.5 2245.5,1361C 2255.77,1366.47 2257.93,1374.31 2252,1384.5C 2249.66,1386.77 2246.82,1387.94 2243.5,1388C 2075.83,1388.67 1908.17,1388.67 1740.5,1388C 1734.28,1385.8 1731.28,1381.47 1731.5,1375C 1731.13,1367.55 1734.46,1362.71 1741.5,1360.5 Z"/></g>
<g><path style="opacity:1" fill="#010101" d="M 3482.5,1360.5 C 3649.83,1360.33 3817.17,1360.5 3984.5,1361C 3992.99,1361.83 3996.66,1366.49 3995.5,1375C 3996.36,1382.48 3993.02,1386.82 3985.5,1388C 3817.5,1388.67 3649.5,1388.67 3481.5,1388C 3474.96,1385.77 3471.96,1381.1 3472.5,1374C 3472.66,1367.02 3475.99,1362.52 3482.5,1360.5 Z"/></g>
<g><path style="opacity:1" fill="#fdfdfd" d="M 2766.5,1403.5 C 2768.14,1403.29 2769.64,1403.62 2771,1404.5C 2774.7,1441.47 2758.2,1457.31 2721.5,1452C 2709.85,1445.92 2706.02,1436.42 2710,1423.5C 2716.15,1413.1 2725.32,1407.26 2737.5,1406C 2747.34,1405.45 2757.01,1404.61 2766.5,1403.5 Z"/></g>
<g><path style="opacity:1" fill="#fcfcfc" d="M 3225.5,1404.5 C 3231.51,1404.33 3237.51,1404.5 3243.5,1405C 3248.14,1439.7 3232.81,1455.7 3197.5,1453C 3186.13,1448.76 3180.96,1440.59 3182,1428.5C 3182.85,1421.31 3186.35,1415.81 3192.5,1412C 3203.15,1407.51 3214.15,1405.01 3225.5,1404.5 Z"/></g>
<g><path style="opacity:1" fill="#fdfdfd" d="M 2854.5,1464.5 C 2868.17,1464.33 2881.84,1464.5 2895.5,1465C 2915.54,1467.58 2921.04,1478.08 2912,1496.5C 2904.52,1503.49 2895.69,1507.65 2885.5,1509C 2874.5,1510.96 2863.5,1510.96 2852.5,1509C 2833.99,1502.81 2829.16,1490.97 2838,1473.5C 2842.8,1469.02 2848.3,1466.02 2854.5,1464.5 Z"/></g>
<g><path style="opacity:1" fill="#010101" d="M 2840.5,1551.5 C 2847.5,1551.5 2854.5,1551.5 2861.5,1551.5C 2861.5,1614.17 2861.5,1676.83 2861.5,1739.5C 2854.5,1739.5 2847.5,1739.5 2840.5,1739.5C 2840.7,1733.4 2840.7,1727.4 2840.5,1721.5C 2834.23,1728.28 2827.23,1734.11 2819.5,1739C 2796.75,1748.1 2776.58,1744.26 2759,1727.5C 2747.83,1713.17 2742.66,1696.83 2743.5,1678.5C 2742.53,1654.95 2750.53,1635.12 2767.5,1619C 2786.48,1605.7 2806.48,1604.03 2827.5,1614C 2832.1,1618.12 2836.77,1621.95 2841.5,1625.5C 2840.56,1600.85 2840.23,1576.19 2840.5,1551.5 Z"/></g>
<g><path style="opacity:1" fill="#030303" d="M 2907.5,1551.5 C 2922.47,1550.98 2927.97,1557.98 2924,1572.5C 2915.47,1582.16 2907.47,1581.83 2900,1571.5C 2899.33,1567.5 2899.33,1563.5 2900,1559.5C 2902.03,1556.31 2904.53,1553.64 2907.5,1551.5 Z"/></g>
<g><path style="opacity:1" fill="#020202" d="M 2391.5,1559.5 C 2400.75,1559.18 2409.92,1559.52 2419,1560.5C 2440.35,1608.85 2461.35,1657.18 2482,1705.5C 2503.8,1657.23 2525.63,1608.89 2547.5,1560.5C 2556.15,1559.33 2564.81,1559.17 2573.5,1560C 2574.5,1619.76 2574.83,1679.6 2574.5,1739.5C 2567.17,1739.5 2559.83,1739.5 2552.5,1739.5C 2552.18,1688.8 2552.68,1638.13 2554,1587.5C 2532.43,1637.99 2510.26,1688.32 2487.5,1738.5C 2480.59,1741.4 2476.09,1739.4 2474,1732.5C 2452.84,1683.99 2431.51,1635.65 2410,1587.5C 2411.45,1638.08 2411.95,1688.75 2411.5,1739.5C 2404.58,1739.81 2397.74,1739.48 2391,1738.5C 2390.17,1678.79 2390.34,1619.13 2391.5,1559.5 Z"/></g>
<g><path style="opacity:1" fill="#020202" d="M 3117.5,1576.5 C 3119.14,1576.29 3120.64,1576.62 3122,1577.5C 3122.5,1588.83 3122.67,1600.16 3122.5,1611.5C 3132.84,1611.33 3143.17,1611.5 3153.5,1612C 3154.82,1617.47 3154.82,1622.97 3153.5,1628.5C 3143.19,1629.5 3132.85,1629.83 3122.5,1629.5C 3122.06,1658.2 3122.56,1686.87 3124,1715.5C 3127.31,1723.49 3133.31,1727.16 3142,1726.5C 3146.16,1726.02 3150.33,1725.69 3154.5,1725.5C 3154.67,1729.85 3154.5,1734.18 3154,1738.5C 3148.81,1742.74 3142.81,1744.41 3136,1743.5C 3117.22,1743.95 3106.22,1734.95 3103,1716.5C 3101.62,1687.52 3101.12,1658.52 3101.5,1629.5C 3094.17,1629.5 3086.83,1629.5 3079.5,1629.5C 3079.5,1623.5 3079.5,1617.5 3079.5,1611.5C 3086.83,1611.5 3094.17,1611.5 3101.5,1611.5C 3101.17,1601.81 3101.5,1592.14 3102.5,1582.5C 3107.55,1580.34 3112.55,1578.34 3117.5,1576.5 Z"/></g>
<g><path style="opacity:1" fill="#010101" d="M 2659.5,1607.5 C 2697.7,1605.86 2718.2,1624.19 2721,1662.5C 2721.67,1668.17 2721.67,1673.83 2721,1679.5C 2691.24,1680.33 2661.41,1680.83 2631.5,1681C 2629.79,1705.94 2641.13,1720.94 2665.5,1726C 2672.54,1726.66 2679.54,1726.33 2686.5,1725C 2695.6,1721.94 2704.27,1718.11 2712.5,1713.5C 2712.67,1719.18 2712.5,1724.84 2712,1730.5C 2707.87,1734.48 2703.04,1737.32 2697.5,1739C 2680.24,1744.46 2662.9,1744.79 2645.5,1740C 2622.82,1729.51 2610.99,1711.68 2610,1686.5C 2606.99,1661.73 2613.82,1640.23 2630.5,1622C 2634.83,1619 2639.17,1616 2643.5,1613C 2648.84,1610.85 2654.17,1609.01 2659.5,1607.5 Z"/></g>
<g><path style="opacity:1" fill="#010101" d="M 2999.5,1607.5 C 3011.88,1606.39 3023.88,1607.89 3035.5,1612C 3050.72,1621.94 3057.89,1636.1 3057,1654.5C 3057.5,1682.83 3057.67,1711.16 3057.5,1739.5C 3050.5,1739.5 3043.5,1739.5 3036.5,1739.5C 3036.72,1733.73 3036.72,1728.07 3036.5,1722.5C 3030.66,1728.5 3024.33,1734 3017.5,1739C 3000.95,1745.77 2984.95,1744.77 2969.5,1736C 2953.85,1720.48 2951.35,1702.98 2962,1683.5C 2967.63,1675.76 2975.13,1670.59 2984.5,1668C 2999.29,1664.44 3014.29,1662.11 3029.5,1661C 3031.5,1660.33 3033.5,1659.67 3035.5,1659C 3037.84,1647.35 3034.51,1637.35 3025.5,1629C 3016,1624.16 3006,1623.16 2995.5,1626C 2985.95,1628.78 2976.95,1632.61 2968.5,1637.5C 2968.33,1631.82 2968.5,1626.16 2969,1620.5C 2969.47,1619.07 2970.3,1617.9 2971.5,1617C 2980.58,1612.7 2989.91,1609.53 2999.5,1607.5 Z"/></g>
<g><path style="opacity:1" fill="#010101" d="M 3223.5,1607.5 C 3261.7,1605.86 3282.2,1624.19 3285,1662.5C 3285.67,1668.17 3285.67,1673.83 3285,1679.5C 3255.24,1680.33 3225.41,1680.83 3195.5,1681C 3193.79,1705.94 3205.13,1720.94 3229.5,1726C 3236.54,1726.66 3243.54,1726.33 3250.5,1725C 3259.6,1721.94 3268.27,1718.11 3276.5,1713.5C 3276.67,1719.18 3276.5,1724.84 3276,1730.5C 3271.87,1734.48 3267.04,1737.32 3261.5,1739C 3244.24,1744.46 3226.9,1744.79 3209.5,1740C 3186.82,1729.51 3174.99,1711.68 3174,1686.5C 3170.99,1661.73 3177.82,1640.23 3194.5,1622C 3198.83,1619 3203.17,1616 3207.5,1613C 3212.84,1610.85 3218.17,1609.01 3223.5,1607.5 Z"/></g>
<g><path style="opacity:1" fill="#020202" d="M 3347.5,1607.5 C 3360.14,1606.58 3372.47,1608.08 3384.5,1612C 3385,1612.5 3385.5,1613 3386,1613.5C 3386.5,1619.49 3386.67,1625.49 3386.5,1631.5C 3373.75,1625.99 3360.42,1623.82 3346.5,1625C 3339.97,1626.85 3334.47,1630.35 3330,1635.5C 3326.18,1647.1 3329.68,1655.6 3340.5,1661C 3352.07,1665.45 3363.4,1670.45 3374.5,1676C 3390.37,1685.59 3395.87,1699.42 3391,1717.5C 3382.48,1732.86 3369.32,1741.36 3351.5,1743C 3338.53,1744.45 3325.86,1743.11 3313.5,1739C 3311.41,1738.21 3309.58,1737.04 3308,1735.5C 3307.5,1728.84 3307.33,1722.17 3307.5,1715.5C 3314.85,1719.16 3322.51,1722.33 3330.5,1725C 3342.22,1727.66 3353.56,1726.66 3364.5,1722C 3371.62,1715.91 3373.46,1708.41 3370,1699.5C 3367.13,1696.3 3363.96,1693.46 3360.5,1691C 3346.4,1685.12 3332.74,1678.45 3319.5,1671C 3306.27,1657.85 3304.1,1643.02 3313,1626.5C 3322.38,1616.11 3333.88,1609.78 3347.5,1607.5 Z"/></g>
<g><path style="opacity:1" fill="#040404" d="M 2903.5,1611.5 C 2909.83,1611.5 2916.17,1611.5 2922.5,1611.5C 2922.5,1654.17 2922.5,1696.83 2922.5,1739.5C 2915.71,1740.1 2909.21,1739.43 2903,1737.5C 2902.18,1695.46 2902.34,1653.46 2903.5,1611.5 Z"/></g>
<g><path style="opacity:1" fill="#fdfdfd" d="M 2661.5,1624.5 C 2687.38,1624.38 2700.38,1637.38 2700.5,1663.5C 2677.5,1663.5 2654.5,1663.5 2631.5,1663.5C 2632.05,1650.89 2637.05,1640.39 2646.5,1632C 2651.15,1628.63 2656.15,1626.13 2661.5,1624.5 Z"/></g>
<g><path style="opacity:1" fill="#fefefe" d="M 2797.5,1624.5 C 2819.76,1622.63 2833.92,1632.29 2840,1653.5C 2840.67,1666.5 2840.67,1679.5 2840,1692.5C 2835.1,1716.87 2820.27,1728.03 2795.5,1726C 2779.95,1721.45 2770.12,1711.29 2766,1695.5C 2761.92,1675.79 2764.58,1657.12 2774,1639.5C 2780.25,1631.81 2788.08,1626.81 2797.5,1624.5 Z"/></g>
<g><path style="opacity:1" fill="#fdfdfd" d="M 3225.5,1624.5 C 3251.38,1624.38 3264.38,1637.38 3264.5,1663.5C 3241.5,1663.5 3218.5,1663.5 3195.5,1663.5C 3196.05,1650.89 3201.05,1640.39 3210.5,1632C 3215.15,1628.63 3220.15,1626.13 3225.5,1624.5 Z"/></g>
<g><path style="opacity:1" fill="#fcfcfc" d="M 3027.5,1676.5 C 3030.5,1676.5 3033.5,1676.5 3036.5,1676.5C 3038.53,1690.89 3035.36,1703.89 3027,1715.5C 3014.65,1727.35 3000.82,1729.51 2985.5,1722C 2974.35,1710.97 2973.69,1699.3 2983.5,1687C 2987.27,1684.78 2991.27,1683.11 2995.5,1682C 3006.27,1679.98 3016.94,1678.14 3027.5,1676.5 Z"/></g>
<g><path style="opacity:1" fill="#000000" d="M 2859.5,1831.5 C 2868.03,1829.61 2874.53,1832.28 2879,1839.5C 2879.67,2008.83 2879.67,2178.17 2879,2347.5C 2874.04,2355.39 2867.21,2357.55 2858.5,2354C 2855.96,2351.8 2853.79,2349.3 2852,2346.5C 2851.33,2178.17 2851.33,2009.83 2852,1841.5C 2853.21,1837.13 2855.71,1833.8 2859.5,1831.5 Z"/></g>
<g><path style="opacity:1" fill="#010101" d="M 3537.5,2409.5 C 3543.76,2409.19 3549.92,2409.52 3556,2410.5C 3556.42,2433.56 3556.59,2456.56 3556.5,2479.5C 3572.74,2461.82 3592.41,2456.65 3615.5,2464C 3630.07,2469.57 3639.9,2479.73 3645,2494.5C 3650.26,2513.95 3650.93,2533.62 3647,2553.5C 3637.89,2584.15 3617.39,2597.32 3585.5,2593C 3579.96,2591.56 3574.62,2589.56 3569.5,2587C 3565.02,2583.35 3560.68,2579.52 3556.5,2575.5C 3555.52,2575.98 3554.69,2576.64 3554,2577.5C 3553.05,2582.16 3552.22,2586.83 3551.5,2591.5C 3546.83,2591.5 3542.17,2591.5 3537.5,2591.5C 3537.5,2530.83 3537.5,2470.17 3537.5,2409.5 Z"/></g>
<g><path style="opacity:1" fill="#070707" d="M 3684.5,2409.5 C 3690.83,2409.5 3697.17,2409.5 3703.5,2409.5C 3703.5,2470.17 3703.5,2530.83 3703.5,2591.5C 3696.83,2591.5 3690.17,2591.5 3683.5,2591.5C 3683.17,2530.79 3683.51,2470.13 3684.5,2409.5 Z"/></g>
<g><path style="opacity:1" fill="#040404" d="M 3481.5,2415.5 C 3492.69,2414.84 3497.86,2420.17 3497,2431.5C 3493.16,2441.5 3486.66,2443.66 3477.5,2438C 3474.67,2433.56 3473.84,2428.73 3475,2423.5C 3477,2420.67 3479.17,2418 3481.5,2415.5 Z"/></g>
<g><path style="opacity:1" fill="#020202" d="M 1960.5,2417.5 C 1978.72,2417.05 1996.39,2419.89 2013.5,2426C 2015.4,2427.81 2015.9,2429.97 2015,2432.5C 2012.91,2435.67 2011.08,2439.01 2009.5,2442.5C 2008.67,2442.83 2007.83,2443.17 2007,2443.5C 1988.39,2435.75 1969.22,2433.91 1949.5,2438C 1930.84,2445.32 1918.34,2458.49 1912,2477.5C 1907.01,2498.38 1907.68,2519.04 1914,2539.5C 1923.88,2564.69 1942.38,2576.69 1969.5,2575.5C 1974.5,2575.33 1979.5,2575.17 1984.5,2575C 1992.81,2573.17 2001.14,2571.83 2009.5,2571C 2010.63,2575.75 2010.8,2580.58 2010,2585.5C 2006.36,2588.46 2002.19,2590.29 1997.5,2591C 1982.58,2593.3 1967.58,2593.96 1952.5,2593C 1918.8,2587.3 1897.96,2567.8 1890,2534.5C 1886.13,2513.33 1886.8,2492.33 1892,2471.5C 1903.65,2439.26 1926.48,2421.26 1960.5,2417.5 Z"/></g>
<g><path style="opacity:1" fill="#020202" d="M 2693.5,2433.5 C 2696.83,2433.5 2700.17,2433.5 2703.5,2433.5C 2703.5,2443.5 2703.5,2453.5 2703.5,2463.5C 2716.08,2463.18 2728.58,2463.51 2741,2464.5C 2741.17,2466.67 2741.33,2468.83 2741.5,2471C 2741.42,2473.63 2740.75,2475.96 2739.5,2478C 2727.59,2478.18 2715.76,2478.68 2704,2479.5C 2703.33,2504.5 2703.33,2529.5 2704,2554.5C 2703.8,2564.95 2708.3,2572.45 2717.5,2577C 2725.52,2577.44 2733.52,2577.44 2741.5,2577C 2745.46,2587.77 2741.79,2593.1 2730.5,2593C 2719.23,2594.85 2708.57,2593.18 2698.5,2588C 2690.45,2581.41 2685.95,2572.91 2685,2562.5C 2684.67,2534.83 2684.33,2507.17 2684,2479.5C 2678.58,2478.69 2673.08,2478.19 2667.5,2478C 2664.57,2474.3 2664.91,2470.97 2668.5,2468C 2673,2465.61 2677.67,2463.61 2682.5,2462C 2683.33,2461.17 2684.17,2460.33 2685,2459.5C 2687.53,2450.64 2690.36,2441.97 2693.5,2433.5 Z"/></g>
<g><path style="opacity:1" fill="#020202" d="M 2087.5,2460.5 C 2125.27,2458.78 2147.44,2476.45 2154,2513.5C 2157.61,2536.72 2152.61,2557.72 2139,2576.5C 2123.65,2590.78 2105.49,2596.28 2084.5,2593C 2057.48,2586.31 2041.98,2569.15 2038,2541.5C 2033.99,2519.23 2038.32,2498.9 2051,2480.5C 2060.73,2469.22 2072.9,2462.55 2087.5,2460.5 Z"/></g>
<g><path style="opacity:1" fill="#010101" d="M 2243.5,2460.5 C 2254.87,2460.31 2265.87,2462.14 2276.5,2466C 2286.46,2471.75 2292.63,2480.25 2295,2491.5C 2296.6,2524.48 2296.93,2557.48 2296,2590.5C 2289.92,2591.48 2283.76,2591.81 2277.5,2591.5C 2277.67,2561.83 2277.5,2532.16 2277,2502.5C 2274.55,2485.05 2264.55,2476.72 2247,2477.5C 2223.38,2477.79 2210.71,2489.79 2209,2513.5C 2208.67,2539.17 2208.33,2564.83 2208,2590.5C 2201.92,2591.48 2195.76,2591.81 2189.5,2591.5C 2189.5,2548.83 2189.5,2506.17 2189.5,2463.5C 2194.51,2463.33 2199.51,2463.5 2204.5,2464C 2206.01,2469.05 2207.01,2474.21 2207.5,2479.5C 2208.55,2479.65 2209.55,2479.48 2210.5,2479C 2218.9,2468.13 2229.9,2461.97 2243.5,2460.5 Z"/></g>
<g><path style="opacity:1" fill="#030303" d="M 2382.5,2460.5 C 2395.15,2460.24 2407.48,2462.07 2419.5,2466C 2420.89,2466.96 2421.56,2468.29 2421.5,2470C 2420.09,2472.95 2419.25,2476.12 2419,2479.5C 2417.65,2481.02 2416.15,2482.35 2414.5,2483.5C 2373.21,2468.96 2351.88,2483.46 2350.5,2527C 2349.56,2540.11 2352.39,2552.28 2359,2563.5C 2368.82,2575.28 2381.32,2579.45 2396.5,2576C 2404.57,2574.64 2412.57,2573.31 2420.5,2572C 2421.63,2576.41 2421.8,2580.91 2421,2585.5C 2419.83,2586.67 2418.67,2587.83 2417.5,2589C 2400.67,2594.15 2383.67,2594.81 2366.5,2591C 2347.24,2582.73 2335.74,2568.23 2332,2547.5C 2328.12,2526.7 2330.45,2506.7 2339,2487.5C 2349.08,2471.22 2363.58,2462.22 2382.5,2460.5 Z"/></g>
<g><path style="opacity:1" fill="#030303" d="M 2504.5,2460.5 C 2510.96,2460.15 2517.29,2460.82 2523.5,2462.5C 2523.79,2468.09 2523.79,2473.75 2523.5,2479.5C 2494.41,2474.77 2476.91,2486.77 2471,2515.5C 2470.5,2540.83 2470.33,2566.16 2470.5,2591.5C 2464.17,2591.5 2457.83,2591.5 2451.5,2591.5C 2451.5,2548.83 2451.5,2506.17 2451.5,2463.5C 2456.83,2463.5 2462.17,2463.5 2467.5,2463.5C 2467.57,2471.02 2468.4,2478.35 2470,2485.5C 2478.34,2472.64 2489.84,2464.31 2504.5,2460.5 Z"/></g>
<g><path style="opacity:1" fill="#040404" d="M 2591.5,2460.5 C 2621.4,2459.25 2640.57,2472.92 2649,2501.5C 2650.26,2511.46 2650.76,2521.46 2650.5,2531.5C 2621.16,2531.17 2591.83,2531.5 2562.5,2532.5C 2564.2,2566.01 2581.87,2580.51 2615.5,2576C 2625.67,2574.4 2635.67,2572.23 2645.5,2569.5C 2645.67,2574.18 2645.5,2578.85 2645,2583.5C 2644.17,2585 2643,2586.17 2641.5,2587C 2620.03,2594.76 2598.36,2595.43 2576.5,2589C 2559.02,2580.85 2548.18,2567.35 2544,2548.5C 2540.21,2530.12 2541.55,2512.12 2548,2494.5C 2556.32,2474.99 2570.82,2463.66 2591.5,2460.5 Z"/></g>
<g><path style="opacity:1" fill="#050505" d="M 2808.5,2460.5 C 2832.62,2457.98 2850.78,2466.98 2863,2487.5C 2869.63,2501.62 2871.13,2516.12 2867.5,2531C 2838.84,2531.5 2810.17,2531.67 2781.5,2531.5C 2782.97,2566.12 2800.97,2580.96 2835.5,2576C 2845.2,2574.7 2854.53,2572.2 2863.5,2568.5C 2864.5,2573.46 2864.66,2578.46 2864,2583.5C 2863.53,2584.93 2862.7,2586.1 2861.5,2587C 2842.94,2593.45 2823.94,2595.12 2804.5,2592C 2780.87,2584.7 2766.7,2568.86 2762,2544.5C 2758.12,2521.38 2762.45,2500.04 2775,2480.5C 2784.03,2470.07 2795.2,2463.41 2808.5,2460.5 Z"/></g>
<g><path style="opacity:1" fill="#020202" d="M 2997.5,2460.5 C 3008.62,2460.53 3019.62,2461.7 3030.5,2464C 3035.43,2464.89 3039.93,2466.72 3044,2469.5C 3042.97,2474.57 3041.14,2479.4 3038.5,2484C 3030.71,2481.63 3022.71,2479.63 3014.5,2478C 3006.5,2477.33 2998.5,2477.33 2990.5,2478C 2979.25,2480.55 2974.41,2487.38 2976,2498.5C 2979.17,2503 2983,2506.83 2987.5,2510C 3003.33,2515.58 3018.66,2522.25 3033.5,2530C 3045.5,2539.33 3050,2551.5 3047,2566.5C 3041.97,2579.19 3032.8,2587.36 3019.5,2591C 2999.07,2595.33 2979.07,2594 2959.5,2587C 2959,2586.5 2958.5,2586 2958,2585.5C 2957.5,2580.18 2957.33,2574.84 2957.5,2569.5C 2966.77,2572.09 2976.1,2574.59 2985.5,2577C 2996.29,2578.07 3006.96,2577.4 3017.5,2575C 3026.8,2570.79 3030.63,2563.63 3029,2553.5C 3027.26,2549.76 3024.76,2546.59 3021.5,2544C 3005.5,2536.67 2989.5,2529.33 2973.5,2522C 2956.56,2510.65 2952.73,2495.82 2962,2477.5C 2971.64,2467.13 2983.48,2461.46 2997.5,2460.5 Z"/></g>
<g><path style="opacity:1" fill="#050505" d="M 3120.5,2460.5 C 3144.62,2457.98 3162.78,2466.98 3175,2487.5C 3181.63,2501.62 3183.13,2516.12 3179.5,2531C 3150.84,2531.5 3122.17,2531.67 3093.5,2531.5C 3094.97,2566.12 3112.97,2580.96 3147.5,2576C 3157.2,2574.7 3166.53,2572.2 3175.5,2568.5C 3176.5,2573.46 3176.66,2578.46 3176,2583.5C 3175.53,2584.93 3174.7,2586.1 3173.5,2587C 3154.94,2593.45 3135.94,2595.12 3116.5,2592C 3092.87,2584.7 3078.7,2568.86 3074,2544.5C 3070.12,2521.38 3074.45,2500.04 3087,2480.5C 3096.03,2470.07 3107.2,2463.41 3120.5,2460.5 Z"/></g>
<g><path style="opacity:1" fill="#030303" d="M 3268.5,2460.5 C 3279.91,2459.96 3290.91,2461.79 3301.5,2466C 3313.15,2472.78 3319.65,2482.94 3321,2496.5C 3321.5,2528.16 3321.67,2559.83 3321.5,2591.5C 3314.71,2592.1 3308.21,2591.43 3302,2589.5C 3301.67,2558.83 3301.33,2528.17 3301,2497.5C 3296.9,2482.94 3287.24,2476.27 3272,2477.5C 3249.27,2477.56 3236.61,2488.89 3234,2511.5C 3233.5,2538.16 3233.33,2564.83 3233.5,2591.5C 3227.24,2591.81 3221.08,2591.48 3215,2590.5C 3214.33,2548.5 3214.33,2506.5 3215,2464.5C 3219.75,2463.37 3224.58,2463.2 3229.5,2464C 3230.13,2464.75 3230.63,2465.58 3231,2466.5C 3231.5,2470.82 3231.67,2475.15 3231.5,2479.5C 3235.47,2478.05 3238.81,2475.55 3241.5,2472C 3249.63,2465.93 3258.63,2462.09 3268.5,2460.5 Z"/></g>
<g><path style="opacity:1" fill="#030303" d="M 3398.5,2460.5 C 3412.58,2460.75 3426.24,2463.25 3439.5,2468C 3440.57,2468.74 3441.24,2469.74 3441.5,2471C 3440.08,2474.49 3438.58,2477.99 3437,2481.5C 3435.94,2482.9 3434.61,2483.9 3433,2484.5C 3415.53,2476.77 3397.7,2475.6 3379.5,2481C 3369.79,2490.51 3370.46,2499.51 3381.5,2508C 3394,2513.72 3406.67,2519.06 3419.5,2524C 3444.53,2534.6 3451.03,2552.1 3439,2576.5C 3430.14,2586.57 3418.98,2592.07 3405.5,2593C 3396.17,2593.67 3386.83,2593.67 3377.5,2593C 3369.94,2592.04 3362.78,2589.87 3356,2586.5C 3354.23,2580.7 3354.07,2574.86 3355.5,2569C 3364.14,2572.42 3373.14,2575.08 3382.5,2577C 3390.83,2577.67 3399.17,2577.67 3407.5,2577C 3423.94,2573.26 3429.11,2563.76 3423,2548.5C 3420.93,2546.55 3418.76,2544.71 3416.5,2543C 3401.29,2535.81 3385.95,2528.81 3370.5,2522C 3349.08,2505.4 3348.08,2487.73 3367.5,2469C 3377.25,2463.48 3387.58,2460.65 3398.5,2460.5 Z"/></g>
<g><path style="opacity:1" fill="#040404" d="M 3787.5,2460.5 C 3817.4,2459.25 3836.57,2472.92 3845,2501.5C 3846.26,2511.46 3846.76,2521.46 3846.5,2531.5C 3817.16,2531.17 3787.83,2531.5 3758.5,2532.5C 3760.2,2566.01 3777.87,2580.51 3811.5,2576C 3821.67,2574.4 3831.67,2572.23 3841.5,2569.5C 3841.67,2574.18 3841.5,2578.85 3841,2583.5C 3840.17,2585 3839,2586.17 3837.5,2587C 3816.03,2594.76 3794.36,2595.43 3772.5,2589C 3755.02,2580.85 3744.18,2567.35 3740,2548.5C 3736.21,2530.12 3737.55,2512.12 3744,2494.5C 3752.32,2474.99 3766.82,2463.66 3787.5,2460.5 Z"/></g>
<g><path style="opacity:1" fill="#060606" d="M 3475.5,2463.5 C 3482.17,2463.5 3488.83,2463.5 3495.5,2463.5C 3495.5,2506.17 3495.5,2548.83 3495.5,2591.5C 3488.83,2591.5 3482.17,2591.5 3475.5,2591.5C 3475.5,2548.83 3475.5,2506.17 3475.5,2463.5 Z"/></g>
<g><path style="opacity:1" fill="#fefefe" d="M 2086.5,2477.5 C 2110.85,2474.08 2126.35,2484.08 2133,2507.5C 2135.7,2523.76 2134.7,2539.76 2130,2555.5C 2121.42,2573.37 2107.25,2580.54 2087.5,2577C 2073.47,2573.3 2064.3,2564.47 2060,2550.5C 2055.82,2531.8 2056.82,2513.46 2063,2495.5C 2068.26,2485.97 2076.09,2479.97 2086.5,2477.5 Z"/></g>
<g><path style="opacity:1" fill="#fdfdfd" d="M 2588.5,2477.5 C 2615.9,2474.74 2629.4,2487.07 2629,2514.5C 2607.24,2515.49 2585.41,2515.83 2563.5,2515.5C 2563.37,2497.06 2571.7,2484.39 2588.5,2477.5 Z"/></g>
<g><path style="opacity:1" fill="#fcfcfc" d="M 2807.5,2477.5 C 2834.87,2474.71 2848.37,2487.04 2848,2514.5C 2826.24,2515.66 2804.41,2515.83 2782.5,2515C 2782.28,2496.73 2790.61,2484.23 2807.5,2477.5 Z"/></g>
<g><path style="opacity:1" fill="#fcfcfc" d="M 3119.5,2477.5 C 3146.87,2474.71 3160.37,2487.04 3160,2514.5C 3138.24,2515.66 3116.41,2515.83 3094.5,2515C 3094.28,2496.73 3102.61,2484.23 3119.5,2477.5 Z"/></g>
<g><path style="opacity:1" fill="#fdfdfd" d="M 3583.5,2477.5 C 3609.49,2473.67 3624.66,2484.67 3629,2510.5C 3629.67,2521.5 3629.67,2532.5 3629,2543.5C 3622.08,2574.71 3603.58,2584.55 3573.5,2573C 3564.92,2566.68 3559.75,2558.18 3558,2547.5C 3555,2529.15 3556.33,2511.15 3562,2493.5C 3567.1,2485.22 3574.26,2479.88 3583.5,2477.5 Z"/></g>
<g><path style="opacity:1" fill="#fdfdfd" d="M 3784.5,2477.5 C 3811.9,2474.74 3825.4,2487.07 3825,2514.5C 3803.24,2515.49 3781.41,2515.83 3759.5,2515.5C 3759.37,2497.06 3767.7,2484.39 3784.5,2477.5 Z"/></g>
<g><path style="opacity:1" fill="#000000" d="M 2997.5,2745.5 C 3003.76,2745.19 3009.92,2745.52 3016,2746.5C 3016.67,2806.5 3016.67,2866.5 3016,2926.5C 3009.92,2927.48 3003.76,2927.81 2997.5,2927.5C 2997.5,2866.83 2997.5,2806.17 2997.5,2745.5 Z"/></g>
<g><path style="opacity:1" fill="#020202" d="M 3145.5,2745.5 C 3151.5,2745.5 3157.5,2745.5 3163.5,2745.5C 3163.5,2806.17 3163.5,2866.83 3163.5,2927.5C 3158.17,2927.5 3152.83,2927.5 3147.5,2927.5C 3147.55,2922.45 3147.05,2917.45 3146,2912.5C 3145.59,2912.04 3145.09,2911.71 3144.5,2911.5C 3131.17,2926.51 3114.5,2932.34 3094.5,2929C 3077.54,2926.26 3065.37,2917.1 3058,2901.5C 3050.09,2878.06 3049.43,2854.39 3056,2830.5C 3071.28,2798.85 3095.44,2789.35 3128.5,2802C 3134.46,2805.9 3139.96,2810.4 3145,2815.5C 3144.24,2792.11 3144.41,2768.78 3145.5,2745.5 Z"/></g>
<g><path style="opacity:1" fill="#020202" d="M 2803.5,2796.5 C 2838.42,2797.25 2858.58,2814.91 2864,2849.5C 2867.82,2872.78 2862.82,2893.78 2849,2912.5C 2833.65,2926.78 2815.49,2932.28 2794.5,2929C 2767.94,2922.43 2752.44,2905.6 2748,2878.5C 2747.33,2868.5 2747.33,2858.5 2748,2848.5C 2753.27,2816.72 2771.77,2799.39 2803.5,2796.5 Z"/></g>
<g><path style="opacity:1" fill="#030303" d="M 2952.5,2796.5 C 2958.96,2796.15 2965.29,2796.82 2971.5,2798.5C 2971.79,2804.09 2971.79,2809.75 2971.5,2815.5C 2942.41,2810.77 2924.91,2822.77 2919,2851.5C 2918.5,2876.83 2918.33,2902.16 2918.5,2927.5C 2912.17,2927.5 2905.83,2927.5 2899.5,2927.5C 2899.5,2884.83 2899.5,2842.17 2899.5,2799.5C 2904.83,2799.5 2910.17,2799.5 2915.5,2799.5C 2915.57,2807.02 2916.4,2814.35 2918,2821.5C 2926.34,2808.64 2937.84,2800.31 2952.5,2796.5 Z"/></g>
<g><path style="opacity:1" fill="#020202" d="M 2550.5,2799.5 C 2556.84,2799.33 2563.18,2799.5 2569.5,2800C 2578.53,2834.81 2587.7,2869.64 2597,2904.5C 2607.14,2869.4 2617.97,2834.57 2629.5,2800C 2636.75,2799.19 2643.91,2799.35 2651,2800.5C 2662.2,2834.93 2672.7,2869.6 2682.5,2904.5C 2691.51,2870.96 2700.35,2837.29 2709,2803.5C 2709.47,2802.07 2710.3,2800.9 2711.5,2800C 2717.82,2799.5 2724.16,2799.33 2730.5,2799.5C 2718.44,2842.03 2706.77,2884.69 2695.5,2927.5C 2687.5,2927.5 2679.5,2927.5 2671.5,2927.5C 2660.84,2892.52 2650.34,2857.52 2640,2822.5C 2630,2855.88 2619.34,2889.22 2608,2922.5C 2607.51,2924.13 2607.34,2925.8 2607.5,2927.5C 2599.58,2927.82 2591.75,2927.48 2584,2926.5C 2573,2884.81 2561.5,2843.31 2549.5,2802C 2549.74,2801.1 2550.08,2800.26 2550.5,2799.5 Z"/></g>
<g><path style="opacity:1" fill="#fefefe" d="M 2795.5,2813.5 C 2820.11,2809.99 2835.95,2819.99 2843,2843.5C 2845.94,2860.56 2844.61,2877.23 2839,2893.5C 2830.07,2910.05 2816.23,2916.55 2797.5,2913C 2783.43,2909.27 2774.26,2900.43 2770,2886.5C 2766.12,2868.62 2766.78,2850.95 2772,2833.5C 2776.98,2823.34 2784.82,2816.67 2795.5,2813.5 Z"/></g>
<g><path style="opacity:1" fill="#fdfdfd" d="M 3097.5,2813.5 C 3108.77,2812.15 3119.44,2813.98 3129.5,2819C 3137.25,2825.33 3141.75,2833.49 3143,2843.5C 3145.37,2859.98 3144.7,2876.32 3141,2892.5C 3136.4,2904.1 3127.9,2910.93 3115.5,2913C 3097.23,2916.45 3084.06,2909.95 3076,2893.5C 3074.24,2888.96 3072.91,2884.3 3072,2879.5C 3071.33,2869.17 3071.33,2858.83 3072,2848.5C 3073.75,2831.57 3082.25,2819.9 3097.5,2813.5 Z"/></g>
<g><path style="opacity:1" fill="#070707" d="M 5102.5,3067.5 C 5111.32,3068.18 5119.98,3069.68 5128.5,3072C 5129.06,3072.72 5129.39,3073.56 5129.5,3074.5C 5128.02,3078.01 5126.86,3081.68 5126,3085.5C 5125.11,3086.08 5124.11,3086.41 5123,3086.5C 5116.98,3085.59 5110.98,3084.59 5105,3083.5C 5095.24,3084.21 5088.91,3089.21 5086,3098.5C 5084.54,3106.77 5083.71,3115.11 5083.5,3123.5C 5094.51,3123.33 5105.51,3123.5 5116.5,3124C 5117.08,3124.89 5117.41,3125.89 5117.5,3127C 5116.99,3130.74 5116.33,3134.41 5115.5,3138C 5105.17,3138.5 5094.84,3138.67 5084.5,3138.5C 5084.67,3175.83 5084.5,3213.17 5084,3250.5C 5077.59,3251.48 5071.09,3251.81 5064.5,3251.5C 5064.5,3213.83 5064.5,3176.17 5064.5,3138.5C 5057.49,3138.67 5050.49,3138.5 5043.5,3138C 5040.34,3133.8 5041.01,3130.47 5045.5,3128C 5052.29,3126.52 5058.79,3124.35 5065,3121.5C 5063.6,3107.57 5066.27,3094.57 5073,3082.5C 5080.76,3073.21 5090.59,3068.21 5102.5,3067.5 Z"/></g>
<g><path style="opacity:1" fill="#050505" d="M 5830.5,3075.5 C 5843.86,3075.72 5848.69,3082.39 5845,3095.5C 5836.65,3104.1 5829.65,3103.1 5824,3092.5C 5822.31,3085.24 5824.47,3079.57 5830.5,3075.5 Z"/></g>
<g><path style="opacity:1" fill="#030303" d="M 4415.5,3080.5 C 4458.07,3080.17 4500.57,3080.5 4543,3081.5C 4543.67,3086.17 4543.67,3090.83 4543,3095.5C 4542.5,3096 4542,3096.5 4541.5,3097C 4523.77,3096.85 4506.27,3097.69 4489,3099.5C 4488.83,3150.07 4488.33,3200.57 4487.5,3251C 4481.25,3251.81 4475.08,3251.64 4469,3250.5C 4468.67,3199.83 4468.33,3149.17 4468,3098.5C 4450.57,3097.67 4433.07,3097.17 4415.5,3097C 4414.23,3091.53 4414.23,3086.03 4415.5,3080.5 Z"/></g>
<g><path style="opacity:1" fill="#020202" d="M 5752.5,3092.5 C 5755.67,3092.66 5758.51,3093.66 5761,3095.5C 5761.5,3104.83 5761.67,3114.16 5761.5,3123.5C 5773.83,3123.5 5786.17,3123.5 5798.5,3123.5C 5798.67,3127.85 5798.5,3132.18 5798,3136.5C 5797.5,3137 5797,3137.5 5796.5,3138C 5784.59,3138.18 5772.76,3138.68 5761,3139.5C 5760.13,3167.52 5760.47,3195.52 5762,3223.5C 5763.79,3230.29 5767.96,3234.79 5774.5,3237C 5782.85,3237.52 5791.18,3237.35 5799.5,3236.5C 5799.67,3240.85 5799.5,3245.18 5799,3249.5C 5795.85,3251.5 5792.35,3252.67 5788.5,3253C 5772.49,3256.46 5758.99,3252.3 5748,3240.5C 5744.5,3235.01 5742.5,3229.01 5742,3222.5C 5741.5,3194.5 5741.33,3166.5 5741.5,3138.5C 5735.5,3138.5 5729.5,3138.5 5723.5,3138.5C 5723.18,3135.1 5723.51,3131.77 5724.5,3128.5C 5728.6,3126.12 5732.94,3124.28 5737.5,3123C 5739.09,3121.95 5740.59,3120.79 5742,3119.5C 5743.79,3112.46 5745.79,3105.46 5748,3098.5C 5749.28,3096.25 5750.78,3094.25 5752.5,3092.5 Z"/></g>
<g><path style="opacity:1" fill="#010101" d="M 4619.5,3120.5 C 4625.97,3120.08 4632.31,3120.75 4638.5,3122.5C 4639.7,3127.86 4639.53,3133.19 4638,3138.5C 4610.19,3134.65 4592.86,3146.32 4586,3173.5C 4585.5,3199.5 4585.33,3225.5 4585.5,3251.5C 4579.24,3251.81 4573.08,3251.48 4567,3250.5C 4566.33,3208.5 4566.33,3166.5 4567,3124.5C 4572,3123.17 4577,3123.17 4582,3124.5C 4583.16,3131.45 4583.66,3138.45 4583.5,3145.5C 4584.68,3145.72 4585.68,3145.39 4586.5,3144.5C 4594.65,3132.29 4605.65,3124.29 4619.5,3120.5 Z"/></g>
<g><path style="opacity:1" fill="#020202" d="M 4698.5,3121.5 C 4711.39,3120.65 4724.05,3121.81 4736.5,3125C 4748.7,3130.55 4755.53,3140.05 4757,3153.5C 4757.5,3186.16 4757.67,3218.83 4757.5,3251.5C 4752.82,3251.67 4748.15,3251.5 4743.5,3251C 4741.88,3245.61 4740.55,3240.11 4739.5,3234.5C 4738.45,3234.35 4737.45,3234.52 4736.5,3235C 4722.78,3250.96 4705.44,3256.96 4684.5,3253C 4665.18,3248.55 4655.18,3236.39 4654.5,3216.5C 4654.68,3202.63 4660.68,3192.13 4672.5,3185C 4682.54,3179.82 4693.21,3176.82 4704.5,3176C 4715.55,3175.81 4726.55,3175.31 4737.5,3174.5C 4741.42,3145.25 4728.75,3133.09 4699.5,3138C 4692.63,3139.73 4685.97,3142.07 4679.5,3145C 4677.56,3145.74 4675.73,3145.58 4674,3144.5C 4672.31,3141.08 4670.81,3137.58 4669.5,3134C 4669.76,3132.74 4670.43,3131.74 4671.5,3131C 4680.24,3126.74 4689.24,3123.58 4698.5,3121.5 Z"/></g>
<g><path style="opacity:1" fill="#010101" d="M 4851.5,3120.5 C 4864.21,3119.83 4876.21,3122.33 4887.5,3128C 4895.87,3133.71 4901.04,3141.54 4903,3151.5C 4904.6,3184.48 4904.93,3217.48 4904,3250.5C 4897.92,3251.48 4891.76,3251.81 4885.5,3251.5C 4885.67,3221.83 4885.5,3192.16 4885,3162.5C 4882.55,3145.05 4872.55,3136.72 4855,3137.5C 4831.39,3137.78 4818.72,3149.78 4817,3173.5C 4816.67,3199.17 4816.33,3224.83 4816,3250.5C 4809.92,3251.48 4803.76,3251.81 4797.5,3251.5C 4797.5,3208.83 4797.5,3166.17 4797.5,3123.5C 4802.51,3123.33 4807.51,3123.5 4812.5,3124C 4814.01,3129.05 4815.01,3134.21 4815.5,3139.5C 4816.55,3139.65 4817.55,3139.48 4818.5,3139C 4826.9,3128.13 4837.9,3121.97 4851.5,3120.5 Z"/></g>
<g><path style="opacity:1" fill="#030303" d="M 4979.5,3120.5 C 4993.98,3120.36 5007.98,3122.86 5021.5,3128C 5022.8,3128.8 5023.47,3129.97 5023.5,3131.5C 5021.58,3135.01 5019.91,3138.68 5018.5,3142.5C 5016.24,3143.65 5013.9,3143.81 5011.5,3143C 4995.8,3136.97 4979.8,3135.97 4963.5,3140C 4951.64,3149.12 4951.64,3158.45 4963.5,3168C 4974.51,3173.45 4985.84,3178.11 4997.5,3182C 5003.48,3185.3 5009.48,3188.63 5015.5,3192C 5024.98,3200.43 5028.48,3210.93 5026,3223.5C 5023.41,3235.84 5016.24,3244.34 5004.5,3249C 4986.37,3254.16 4968.04,3254.83 4949.5,3251C 4945,3249.83 4940.84,3248 4937,3245.5C 4936.19,3239.92 4936.36,3234.42 4937.5,3229C 4946.14,3232.42 4955.14,3235.08 4964.5,3237C 4972.5,3237.67 4980.5,3237.67 4988.5,3237C 5003.65,3234.87 5009.81,3226.37 5007,3211.5C 5002.92,3206.04 4997.75,3201.87 4991.5,3199C 4978.17,3194.11 4965.17,3188.44 4952.5,3182C 4939.27,3173.71 4934.11,3161.88 4937,3146.5C 4940.97,3135.08 4948.8,3127.58 4960.5,3124C 4966.91,3122.44 4973.24,3121.27 4979.5,3120.5 Z"/></g>
<g><path style="opacity:1" fill="#020202" d="M 5183.5,3120.5 C 5221.26,3118.78 5243.43,3136.45 5250,3173.5C 5253.79,3196.76 5248.79,3217.76 5235,3236.5C 5225.93,3246.12 5214.76,3251.62 5201.5,3253C 5163.42,3256.26 5140.92,3239.09 5134,3201.5C 5129.8,3177.31 5135.13,3155.64 5150,3136.5C 5159.62,3127.77 5170.79,3122.44 5183.5,3120.5 Z"/></g>
<g><path style="opacity:1" fill="#010101" d="M 5340.5,3120.5 C 5346.33,3120.05 5352,3120.72 5357.5,3122.5C 5357.99,3123.45 5358.32,3124.45 5358.5,3125.5C 5357.8,3129.47 5357.3,3133.47 5357,3137.5C 5355.53,3139.01 5353.69,3139.67 5351.5,3139.5C 5330.95,3136.36 5316.45,3144.36 5308,3163.5C 5306.41,3167.34 5305.41,3171.34 5305,3175.5C 5304.67,3200.5 5304.33,3225.5 5304,3250.5C 5297.92,3251.48 5291.76,3251.81 5285.5,3251.5C 5285.5,3208.83 5285.5,3166.17 5285.5,3123.5C 5290.83,3123.5 5296.17,3123.5 5301.5,3123.5C 5302.17,3130.14 5302.67,3136.81 5303,3143.5C 5303.31,3144.31 5303.81,3144.97 5304.5,3145.5C 5309.95,3138.21 5316.29,3131.71 5323.5,3126C 5329,3123.22 5334.67,3121.39 5340.5,3120.5 Z"/></g>
<g><path style="opacity:1" fill="#060606" d="M 5435.5,3120.5 C 5449.29,3119.27 5461.62,3122.77 5472.5,3131C 5475.36,3134.52 5478.19,3138.02 5481,3141.5C 5497.67,3121.62 5518.51,3115.78 5543.5,3124C 5558.82,3131.68 5566.32,3144.18 5566,3161.5C 5566.5,3191.5 5566.67,3221.5 5566.5,3251.5C 5560.17,3251.5 5553.83,3251.5 5547.5,3251.5C 5546.84,3219.51 5546.17,3187.51 5545.5,3155.5C 5541.46,3142.66 5532.63,3136.66 5519,3137.5C 5504.25,3136.71 5493.91,3143.04 5488,3156.5C 5486.38,3160.35 5485.38,3164.35 5485,3168.5C 5484.67,3195.83 5484.33,3223.17 5484,3250.5C 5477.67,3251.83 5471.33,3251.83 5465,3250.5C 5464.67,3219.83 5464.33,3189.17 5464,3158.5C 5462.82,3147.65 5456.98,3140.82 5446.5,3138C 5423.61,3133.92 5409.44,3143.09 5404,3165.5C 5402.58,3194.14 5402.08,3222.81 5402.5,3251.5C 5396.17,3251.5 5389.83,3251.5 5383.5,3251.5C 5383.5,3208.83 5383.5,3166.17 5383.5,3123.5C 5388.83,3123.5 5394.17,3123.5 5399.5,3123.5C 5399.73,3128.98 5400.73,3134.31 5402.5,3139.5C 5407.39,3134.44 5412.73,3129.94 5418.5,3126C 5424,3123.22 5429.67,3121.39 5435.5,3120.5 Z"/></g>
<g><path style="opacity:1" fill="#020202" d="M 5643.5,3121.5 C 5655.39,3120.69 5667.06,3121.86 5678.5,3125C 5691.13,3130.76 5697.97,3140.59 5699,3154.5C 5699.5,3186.83 5699.67,3219.16 5699.5,3251.5C 5694.46,3251.83 5689.46,3251.49 5684.5,3250.5C 5683.88,3244.73 5682.71,3239.07 5681,3233.5C 5676.53,3236.97 5672.37,3240.8 5668.5,3245C 5655.65,3253.03 5641.65,3255.69 5626.5,3253C 5603.6,3247.06 5593.77,3232.23 5597,3208.5C 5600.2,3195.63 5608.04,3186.79 5620.5,3182C 5628.26,3179.06 5636.26,3177.06 5644.5,3176C 5656.21,3175.81 5667.88,3175.31 5679.5,3174.5C 5683.41,3145.25 5670.75,3133.08 5641.5,3138C 5634.62,3139.72 5627.95,3142.05 5621.5,3145C 5619.56,3145.74 5617.73,3145.58 5616,3144.5C 5615.19,3141.55 5613.86,3138.89 5612,3136.5C 5611.2,3134.74 5611.37,3133.07 5612.5,3131.5C 5622.31,3126.12 5632.65,3122.78 5643.5,3121.5 Z"/></g>
<g><path style="opacity:1" fill="#040404" d="M 6049.5,3120.5 C 6082.99,3120.16 6102.16,3136.5 6107,3169.5C 6107.5,3176.83 6107.67,3184.16 6107.5,3191.5C 6078.17,3191.5 6048.83,3191.5 6019.5,3191.5C 6020.93,3226.07 6038.93,3240.91 6073.5,3236C 6083.31,3234.27 6092.98,3232.11 6102.5,3229.5C 6102.67,3234.18 6102.5,3238.85 6102,3243.5C 6101.5,3245.33 6100.33,3246.5 6098.5,3247C 6077.01,3254.71 6055.34,3255.38 6033.5,3249C 6009.3,3236.11 5997.97,3215.94 5999.5,3188.5C 5998.17,3170.74 6002.67,3154.74 6013,3140.5C 6022.78,3129.17 6034.95,3122.5 6049.5,3120.5 Z"/></g>
<g><path style="opacity:1" fill="#000000" d="M 5825.5,3123.5 C 5831.76,3123.19 5837.92,3123.52 5844,3124.5C 5844.67,3166.5 5844.67,3208.5 5844,3250.5C 5837.92,3251.48 5831.76,3251.81 5825.5,3251.5C 5825.5,3208.83 5825.5,3166.17 5825.5,3123.5 Z"/></g>
<g><path style="opacity:1" fill="#020202" d="M 5865.5,3123.5 C 5872.17,3123.33 5878.84,3123.5 5885.5,3124C 5898.78,3160.08 5911.95,3196.24 5925,3232.5C 5937.21,3196.32 5950.05,3160.32 5963.5,3124.5C 5970.13,3123.5 5976.8,3123.17 5983.5,3123.5C 5983.66,3125.53 5983.5,3127.53 5983,3129.5C 5967.02,3168.42 5952.02,3207.75 5938,3247.5C 5937.53,3248.93 5936.7,3250.1 5935.5,3251C 5928.17,3251.67 5920.83,3251.67 5913.5,3251C 5896.81,3208.77 5880.81,3166.27 5865.5,3123.5 Z"/></g>
<g><path style="opacity:1" fill="#fefefe" d="M 5182.5,3137.5 C 5206.91,3134.1 5222.41,3144.1 5229,3167.5C 5231.42,3182.97 5230.75,3198.31 5227,3213.5C 5218.78,3232.7 5204.28,3240.53 5183.5,3237C 5169.47,3233.3 5160.3,3224.47 5156,3210.5C 5152.15,3192.95 5152.82,3175.62 5158,3158.5C 5162.7,3147.28 5170.87,3140.28 5182.5,3137.5 Z"/></g>
<g><path style="opacity:1" fill="#fcfcfc" d="M 6045.5,3137.5 C 6072.91,3134.75 6086.41,3147.08 6086,3174.5C 6064.24,3175.66 6042.41,3175.83 6020.5,3175C 6020.48,3156.85 6028.82,3144.35 6045.5,3137.5 Z"/></g>
<g><path style="opacity:1" fill="#010101" d="M 4217.5,3153.5 C 4222.63,3157.46 4227.63,3161.62 4232.5,3166C 4283.92,3217.08 4335.58,3267.75 4387.5,3318C 4391.01,3319.91 4392.18,3322.74 4391,3326.5C 4335.22,3381.61 4279.39,3436.78 4223.5,3492C 4221.99,3492.85 4220.49,3493.68 4219,3494.5C 4214.9,3492.07 4211.06,3489.23 4207.5,3486C 4203.02,3482.56 4199.85,3478.39 4198,3473.5C 4248.53,3423.64 4299.03,3373.81 4349.5,3324C 4298.7,3275.2 4248.53,3225.7 4199,3175.5C 4198.33,3174.17 4198.33,3172.83 4199,3171.5C 4205.06,3165.27 4211.23,3159.27 4217.5,3153.5 Z"/></g>
<g><path style="opacity:1" fill="#fdfdfd" d="M 4724.5,3188.5 C 4728.88,3188.17 4733.22,3188.51 4737.5,3189.5C 4740.6,3224.57 4724.6,3240.4 4689.5,3237C 4676.01,3231.45 4671.51,3221.62 4676,3207.5C 4680.11,3199.39 4686.61,3194.22 4695.5,3192C 4705.23,3190.19 4714.9,3189.02 4724.5,3188.5 Z"/></g>
<g><path style="opacity:1" fill="#fdfdfd" d="M 5674.5,3187.5 C 5676.14,3187.29 5677.64,3187.62 5679,3188.5C 5682.74,3225.43 5666.24,3241.26 5629.5,3236C 5617.93,3229.83 5614.1,3220.33 5618,3207.5C 5624.28,3197.27 5633.44,3191.44 5645.5,3190C 5655.36,3189.62 5665.02,3188.78 5674.5,3187.5 Z"/></g>
<g><path style="opacity:1" fill="#000000" d="M 2875.5,3265.5 C 3332.83,3265.33 3790.17,3265.5 4247.5,3266C 4254.2,3267.72 4257.53,3272.05 4257.5,3279C 4257.83,3287.07 4254.17,3291.73 4246.5,3293C 3789.17,3293.67 3331.83,3293.67 2874.5,3293C 2868.41,3290.48 2865.41,3285.81 2865.5,3279C 2866.09,3272.27 2869.42,3267.77 2875.5,3265.5 Z"/></g>
<g><path style="opacity:1" fill="#000000" d="M 2875.5,3341.5 C 3332.83,3341.33 3790.17,3341.5 4247.5,3342C 4254.5,3343.83 4257.83,3348.33 4257.5,3355.5C 4258.19,3363.65 4254.52,3368.15 4246.5,3369C 3789.83,3369.67 3333.17,3369.67 2876.5,3369C 2869.03,3367.41 2865.69,3362.74 2866.5,3355C 2866.51,3348.49 2869.51,3343.99 2875.5,3341.5 Z"/></g>
<g><path style="opacity:1" fill="#010101" d="M 5180.5,3403.5 C 5189.7,3403.85 5198.7,3405.35 5207.5,3408C 5208.29,3410.44 5208.12,3412.94 5207,3415.5C 5206.34,3419.01 5204.51,3421.67 5201.5,3423.5C 5193.75,3420.62 5185.75,3419.79 5177.5,3421C 5169.78,3424.24 5165.28,3430.08 5164,3438.5C 5163.5,3445.49 5163.33,3452.49 5163.5,3459.5C 5174.17,3459.5 5184.83,3459.5 5195.5,3459.5C 5195.5,3464.5 5195.5,3469.5 5195.5,3474.5C 5184.92,3474.18 5174.42,3474.51 5164,3475.5C 5163.5,3512.83 5163.33,3550.17 5163.5,3587.5C 5156.83,3587.5 5150.17,3587.5 5143.5,3587.5C 5143.67,3550.17 5143.5,3512.83 5143,3475.5C 5136.58,3474.69 5130.08,3474.19 5123.5,3474C 5119.26,3470.21 5119.59,3466.87 5124.5,3464C 5130.75,3462.4 5136.91,3460.56 5143,3458.5C 5143.56,3449.78 5144.56,3441.12 5146,3432.5C 5151.02,3414.97 5162.52,3405.3 5180.5,3403.5 Z"/></g>
<g><path style="opacity:1" fill="#030303" d="M 5679.5,3411.5 C 5691.48,3410.73 5696.64,3416.4 5695,3428.5C 5691.27,3436.63 5685.44,3438.8 5677.5,3435C 5673.18,3430.69 5671.68,3425.52 5673,3419.5C 5674.36,3416.1 5676.53,3413.43 5679.5,3411.5 Z"/></g>
<g><path style="opacity:1" fill="#020202" d="M 4572.5,3428.5 C 4575.67,3428.66 4578.51,3429.66 4581,3431.5C 4581.5,3440.83 4581.67,3450.16 4581.5,3459.5C 4593.83,3459.5 4606.17,3459.5 4618.5,3459.5C 4618.67,3463.85 4618.5,3468.18 4618,3472.5C 4617.5,3473 4617,3473.5 4616.5,3474C 4604.59,3474.18 4592.76,3474.68 4581,3475.5C 4580.13,3503.52 4580.47,3531.52 4582,3559.5C 4583.79,3566.29 4587.96,3570.79 4594.5,3573C 4602.85,3573.52 4611.18,3573.35 4619.5,3572.5C 4619.67,3576.85 4619.5,3581.18 4619,3585.5C 4615.85,3587.5 4612.35,3588.67 4608.5,3589C 4592.49,3592.46 4578.99,3588.3 4568,3576.5C 4564.5,3571.01 4562.5,3565.01 4562,3558.5C 4561.5,3530.5 4561.33,3502.5 4561.5,3474.5C 4555.5,3474.5 4549.5,3474.5 4543.5,3474.5C 4543.18,3471.1 4543.51,3467.77 4544.5,3464.5C 4548.6,3462.12 4552.94,3460.28 4557.5,3459C 4559.09,3457.95 4560.59,3456.79 4562,3455.5C 4563.79,3448.46 4565.79,3441.46 4568,3434.5C 4569.28,3432.25 4570.78,3430.25 4572.5,3428.5 Z"/></g>
<g><path style="opacity:1" fill="#060606" d="M 4696.5,3456.5 C 4703.21,3456.36 4709.88,3456.86 4716.5,3458C 4717.11,3459.23 4717.44,3460.56 4717.5,3462C 4716.78,3466.5 4716.11,3471 4715.5,3475.5C 4687.88,3470.95 4670.71,3482.28 4664,3509.5C 4663.5,3535.5 4663.33,3561.5 4663.5,3587.5C 4656.83,3587.5 4650.17,3587.5 4643.5,3587.5C 4643.5,3544.83 4643.5,3502.17 4643.5,3459.5C 4649.09,3459.19 4654.59,3459.53 4660,3460.5C 4660.9,3467.49 4661.73,3474.49 4662.5,3481.5C 4668.01,3475.49 4673.68,3469.65 4679.5,3464C 4684.87,3460.61 4690.54,3458.11 4696.5,3456.5 Z"/></g>
<g><path style="opacity:1" fill="#020202" d="M 4779.5,3457.5 C 4791.39,3456.69 4803.06,3457.86 4814.5,3461C 4827.13,3466.76 4833.97,3476.59 4835,3490.5C 4835.5,3522.83 4835.67,3555.16 4835.5,3587.5C 4830.46,3587.83 4825.46,3587.49 4820.5,3586.5C 4819.88,3580.73 4818.71,3575.07 4817,3569.5C 4812.53,3572.97 4808.37,3576.8 4804.5,3581C 4791.65,3589.03 4777.65,3591.69 4762.5,3589C 4739.6,3583.06 4729.77,3568.23 4733,3544.5C 4736.2,3531.63 4744.04,3522.79 4756.5,3518C 4764.26,3515.06 4772.26,3513.06 4780.5,3512C 4792.21,3511.81 4803.88,3511.31 4815.5,3510.5C 4819.41,3481.25 4806.75,3469.08 4777.5,3474C 4770.62,3475.72 4763.95,3478.05 4757.5,3481C 4755.56,3481.74 4753.73,3481.58 4752,3480.5C 4751.19,3477.55 4749.86,3474.89 4748,3472.5C 4747.2,3470.74 4747.37,3469.07 4748.5,3467.5C 4758.31,3462.12 4768.65,3458.78 4779.5,3457.5 Z"/></g>
<g><path style="opacity:1" fill="#040404" d="M 4928.5,3456.5 C 4943.28,3455.18 4956.95,3458.35 4969.5,3466C 4977.59,3473.35 4982.09,3482.52 4983,3493.5C 4983.5,3524.83 4983.67,3556.16 4983.5,3587.5C 4976.83,3587.5 4970.17,3587.5 4963.5,3587.5C 4963.97,3554.78 4963.47,3522.12 4962,3489.5C 4956.47,3477.73 4947.14,3472.4 4934,3473.5C 4911.31,3473.52 4898.64,3484.86 4896,3507.5C 4895.5,3534.16 4895.33,3560.83 4895.5,3587.5C 4888.83,3587.5 4882.17,3587.5 4875.5,3587.5C 4875.5,3544.83 4875.5,3502.17 4875.5,3459.5C 4880.84,3459.33 4886.18,3459.5 4891.5,3460C 4893.15,3463.94 4893.98,3468.11 4894,3472.5C 4894.37,3473.91 4895.2,3474.91 4896.5,3475.5C 4905.06,3465.55 4915.73,3459.22 4928.5,3456.5 Z"/></g>
<g><path style="opacity:1" fill="#020202" d="M 5058.5,3456.5 C 5072.93,3456.62 5086.93,3459.12 5100.5,3464C 5101.52,3464.52 5102.18,3465.35 5102.5,3466.5C 5100.84,3470.49 5099.17,3474.49 5097.5,3478.5C 5096.67,3479.41 5095.67,3480.08 5094.5,3480.5C 5079.79,3474.13 5064.46,3471.96 5048.5,3474C 5032.85,3478.6 5029.52,3487.6 5038.5,3501C 5042.84,3504.17 5047.51,3506.84 5052.5,3509C 5064.91,3513.02 5076.91,3518.02 5088.5,3524C 5105.11,3534.42 5109.94,3548.92 5103,3567.5C 5094.91,3580.64 5083.08,3587.8 5067.5,3589C 5050.3,3591.08 5033.63,3589.08 5017.5,3583C 5017,3582.5 5016.5,3582 5016,3581.5C 5015.5,3575.84 5015.33,3570.18 5015.5,3564.5C 5027.98,3570.23 5041.15,3573.23 5055,3573.5C 5063.6,3574.3 5071.77,3572.8 5079.5,3569C 5089.56,3559.9 5089.89,3550.57 5080.5,3541C 5076.47,3538.65 5072.47,3536.32 5068.5,3534C 5055.82,3529.49 5043.48,3524.16 5031.5,3518C 5014.56,3506.7 5010.73,3491.86 5020,3473.5C 5030.31,3461.93 5043.14,3456.26 5058.5,3456.5 Z"/></g>
<g><path style="opacity:1" fill="#030303" d="M 5271.5,3456.5 C 5278.21,3456.45 5284.87,3456.95 5291.5,3458C 5291.75,3463.72 5291.75,3469.55 5291.5,3475.5C 5262.41,3470.77 5244.91,3482.77 5239,3511.5C 5238.5,3536.83 5238.33,3562.16 5238.5,3587.5C 5232.17,3587.5 5225.83,3587.5 5219.5,3587.5C 5219.5,3544.83 5219.5,3502.17 5219.5,3459.5C 5224.83,3459.5 5230.17,3459.5 5235.5,3459.5C 5235.57,3467.02 5236.4,3474.35 5238,3481.5C 5243.74,3474.15 5250.24,3467.65 5257.5,3462C 5262.16,3459.84 5266.83,3458.01 5271.5,3456.5 Z"/></g>
<g><path style="opacity:1" fill="#030303" d="M 5352.5,3457.5 C 5360.84,3457.33 5369.17,3457.5 5377.5,3458C 5393.8,3459.97 5404.3,3468.8 5409,3484.5C 5410.6,3518.48 5410.94,3552.48 5410,3586.5C 5405.26,3587.47 5400.43,3587.8 5395.5,3587.5C 5394.66,3581.38 5393.49,3575.38 5392,3569.5C 5373.52,3589.99 5351.35,3595.16 5325.5,3585C 5313.26,3577.53 5307.26,3566.53 5307.5,3552C 5307.87,3535.25 5315.87,3523.92 5331.5,3518C 5351.03,3511.99 5371.03,3509.82 5391.5,3511.5C 5395.11,3482.27 5382.44,3469.77 5353.5,3474C 5345.03,3475.27 5337.19,3478.1 5330,3482.5C 5326.65,3478.99 5324.15,3474.82 5322.5,3470C 5322.76,3468.74 5323.43,3467.74 5324.5,3467C 5333.53,3462.59 5342.86,3459.42 5352.5,3457.5 Z"/></g>
<g><path style="opacity:1" fill="#010101" d="M 5500.5,3456.5 C 5514.35,3455.3 5527.02,3458.47 5538.5,3466C 5541.69,3469.85 5544.86,3473.69 5548,3477.5C 5566.2,3456.19 5588.37,3451.02 5614.5,3462C 5625.93,3469.68 5632.1,3480.51 5633,3494.5C 5633.67,3524.83 5633.67,3555.17 5633,3585.5C 5632.5,3586 5632,3586.5 5631.5,3587C 5628.67,3587.17 5625.83,3587.33 5623,3587.5C 5619.72,3587.44 5616.72,3586.78 5614,3585.5C 5613.67,3554.83 5613.33,3524.17 5613,3493.5C 5609.43,3479.54 5600.43,3472.88 5586,3473.5C 5566.43,3473.4 5555.1,3483.06 5552,3502.5C 5551.5,3530.83 5551.33,3559.16 5551.5,3587.5C 5544.83,3587.5 5538.17,3587.5 5531.5,3587.5C 5531.67,3555.83 5531.5,3524.16 5531,3492.5C 5526.9,3478.9 5517.73,3472.57 5503.5,3473.5C 5487.23,3473.27 5476.73,3480.93 5472,3496.5C 5471.79,3499.62 5471.13,3502.62 5470,3505.5C 5469.5,3532.83 5469.33,3560.16 5469.5,3587.5C 5463.24,3587.81 5457.08,3587.48 5451,3586.5C 5450.33,3544.5 5450.33,3502.5 5451,3460.5C 5455.75,3459.37 5460.58,3459.2 5465.5,3460C 5466.13,3460.75 5466.63,3461.58 5467,3462.5C 5467.5,3466.82 5467.67,3471.15 5467.5,3475.5C 5468.55,3475.65 5469.55,3475.48 5470.5,3475C 5478.24,3464.97 5488.24,3458.81 5500.5,3456.5 Z"/></g>
<g><path style="opacity:1" fill="#030303" d="M 5789.5,3456.5 C 5801.87,3455.78 5813.54,3458.28 5824.5,3464C 5834.23,3470.96 5839.73,3480.46 5841,3492.5C 5841.5,3524.16 5841.67,3555.83 5841.5,3587.5C 5835.49,3587.67 5829.49,3587.5 5823.5,3587C 5823,3586.5 5822.5,3586 5822,3585.5C 5821.67,3554.83 5821.33,3524.17 5821,3493.5C 5816.64,3478.64 5806.64,3471.97 5791,3473.5C 5767.44,3474.4 5755.1,3486.73 5754,3510.5C 5753.5,3536.16 5753.33,3561.83 5753.5,3587.5C 5747.24,3587.81 5741.08,3587.48 5735,3586.5C 5734.33,3544.5 5734.33,3502.5 5735,3460.5C 5739.75,3459.37 5744.58,3459.2 5749.5,3460C 5750.13,3460.75 5750.63,3461.58 5751,3462.5C 5751.5,3466.82 5751.67,3471.15 5751.5,3475.5C 5755.47,3474.05 5758.81,3471.55 5761.5,3468C 5769.83,3461.51 5779.17,3457.67 5789.5,3456.5 Z"/></g>
<g><path style="opacity:1" fill="#020202" d="M 5922.5,3456.5 C 5928.94,3456.49 5935.27,3457.32 5941.5,3459C 5956.83,3459.5 5972.16,3459.67 5987.5,3459.5C 5987.5,3463.5 5987.5,3467.5 5987.5,3471.5C 5980.17,3472.24 5972.84,3472.91 5965.5,3473.5C 5967.56,3479.33 5969.4,3485.33 5971,3491.5C 5974.27,3515.47 5964.43,3531.3 5941.5,3539C 5930.77,3539.86 5920.1,3540.86 5909.5,3542C 5903.98,3545.51 5900.98,3550.51 5900.5,3557C 5901.31,3561.15 5903.65,3564.15 5907.5,3566C 5923.12,3567.25 5938.79,3567.92 5954.5,3568C 5977.72,3572.27 5987.88,3586.11 5985,3609.5C 5981.46,3624.04 5972.62,3633.88 5958.5,3639C 5940.18,3644.12 5921.52,3645.79 5902.5,3644C 5880.75,3641.75 5868.42,3629.91 5865.5,3608.5C 5867.79,3592.22 5876.79,3581.89 5892.5,3577.5C 5881.48,3566.87 5880.65,3555.54 5890,3543.5C 5892.64,3542.02 5894.81,3540.02 5896.5,3537.5C 5875.87,3521.09 5871.03,3500.76 5882,3476.5C 5892.18,3462.99 5905.68,3456.33 5922.5,3456.5 Z"/></g>
<g><path style="opacity:1" fill="#000000" d="M 5675.5,3459.5 C 5681.5,3459.5 5687.5,3459.5 5693.5,3459.5C 5693.5,3502.17 5693.5,3544.83 5693.5,3587.5C 5687.24,3587.81 5681.08,3587.48 5675,3586.5C 5674.17,3544.1 5674.34,3501.76 5675.5,3459.5 Z"/></g>
<g><path style="opacity:1" fill="#fdfdfd" d="M 5913.5,3471.5 C 5920.51,3471.33 5927.51,3471.5 5934.5,3472C 5946.93,3476.29 5952.93,3485.12 5952.5,3498.5C 5953.28,3509.08 5949.62,3517.58 5941.5,3524C 5929.32,3528.99 5917.32,3528.65 5905.5,3523C 5896.11,3514.48 5892.94,3503.98 5896,3491.5C 5898.52,3481.82 5904.36,3475.15 5913.5,3471.5 Z"/></g>
<g><path style="opacity:1" fill="#fdfdfd" d="M 4810.5,3523.5 C 4812.14,3523.29 4813.64,3523.62 4815,3524.5C 4818.74,3561.43 4802.24,3577.26 4765.5,3572C 4753.93,3565.83 4750.1,3556.33 4754,3543.5C 4760.28,3533.27 4769.44,3527.44 4781.5,3526C 4791.36,3525.62 4801.02,3524.78 4810.5,3523.5 Z"/></g>
<g><path style="opacity:1" fill="#fcfcfc" d="M 5369.5,3524.5 C 5376.75,3524.19 5383.92,3524.52 5391,3525.5C 5392.75,3563.76 5374.91,3578.92 5337.5,3571C 5328.95,3564.12 5326.12,3555.28 5329,3544.5C 5330.6,3539.12 5333.77,3534.96 5338.5,3532C 5348.49,3527.75 5358.82,3525.25 5369.5,3524.5 Z"/></g>
<g><path style="opacity:1" fill="#fdfdfd" d="M 5905.5,3584.5 C 5918.84,3584.33 5932.17,3584.5 5945.5,3585C 5965.85,3586.67 5971.68,3596.84 5963,3615.5C 5958.73,3621.72 5952.89,3625.55 5945.5,3627C 5929.46,3631.57 5913.46,3631.57 5897.5,3627C 5885.82,3621.38 5881.99,3612.21 5886,3599.5C 5890.08,3591.25 5896.58,3586.25 5905.5,3584.5 Z"/></g>
</svg>
