<?xml version="1.0" encoding="utf-8" ?>
    <svg version="1.1"
        baseProfile="full"
        xmlns="http://www.w3.org/2000/svg"
        xmlns:xlink="http://www.w3.org/1999/xlink" 
         xmlns:rdf="http://www.w3.org/1999/02/22-rdf-syntax-ns#"
         xmlns:cc="http://creativecommons.org/ns#"
         xmlns:dc="http://purl.org/dc/elements/1.1/" 
        preserveAspectRatio="xMidYMid meet" height="1200" width="1000" viewBox="0,0,1030,1230 ">
<metadata>
<rdf:RDF>
      <cc:Work
         rdf:about="">
        <dc:format>image/svg+xml</dc:format>
        <dc:type
           rdf:resource="http://purl.org/dc/dcmitype/StillImage" />
        <dc:rights>
          <cc:Agent>
            <dc:title>This work is licensed under a &lt;a rel=&quot;license&quot; href=&quot;http://creativecommons.org/licenses/by-nc-sa/4.0/&quot;&gt;Creative Commons Attribution-NonCommercial-ShareAlike 4.0 International License&lt;/a&gt;.</dc:title>
          </cc:Agent>
        </dc:rights>
         <dc:creator>
           <cc:Agent>
              <dc:title>goutte/geometric - http://heraldicart.org/goutte/goutte-1.svg
cup/utensil - http://commons.wikimedia.org/wiki/User:Sodacan
closing-nail/tools - http://heraldicart.org Nail, Closing (1).svg
heater shape - https://commons.wikimedia.org/wiki/User:MG
</dc:title>
           </cc:Agent>
        </dc:creator>
      </cc:Work>
      </rdf:RDF>
</metadata>
<defs>
      <filter id="shiny" x="0" y="0" width="150%" height="150%">
      <feGaussianBlur in = "SourceAlpha" stdDeviation = "4" result = "blur1"/>
        <feSpecularLighting result = "specOut" in = "blur1" specularExponent = "20" lighting-color = "#696969">
            <fePointLight x = "300" y = "300" z = "500"/>
        </feSpecularLighting>
        <feComposite result="highlight" in = "SourceGraphic" in2 = "specOut" operator = "arithmetic" k1 = "0" k2 = "1" k3 = "1" k4 = "0"/>
      <feOffset result="offOut" in="SourceGraphic" dx="14" dy="14" />
      <feColorMatrix result = "matrixOut" in = "offOut" type = "matrix" values = "0.2 0 0 0 0 0 0.2 0 0 0 0 0 0.2 0 0 0 0 0 1 0"/>
      <feGaussianBlur result="blurOut" in="matrixOut" stdDeviation="10" />
      <feBlend in="highlight" in2="blurOut" mode="normal"/>
    </filter></defs><g  filter="url(#shiny)" ><g mask="url(#mask18-1)"><g><g clip-path='url(#clipPath10-1)' transform='translate(0, 0) scale(0.5)' ><g><g  fill="#ffffff"><rect x='0' y='0' width='1000' height='1000'><title>Field</title></rect></g><g transform='translate(0,0)'><g  fill="#da1219"><g class="PlaceCharge" transform=" translate(100.005,100) scale(1.5920149253731, 0.96096096096096) " >
<title>five gouttes</title><g transform="translate(-58.5,-61.5)"><g fill-opacity="1" stroke-dasharray="none" stroke-opacity="1"  ><g  ><g  ><path d="m 64.86902,300.75327 c -10.36062,24.02737 -5.72664,52.97223 13.90195,72.60073 25.69453,25.69467 67.35358,25.69467 93.04812,0 20.64556,-20.64546 24.70913,-51.37776 12.17081,-76.2938 -14.5066,-30.43677 -37.20995,-36.8132 -29.08711,-62.99313 8.12284,-26.17992 -20.89281,-39.47701 -20.89281,-65.79503 0,-26.31801 14.02473,-26.31801 14.02473,-52.63602 C 148.03471,89.31801 119.98525,63 119.98525,63 c 0,0 14.02473,26.31801 0,52.63602 -14.02473,26.31801 -35.26382,25.22143 -35.26382,51.53944 0,26.31801 23.02826,36.81273 15.35217,65.79504 -7.67609,28.9823 -24.81529,38.85155 -35.212525,67.54143 -0.04795,0.13231 0.0079,0.24134 0.0079,0.24134 z"  stroke="#696969" stroke-width="3" />
</g>
</g>
</g>
</g>
</g>
</g><g  fill="#da1219"><g class="PlaceCharge" transform=" translate(393.335,100) scale(1.5920149253731, 0.96096096096096) " >
<title>five gouttes</title><g transform="translate(-58.5,-61.5)"><g fill-opacity="1" stroke-dasharray="none" stroke-opacity="1"  ><g  ><g  ><path d="m 64.86902,300.75327 c -10.36062,24.02737 -5.72664,52.97223 13.90195,72.60073 25.69453,25.69467 67.35358,25.69467 93.04812,0 20.64556,-20.64546 24.70913,-51.37776 12.17081,-76.2938 -14.5066,-30.43677 -37.20995,-36.8132 -29.08711,-62.99313 8.12284,-26.17992 -20.89281,-39.47701 -20.89281,-65.79503 0,-26.31801 14.02473,-26.31801 14.02473,-52.63602 C 148.03471,89.31801 119.98525,63 119.98525,63 c 0,0 14.02473,26.31801 0,52.63602 -14.02473,26.31801 -35.26382,25.22143 -35.26382,51.53944 0,26.31801 23.02826,36.81273 15.35217,65.79504 -7.67609,28.9823 -24.81529,38.85155 -35.212525,67.54143 -0.04795,0.13231 0.0079,0.24134 0.0079,0.24134 z"  stroke="#696969" stroke-width="3" />
</g>
</g>
</g>
</g>
</g>
</g><g  fill="#da1219"><g class="PlaceCharge" transform=" translate(686.665,100) scale(1.5920149253731, 0.96096096096096) " >
<title>five gouttes</title><g transform="translate(-58.5,-61.5)"><g fill-opacity="1" stroke-dasharray="none" stroke-opacity="1"  ><g  ><g  ><path d="m 64.86902,300.75327 c -10.36062,24.02737 -5.72664,52.97223 13.90195,72.60073 25.69453,25.69467 67.35358,25.69467 93.04812,0 20.64556,-20.64546 24.70913,-51.37776 12.17081,-76.2938 -14.5066,-30.43677 -37.20995,-36.8132 -29.08711,-62.99313 8.12284,-26.17992 -20.89281,-39.47701 -20.89281,-65.79503 0,-26.31801 14.02473,-26.31801 14.02473,-52.63602 C 148.03471,89.31801 119.98525,63 119.98525,63 c 0,0 14.02473,26.31801 0,52.63602 -14.02473,26.31801 -35.26382,25.22143 -35.26382,51.53944 0,26.31801 23.02826,36.81273 15.35217,65.79504 -7.67609,28.9823 -24.81529,38.85155 -35.212525,67.54143 -0.04795,0.13231 0.0079,0.24134 0.0079,0.24134 z"  stroke="#696969" stroke-width="3" />
</g>
</g>
</g>
</g>
</g>
</g><g  fill="#da1219"><g class="PlaceCharge" transform=" translate(246.665,580) scale(1.5920149253731, 0.96096096096096) " >
<title>five gouttes</title><g transform="translate(-58.5,-61.5)"><g fill-opacity="1" stroke-dasharray="none" stroke-opacity="1"  ><g  ><g  ><path d="m 64.86902,300.75327 c -10.36062,24.02737 -5.72664,52.97223 13.90195,72.60073 25.69453,25.69467 67.35358,25.69467 93.04812,0 20.64556,-20.64546 24.70913,-51.37776 12.17081,-76.2938 -14.5066,-30.43677 -37.20995,-36.8132 -29.08711,-62.99313 8.12284,-26.17992 -20.89281,-39.47701 -20.89281,-65.79503 0,-26.31801 14.02473,-26.31801 14.02473,-52.63602 C 148.03471,89.31801 119.98525,63 119.98525,63 c 0,0 14.02473,26.31801 0,52.63602 -14.02473,26.31801 -35.26382,25.22143 -35.26382,51.53944 0,26.31801 23.02826,36.81273 15.35217,65.79504 -7.67609,28.9823 -24.81529,38.85155 -35.212525,67.54143 -0.04795,0.13231 0.0079,0.24134 0.0079,0.24134 z"  stroke="#696969" stroke-width="3" />
</g>
</g>
</g>
</g>
</g>
</g><g  fill="#da1219"><g class="PlaceCharge" transform=" translate(540.005,580) scale(1.5920149253731, 0.96096096096096) " >
<title>five gouttes</title><g transform="translate(-58.5,-61.5)"><g fill-opacity="1" stroke-dasharray="none" stroke-opacity="1"  ><g  ><g  ><path d="m 64.86902,300.75327 c -10.36062,24.02737 -5.72664,52.97223 13.90195,72.60073 25.69453,25.69467 67.35358,25.69467 93.04812,0 20.64556,-20.64546 24.70913,-51.37776 12.17081,-76.2938 -14.5066,-30.43677 -37.20995,-36.8132 -29.08711,-62.99313 8.12284,-26.17992 -20.89281,-39.47701 -20.89281,-65.79503 0,-26.31801 14.02473,-26.31801 14.02473,-52.63602 C 148.03471,89.31801 119.98525,63 119.98525,63 c 0,0 14.02473,26.31801 0,52.63602 -14.02473,26.31801 -35.26382,25.22143 -35.26382,51.53944 0,26.31801 23.02826,36.81273 15.35217,65.79504 -7.67609,28.9823 -24.81529,38.85155 -35.212525,67.54143 -0.04795,0.13231 0.0079,0.24134 0.0079,0.24134 z"  stroke="#696969" stroke-width="3" />
</g>
</g>
</g>
</g>
</g>
</g></g></g></g>
<g clip-path='url(#clipPath12-1)' transform='translate(500, 0) scale(0.5)' ><g><g  fill="#0f47af"><rect x='0' y='0' width='1000' height='1000'><title>Field</title></rect></g><g transform='translate(0,0)'><g  fill="#fcdd07"><g class="PlaceCharge" transform=" translate(175.58244244412,100) scale(0.48785217591218, 0.48785217591218) " >
<title>three cups</title><g  ><g  ><g  ><g  ><g  ><g  ><g  ><g  ><g  ><path d="m179.5,240.5   c-0.2533,5.415 -2.977,8.663 -5.266,7.802   l0.7832,15.87 5.76,67.55 12.78,-67.65 2.568,-15.89   c-2.388,0.8842 -4.747,-2.334 -4.391,-7.752   l-0.02176,0.000115 1.706,-30.3 19.73,-0.09895 0,0   c4.84,-0.1593 5.74,11.12 -1.051,13.03 4.048,8.098 14.79,1.75 13.11,-12.78 4.68,0.4441 9.634,-3.177 12.21,-9.756 -1.833,-6.55 -6.388,-10.13 -11.12,-9.632 3.32,-14.55 -6.714,-20.79 -11.67,-12.65 6.568,1.826 4.41,13.17 -0.4202,13.05   l0,0 -19.73,0.09895 1.706,-30.3   c0.3309,-7.425 7.812,-9.809 8.448,0.4388 5.671,-6.947 2.475,-22.89 -7.211,-19.01 0.7123,-7.232 -1.22,-14.53 -5.302,-17.9 -4.462,3.407 -7.209,10.73 -7.318,17.96 -9.252,-3.799 -14.24,12.19 -9.35,19.09 1.789,-10.27 9.03,-7.957 8.518,-0.5258   l0,0 -1.706,30.3 -19.73,0.09895   c-4.84,0.1593 -5.74,-11.12 1.044,-13.02 -4.045,-8.098 -14.79,-1.75 -13.11,12.78 -4.68,-0.4441 -9.64,3.178 -12.21,9.756 1.833,6.55 6.388,10.13 11.12,9.632 -3.32,14.55 6.714,20.79 11.67,12.65 -6.568,-1.826 -4.41,-13.17 0.4202,-13.05   l0,0 19.73,-0.09895 -1.706,30.3 0,0 0,0   z "  fill="#e7c900" fill-rule="evenodd" stroke="#000000" stroke-width="3.68882799" />
<path d="m33.52,196 134.8,-35.63 169.9,36.65   "  fill="none" stroke="#000000" stroke-width="3.68882799" />
<path d="m188.5,219.2   c53.56,-0.2739 104.3,-8.099 148.6,-21.61 0.2527,-0.9575 0.496,-1.919 0.7305,-2.882 0.1168,-0.4805 0.2317,-0.9615 0.3447,-1.442 -3.623,0.216 -6.909,-4.972 -6.844,-8.419 -0.8172,5.01 -4.476,9.622 -9.806,10.19 -5.328,0.5662 -10.24,-2.259 -10.15,-7.323 -0.2838,6.832 -6.034,12.98 -13.22,13.74 -7.024,0.7472 -13.73,-3.365 -13.91,-9.922 -0.09161,8.328 -7.719,15.83 -16.56,16.76 -9.002,0.9562 -17.54,-4.337 -17.4,-12.89 -0.6991,8.556 -8.039,16.25 -17.67,17.22 -9.642,0.9602 -19.75,-5.383 -19.63,-13.93 -1.275,10.16 -13.28,16.81 -28.64,16.88 -15.36,0.08164 -26.61,-6.438 -26.75,-16.59 -0.8395,8.549 -11.66,15.01 -21.21,14.14 -9.54,-0.8617 -16.01,-8.486 -15.75,-17.05 -0.8162,8.549 -9.957,13.93 -18.87,13.08 -8.742,-0.85 -15.52,-8.278 -14.68,-16.6 -0.9202,6.568 -8.092,10.75 -15.04,10.07 -7.101,-0.6904 -12.17,-6.776 -11.68,-13.61 -0.4838,5.064 -5.716,7.941 -10.98,7.429 -5.267,-0.5118 -8.413,-5.096 -8.662,-10.09 -0.3259,3.414 -4.113,8.557 -7.683,8.504 0.06891,0.4754 0.1407,0.9548 0.2151,1.439 44.79,14.82 97.85,23.21 155.2,22.96   l0,0   z "  fill="#e7c900" fill-rule="evenodd" stroke="#000000" stroke-width="3.68882799" />
<path d="m59.52,193.3   c1.744,-21 13.23,-89.12 117,-103.6 -2.049,-0.1151 -4.104,-0.2524 -6.166,-0.4121 -94.93,9.592 -135.3,69.16 -130.7,102.6 0.3832,2.778 3.667,5.316 8.988,5.59 5.323,0.2726 10.52,-1.338 10.88,-4.156   l0,0 0,0   z "  fill="#e7c900" fill-rule="evenodd" stroke="#000000" stroke-width="2.75960636" />
<path d="m175.5,105.4   c-104,12.8 -115.1,72.69 -116.6,91.15 -0.2897,3.338 5.005,6.296 12.19,6.611 7.033,0.3115 14.16,-1.748 14.89,-4.958 0.01042,-0.07238 0.02413,-0.1449 0.03985,-0.2173 4.016,-18.51 9.857,-77.01 94.01,-92.43 -1.501,-0.05148 -3.003,-0.1143 -4.509,-0.1878   l0,0   z "  fill="#e7c900" fill-rule="evenodd" stroke="#000000" stroke-width="2.59048891" />
<path d="m209.5,258.4   c-0.6477,-15.83 -52.94,-15.56 -55.41,0.2886 -0.1582,1.03 -0.3138,2.191 -0.4643,3.475 -2.684,23.06 -3.333,85.94 19.78,145.9 29.84,-60.14 36.23,-123 36.18,-146.1 -0.004793,-1.284 -0.03109,-2.443 -0.07286,-3.473   l0,0   z "  fill="#e7c900" fill-rule="evenodd" stroke="#000000" stroke-width="3.68882799" />
<path d="m173.5,407.7   c-38.04,-18.09 -58.4,-79.85 -56.42,-144.9 0.7956,-26.68 38.37,-21.7 36.7,-0.8663   "  fill="none" stroke="#000000" stroke-width="3.68882799" />
<path d="m281.5,248.8   c-2.246,32.56 -14.63,133.2 -107.5,158.9 116.4,-20.22 132.5,-136.3 134.7,-164.9 1.559,-13.69 -23.34,-13.73 -27.25,6.051   z "  fill="#e7c900" fill-rule="evenodd" stroke="#000000" stroke-width="3.68882799" />
<path d="m246.5,262.1   c-5.379,65.08 -32.74,127 -72.78,145.6 92.88,-25.79 105.2,-126.4 107.5,-158.9 0.003409,-0.06045 0.00675,-0.12 0.01013,-0.1798 1.159,-17.01 -32.25,-13.76 -34.67,13.57   l0,0   z "  fill="#e7c900" fill-rule="evenodd" stroke="#000000" stroke-width="3.68882799" />
<path d="m209.5,262.3   c0.09382,23.04 -6.338,85.96 -36.18,146.1 40.1,-18.49 67.41,-80.48 72.78,-145.6 2.206,-26.68 -35.94,-21.32 -36.63,-0.4954   l0,0   z "  fill="#e7c900" fill-rule="evenodd" stroke="#000000" stroke-width="3.68882799" />
<path d="m173.5,407.7   c-23.09,-59.87 -22.42,-122.7 -19.78,-145.9 1.662,-20.83 -35.9,-25.8 -36.7,0.8663 -1.941,65.05 18.44,126.7 56.42,144.9   l0,0   z "  fill="#e7c900" fill-rule="evenodd" stroke="#000000" stroke-width="3.68882799" />
<path d="m173.5,407.7   c-38.04,-18.09 -58.4,-79.85 -56.42,-144.9 0.6775,-27.31 -32.39,-30.23 -33.16,-13.22 -0.003376,0.0599 -0.004904,0.1194 -0.008292,0.1798 -1.424,32.56 -0.3826,133.1 89.65,157.9   l0,0   z "  fill="#e7c900" fill-rule="evenodd" stroke="#000000" stroke-width="3.68882799" />
<path d="M173.5,407.7   C84.52,383.2 82.52,283.1 84.52,249.7   c-1.685,-19.76 -26.59,-19.44 -26.58,-5.774 -1.027,28.73 1.973,144.7 116.2,163.6   z "  fill="#e7c900" fill-rule="evenodd" stroke="#000000" stroke-width="3.68882799" />
<path d="m313.5,220.2   c1.588,10.78 1.846,20.04 1.194,31.55 -4.847,86.12 -73.66,156.1 -153.7,156.6 -80.05,0.4102 -141,-69.05 -136.2,-155.1 0.6804,-12.09 2.348,-22.87 5.413,-34.17 41.46,15.06 93.96,0.06451 147.3,-0.1987 50.2,-0.2581 94.54,15.24 135.9,1.369   z "  fill-rule="evenodd" stroke="#000000" stroke-width="6.29348946" />
<path d="m158.5,397   c0.1065,12.02 -29.59,2.256 -31.45,13.2 -14.83,87.6 -85.05,139.3 -91.36,138 -14.29,4.045 -19.78,26.99 0.9518,28.03 48.08,2.443 186.9,-1.841 244.7,3.031 27.34,2.304 20.18,-29.91 6.259,-30.2 -49.88,-26.86 -68.74,-83.34 -76.64,-125.6 -5.096,-27.16 -15.81,-1.358 -3.166,-22.42   "  fill-rule="evenodd" stroke="#000000" stroke-width="6.29348946" />
<path d="m32.52,202.3   c-1.741,-8.727 -2.471,-11.31 0.2263,-20.3 20.71,-69.15 82.54,-119.1 144.3,-134.3 69.22,18.9 112.7,29.74 142.6,128.5 2.578,8.508 -2.017,18.15 -4.684,26.81 -41.1,10.37 -88.19,16.41 -138,16.67 -53.29,0.2718 -102.7,-6.11 -144.4,-17.42   z "  fill-rule="evenodd" stroke="#000000" stroke-width="6.29348946" />
<path d="m64.52,153.5   c13.19,-37.37 61.25,-50.58 86.8,-57.49 -1.293,19.36 27.52,47.86 45.92,4.021 44.2,-1.233 85.95,12.92 92.32,54.92 -218.8,-2.53 -3.081,-1.116 -225,-1.472   z "  opacity="0.5" fill="#000000" fill-rule="evenodd" stroke="none" />
<path d="m87.52,191.6   c-0.6518,6.825 -7.991,11.21 -15.1,10.52 -7.101,-0.6904 -12.17,-6.776 -11.68,-13.61 2.81,-39.59 18.57,-172.1 136.1,-189.1   "  fill="none" stroke="none" />
<path d="m196.5,-0.02562   c-39.45,21.67 -73.21,111.5 -75.84,196.1 -0.2646,8.554 6.211,16.18 15.75,17.05 9.54,0.8617 20.37,-5.592 21.21,-14.14   "  fill="none" stroke="none" />
<path d="M196.5,-0.02562   C86.52,2.784 37.52,121.8 40.52,186   c0.2543,5.004 3.398,9.586 8.662,10.09 5.267,0.5118 10.5,-2.366 10.98,-7.429   "  fill="none" stroke="none" />
<path d="m117.5,262.7   c0.6775,-27.31 -32.39,-30.23 -33.15,-13.23 -1.441,32.38 -0.5513,133.2 89.65,158.1   "  fill="none" stroke="none" />
<path d="m84.52,251.8   c-0.6185,-21.14 -26.67,-21.13 -26.65,-7.146 -1.027,28.73 1.973,144.7 116.2,163.6   "  fill="none" stroke="none" />
<path d="m30.52,223.7   c3.642,0.461 6.606,7.515 6.598,10.07   "  fill="none" stroke="#000000" />
<path d="m173.5,407.7   c-38.04,-18.09 -58.4,-79.85 -56.42,-144.9 0.7956,-26.68 38.37,-21.7 36.7,-0.8663   "  fill="none" stroke="none" />
<path d="M173.5,407.7   C61.52,398.6 31.52,302.2 36.52,233.9   c0.8902,-10.79 20.93,-7.708 21.09,8.019   "  fill="none" stroke="none" />
<path d="m121.5,195   c-0.8162,8.549 -9.957,13.93 -18.87,13.08 -8.9,-0.8651 -15.77,-8.542 -14.63,-17.05 5.279,-39.46 15.11,-167.7 109.3,-192.1   "  fill="none" stroke="none" />
<path d="m196.5,-0.02562   c-39.45,21.67 -73.21,111.5 -75.84,196.1 -0.2646,8.554 6.211,16.18 15.75,17.05 9.54,0.8617 20.89,-7.524 21.74,-16.07   "  fill="none" stroke="none" />
<path d="m117.5,262.7   c0.6775,-27.31 -32.39,-30.23 -33.15,-13.23 -1.441,32.38 -0.5513,133.2 89.65,158.1   "  fill="none" stroke="none" />
<path d="m173.5,407.7   c-24.36,-63.19 -22.25,-129.8 -19.29,-149.2 2.438,-15.84 54.72,-16.1 55.41,-0.2886 0.8078,19.49 -4.6,86.03 -36.13,149.5   "  fill="none" stroke="none" />
<path d="m250.5,194.4   c-0.1457,8.545 8.398,13.84 17.4,12.89 9.002,-0.9562 16.74,-8.708 16.56,-17.21 -0.8369,-39.42 3.769,-167.6 -87.78,-191.1   "  fill="none" stroke="none" />
<path d="m196.5,-0.02562   c23.43,79.6 19.9,171.2 16.51,198.6 -1.275,10.16 -13.28,16.81 -28.64,16.88   "  fill="none" stroke="none" />
<path d="m196.5,-0.02562   c37.04,21.28 60.66,110.8 53.73,195.4 -0.6991,8.556 -8.039,16.25 -17.67,17.22 -9.642,0.9602 -19.75,-5.383 -19.63,-13.93   "  fill="none" stroke="none" />
<path d="m246.5,262.1   c2.4,-27.33 35.81,-30.58 34.66,-13.57 -2.207,32.38 -14.44,133.3 -107.5,159.1   "  fill="none" stroke="none" />
<path d="m280.5,250.9   c2.996,-21.16 29.07,-21.42 27.47,-7.424 -2.203,28.73 -18.23,144.8 -134.7,164.9   "  fill="none" stroke="none" />
<path d="m338.5,222.3   c-3.696,0.4984 -7.459,7.589 -7.738,10.15   "  fill="none" stroke="#000000" />
<path d="m173.5,407.7   c40.1,-18.49 67.41,-80.48 72.78,-145.6 2.206,-26.68 -35.94,-21.32 -36.63,-0.4954   "  fill="none" stroke="none" />
<path d="m173.5,407.7   c112.6,-10.9 154.8,-106.8 156.9,-175 0.324,-10.78 -20.07,-7.495 -22.01,8.241   "  fill="none" stroke="none" />
<path d="m246.5,262.1   c2.4,-27.33 35.81,-30.58 34.66,-13.57 -2.207,32.38 -14.44,133.3 -107.5,159.1   "  fill="none" stroke="none" />
<path d="m173.5,407.7   c40.1,-18.49 67.41,-80.48 72.78,-145.6 2.206,-26.68 -35.94,-21.32 -36.63,-0.4954   "  fill="none" stroke="none" />
<path d="m196.5,-0.02562   c109.3,2.228 145.4,120.3 134.9,184.8 -0.8172,5.01 -4.476,9.622 -9.806,10.19 -5.328,0.5662 -10.24,-2.259 -10.15,-7.323   "  fill="none" stroke="none" />
<path d="m284.5,190.7   c-0.1174,6.822 6.732,11.14 13.92,10.38 7.184,-0.7638 12.94,-6.908 13.22,-13.74 1.641,-39.57 0.8514,-172.1 -114.9,-187.8   "  fill="none" stroke="none" />
<path d="m250.5,194.4   c-0.1457,8.545 8.398,13.84 17.4,12.89 9.002,-0.9562 16.74,-8.708 16.56,-17.21 -0.8369,-39.42 3.769,-167.6 -87.78,-191.1   "  fill="none" stroke="none" />
<path d="m196.5,-0.02562   c37.04,21.28 60.66,110.8 53.73,195.4 -0.6991,8.556 -8.039,16.25 -17.67,17.22 -9.642,0.9602 -19.75,-5.383 -19.63,-13.93   "  fill="none" stroke="none" />
<path d="m202.5,655.2   c-20.65,-38.8 -28.02,-61.94 -27.25,-120.3   "  fill="none" stroke="none" />
<path d="m117.5,655.8   c25.03,-39.03 35.01,-62.26 40.76,-120.6   "  fill="none" stroke="none" />
<path d="m196.5,5.014   c-30.73,79.88 -37.17,166.3 -36.95,193.9 0.08901,10.16 10.64,16.68 25.08,16.61   "  fill="none" stroke="none" />
<path d="m199.5,2.234   c23.43,79.6 18,167.9 14.61,195.5 -1.275,10.16 -13.28,16.81 -28.64,16.88   "  fill="none" stroke="none" />
<path d="m163.5,365.2   c-51.18,-2.148 -59.54,-0.4385 -70.27,-4.028 -52.25,-25.74 -53.45,-84.28 -52.81,-105.5 31.2,-1.511 127.9,-0.334 143.3,-0.4334   "  opacity="0.5" fill="#000000" stroke="none" />
<path d="m127.5,172.7   c-1.724,-21.5 4.002,-38.76 23.48,-65.15   "  fill="none" stroke="#000000" stroke-width="6.08666611" />
<path d="m278.5,179.8   c4.137,-21.53 0.3594,-38.74 -16.16,-64.94   "  fill="none" stroke="#000000" stroke-width="6.08666611" />
<path d="m213.5,170.7   c4.137,-21.53 0.3594,-38.74 -16.16,-64.94   "  fill="none" stroke="#000000" stroke-width="6.08666611" />
<path d="m171.5,213.3   c3.008,-82.48 1.203,-0.9242 3.555,-81.62   "  fill="none" stroke="#000000" stroke-width="6.29348946" />
<path d="m24.52,203.1   c-20.92,-2.47 -35.29,32.37 -1.214,37.02 127.1,1.679 192.6,0.166 301,1.466 31.24,-11.41 16.69,-39.7 1.086,-37.01   l-145.9,-0.5882   c-51.75,0.4474 -103.4,-0.4123 -155.1,-0.9082   z "  fill-rule="evenodd" stroke="#000000" stroke-width="6.29348946" />
<path d="m17.52,575.3   c-7.639,-0.344 -14.72,23.36 -1.935,25.63 290.8,-1.557 0.3982,0.4795 290.5,-1.577 9.771,-2.396 8.016,-23.36 0.3333,-22.94   l-140.1,-0.4489   c-49.66,0.4145 -99.18,-0.3162 -148.8,-0.7096   z "  fill-rule="evenodd" stroke="#000000" stroke-width="6.29348946" />
<path d="m245.5,174.8   c4.137,-21.53 0.3594,-38.74 -16.16,-64.94   "  fill="none" stroke="#000000" stroke-width="6.08666611" />
<path d="m96.52,177.7   c-1.724,-21.5 4.002,-38.76 23.48,-65.15   "  fill="none" stroke="#000000" stroke-width="6.08666611" />
<path d="m68.52,177.7   c-1.724,-21.5 4.002,-38.76 23.48,-65.15   "  fill="none" stroke="#000000" stroke-width="6.08666611" />
<path d="m26.52,165.5   c-27.83,-0.3014 -21.7,42.41 -7.44,39.14 130.8,1.661 201.7,4.457 311.9,1.369 10.49,-2.74 20.39,-35.36 -2.567,-39.09   l-146.6,1.598   c-53.25,0.4505 -102.1,-2.561 -155.4,-2.969   z "  fill-rule="evenodd" stroke="#000000" stroke-width="6.29348946" />
<path d="m32.52,211.9   c-19.67,-1.44 -32.39,13.69 -0.3566,16.33 119.1,2.867 180.3,3.27 282.2,5.675 29.05,-4.519 14.81,-17.23 0.2361,-16.33   l-136.8,-2.682   c-48.47,-0.6663 -96.88,-1.913 -145.4,-2.963   z "  opacity="0.5" fill="#000000" fill-rule="evenodd" stroke="none" />
<path d="m38.52,175.4   c-19.67,-1.44 -32.39,13.69 -0.3566,16.33 119.1,2.867 180.3,3.27 282.2,5.675 29.05,-4.519 14.81,-17.23 0.2361,-16.33   l-136.8,-2.682   c-48.47,-0.6663 -96.88,-1.913 -145.4,-2.963   z "  opacity="0.5" fill="#000000" fill-rule="evenodd" stroke="none" />
<path d="m30.52,579.2   c-18.2,-0.4656 -29.49,5.08 0.1852,5.939 110.2,0.7024 166.8,0.6527 261,1.262 26.68,-1.729 13.14,-6.312 -0.2936,-5.939   l-126.4,-0.5928   c-44.82,-0.1059 -89.62,-0.4148 -134.5,-0.6844   z "  opacity="0.5" fill="#000000" fill-rule="evenodd" stroke="none" />
<path d="m104.5,377.3   c-19.82,-6.319 -56.3,-45.97 -57.22,-95.63   "  fill="none" stroke="#000000" stroke-width="6.29348946" />
</g>
</g>
</g>
</g>
</g>
<path d="m274.5,616.1   c1.799,3.585 -5.954,22.57 -24.32,25.12   "  fill="none" stroke="none" />
</g>
<path d="m171.5,127.3   c17.71,-15 24.48,-34.27 12.49,-53.6 20.58,41.64 32,17.89 50.35,30.95 -14.61,-13.18 -5.143,-29.29 -30.9,-40.38 20.59,6.28 33.04,42.32 67.6,18.29 -27.87,-3.453 -33.06,-32.9 -59.17,-29.3   l-48.21,7.383 12.47,-11.73   "  fill-rule="evenodd" stroke="#000000" stroke-width="3.60623264" />
<path d="m175.5,128.1   c-14.6,-14.88 -25.39,-35.51 -12.32,-55.04 -23.36,42.02 -31.27,18.28 -49.5,31.58 14.82,-13.38 7.881,-29.47 32.7,-40.86 -19.56,6.507 -44.09,40.7 -64.17,23.27 25.91,-3.747 34.1,-37.6 57.64,-34.25   l43.39,6.934 -10.17,-11.66   "  fill-rule="evenodd" stroke="#000000" stroke-width="3.45817041" />
<path d="m200.5,41.15   c-0.3806,6.773 -3.303,13.52 -7.945,18.33 -4.64,4.811 -10.94,7.628 -17.12,7.662 -6.181,0.03144 -12.17,-2.726 -16.27,-7.495 -4.101,-4.767 -6.267,-11.49 -5.88,-18.26 0.3799,-6.772 3.303,-13.52 7.945,-18.33 4.64,-4.811 10.94,-7.628 17.12,-7.662 6.181,-0.03144 12.17,2.726 16.27,7.495 4.101,4.767 6.259,11.48 5.88,18.26   z "  stroke="#000000" stroke-width="8.44995975" />
<path d="m189.5,41.65   c-0.2336,4.149 -1.882,8.282 -4.484,11.23 -2.601,2.948 -6.118,4.673 -9.56,4.691 -3.443,0.01765 -6.769,-1.674 -9.037,-4.596 -2.27,-2.923 -3.454,-7.039 -3.219,-11.19 0.2328,-4.15 1.882,-8.282 4.484,-11.23 2.601,-2.948 6.118,-4.673 9.56,-4.691 3.443,-0.01765 6.769,1.674 9.037,4.596 2.27,2.923 3.453,7.039 3.219,11.19   z "  opacity="0.5" fill="#000000" stroke="none" />
<path d="m157.5,367.5   c51.45,-2.673 59.62,-1.049 70.76,-4.746 55.17,-26.27 62.95,-84.86 64.71,-106.1 -31.04,-1.197 -94.82,0.9691 -110.2,1.051   "  opacity="0.5" fill="#000000" stroke="none" />
<path d="m133.5,446.3   c1.581,21.08 4.71,13.65 1.83,22.62 -14.54,45.2 -62.2,71.6 -66.82,70.85 -11.03,2.36 -15,15.64 1.038,16.23 37.24,1.362 144.7,-1.273 189.5,1.504 21.17,1.31 15.28,-17.34 4.515,-17.51 -39.42,-15.71 -54.52,-49.04 -60.97,-73.61 -4.006,-15.24 -5.836,-39.95 -6.282,-20.75   "  opacity="0.5" fill="#000000" fill-rule="evenodd" stroke="none" />
</g>
<path d="m215.5,380.6   c20.55,-6.523 61.51,-46.57 68.05,-96.3   "  fill="none" stroke="#000000" stroke-width="7" />
<path d="m189.5,379.4   c20.55,-6.523 53.67,-40.12 60.21,-89.84   "  fill="none" stroke="#000000" stroke-width="7" />
<path d="m131.5,378.7   c-19.83,-6.317 -49.18,-39.59 -50.12,-89.28   "  fill="none" stroke="#000000" stroke-width="7" />
<path d="m165.5,381.2   c-19.83,-6.317 -49.18,-39.59 -50.12,-89.28   "  fill="none" stroke="#000000" stroke-width="7" />
<path d="m160.5,379.5   c3.014,-82.51 1.203,-0.9237 3.552,-81.59   "  fill="none" stroke="#000000" stroke-width="7" />
<path d="m154.5,382.8   c20.55,-6.523 53.67,-40.12 60.21,-89.84   "  fill="none" stroke="#000000" stroke-width="7" />
<path d="m84.52,376.6   c-15.76,-0.6398 -7.029,53.8 33.06,49.99 72.28,1.553 23.53,0.1712 97.8,0.6727 39.3,-2.034 46.82,-46.97 27.43,-49.23 -57.47,1.862 -106.4,0.4418 -158.3,-1.434   z "  fill-rule="evenodd" stroke="#000000" stroke-width="7" />
<path d="m95.52,385.3   c-13.93,-0.379 -5.427,33.63 29.94,31.2 63.88,0.8752 20.79,0.07611 86.41,0.2914 34.69,-1.323 40.68,-29.42 23.52,-30.8 -50.74,1.239 -94,0.4167 -139.9,-0.6869   z "  opacity="0.5" fill="#000000" fill-rule="evenodd" stroke="none" />
</g>
</g>
</g>
</g><g  fill="#fcdd07"><g class="PlaceCharge" transform=" translate(655.58244244412,100) scale(0.48785217591218, 0.48785217591218) " >
<title>three cups</title><g  ><g  ><g  ><g  ><g  ><g  ><g  ><g  ><g  ><path d="m179.5,240.5   c-0.2533,5.415 -2.977,8.663 -5.266,7.802   l0.7832,15.87 5.76,67.55 12.78,-67.65 2.568,-15.89   c-2.388,0.8842 -4.747,-2.334 -4.391,-7.752   l-0.02176,0.000115 1.706,-30.3 19.73,-0.09895 0,0   c4.84,-0.1593 5.74,11.12 -1.051,13.03 4.048,8.098 14.79,1.75 13.11,-12.78 4.68,0.4441 9.634,-3.177 12.21,-9.756 -1.833,-6.55 -6.388,-10.13 -11.12,-9.632 3.32,-14.55 -6.714,-20.79 -11.67,-12.65 6.568,1.826 4.41,13.17 -0.4202,13.05   l0,0 -19.73,0.09895 1.706,-30.3   c0.3309,-7.425 7.812,-9.809 8.448,0.4388 5.671,-6.947 2.475,-22.89 -7.211,-19.01 0.7123,-7.232 -1.22,-14.53 -5.302,-17.9 -4.462,3.407 -7.209,10.73 -7.318,17.96 -9.252,-3.799 -14.24,12.19 -9.35,19.09 1.789,-10.27 9.03,-7.957 8.518,-0.5258   l0,0 -1.706,30.3 -19.73,0.09895   c-4.84,0.1593 -5.74,-11.12 1.044,-13.02 -4.045,-8.098 -14.79,-1.75 -13.11,12.78 -4.68,-0.4441 -9.64,3.178 -12.21,9.756 1.833,6.55 6.388,10.13 11.12,9.632 -3.32,14.55 6.714,20.79 11.67,12.65 -6.568,-1.826 -4.41,-13.17 0.4202,-13.05   l0,0 19.73,-0.09895 -1.706,30.3 0,0 0,0   z "  fill="#e7c900" fill-rule="evenodd" stroke="#000000" stroke-width="3.68882799" />
<path d="m33.52,196 134.8,-35.63 169.9,36.65   "  fill="none" stroke="#000000" stroke-width="3.68882799" />
<path d="m188.5,219.2   c53.56,-0.2739 104.3,-8.099 148.6,-21.61 0.2527,-0.9575 0.496,-1.919 0.7305,-2.882 0.1168,-0.4805 0.2317,-0.9615 0.3447,-1.442 -3.623,0.216 -6.909,-4.972 -6.844,-8.419 -0.8172,5.01 -4.476,9.622 -9.806,10.19 -5.328,0.5662 -10.24,-2.259 -10.15,-7.323 -0.2838,6.832 -6.034,12.98 -13.22,13.74 -7.024,0.7472 -13.73,-3.365 -13.91,-9.922 -0.09161,8.328 -7.719,15.83 -16.56,16.76 -9.002,0.9562 -17.54,-4.337 -17.4,-12.89 -0.6991,8.556 -8.039,16.25 -17.67,17.22 -9.642,0.9602 -19.75,-5.383 -19.63,-13.93 -1.275,10.16 -13.28,16.81 -28.64,16.88 -15.36,0.08164 -26.61,-6.438 -26.75,-16.59 -0.8395,8.549 -11.66,15.01 -21.21,14.14 -9.54,-0.8617 -16.01,-8.486 -15.75,-17.05 -0.8162,8.549 -9.957,13.93 -18.87,13.08 -8.742,-0.85 -15.52,-8.278 -14.68,-16.6 -0.9202,6.568 -8.092,10.75 -15.04,10.07 -7.101,-0.6904 -12.17,-6.776 -11.68,-13.61 -0.4838,5.064 -5.716,7.941 -10.98,7.429 -5.267,-0.5118 -8.413,-5.096 -8.662,-10.09 -0.3259,3.414 -4.113,8.557 -7.683,8.504 0.06891,0.4754 0.1407,0.9548 0.2151,1.439 44.79,14.82 97.85,23.21 155.2,22.96   l0,0   z "  fill="#e7c900" fill-rule="evenodd" stroke="#000000" stroke-width="3.68882799" />
<path d="m59.52,193.3   c1.744,-21 13.23,-89.12 117,-103.6 -2.049,-0.1151 -4.104,-0.2524 -6.166,-0.4121 -94.93,9.592 -135.3,69.16 -130.7,102.6 0.3832,2.778 3.667,5.316 8.988,5.59 5.323,0.2726 10.52,-1.338 10.88,-4.156   l0,0 0,0   z "  fill="#e7c900" fill-rule="evenodd" stroke="#000000" stroke-width="2.75960636" />
<path d="m175.5,105.4   c-104,12.8 -115.1,72.69 -116.6,91.15 -0.2897,3.338 5.005,6.296 12.19,6.611 7.033,0.3115 14.16,-1.748 14.89,-4.958 0.01042,-0.07238 0.02413,-0.1449 0.03985,-0.2173 4.016,-18.51 9.857,-77.01 94.01,-92.43 -1.501,-0.05148 -3.003,-0.1143 -4.509,-0.1878   l0,0   z "  fill="#e7c900" fill-rule="evenodd" stroke="#000000" stroke-width="2.59048891" />
<path d="m209.5,258.4   c-0.6477,-15.83 -52.94,-15.56 -55.41,0.2886 -0.1582,1.03 -0.3138,2.191 -0.4643,3.475 -2.684,23.06 -3.333,85.94 19.78,145.9 29.84,-60.14 36.23,-123 36.18,-146.1 -0.004793,-1.284 -0.03109,-2.443 -0.07286,-3.473   l0,0   z "  fill="#e7c900" fill-rule="evenodd" stroke="#000000" stroke-width="3.68882799" />
<path d="m173.5,407.7   c-38.04,-18.09 -58.4,-79.85 -56.42,-144.9 0.7956,-26.68 38.37,-21.7 36.7,-0.8663   "  fill="none" stroke="#000000" stroke-width="3.68882799" />
<path d="m281.5,248.8   c-2.246,32.56 -14.63,133.2 -107.5,158.9 116.4,-20.22 132.5,-136.3 134.7,-164.9 1.559,-13.69 -23.34,-13.73 -27.25,6.051   z "  fill="#e7c900" fill-rule="evenodd" stroke="#000000" stroke-width="3.68882799" />
<path d="m246.5,262.1   c-5.379,65.08 -32.74,127 -72.78,145.6 92.88,-25.79 105.2,-126.4 107.5,-158.9 0.003409,-0.06045 0.00675,-0.12 0.01013,-0.1798 1.159,-17.01 -32.25,-13.76 -34.67,13.57   l0,0   z "  fill="#e7c900" fill-rule="evenodd" stroke="#000000" stroke-width="3.68882799" />
<path d="m209.5,262.3   c0.09382,23.04 -6.338,85.96 -36.18,146.1 40.1,-18.49 67.41,-80.48 72.78,-145.6 2.206,-26.68 -35.94,-21.32 -36.63,-0.4954   l0,0   z "  fill="#e7c900" fill-rule="evenodd" stroke="#000000" stroke-width="3.68882799" />
<path d="m173.5,407.7   c-23.09,-59.87 -22.42,-122.7 -19.78,-145.9 1.662,-20.83 -35.9,-25.8 -36.7,0.8663 -1.941,65.05 18.44,126.7 56.42,144.9   l0,0   z "  fill="#e7c900" fill-rule="evenodd" stroke="#000000" stroke-width="3.68882799" />
<path d="m173.5,407.7   c-38.04,-18.09 -58.4,-79.85 -56.42,-144.9 0.6775,-27.31 -32.39,-30.23 -33.16,-13.22 -0.003376,0.0599 -0.004904,0.1194 -0.008292,0.1798 -1.424,32.56 -0.3826,133.1 89.65,157.9   l0,0   z "  fill="#e7c900" fill-rule="evenodd" stroke="#000000" stroke-width="3.68882799" />
<path d="M173.5,407.7   C84.52,383.2 82.52,283.1 84.52,249.7   c-1.685,-19.76 -26.59,-19.44 -26.58,-5.774 -1.027,28.73 1.973,144.7 116.2,163.6   z "  fill="#e7c900" fill-rule="evenodd" stroke="#000000" stroke-width="3.68882799" />
<path d="m313.5,220.2   c1.588,10.78 1.846,20.04 1.194,31.55 -4.847,86.12 -73.66,156.1 -153.7,156.6 -80.05,0.4102 -141,-69.05 -136.2,-155.1 0.6804,-12.09 2.348,-22.87 5.413,-34.17 41.46,15.06 93.96,0.06451 147.3,-0.1987 50.2,-0.2581 94.54,15.24 135.9,1.369   z "  fill-rule="evenodd" stroke="#000000" stroke-width="6.29348946" />
<path d="m158.5,397   c0.1065,12.02 -29.59,2.256 -31.45,13.2 -14.83,87.6 -85.05,139.3 -91.36,138 -14.29,4.045 -19.78,26.99 0.9518,28.03 48.08,2.443 186.9,-1.841 244.7,3.031 27.34,2.304 20.18,-29.91 6.259,-30.2 -49.88,-26.86 -68.74,-83.34 -76.64,-125.6 -5.096,-27.16 -15.81,-1.358 -3.166,-22.42   "  fill-rule="evenodd" stroke="#000000" stroke-width="6.29348946" />
<path d="m32.52,202.3   c-1.741,-8.727 -2.471,-11.31 0.2263,-20.3 20.71,-69.15 82.54,-119.1 144.3,-134.3 69.22,18.9 112.7,29.74 142.6,128.5 2.578,8.508 -2.017,18.15 -4.684,26.81 -41.1,10.37 -88.19,16.41 -138,16.67 -53.29,0.2718 -102.7,-6.11 -144.4,-17.42   z "  fill-rule="evenodd" stroke="#000000" stroke-width="6.29348946" />
<path d="m64.52,153.5   c13.19,-37.37 61.25,-50.58 86.8,-57.49 -1.293,19.36 27.52,47.86 45.92,4.021 44.2,-1.233 85.95,12.92 92.32,54.92 -218.8,-2.53 -3.081,-1.116 -225,-1.472   z "  opacity="0.5" fill="#000000" fill-rule="evenodd" stroke="none" />
<path d="m87.52,191.6   c-0.6518,6.825 -7.991,11.21 -15.1,10.52 -7.101,-0.6904 -12.17,-6.776 -11.68,-13.61 2.81,-39.59 18.57,-172.1 136.1,-189.1   "  fill="none" stroke="none" />
<path d="m196.5,-0.02562   c-39.45,21.67 -73.21,111.5 -75.84,196.1 -0.2646,8.554 6.211,16.18 15.75,17.05 9.54,0.8617 20.37,-5.592 21.21,-14.14   "  fill="none" stroke="none" />
<path d="M196.5,-0.02562   C86.52,2.784 37.52,121.8 40.52,186   c0.2543,5.004 3.398,9.586 8.662,10.09 5.267,0.5118 10.5,-2.366 10.98,-7.429   "  fill="none" stroke="none" />
<path d="m117.5,262.7   c0.6775,-27.31 -32.39,-30.23 -33.15,-13.23 -1.441,32.38 -0.5513,133.2 89.65,158.1   "  fill="none" stroke="none" />
<path d="m84.52,251.8   c-0.6185,-21.14 -26.67,-21.13 -26.65,-7.146 -1.027,28.73 1.973,144.7 116.2,163.6   "  fill="none" stroke="none" />
<path d="m30.52,223.7   c3.642,0.461 6.606,7.515 6.598,10.07   "  fill="none" stroke="#000000" />
<path d="m173.5,407.7   c-38.04,-18.09 -58.4,-79.85 -56.42,-144.9 0.7956,-26.68 38.37,-21.7 36.7,-0.8663   "  fill="none" stroke="none" />
<path d="M173.5,407.7   C61.52,398.6 31.52,302.2 36.52,233.9   c0.8902,-10.79 20.93,-7.708 21.09,8.019   "  fill="none" stroke="none" />
<path d="m121.5,195   c-0.8162,8.549 -9.957,13.93 -18.87,13.08 -8.9,-0.8651 -15.77,-8.542 -14.63,-17.05 5.279,-39.46 15.11,-167.7 109.3,-192.1   "  fill="none" stroke="none" />
<path d="m196.5,-0.02562   c-39.45,21.67 -73.21,111.5 -75.84,196.1 -0.2646,8.554 6.211,16.18 15.75,17.05 9.54,0.8617 20.89,-7.524 21.74,-16.07   "  fill="none" stroke="none" />
<path d="m117.5,262.7   c0.6775,-27.31 -32.39,-30.23 -33.15,-13.23 -1.441,32.38 -0.5513,133.2 89.65,158.1   "  fill="none" stroke="none" />
<path d="m173.5,407.7   c-24.36,-63.19 -22.25,-129.8 -19.29,-149.2 2.438,-15.84 54.72,-16.1 55.41,-0.2886 0.8078,19.49 -4.6,86.03 -36.13,149.5   "  fill="none" stroke="none" />
<path d="m250.5,194.4   c-0.1457,8.545 8.398,13.84 17.4,12.89 9.002,-0.9562 16.74,-8.708 16.56,-17.21 -0.8369,-39.42 3.769,-167.6 -87.78,-191.1   "  fill="none" stroke="none" />
<path d="m196.5,-0.02562   c23.43,79.6 19.9,171.2 16.51,198.6 -1.275,10.16 -13.28,16.81 -28.64,16.88   "  fill="none" stroke="none" />
<path d="m196.5,-0.02562   c37.04,21.28 60.66,110.8 53.73,195.4 -0.6991,8.556 -8.039,16.25 -17.67,17.22 -9.642,0.9602 -19.75,-5.383 -19.63,-13.93   "  fill="none" stroke="none" />
<path d="m246.5,262.1   c2.4,-27.33 35.81,-30.58 34.66,-13.57 -2.207,32.38 -14.44,133.3 -107.5,159.1   "  fill="none" stroke="none" />
<path d="m280.5,250.9   c2.996,-21.16 29.07,-21.42 27.47,-7.424 -2.203,28.73 -18.23,144.8 -134.7,164.9   "  fill="none" stroke="none" />
<path d="m338.5,222.3   c-3.696,0.4984 -7.459,7.589 -7.738,10.15   "  fill="none" stroke="#000000" />
<path d="m173.5,407.7   c40.1,-18.49 67.41,-80.48 72.78,-145.6 2.206,-26.68 -35.94,-21.32 -36.63,-0.4954   "  fill="none" stroke="none" />
<path d="m173.5,407.7   c112.6,-10.9 154.8,-106.8 156.9,-175 0.324,-10.78 -20.07,-7.495 -22.01,8.241   "  fill="none" stroke="none" />
<path d="m246.5,262.1   c2.4,-27.33 35.81,-30.58 34.66,-13.57 -2.207,32.38 -14.44,133.3 -107.5,159.1   "  fill="none" stroke="none" />
<path d="m173.5,407.7   c40.1,-18.49 67.41,-80.48 72.78,-145.6 2.206,-26.68 -35.94,-21.32 -36.63,-0.4954   "  fill="none" stroke="none" />
<path d="m196.5,-0.02562   c109.3,2.228 145.4,120.3 134.9,184.8 -0.8172,5.01 -4.476,9.622 -9.806,10.19 -5.328,0.5662 -10.24,-2.259 -10.15,-7.323   "  fill="none" stroke="none" />
<path d="m284.5,190.7   c-0.1174,6.822 6.732,11.14 13.92,10.38 7.184,-0.7638 12.94,-6.908 13.22,-13.74 1.641,-39.57 0.8514,-172.1 -114.9,-187.8   "  fill="none" stroke="none" />
<path d="m250.5,194.4   c-0.1457,8.545 8.398,13.84 17.4,12.89 9.002,-0.9562 16.74,-8.708 16.56,-17.21 -0.8369,-39.42 3.769,-167.6 -87.78,-191.1   "  fill="none" stroke="none" />
<path d="m196.5,-0.02562   c37.04,21.28 60.66,110.8 53.73,195.4 -0.6991,8.556 -8.039,16.25 -17.67,17.22 -9.642,0.9602 -19.75,-5.383 -19.63,-13.93   "  fill="none" stroke="none" />
<path d="m202.5,655.2   c-20.65,-38.8 -28.02,-61.94 -27.25,-120.3   "  fill="none" stroke="none" />
<path d="m117.5,655.8   c25.03,-39.03 35.01,-62.26 40.76,-120.6   "  fill="none" stroke="none" />
<path d="m196.5,5.014   c-30.73,79.88 -37.17,166.3 -36.95,193.9 0.08901,10.16 10.64,16.68 25.08,16.61   "  fill="none" stroke="none" />
<path d="m199.5,2.234   c23.43,79.6 18,167.9 14.61,195.5 -1.275,10.16 -13.28,16.81 -28.64,16.88   "  fill="none" stroke="none" />
<path d="m163.5,365.2   c-51.18,-2.148 -59.54,-0.4385 -70.27,-4.028 -52.25,-25.74 -53.45,-84.28 -52.81,-105.5 31.2,-1.511 127.9,-0.334 143.3,-0.4334   "  opacity="0.5" fill="#000000" stroke="none" />
<path d="m127.5,172.7   c-1.724,-21.5 4.002,-38.76 23.48,-65.15   "  fill="none" stroke="#000000" stroke-width="6.08666611" />
<path d="m278.5,179.8   c4.137,-21.53 0.3594,-38.74 -16.16,-64.94   "  fill="none" stroke="#000000" stroke-width="6.08666611" />
<path d="m213.5,170.7   c4.137,-21.53 0.3594,-38.74 -16.16,-64.94   "  fill="none" stroke="#000000" stroke-width="6.08666611" />
<path d="m171.5,213.3   c3.008,-82.48 1.203,-0.9242 3.555,-81.62   "  fill="none" stroke="#000000" stroke-width="6.29348946" />
<path d="m24.52,203.1   c-20.92,-2.47 -35.29,32.37 -1.214,37.02 127.1,1.679 192.6,0.166 301,1.466 31.24,-11.41 16.69,-39.7 1.086,-37.01   l-145.9,-0.5882   c-51.75,0.4474 -103.4,-0.4123 -155.1,-0.9082   z "  fill-rule="evenodd" stroke="#000000" stroke-width="6.29348946" />
<path d="m17.52,575.3   c-7.639,-0.344 -14.72,23.36 -1.935,25.63 290.8,-1.557 0.3982,0.4795 290.5,-1.577 9.771,-2.396 8.016,-23.36 0.3333,-22.94   l-140.1,-0.4489   c-49.66,0.4145 -99.18,-0.3162 -148.8,-0.7096   z "  fill-rule="evenodd" stroke="#000000" stroke-width="6.29348946" />
<path d="m245.5,174.8   c4.137,-21.53 0.3594,-38.74 -16.16,-64.94   "  fill="none" stroke="#000000" stroke-width="6.08666611" />
<path d="m96.52,177.7   c-1.724,-21.5 4.002,-38.76 23.48,-65.15   "  fill="none" stroke="#000000" stroke-width="6.08666611" />
<path d="m68.52,177.7   c-1.724,-21.5 4.002,-38.76 23.48,-65.15   "  fill="none" stroke="#000000" stroke-width="6.08666611" />
<path d="m26.52,165.5   c-27.83,-0.3014 -21.7,42.41 -7.44,39.14 130.8,1.661 201.7,4.457 311.9,1.369 10.49,-2.74 20.39,-35.36 -2.567,-39.09   l-146.6,1.598   c-53.25,0.4505 -102.1,-2.561 -155.4,-2.969   z "  fill-rule="evenodd" stroke="#000000" stroke-width="6.29348946" />
<path d="m32.52,211.9   c-19.67,-1.44 -32.39,13.69 -0.3566,16.33 119.1,2.867 180.3,3.27 282.2,5.675 29.05,-4.519 14.81,-17.23 0.2361,-16.33   l-136.8,-2.682   c-48.47,-0.6663 -96.88,-1.913 -145.4,-2.963   z "  opacity="0.5" fill="#000000" fill-rule="evenodd" stroke="none" />
<path d="m38.52,175.4   c-19.67,-1.44 -32.39,13.69 -0.3566,16.33 119.1,2.867 180.3,3.27 282.2,5.675 29.05,-4.519 14.81,-17.23 0.2361,-16.33   l-136.8,-2.682   c-48.47,-0.6663 -96.88,-1.913 -145.4,-2.963   z "  opacity="0.5" fill="#000000" fill-rule="evenodd" stroke="none" />
<path d="m30.52,579.2   c-18.2,-0.4656 -29.49,5.08 0.1852,5.939 110.2,0.7024 166.8,0.6527 261,1.262 26.68,-1.729 13.14,-6.312 -0.2936,-5.939   l-126.4,-0.5928   c-44.82,-0.1059 -89.62,-0.4148 -134.5,-0.6844   z "  opacity="0.5" fill="#000000" fill-rule="evenodd" stroke="none" />
<path d="m104.5,377.3   c-19.82,-6.319 -56.3,-45.97 -57.22,-95.63   "  fill="none" stroke="#000000" stroke-width="6.29348946" />
</g>
</g>
</g>
</g>
</g>
<path d="m274.5,616.1   c1.799,3.585 -5.954,22.57 -24.32,25.12   "  fill="none" stroke="none" />
</g>
<path d="m171.5,127.3   c17.71,-15 24.48,-34.27 12.49,-53.6 20.58,41.64 32,17.89 50.35,30.95 -14.61,-13.18 -5.143,-29.29 -30.9,-40.38 20.59,6.28 33.04,42.32 67.6,18.29 -27.87,-3.453 -33.06,-32.9 -59.17,-29.3   l-48.21,7.383 12.47,-11.73   "  fill-rule="evenodd" stroke="#000000" stroke-width="3.60623264" />
<path d="m175.5,128.1   c-14.6,-14.88 -25.39,-35.51 -12.32,-55.04 -23.36,42.02 -31.27,18.28 -49.5,31.58 14.82,-13.38 7.881,-29.47 32.7,-40.86 -19.56,6.507 -44.09,40.7 -64.17,23.27 25.91,-3.747 34.1,-37.6 57.64,-34.25   l43.39,6.934 -10.17,-11.66   "  fill-rule="evenodd" stroke="#000000" stroke-width="3.45817041" />
<path d="m200.5,41.15   c-0.3806,6.773 -3.303,13.52 -7.945,18.33 -4.64,4.811 -10.94,7.628 -17.12,7.662 -6.181,0.03144 -12.17,-2.726 -16.27,-7.495 -4.101,-4.767 -6.267,-11.49 -5.88,-18.26 0.3799,-6.772 3.303,-13.52 7.945,-18.33 4.64,-4.811 10.94,-7.628 17.12,-7.662 6.181,-0.03144 12.17,2.726 16.27,7.495 4.101,4.767 6.259,11.48 5.88,18.26   z "  stroke="#000000" stroke-width="8.44995975" />
<path d="m189.5,41.65   c-0.2336,4.149 -1.882,8.282 -4.484,11.23 -2.601,2.948 -6.118,4.673 -9.56,4.691 -3.443,0.01765 -6.769,-1.674 -9.037,-4.596 -2.27,-2.923 -3.454,-7.039 -3.219,-11.19 0.2328,-4.15 1.882,-8.282 4.484,-11.23 2.601,-2.948 6.118,-4.673 9.56,-4.691 3.443,-0.01765 6.769,1.674 9.037,4.596 2.27,2.923 3.453,7.039 3.219,11.19   z "  opacity="0.5" fill="#000000" stroke="none" />
<path d="m157.5,367.5   c51.45,-2.673 59.62,-1.049 70.76,-4.746 55.17,-26.27 62.95,-84.86 64.71,-106.1 -31.04,-1.197 -94.82,0.9691 -110.2,1.051   "  opacity="0.5" fill="#000000" stroke="none" />
<path d="m133.5,446.3   c1.581,21.08 4.71,13.65 1.83,22.62 -14.54,45.2 -62.2,71.6 -66.82,70.85 -11.03,2.36 -15,15.64 1.038,16.23 37.24,1.362 144.7,-1.273 189.5,1.504 21.17,1.31 15.28,-17.34 4.515,-17.51 -39.42,-15.71 -54.52,-49.04 -60.97,-73.61 -4.006,-15.24 -5.836,-39.95 -6.282,-20.75   "  opacity="0.5" fill="#000000" fill-rule="evenodd" stroke="none" />
</g>
<path d="m215.5,380.6   c20.55,-6.523 61.51,-46.57 68.05,-96.3   "  fill="none" stroke="#000000" stroke-width="7" />
<path d="m189.5,379.4   c20.55,-6.523 53.67,-40.12 60.21,-89.84   "  fill="none" stroke="#000000" stroke-width="7" />
<path d="m131.5,378.7   c-19.83,-6.317 -49.18,-39.59 -50.12,-89.28   "  fill="none" stroke="#000000" stroke-width="7" />
<path d="m165.5,381.2   c-19.83,-6.317 -49.18,-39.59 -50.12,-89.28   "  fill="none" stroke="#000000" stroke-width="7" />
<path d="m160.5,379.5   c3.014,-82.51 1.203,-0.9237 3.552,-81.59   "  fill="none" stroke="#000000" stroke-width="7" />
<path d="m154.5,382.8   c20.55,-6.523 53.67,-40.12 60.21,-89.84   "  fill="none" stroke="#000000" stroke-width="7" />
<path d="m84.52,376.6   c-15.76,-0.6398 -7.029,53.8 33.06,49.99 72.28,1.553 23.53,0.1712 97.8,0.6727 39.3,-2.034 46.82,-46.97 27.43,-49.23 -57.47,1.862 -106.4,0.4418 -158.3,-1.434   z "  fill-rule="evenodd" stroke="#000000" stroke-width="7" />
<path d="m95.52,385.3   c-13.93,-0.379 -5.427,33.63 29.94,31.2 63.88,0.8752 20.79,0.07611 86.41,0.2914 34.69,-1.323 40.68,-29.42 23.52,-30.8 -50.74,1.239 -94,0.4167 -139.9,-0.6869   z "  opacity="0.5" fill="#000000" fill-rule="evenodd" stroke="none" />
</g>
</g>
</g>
</g><g  fill="#fcdd07"><g class="PlaceCharge" transform=" translate(415.58244244412,580) scale(0.48785217591218, 0.48785217591218) " >
<title>three cups</title><g  ><g  ><g  ><g  ><g  ><g  ><g  ><g  ><g  ><path d="m179.5,240.5   c-0.2533,5.415 -2.977,8.663 -5.266,7.802   l0.7832,15.87 5.76,67.55 12.78,-67.65 2.568,-15.89   c-2.388,0.8842 -4.747,-2.334 -4.391,-7.752   l-0.02176,0.000115 1.706,-30.3 19.73,-0.09895 0,0   c4.84,-0.1593 5.74,11.12 -1.051,13.03 4.048,8.098 14.79,1.75 13.11,-12.78 4.68,0.4441 9.634,-3.177 12.21,-9.756 -1.833,-6.55 -6.388,-10.13 -11.12,-9.632 3.32,-14.55 -6.714,-20.79 -11.67,-12.65 6.568,1.826 4.41,13.17 -0.4202,13.05   l0,0 -19.73,0.09895 1.706,-30.3   c0.3309,-7.425 7.812,-9.809 8.448,0.4388 5.671,-6.947 2.475,-22.89 -7.211,-19.01 0.7123,-7.232 -1.22,-14.53 -5.302,-17.9 -4.462,3.407 -7.209,10.73 -7.318,17.96 -9.252,-3.799 -14.24,12.19 -9.35,19.09 1.789,-10.27 9.03,-7.957 8.518,-0.5258   l0,0 -1.706,30.3 -19.73,0.09895   c-4.84,0.1593 -5.74,-11.12 1.044,-13.02 -4.045,-8.098 -14.79,-1.75 -13.11,12.78 -4.68,-0.4441 -9.64,3.178 -12.21,9.756 1.833,6.55 6.388,10.13 11.12,9.632 -3.32,14.55 6.714,20.79 11.67,12.65 -6.568,-1.826 -4.41,-13.17 0.4202,-13.05   l0,0 19.73,-0.09895 -1.706,30.3 0,0 0,0   z "  fill="#e7c900" fill-rule="evenodd" stroke="#000000" stroke-width="3.68882799" />
<path d="m33.52,196 134.8,-35.63 169.9,36.65   "  fill="none" stroke="#000000" stroke-width="3.68882799" />
<path d="m188.5,219.2   c53.56,-0.2739 104.3,-8.099 148.6,-21.61 0.2527,-0.9575 0.496,-1.919 0.7305,-2.882 0.1168,-0.4805 0.2317,-0.9615 0.3447,-1.442 -3.623,0.216 -6.909,-4.972 -6.844,-8.419 -0.8172,5.01 -4.476,9.622 -9.806,10.19 -5.328,0.5662 -10.24,-2.259 -10.15,-7.323 -0.2838,6.832 -6.034,12.98 -13.22,13.74 -7.024,0.7472 -13.73,-3.365 -13.91,-9.922 -0.09161,8.328 -7.719,15.83 -16.56,16.76 -9.002,0.9562 -17.54,-4.337 -17.4,-12.89 -0.6991,8.556 -8.039,16.25 -17.67,17.22 -9.642,0.9602 -19.75,-5.383 -19.63,-13.93 -1.275,10.16 -13.28,16.81 -28.64,16.88 -15.36,0.08164 -26.61,-6.438 -26.75,-16.59 -0.8395,8.549 -11.66,15.01 -21.21,14.14 -9.54,-0.8617 -16.01,-8.486 -15.75,-17.05 -0.8162,8.549 -9.957,13.93 -18.87,13.08 -8.742,-0.85 -15.52,-8.278 -14.68,-16.6 -0.9202,6.568 -8.092,10.75 -15.04,10.07 -7.101,-0.6904 -12.17,-6.776 -11.68,-13.61 -0.4838,5.064 -5.716,7.941 -10.98,7.429 -5.267,-0.5118 -8.413,-5.096 -8.662,-10.09 -0.3259,3.414 -4.113,8.557 -7.683,8.504 0.06891,0.4754 0.1407,0.9548 0.2151,1.439 44.79,14.82 97.85,23.21 155.2,22.96   l0,0   z "  fill="#e7c900" fill-rule="evenodd" stroke="#000000" stroke-width="3.68882799" />
<path d="m59.52,193.3   c1.744,-21 13.23,-89.12 117,-103.6 -2.049,-0.1151 -4.104,-0.2524 -6.166,-0.4121 -94.93,9.592 -135.3,69.16 -130.7,102.6 0.3832,2.778 3.667,5.316 8.988,5.59 5.323,0.2726 10.52,-1.338 10.88,-4.156   l0,0 0,0   z "  fill="#e7c900" fill-rule="evenodd" stroke="#000000" stroke-width="2.75960636" />
<path d="m175.5,105.4   c-104,12.8 -115.1,72.69 -116.6,91.15 -0.2897,3.338 5.005,6.296 12.19,6.611 7.033,0.3115 14.16,-1.748 14.89,-4.958 0.01042,-0.07238 0.02413,-0.1449 0.03985,-0.2173 4.016,-18.51 9.857,-77.01 94.01,-92.43 -1.501,-0.05148 -3.003,-0.1143 -4.509,-0.1878   l0,0   z "  fill="#e7c900" fill-rule="evenodd" stroke="#000000" stroke-width="2.59048891" />
<path d="m209.5,258.4   c-0.6477,-15.83 -52.94,-15.56 -55.41,0.2886 -0.1582,1.03 -0.3138,2.191 -0.4643,3.475 -2.684,23.06 -3.333,85.94 19.78,145.9 29.84,-60.14 36.23,-123 36.18,-146.1 -0.004793,-1.284 -0.03109,-2.443 -0.07286,-3.473   l0,0   z "  fill="#e7c900" fill-rule="evenodd" stroke="#000000" stroke-width="3.68882799" />
<path d="m173.5,407.7   c-38.04,-18.09 -58.4,-79.85 -56.42,-144.9 0.7956,-26.68 38.37,-21.7 36.7,-0.8663   "  fill="none" stroke="#000000" stroke-width="3.68882799" />
<path d="m281.5,248.8   c-2.246,32.56 -14.63,133.2 -107.5,158.9 116.4,-20.22 132.5,-136.3 134.7,-164.9 1.559,-13.69 -23.34,-13.73 -27.25,6.051   z "  fill="#e7c900" fill-rule="evenodd" stroke="#000000" stroke-width="3.68882799" />
<path d="m246.5,262.1   c-5.379,65.08 -32.74,127 -72.78,145.6 92.88,-25.79 105.2,-126.4 107.5,-158.9 0.003409,-0.06045 0.00675,-0.12 0.01013,-0.1798 1.159,-17.01 -32.25,-13.76 -34.67,13.57   l0,0   z "  fill="#e7c900" fill-rule="evenodd" stroke="#000000" stroke-width="3.68882799" />
<path d="m209.5,262.3   c0.09382,23.04 -6.338,85.96 -36.18,146.1 40.1,-18.49 67.41,-80.48 72.78,-145.6 2.206,-26.68 -35.94,-21.32 -36.63,-0.4954   l0,0   z "  fill="#e7c900" fill-rule="evenodd" stroke="#000000" stroke-width="3.68882799" />
<path d="m173.5,407.7   c-23.09,-59.87 -22.42,-122.7 -19.78,-145.9 1.662,-20.83 -35.9,-25.8 -36.7,0.8663 -1.941,65.05 18.44,126.7 56.42,144.9   l0,0   z "  fill="#e7c900" fill-rule="evenodd" stroke="#000000" stroke-width="3.68882799" />
<path d="m173.5,407.7   c-38.04,-18.09 -58.4,-79.85 -56.42,-144.9 0.6775,-27.31 -32.39,-30.23 -33.16,-13.22 -0.003376,0.0599 -0.004904,0.1194 -0.008292,0.1798 -1.424,32.56 -0.3826,133.1 89.65,157.9   l0,0   z "  fill="#e7c900" fill-rule="evenodd" stroke="#000000" stroke-width="3.68882799" />
<path d="M173.5,407.7   C84.52,383.2 82.52,283.1 84.52,249.7   c-1.685,-19.76 -26.59,-19.44 -26.58,-5.774 -1.027,28.73 1.973,144.7 116.2,163.6   z "  fill="#e7c900" fill-rule="evenodd" stroke="#000000" stroke-width="3.68882799" />
<path d="m313.5,220.2   c1.588,10.78 1.846,20.04 1.194,31.55 -4.847,86.12 -73.66,156.1 -153.7,156.6 -80.05,0.4102 -141,-69.05 -136.2,-155.1 0.6804,-12.09 2.348,-22.87 5.413,-34.17 41.46,15.06 93.96,0.06451 147.3,-0.1987 50.2,-0.2581 94.54,15.24 135.9,1.369   z "  fill-rule="evenodd" stroke="#000000" stroke-width="6.29348946" />
<path d="m158.5,397   c0.1065,12.02 -29.59,2.256 -31.45,13.2 -14.83,87.6 -85.05,139.3 -91.36,138 -14.29,4.045 -19.78,26.99 0.9518,28.03 48.08,2.443 186.9,-1.841 244.7,3.031 27.34,2.304 20.18,-29.91 6.259,-30.2 -49.88,-26.86 -68.74,-83.34 -76.64,-125.6 -5.096,-27.16 -15.81,-1.358 -3.166,-22.42   "  fill-rule="evenodd" stroke="#000000" stroke-width="6.29348946" />
<path d="m32.52,202.3   c-1.741,-8.727 -2.471,-11.31 0.2263,-20.3 20.71,-69.15 82.54,-119.1 144.3,-134.3 69.22,18.9 112.7,29.74 142.6,128.5 2.578,8.508 -2.017,18.15 -4.684,26.81 -41.1,10.37 -88.19,16.41 -138,16.67 -53.29,0.2718 -102.7,-6.11 -144.4,-17.42   z "  fill-rule="evenodd" stroke="#000000" stroke-width="6.29348946" />
<path d="m64.52,153.5   c13.19,-37.37 61.25,-50.58 86.8,-57.49 -1.293,19.36 27.52,47.86 45.92,4.021 44.2,-1.233 85.95,12.92 92.32,54.92 -218.8,-2.53 -3.081,-1.116 -225,-1.472   z "  opacity="0.5" fill="#000000" fill-rule="evenodd" stroke="none" />
<path d="m87.52,191.6   c-0.6518,6.825 -7.991,11.21 -15.1,10.52 -7.101,-0.6904 -12.17,-6.776 -11.68,-13.61 2.81,-39.59 18.57,-172.1 136.1,-189.1   "  fill="none" stroke="none" />
<path d="m196.5,-0.02562   c-39.45,21.67 -73.21,111.5 -75.84,196.1 -0.2646,8.554 6.211,16.18 15.75,17.05 9.54,0.8617 20.37,-5.592 21.21,-14.14   "  fill="none" stroke="none" />
<path d="M196.5,-0.02562   C86.52,2.784 37.52,121.8 40.52,186   c0.2543,5.004 3.398,9.586 8.662,10.09 5.267,0.5118 10.5,-2.366 10.98,-7.429   "  fill="none" stroke="none" />
<path d="m117.5,262.7   c0.6775,-27.31 -32.39,-30.23 -33.15,-13.23 -1.441,32.38 -0.5513,133.2 89.65,158.1   "  fill="none" stroke="none" />
<path d="m84.52,251.8   c-0.6185,-21.14 -26.67,-21.13 -26.65,-7.146 -1.027,28.73 1.973,144.7 116.2,163.6   "  fill="none" stroke="none" />
<path d="m30.52,223.7   c3.642,0.461 6.606,7.515 6.598,10.07   "  fill="none" stroke="#000000" />
<path d="m173.5,407.7   c-38.04,-18.09 -58.4,-79.85 -56.42,-144.9 0.7956,-26.68 38.37,-21.7 36.7,-0.8663   "  fill="none" stroke="none" />
<path d="M173.5,407.7   C61.52,398.6 31.52,302.2 36.52,233.9   c0.8902,-10.79 20.93,-7.708 21.09,8.019   "  fill="none" stroke="none" />
<path d="m121.5,195   c-0.8162,8.549 -9.957,13.93 -18.87,13.08 -8.9,-0.8651 -15.77,-8.542 -14.63,-17.05 5.279,-39.46 15.11,-167.7 109.3,-192.1   "  fill="none" stroke="none" />
<path d="m196.5,-0.02562   c-39.45,21.67 -73.21,111.5 -75.84,196.1 -0.2646,8.554 6.211,16.18 15.75,17.05 9.54,0.8617 20.89,-7.524 21.74,-16.07   "  fill="none" stroke="none" />
<path d="m117.5,262.7   c0.6775,-27.31 -32.39,-30.23 -33.15,-13.23 -1.441,32.38 -0.5513,133.2 89.65,158.1   "  fill="none" stroke="none" />
<path d="m173.5,407.7   c-24.36,-63.19 -22.25,-129.8 -19.29,-149.2 2.438,-15.84 54.72,-16.1 55.41,-0.2886 0.8078,19.49 -4.6,86.03 -36.13,149.5   "  fill="none" stroke="none" />
<path d="m250.5,194.4   c-0.1457,8.545 8.398,13.84 17.4,12.89 9.002,-0.9562 16.74,-8.708 16.56,-17.21 -0.8369,-39.42 3.769,-167.6 -87.78,-191.1   "  fill="none" stroke="none" />
<path d="m196.5,-0.02562   c23.43,79.6 19.9,171.2 16.51,198.6 -1.275,10.16 -13.28,16.81 -28.64,16.88   "  fill="none" stroke="none" />
<path d="m196.5,-0.02562   c37.04,21.28 60.66,110.8 53.73,195.4 -0.6991,8.556 -8.039,16.25 -17.67,17.22 -9.642,0.9602 -19.75,-5.383 -19.63,-13.93   "  fill="none" stroke="none" />
<path d="m246.5,262.1   c2.4,-27.33 35.81,-30.58 34.66,-13.57 -2.207,32.38 -14.44,133.3 -107.5,159.1   "  fill="none" stroke="none" />
<path d="m280.5,250.9   c2.996,-21.16 29.07,-21.42 27.47,-7.424 -2.203,28.73 -18.23,144.8 -134.7,164.9   "  fill="none" stroke="none" />
<path d="m338.5,222.3   c-3.696,0.4984 -7.459,7.589 -7.738,10.15   "  fill="none" stroke="#000000" />
<path d="m173.5,407.7   c40.1,-18.49 67.41,-80.48 72.78,-145.6 2.206,-26.68 -35.94,-21.32 -36.63,-0.4954   "  fill="none" stroke="none" />
<path d="m173.5,407.7   c112.6,-10.9 154.8,-106.8 156.9,-175 0.324,-10.78 -20.07,-7.495 -22.01,8.241   "  fill="none" stroke="none" />
<path d="m246.5,262.1   c2.4,-27.33 35.81,-30.58 34.66,-13.57 -2.207,32.38 -14.44,133.3 -107.5,159.1   "  fill="none" stroke="none" />
<path d="m173.5,407.7   c40.1,-18.49 67.41,-80.48 72.78,-145.6 2.206,-26.68 -35.94,-21.32 -36.63,-0.4954   "  fill="none" stroke="none" />
<path d="m196.5,-0.02562   c109.3,2.228 145.4,120.3 134.9,184.8 -0.8172,5.01 -4.476,9.622 -9.806,10.19 -5.328,0.5662 -10.24,-2.259 -10.15,-7.323   "  fill="none" stroke="none" />
<path d="m284.5,190.7   c-0.1174,6.822 6.732,11.14 13.92,10.38 7.184,-0.7638 12.94,-6.908 13.22,-13.74 1.641,-39.57 0.8514,-172.1 -114.9,-187.8   "  fill="none" stroke="none" />
<path d="m250.5,194.4   c-0.1457,8.545 8.398,13.84 17.4,12.89 9.002,-0.9562 16.74,-8.708 16.56,-17.21 -0.8369,-39.42 3.769,-167.6 -87.78,-191.1   "  fill="none" stroke="none" />
<path d="m196.5,-0.02562   c37.04,21.28 60.66,110.8 53.73,195.4 -0.6991,8.556 -8.039,16.25 -17.67,17.22 -9.642,0.9602 -19.75,-5.383 -19.63,-13.93   "  fill="none" stroke="none" />
<path d="m202.5,655.2   c-20.65,-38.8 -28.02,-61.94 -27.25,-120.3   "  fill="none" stroke="none" />
<path d="m117.5,655.8   c25.03,-39.03 35.01,-62.26 40.76,-120.6   "  fill="none" stroke="none" />
<path d="m196.5,5.014   c-30.73,79.88 -37.17,166.3 -36.95,193.9 0.08901,10.16 10.64,16.68 25.08,16.61   "  fill="none" stroke="none" />
<path d="m199.5,2.234   c23.43,79.6 18,167.9 14.61,195.5 -1.275,10.16 -13.28,16.81 -28.64,16.88   "  fill="none" stroke="none" />
<path d="m163.5,365.2   c-51.18,-2.148 -59.54,-0.4385 -70.27,-4.028 -52.25,-25.74 -53.45,-84.28 -52.81,-105.5 31.2,-1.511 127.9,-0.334 143.3,-0.4334   "  opacity="0.5" fill="#000000" stroke="none" />
<path d="m127.5,172.7   c-1.724,-21.5 4.002,-38.76 23.48,-65.15   "  fill="none" stroke="#000000" stroke-width="6.08666611" />
<path d="m278.5,179.8   c4.137,-21.53 0.3594,-38.74 -16.16,-64.94   "  fill="none" stroke="#000000" stroke-width="6.08666611" />
<path d="m213.5,170.7   c4.137,-21.53 0.3594,-38.74 -16.16,-64.94   "  fill="none" stroke="#000000" stroke-width="6.08666611" />
<path d="m171.5,213.3   c3.008,-82.48 1.203,-0.9242 3.555,-81.62   "  fill="none" stroke="#000000" stroke-width="6.29348946" />
<path d="m24.52,203.1   c-20.92,-2.47 -35.29,32.37 -1.214,37.02 127.1,1.679 192.6,0.166 301,1.466 31.24,-11.41 16.69,-39.7 1.086,-37.01   l-145.9,-0.5882   c-51.75,0.4474 -103.4,-0.4123 -155.1,-0.9082   z "  fill-rule="evenodd" stroke="#000000" stroke-width="6.29348946" />
<path d="m17.52,575.3   c-7.639,-0.344 -14.72,23.36 -1.935,25.63 290.8,-1.557 0.3982,0.4795 290.5,-1.577 9.771,-2.396 8.016,-23.36 0.3333,-22.94   l-140.1,-0.4489   c-49.66,0.4145 -99.18,-0.3162 -148.8,-0.7096   z "  fill-rule="evenodd" stroke="#000000" stroke-width="6.29348946" />
<path d="m245.5,174.8   c4.137,-21.53 0.3594,-38.74 -16.16,-64.94   "  fill="none" stroke="#000000" stroke-width="6.08666611" />
<path d="m96.52,177.7   c-1.724,-21.5 4.002,-38.76 23.48,-65.15   "  fill="none" stroke="#000000" stroke-width="6.08666611" />
<path d="m68.52,177.7   c-1.724,-21.5 4.002,-38.76 23.48,-65.15   "  fill="none" stroke="#000000" stroke-width="6.08666611" />
<path d="m26.52,165.5   c-27.83,-0.3014 -21.7,42.41 -7.44,39.14 130.8,1.661 201.7,4.457 311.9,1.369 10.49,-2.74 20.39,-35.36 -2.567,-39.09   l-146.6,1.598   c-53.25,0.4505 -102.1,-2.561 -155.4,-2.969   z "  fill-rule="evenodd" stroke="#000000" stroke-width="6.29348946" />
<path d="m32.52,211.9   c-19.67,-1.44 -32.39,13.69 -0.3566,16.33 119.1,2.867 180.3,3.27 282.2,5.675 29.05,-4.519 14.81,-17.23 0.2361,-16.33   l-136.8,-2.682   c-48.47,-0.6663 -96.88,-1.913 -145.4,-2.963   z "  opacity="0.5" fill="#000000" fill-rule="evenodd" stroke="none" />
<path d="m38.52,175.4   c-19.67,-1.44 -32.39,13.69 -0.3566,16.33 119.1,2.867 180.3,3.27 282.2,5.675 29.05,-4.519 14.81,-17.23 0.2361,-16.33   l-136.8,-2.682   c-48.47,-0.6663 -96.88,-1.913 -145.4,-2.963   z "  opacity="0.5" fill="#000000" fill-rule="evenodd" stroke="none" />
<path d="m30.52,579.2   c-18.2,-0.4656 -29.49,5.08 0.1852,5.939 110.2,0.7024 166.8,0.6527 261,1.262 26.68,-1.729 13.14,-6.312 -0.2936,-5.939   l-126.4,-0.5928   c-44.82,-0.1059 -89.62,-0.4148 -134.5,-0.6844   z "  opacity="0.5" fill="#000000" fill-rule="evenodd" stroke="none" />
<path d="m104.5,377.3   c-19.82,-6.319 -56.3,-45.97 -57.22,-95.63   "  fill="none" stroke="#000000" stroke-width="6.29348946" />
</g>
</g>
</g>
</g>
</g>
<path d="m274.5,616.1   c1.799,3.585 -5.954,22.57 -24.32,25.12   "  fill="none" stroke="none" />
</g>
<path d="m171.5,127.3   c17.71,-15 24.48,-34.27 12.49,-53.6 20.58,41.64 32,17.89 50.35,30.95 -14.61,-13.18 -5.143,-29.29 -30.9,-40.38 20.59,6.28 33.04,42.32 67.6,18.29 -27.87,-3.453 -33.06,-32.9 -59.17,-29.3   l-48.21,7.383 12.47,-11.73   "  fill-rule="evenodd" stroke="#000000" stroke-width="3.60623264" />
<path d="m175.5,128.1   c-14.6,-14.88 -25.39,-35.51 -12.32,-55.04 -23.36,42.02 -31.27,18.28 -49.5,31.58 14.82,-13.38 7.881,-29.47 32.7,-40.86 -19.56,6.507 -44.09,40.7 -64.17,23.27 25.91,-3.747 34.1,-37.6 57.64,-34.25   l43.39,6.934 -10.17,-11.66   "  fill-rule="evenodd" stroke="#000000" stroke-width="3.45817041" />
<path d="m200.5,41.15   c-0.3806,6.773 -3.303,13.52 -7.945,18.33 -4.64,4.811 -10.94,7.628 -17.12,7.662 -6.181,0.03144 -12.17,-2.726 -16.27,-7.495 -4.101,-4.767 -6.267,-11.49 -5.88,-18.26 0.3799,-6.772 3.303,-13.52 7.945,-18.33 4.64,-4.811 10.94,-7.628 17.12,-7.662 6.181,-0.03144 12.17,2.726 16.27,7.495 4.101,4.767 6.259,11.48 5.88,18.26   z "  stroke="#000000" stroke-width="8.44995975" />
<path d="m189.5,41.65   c-0.2336,4.149 -1.882,8.282 -4.484,11.23 -2.601,2.948 -6.118,4.673 -9.56,4.691 -3.443,0.01765 -6.769,-1.674 -9.037,-4.596 -2.27,-2.923 -3.454,-7.039 -3.219,-11.19 0.2328,-4.15 1.882,-8.282 4.484,-11.23 2.601,-2.948 6.118,-4.673 9.56,-4.691 3.443,-0.01765 6.769,1.674 9.037,4.596 2.27,2.923 3.453,7.039 3.219,11.19   z "  opacity="0.5" fill="#000000" stroke="none" />
<path d="m157.5,367.5   c51.45,-2.673 59.62,-1.049 70.76,-4.746 55.17,-26.27 62.95,-84.86 64.71,-106.1 -31.04,-1.197 -94.82,0.9691 -110.2,1.051   "  opacity="0.5" fill="#000000" stroke="none" />
<path d="m133.5,446.3   c1.581,21.08 4.71,13.65 1.83,22.62 -14.54,45.2 -62.2,71.6 -66.82,70.85 -11.03,2.36 -15,15.64 1.038,16.23 37.24,1.362 144.7,-1.273 189.5,1.504 21.17,1.31 15.28,-17.34 4.515,-17.51 -39.42,-15.71 -54.52,-49.04 -60.97,-73.61 -4.006,-15.24 -5.836,-39.95 -6.282,-20.75   "  opacity="0.5" fill="#000000" fill-rule="evenodd" stroke="none" />
</g>
<path d="m215.5,380.6   c20.55,-6.523 61.51,-46.57 68.05,-96.3   "  fill="none" stroke="#000000" stroke-width="7" />
<path d="m189.5,379.4   c20.55,-6.523 53.67,-40.12 60.21,-89.84   "  fill="none" stroke="#000000" stroke-width="7" />
<path d="m131.5,378.7   c-19.83,-6.317 -49.18,-39.59 -50.12,-89.28   "  fill="none" stroke="#000000" stroke-width="7" />
<path d="m165.5,381.2   c-19.83,-6.317 -49.18,-39.59 -50.12,-89.28   "  fill="none" stroke="#000000" stroke-width="7" />
<path d="m160.5,379.5   c3.014,-82.51 1.203,-0.9237 3.552,-81.59   "  fill="none" stroke="#000000" stroke-width="7" />
<path d="m154.5,382.8   c20.55,-6.523 53.67,-40.12 60.21,-89.84   "  fill="none" stroke="#000000" stroke-width="7" />
<path d="m84.52,376.6   c-15.76,-0.6398 -7.029,53.8 33.06,49.99 72.28,1.553 23.53,0.1712 97.8,0.6727 39.3,-2.034 46.82,-46.97 27.43,-49.23 -57.47,1.862 -106.4,0.4418 -158.3,-1.434   z "  fill-rule="evenodd" stroke="#000000" stroke-width="7" />
<path d="m95.52,385.3   c-13.93,-0.379 -5.427,33.63 29.94,31.2 63.88,0.8752 20.79,0.07611 86.41,0.2914 34.69,-1.323 40.68,-29.42 23.52,-30.8 -50.74,1.239 -94,0.4167 -139.9,-0.6869   z "  opacity="0.5" fill="#000000" fill-rule="evenodd" stroke="none" />
</g>
</g>
</g>
</g></g></g></g>
<g clip-path='url(#clipPath14-1)' transform='translate(0, 500) scale(0.5)' ><g><g  fill="#da1219"><rect x='0' y='0' width='1000' height='1400'><title>Field</title></rect></g><g transform='translate(0,0)'><g  fill="#fcdd07"><g class="PlaceCharge" transform="rotate(-45,250,250)  translate(160,50) scale(1.25, 1.1695906432749) " >
<title>three nails</title><g transform="translate(-40.5,-67.5)"><g stroke-opacity="1" fill-opacity="1"  stroke="#000000" stroke-dasharray="none"  ><g  ><g  ><g  ><path d="M 79.66834 131.18692 L 110.65174 401.18506 C 110.77767 402.28243 111.76934 403.06994 112.86671 402.944 C 113.79068 402.838 114.51963 402.10903 114.62566 401.18506 L 145.60905 131.18692 C 145.73498 130.08955 144.94747 129.09787 143.8501 128.97194 C 143.77441 128.96326 143.69828 128.9589 143.6221 128.9589 L 81.6553 128.9589 C 80.55074 128.9589 79.655305 129.85433 79.655305 130.9589 C 79.655305 131.0351 79.65966 131.11122 79.66834 131.18692 Z"  />
<path d="M 79.66834 131.18692 L 110.65174 401.18506 C 110.77767 402.28243 111.76934 403.06994 112.86671 402.944 C 113.79068 402.838 114.51963 402.10903 114.62566 401.18506 L 145.60905 131.18692 C 145.73498 130.08955 144.94747 129.09787 143.8501 128.97194 C 143.77441 128.96326 143.69828 128.9589 143.6221 128.9589 L 81.6553 128.9589 C 80.55074 128.9589 79.655305 129.85433 79.655305 130.9589 C 79.655305 131.0351 79.65966 131.11122 79.66834 131.18692 Z"  stroke="#000000" stroke-linecap="round" stroke-linejoin="round"  stroke-width="2"  />
</g>
<g  ><ellipse cx="112.6387" cy="106.41267" rx="67.6388067101418" ry="32.0394347574356"  />
<ellipse cx="112.6387" cy="106.41267" rx="67.6388067101418" ry="32.0394347574356"  stroke="#000000" stroke-linecap="round" stroke-linejoin="round"  stroke-width="2"  />
</g>
<g  ><path d="M 131.625 143.19863 C 131.625 143.19863 117.33789 313.45318 117.38527 314.07534"  stroke="#000000" stroke-linecap="round" stroke-linejoin="round"  stroke-width="1"  />
</g>
<g  ><ellipse cx="112.6387" cy="102.85274" rx="66.4521609783849" ry="30.8527890256787"  />
<ellipse cx="112.6387" cy="102.85274" rx="66.4521609783849" ry="30.8527890256787"  stroke="#000000" stroke-linecap="round" stroke-linejoin="round"  stroke-width="2"  />
</g>
<g  ><path d="M 112.6387 102.85274 L 166.95142 96.71022 C 174.98884 109.3709 157.18783 122.38452 127.19175 125.77694 C 102.6095 128.55708 76.667955 124.0217 63.94325 114.71918 L 112.6387 102.85274 Z"  />
<path d="M 112.6387 102.85274 L 166.95142 96.71022 C 174.98884 109.3709 157.18783 122.38452 127.19175 125.77694 C 102.6095 128.55708 76.667955 124.0217 63.94325 114.71918 L 112.6387 102.85274 Z"  stroke="#000000" stroke-linecap="round" stroke-linejoin="round"  stroke-width=".5"  />
</g>
<g  ><path d="M 103.14555 140.82534 C 103.14555 140.82534 107.84474 263.61414 107.89212 264.2363"  stroke="#000000" stroke-linecap="round" stroke-linejoin="round"  stroke-width="1"  />
</g>
</g>
</g>
</g>
</g>
</g>
</g><g  fill="#fcdd07"><g class="PlaceCharge" transform="rotate(45,750,250)  translate(660,50) scale(1.25, 1.1695906432749) " >
<title>three nails</title><g transform="translate(-40.5,-67.5)"><g stroke-opacity="1" fill-opacity="1"  stroke="#000000" stroke-dasharray="none"  ><g  ><g  ><g  ><path d="M 79.66834 131.18692 L 110.65174 401.18506 C 110.77767 402.28243 111.76934 403.06994 112.86671 402.944 C 113.79068 402.838 114.51963 402.10903 114.62566 401.18506 L 145.60905 131.18692 C 145.73498 130.08955 144.94747 129.09787 143.8501 128.97194 C 143.77441 128.96326 143.69828 128.9589 143.6221 128.9589 L 81.6553 128.9589 C 80.55074 128.9589 79.655305 129.85433 79.655305 130.9589 C 79.655305 131.0351 79.65966 131.11122 79.66834 131.18692 Z"  />
<path d="M 79.66834 131.18692 L 110.65174 401.18506 C 110.77767 402.28243 111.76934 403.06994 112.86671 402.944 C 113.79068 402.838 114.51963 402.10903 114.62566 401.18506 L 145.60905 131.18692 C 145.73498 130.08955 144.94747 129.09787 143.8501 128.97194 C 143.77441 128.96326 143.69828 128.9589 143.6221 128.9589 L 81.6553 128.9589 C 80.55074 128.9589 79.655305 129.85433 79.655305 130.9589 C 79.655305 131.0351 79.65966 131.11122 79.66834 131.18692 Z"  stroke="#000000" stroke-linecap="round" stroke-linejoin="round"  stroke-width="2"  />
</g>
<g  ><ellipse cx="112.6387" cy="106.41267" rx="67.6388067101418" ry="32.0394347574356"  />
<ellipse cx="112.6387" cy="106.41267" rx="67.6388067101418" ry="32.0394347574356"  stroke="#000000" stroke-linecap="round" stroke-linejoin="round"  stroke-width="2"  />
</g>
<g  ><path d="M 131.625 143.19863 C 131.625 143.19863 117.33789 313.45318 117.38527 314.07534"  stroke="#000000" stroke-linecap="round" stroke-linejoin="round"  stroke-width="1"  />
</g>
<g  ><ellipse cx="112.6387" cy="102.85274" rx="66.4521609783849" ry="30.8527890256787"  />
<ellipse cx="112.6387" cy="102.85274" rx="66.4521609783849" ry="30.8527890256787"  stroke="#000000" stroke-linecap="round" stroke-linejoin="round"  stroke-width="2"  />
</g>
<g  ><path d="M 112.6387 102.85274 L 166.95142 96.71022 C 174.98884 109.3709 157.18783 122.38452 127.19175 125.77694 C 102.6095 128.55708 76.667955 124.0217 63.94325 114.71918 L 112.6387 102.85274 Z"  />
<path d="M 112.6387 102.85274 L 166.95142 96.71022 C 174.98884 109.3709 157.18783 122.38452 127.19175 125.77694 C 102.6095 128.55708 76.667955 124.0217 63.94325 114.71918 L 112.6387 102.85274 Z"  stroke="#000000" stroke-linecap="round" stroke-linejoin="round"  stroke-width=".5"  />
</g>
<g  ><path d="M 103.14555 140.82534 C 103.14555 140.82534 107.84474 263.61414 107.89212 264.2363"  stroke="#000000" stroke-linecap="round" stroke-linejoin="round"  stroke-width="1"  />
</g>
</g>
</g>
</g>
</g>
</g>
</g><g  fill="#fcdd07"><g class="PlaceCharge" transform=" translate(410,550) scale(1.25, 1.1695906432749) " >
<title>three nails</title><g transform="translate(-40.5,-67.5)"><g stroke-opacity="1" fill-opacity="1"  stroke="#000000" stroke-dasharray="none"  ><g  ><g  ><g  ><path d="M 79.66834 131.18692 L 110.65174 401.18506 C 110.77767 402.28243 111.76934 403.06994 112.86671 402.944 C 113.79068 402.838 114.51963 402.10903 114.62566 401.18506 L 145.60905 131.18692 C 145.73498 130.08955 144.94747 129.09787 143.8501 128.97194 C 143.77441 128.96326 143.69828 128.9589 143.6221 128.9589 L 81.6553 128.9589 C 80.55074 128.9589 79.655305 129.85433 79.655305 130.9589 C 79.655305 131.0351 79.65966 131.11122 79.66834 131.18692 Z"  />
<path d="M 79.66834 131.18692 L 110.65174 401.18506 C 110.77767 402.28243 111.76934 403.06994 112.86671 402.944 C 113.79068 402.838 114.51963 402.10903 114.62566 401.18506 L 145.60905 131.18692 C 145.73498 130.08955 144.94747 129.09787 143.8501 128.97194 C 143.77441 128.96326 143.69828 128.9589 143.6221 128.9589 L 81.6553 128.9589 C 80.55074 128.9589 79.655305 129.85433 79.655305 130.9589 C 79.655305 131.0351 79.65966 131.11122 79.66834 131.18692 Z"  stroke="#000000" stroke-linecap="round" stroke-linejoin="round"  stroke-width="2"  />
</g>
<g  ><ellipse cx="112.6387" cy="106.41267" rx="67.6388067101418" ry="32.0394347574356"  />
<ellipse cx="112.6387" cy="106.41267" rx="67.6388067101418" ry="32.0394347574356"  stroke="#000000" stroke-linecap="round" stroke-linejoin="round"  stroke-width="2"  />
</g>
<g  ><path d="M 131.625 143.19863 C 131.625 143.19863 117.33789 313.45318 117.38527 314.07534"  stroke="#000000" stroke-linecap="round" stroke-linejoin="round"  stroke-width="1"  />
</g>
<g  ><ellipse cx="112.6387" cy="102.85274" rx="66.4521609783849" ry="30.8527890256787"  />
<ellipse cx="112.6387" cy="102.85274" rx="66.4521609783849" ry="30.8527890256787"  stroke="#000000" stroke-linecap="round" stroke-linejoin="round"  stroke-width="2"  />
</g>
<g  ><path d="M 112.6387 102.85274 L 166.95142 96.71022 C 174.98884 109.3709 157.18783 122.38452 127.19175 125.77694 C 102.6095 128.55708 76.667955 124.0217 63.94325 114.71918 L 112.6387 102.85274 Z"  />
<path d="M 112.6387 102.85274 L 166.95142 96.71022 C 174.98884 109.3709 157.18783 122.38452 127.19175 125.77694 C 102.6095 128.55708 76.667955 124.0217 63.94325 114.71918 L 112.6387 102.85274 Z"  stroke="#000000" stroke-linecap="round" stroke-linejoin="round"  stroke-width=".5"  />
</g>
<g  ><path d="M 103.14555 140.82534 C 103.14555 140.82534 107.84474 263.61414 107.89212 264.2363"  stroke="#000000" stroke-linecap="round" stroke-linejoin="round"  stroke-width="1"  />
</g>
</g>
</g>
</g>
</g>
</g>
</g></g></g></g>
<g clip-path='url(#clipPath16-1)' transform='translate(500, 500) scale(0.5)' ><g><g  fill="#ffffff"><rect x='0' y='0' width='1000' height='1400'><title>Field</title></rect></g><g transform='translate(0,0)'><g><title>plain-cross</title><defs><clipPath id="clipPath10-1" >
<path d="M0,0 h1000 v1000 h-1000 v-1000 Z" />
</clipPath>
<clipPath id="clipPath12-1" >
<path d="M0,0 h1000 v1000 h-1000 v-1000 Z" />
</clipPath>
<clipPath id="clipPath14-1" >
<path d="M0,0 h1000 v1400 h-1000 v-1400 Z" />
</clipPath>
<clipPath id="clipPath16-1" >
<path d="M0,0 h1000 v1400 h-1000 v-1400 Z" />
</clipPath>
</defs><g  fill="#da1219"><path fill-rule="evenodd" d="M-100,400h500 v-500.000  h200 v500  h500 v200   h-500.000   v900   h-200.000   v-900.000   h-500.000   v-200.000  z" /></g></g></g></g></g>
<g fill='none' stroke-width="3" stroke="#696969">
<path d='M 500 0 v 500' /><path d='M 0 500 h 500' /><path d='M 500 500 v 700' /><path d='M 500 500 h 500' /></g>
</g></g><defs><mask id="mask18-1" >
<path fill="#FFFFFF" d="m 0,0 v 800 c -2.5063876,43.11115 1.2341419,84.33503 21.489586,125.13639 20.255443,40.80137 53.477613,79.98631 98.039434,115.63581 44.56181,35.6494 100.44867,67.7517 164.92346,94.7345 64.47479,26.9828 137.51639,48.8374 215.54752,64.4933 78.03113,-15.6559 151.07273,-37.5105 215.54752,-64.4933 64.47479,-26.9828 120.36165,-59.0851 164.92346,-94.7345 44.56182,-35.6495 77.78399,-74.83444 98.03943,-115.63581 C 998.76586,884.33503 1000.1453,841.93063 1000,800 V 0 Z" />
</mask>
</defs></g></svg>
