<?xml version="1.0" encoding="UTF-8"?>
<!DOCTYPE svg PUBLIC "-//W3C//DTD SVG 1.1//EN" "http://www.w3.org/Graphics/SVG/1.1/DTD/svg11.dtd">
<svg xmlns="http://www.w3.org/2000/svg" version="1.1" width="100px" height="100px" style="shape-rendering:geometricPrecision; text-rendering:geometricPrecision; image-rendering:optimizeQuality; fill-rule:evenodd; clip-rule:evenodd" xmlns:xlink="http://www.w3.org/1999/xlink">
<g><path style="opacity:0.99" fill="#020003" d="M -0.5,-0.5 C 32.8333,-0.5 66.1667,-0.5 99.5,-0.5C 99.5,32.8333 99.5,66.1667 99.5,99.5C 66.1667,99.5 32.8333,99.5 -0.5,99.5C -0.5,66.1667 -0.5,32.8333 -0.5,-0.5 Z"/></g>
<g><path style="opacity:1" fill="#672c90" d="M 30.5,8.5 C 23.0182,7.50797 15.3516,7.17464 7.5,7.5C 7.17503,15.0191 7.50837,22.3524 8.5,29.5C 8.21719,30.2891 7.71719,30.9558 7,31.5C 6.50027,23.1733 6.3336,14.84 6.5,6.5C 15.5062,6.33356 24.5062,6.50023 33.5,7C 32.4734,7.51328 31.4734,8.01328 30.5,8.5 Z"/></g>
<g><path style="opacity:1" fill="#b14cf6" d="M 30.5,8.5 C 20.558,12.7755 13.2247,19.7755 8.5,29.5C 7.50837,22.3524 7.17503,15.0191 7.5,7.5C 15.3516,7.17464 23.0182,7.50797 30.5,8.5 Z"/></g>
<g><path style="opacity:1" fill="#b24cf8" d="M 69.5,8.5 C 76.6476,7.50837 83.9809,7.17503 91.5,7.5C 91.825,15.0191 91.4916,22.3524 90.5,29.5C 85.8333,20.1667 78.8333,13.1667 69.5,8.5 Z"/></g>
<g><path style="opacity:1" fill="#8538b9" d="M 90.5,29.5 C 91.4916,22.3524 91.825,15.0191 91.5,7.5C 83.9809,7.17503 76.6476,7.50837 69.5,8.5C 68.5266,8.01328 67.5266,7.51328 66.5,7C 75.1603,6.50025 83.8269,6.33358 92.5,6.5C 92.6664,14.84 92.4997,23.1733 92,31.5C 91.2828,30.9558 90.7828,30.2891 90.5,29.5 Z"/></g>
<g><path style="opacity:1" fill="#b04bf5" d="M 42.5,10.5 C 66.3731,9.2324 81.8731,19.8991 89,42.5C 91.0301,68.3045 79.5301,84.1378 54.5,90C 38.121,91.8772 25.2877,86.0438 16,72.5C 4.65892,51.3797 8.15892,33.2131 26.5,18C 31.5424,14.6426 36.8757,12.1426 42.5,10.5 Z"/></g>
<g><path style="opacity:1" fill="#050207" d="M 39.5,16.5 C 41.2798,17.9899 41.9465,19.9899 41.5,22.5C 48.7173,22.8354 49.0506,24.0021 42.5,26C 40.9253,31.4116 39.4253,31.5782 38,26.5C 36.9887,25.6634 35.8221,25.33 34.5,25.5C 34.5,24.5 34.5,23.5 34.5,22.5C 35.8221,22.67 36.9887,22.3366 38,21.5C 38.3519,19.7525 38.8519,18.0858 39.5,16.5 Z"/></g>
<g><path style="opacity:1" fill="#060208" d="M 60.5,21.5 C 75.2978,22.4422 80.1311,29.7755 75,43.5C 69.2667,48.9315 63.1,49.5982 56.5,45.5C 53.6825,47.632 52.0159,50.4653 51.5,54C 49.8333,54.3333 48.1667,54.6667 46.5,55C 45.4495,56.3848 44.1161,57.3848 42.5,58C 40.7888,59.1332 40.2888,60.6332 41,62.5C 43.5535,64.7162 45.7201,67.2162 47.5,70C 46.9407,72.1875 45.6073,72.8542 43.5,72C 41.1255,69.961 39.1255,67.6277 37.5,65C 36.2752,64.4372 35.2752,64.7705 34.5,66C 37.3497,68.6824 40.0164,71.5157 42.5,74.5C 41.101,77.0993 39.101,78.5993 36.5,79C 33.6223,76.2913 30.9557,73.458 28.5,70.5C 26.0379,73.0531 23.7045,73.0531 21.5,70.5C 28.1295,63.0382 35.2962,56.0382 43,49.5C 43.3333,47.8333 43.6667,46.1667 44,44.5C 45.1131,43.2889 46.2798,43.2889 47.5,44.5C 48.8139,43.6872 49.9805,42.6872 51,41.5C 49.1371,32.2313 52.3037,25.5646 60.5,21.5 Z"/></g>
<g><path style="opacity:1" fill="#a447e5" d="M 60.5,27.5 C 67.287,26.7051 71.287,29.5384 72.5,36C 70.4402,41.6967 66.4402,43.6967 60.5,42C 55.232,37.1706 55.232,32.3373 60.5,27.5 Z"/></g>
<g><path style="opacity:1" fill="#070209" d="M 62.5,30.5 C 68.4877,30.664 69.821,33.164 66.5,38C 60.4034,38.1475 59.0701,35.6475 62.5,30.5 Z"/></g>
<g><path style="opacity:1" fill="#09030c" d="M 19.5,42.5 C 24.8351,42.005 27.3351,44.3384 27,49.5C 24,53.5 21,53.5 18,49.5C 17.1668,46.829 17.6668,44.4957 19.5,42.5 Z"/></g>
<g><path style="opacity:1" fill="#7d36af" d="M 21.5,46.5 C 23.337,46.6395 23.6704,47.3061 22.5,48.5C 21.7025,48.0431 21.3691,47.3764 21.5,46.5 Z"/></g>
<g><path style="opacity:1" fill="#08030b" d="M 74.5,52.5 C 81.9974,51.8038 83.9974,54.6372 80.5,61C 72.749,62.0913 70.749,59.258 74.5,52.5 Z"/></g>
<g><path style="opacity:1" fill="#7c35ad" d="M 76.5,55.5 C 79.9571,55.6672 80.2904,56.6672 77.5,58.5C 76.6143,57.675 76.281,56.675 76.5,55.5 Z"/></g>
<g><path style="opacity:1" fill="#010001" d="M 57.5,68.5 C 58.5,68.5 59.5,68.5 60.5,68.5C 59.8333,72.5 61.5,74.1667 65.5,73.5C 65.5,74.5 65.5,75.5 65.5,76.5C 64.1667,76.5 62.8333,76.5 61.5,76.5C 61.9492,78.9775 61.2825,80.9775 59.5,82.5C 57.7175,80.9775 57.0508,78.9775 57.5,76.5C 54.0429,76.3328 53.7096,75.3328 56.5,73.5C 57.4519,71.9547 57.7852,70.288 57.5,68.5 Z"/></g>
<g><path style="opacity:1" fill="#b14cf7" d="M 8.5,71.5 C 12.4744,79.8063 18.4744,86.1396 26.5,90.5C 20.3554,91.4902 14.0221,91.8235 7.5,91.5C 7.17596,84.6457 7.50929,77.979 8.5,71.5 Z"/></g>
<g><path style="opacity:1" fill="#b14cf7" d="M 90.5,72.5 C 91.4902,78.6446 91.8235,84.9779 91.5,91.5C 84.9779,91.8235 78.6446,91.4902 72.5,90.5C 80.1667,86.1667 86.1667,80.1667 90.5,72.5 Z"/></g>
<g><path style="opacity:1" fill="#8639bb" d="M 8.5,71.5 C 7.50929,77.979 7.17596,84.6457 7.5,91.5C 14.0221,91.8235 20.3554,91.4902 26.5,90.5C 27.2891,90.7828 27.9558,91.2828 28.5,92C 21.1742,92.4997 13.8409,92.6663 6.5,92.5C 6.33365,84.8261 6.50031,77.1594 7,69.5C 7.71719,70.0442 8.21719,70.7109 8.5,71.5 Z"/></g>
<g><path style="opacity:1" fill="#8438b8" d="M 72.5,90.5 C 78.6446,91.4902 84.9779,91.8235 91.5,91.5C 91.8235,84.9779 91.4902,78.6446 90.5,72.5C 90.7828,71.7109 91.2828,71.0442 92,70.5C 92.4997,77.8258 92.6663,85.1591 92.5,92.5C 85.1591,92.6663 77.8258,92.4997 70.5,92C 71.0442,91.2828 71.7109,90.7828 72.5,90.5 Z"/></g>
</svg>
