<?xml version="1.0" encoding="UTF-8" standalone="no"?>
<svg
   version="1.1"
   width="100px"
   height="100px"
   style="shape-rendering:geometricPrecision; text-rendering:geometricPrecision; image-rendering:optimizeQuality; fill-rule:evenodd; clip-rule:evenodd"
   id="svg66"
   sodipodi:docname="Lantern (1).svg"
   inkscape:version="1.1.2 (b8e25be833, 2022-02-05)"
   xmlns:inkscape="http://www.inkscape.org/namespaces/inkscape"
   xmlns:sodipodi="http://sodipodi.sourceforge.net/DTD/sodipodi-0.dtd"
   xmlns="http://www.w3.org/2000/svg"
   xmlns:svg="http://www.w3.org/2000/svg">
  <defs
     id="defs70" />
  <sodipodi:namedview
     id="namedview68"
     pagecolor="#ffffff"
     bordercolor="#666666"
     borderopacity="1.0"
     inkscape:pageshadow="2"
     inkscape:pageopacity="0.0"
     inkscape:pagecheckerboard="0"
     showgrid="false"
     inkscape:zoom="5.6568543"
     inkscape:cx="52.767843"
     inkscape:cy="107.48023"
     inkscape:window-width="2560"
     inkscape:window-height="1369"
     inkscape:window-x="-8"
     inkscape:window-y="-8"
     inkscape:window-maximized="1"
     inkscape:current-layer="svg66" />
  <g
     id="g4">
    <path
       style="opacity:0.984"
       fill="#050200"
       d="M -0.5,-0.5 C 32.8333,-0.5 66.1667,-0.5 99.5,-0.5C 99.5,32.8333 99.5,66.1667 99.5,99.5C 66.1667,99.5 32.8333,99.5 -0.5,99.5C -0.5,66.1667 -0.5,32.8333 -0.5,-0.5 Z"
       id="path2" />
  </g>
  <g
     id="g8">
    <path
       style="opacity:1"
       fill="#a69c3c"
       d="M 15.5,7.5 C 12.8333,7.5 10.1667,7.5 7.5,7.5C 7.5,9.5 7.5,11.5 7.5,13.5C 6.53178,11.3926 6.19845,9.0593 6.5,6.5C 9.7131,6.19 12.7131,6.52333 15.5,7.5 Z"
       id="path6" />
  </g>
  <g
     id="g12">
    <path
       style="opacity:1"
       fill="#f7de15"
       d="M 90.5,23.5 C 91.4924,31.3159 91.8257,39.3159 91.5,47.5C 89.076,47.1924 86.7427,47.5258 84.5,48.5C 84.6236,49.1067 84.9569,49.44 85.5,49.5C 87.2646,50.4614 89.2646,50.7947 91.5,50.5C 91.5,52.5 91.5,54.5 91.5,56.5C 90.1667,56.5 88.8333,56.5 87.5,56.5C 78.5931,55.2531 78.2597,56.7531 86.5,61C 88.4357,61.813 90.4357,62.313 92.5,62.5C 92.5,69.8333 92.5,77.1667 92.5,84.5C 88.1042,82.4658 83.7709,80.1325 79.5,77.5C 79.1667,77.8333 78.8333,78.1667 78.5,78.5C 83.1869,82.8551 87.8536,87.1885 92.5,91.5C 64.1667,91.5 35.8333,91.5 7.5,91.5C 7.5,88.1667 7.5,84.8333 7.5,81.5C 11.4687,79.8488 15.1353,77.6822 18.5,75C 17.8921,74.1301 17.0588,73.6301 16,73.5C 13.7473,74.3773 11.5806,75.3773 9.5,76.5C 7.5388,69.9131 6.87213,62.9131 7.5,55.5C 10.0593,55.8016 12.3926,55.4682 14.5,54.5C 16.7453,54.4588 17.4119,53.6255 16.5,52C 13.5184,51.502 10.5184,51.3354 7.5,51.5C 7.20528,49.2646 7.53862,47.2646 8.5,45.5C 10.7638,46.2186 13.0971,46.552 15.5,46.5C 15.5,45.5 15.5,44.5 15.5,43.5C 12.7334,43.1417 10.0667,42.475 7.5,41.5C 7.17464,33.6484 7.50797,25.9818 8.5,18.5C 10.8031,20.3247 13.1364,22.1581 15.5,24C 16.9437,24.7805 18.277,24.6139 19.5,23.5C 15.7728,19.7668 11.7728,16.4335 7.5,13.5C 7.5,11.5 7.5,9.5 7.5,7.5C 10.1667,7.5 12.8333,7.5 15.5,7.5C 18.287,9.71975 20.6203,12.3864 22.5,15.5C 23.325,16.3857 24.325,16.719 25.5,16.5C 24.9799,12.4642 22.9799,9.29749 19.5,7C 37.4969,6.50006 55.4969,6.33339 73.5,6.5C 72.361,9.42482 71.861,12.4248 72,15.5C 74.5303,12.9367 76.697,10.1033 78.5,7C 82.1667,6.33333 85.8333,6.33333 89.5,7C 86.3333,10.8333 83.1667,14.6667 80,18.5C 79.3333,19.8333 79.3333,21.1667 80,22.5C 84.3799,17.7886 88.3799,12.7886 92,7.5C 92.6667,10.5 92.6667,13.5 92,16.5C 88.3444,20.4785 85.1778,24.8119 82.5,29.5C 83.0016,30.521 83.6683,30.6877 84.5,30C 86.7341,27.9373 88.7341,25.7706 90.5,23.5 Z"
       id="path10" />
  </g>
  <g
     id="g16">
    <path
       style="opacity:1"
       fill="#0a0600"
       d="M 48.5,8.5 C 56.3233,8.95343 58.6567,12.6201 55.5,19.5C 58.4465,20.3214 61.4465,20.8214 64.5,21C 65.9434,23.3838 67.2767,25.8838 68.5,28.5C 66.2123,30.4989 63.879,32.4989 61.5,34.5C 62.6015,39.1047 65.1015,42.7713 69,45.5C 77.173,59.3152 73.673,68.8152 58.5,74C 62.7635,77.9615 65.4302,82.7948 66.5,88.5C 55.8541,89.4987 45.1874,89.832 34.5,89.5C 34.9431,83.614 37.2764,78.614 41.5,74.5C 30.3579,70.8874 25.1912,63.2208 26,51.5C 29.6763,46.9926 33.5096,42.6593 37.5,38.5C 36.7868,36.2241 36.2868,33.8907 36,31.5C 34.7011,30.91 33.8678,29.91 33.5,28.5C 34.7431,26.3093 35.5764,23.9759 36,21.5C 39.4106,20.7069 42.9106,20.2069 46.5,20C 42.141,15.2725 42.8077,11.4391 48.5,8.5 Z"
       id="path14" />
  </g>
  <g
     id="g20"
     style="fill:#f7de15;fill-opacity:1">
    <path
       style="opacity:1;fill:#f7de15;fill-opacity:1"
       fill="#bdb458"
       d="m 48.5,13.5 c 1.3333,0 2.6667,0 4,0 0,1 0,2 0,3 -1.3333,0 -2.6667,0 -4,0 0,-1 0,-2 0,-3 z"
       id="path18" />
  </g>
  <g
     id="g24">
    <path
       style="opacity:1"
       fill="#aba138"
       d="M 8.5,18.5 C 7.50797,25.9818 7.17464,33.6484 7.5,41.5C 6.17955,33.6572 6.17955,25.6572 7.5,17.5C 8.10667,17.6236 8.44001,17.9569 8.5,18.5 Z"
       id="path22" />
  </g>
  <g
     id="g28">
    <path
       style="opacity:1"
       fill="#b2a538"
       d="M 91.5,47.5 C 91.8257,39.3159 91.4924,31.3159 90.5,23.5C 90.7828,22.7109 91.2828,22.0442 92,21.5C 92.8236,30.3433 92.6569,39.0099 91.5,47.5 Z"
       id="path26" />
  </g>
  <g
     id="g32">
    <path
       style="opacity:1"
       fill="#0d0700"
       d="M 38.5,52.5 C 39.3554,49.8245 40.522,47.1579 42,44.5C 44.0396,42.6298 45.8729,40.6298 47.5,38.5C 49.5116,37.9862 51.5116,37.8195 53.5,38C 54.2931,41.4106 54.7931,44.9106 55,48.5C 56.4443,50.1554 58.2776,50.822 60.5,50.5C 61.653,56.9323 59.9863,62.4323 55.5,67C 44.5303,68.5374 38.8636,63.704 38.5,52.5 Z"
       id="path30" />
  </g>
  <g
     id="g36"
     style="fill:#f7de15;fill-opacity:1">
    <path
       style="opacity:1;fill:#f7de15;fill-opacity:1"
       fill="#f0d91e"
       d="m 57.5,31.5 c -0.1989,3.441 0.3011,6.7744 1.5,10 3.3847,3.7171 6.3847,7.7171 9,12 1.2618,4.4094 0.4285,8.2428 -2.5,11.5 -9.7441,5.6487 -19.7441,5.9821 -30,1 -5.2154,-6.1341 -5.2154,-12.3008 0,-18.5 0.9959,0.0858 1.8292,-0.2476 2.5,-1 0.4955,1.9727 0.6621,3.9727 0.5,6 0.3636,11.204 6.0303,16.0374 17,14.5 4.4863,-4.5677 6.153,-10.0677 5,-16.5 -2.2224,0.322 -4.0557,-0.3446 -5.5,-2 -0.2069,-3.5894 -0.7069,-7.0894 -1.5,-10.5 -1.9884,-0.1805 -3.9884,-0.0138 -6,0.5 -1.3333,0 -2.6667,0 -4,0 0,-2.3333 0,-4.6667 0,-7 4.6667,0 9.3333,0 14,0 z"
       id="path34" />
  </g>
  <g
     id="g40"
     style="fill:#f7de15;fill-opacity:1">
    <path
       style="opacity:1;fill:#f7de15;fill-opacity:1"
       fill="#d2c02e"
       d="m 57.5,31.5 c -4.6667,0 -9.3333,0 -14,0 0,2.3333 0,4.6667 0,7 1.3333,0 2.6667,0 4,0 -1.6271,2.1298 -3.4604,4.1298 -5.5,6 -1.478,2.6579 -2.6446,5.3245 -3.5,8 0.1621,-2.0273 -0.0045,-4.0273 -0.5,-6 -0.6708,0.7524 -1.5041,1.0858 -2.5,1 1.6271,-2.1298 3.4604,-4.1298 5.5,-6 1.2367,-3.5601 1.7367,-7.2267 1.5,-11 5.1946,-0.3205 10.1946,0.0128 15,1 z"
       id="path38" />
  </g>
  <g
     id="g44">
    <path
       style="opacity:1"
       fill="#786e17"
       d="M 8.5,45.5 C 7.53862,47.2646 7.20528,49.2646 7.5,51.5C 6.20308,49.3066 6.20308,46.9732 7.5,44.5C 8.10667,44.6236 8.44001,44.9569 8.5,45.5 Z"
       id="path42" />
  </g>
  <g
     id="g48">
    <path
       style="opacity:1"
       fill="#edd71f"
       d="M 47.5,43.5 C 48.5,43.5 49.5,43.5 50.5,43.5C 50.3354,46.5184 50.502,49.5184 51,52.5C 52.6995,53.4061 54.5328,53.7394 56.5,53.5C 56.9534,57.4257 55.6201,60.5923 52.5,63C 47.0527,63.0491 44.0527,60.2158 43.5,54.5C 44.0565,50.4924 45.3898,46.8257 47.5,43.5 Z"
       id="path46" />
  </g>
  <g
     id="g52">
    <path
       style="opacity:1"
       fill="#b7a936"
       d="M 85.5,49.5 C 87.8333,49.5 90.1667,49.5 92.5,49.5C 92.5,52.1667 92.5,54.8333 92.5,57.5C 90.5853,57.7845 88.9187,57.4511 87.5,56.5C 88.8333,56.5 90.1667,56.5 91.5,56.5C 91.5,54.5 91.5,52.5 91.5,50.5C 89.2646,50.7947 87.2646,50.4614 85.5,49.5 Z"
       id="path50" />
  </g>
  <g
     id="g56">
    <path
       style="opacity:1"
       fill="#aca137"
       d="M 14.5,54.5 C 12.3926,55.4682 10.0593,55.8016 7.5,55.5C 6.87213,62.9131 7.5388,69.9131 9.5,76.5C 8.79105,77.404 7.79105,77.7373 6.5,77.5C 6.5,69.8333 6.5,62.1667 6.5,54.5C 9.16667,54.5 11.8333,54.5 14.5,54.5 Z"
       id="path54" />
  </g>
  <g
     id="g60">
    <path
       style="opacity:1"
       fill="#edd517"
       d="M 46.5,75.5 C 52.1033,74.2423 56.4366,75.909 59.5,80.5C 53.5368,81.4959 47.5368,81.8293 41.5,81.5C 41.3505,80.448 41.5172,79.448 42,78.5C 43.6516,77.6006 45.1516,76.6006 46.5,75.5 Z"
       id="path58" />
  </g>
  <g
     id="g64">
    <path
       style="opacity:1"
       fill="#b3a637"
       d="M 7.5,81.5 C 7.5,84.8333 7.5,88.1667 7.5,91.5C 35.8333,91.5 64.1667,91.5 92.5,91.5C 64.0049,92.498 35.3382,92.8313 6.5,92.5C 6.18503,88.6286 6.51836,84.9619 7.5,81.5 Z"
       id="path62" />
  </g>
  <rect
     style="fill:#f7de15;fill-opacity:1"
     id="rect874"
     width="14.559272"
     height="4.7990923"
     x="42.847591"
     y="31.386469" />
  <rect
     style="fill:#f7de15;fill-opacity:1"
     id="rect4603"
     width="3.7258778"
     height="3.0171509"
     x="43.191833"
     y="35.719826" />
  <rect
     style="fill:#f7de15;fill-opacity:1;stroke-width:1.4617"
     id="rect4605"
     width="1.1484375"
     height="0.3359375"
     x="46.277344"
     y="38.234375" />
  <rect
     style="fill:#f7de15;fill-opacity:1"
     id="rect4709"
     width="1.7456698"
     height="5.9220195"
     x="36.846893"
     y="46.271301" />
  <rect
     style="fill:#f7de15;fill-opacity:1;stroke-width:0.988708"
     id="rect4711"
     width="1.3523487"
     height="0.82241082"
     x="35.811714"
     y="47.115089" />
  <rect
     style="fill:#f7de15;fill-opacity:1"
     id="rect4815"
     width="0.4765625"
     height="0.171875"
     x="35.5"
     y="47.5" />
</svg>
