<?xml version="1.0" encoding="UTF-8" standalone="no"?>
<svg
   width="1200"
   height="762"
   viewBox="0 0 6000 3810"
   version="1.1"
   id="svg28"
   sodipodi:docname="Evolutionist Flag.svg"
   inkscape:version="1.1.2 (b8e25be833, 2022-02-05)"
   xmlns:inkscape="http://www.inkscape.org/namespaces/inkscape"
   xmlns:sodipodi="http://sodipodi.sourceforge.net/DTD/sodipodi-0.dtd"
   xmlns="http://www.w3.org/2000/svg"
   xmlns:svg="http://www.w3.org/2000/svg">
  <defs
     id="defs32" />
  <sodipodi:namedview
     id="namedview30"
     pagecolor="#ffffff"
     bordercolor="#666666"
     borderopacity="1.0"
     inkscape:pageshadow="2"
     inkscape:pageopacity="0.0"
     inkscape:pagecheckerboard="0"
     showgrid="false"
     inkscape:zoom="0.88166667"
     inkscape:cx="599.43289"
     inkscape:cy="381.09641"
     inkscape:window-width="2560"
     inkscape:window-height="1377"
     inkscape:window-x="-8"
     inkscape:window-y="-8"
     inkscape:window-maximized="1"
     inkscape:current-layer="svg28" />
  <path
     fill="#6d2380"
     d="M0 0h6000v3810H0z"
     id="path2" />
  <path
     fill="#2c58a4"
     d="M0 0h6000v3175H0z"
     id="path4" />
  <path
     fill="#78b82a"
     d="M0 0h6000v2540H0z"
     id="path6" />
  <path
     fill="#efe524"
     d="M0 0h6000v1905H0z"
     id="path8" />
  <path
     fill="#f28917"
     d="M0 0h6000v1270H0z"
     id="path10" />
  <path
     fill="#e22016"
     d="M0 0h6000v635H0z"
     id="path12" />
  <path
     d="M0 0h1577l1764 1905-1764 1905H0z"
     id="path14" />
  <path
     fill="#945516"
     d="M0 0h1209l1764 1905-1764 1905H0z"
     id="path16" />
  <path
     fill="#7bcce5"
     d="M0 0h844l1764 1905L844 3810H0z"
     id="path18" />
  <path
     fill="#f4aec8"
     d="M0 0h477l1764 1905L477 3810H0z"
     id="path20" />
  <path
     fill="#fff"
     d="M0 0h111l1763 1905L111 3810H0z"
     id="path22" />
  <path
     fill="#fdd817"
     d="m0 278 1507 1627L0 3532z"
     id="path24" />
  <g
     id="g841"
     transform="matrix(0,8.1350001,-4.3503343,0,1552.6783,192.5828)">
    <path
       id="_p_template"
       class="s_path"
       d="" />
    <path
       class="s_path"
       d="m 10.499963,356.91011 50,-86.60254 49.999997,86.60254 z"
       id="path7"
       style="fill:#800000" />
    <path
       class="s_path"
       d="m 110.49996,356.91011 50,-86.60254 50,86.60254 z"
       id="path9"
       style="fill:#800000" />
    <path
       class="s_path"
       d="m 60.499963,270.30757 49.999997,-86.60254 50,86.60254 z"
       id="path11"
       style="fill:#800000" />
    <path
       class="s_path"
       d="m 210.49996,356.91011 50,-86.60254 50,86.60254 z"
       id="path13"
       style="fill:#000080" />
    <path
       class="s_path"
       d="m 310.49996,356.91011 50,-86.60254 50,86.60254 z"
       id="path15"
       style="fill:#000080" />
    <path
       class="s_path"
       d="m 260.49996,270.30757 50,-86.60254 50,86.60254 z"
       id="path17"
       style="fill:#000080" />
    <path
       class="s_path"
       d="m 110.49996,183.70503 50,-86.60254 50,86.60254 z"
       id="path19"
       style="fill:#008000" />
    <path
       class="s_path"
       d="m 210.49996,183.70503 50,-86.60254 50,86.60254 z"
       id="path21"
       style="fill:#008000" />
    <path
       class="s_path"
       d="m 160.49996,97.10249 50,-86.60254 50,86.60254 z"
       id="path23"
       style="fill:#008000" />
  </g>
</svg>
