<?xml version="1.0" encoding="UTF-8" standalone="no"?>
<svg
   height="660"
   width="600"
   version="1.0"
   id="svg2"
   sodipodi:version="0.32"
   inkscape:version="1.2 (dc2aedaf03, 2022-05-15)"
   sodipodi:docname="Blason_Boissy-le-Châtel.svg"
   inkscape:export-filename="/Users/olivier/Desktop/Blason Rouge/Blason_Vide_3D.png"
   inkscape:export-xdpi="144"
   inkscape:export-ydpi="144"
   inkscape:output_extension="org.inkscape.output.svg.inkscape"
   xmlns:inkscape="http://www.inkscape.org/namespaces/inkscape"
   xmlns:sodipodi="http://sodipodi.sourceforge.net/DTD/sodipodi-0.dtd"
   xmlns:xlink="http://www.w3.org/1999/xlink"
   xmlns="http://www.w3.org/2000/svg"
   xmlns:svg="http://www.w3.org/2000/svg"
   xmlns:rdf="http://www.w3.org/1999/02/22-rdf-syntax-ns#"
   xmlns:cc="http://creativecommons.org/ns#"
   xmlns:dc="http://purl.org/dc/elements/1.1/">
  <metadata
     id="metadata49">
    <rdf:RDF>
      <cc:Work
         rdf:about="">
        <dc:format>image/svg+xml</dc:format>
        <dc:type
           rdf:resource="http://purl.org/dc/dcmitype/StillImage" />
        <dc:title>Gabarit d'un blason en pointe pour le projet Blasons de Wikipédia</dc:title>
        <dc:date>03-AUG-2006</dc:date>
        <dc:creator>
          <cc:Agent>
            <dc:title>Jérôme BLUM (wagner51)</dc:title>
          </cc:Agent>
        </dc:creator>
        <cc:license
           rdf:resource="http://web.resource.org/cc/PublicDomain" />
        <dc:language>fr</dc:language>
        <dc:subject>
          <rdf:Bag>
            <rdf:li>gabarit modèle blason projet wikipédia</rdf:li>
          </rdf:Bag>
        </dc:subject>
      </cc:Work>
      <cc:License
         rdf:about="http://web.resource.org/cc/PublicDomain">
        <cc:permits
           rdf:resource="http://web.resource.org/cc/Reproduction" />
        <cc:permits
           rdf:resource="http://web.resource.org/cc/Distribution" />
        <cc:permits
           rdf:resource="http://web.resource.org/cc/DerivativeWorks" />
      </cc:License>
    </rdf:RDF>
  </metadata>
  <sodipodi:namedview
     inkscape:window-height="991"
     inkscape:window-width="1920"
     inkscape:pageshadow="2"
     inkscape:pageopacity="0.0"
     guidetolerance="10.0"
     gridtolerance="10.0"
     objecttolerance="10.0"
     borderopacity="1.0"
     bordercolor="#666666"
     pagecolor="#ffffff"
     id="base"
     showgrid="false"
     height="660px"
     inkscape:zoom="0.76818182"
     inkscape:cx="174.43787"
     inkscape:cy="388.57988"
     inkscape:window-x="-9"
     inkscape:window-y="-9"
     inkscape:current-layer="g17939"
     showguides="true"
     inkscape:guide-bbox="true"
     inkscape:showpageshadow="2"
     inkscape:pagecheckerboard="0"
     inkscape:deskcolor="#d1d1d1"
     inkscape:window-maximized="1">
    <sodipodi:guide
       orientation="1,0"
       position="300,305.91729"
       id="guide3626"
       inkscape:locked="false" />
  </sodipodi:namedview>
  <desc
     id="desc4">Flag of Canton of Valais (Wallis)</desc>
  <defs
     id="defs6">
    <inkscape:perspective
       sodipodi:type="inkscape:persp3d"
       inkscape:vp_x="0 : 330 : 1"
       inkscape:vp_y="0 : 1000 : 0"
       inkscape:vp_z="600 : 330 : 1"
       inkscape:persp3d-origin="300 : 220 : 1"
       id="perspective35" />
    <linearGradient
       id="linearGradient2893">
      <stop
         style="stop-color:white;stop-opacity:0.3137255;"
         offset="0"
         id="stop2895" />
      <stop
         id="stop2897"
         offset="0.19"
         style="stop-color:white;stop-opacity:0.25098041;" />
      <stop
         style="stop-color:#6b6b6b;stop-opacity:0.1254902;"
         offset="0.60000002"
         id="stop2901" />
      <stop
         style="stop-color:black;stop-opacity:0.1254902;"
         offset="1"
         id="stop2899" />
    </linearGradient>
    <linearGradient
       id="linearGradient2885">
      <stop
         id="stop2887"
         offset="0"
         style="stop-color:white;stop-opacity:1;" />
      <stop
         style="stop-color:white;stop-opacity:1;"
         offset="0.22857143"
         id="stop2891" />
      <stop
         id="stop2889"
         offset="1"
         style="stop-color:black;stop-opacity:1;" />
    </linearGradient>
    <linearGradient
       id="linearGradient2955">
      <stop
         id="stop2867"
         offset="0"
         style="stop-color:#fd0000;stop-opacity:1;" />
      <stop
         style="stop-color:#e77275;stop-opacity:0.65882355;"
         offset="0.5"
         id="stop2873" />
      <stop
         style="stop-color:black;stop-opacity:0.32291666;"
         offset="1"
         id="stop2959" />
    </linearGradient>
    <radialGradient
       inkscape:collect="always"
       xlink:href="#linearGradient2955"
       id="radialGradient2961"
       cx="225.52438"
       cy="218.90099"
       fx="225.52438"
       fy="218.90099"
       r="300"
       gradientTransform="matrix(-4.167939e-4,2.182867,-1.884232,-3.599562e-4,615.5972,-289.1214)"
       gradientUnits="userSpaceOnUse" />
    <polygon
       id="star"
       transform="scale(53,53)"
       points="0,-1 0.58778525,0.80901699 -0.95105652,-0.30901699 0.95105652,-0.30901699 -0.58778525,0.80901699 0,-1 " />
    <clipPath
       id="clip">
      <path
         d="M 0,-200 L 0,600 L 300,600 L 300,-200 L 0,-200 z "
         id="path10" />
    </clipPath>
    <radialGradient
       inkscape:collect="always"
       xlink:href="#linearGradient2955"
       id="radialGradient1911"
       gradientUnits="userSpaceOnUse"
       gradientTransform="matrix(-4.167939e-4,2.182867,-1.884232,-3.599562e-4,615.5972,-289.1214)"
       cx="225.52438"
       cy="218.90099"
       fx="225.52438"
       fy="218.90099"
       r="300" />
    <radialGradient
       inkscape:collect="always"
       xlink:href="#linearGradient2955"
       id="radialGradient2865"
       gradientUnits="userSpaceOnUse"
       gradientTransform="matrix(0,1.748721,-1.593162,-1.049767e-7,551.7876,-191.2898)"
       cx="225.52438"
       cy="218.90099"
       fx="225.52438"
       fy="218.90099"
       r="300" />
    <radialGradient
       inkscape:collect="always"
       xlink:href="#linearGradient2955"
       id="radialGradient2871"
       gradientUnits="userSpaceOnUse"
       gradientTransform="matrix(0,1.386237,-1.323286,-5.741131e-8,-158.0823,-109.5408)"
       cx="225.52438"
       cy="218.90099"
       fx="225.52438"
       fy="218.90099"
       r="300" />
    <radialGradient
       inkscape:collect="always"
       xlink:href="#linearGradient2893"
       id="radialGradient3163"
       gradientUnits="userSpaceOnUse"
       gradientTransform="matrix(1.353218,0,0,1.348928,-77.62935,-85.74693)"
       cx="221.44487"
       cy="226.33101"
       fx="221.44487"
       fy="226.33101"
       r="300" />
    <linearGradient
       id="linearGradient9507">
      <stop
         style="stop-color:white;stop-opacity:0.3137255"
         offset="0"
         id="stop9509" />
      <stop
         style="stop-color:white;stop-opacity:0.25098041"
         offset="0.19"
         id="stop9511" />
      <stop
         style="stop-color:#6b6b6b;stop-opacity:0.1254902"
         offset="0.60000002"
         id="stop9513" />
      <stop
         style="stop-color:black;stop-opacity:0.1254902"
         offset="1"
         id="stop9515" />
    </linearGradient>
    <linearGradient
       id="linearGradient9517">
      <stop
         style="stop-color:white;stop-opacity:1"
         offset="0"
         id="stop9519" />
      <stop
         style="stop-color:white;stop-opacity:1"
         offset="0.22857143"
         id="stop9521" />
      <stop
         style="stop-color:black;stop-opacity:1"
         offset="1"
         id="stop9523" />
    </linearGradient>
    <linearGradient
       id="linearGradient9525">
      <stop
         style="stop-color:#fd0000;stop-opacity:1"
         offset="0"
         id="stop9527" />
      <stop
         style="stop-color:#e77275;stop-opacity:0.65882355"
         offset="0.5"
         id="stop9529" />
      <stop
         style="stop-color:black;stop-opacity:0.32291666"
         offset="1"
         id="stop9531" />
    </linearGradient>
    <radialGradient
       cx="225.52438"
       cy="218.90099"
       r="300"
       fx="225.52438"
       fy="218.90099"
       id="radialGradient9533"
       xlink:href="#linearGradient2955"
       gradientUnits="userSpaceOnUse"
       gradientTransform="matrix(-4.167939e-4,2.182867,-1.884232,-3.599562e-4,615.5972,-289.1214)" />
    <polygon
       points="0,-1 0.58778525,0.80901699 -0.95105652,-0.30901699 0.95105652,-0.30901699 -0.58778525,0.80901699 0,-1 "
       transform="scale(53,53)"
       id="polygon9535" />
    <clipPath
       id="clipPath9537">
      <path
         d="M 0,-200 L 0,600 L 300,600 L 300,-200 L 0,-200 z "
         id="path9539" />
    </clipPath>
    <radialGradient
       cx="225.52438"
       cy="218.90099"
       r="300"
       fx="225.52438"
       fy="218.90099"
       id="radialGradient9541"
       xlink:href="#linearGradient2955"
       gradientUnits="userSpaceOnUse"
       gradientTransform="matrix(-4.167939e-4,2.182867,-1.884232,-3.599562e-4,615.5972,-289.1214)" />
    <radialGradient
       cx="225.52438"
       cy="218.90099"
       r="300"
       fx="225.52438"
       fy="218.90099"
       id="radialGradient9543"
       xlink:href="#linearGradient2955"
       gradientUnits="userSpaceOnUse"
       gradientTransform="matrix(0,1.748721,-1.593162,-1.049767e-7,551.7876,-191.2898)" />
    <radialGradient
       cx="225.52438"
       cy="218.90099"
       r="300"
       fx="225.52438"
       fy="218.90099"
       id="radialGradient9545"
       xlink:href="#linearGradient2955"
       gradientUnits="userSpaceOnUse"
       gradientTransform="matrix(0,1.386237,-1.323286,-5.741131e-8,-158.0823,-109.5408)" />
    <radialGradient
       cx="221.44487"
       cy="226.33101"
       r="300"
       fx="221.44487"
       fy="226.33101"
       id="radialGradient9547"
       xlink:href="#linearGradient2893"
       gradientUnits="userSpaceOnUse"
       gradientTransform="matrix(1.353218,0,0,1.348928,-77.62935,-85.74693)" />
    <radialGradient
       r="300"
       fy="226.33101"
       fx="221.44487"
       cy="226.33101"
       cx="221.44487"
       gradientTransform="matrix(1.353218,0,0,1.348928,-77.62935,-85.74693)"
       gradientUnits="userSpaceOnUse"
       id="radialGradient3567"
       xlink:href="#linearGradient2893"
       inkscape:collect="always" />
    <radialGradient
       r="300"
       fy="218.90099"
       fx="225.52438"
       cy="218.90099"
       cx="225.52438"
       gradientTransform="matrix(0,1.386237,-1.323286,-5.741131e-8,-158.0823,-109.5408)"
       gradientUnits="userSpaceOnUse"
       id="radialGradient3565"
       xlink:href="#linearGradient2955"
       inkscape:collect="always" />
    <radialGradient
       r="300"
       fy="218.90099"
       fx="225.52438"
       cy="218.90099"
       cx="225.52438"
       gradientTransform="matrix(0,1.748721,-1.593162,-1.049767e-7,551.7876,-191.2898)"
       gradientUnits="userSpaceOnUse"
       id="radialGradient3563"
       xlink:href="#linearGradient2955"
       inkscape:collect="always" />
    <radialGradient
       r="300"
       fy="218.90099"
       fx="225.52438"
       cy="218.90099"
       cx="225.52438"
       gradientTransform="matrix(-4.167939e-4,2.182867,-1.884232,-3.599562e-4,615.5972,-289.1214)"
       gradientUnits="userSpaceOnUse"
       id="radialGradient3561"
       xlink:href="#linearGradient2955"
       inkscape:collect="always" />
    <clipPath
       id="clipPath3557">
      <path
         id="path3559"
         d="M 0,-200 L 0,600 L 300,600 L 300,-200 L 0,-200 z " />
    </clipPath>
    <polygon
       points="0,-1 0.58778525,0.80901699 -0.95105652,-0.30901699 0.95105652,-0.30901699 -0.58778525,0.80901699 0,-1 "
       transform="scale(53,53)"
       id="polygon3555" />
    <radialGradient
       gradientUnits="userSpaceOnUse"
       gradientTransform="matrix(-4.167939e-4,2.182867,-1.884232,-3.599562e-4,615.5972,-289.1214)"
       r="300"
       fy="218.90099"
       fx="225.52438"
       cy="218.90099"
       cx="225.52438"
       id="radialGradient3553"
       xlink:href="#linearGradient2955"
       inkscape:collect="always" />
    <linearGradient
       id="linearGradient3545">
      <stop
         style="stop-color:#fd0000;stop-opacity:1;"
         offset="0"
         id="stop3547" />
      <stop
         id="stop3549"
         offset="0.5"
         style="stop-color:#e77275;stop-opacity:0.65882355;" />
      <stop
         id="stop3551"
         offset="1"
         style="stop-color:black;stop-opacity:0.32291666;" />
    </linearGradient>
    <linearGradient
       id="linearGradient3537">
      <stop
         style="stop-color:white;stop-opacity:1;"
         offset="0"
         id="stop3539" />
      <stop
         id="stop3541"
         offset="0.22857143"
         style="stop-color:white;stop-opacity:1;" />
      <stop
         style="stop-color:black;stop-opacity:1;"
         offset="1"
         id="stop3543" />
    </linearGradient>
    <linearGradient
       id="linearGradient3527">
      <stop
         id="stop3529"
         offset="0"
         style="stop-color:white;stop-opacity:0.3137255;" />
      <stop
         style="stop-color:white;stop-opacity:0.25098041;"
         offset="0.19"
         id="stop3531" />
      <stop
         id="stop3533"
         offset="0.60000002"
         style="stop-color:#6b6b6b;stop-opacity:0.1254902;" />
      <stop
         id="stop3535"
         offset="1"
         style="stop-color:black;stop-opacity:0.1254902;" />
    </linearGradient>
    <inkscape:perspective
       id="perspective118"
       inkscape:persp3d-origin="300 : 220 : 1"
       inkscape:vp_z="600 : 330 : 1"
       inkscape:vp_y="0 : 1000 : 0"
       inkscape:vp_x="0 : 330 : 1"
       sodipodi:type="inkscape:persp3d" />
  </defs>
  <g
     inkscape:groupmode="layer"
     id="layer3"
     inkscape:label="Fond écu"
     style="display:inline">
    <path
       id="path2855"
       style="fill:#2b5df2;fill-opacity:1;fill-rule:evenodd;stroke:none;stroke-width:1px;stroke-linecap:butt;stroke-linejoin:miter;stroke-opacity:1"
       d="M 300,658.5 C 300,658.5 598.50001,546.17969 598.50001,260.72817 C 598.50001,-24.723354 598.50001,2.1764765 598.50001,2.1764765 L 1.5,2.1764765 L 1.5,260.72817 C 1.5,546.17969 300,658.5 300,658.5 z "
       sodipodi:nodetypes="cccccc" />
    <g
       id="g17939"
       transform="matrix(0.6876197,0,0,0.6647787,-421.49261,-23.514616)"
       style="fill:#ffffff">
      <g
         id="g16827"
         style="fill:#ffffff"
         transform="translate(-673.9655,148.82383)">
        <g
           id="g29007"
           transform="matrix(6.0327716,0,0,6.6798569,1575.729,134.3413)">
	<g
   id="g29005">
		<rect
   x="-0.5"
   y="8.6330004"
   fill="none"
   width="53.506001"
   height="45.200001"
   id="rect29001" />

		<path
   d="m 23.5,19.556 c 0.873,0.252 1.688,0.533 2.438,0.844 0.75,0.313 1.374,0.814 1.875,1.5 0.498,0.688 0.718,1.406 0.656,2.156 -0.064,0.75 -0.721,0.782 -1.969,0.094 -1.251,-0.686 -2.438,-1.406 -3.563,-2.156 -1.125,-0.75 -2.877,-1.623 -5.25,-2.625 -2.751,3.375 -4.658,5.596 -5.719,6.656 -1.063,1.063 -2.063,1.969 -3,2.719 -0.937,0.75 -2.001,1.5 -3.188,2.25 -1.189,0.75 -2.221,1.251 -3.094,1.5 -0.876,0.252 -0.844,0 0.094,-0.75 0.938,-0.75 2.092,-1.717 3.469,-2.906 1.374,-1.187 2.467,-2.218 3.281,-3.094 0.812,-0.873 1.749,-1.969 2.813,-3.281 1.061,-1.313 1.843,-2.405 2.344,-3.281 0.498,-0.873 0.75,-1.688 0.75,-2.438 0,-0.75 0.437,-0.873 1.313,-0.375 0.873,0.501 1.374,1.251 1.5,2.25 2.625,0.374 4.374,0.688 5.25,0.937 z m -3.937,7.781 c -0.126,0.313 -0.252,0.844 -0.375,1.594 1.374,-0.249 2.467,-0.469 3.281,-0.656 0.812,-0.188 1.5,-0.094 2.063,0.281 0.563,0.375 0.624,0.721 0.188,1.031 -0.439,0.313 -1.031,0.533 -1.781,0.656 -0.75,0.126 -2.063,0.375 -3.938,0.75 -0.126,2.502 -0.252,4.875 -0.375,7.125 3,-0.375 5.124,-0.624 6.375,-0.75 1.248,-0.123 1.875,0 1.875,0.375 0,0.252 -0.501,0.501 -1.5,0.75 l -2.813,0.563 c -0.876,0.126 -2.531,0.469 -4.969,1.031 -2.438,0.562 -4.438,1.002 -6,1.313 -1.564,0.311 -2.813,0.718 -3.75,1.219 -0.938,0.498 -1.752,0.404 -2.438,-0.281 -0.688,-0.686 -1.219,-1.342 -1.594,-1.969 -0.375,-0.624 0.123,-0.873 1.5,-0.75 1.374,0.126 2.842,0.094 4.406,-0.094 1.562,-0.188 3.967,-0.53 7.219,-1.031 v -6.938 c -2.25,0.501 -3.908,0.782 -4.969,0.844 -1.063,0.064 -2.063,-0.094 -3,-0.469 -0.937,-0.375 -0.876,-0.656 0.188,-0.844 1.061,-0.188 2.25,-0.404 3.563,-0.656 1.313,-0.249 2.719,-0.563 4.219,-0.938 0,-1.374 -0.064,-2.373 -0.188,-3 -1.5,0.126 -2.563,0 -3.188,-0.375 -0.627,-0.375 -0.501,-0.656 0.375,-0.844 0.873,-0.188 1.843,-0.404 2.906,-0.656 1.061,-0.249 2.279,-0.592 3.656,-1.031 1.374,-0.437 2.312,-0.375 2.813,0.188 0.498,0.563 0.123,1.031 -1.125,1.406 -1.251,0.375 -2.314,0.627 -3.188,0.75 0.499,0.627 0.687,1.095 0.564,1.406 z M 10.375,15.618 c 0,1.251 0.375,1.532 1.125,0.844 0.75,-0.686 1.811,-1.717 3.188,-3.094 -1.125,-2.124 -1.313,-3.094 -0.563,-2.906 0.75,0.188 1.468,0.563 2.156,1.125 0.686,0.563 1.093,1.189 1.219,1.875 0.123,0.688 0.029,1.283 -0.281,1.781 -0.313,0.501 -0.97,0.188 -1.969,-0.938 -1.626,2.127 -2.657,3.563 -3.094,4.313 -0.439,0.75 -0.97,1.688 -1.594,2.813 -0.627,1.125 -1.189,1.377 -1.688,0.75 C 8.373,21.557 8.06,21.027 7.936,20.587 7.81,20.15 7.872,19.682 8.124,19.181 8.373,18.683 8.561,17.868 8.687,16.743 8.81,15.618 8.687,14.305 8.312,12.805 7.937,11.305 7.53,10.274 7.094,9.712 6.654,9.149 6.687,8.868 7.188,8.868 7.686,8.868 8.249,8.962 8.876,9.149 9.5,9.337 10.156,9.275 10.845,8.961 11.529,8.651 12.25,8.057 13,7.181 13.75,6.308 14.187,5.464 14.313,4.65 14.436,3.838 14.998,3.712 16,4.274 c 0.999,0.563 1.655,1.063 1.969,1.5 0.311,0.439 0.123,0.782 -0.563,1.031 -0.688,0.252 -1.532,0.656 -2.531,1.219 -1.002,0.563 -2.563,1.406 -4.688,2.531 0.124,2.128 0.188,3.815 0.188,5.063 z m 3.469,19.781 c 0.311,0.688 0.311,1.313 0,1.875 -0.313,0.563 -0.782,0.595 -1.406,0.094 -0.627,-0.498 -1.219,-1.28 -1.781,-2.344 -0.563,-1.061 -0.281,-1.406 0.844,-1.031 1.247,0.252 2.029,0.721 2.343,1.406 z m 9.469,-25.218 c -0.252,0.375 -0.469,0.844 -0.656,1.406 -0.187,0.562 -0.627,1.438 -1.313,2.625 -0.688,1.189 -1.471,2.127 -2.344,2.813 -0.876,0.688 -1.002,0.469 -0.375,-0.656 0.624,-1.125 1.125,-2.405 1.5,-3.844 C 20.5,11.089 20.688,9.932 20.688,9.056 20.061,9.308 19.405,9.182 18.719,8.681 18.031,8.183 18.156,7.869 19.094,7.743 20.032,7.62 21.28,7.339 22.844,6.899 c 1.562,-0.437 2.561,-0.844 3,-1.219 0.437,-0.375 0.938,-0.469 1.5,-0.281 0.562,0.188 1.187,0.533 1.875,1.031 0.686,0.501 0.779,1.096 0.281,1.781 -0.501,0.688 -0.876,1.875 -1.125,3.563 -0.252,1.688 -0.533,2.971 -0.844,3.844 -0.313,0.876 -0.814,1.688 -1.5,2.438 -0.688,0.75 -1.283,0.656 -1.781,-0.281 C 23.749,16.837 23.187,16.12 22.562,15.619 21.936,15.12 22,14.962 22.75,15.149 c 0.75,0.187 1.342,0.22 1.781,0.094 0.437,-0.123 0.873,-0.873 1.313,-2.25 0.437,-1.374 0.686,-2.531 0.75,-3.469 C 26.656,8.586 26.468,8.056 26.031,7.93 25.592,7.807 24.499,7.994 22.75,8.493 c 0.624,0.75 0.812,1.313 0.563,1.688 z m 1.5,21.656 c 1.125,0.938 1.374,1.5 0.75,1.688 -0.627,0.188 -1.406,0.627 -2.344,1.313 -0.938,0.688 -1.781,1.189 -2.531,1.5 -0.75,0.313 -0.844,0.188 -0.281,-0.375 0.563,-0.563 1.093,-1.219 1.594,-1.969 0.498,-0.75 0.812,-1.5 0.938,-2.25 0.122,-0.874 0.749,-0.845 1.874,0.093 z m 9.375,-17.813 c 0.624,0.439 0.779,1.063 0.469,1.875 -0.313,0.814 -0.533,2.282 -0.656,4.406 l -0.188,6.188 c 0,2.001 -0.094,3.501 -0.281,4.5 -0.188,1.002 -0.439,1.564 -0.75,1.688 -0.313,0.126 -0.721,-0.311 -1.219,-1.313 -0.501,-0.999 -0.563,-2.124 -0.188,-3.375 0.375,-1.248 0.592,-3.592 0.656,-7.031 0.062,-3.437 -0.188,-5.719 -0.75,-6.844 -0.562,-1.125 -0.407,-1.5 0.469,-1.125 0.999,0.252 1.811,0.595 2.438,1.031 z m 7.593,-8.625 c 0.812,0.563 0.999,1.251 0.563,2.063 -0.439,0.814 -0.627,3.158 -0.563,7.031 0.062,3.876 0.155,7.626 0.281,11.25 0.123,3.627 0.217,6.533 0.281,8.719 0.062,2.188 -0.064,4.157 -0.375,5.906 -0.313,1.749 -0.844,3.029 -1.594,3.844 -0.75,0.812 -1.251,0.999 -1.5,0.563 -0.252,-0.439 -0.563,-0.97 -0.938,-1.594 -0.375,-0.627 -0.876,-1.283 -1.5,-1.969 -0.627,-0.686 -1.313,-1.406 -2.063,-2.156 -0.75,-0.75 -0.252,-0.812 1.5,-0.188 1.749,0.627 2.813,0.469 3.188,-0.469 0.375,-0.938 0.563,-3.592 0.563,-7.969 0,-4.374 -0.032,-8.561 -0.094,-12.563 -0.064,-3.999 -0.188,-6.53 -0.375,-7.594 C 38.967,9.212 38.748,8.181 38.499,7.179 38.247,6.18 37.936,5.304 37.561,4.554 c -0.375,-0.75 0,-0.938 1.125,-0.563 1.25,0.377 2.281,0.846 3.095,1.408 z"
   id="path29003" />

	</g>

</g>
      </g>
      <g
         id="g31388"
         style="fill:#ffffff"
         transform="matrix(0.87592656,0,0,0.87592656,293.91571,6.8624708)">
        <g
           transform="translate(642.45702,-12.121831)"
           id="g12911"
           style="display:inline;fill:#ffffff">
          <path
             style="fill:#ffffff;fill-opacity:1;fill-rule:evenodd;stroke:#000000;stroke-width:2;stroke-linecap:butt;stroke-linejoin:miter;stroke-miterlimit:4;stroke-dasharray:none;stroke-opacity:1"
             d="m 501.03566,278.58533 v 0 c 2.67895,-4.70946 30.64774,-7.01693 39.39595,0 0.60048,8.28445 -31.74442,14.4218 -39.39595,0 z"
             id="path4174"
             sodipodi:nodetypes="cccc" />
          <path
             style="fill:#ffffff;fill-opacity:1;fill-rule:evenodd;stroke:#000000;stroke-width:2;stroke-linecap:butt;stroke-linejoin:miter;stroke-miterlimit:4;stroke-dasharray:none;stroke-opacity:1"
             d="m 490,875.93361 v 28.92857 c 22.91481,4.81586 40.83061,3.72608 60.89811,0 v -28.92857 c -19.11825,8.76509 -41.48463,11.70151 -60.89811,0 z"
             id="path5145"
             sodipodi:nodetypes="ccccc" />
          <path
             style="fill:#ffffff;fill-opacity:1;fill-rule:evenodd;stroke:#000000;stroke-width:2;stroke-linecap:butt;stroke-linejoin:miter;stroke-miterlimit:4;stroke-dasharray:none;stroke-opacity:1"
             d="m 490.26786,874.86218 c 12.47024,13.34047 40.39216,13.18191 59.55882,2.27284 12.45622,-7.18489 -63.37507,-9.34659 -59.55882,-2.27284 z"
             id="path6116"
             sodipodi:nodetypes="ccc" />
          <path
             style="fill:#ffffff;fill-opacity:1;fill-rule:evenodd;stroke:#000000;stroke-width:2;stroke-linecap:butt;stroke-linejoin:miter;stroke-miterlimit:4;stroke-dasharray:none;stroke-opacity:1"
             d="m 490,292.36218 c 20.95238,15.06755 41.90476,10.46872 62.85714,0 -25.84451,-14.67638 -45.5449,-10.92042 -62.85714,0 z"
             id="path7087"
             sodipodi:nodetypes="ccc" />
          <path
             style="fill:#ffffff;fill-opacity:1;fill-rule:evenodd;stroke:#000000;stroke-width:2;stroke-linecap:butt;stroke-linejoin:miter;stroke-miterlimit:4;stroke-dasharray:none;stroke-opacity:1"
             d="m 501,279.09041 c 25.38136,2.42539 37.25169,0.0264 39.39595,0 v 597.50523 c -12.32955,5.45555 -25.64272,6.79961 -39.39595,0 z"
             id="path3203"
             sodipodi:nodetypes="ccccc" />
          <path
             style="fill:#ffffff;fill-opacity:1;fill-rule:evenodd;stroke:#000000;stroke-width:2;stroke-linecap:butt;stroke-linejoin:miter;stroke-miterlimit:4;stroke-dasharray:none;stroke-opacity:1"
             d="m 416.42857,320.93361 c 11.42857,-3.56864 22.85715,-12.23614 34.28572,-21.42857 13.03606,13.84015 31.60453,10.43991 38.57142,-6.42857 24.84823,13.67864 43.58351,8.20878 62.77049,-0.75761 33.18796,-12.58868 30.64344,-55.20698 37.9438,-89.24239 120.8007,20.23809 79.52757,256.90476 -10.71429,272.85714 1.60764,-49.14151 12.72095,-105.07278 -23.57142,-127.14286 -20.57993,6.83165 -42.32435,10.1698 -68.57143,0 -1.08998,-25.46894 -27.86775,-15.77796 -36.42857,-4.28571 -11.42857,-10.98473 -22.85715,-18.28974 -34.28572,-23.57143 z"
             id="path2231"
             sodipodi:nodetypes="cccccccccc" />
          <path
             style="fill:#ffffff;fill-opacity:1;fill-rule:evenodd;stroke:#000000;stroke-width:2;stroke-linecap:butt;stroke-linejoin:miter;stroke-miterlimit:4;stroke-dasharray:none;stroke-opacity:1"
             d="m 500,907.36218 c 13.15476,1.45093 26.30953,1.40607 39.46429,0 -4.17393,5.30923 -31.73209,7.87216 -39.46429,0 z"
             id="path8058"
             sodipodi:nodetypes="ccc" />
          <ellipse
             style="fill:#ffffff;fill-opacity:1;fill-rule:evenodd;stroke:#000000;stroke-width:2;stroke-linecap:butt;stroke-linejoin:miter;stroke-miterlimit:4;stroke-dasharray:none;stroke-opacity:1"
             id="path9029"
             transform="translate(2.6143997,3.357169)"
             cx="516.96429"
             cy="893.3443"
             rx="6.9642859"
             ry="5.625" />
          <path
             style="fill:#ffffff;fill-opacity:1;fill-rule:evenodd;stroke:#000000;stroke-width:2;stroke-linecap:butt;stroke-linejoin:miter;stroke-miterlimit:4;stroke-dasharray:none;stroke-opacity:1"
             d="m 490,885.57647 c -8.32606,1.36405 -5.30894,9.2369 0,9.64286 z"
             id="path10000"
             sodipodi:nodetypes="ccc" />
          <path
             sodipodi:nodetypes="ccc"
             id="path11940"
             d="m 550.79528,886.11218 c 8.32606,1.36405 5.30894,9.2369 0,9.64286 z"
             style="fill:#ffffff;fill-opacity:1;fill-rule:evenodd;stroke:#000000;stroke-width:2;stroke-linecap:butt;stroke-linejoin:miter;stroke-miterlimit:4;stroke-dasharray:none;stroke-opacity:1" />
        </g>
        <g
           transform="translate(644.10902,-12.667516)"
           style="display:inline;fill:#ffffff;fill-opacity:1;stroke:#000000;stroke-width:2;stroke-miterlimit:4;stroke-dasharray:none;stroke-opacity:1"
           id="g13900">
          <path
             style="fill:#ffffff;fill-opacity:1;fill-rule:evenodd;stroke:#000000;stroke-width:2;stroke-linecap:butt;stroke-linejoin:miter;stroke-miterlimit:4;stroke-dasharray:none;stroke-opacity:1"
             d="m 449.0128,308.38483 -5.30329,4.54569 5.3033,4.43166 5.30329,-4.43166 z"
             id="path12923"
             sodipodi:nodetypes="ccccc" />
          <path
             sodipodi:nodetypes="ccccc"
             id="path12925"
             d="m 442.19427,316.71859 -5.30329,4.54569 5.3033,4.43166 5.30329,-4.43166 z"
             style="fill:#ffffff;fill-opacity:1;fill-rule:evenodd;stroke:#000000;stroke-width:2;stroke-linecap:butt;stroke-linejoin:miter;stroke-miterlimit:4;stroke-dasharray:none;stroke-opacity:1" />
          <path
             style="fill:#ffffff;fill-opacity:1;fill-rule:evenodd;stroke:#000000;stroke-width:2;stroke-linecap:butt;stroke-linejoin:miter;stroke-miterlimit:4;stroke-dasharray:none;stroke-opacity:1"
             d="m 455.80329,316.71859 -5.30329,4.54569 5.3033,4.43166 5.30329,-4.43166 z"
             id="path12927"
             sodipodi:nodetypes="ccccc" />
          <path
             sodipodi:nodetypes="ccccc"
             id="path12929"
             d="m 449.1967,325.05235 -5.30329,4.54569 5.3033,4.43166 5.30329,-4.43166 z"
             style="fill:#ffffff;fill-opacity:1;fill-rule:evenodd;stroke:#000000;stroke-width:2;stroke-linecap:butt;stroke-linejoin:miter;stroke-miterlimit:4;stroke-dasharray:none;stroke-opacity:1" />
        </g>
        <path
           style="display:inline;fill:#ffffff;fill-rule:evenodd;stroke:#000000;stroke-width:1px;stroke-linecap:butt;stroke-linejoin:miter;stroke-opacity:1"
           d="m 1224.2858,454.50503 c 83.0633,-29.68454 108.7724,-229.68321 8.5714,-257.14285"
           id="path14877"
           sodipodi:nodetypes="cc" />
        <path
           sodipodi:nodetypes="ccc"
           id="path14879"
           d="m 1232.8571,197.27552 c 2.5087,6.6994 15.6771,67.69046 -37.0562,87.85714 v 0"
           style="display:inline;fill:#2b5df2;fill-rule:evenodd;stroke:#000000;stroke-width:1px;stroke-linecap:butt;stroke-linejoin:miter;stroke-opacity:1" />
        <path
           id="path14883"
           d="m 1131.4286,280.21932 v 55.71429"
           style="display:inline;fill:#ffffff;fill-rule:evenodd;stroke:#000000;stroke-width:2;stroke-linecap:butt;stroke-linejoin:miter;stroke-miterlimit:4;stroke-dasharray:none;stroke-opacity:1" />
        <path
           id="path14885"
           d="m 1195.5155,279.09041 1.5153,57.57869"
           style="display:inline;fill:#ffffff;fill-rule:evenodd;stroke:#000000;stroke-width:2;stroke-linecap:butt;stroke-linejoin:miter;stroke-miterlimit:4;stroke-dasharray:none;stroke-opacity:1" />
        <path
           style="fill:#ffffff;fill-opacity:1;fill-rule:evenodd;stroke:#000000;stroke-width:2;stroke-linecap:butt;stroke-linejoin:miter;stroke-miterlimit:4;stroke-dasharray:none;stroke-opacity:1"
           d="m 1169.2858,265.21933 c 7.1428,-25.75592 12.1428,-41.19561 19.2856,-55.71429 -14.2857,-44.71343 -16.7857,-88.49749 -26.7857,-138.214286 -6.7852,42.857136 -11.6776,95.357146 -28.9286,138.214286 7.1429,11.38695 14.2857,33.0901 21.4286,55.71429"
           id="path16891"
           sodipodi:nodetypes="ccccc" />
        <path
           style="fill:#ffffff;fill-rule:evenodd;stroke:#000000;stroke-width:1px;stroke-linecap:butt;stroke-linejoin:miter;stroke-opacity:1"
           d="m 1161.4286,263.07647 0.3788,-176.915703"
           id="path17864"
           sodipodi:nodetypes="cc" />
      </g>
      <g
         transform="matrix(-0.87592689,0,0,0.87592689,1811.4062,6.8625911)"
         id="g17891"
         style="fill:#ffffff">
        <g
           id="g17893"
           style="fill:#ffffff">
          <g
             id="g17895"
             transform="translate(642.45702,-12.121831)"
             style="fill:#ffffff">
            <path
               sodipodi:nodetypes="cccc"
               id="path17897"
               d="m 501.03566,278.58533 v 0 c 2.67895,-4.70946 30.64774,-7.01693 39.39595,0 0.60048,8.28445 -31.74442,14.4218 -39.39595,0 z"
               style="fill:#ffffff;fill-opacity:1;fill-rule:evenodd;stroke:#000000;stroke-width:2;stroke-linecap:butt;stroke-linejoin:miter;stroke-miterlimit:4;stroke-dasharray:none;stroke-opacity:1" />
            <path
               sodipodi:nodetypes="ccccc"
               id="path17899"
               d="m 490,875.93361 v 28.92857 c 22.91481,4.81586 40.83061,3.72608 60.89811,0 v -28.92857 c -19.11825,8.76509 -41.48463,11.70151 -60.89811,0 z"
               style="fill:#ffffff;fill-opacity:1;fill-rule:evenodd;stroke:#000000;stroke-width:2;stroke-linecap:butt;stroke-linejoin:miter;stroke-miterlimit:4;stroke-dasharray:none;stroke-opacity:1" />
            <path
               sodipodi:nodetypes="ccc"
               id="path17901"
               d="m 490.26786,874.86218 c 12.47024,13.34047 40.39216,13.18191 59.55882,2.27284 12.45622,-7.18489 -63.37507,-9.34659 -59.55882,-2.27284 z"
               style="fill:#ffffff;fill-opacity:1;fill-rule:evenodd;stroke:#000000;stroke-width:2;stroke-linecap:butt;stroke-linejoin:miter;stroke-miterlimit:4;stroke-dasharray:none;stroke-opacity:1" />
            <path
               sodipodi:nodetypes="ccc"
               id="path17903"
               d="m 490,292.36218 c 20.95238,15.06755 41.90476,10.46872 62.85714,0 -25.84451,-14.67638 -45.5449,-10.92042 -62.85714,0 z"
               style="fill:#ffffff;fill-opacity:1;fill-rule:evenodd;stroke:#000000;stroke-width:2;stroke-linecap:butt;stroke-linejoin:miter;stroke-miterlimit:4;stroke-dasharray:none;stroke-opacity:1" />
            <path
               sodipodi:nodetypes="ccccc"
               id="path17905"
               d="m 501,279.09041 c 25.38136,2.42539 37.25169,0.0264 39.39595,0 v 597.50523 c -12.32955,5.45555 -25.64272,6.79961 -39.39595,0 z"
               style="fill:#ffffff;fill-opacity:1;fill-rule:evenodd;stroke:#000000;stroke-width:2;stroke-linecap:butt;stroke-linejoin:miter;stroke-miterlimit:4;stroke-dasharray:none;stroke-opacity:1" />
            <path
               sodipodi:nodetypes="cccccccccc"
               id="path17907"
               d="m 416.42857,320.93361 c 11.42857,-3.56864 22.85715,-12.23614 34.28572,-21.42857 13.03606,13.84015 31.60453,10.43991 38.57142,-6.42857 24.84823,13.67864 43.58351,8.20878 62.77049,-0.75761 33.18796,-12.58868 30.64344,-55.20698 37.9438,-89.24239 120.8007,20.23809 79.52757,256.90476 -10.71429,272.85714 1.60764,-49.14151 12.72095,-105.07278 -23.57142,-127.14286 -20.57993,6.83165 -42.32435,10.1698 -68.57143,0 -1.08998,-25.46894 -27.86775,-15.77796 -36.42857,-4.28571 -11.42857,-10.98473 -22.85715,-18.28974 -34.28572,-23.57143 z"
               style="fill:#ffffff;fill-opacity:1;fill-rule:evenodd;stroke:#000000;stroke-width:2;stroke-linecap:butt;stroke-linejoin:miter;stroke-miterlimit:4;stroke-dasharray:none;stroke-opacity:1" />
            <path
               sodipodi:nodetypes="ccc"
               id="path17909"
               d="m 500,907.36218 c 13.15476,1.45093 26.30953,1.40607 39.46429,0 -4.17393,5.30923 -31.73209,7.87216 -39.46429,0 z"
               style="fill:#ffffff;fill-opacity:1;fill-rule:evenodd;stroke:#000000;stroke-width:2;stroke-linecap:butt;stroke-linejoin:miter;stroke-miterlimit:4;stroke-dasharray:none;stroke-opacity:1" />
            <ellipse
               transform="translate(2.6143997,3.357169)"
               id="path17911"
               style="fill:#ffffff;fill-opacity:1;fill-rule:evenodd;stroke:#000000;stroke-width:2;stroke-linecap:butt;stroke-linejoin:miter;stroke-miterlimit:4;stroke-dasharray:none;stroke-opacity:1"
               cx="516.96429"
               cy="893.3443"
               rx="6.9642859"
               ry="5.625" />
            <path
               sodipodi:nodetypes="ccc"
               id="path17913"
               d="m 490,885.57647 c -8.32606,1.36405 -5.30894,9.2369 0,9.64286 z"
               style="fill:#ffffff;fill-opacity:1;fill-rule:evenodd;stroke:#000000;stroke-width:2;stroke-linecap:butt;stroke-linejoin:miter;stroke-miterlimit:4;stroke-dasharray:none;stroke-opacity:1" />
            <path
               style="fill:#ffffff;fill-opacity:1;fill-rule:evenodd;stroke:#000000;stroke-width:2;stroke-linecap:butt;stroke-linejoin:miter;stroke-miterlimit:4;stroke-dasharray:none;stroke-opacity:1"
               d="m 550.79528,886.11218 c 8.32606,1.36405 5.30894,9.2369 0,9.64286 z"
               id="path17915"
               sodipodi:nodetypes="ccc" />
          </g>
          <g
             id="g17917"
             style="fill:#ffffff;fill-opacity:1;stroke:#000000;stroke-width:2;stroke-miterlimit:4;stroke-dasharray:none;stroke-opacity:1"
             transform="translate(644.10902,-12.667517)">
            <path
               sodipodi:nodetypes="ccccc"
               id="path17919"
               d="m 449.0128,308.38483 -5.30329,4.54569 5.3033,4.43166 5.30329,-4.43166 z"
               style="fill:#ffffff;fill-opacity:1;fill-rule:evenodd;stroke:#000000;stroke-width:2;stroke-linecap:butt;stroke-linejoin:miter;stroke-miterlimit:4;stroke-dasharray:none;stroke-opacity:1" />
            <path
               style="fill:#ffffff;fill-opacity:1;fill-rule:evenodd;stroke:#000000;stroke-width:2;stroke-linecap:butt;stroke-linejoin:miter;stroke-miterlimit:4;stroke-dasharray:none;stroke-opacity:1"
               d="m 442.19427,316.71859 -5.30329,4.54569 5.3033,4.43166 5.30329,-4.43166 z"
               id="path17921"
               sodipodi:nodetypes="ccccc" />
            <path
               sodipodi:nodetypes="ccccc"
               id="path17923"
               d="m 455.80329,316.71859 -5.30329,4.54569 5.3033,4.43166 5.30329,-4.43166 z"
               style="fill:#ffffff;fill-opacity:1;fill-rule:evenodd;stroke:#000000;stroke-width:2;stroke-linecap:butt;stroke-linejoin:miter;stroke-miterlimit:4;stroke-dasharray:none;stroke-opacity:1" />
            <path
               style="fill:#ffffff;fill-opacity:1;fill-rule:evenodd;stroke:#000000;stroke-width:2;stroke-linecap:butt;stroke-linejoin:miter;stroke-miterlimit:4;stroke-dasharray:none;stroke-opacity:1"
               d="m 449.1967,325.05235 -5.30329,4.54569 5.3033,4.43166 5.30329,-4.43166 z"
               id="path17925"
               sodipodi:nodetypes="ccccc" />
          </g>
          <path
             sodipodi:nodetypes="cc"
             id="path17927"
             d="m 1224.2858,454.50503 c 83.0633,-29.68454 108.7724,-229.68321 8.5714,-257.14285"
             style="fill:#ffffff;fill-rule:evenodd;stroke:#000000;stroke-width:1px;stroke-linecap:butt;stroke-linejoin:miter;stroke-opacity:1" />
          <path
             style="fill:#2b5df2;fill-rule:evenodd;stroke:#000000;stroke-width:1px;stroke-linecap:butt;stroke-linejoin:miter;stroke-opacity:1"
             d="m 1232.8571,197.27552 c 2.5087,6.6994 15.6771,67.69046 -37.0562,87.85714 v 0"
             id="path17929"
             sodipodi:nodetypes="ccc" />
          <path
             style="fill:#ffffff;fill-rule:evenodd;stroke:#000000;stroke-width:2;stroke-linecap:butt;stroke-linejoin:miter;stroke-miterlimit:4;stroke-dasharray:none;stroke-opacity:1"
             d="m 1131.4286,280.21932 v 55.71429"
             id="path17931" />
          <path
             style="fill:#ffffff;fill-rule:evenodd;stroke:#000000;stroke-width:2;stroke-linecap:butt;stroke-linejoin:miter;stroke-miterlimit:4;stroke-dasharray:none;stroke-opacity:1"
             d="m 1195.5155,279.09041 1.5153,57.57869"
             id="path17933" />
        </g>
        <path
           sodipodi:nodetypes="ccccc"
           id="path17935"
           d="m 1169.2858,265.21933 c 7.1428,-25.75592 12.1428,-41.19561 19.2856,-55.71429 -14.2857,-44.71343 -16.7857,-88.49749 -26.7857,-138.214286 -6.7852,42.857136 -11.6776,95.357146 -28.9286,138.214286 7.1429,11.38695 14.2857,33.0901 21.4286,55.71429"
           style="fill:#ffffff;fill-opacity:1;fill-rule:evenodd;stroke:#000000;stroke-width:2;stroke-linecap:butt;stroke-linejoin:miter;stroke-miterlimit:4;stroke-dasharray:none;stroke-opacity:1" />
        <path
           sodipodi:nodetypes="cc"
           id="path17937"
           d="m 1161.4286,263.07647 0.3788,-176.915703"
           style="fill:#ffffff;fill-rule:evenodd;stroke:#000000;stroke-width:1px;stroke-linecap:butt;stroke-linejoin:miter;stroke-opacity:1" />
      </g>
    </g>
  </g>
  <g
     inkscape:groupmode="layer"
     id="layer4"
     inkscape:label="Meubles"
     sodipodi:insensitive="true" />
  <g
     inkscape:groupmode="layer"
     id="layer2"
     inkscape:label="Reflet final"
     sodipodi:insensitive="true">
    <path
       sodipodi:nodetypes="cccccc"
       d="M 300.00001,658.5 C 300.00001,658.5 598.50001,546.17969 598.50001,260.72817 C 598.50001,-24.723334 598.50001,2.1764865 598.50001,2.1764865 L 1.5,2.1764865 L 1.5,260.72817 C 1.5,546.17969 300.00001,658.5 300.00001,658.5 z "
       style="opacity:1;fill:url(#radialGradient3163);fill-opacity:1;fill-rule:evenodd;stroke:none;stroke-width:1px;stroke-linecap:butt;stroke-linejoin:miter;stroke-opacity:1"
       id="path2875"
       inkscape:export-xdpi="144"
       inkscape:export-ydpi="144" />
  </g>
  <g
     inkscape:groupmode="layer"
     id="layer1"
     inkscape:label="Contour final"
     sodipodi:insensitive="true">
    <path
       sodipodi:nodetypes="cccccc"
       d="M 299.99999,658.50028 C 299.99999,658.50028 1.5,546.17992 1.5,260.72828 C 1.5,-24.723336 1.5,2.1764957 1.5,2.1764957 L 598.49999,2.1764957 L 598.49999,260.72828 C 598.49999,546.17992 299.99999,658.50028 299.99999,658.50028 z "
       style="opacity:1;fill:none;fill-opacity:1;fill-rule:evenodd;stroke:#000000;stroke-width:3.00000048;stroke-linecap:butt;stroke-linejoin:miter;stroke-miterlimit:4;stroke-dasharray:none;stroke-opacity:1"
       id="path1411"
       inkscape:export-xdpi="144"
       inkscape:export-ydpi="144" />
  </g>
</svg>
