<?xml version="1.0" encoding="UTF-8" standalone="no"?>
<svg
   width="2655.8379"
   height="2102"
   version="1.1"
   id="svg375"
   sodipodi:docname="Mediterranean Genealogies.svg"
   inkscape:version="1.4 (86a8ad7, 2024-10-11)"
   xmlns:inkscape="http://www.inkscape.org/namespaces/inkscape"
   xmlns:sodipodi="http://sodipodi.sourceforge.net/DTD/sodipodi-0.dtd"
   xmlns:xlink="http://www.w3.org/1999/xlink"
   xmlns="http://www.w3.org/2000/svg"
   xmlns:svg="http://www.w3.org/2000/svg">
  <defs
     id="defs376">
    <defs
       id="defs375">
      <path
         d="M 370,-1490 V 0 H 180 v -1490 h 190"
         id="O" />
      <path
         d="m 158,0 v -1118 h 174 v 172 h 12 c 41,-113 157,-188 290,-188 26,0 70,2 91,3 v 181 c -11,-2 -60,-10 -108,-10 -161,0 -279,109 -279,260 V 0 H 158"
         id="P" />
      <path
         d="M 140,405 186,249 C 306,285 391,268 449,99 L 481,6 54,-1118 h 197 c 107,313 237,620 324,950 87,-331 219,-637 326,-950 h 196 L 606,167 C 538,345 430,426 272,426 208,426 159,414 140,405"
         id="Q" />
      <path
         d="m 798,-719 v 166 H 144 v -166 h 654"
         id="R" />
      <path
         d="M 338,-670 V 0 H 158 v -1490 h 180 v 566 c 73,-149 190,-208 336,-208 226,0 379,139 379,422 V 0 H 872 v -695 c 0,-172 -96,-275 -252,-275 -161,0 -282,109 -282,300"
         id="S" />
      <path
         d="m 613,24 c -304,0 -509,-231 -509,-576 0,-350 205,-580 509,-580 305,0 511,230 511,580 0,345 -206,576 -511,576 z m 0,-161 c 226,0 329,-195 329,-415 0,-222 -103,-419 -329,-419 -223,0 -326,196 -326,419 0,220 103,415 326,415"
         id="T" />
      <g
         id="a">
        <use
           transform="scale(0.01085069)"
           xlink:href="#O"
           id="use130" />
        <use
           transform="matrix(0.01085069,0,0,0.01085069,5.9678819,0)"
           xlink:href="#P"
           id="use131" />
        <use
           transform="matrix(0.01085069,0,0,0.01085069,14.68099,0)"
           xlink:href="#Q"
           id="use132" />
        <use
           transform="matrix(0.01085069,0,0,0.01085069,26.291233,0)"
           xlink:href="#R"
           id="use133" />
        <use
           transform="matrix(0.01085069,0,0,0.01085069,36.512587,0)"
           xlink:href="#S"
           id="use134" />
        <use
           transform="matrix(0.01085069,0,0,0.01085069,49.652778,0)"
           xlink:href="#T"
           id="use135" />
        <use
           transform="matrix(0.01085069,0,0,0.01085069,62.977431,0)"
           xlink:href="#P"
           id="use136" />
      </g>
      <path
         d="m 180,0 v -1490 h 224 l 606,953 c 40,63 108,177 176,312 -27,-437 -7,-821 -13,-1265 h 190 V 0 H 1137 C 860,-448 622,-778 356,-1262 383,-786 367,-470 371,0 H 180"
         id="U" />
      <path
         d="M 471,26 C 259,26 90,-98 90,-318 c 0,-256 228,-303 435,-329 202,-27 287,-16 287,-108 0,-139 -79,-219 -234,-219 -161,0 -248,86 -283,164 l -173,-57 c 86,-203 278,-265 451,-265 150,0 419,46 419,395 V 0 H 815 V -152 H 803 C 765,-73 660,26 471,26 Z m 31,-159 c 199,0 310,-134 310,-271 v -155 c -30,35 -226,55 -295,64 -131,17 -246,59 -246,186 0,116 97,176 231,176"
         id="V" />
      <path
         d="m 158,0 v -1118 h 175 l 1,205 c 55,-151 181,-225 313,-225 147,0 245,90 285,228 53,-141 190,-228 352,-228 194,0 352,125 352,384 V 0 h -181 v -749 c 0,-161 -105,-225 -225,-225 -151,0 -243,103 -243,244 V 0 H 807 v -767 c 0,-124 -93,-207 -219,-207 -131,0 -250,92 -250,270 V 0 H 158"
         id="W" />
      <path
         d="m 628,24 c -324,0 -524,-230 -524,-574 0,-343 198,-582 503,-582 237,0 487,146 487,559 v 75 H 286 c 9,234 145,362 343,362 132,0 231,-58 273,-172 l 174,48 C 1024,-91 857,24 628,24 Z M 287,-650 h 624 c -17,-190 -120,-322 -304,-322 -192,0 -309,151 -320,322"
         id="X" />
      <g
         id="b">
        <use
           transform="scale(0.01085069)"
           xlink:href="#U"
           id="use137" />
        <use
           transform="matrix(0.01085069,0,0,0.01085069,16.742622,0)"
           xlink:href="#V"
           id="use138" />
        <use
           transform="matrix(0.01085069,0,0,0.01085069,29.22092,0)"
           xlink:href="#P"
           id="use139" />
        <use
           transform="matrix(0.01085069,0,0,0.01085069,37.934028,0)"
           xlink:href="#W"
           id="use140" />
        <use
           transform="matrix(0.01085069,0,0,0.01085069,57.400174,0)"
           xlink:href="#X"
           id="use141" />
        <use
           transform="matrix(0.01085069,0,0,0.01085069,70.355903,0)"
           xlink:href="#P"
           id="use142" />
      </g>
      <path
         d="m 180,0 v -1490 h 528 c 311,0 458,177 458,395 0,191 -114,278 -244,313 v 14 c 139,9 302,137 302,371 0,225 -148,397 -499,397 z m 190,-168 h 350 c 232,0 321,-102 321,-231 0,-149 -120,-277 -311,-277 H 370 Z m 0,-668 h 328 c 160,0 286,-101 286,-255 0,-129 -87,-231 -280,-231 H 370 v 486"
         id="Y" />
      <path
         d="M 338,-1490 V 0 H 158 v -1490 h 180"
         id="Z" />
      <path
         d="M 537,14 C 311,14 158,-125 158,-408 v -710 h 180 v 695 c 0,172 97,275 253,275 160,0 281,-109 281,-300 v -670 h 181 V 0 H 879 V -209 C 806,-46 684,14 537,14"
         id="aa" />
      <path
         d="M 538,24 C 308,24 148,-78 108,-271 l 171,-41 c 32,123 123,178 257,178 156,0 256,-77 256,-169 0,-77 -54,-128 -164,-154 l -186,-44 c -203,-48 -300,-148 -300,-305 0,-192 176,-326 414,-326 230,0 351,112 402,269 l -163,42 c -31,-80 -94,-158 -238,-158 -133,0 -233,69 -233,162 0,83 57,129 188,160 l 169,40 c 203,48 298,149 298,302 0,196 -179,339 -441,339"
         id="ab" />
      <g
         id="c">
        <use
           transform="scale(0.01085069)"
           xlink:href="#Y"
           id="use143" />
        <use
           transform="matrix(0.01085069,0,0,0.01085069,14.539931,0)"
           xlink:href="#X"
           id="use144" />
        <use
           transform="matrix(0.01085069,0,0,0.01085069,27.49566,0)"
           xlink:href="#Z"
           id="use145" />
        <use
           transform="matrix(0.01085069,0,0,0.01085069,32.877604,0)"
           xlink:href="#aa"
           id="use146" />
        <use
           transform="matrix(0.01085069,0,0,0.01085069,46.017795,0)"
           xlink:href="#ab"
           id="use147" />
      </g>
      <path
         d="m 180,0 v -1490 h 190 v 644 h 782 v -644 h 190 V 0 H 1152 V -678 H 370 V 0 H 180"
         id="ac" />
      <path
         d="M 158,0 V -1118 H 338 V 0 Z m 91,-1301 c -68,0 -125,-53 -125,-119 0,-66 57,-119 125,-119 69,0 126,53 126,119 0,66 -57,119 -126,119"
         id="ad" />
      <path
         d="m 598,-1118 v 154 H 368 v 674 c 0,100 37,144 132,144 23,0 62,-6 92,-12 L 629,-6 C 592,7 541,14 495,14 302,14 188,-93 188,-276 V -964 H 20 v -154 h 168 v -266 h 180 v 266 h 230"
         id="ae" />
      <g
         id="d">
        <use
           transform="scale(0.01085069)"
           xlink:href="#ac"
           id="use148" />
        <use
           transform="matrix(0.01085069,0,0,0.01085069,16.514757,0)"
           xlink:href="#ad"
           id="use149" />
        <use
           transform="matrix(0.01085069,0,0,0.01085069,21.896701,0)"
           xlink:href="#ae"
           id="use150" />
        <use
           transform="matrix(0.01085069,0,0,0.01085069,28.624132,0)"
           xlink:href="#ae"
           id="use151" />
        <use
           transform="matrix(0.01085069,0,0,0.01085069,35.894097,0)"
           xlink:href="#ad"
           id="use152" />
        <use
           transform="matrix(0.01085069,0,0,0.01085069,41.276042,0)"
           xlink:href="#ae"
           id="use153" />
        <use
           transform="matrix(0.01085069,0,0,0.01085069,48.328993,0)"
           xlink:href="#X"
           id="use154" />
        <use
           transform="matrix(0.01085069,0,0,0.01085069,61.284722,0)"
           xlink:href="#ab"
           id="use155" />
      </g>
      <g
         id="e">
        <use
           transform="scale(0.01085069)"
           xlink:href="#O"
           id="use156" />
        <use
           transform="matrix(0.01085069,0,0,0.01085069,5.9678819,0)"
           xlink:href="#ab"
           id="use157" />
        <use
           transform="matrix(0.01085069,0,0,0.01085069,17.697483,0)"
           xlink:href="#P"
           id="use158" />
        <use
           transform="matrix(0.01085069,0,0,0.01085069,26.063368,0)"
           xlink:href="#V"
           id="use159" />
        <use
           transform="matrix(0.01085069,0,0,0.01085069,38.541667,0)"
           xlink:href="#X"
           id="use160" />
        <use
           transform="matrix(0.01085069,0,0,0.01085069,51.497396,0)"
           xlink:href="#Z"
           id="use161" />
        <use
           transform="matrix(0.01085069,0,0,0.01085069,56.87934,0)"
           xlink:href="#ad"
           id="use162" />
        <use
           transform="matrix(0.01085069,0,0,0.01085069,62.261285,0)"
           xlink:href="#ae"
           id="use163" />
        <use
           transform="matrix(0.01085069,0,0,0.01085069,69.314236,0)"
           xlink:href="#X"
           id="use164" />
        <use
           transform="matrix(0.01085069,0,0,0.01085069,82.269965,0)"
           xlink:href="#ab"
           id="use165" />
      </g>
      <path
         d="m 613,24 c -304,0 -509,-231 -509,-576 0,-350 205,-580 509,-580 216,0 392,114 453,309 l -173,49 c -33,-115 -133,-197 -280,-197 -223,0 -326,196 -326,419 0,220 103,415 326,415 150,0 252,-85 285,-206 l 172,49 C 1010,-95 832,24 613,24"
         id="af" />
      <g
         id="f">
        <use
           transform="scale(0.01085069)"
           xlink:href="#U"
           id="use166" />
        <use
           transform="matrix(0.01085069,0,0,0.01085069,16.742622,0)"
           xlink:href="#ad"
           id="use167" />
        <use
           transform="matrix(0.01085069,0,0,0.01085069,22.124566,0)"
           xlink:href="#ae"
           id="use168" />
        <use
           transform="matrix(0.01085069,0,0,0.01085069,29.177517,0)"
           xlink:href="#T"
           id="use169" />
        <use
           transform="matrix(0.01085069,0,0,0.01085069,42.50217,0)"
           xlink:href="#af"
           id="use170" />
        <use
           transform="matrix(0.01085069,0,0,0.01085069,55.197483,0)"
           xlink:href="#P"
           id="use171" />
        <use
           transform="matrix(0.01085069,0,0,0.01085069,63.91059,0)"
           xlink:href="#ad"
           id="use172" />
        <use
           transform="matrix(0.01085069,0,0,0.01085069,69.292535,0)"
           xlink:href="#ab"
           id="use173" />
      </g>
      <path
         d="m 678,-1118 v 154 H 420 V 0 H 240 V -964 H 20 v -154 h 220 v -149 c 0,-194 155,-293 318,-293 85,0 141,18 168,30 l -50,154 c -19,-6 -47,-17 -97,-17 -111,0 -159,58 -159,166 v 109 h 258"
         id="ag" />
      <g
         id="g">
        <use
           transform="scale(0.01085069)"
           xlink:href="#T"
           id="use174" />
        <use
           transform="matrix(0.01085069,0,0,0.01085069,13.324653,0)"
           xlink:href="#ag"
           id="use175" />
      </g>
      <path
         d="M 677,24 C 464,24 389,-111 352,-173 H 332 V 0 H 158 v -1490 h 180 v 551 h 14 c 37,-59 106,-193 324,-193 279,0 474,222 474,576 0,356 -194,580 -473,580 z m -27,-161 c 209,0 317,-186 317,-421 0,-232 -105,-413 -317,-413 -206,0 -314,166 -314,413 0,249 111,421 314,421"
         id="ah" />
      <path
         d="M 338,-670 V 0 H 158 v -1118 h 173 l 1,207 c 72,-158 192,-221 342,-221 226,0 378,139 378,422 V 0 H 872 v -695 c 0,-172 -96,-275 -252,-275 -161,0 -282,109 -282,300"
         id="ai" />
      <g
         id="h">
        <use
           transform="scale(0.01085069)"
           xlink:href="#Y"
           id="use176" />
        <use
           transform="matrix(0.01085069,0,0,0.01085069,14.539931,0)"
           xlink:href="#V"
           id="use177" />
        <use
           transform="matrix(0.01085069,0,0,0.01085069,27.018229,0)"
           xlink:href="#ah"
           id="use178" />
        <use
           transform="matrix(0.01085069,0,0,0.01085069,40.190972,0)"
           xlink:href="#Q"
           id="use179" />
        <use
           transform="matrix(0.01085069,0,0,0.01085069,52.788628,0)"
           xlink:href="#Z"
           id="use180" />
        <use
           transform="matrix(0.01085069,0,0,0.01085069,58.170573,0)"
           xlink:href="#T"
           id="use181" />
        <use
           transform="matrix(0.01085069,0,0,0.01085069,71.495226,0)"
           xlink:href="#ai"
           id="use182" />
      </g>
      <path
         d="m 789,20 c -398,0 -667,-293 -667,-764 0,-473 273,-766 655,-766 315,0 558,198 612,487 h -196 c -61,-191 -204,-311 -415,-311 -262,0 -471,207 -471,590 0,380 208,588 482,588 249,0 420,-165 425,-427 H 828 v -166 h 572 v 163 c 0,370 -256,606 -611,606"
         id="aj" />
      <g
         id="i">
        <use
           transform="scale(0.01085069)"
           xlink:href="#aj"
           id="use183" />
        <use
           transform="matrix(0.01085069,0,0,0.01085069,16.579861,0)"
           xlink:href="#V"
           id="use184" />
        <use
           transform="matrix(0.01085069,0,0,0.01085069,29.05816,0)"
           xlink:href="#ad"
           id="use185" />
        <use
           transform="matrix(0.01085069,0,0,0.01085069,34.440104,0)"
           xlink:href="#aa"
           id="use186" />
        <use
           transform="matrix(0.01085069,0,0,0.01085069,47.580295,0)"
           xlink:href="#ab"
           id="use187" />
      </g>
      <path
         d="M 545,20 C 282,20 100,-140 100,-426 v -80 h 190 v 80 c 0,182 102,279 255,279 152,0 254,-97 254,-279 V -1490 H 989 V -426 C 989,-140 808,20 545,20"
         id="ak" />
      <g
         id="j">
        <use
           transform="scale(0.01085069)"
           xlink:href="#ak"
           id="use188" />
        <use
           transform="matrix(0.01085069,0,0,0.01085069,12.684462,0)"
           xlink:href="#aa"
           id="use189" />
        <use
           transform="matrix(0.01085069,0,0,0.01085069,25.824653,0)"
           xlink:href="#Z"
           id="use190" />
        <use
           transform="matrix(0.01085069,0,0,0.01085069,31.206597,0)"
           xlink:href="#ad"
           id="use191" />
        <use
           transform="matrix(0.01085069,0,0,0.01085069,36.588542,0)"
           xlink:href="#aa"
           id="use192" />
        <use
           transform="matrix(0.01085069,0,0,0.01085069,49.728733,0)"
           xlink:href="#ab"
           id="use193" />
      </g>
      <path
         d="M 52,0 593,-1490 H 813 L 1361,0 H 1161 L 1012,-416 H 398 L 254,0 Z M 456,-582 H 953 C 850,-872 808,-972 702,-1338 594,-961 557,-878 456,-582"
         id="al" />
      <path
         d="M 65,0 458,-574 88,-1118 h 210 c 88,136 192,297 267,435 67,-142 176,-302 264,-435 h 206 L 661,-564 1053,0 H 844 C 750,-144 638,-310 557,-458 484,-308 366,-142 273,0 H 65"
         id="am" />
      <g
         id="k">
        <use
           transform="scale(0.01085069)"
           xlink:href="#al"
           id="use194" />
        <use
           transform="matrix(0.01085069,0,0,0.01085069,15.332031,0)"
           xlink:href="#Z"
           id="use195" />
        <use
           transform="matrix(0.01085069,0,0,0.01085069,20.713976,0)"
           xlink:href="#X"
           id="use196" />
        <use
           transform="matrix(0.01085069,0,0,0.01085069,33.170573,0)"
           xlink:href="#am"
           id="use197" />
        <use
           transform="matrix(0.01085069,0,0,0.01085069,45.301649,0)"
           xlink:href="#ad"
           id="use198" />
        <use
           transform="matrix(0.01085069,0,0,0.01085069,50.683594,0)"
           xlink:href="#T"
           id="use199" />
        <use
           transform="matrix(0.01085069,0,0,0.01085069,64.008247,0)"
           xlink:href="#ab"
           id="use200" />
      </g>
      <path
         d="m 180,0 v -1490 h 908 v 168 H 370 v 486 h 669 v 168 H 370 v 500 h 727 V 0 H 180"
         id="an" />
      <g
         id="l">
        <use
           transform="scale(0.01085069)"
           xlink:href="#an"
           id="use201" />
        <use
           transform="matrix(0.01085069,0,0,0.01085069,13.357205,0)"
           xlink:href="#W"
           id="use202" />
        <use
           transform="matrix(0.01085069,0,0,0.01085069,32.823351,0)"
           xlink:href="#X"
           id="use203" />
        <use
           transform="matrix(0.01085069,0,0,0.01085069,45.77908,0)"
           xlink:href="#ab"
           id="use204" />
        <use
           transform="matrix(0.01085069,0,0,0.01085069,57.508681,0)"
           xlink:href="#V"
           id="use205" />
        <use
           transform="matrix(0.01085069,0,0,0.01085069,69.986979,0)"
           xlink:href="#ai"
           id="use206" />
      </g>
      <path
         d="M 611,442 C 363,442 220,337 151,214 l 146,-94 c 47,65 117,165 314,165 178,0 307,-82 307,-266 v -224 h -17 c -38,64 -109,187 -325,187 -268,0 -472,-195 -472,-546 0,-346 197,-568 476,-568 216,0 288,133 326,193 h 17 v -179 h 175 V 29 c 0,289 -215,413 -487,413 z m -5,-620 c 203,0 314,-146 314,-390 0,-237 -108,-403 -314,-403 -213,0 -319,180 -319,403 0,230 109,390 319,390"
         id="ao" />
      <g
         id="m">
        <use
           transform="scale(0.01085069)"
           xlink:href="#S"
           id="use207" />
        <use
           transform="matrix(0.01085069,0,0,0.01085069,13.140191,0)"
           xlink:href="#ad"
           id="use208" />
        <use
           transform="matrix(0.01085069,0,0,0.01085069,18.522135,0)"
           xlink:href="#ao"
           id="use209" />
        <use
           transform="matrix(0.01085069,0,0,0.01085069,32.150608,0)"
           xlink:href="#S"
           id="use210" />
      </g>
      <path
         d="m 158,418 v -1536 h 174 v 179 h 20 c 37,-59 106,-193 324,-193 279,0 474,222 474,576 0,356 -194,580 -473,580 -213,0 -288,-135 -325,-197 h -14 v 591 z m 492,-555 c 209,0 317,-186 317,-421 0,-232 -105,-413 -317,-413 -206,0 -314,166 -314,413 0,249 111,421 314,421"
         id="ap" />
      <g
         id="n">
        <use
           transform="scale(0.01085069)"
           xlink:href="#ap"
           id="use211" />
        <use
           transform="matrix(0.01085069,0,0,0.01085069,13.606771,0)"
           xlink:href="#P"
           id="use212" />
        <use
           transform="matrix(0.01085069,0,0,0.01085069,22.319878,0)"
           xlink:href="#ad"
           id="use213" />
        <use
           transform="matrix(0.01085069,0,0,0.01085069,27.701823,0)"
           xlink:href="#X"
           id="use214" />
        <use
           transform="matrix(0.01085069,0,0,0.01085069,40.657552,0)"
           xlink:href="#ab"
           id="use215" />
        <use
           transform="matrix(0.01085069,0,0,0.01085069,52.387153,0)"
           xlink:href="#ae"
           id="use216" />
        <use
           transform="matrix(0.01085069,0,0,0.01085069,59.440104,0)"
           xlink:href="#ab"
           id="use217" />
      </g>
      <g
         id="o">
        <use
           transform="scale(0.01085069)"
           xlink:href="#al"
           id="use218" />
        <use
           transform="matrix(0.01085069,0,0,0.01085069,15.332031,0)"
           xlink:href="#ah"
           id="use219" />
        <use
           transform="matrix(0.01085069,0,0,0.01085069,28.938802,0)"
           xlink:href="#P"
           id="use220" />
        <use
           transform="matrix(0.01085069,0,0,0.01085069,37.304687,0)"
           xlink:href="#V"
           id="use221" />
        <use
           transform="matrix(0.01085069,0,0,0.01085069,49.782986,0)"
           xlink:href="#S"
           id="use222" />
        <use
           transform="matrix(0.01085069,0,0,0.01085069,62.923177,0)"
           xlink:href="#V"
           id="use223" />
        <use
           transform="matrix(0.01085069,0,0,0.01085069,75.401476,0)"
           xlink:href="#W"
           id="use224" />
      </g>
      <g
         id="p">
        <use
           transform="scale(0.01085069)"
           xlink:href="#ac"
           id="use225" />
        <use
           transform="matrix(0.01085069,0,0,0.01085069,16.514757,0)"
           xlink:href="#V"
           id="use226" />
        <use
           transform="matrix(0.01085069,0,0,0.01085069,28.993056,0)"
           xlink:href="#W"
           id="use227" />
        <use
           transform="matrix(0.01085069,0,0,0.01085069,48.459201,0)"
           xlink:href="#aa"
           id="use228" />
        <use
           transform="matrix(0.01085069,0,0,0.01085069,61.599392,0)"
           xlink:href="#P"
           id="use229" />
        <use
           transform="matrix(0.01085069,0,0,0.01085069,70.3125,0)"
           xlink:href="#P"
           id="use230" />
        <use
           transform="matrix(0.01085069,0,0,0.01085069,78.678385,0)"
           xlink:href="#V"
           id="use231" />
        <use
           transform="matrix(0.01085069,0,0,0.01085069,91.156684,0)"
           xlink:href="#ah"
           id="use232" />
        <use
           transform="matrix(0.01085069,0,0,0.01085069,104.76345,0)"
           xlink:href="#ad"
           id="use233" />
      </g>
      <path
         d="M 657,26 C 334,26 133,-140 116,-390 h 195 c 15,169 171,246 346,246 202,0 356,-106 356,-265 5,-203 -294,-238 -475,-293 -239,-73 -380,-191 -380,-389 0,-252 224,-419 512,-419 294,0 499,171 508,396 H 992 c -17,-145 -151,-228 -328,-228 -193,0 -321,102 -321,242 0,156 175,211 284,241 l 149,41 c 160,44 422,134 422,412 0,244 -197,432 -541,432"
         id="aq" />
      <g
         id="q">
        <use
           transform="scale(0.01085069)"
           xlink:href="#aq"
           id="use234" />
        <use
           transform="matrix(0.01085069,0,0,0.01085069,14.257813,0)"
           xlink:href="#V"
           id="use235" />
        <use
           transform="matrix(0.01085069,0,0,0.01085069,26.736111,0)"
           xlink:href="#P"
           id="use236" />
        <use
           transform="matrix(0.01085069,0,0,0.01085069,34.733073,0)"
           xlink:href="#ao"
           id="use237" />
        <use
           transform="matrix(0.01085069,0,0,0.01085069,48.361545,0)"
           xlink:href="#T"
           id="use238" />
        <use
           transform="matrix(0.01085069,0,0,0.01085069,61.686198,0)"
           xlink:href="#ai"
           id="use239" />
      </g>
      <path
         d="m 577,24 c -279,0 -473,-224 -473,-580 0,-354 195,-576 474,-576 218,0 287,134 324,193 h 14 v -551 h 180 V 0 H 922 V -173 H 902 C 865,-111 790,24 577,24 Z m 27,-161 c 203,0 314,-172 314,-421 0,-247 -108,-413 -314,-413 -212,0 -317,181 -317,413 0,235 108,421 317,421"
         id="ar" />
      <g
         id="r">
        <use
           transform="scale(0.01085069)"
           xlink:href="#al"
           id="use240" />
        <use
           transform="matrix(0.01085069,0,0,0.01085069,15.332031,0)"
           xlink:href="#ar"
           id="use241" />
        <use
           transform="matrix(0.01085069,0,0,0.01085069,28.938802,0)"
           xlink:href="#V"
           id="use242" />
        <use
           transform="matrix(0.01085069,0,0,0.01085069,41.417101,0)"
           xlink:href="#ab"
           id="use243" />
        <use
           transform="matrix(0.01085069,0,0,0.01085069,53.146701,0)"
           xlink:href="#ad"
           id="use244" />
      </g>
      <path
         d="m 98,-1322 v -168 h 1126 v 168 H 757 V 0 H 567 V -1322 H 98"
         id="as" />
      <path
         d="M 157,-1118 H 338 V 80 C 339,305 215,430 -26,418 V 252 c 126,9 184,-48 183,-172 z m 91,-183 c -68,0 -125,-53 -125,-119 0,-66 57,-119 125,-119 69,0 126,53 126,119 0,66 -57,119 -126,119"
         id="at" />
      <g
         id="s">
        <use
           transform="scale(0.01085069)"
           xlink:href="#as"
           id="use245" />
        <use
           transform="matrix(0.01085069,0,0,0.01085069,13.085938,0)"
           xlink:href="#P"
           id="use246" />
        <use
           transform="matrix(0.01085069,0,0,0.01085069,21.082899,0)"
           xlink:href="#T"
           id="use247" />
        <use
           transform="matrix(0.01085069,0,0,0.01085069,34.407552,0)"
           xlink:href="#at"
           id="use248" />
        <use
           transform="matrix(0.01085069,0,0,0.01085069,39.789497,0)"
           xlink:href="#V"
           id="use249" />
        <use
           transform="matrix(0.01085069,0,0,0.01085069,52.267795,0)"
           xlink:href="#ai"
           id="use250" />
        <use
           transform="matrix(0.01085069,0,0,0.01085069,65.397135,0)"
           xlink:href="#ab"
           id="use251" />
      </g>
      <path
         d="m 180,0 v -1490 h 510 c 348,0 508,194 508,460 0,198 -88,351 -276,417 L 1256,0 H 1036 L 726,-579 c -117,2 -238,0 -356,1 V 0 Z m 190,-747 h 312 c 235,0 327,-108 327,-283 0,-177 -92,-293 -329,-293 H 370 v 576"
         id="au" />
      <g
         id="t">
        <use
           transform="scale(0.01085069)"
           xlink:href="#au"
           id="use252" />
        <use
           transform="matrix(0.01085069,0,0,0.01085069,13.975694,0)"
           xlink:href="#T"
           id="use253" />
        <use
           transform="matrix(0.01085069,0,0,0.01085069,27.300347,0)"
           xlink:href="#W"
           id="use254" />
        <use
           transform="matrix(0.01085069,0,0,0.01085069,46.766493,0)"
           xlink:href="#V"
           id="use255" />
        <use
           transform="matrix(0.01085069,0,0,0.01085069,59.244792,0)"
           xlink:href="#ai"
           id="use256" />
        <use
           transform="matrix(0.01085069,0,0,0.01085069,72.374132,0)"
           xlink:href="#ab"
           id="use257" />
      </g>
      <path
         d="m 180,0 v -1490 h 270 l 367,940 c 28,72 75,218 110,339 35,-117 81,-264 110,-339 l 362,-940 h 271 V 0 h -187 c 2,-448 -5,-837 7,-1287 -157,497 -311,829 -483,1287 H 842 C 666,-458 514,-784 354,-1284 c 12,438 5,843 7,1284 H 180"
         id="av" />
      <path
         d="m 158,0 v -1490 h 180 v 865 h 22 l 478,-493 h 223 L 593,-638 1096,0 H 865 L 456,-523 338,-412 V 0 H 158"
         id="aw" />
      <g
         id="u">
        <use
           transform="scale(0.01085069)"
           xlink:href="#av"
           id="use258" />
        <use
           transform="matrix(0.01085069,0,0,0.01085069,20.073785,0)"
           xlink:href="#V"
           id="use259" />
        <use
           transform="matrix(0.01085069,0,0,0.01085069,32.552083,0)"
           xlink:href="#P"
           id="use260" />
        <use
           transform="matrix(0.01085069,0,0,0.01085069,41.265191,0)"
           xlink:href="#aw"
           id="use261" />
      </g>
      <g
         id="v">
        <use
           transform="scale(0.01085069)"
           xlink:href="#al"
           id="use262" />
        <use
           transform="matrix(0.01085069,0,0,0.01085069,15.332031,0)"
           xlink:href="#ai"
           id="use263" />
        <use
           transform="matrix(0.01085069,0,0,0.01085069,28.461372,0)"
           xlink:href="#ae"
           id="use264" />
        <use
           transform="matrix(0.01085069,0,0,0.01085069,35.514323,0)"
           xlink:href="#T"
           id="use265" />
        <use
           transform="matrix(0.01085069,0,0,0.01085069,48.838976,0)"
           xlink:href="#ai"
           id="use266" />
        <use
           transform="matrix(0.01085069,0,0,0.01085069,61.642795,0)"
           xlink:href="#Q"
           id="use267" />
      </g>
      <path
         d="m 180,0 v -1490 h 510 c 348,0 508,209 508,474 0,266 -160,477 -507,477 H 370 V 0 Z m 190,-706 h 312 c 236,0 327,-133 327,-310 0,-176 -91,-307 -329,-307 H 370 v 617"
         id="ax" />
      <g
         id="w">
        <use
           transform="scale(0.01085069)"
           xlink:href="#ax"
           id="use268" />
        <use
           transform="matrix(0.01085069,0,0,0.01085069,14.073351,0)"
           xlink:href="#X"
           id="use269" />
        <use
           transform="matrix(0.01085069,0,0,0.01085069,27.02908,0)"
           xlink:href="#P"
           id="use270" />
        <use
           transform="matrix(0.01085069,0,0,0.01085069,35.394965,0)"
           xlink:href="#ab"
           id="use271" />
        <use
           transform="matrix(0.01085069,0,0,0.01085069,47.124566,0)"
           xlink:href="#X"
           id="use272" />
        <use
           transform="matrix(0.01085069,0,0,0.01085069,60.080295,0)"
           xlink:href="#aa"
           id="use273" />
        <use
           transform="matrix(0.01085069,0,0,0.01085069,73.220486,0)"
           xlink:href="#ab"
           id="use274" />
      </g>
      <g
         id="x">
        <use
           transform="scale(0.01085069)"
           xlink:href="#ac"
           id="use275" />
        <use
           transform="matrix(0.01085069,0,0,0.01085069,16.514757,0)"
           xlink:href="#X"
           id="use276" />
        <use
           transform="matrix(0.01085069,0,0,0.01085069,29.470486,0)"
           xlink:href="#P"
           id="use277" />
        <use
           transform="matrix(0.01085069,0,0,0.01085069,37.467448,0)"
           xlink:href="#af"
           id="use278" />
        <use
           transform="matrix(0.01085069,0,0,0.01085069,50.16276,0)"
           xlink:href="#aa"
           id="use279" />
        <use
           transform="matrix(0.01085069,0,0,0.01085069,63.302951,0)"
           xlink:href="#Z"
           id="use280" />
        <use
           transform="matrix(0.01085069,0,0,0.01085069,68.684896,0)"
           xlink:href="#X"
           id="use281" />
        <use
           transform="matrix(0.01085069,0,0,0.01085069,81.640625,0)"
           xlink:href="#ab"
           id="use282" />
      </g>
      <path
         d="m 783,20 c -382,0 -661,-292 -661,-764 0,-473 279,-766 661,-766 302,0 548,182 601,489 h -190 c -42,-204 -217,-313 -411,-313 -268,0 -476,208 -476,590 0,381 209,588 476,588 195,0 369,-110 411,-313 h 190 C 1332,-166 1088,20 783,20"
         id="ay" />
      <g
         id="y">
        <use
           transform="scale(0.01085069)"
           xlink:href="#ay"
           id="use283" />
        <use
           transform="matrix(0.01085069,0,0,0.01085069,16.232639,0)"
           xlink:href="#Z"
           id="use284" />
        <use
           transform="matrix(0.01085069,0,0,0.01085069,21.614583,0)"
           xlink:href="#X"
           id="use285" />
        <use
           transform="matrix(0.01085069,0,0,0.01085069,34.570312,0)"
           xlink:href="#T"
           id="use286" />
        <use
           transform="matrix(0.01085069,0,0,0.01085069,47.894965,0)"
           xlink:href="#ap"
           id="use287" />
        <use
           transform="matrix(0.01085069,0,0,0.01085069,61.71875,0)"
           xlink:href="#V"
           id="use288" />
        <use
           transform="matrix(0.01085069,0,0,0.01085069,74.197049,0)"
           xlink:href="#ae"
           id="use289" />
        <use
           transform="matrix(0.01085069,0,0,0.01085069,81.467014,0)"
           xlink:href="#P"
           id="use290" />
        <use
           transform="matrix(0.01085069,0,0,0.01085069,89.832899,0)"
           xlink:href="#V"
           id="use291" />
      </g>
      <g
         id="z">
        <use
           transform="scale(0.01085069)"
           xlink:href="#ac"
           id="use292" />
        <use
           transform="matrix(0.01085069,0,0,0.01085069,16.514757,0)"
           xlink:href="#X"
           id="use293" />
        <use
           transform="matrix(0.01085069,0,0,0.01085069,29.470486,0)"
           xlink:href="#P"
           id="use294" />
        <use
           transform="matrix(0.01085069,0,0,0.01085069,37.467448,0)"
           xlink:href="#T"
           id="use295" />
        <use
           transform="matrix(0.01085069,0,0,0.01085069,50.792101,0)"
           xlink:href="#ar"
           id="use296" />
      </g>
      <g
         id="A">
        <use
           transform="scale(0.01085069)"
           xlink:href="#ak"
           id="use297" />
        <use
           transform="matrix(0.01085069,0,0,0.01085069,12.684462,0)"
           xlink:href="#X"
           id="use298" />
        <use
           transform="matrix(0.01085069,0,0,0.01085069,25.640191,0)"
           xlink:href="#ab"
           id="use299" />
        <use
           transform="matrix(0.01085069,0,0,0.01085069,37.369792,0)"
           xlink:href="#aa"
           id="use300" />
        <use
           transform="matrix(0.01085069,0,0,0.01085069,50.509983,0)"
           xlink:href="#ab"
           id="use301" />
      </g>
      <g
         id="B">
        <use
           transform="scale(0.01085069)"
           xlink:href="#ak"
           id="use302" />
        <use
           transform="matrix(0.01085069,0,0,0.01085069,12.684462,0)"
           xlink:href="#X"
           id="use303" />
        <use
           transform="matrix(0.01085069,0,0,0.01085069,25.640191,0)"
           xlink:href="#ab"
           id="use304" />
        <use
           transform="matrix(0.01085069,0,0,0.01085069,37.369792,0)"
           xlink:href="#aa"
           id="use305" />
        <use
           transform="matrix(0.01085069,0,0,0.01085069,50.509983,0)"
           xlink:href="#ab"
           id="use306" />
      </g>
      <g
         id="C">
        <use
           transform="scale(0.01085069)"
           xlink:href="#O"
           id="use307" />
        <use
           transform="matrix(0.01085069,0,0,0.01085069,5.9678819,0)"
           xlink:href="#O"
           id="use308" />
      </g>
      <g
         id="D">
        <use
           transform="scale(0.01085069)"
           xlink:href="#ak"
           id="use309" />
        <use
           transform="matrix(0.01085069,0,0,0.01085069,12.684462,0)"
           xlink:href="#aa"
           id="use310" />
        <use
           transform="matrix(0.01085069,0,0,0.01085069,25.824653,0)"
           xlink:href="#ab"
           id="use311" />
        <use
           transform="matrix(0.01085069,0,0,0.01085069,37.554253,0)"
           xlink:href="#ae"
           id="use312" />
        <use
           transform="matrix(0.01085069,0,0,0.01085069,44.824219,0)"
           xlink:href="#aa"
           id="use313" />
        <use
           transform="matrix(0.01085069,0,0,0.01085069,57.96441,0)"
           xlink:href="#ab"
           id="use314" />
      </g>
      <path
         d="m 130,0 v -134 l 666,-991 c 45,-67 96,-135 147,-202 -269,9 -546,3 -821,5 v -168 h 1036 v 136 l -656,975 c -49,72 -103,145 -157,216 268,-9 546,-3 821,-5 V 0 H 130"
         id="az" />
      <g
         id="E">
        <use
           transform="scale(0.01085069)"
           xlink:href="#az"
           id="use315" />
        <use
           transform="matrix(0.01085069,0,0,0.01085069,13.975694,0)"
           xlink:href="#X"
           id="use316" />
        <use
           transform="matrix(0.01085069,0,0,0.01085069,26.931424,0)"
           xlink:href="#P"
           id="use317" />
        <use
           transform="matrix(0.01085069,0,0,0.01085069,35.297309,0)"
           xlink:href="#aa"
           id="use318" />
        <use
           transform="matrix(0.01085069,0,0,0.01085069,48.4375,0)"
           xlink:href="#ah"
           id="use319" />
        <use
           transform="matrix(0.01085069,0,0,0.01085069,62.261285,0)"
           xlink:href="#V"
           id="use320" />
        <use
           transform="matrix(0.01085069,0,0,0.01085069,74.739583,0)"
           xlink:href="#ah"
           id="use321" />
        <use
           transform="matrix(0.01085069,0,0,0.01085069,88.346354,0)"
           xlink:href="#ah"
           id="use322" />
        <use
           transform="matrix(0.01085069,0,0,0.01085069,101.95312,0)"
           xlink:href="#X"
           id="use323" />
        <use
           transform="matrix(0.01085069,0,0,0.01085069,114.90885,0)"
           xlink:href="#Z"
           id="use324" />
      </g>
      <g
         id="F">
        <use
           transform="scale(0.01085069)"
           xlink:href="#ax"
           id="use325" />
        <use
           transform="matrix(0.01085069,0,0,0.01085069,14.073351,0)"
           xlink:href="#T"
           id="use326" />
        <use
           transform="matrix(0.01085069,0,0,0.01085069,27.398003,0)"
           xlink:href="#W"
           id="use327" />
        <use
           transform="matrix(0.01085069,0,0,0.01085069,46.864149,0)"
           xlink:href="#ap"
           id="use328" />
        <use
           transform="matrix(0.01085069,0,0,0.01085069,60.47092,0)"
           xlink:href="#X"
           id="use329" />
        <use
           transform="matrix(0.01085069,0,0,0.01085069,73.426649,0)"
           xlink:href="#ad"
           id="use330" />
        <use
           transform="matrix(0.01085069,0,0,0.01085069,78.808594,0)"
           xlink:href="#aa"
           id="use331" />
        <use
           transform="matrix(0.01085069,0,0,0.01085069,91.948785,0)"
           xlink:href="#ab"
           id="use332" />
      </g>
      <g
         id="G">
        <use
           transform="scale(0.01085069)"
           xlink:href="#ax"
           id="use333" />
        <use
           transform="matrix(0.01085069,0,0,0.01085069,14.192708,0)"
           xlink:href="#P"
           id="use334" />
        <use
           transform="matrix(0.01085069,0,0,0.01085069,22.18967,0)"
           xlink:href="#T"
           id="use335" />
        <use
           transform="matrix(0.01085069,0,0,0.01085069,35.514323,0)"
           xlink:href="#ah"
           id="use336" />
        <use
           transform="matrix(0.01085069,0,0,0.01085069,49.121094,0)"
           xlink:href="#aa"
           id="use337" />
        <use
           transform="matrix(0.01085069,0,0,0.01085069,62.261285,0)"
           xlink:href="#ab"
           id="use338" />
      </g>
      <g
         id="H">
        <use
           transform="scale(0.01085069)"
           xlink:href="#al"
           id="use339" />
        <use
           transform="matrix(0.01085069,0,0,0.01085069,15.332031,0)"
           xlink:href="#ai"
           id="use340" />
        <use
           transform="matrix(0.01085069,0,0,0.01085069,28.461372,0)"
           xlink:href="#ad"
           id="use341" />
        <use
           transform="matrix(0.01085069,0,0,0.01085069,33.843316,0)"
           xlink:href="#af"
           id="use342" />
        <use
           transform="matrix(0.01085069,0,0,0.01085069,46.538628,0)"
           xlink:href="#ad"
           id="use343" />
        <use
           transform="matrix(0.01085069,0,0,0.01085069,51.920573,0)"
           xlink:href="#aa"
           id="use344" />
        <use
           transform="matrix(0.01085069,0,0,0.01085069,65.060764,0)"
           xlink:href="#ab"
           id="use345" />
      </g>
      <g
         id="I">
        <use
           transform="scale(0.01085069)"
           xlink:href="#ak"
           id="use346" />
        <use
           transform="matrix(0.01085069,0,0,0.01085069,12.684462,0)"
           xlink:href="#aa"
           id="use347" />
        <use
           transform="matrix(0.01085069,0,0,0.01085069,25.824653,0)"
           xlink:href="#Z"
           id="use348" />
        <use
           transform="matrix(0.01085069,0,0,0.01085069,31.206597,0)"
           xlink:href="#ad"
           id="use349" />
        <use
           transform="matrix(0.01085069,0,0,0.01085069,36.588542,0)"
           xlink:href="#V"
           id="use350" />
        <use
           transform="matrix(0.01085069,0,0,0.01085069,49.06684,0)"
           xlink:href="#ai"
           id="use351" />
        <use
           transform="matrix(0.01085069,0,0,0.01085069,62.196181,0)"
           xlink:href="#V"
           id="use352" />
      </g>
      <g
         id="J">
        <use
           transform="scale(0.01085069)"
           xlink:href="#av"
           id="use353" />
        <use
           transform="matrix(0.01085069,0,0,0.01085069,20.073785,0)"
           xlink:href="#V"
           id="use354" />
        <use
           transform="matrix(0.01085069,0,0,0.01085069,32.552083,0)"
           xlink:href="#P"
           id="use355" />
        <use
           transform="matrix(0.01085069,0,0,0.01085069,41.265191,0)"
           xlink:href="#Q"
           id="use356" />
      </g>
      <g
         id="K">
        <use
           transform="scale(0.01085069)"
           xlink:href="#ak"
           id="use357" />
        <use
           transform="matrix(0.01085069,0,0,0.01085069,12.684462,0)"
           xlink:href="#V"
           id="use358" />
        <use
           transform="matrix(0.01085069,0,0,0.01085069,25.16276,0)"
           xlink:href="#W"
           id="use359" />
        <use
           transform="matrix(0.01085069,0,0,0.01085069,44.628906,0)"
           xlink:href="#X"
           id="use360" />
        <use
           transform="matrix(0.01085069,0,0,0.01085069,57.584635,0)"
           xlink:href="#ab"
           id="use361" />
      </g>
      <g
         id="L">
        <use
           transform="scale(0.01085069)"
           xlink:href="#aq"
           id="use362" />
        <use
           transform="matrix(0.01085069,0,0,0.01085069,14.257813,0)"
           xlink:href="#ad"
           id="use363" />
        <use
           transform="matrix(0.01085069,0,0,0.01085069,19.639757,0)"
           xlink:href="#W"
           id="use364" />
        <use
           transform="matrix(0.01085069,0,0,0.01085069,39.105903,0)"
           xlink:href="#T"
           id="use365" />
        <use
           transform="matrix(0.01085069,0,0,0.01085069,52.430556,0)"
           xlink:href="#ai"
           id="use366" />
      </g>
      <g
         id="M">
        <use
           transform="scale(0.01085069)"
           xlink:href="#ah"
           id="use367" />
        <use
           transform="matrix(0.01085069,0,0,0.01085069,13.823785,0)"
           xlink:href="#V"
           id="use368" />
        <use
           transform="matrix(0.01085069,0,0,0.01085069,26.302083,0)"
           xlink:href="#P"
           id="use369" />
      </g>
      <path
         d="m 180,0 v -1490 h 190 c 0,262 1,526 -3,784 217,-279 467,-523 702,-784 h 249 L 716,-845 1319,0 H 1094 L 585,-716 370,-489 V 0 H 180"
         id="aA" />
      <g
         id="N">
        <use
           transform="scale(0.01085069)"
           xlink:href="#aA"
           id="use370" />
        <use
           transform="matrix(0.01085069,0,0,0.01085069,14.051649,0)"
           xlink:href="#T"
           id="use371" />
        <use
           transform="matrix(0.01085069,0,0,0.01085069,27.376302,0)"
           xlink:href="#S"
           id="use372" />
        <use
           transform="matrix(0.01085069,0,0,0.01085069,40.516493,0)"
           xlink:href="#aw"
           id="use373" />
        <use
           transform="matrix(0.01085069,0,0,0.01085069,52.712674,0)"
           xlink:href="#ah"
           id="use374" />
        <use
           transform="matrix(0.01085069,0,0,0.01085069,66.536458,0)"
           xlink:href="#V"
           id="use375" />
      </g>
    </defs>
  </defs>
  <sodipodi:namedview
     id="namedview375"
     pagecolor="#ffffff"
     bordercolor="#000000"
     borderopacity="0.25"
     inkscape:showpageshadow="2"
     inkscape:pageopacity="0.0"
     inkscape:pagecheckerboard="0"
     inkscape:deskcolor="#d1d1d1"
     inkscape:zoom="0.55518554"
     inkscape:cx="1168.078"
     inkscape:cy="1308.5716"
     inkscape:window-width="2560"
     inkscape:window-height="1369"
     inkscape:window-x="1912"
     inkscape:window-y="-8"
     inkscape:window-maximized="1"
     inkscape:current-layer="svg375" />
  <path
     d="m 1054.8378,7 a 6,6 0 0 1 6,-6 h 148 a 6,6 0 0 1 6,6 v 108 a 6,6 0 0 1 -6,6 h -148 a 6,6 0 0 1 -6,-6 z"
     stroke="#000000"
     stroke-width="2"
     fill="#ffffff"
     id="path2" />
  <use
     xlink:href="#a"
     transform="translate(1099.1662,70.527778)"
     id="use2" />
  <path
     d="m 1054.8378,207 a 6,6 0 0 1 6,-6 h 148 a 6,6 0 0 1 6,6 v 108 a 6,6 0 0 1 -6,6 h -148 a 6,6 0 0 1 -6,-6 z"
     stroke="#000000"
     stroke-width="2"
     fill="#ffffff"
     id="path3" />
  <use
     xlink:href="#b"
     transform="translate(1095.4769,270.52778)"
     id="use3" />
  <path
     d="m 694.83783,827 a 6,6 0 0 1 6,-6 h 148 a 6,6 0 0 1 6,6 v 108 a 6,6 0 0 1 -6,6 h -148 a 6,6 0 0 1 -6,-6 z"
     stroke="#000000"
     stroke-width="2"
     fill="#ffffff"
     id="path4" />
  <use
     xlink:href="#c"
     transform="translate(745.96414,890.52778)"
     id="use4" />
  <path
     d="m 914.83783,647 a 6,6 0 0 1 6,-6 h 147.99997 a 6,6 0 0 1 6,6 v 108 a 6,6 0 0 1 -6,6 H 920.83783 a 6,6 0 0 1 -6,-6 z"
     stroke="#000000"
     stroke-width="2"
     fill="#ffffff"
     id="path5" />
  <use
     xlink:href="#d"
     transform="translate(958.33067,710.52778)"
     id="use5" />
  <path
     d="m 1354.8378,827 a 6,6 0 0 1 6,-6 h 148 a 6,6 0 0 1 6,6 v 108 a 6,6 0 0 1 -6,6 h -148 a 6,6 0 0 1 -6,-6 z"
     stroke="#000000"
     stroke-width="2"
     fill="#ffffff"
     id="path6" />
  <use
     xlink:href="#e"
     transform="translate(1387.8381,890.52778)"
     id="use6" />
  <path
     d="m 1154.8378,827 a 6,6 0 0 1 6,-6 h 148 a 6,6 0 0 1 6,6 v 108 a 6,6 0 0 1 -6,6 h -148 a 6,6 0 0 1 -6,-6 z"
     stroke="#000000"
     stroke-width="2"
     fill="#ffffff"
     id="path7" />
  <use
     xlink:href="#f"
     transform="translate(1180.427,872.52778)"
     id="use7" />
  <use
     xlink:href="#g"
     transform="translate(1267.6992,872.52778)"
     id="use8" />
  <use
     xlink:href="#h"
     transform="translate(1192.5256,904.7934)"
     id="use9" />
  <path
     d="m 1134.8378,122.5 v 61.12"
     stroke="#3a414a"
     fill="none"
     id="path9" />
  <path
     d="m 1135.3178,122.5 h -0.96 V 122 h 0.96 z"
     stroke="#3a414a"
     stroke-width="0.05"
     fill="#3a414a"
     id="path10" />
  <path
     d="m 1134.8378,198.38 -4.63,-14.26 h 9.26 z"
     stroke="#3a414a"
     fill="#3a414a"
     id="path11" />
  <path
     d="M 1053.3378,261 H 780.83783 a 6,6 0 0 0 -6,6 v 536.62"
     stroke="#3a414a"
     fill="none"
     id="path12" />
  <path
     d="m 1053.8378,261.47 h -0.5 v -0.94 h 0.5 z"
     stroke="#3a414a"
     stroke-width="0.05"
     fill="#3a414a"
     id="path13" />
  <path
     d="m 774.83783,818.38 -4.63,-14.26 h 9.26 z"
     stroke="#3a414a"
     fill="#3a414a"
     id="path14" />
  <path
     d="m 1216.3378,261 h 12.5 a 6,6 0 0 1 6,6 v 536.62"
     stroke="#3a414a"
     fill="none"
     id="path15" />
  <path
     d="m 1216.3378,261.47 h -0.5 v -0.94 h 0.5 z"
     stroke="#3a414a"
     stroke-width="0.05"
     fill="#3a414a"
     id="path16" />
  <path
     d="m 1234.8378,818.38 -4.63,-14.26 h 9.26 z"
     stroke="#3a414a"
     fill="#3a414a"
     id="path17" />
  <path
     d="m 1053.3378,261 h -52.5 a 6,6 0 0 0 -5.99997,6 v 356.62"
     stroke="#3a414a"
     fill="none"
     id="path18" />
  <path
     d="m 1053.8378,261.47 h -0.5 v -0.94 h 0.5 z"
     stroke="#3a414a"
     stroke-width="0.05"
     fill="#3a414a"
     id="path19" />
  <path
     d="m 994.83783,638.38 -4.63,-14.26 h 9.26 z"
     stroke="#3a414a"
     fill="#3a414a"
     id="path20" />
  <path
     d="m 1216.3378,261 h 212.5 a 6,6 0 0 1 6,6 v 536.62"
     stroke="#3a414a"
     fill="none"
     id="path21" />
  <path
     d="m 1216.3378,261.47 h -0.5 v -0.94 h 0.5 z"
     stroke="#3a414a"
     stroke-width="0.05"
     fill="#3a414a"
     id="path22" />
  <path
     d="m 1434.8378,818.38 -4.63,-14.26 h 9.26 z"
     stroke="#3a414a"
     fill="#3a414a"
     id="path23" />
  <path
     d="m 1394.8378,1807 a 6,6 0 0 1 6,-6 h 148 a 6,6 0 0 1 6,6 v 108 a 6,6 0 0 1 -6,6 h -148 a 6,6 0 0 1 -6,-6 z"
     stroke="#000000"
     stroke-width="2"
     fill="#ffffff"
     id="path24" />
  <use
     xlink:href="#i"
     transform="translate(1411.3287,1852.5278)"
     id="use24" />
  <use
     xlink:href="#j"
     transform="translate(1476.8886,1852.5278)"
     id="use25" />
  <use
     xlink:href="#k"
     transform="translate(1436.9689,1884.7934)"
     id="use26" />
  <path
     d="M 1234.8378,942.5 V 1365 a 6,6 0 0 0 6,6 h 228 a 6,6 0 0 1 6,6 v 406.62"
     stroke="#3a414a"
     fill="none"
     id="path26" />
  <path
     d="m 1235.3178,942.5 h -0.96 V 942 h 0.96 z"
     stroke="#3a414a"
     stroke-width="0.05"
     fill="#3a414a"
     id="path27" />
  <path
     d="m 1474.8378,1798.38 -4.63,-14.26 h 9.26 z"
     stroke="#3a414a"
     fill="#3a414a"
     id="path28" />
  <path
     d="m 1254.8378,1406 a 6,6 0 0 1 6,-6 h 148 a 6,6 0 0 1 6,6 v 108 a 6,6 0 0 1 -6,6 h -148 a 6,6 0 0 1 -6,-6 z"
     stroke="#000000"
     stroke-width="2"
     fill="#ffffff"
     id="path29" />
  <use
     xlink:href="#l"
     transform="translate(1267.5093,1451.5278)"
     id="use29" />
  <use
     xlink:href="#m"
     transform="translate(1356.8756,1451.5278)"
     id="use30" />
  <use
     xlink:href="#n"
     transform="translate(1299.253,1483.7935)"
     id="use31" />
  <path
     d="m 1334.8378,1521.5 v 133 a 6,6 0 0 0 6,6 h 81.07 a 6,6 0 0 1 6,6 v 117.12"
     stroke="#3a414a"
     fill="none"
     id="path31" />
  <path
     d="m 1335.3178,1521.5 h -0.96 v -0.5 h 0.96 z"
     stroke="#3a414a"
     stroke-width="0.05"
     fill="#3a414a"
     id="path32" />
  <path
     d="m 1427.9078,1798.38 -4.63,-14.26 h 9.27 z"
     stroke="#3a414a"
     fill="#3a414a"
     id="path33" />
  <path
     d="m 1434.8378,942.5 v 222 a 6,6 0 0 1 -6,6 h -88 a 6,6 0 0 0 -6,6 v 206.12"
     stroke="#3a414a"
     fill="none"
     id="path34" />
  <path
     d="m 1435.3178,942.5 h -0.96 V 942 h 0.96 z"
     stroke="#3a414a"
     stroke-width="0.05"
     fill="#3a414a"
     id="path35" />
  <path
     d="m 1334.8378,1397.38 -4.63,-14.26 h 9.26 z"
     stroke="#3a414a"
     fill="#3a414a"
     id="path36" />
  <path
     d="m 1534.8378,427 a 6,6 0 0 1 6,-6 h 148 a 6,6 0 0 1 6,6 v 108 a 6,6 0 0 1 -6,6 h -148 a 6,6 0 0 1 -6,-6 z"
     stroke="#000000"
     stroke-width="2"
     fill="#ffffff"
     id="path37" />
  <use
     xlink:href="#o"
     transform="translate(1567.404,490.52778)"
     id="use37" />
  <path
     d="m 1534.8378,207 a 6,6 0 0 1 6,-6 h 148 a 6,6 0 0 1 6,6 v 108 a 6,6 0 0 1 -6,6 h -148 a 6,6 0 0 1 -6,-6 z"
     stroke="#000000"
     stroke-width="2"
     fill="#ffffff"
     id="path38" />
  <use
     xlink:href="#p"
     transform="translate(1559.7651,270.52778)"
     id="use38" />
  <path
     d="m 1534.8378,7 a 6,6 0 0 1 6,-6 h 148 a 6,6 0 0 1 6,6 v 108 a 6,6 0 0 1 -6,6 h -148 a 6,6 0 0 1 -6,-6 z"
     stroke="#000000"
     stroke-width="2"
     fill="#ffffff"
     id="path39" />
  <use
     xlink:href="#q"
     transform="translate(1577.4301,70.527778)"
     id="use39" />
  <path
     d="m 1614.8378,122.5 v 61.12"
     stroke="#3a414a"
     fill="none"
     id="path40" />
  <path
     d="m 1615.3078,122.5 h -0.94 V 122 h 0.94 z"
     stroke="#3a414a"
     stroke-width="0.05"
     fill="#3a414a"
     id="path41" />
  <path
     d="m 1614.8378,198.38 -4.63,-14.26 h 9.27 z"
     stroke="#3a414a"
     fill="#3a414a"
     id="path42" />
  <path
     d="m 1614.8378,322.5 v 81.12"
     stroke="#3a414a"
     fill="none"
     id="path43" />
  <path
     d="m 1615.3078,322.5 h -0.94 V 322 h 0.94 z"
     stroke="#3a414a"
     stroke-width="0.05"
     fill="#3a414a"
     id="path44" />
  <path
     d="m 1614.8378,418.38 -4.63,-14.26 h 9.27 z"
     stroke="#3a414a"
     fill="#3a414a"
     id="path45" />
  <path
     d="m 1533.3378,481 h -39.75 a 6,6 0 0 0 -6,6 v 316.62"
     stroke="#3a414a"
     fill="none"
     id="path46" />
  <path
     d="m 1533.8378,481.48 h -0.5 v -0.96 h 0.5 z"
     stroke="#3a414a"
     stroke-width="0.05"
     fill="#3a414a"
     id="path47" />
  <path
     d="m 1487.5878,818.38 -4.64,-14.26 h 9.28 z"
     stroke="#3a414a"
     fill="#3a414a"
     id="path48" />
  <path
     d="m 1774.8378,427 a 6,6 0 0 1 6,-6 h 148 a 6,6 0 0 1 6,6 v 108 a 6,6 0 0 1 -6,6 h -148 a 6,6 0 0 1 -6,-6 z"
     stroke="#000000"
     stroke-width="2"
     fill="#ffffff"
     id="path49" />
  <use
     xlink:href="#r"
     transform="translate(1825.5735,490.52778)"
     id="use49" />
  <path
     d="m 1696.3378,261 h 152.5 a 6,6 0 0 1 6,6 v 136.62"
     stroke="#3a414a"
     fill="none"
     id="path50" />
  <path
     d="m 1696.3378,261.47 h -0.5 v -0.94 h 0.5 z"
     stroke="#3a414a"
     stroke-width="0.05"
     fill="#3a414a"
     id="path51" />
  <path
     d="m 1854.8378,418.38 -4.63,-14.26 h 9.27 z"
     stroke="#3a414a"
     fill="#3a414a"
     id="path52" />
  <path
     d="M 1854.8378,542.5 V 1434 a 6,6 0 0 1 -6,6 h -319.58 a 6,6 0 0 0 -6,6 v 337.62"
     stroke="#3a414a"
     fill="none"
     id="path53" />
  <path
     d="m 1855.3078,542.5 h -0.94 V 542 h 0.94 z"
     stroke="#3a414a"
     stroke-width="0.05"
     fill="#3a414a"
     id="path54" />
  <path
     d="m 1523.2578,1798.38 -4.63,-14.26 h 9.26 z"
     stroke="#3a414a"
     fill="#3a414a"
     id="path55" />
  <path
     d="m 914.83783,827 a 6,6 0 0 1 6,-6 h 147.99997 a 6,6 0 0 1 6,6 v 108 a 6,6 0 0 1 -6,6 H 920.83783 a 6,6 0 0 1 -6,-6 z"
     stroke="#000000"
     stroke-width="2"
     fill="#ffffff"
     id="path56" />
  <use
     xlink:href="#s"
     transform="translate(956.27446,890.52778)"
     id="use56" />
  <path
     d="m 914.83783,1007 a 6,6 0 0 1 6,-6 h 147.99997 a 6,6 0 0 1 6,6 v 108 a 6,6 0 0 1 -6,6 H 920.83783 a 6,6 0 0 1 -6,-6 z"
     stroke="#000000"
     stroke-width="2"
     fill="#ffffff"
     id="path57" />
  <use
     xlink:href="#t"
     transform="translate(952.78596,1070.5278)"
     id="use57" />
  <path
     d="m 994.83783,762.5 v 41.12"
     stroke="#3a414a"
     fill="none"
     id="path58" />
  <path
     d="m 995.31783,762.5 h -0.96 V 762 h 0.96 z"
     stroke="#3a414a"
     stroke-width="0.05"
     fill="#3a414a"
     id="path59" />
  <path
     d="m 994.83783,818.38 -4.63,-14.26 h 9.26 z"
     stroke="#3a414a"
     fill="#3a414a"
     id="path60" />
  <path
     d="m 994.83783,942.5 v 41.12"
     stroke="#3a414a"
     fill="none"
     id="path61" />
  <path
     d="m 995.31783,942.5 h -0.96 V 942 h 0.96 z"
     stroke="#3a414a"
     stroke-width="0.05"
     fill="#3a414a"
     id="path62" />
  <path
     d="m 994.83783,998.38 -4.63,-14.26 h 9.26 z"
     stroke="#3a414a"
     fill="#3a414a"
     id="path63" />
  <path
     d="m 914.83783,1407 a 6,6 0 0 1 6,-6 h 147.99997 a 6,6 0 0 1 6,6 v 108 a 6,6 0 0 1 -6,6 H 920.83783 a 6,6 0 0 1 -6,-6 z"
     stroke="#000000"
     stroke-width="2"
     fill="#ffffff"
     id="path64" />
  <use
     xlink:href="#u"
     transform="translate(927.91617,1470.5278)"
     id="use64" />
  <use
     xlink:href="#v"
     transform="translate(987.62754,1470.5278)"
     id="use65" />
  <path
     d="m 694.83783,1007 a 6,6 0 0 1 6,-6 h 148 a 6,6 0 0 1 6,6 v 108 a 6,6 0 0 1 -6,6 h -148 a 6,6 0 0 1 -6,-6 z"
     stroke="#000000"
     stroke-width="2"
     fill="#ffffff"
     id="path65" />
  <use
     xlink:href="#w"
     transform="translate(732.36279,1070.5278)"
     id="use66" />
  <path
     d="m 694.83783,1207 a 6,6 0 0 1 6,-6 h 148 a 6,6 0 0 1 6,6 v 108 a 6,6 0 0 1 -6,6 h -148 a 6,6 0 0 1 -6,-6 z"
     stroke="#000000"
     stroke-width="2"
     fill="#ffffff"
     id="path66" />
  <use
     xlink:href="#x"
     transform="translate(728.15272,1270.5278)"
     id="use67" />
  <path
     d="m 694.83783,1407 a 6,6 0 0 1 6,-6 h 148 a 6,6 0 0 1 6,6 v 108 a 6,6 0 0 1 -6,6 h -148 a 6,6 0 0 1 -6,-6 z"
     stroke="#000000"
     stroke-width="2"
     fill="#ffffff"
     id="path67" />
  <use
     xlink:href="#y"
     transform="translate(723.68224,1470.5278)"
     id="use68" />
  <path
     d="m 994.83783,1122.5 v 261.12"
     stroke="#3a414a"
     fill="none"
     id="path68" />
  <path
     d="m 995.31783,1122.5 h -0.96 v -0.5 h 0.96 z"
     stroke="#3a414a"
     stroke-width="0.05"
     fill="#3a414a"
     id="path69" />
  <path
     d="m 994.83783,1398.38 -4.63,-14.26 h 9.26 z"
     stroke="#3a414a"
     fill="#3a414a"
     id="path70" />
  <path
     d="m 774.83783,942.5 v 41.12"
     stroke="#3a414a"
     fill="none"
     id="path71" />
  <path
     d="m 775.31783,942.5 h -0.96 V 942 h 0.96 z"
     stroke="#3a414a"
     stroke-width="0.05"
     fill="#3a414a"
     id="path72" />
  <path
     d="m 774.83783,998.38 -4.63,-14.26 h 9.26 z"
     stroke="#3a414a"
     fill="#3a414a"
     id="path73" />
  <path
     d="m 774.83783,1122.5 v 61.12"
     stroke="#3a414a"
     fill="none"
     id="path74" />
  <path
     d="m 775.31783,1122.5 h -0.96 v -0.5 h 0.96 z"
     stroke="#3a414a"
     stroke-width="0.05"
     fill="#3a414a"
     id="path75" />
  <path
     d="m 774.83783,1198.38 -4.63,-14.26 h 9.26 z"
     stroke="#3a414a"
     fill="#3a414a"
     id="path76" />
  <path
     d="m 774.83783,1322.5 v 61.12"
     stroke="#3a414a"
     fill="none"
     id="path77" />
  <path
     d="m 775.31783,1322.5 h -0.96 v -0.5 h 0.96 z"
     stroke="#3a414a"
     stroke-width="0.05"
     fill="#3a414a"
     id="path78" />
  <path
     d="m 774.83783,1398.38 -4.63,-14.26 h 9.26 z"
     stroke="#3a414a"
     fill="#3a414a"
     id="path79" />
  <path
     d="m 994.83783,1522.5 v 288.08 a 6,6 0 0 0 5.99997,6 h 376.62"
     stroke="#3a414a"
     fill="none"
     id="path80" />
  <path
     d="m 995.31783,1522.5 h -0.96 v -0.5 h 0.96 z"
     stroke="#3a414a"
     stroke-width="0.05"
     fill="#3a414a"
     id="path81" />
  <path
     d="m 1392.2178,1816.58 -14.26,4.63 v -9.26 z"
     stroke="#3a414a"
     fill="#3a414a"
     id="path82" />
  <path
     d="M 774.83783,1522.5 V 1855 a 6,6 0 0 0 6,6 h 596.61997"
     stroke="#3a414a"
     fill="none"
     id="path83" />
  <path
     d="m 775.31783,1522.5 h -0.96 v -0.5 h 0.96 z"
     stroke="#3a414a"
     stroke-width="0.05"
     fill="#3a414a"
     id="path84" />
  <path
     d="m 1392.2178,1861 -14.26,4.63 v -9.27 z"
     stroke="#3a414a"
     fill="#3a414a"
     id="path85" />
  <path
     d="m 1934.8378,1327 a 6,6 0 0 1 6,-6 h 148 a 6,6 0 0 1 6,6 v 108 a 6,6 0 0 1 -6,6 h -148 a 6,6 0 0 1 -6,-6 z"
     stroke="#000000"
     stroke-width="2"
     fill="#ffffff"
     id="path86" />
  <use
     xlink:href="#z"
     transform="translate(1982.6384,1390.5278)"
     id="use86" />
  <path
     d="m 2214.8378,1327 a 6,6 0 0 1 6,-6 h 148 a 6,6 0 0 1 6,6 v 108 a 6,6 0 0 1 -6,6 h -148 a 6,6 0 0 1 -6,-6 z"
     stroke="#000000"
     stroke-width="2"
     fill="#ffffff"
     id="path87" />
  <use
     xlink:href="#A"
     transform="translate(2263.718,1390.5278)"
     id="use87" />
  <path
     d="m 2214.8378,1507 a 6,6 0 0 1 6,-6 h 148 a 6,6 0 0 1 6,6 v 108 a 6,6 0 0 1 -6,6 h -148 a 6,6 0 0 1 -6,-6 z"
     stroke="#000000"
     stroke-width="2"
     fill="#ffffff"
     id="path88" />
  <use
     xlink:href="#B"
     transform="translate(2254.6251,1552.5278)"
     id="use88" />
  <use
     xlink:href="#C"
     transform="translate(2323.1147,1552.5278)"
     id="use89" />
  <use
     xlink:href="#D"
     transform="translate(2259.9908,1584.7934)"
     id="use90" />
  <path
     d="m 2214.8378,1007 a 6,6 0 0 1 6,-6 h 148 a 6,6 0 0 1 6,6 v 108 a 6,6 0 0 1 -6,6 h -148 a 6,6 0 0 1 -6,-6 z"
     stroke="#000000"
     stroke-width="2"
     fill="#ffffff"
     id="path90" />
  <use
     xlink:href="#E"
     transform="translate(2234.6924,1070.5278)"
     id="use91" />
  <path
     d="M 1480.8378,942.5 V 1125 a 6,6 0 0 0 6,6 h 476 a 6,6 0 0 1 6,6 v 166.62"
     stroke="#3a414a"
     fill="none"
     id="path91" />
  <path
     d="m 1481.3078,942.5 h -0.94 V 942 h 0.94 z"
     stroke="#3a414a"
     stroke-width="0.05"
     fill="#3a414a"
     id="path92" />
  <path
     d="m 1968.8378,1318.38 -4.63,-14.26 h 9.27 z"
     stroke="#3a414a"
     fill="#3a414a"
     id="path93" />
  <path
     d="m 1516.3378,881 h 772.5 a 6,6 0 0 1 6,6 v 96.62"
     stroke="#3a414a"
     fill="none"
     id="path94" />
  <path
     d="m 1516.3378,881.48 h -0.5 v -0.96 h 0.5 z"
     stroke="#3a414a"
     stroke-width="0.05"
     fill="#3a414a"
     id="path95" />
  <path
     d="m 2294.8378,998.38 -4.63,-14.26 h 9.27 z"
     stroke="#3a414a"
     fill="#3a414a"
     id="path96" />
  <path
     d="m 2294.8378,1442.5 v 41.12"
     stroke="#3a414a"
     fill="none"
     id="path97" />
  <path
     d="m 2295.3078,1442.5 h -0.94 v -0.5 h 0.94 z"
     stroke="#3a414a"
     stroke-width="0.05"
     fill="#3a414a"
     id="path98" />
  <path
     d="m 2294.8378,1498.38 -4.63,-14.26 h 9.27 z"
     stroke="#3a414a"
     fill="#3a414a"
     id="path99" />
  <path
     d="m 2214.8378,1707 a 6,6 0 0 1 6,-6 h 148 a 6,6 0 0 1 6,6 v 108 a 6,6 0 0 1 -6,6 h -148 a 6,6 0 0 1 -6,-6 z"
     stroke="#000000"
     stroke-width="2"
     fill="#ffffff"
     id="path100" />
  <use
     xlink:href="#F"
     transform="translate(2242.9986,1752.5278)"
     id="use100" />
  <use
     xlink:href="#G"
     transform="translate(2257.8424,1784.7934)"
     id="use101" />
  <path
     d="m 2294.8378,1622.5 v 61.12"
     stroke="#3a414a"
     fill="none"
     id="path101" />
  <path
     d="m 2295.3078,1622.5 h -0.94 v -0.5 h 0.94 z"
     stroke="#3a414a"
     stroke-width="0.05"
     fill="#3a414a"
     id="path102" />
  <path
     d="m 2294.8378,1698.38 -4.63,-14.26 h 9.27 z"
     stroke="#3a414a"
     fill="#3a414a"
     id="path103" />
  <path
     d="m 2287.9972,1821.0935 v 44.0086"
     stroke="#3a414a"
     fill="none"
     id="path101-0"
     style="stroke-width:0.848549" />
  <path
     d="m 2288.2286,1879.5244 -4.63,-14.26 h 9.27 z"
     stroke="#3a414a"
     fill="#3a414a"
     id="path103-9" />
  <path
     d="m 2527.2876,1891.597 v 30.317"
     stroke="#3a414a"
     fill="none"
     id="path101-0-1"
     style="stroke-width:0.704289" />
  <path
     d="m 2527.519,1936.3363 -4.63,-14.26 h 9.27 z"
     stroke="#3a414a"
     fill="#3a414a"
     id="path103-9-1" />
  <path
     d="m 2528.9244,1954 v 30.317"
     stroke="#3a414a"
     fill="none"
     id="path101-0-1-5"
     style="stroke-width:0.704289" />
  <path
     d="m 2529.1558,1998.7393 -4.63,-14.26 h 9.27 z"
     stroke="#3a414a"
     fill="#3a414a"
     id="path103-9-1-2" />
  <path
     d="m 2530.9244,2017 v 30.317"
     stroke="#3a414a"
     fill="none"
     id="path101-0-1-7"
     style="stroke-width:0.704289" />
  <path
     d="m 2531.1558,2061.7393 -4.63,-14.26 h 9.27 z"
     stroke="#3a414a"
     fill="#3a414a"
     id="path103-9-1-6" />
  <path
     d="m 1954.8378,1807 a 6,6 0 0 1 6,-6 h 148 a 6,6 0 0 1 6,6 v 108 a 6,6 0 0 1 -6,6 h -148 a 6,6 0 0 1 -6,-6 z"
     stroke="#000000"
     stroke-width="2"
     fill="#ffffff"
     id="path104" />
  <use
     xlink:href="#H"
     transform="translate(1996.4426,1870.5278)"
     id="use104" />
  <path
     d="m 2213.3378,1761 h -110.5 a 6,6 0 0 0 -6,6 v 16.62"
     stroke="#3a414a"
     fill="none"
     id="path105" />
  <path
     d="m 2213.8378,1761.47 h -0.5 v -0.94 h 0.5 z"
     stroke="#3a414a"
     stroke-width="0.05"
     fill="#3a414a"
     id="path106" />
  <path
     d="m 2096.8378,1798.38 -4.63,-14.26 h 9.27 z"
     stroke="#3a414a"
     fill="#3a414a"
     id="path107" />
  <path
     d="M 2014.8378,1442.5 V 1615 a 6,6 0 0 0 6,6 h 8 a 6,6 0 0 1 6,6 v 156.62"
     stroke="#3a414a"
     fill="none"
     id="path108" />
  <path
     d="m 2015.3078,1442.5 h -0.94 v -0.5 h 0.94 z"
     stroke="#3a414a"
     stroke-width="0.05"
     fill="#3a414a"
     id="path109" />
  <path
     d="m 2034.8378,1798.38 -4.63,-14.26 h 9.27 z"
     stroke="#3a414a"
     fill="#3a414a"
     id="path110" />
  <path
     d="m 1694.8378,1987 a 6,6 0 0 1 6,-6 h 148 a 6,6 0 0 1 6,6 v 108 a 6,6 0 0 1 -6,6 h -148 a 6,6 0 0 1 -6,-6 z"
     stroke="#000000"
     stroke-width="2"
     fill="#ffffff"
     id="path111" />
  <use
     xlink:href="#I"
     transform="translate(1737.5006,2050.5278)"
     id="use111" />
  <path
     d="m 1166.8378,1966 a 6,6 0 0 1 6,-6 h 148 a 6,6 0 0 1 6,6 v 108 a 6,6 0 0 1 -6,6 h -148 a 6,6 0 0 1 -6,-6 z"
     stroke="#000000"
     stroke-width="2"
     fill="#ffffff"
     id="path111-8" />
  <path
     d="m 1556.3378,1897 h 150.5 a 6,6 0 0 1 6,6 v 60.62"
     stroke="#3a414a"
     fill="none"
     id="path112" />
  <path
     d="m 1556.3378,1897.47 h -0.5 v -0.94 h 0.5 z"
     stroke="#3a414a"
     stroke-width="0.05"
     fill="#3a414a"
     id="path113" />
  <path
     d="m 1712.8378,1978.38 -4.63,-14.26 h 9.27 z"
     stroke="#3a414a"
     fill="#3a414a"
     id="path114" />
  <path
     d="m 1953.3378,1899 h -126.5 a 6,6 0 0 0 -6,6 v 58.62"
     stroke="#3a414a"
     fill="none"
     id="path115" />
  <path
     d="m 1953.8378,1899.47 h -0.5 v -0.94 h 0.5 z"
     stroke="#3a414a"
     stroke-width="0.05"
     fill="#3a414a"
     id="path116" />
  <path
     d="m 1820.8378,1978.38 -4.63,-14.26 h 9.27 z"
     stroke="#3a414a"
     fill="#3a414a"
     id="path117" />
  <path
     d="m 2214.8378,1167 a 6,6 0 0 1 6,-6 h 148 a 6,6 0 0 1 6,6 v 108 a 6,6 0 0 1 -6,6 h -148 a 6,6 0 0 1 -6,-6 z"
     stroke="#000000"
     stroke-width="2"
     fill="#ffffff"
     id="path118" />
  <use
     xlink:href="#J"
     transform="translate(2267.9606,1230.5278)"
     id="use118" />
  <path
     d="m 2494.8378,1327 a 6,6 0 0 1 6,-6 h 148 a 6,6 0 0 1 6,6 v 108 a 6,6 0 0 1 -6,6 h -148 a 6,6 0 0 1 -6,-6 z"
     stroke="#000000"
     stroke-width="2"
     fill="#ffffff"
     id="path119" />
  <use
     xlink:href="#K"
     transform="translate(2540.1807,1390.5278)"
     id="use119" />
  <path
     d="m 2494.8378,1507 a 6,6 0 0 1 6,-6 h 148 a 6,6 0 0 1 6,6 v 108 a 6,6 0 0 1 -6,6 h -148 a 6,6 0 0 1 -6,-6 z"
     stroke="#000000"
     stroke-width="2"
     fill="#ffffff"
     id="path120" />
  <use
     xlink:href="#L"
     transform="translate(2521.5989,1552.5278)"
     id="use120" />
  <use
     xlink:href="#M"
     transform="translate(2593.4088,1552.5278)"
     id="use121" />
  <use
     xlink:href="#N"
     transform="translate(2535.3304,1584.7934)"
     id="use122" />
  <path
     d="m 2294.8378,1282.5 v 21.12"
     stroke="#3a414a"
     fill="none"
     id="path122" />
  <path
     d="m 2295.3078,1282.5 h -0.94 v -0.5 h 0.94 z"
     stroke="#3a414a"
     stroke-width="0.05"
     fill="#3a414a"
     id="path123" />
  <path
     d="m 2294.8378,1318.38 -4.63,-14.26 h 9.27 z"
     stroke="#3a414a"
     fill="#3a414a"
     id="path124" />
  <path
     d="m 2295.7428,1120.995 v 21.12"
     stroke="#3a414a"
     fill="none"
     id="path122-4" />
  <path
     d="m 2295.7428,1156.875 -4.63,-14.26 h 9.27 z"
     stroke="#3a414a"
     fill="#3a414a"
     id="path124-8" />
  <path
     d="m 2376.3378,1221 h 192.5 a 6,6 0 0 1 6,6 v 76.62"
     stroke="#3a414a"
     fill="none"
     id="path125" />
  <path
     d="m 2376.3378,1221.47 h -0.5 v -0.94 h 0.5 z"
     stroke="#3a414a"
     stroke-width="0.05"
     fill="#3a414a"
     id="path126" />
  <path
     d="m 2574.8378,1318.38 -4.64,-14.26 h 9.28 z"
     stroke="#3a414a"
     fill="#3a414a"
     id="path127" />
  <path
     d="m 2574.8378,1442.5 v 41.12"
     stroke="#3a414a"
     fill="none"
     id="path128" />
  <path
     d="m 2575.3078,1442.5 h -0.94 v -0.5 h 0.94 z"
     stroke="#3a414a"
     stroke-width="0.05"
     fill="#3a414a"
     id="path129" />
  <path
     d="m 2574.8378,1498.38 -4.64,-14.26 h 9.28 z"
     stroke="#3a414a"
     fill="#3a414a"
     id="path130" />
  <text
     xml:space="preserve"
     style="font-size:26.4915px;text-align:start;writing-mode:lr-tb;direction:ltr;text-anchor:start;fill:#000000;stroke-width:2.20762"
     x="2204.1438"
     y="1916.6794"
     id="text376"><tspan
       sodipodi:role="line"
       id="tspan376"
       x="2204.1438"
       y="1916.6794"
       style="stroke-width:2.20762">Theophylact I</tspan></text>
  <text
     xml:space="preserve"
     style="font-size:26.4915px;text-align:start;writing-mode:lr-tb;direction:ltr;text-anchor:start;fill:#000000;stroke-width:2.20762"
     x="1187.3951"
     y="2027.6545"
     id="text376-4"><tspan
       sodipodi:role="line"
       id="tspan376-5"
       x="1187.3951"
       y="2027.6545"
       style="stroke-width:2.20762">Quraysh</tspan></text>
  <rect
     style="fill:none;stroke:#000000;stroke-opacity:1"
     id="rect376"
     width="206.23737"
     height="61.240788"
     x="2187.9329"
     y="1881.353" />
  <text
     xml:space="preserve"
     style="font-size:26.4915px;text-align:start;writing-mode:lr-tb;direction:ltr;text-anchor:start;fill:#000000;stroke-width:2.20762"
     x="2479.0876"
     y="1766.8085"
     id="text376-5"><tspan
       sodipodi:role="line"
       id="tspan376-1"
       x="2479.0876"
       y="1766.8085"
       style="stroke-width:2.20762">Mani</tspan></text>
  <rect
     style="fill:none;stroke:#000000;stroke-opacity:1"
     id="rect376-7"
     width="206.23737"
     height="61.240788"
     x="2413.3438"
     y="1726.979" />
  <path
     style="fill:#000000;fill-opacity:1;stroke:#000000;stroke-opacity:1"
     id="path377"
     d="m 1377.9083,1883.2688 c -13.6764,-2.7648 -27.6265,-3.5609 -41.5164,-4.4847 -10.2509,-0.4236 -20.8589,-1.9836 -30.9707,0.6012 -1.1409,0.2916 -2.2378,0.7343 -3.3567,1.1015 -3.4784,1.4244 -6.6664,3.5018 -9.2127,6.2874 -1.0175,1.113 -2.8006,3.4979 -3.7059,4.6807 -2.0279,3.0841 -4.8734,6.585 -5.6297,10.2976 -0.1565,0.768 -0.194,1.5556 -0.2909,2.3334 -0.5548,4.9446 0.1672,9.8572 0.9471,14.7288 0.7016,4.5004 1.2733,9.025 2.0397,13.5147 0.3517,1.9863 0.8899,3.9449 1.0679,5.9584 -0.047,0.8405 0,0.4086 -0.1586,1.2945 0,0 13.1343,7.068 13.1343,7.068 v 0 c 0.2911,-1.092 0.1789,-0.5471 0.3419,-1.6337 0.022,-2.153 -0.7255,-4.2146 -1.2028,-6.2939 -1.0177,-4.4526 -1.5551,-9.0085 -2.1971,-13.5263 -0.7399,-4.7512 -1.7265,-9.5082 -1.1076,-14.3436 0.2096,-1.5259 0.2393,-2.3369 0.7157,-3.7605 1.0115,-3.0227 2.8607,-5.7078 4.6569,-8.3007 1.4664,-1.8642 2.0759,-2.7375 3.7077,-4.4333 2.4592,-2.5557 5.3571,-4.587 8.6688,-5.8835 1.039,-0.3535 2.0575,-0.7739 3.1169,-1.0604 9.6433,-2.6077 19.8345,-1.4007 29.6576,-1.0995 13.3314,0.8867 26.8095,1.7857 39.803,5.1145 1.0974,0.2812 2.1699,0.6522 3.2549,0.9782 z" />
  <path
     style="fill:#000000;fill-opacity:1;stroke:#000000;stroke-opacity:1"
     id="path378"
     d="m 1261.6969,1923.5767 c 6.2759,4.84 13.1746,8.7789 19.8073,13.0945 2.9127,1.8013 5.5902,3.9137 8.174,6.1493 4.3692,3.7983 4.7816,4.2658 14.7965,7.3341 0.8639,0.2647 1.3514,-1.2 2.0418,-1.7828 2.2628,-1.9102 4.8921,-4.0371 7.2599,-5.748 1.6664,-1.2041 3.3915,-2.3246 5.0872,-3.4869 7.4069,-4.5557 3.7178,-2.383 11.0599,-6.5306 0,0 -11.3214,-7.3519 -11.3214,-7.3519 v 0 c -7.2647,4.2904 -3.5643,2.0898 -11.0995,6.6044 -1.7694,1.1364 -3.5522,2.2523 -5.3084,3.4091 -2.6514,1.7466 -5.2004,3.6484 -7.8852,5.3434 -0.6553,0.4138 -2.6215,0.6254 -2.0325,1.1291 3.2778,2.8031 15.993,10.6924 11.1173,6.6196 -1.12,-0.9076 -2.1597,-1.912 -3.2806,-2.8154 -1.6734,-1.3488 -3.513,-2.4915 -5.2957,-3.6835 -6.5013,-4.2059 -13.3371,-7.9416 -19.4277,-12.7493 z" />
  <path
     style="fill:#000000;fill-opacity:1;stroke:#000000;stroke-opacity:1"
     id="path380"
     d="m 2407.7678,1697.7855 c 2.5259,6.3701 6.5781,11.9715 10.9369,17.2025 5.6003,4.5135 6.4442,5.3971 16.8092,9.6643 0.8697,0.3581 1.8381,-0.444 2.6992,-0.8226 4.2948,-1.8885 8.0512,-5.1426 11.7215,-7.9688 4.4701,-3.4732 8.911,-6.9834 13.3411,-10.5072 0,0 -12.2497,-7.685 -12.2497,-7.685 v 0 c -4.3504,3.5807 -8.71,7.1528 -13.2393,10.5078 -3.2927,2.3989 -7.671,6.0462 -11.7039,7.1938 -0.7265,0.2067 -2.8529,-0.32 -2.261,0.1494 1.105,0.8764 16.4547,9.9471 8.4191,5.1909 -4.4273,-4.9419 -8.4947,-10.4156 -10.9645,-16.616 z" />
  <path
     style="fill:#000000;fill-opacity:1;stroke:#000000;stroke-opacity:1"
     id="path381"
     d="m 2439.5913,1718.5777 c 0.2614,-7.1494 0.4978,-14.2966 0.6117,-21.45 -0.032,-6.9418 0.3588,-13.8707 0.6772,-20.8019 0.2859,-6.8497 0.3041,-13.7061 0.3233,-20.5604 0.05,-7.2219 0.1947,-14.431 -0.6763,-21.611 -0.6031,-4.5984 -1.6309,-9.4074 -4.4453,-13.223 -0.6039,-0.8189 -1.3376,-1.5336 -2.0064,-2.3004 -1.0905,-0.8479 -2.137,-1.7558 -3.2717,-2.5438 -1.1869,-0.8242 -2.4316,-1.564 -3.6831,-2.2862 -9.8867,-5.7052 -15.6546,-9.5336 -25.3937,-12.9933 -4.2694,-1.9323 -8.8137,-2.5314 -13.4337,-2.8755 -3.375,-0.1975 -6.7568,-0.1982 -10.1363,-0.1944 -1.4283,0 -2.8566,0.01 -4.285,0.014 0,0 12.1333,8.805 12.1333,8.805 v 0 c 1.4159,-0.011 2.8317,-0.026 4.2476,-0.037 3.3253,-0.019 6.6546,-0.018 9.9725,0.2362 4.5247,0.4277 8.9117,1.3121 13.1103,3.1227 2.3564,0.8817 3.3607,1.2108 5.6878,2.2809 1.1136,0.5121 4.3267,2.2903 3.302,1.6178 -2.8475,-1.8685 -5.8696,-3.4567 -8.7858,-5.2163 -1.2211,-0.7368 2.495,1.3857 3.7004,2.1478 1.1115,0.7027 2.1634,1.4956 3.245,2.2434 0.6932,0.6826 1.4487,1.3072 2.0794,2.0479 2.9948,3.5163 4.1236,8.1984 4.7686,12.6485 1.0183,7.1233 0.952,14.2851 0.838,21.4691 -0.043,6.8269 -0.1,13.6552 -0.3611,20.4779 -0.2764,6.9565 -0.6946,13.9087 -0.6223,20.874 -0.1169,7.1088 -0.2897,14.2213 -0.7714,21.316 z" />
  <text
     xml:space="preserve"
     style="font-size:48.1951px;text-align:start;writing-mode:lr-tb;direction:ltr;text-anchor:start;fill:#000000;fill-opacity:1;stroke:#000000;stroke-width:4.01626;stroke-opacity:1"
     x="198.83368"
     y="1787.9785"
     id="text381"><tspan
       sodipodi:role="line"
       id="tspan381"
       x="198.83368"
       y="1787.9785"
       style="stroke-width:4.01626">Heo Hwang-ok</tspan><tspan
       sodipodi:role="line"
       x="198.83368"
       y="1848.2224"
       id="tspan382"
       style="stroke-width:4.01626" /></text>
  <text
     xml:space="preserve"
     style="font-size:28.7385px;text-align:start;writing-mode:lr-tb;direction:ltr;text-anchor:start;fill:#000000;fill-opacity:1;stroke:#000000;stroke-width:2.39487;stroke-opacity:1"
     x="418.86206"
     y="1499.3759"
     id="text383"><tspan
       sodipodi:role="line"
       id="tspan383"
       x="418.86206"
       y="1499.3759"
       style="stroke-width:2.39487">Indo Greek</tspan></text>
  <text
     xml:space="preserve"
     style="font-size:32.7763px;text-align:start;writing-mode:lr-tb;direction:ltr;text-anchor:start;fill:#000000;fill-opacity:1;stroke:#000000;stroke-width:2.73136;stroke-opacity:1"
     x="208.46555"
     y="1505.296"
     id="text384"><tspan
       sodipodi:role="line"
       id="tspan384"
       x="208.46555"
       y="1505.296"
       style="stroke-width:2.73136">Ashoka</tspan></text>
  <text
     xml:space="preserve"
     style="font-size:40.7267px;text-align:start;writing-mode:lr-tb;direction:ltr;text-anchor:start;fill:#000000;fill-opacity:1;stroke:#000000;stroke-width:3.39389;stroke-opacity:1"
     x="207.18243"
     y="1358.9253"
     id="text385"><tspan
       sodipodi:role="line"
       id="tspan385"
       x="207.18243"
       y="1358.9253"
       style="stroke-width:3.39389">Rama</tspan></text>
  <path
     style="fill:#000000;fill-opacity:1;stroke:#000000;stroke-opacity:1"
     id="path385"
     d="m 662.62066,1259.3195 c -18.31757,-2.9797 -36.8872,-3.4355 -55.39872,-3.8722 -26.85337,-0.6452 -53.75424,-0.4637 -80.53806,1.7149 -4.89105,0.8133 -10.51396,1.4295 -14.20015,5.2296 -3.01168,3.1048 -3.26079,7.2093 -3.65073,11.2379 1.35609,13.0765 6.6777,25.3076 10.84791,37.6674 4.27222,12.6958 6.06189,25.8744 6.907,39.1762 0.52336,13.7462 0.71276,27.5172 0.28589,41.2681 -0.30831,12.4517 -2.64344,24.7474 -5.3591,36.8694 0,0 13.0369,7.004 13.0369,7.004 v 0 c 2.66732,-12.2233 4.96087,-24.6368 5.3826,-37.1628 0.50957,-13.791 0.16444,-27.6038 -0.23399,-41.3948 -0.73316,-13.432 -2.5227,-26.7075 -6.76622,-39.5413 -4.10093,-12.1846 -9.21188,-24.2208 -10.93756,-37.0359 0.22118,-2.9549 0.073,-4.8308 1.31378,-7.5462 2.6136,-5.7198 9.87022,-6.3855 15.21714,-7.3198 26.6573,-2.3796 53.44795,-2.6186 80.18762,-1.7683 18.64641,0.5814 37.37285,1.1534 55.78579,4.4264 z" />
  <path
     style="fill:#000000;fill-opacity:1;stroke:#000000;stroke-opacity:1"
     id="path386"
     d="m 482.13059,1393.1043 c 9.64375,7.1845 18.70084,15.1732 27.14859,23.7269 10.81943,11.5518 13.00674,17.2511 30.33461,22.6279 1.48126,0.4597 2.95459,-0.9444 4.43188,-1.4166 1.77286,-0.9646 3.6003,-1.8351 5.31859,-2.8939 3.23711,-1.9947 11.91795,-8.1589 14.73096,-10.1284 9.81268,-6.8703 5.80984,-4.0895 15.36015,-10.6521 0,0 -12.25008,-7.8152 -12.25008,-7.8152 v 0 c -9.80635,6.8074 -19.84891,14.5851 -30.15923,20.5167 -1.68139,0.9673 -3.48053,1.7137 -5.2208,2.5706 -7.9163,1.6456 -5.1255,0.027 5.35788,7.4728 1.0145,0.7206 -2.16816,-1.2588 -3.09012,-2.0945 -4.14408,-3.7565 -6.95006,-8.9014 -11.22957,-12.5438 -8.34848,-8.5964 -17.36638,-16.5581 -26.8543,-23.8747 z" />
  <path
     style="fill:#000000;fill-opacity:1;stroke:#000000;stroke-opacity:1"
     id="path387"
     d="m 258.8794,1382.8344 c 2.08595,11.0971 3.32779,22.3275 4.83287,33.5126 1.36939,8.0067 2.71689,15.998 3.3722,24.0983 0.41065,5.9193 0.44185,11.8554 0.45083,17.7861 0,0 13.31338,6.7797 13.31338,6.7797 v 0 c -0.0183,-5.9722 -0.0389,-11.949 -0.43959,-17.9107 -0.65107,-8.1503 -1.94145,-16.1899 -3.44726,-24.2251 -1.51605,-11.1609 -2.88768,-22.3435 -4.67479,-33.4652 z" />
  <path
     style="fill:#000000;fill-opacity:1;stroke:#000000;stroke-opacity:1"
     id="path388"
     d="m 245.71317,1435.9234 c 7.06857,3.8782 12.75482,9.4405 17.98339,15.479 3.34359,4.4438 6.69446,8.9097 9.60104,13.6557 3.42585,6.1777 6.53844,6.1574 15.90515,9.7738 0.66735,0.2577 4.41746,-4.2485 4.6223,-4.469 7.30855,-7.3701 15.91123,-13.2676 24.22248,-19.4265 1.32597,-1.0042 2.65193,-2.0083 3.9779,-3.0125 0,0 -12.50867,-7.8987 -12.50867,-7.8987 v 0 c -1.313,1.0058 -2.626,2.0116 -3.93901,3.0173 -8.36802,6.249 -17.02962,12.2141 -24.50957,19.5436 -0.47812,0.487 -2.35432,2.4818 -3.15138,3.0522 -0.29676,0.2124 -1.283,0.2694 -0.98439,0.4792 3.84582,2.7019 8.04501,4.862 12.06148,7.303 0.34826,0.2117 -0.78588,-0.3104 -1.05668,-0.6149 -0.42628,-0.4794 -0.64584,-1.1086 -0.96876,-1.663 -2.7116,-4.9512 -6.38876,-9.3172 -9.5984,-13.9472 -5.11326,-6.114 -10.64329,-11.9544 -17.71961,-15.8187 z" />
  <text
     xml:space="preserve"
     style="font-size:44.4044px;text-align:start;writing-mode:lr-tb;direction:ltr;text-anchor:start;fill:#000000;fill-opacity:1;stroke:#000000;stroke-width:3.70037;stroke-opacity:1"
     x="303.01566"
     y="1646.533"
     id="text389"><tspan
       sodipodi:role="line"
       id="tspan389"
       x="303.01566"
       y="1646.533"
       style="stroke-width:3.70037">Ayuta</tspan></text>
  <path
     style="fill:#000000;fill-opacity:1;stroke:#000000;stroke-opacity:1"
     id="path389"
     d="m 267.88151,1520.0075 c 3.63443,7.8131 6.40978,15.9932 9.57923,24.002 3.35138,7.7587 6.0426,15.775 9.10189,23.6498 1.81207,4.4467 4.56012,8.3984 6.69636,12.6896 0.41137,0.8801 0.82273,1.7602 1.23409,2.6403 0,0 13.4101,6.1105 13.4101,6.1105 v 0 c -0.41399,-0.8875 -0.82799,-1.7751 -1.24199,-2.6626 -2.01648,-4.3384 -4.55562,-8.3468 -6.72733,-12.5946 -3.24406,-7.8653 -6.02593,-15.9007 -9.31068,-23.7463 -3.20653,-7.9113 -6.04922,-15.9547 -9.1108,-23.9217 z" />
  <path
     style="fill:#000000;fill-opacity:1;stroke:#000000;stroke-opacity:1"
     id="path390"
     d="m 263.05699,1568.0796 c 6.82673,6.406 13.50795,12.9632 20.31773,19.3875 7.61465,7.1365 13.00796,11.1098 23.6451,15.3893 0.62676,0.2522 1.1532,-0.7041 1.72981,-1.0561 0.55536,-0.7176 1.20867,-1.3691 1.6661,-2.1527 0.40763,-0.6983 3.57491,-7.8504 3.65284,-8.0148 2.45756,-5.185 5.27818,-10.0724 8.31454,-14.9335 0.98606,-1.3917 1.97213,-2.7833 2.95819,-4.175 0,0 -12.44922,-7.3296 -12.44922,-7.3296 v 0 c -0.97782,1.4259 -1.95563,2.8517 -2.93344,4.2776 -3.03912,4.9165 -5.88581,9.8667 -8.48617,15.0318 -0.0118,0.023 -3.29155,6.8119 -3.75097,7.524 -0.37574,0.5825 -0.93379,1.0246 -1.40068,1.5368 -5.44368,1.3021 -1.62974,0.097 10.07914,7.1706 0.60106,0.3631 -1.19408,-0.7417 -1.76203,-1.1547 -2.76135,-2.0079 -5.22542,-4.3898 -7.8204,-6.5978 -6.77528,-6.2875 -13.38635,-12.7405 -19.9951,-19.2016 z" />
  <path
     style="fill:#000000;fill-opacity:1;stroke:#000000;stroke-opacity:1"
     id="path391"
     d="m 459.33852,1523.7372 c -0.66727,12.323 -5.53729,23.957 -9.74681,35.4124 -3.42773,9.2054 -8.00667,17.8474 -13.68132,25.8425 -2.95263,3.4097 -5.67808,6.9731 -8.32514,10.6233 -1.71456,2.4049 -3.46206,4.773 -5.5486,6.8673 0,0 12.7276,7.754 12.7276,7.754 v 0 c 2.01824,-2.2255 3.75531,-4.6692 5.52575,-7.0938 2.71855,-3.6095 5.54146,-7.1234 8.32228,-10.6823 5.51209,-8.2522 9.85289,-17.1578 13.40697,-26.4248 4.14845,-11.6194 8.93111,-23.227 10.61438,-35.5244 z" />
  <path
     style="fill:#000000;fill-opacity:1;stroke:#000000;stroke-opacity:1"
     id="path392"
     d="m 410.28169,1573.2788 c 3.47987,5.7965 6.25708,11.9688 9.28674,18.0033 1.98389,3.8466 3.48344,7.9102 5.33067,11.8205 3.9213,7.7713 3.10162,6.7835 16.39333,12.2584 0.86822,0.3576 1.78058,-0.5969 2.67087,-0.8954 8.71722,-3.5904 17.44964,-7.133 26.22051,-10.5943 1.36254,-0.5162 2.72508,-1.0325 4.08762,-1.5488 0,0 -12.07803,-8.1132 -12.07803,-8.1132 v 0 c -1.34843,0.5296 -2.69686,1.0591 -4.0453,1.5887 -4.48362,1.7575 -8.96781,3.5034 -13.41725,5.3464 -2.1205,0.8784 -6.80025,2.876 -8.99953,3.6653 -1.28752,0.4622 -2.60866,0.8246 -3.91299,1.2369 -6.86826,0.7165 -3.62236,-0.1231 9.19074,7.475 0.28746,0.1705 -0.48904,-0.4626 -0.67941,-0.7373 -0.75464,-1.0889 -1.08104,-2.4305 -1.82928,-3.5249 -2.0405,-3.8973 -3.53266,-8.0378 -5.5641,-11.9393 -3.05692,-5.9533 -5.81204,-12.0558 -9.01908,-17.9307 z" />
  <path
     style="fill:#000000;fill-opacity:1;stroke:#000000;stroke-opacity:1"
     id="path393"
     d="m 354.1887,1664.9626 c 1.64484,13.3732 2.23965,26.8607 2.85017,40.3145 0.50518,8.6319 0.3163,17.2871 0.67909,25.9217 0.11126,2.3132 0.27641,4.6182 0.51647,6.921 0,0 13.30664,6.5837 13.30664,6.5837 v 0 c -0.30365,-2.284 -0.51011,-4.5717 -0.63508,-6.8735 -0.56634,-8.7186 -0.62057,-17.4705 -1.22552,-26.189 -0.69399,-13.3603 -1.34322,-26.7253 -2.20648,-40.0752 z" />
  <path
     style="fill:#000000;fill-opacity:1;stroke:#000000;stroke-opacity:1"
     id="path394"
     d="m 324.04284,1705.5794 c 5.49496,5.285 10.93325,10.628 16.41637,15.9252 3.56662,3.5004 7.2839,6.8398 10.83725,10.3534 3.04939,2.7962 5.84891,5.8008 8.61747,8.8692 4.65817,4.6471 3.94622,4.1355 15.13287,9.3239 0.65038,0.3016 1.38667,-0.4025 2.02018,-0.7381 2.68745,-1.4237 5.06863,-3.9273 7.24974,-5.832 2.00957,-1.7549 4.03045,-3.4968 6.04567,-5.2452 9.44269,-8.2615 19.29059,-16.0336 29.0971,-23.8522 3.08005,-2.3405 1.60288,-1.2795 4.41219,-3.2097 0,0 -12.49747,-7.9387 -12.49747,-7.9387 v 0 c -2.74063,2.0654 -1.30213,0.9427 -4.29996,3.388 -9.56427,8.035 -19.10469,16.0977 -28.64736,24.1583 -2.93045,2.4009 -7.87387,6.6025 -11.2147,8.8356 -0.72721,0.4861 -1.50753,0.9307 -2.34889,1.1699 -0.47046,0.1338 -1.87002,-0.3595 -1.46483,-0.086 16.73056,11.3122 14.24589,9.2732 10.22869,5.7637 -1.48866,-1.5509 -2.77737,-3.2775 -4.25418,-4.8299 -1.37159,-1.4418 -3.0658,-2.5689 -4.35464,-4.0989 -3.5886,-3.5795 -7.35726,-6.9559 -11.02103,-10.4577 -5.45896,-5.1905 -10.9257,-10.3993 -16.11006,-15.8598 z" />
  <text
     xml:space="preserve"
     style="font-size:35.3398px;text-align:start;writing-mode:lr-tb;direction:ltr;text-anchor:start;fill:#000000;fill-opacity:1;stroke:#000000;stroke-width:2.94499;stroke-opacity:1"
     x="-2.0649364"
     y="2058.8618"
     id="text395"><tspan
       sodipodi:role="line"
       id="tspan395"
       x="-2.0649364"
       y="2058.8618"
       style="stroke-width:2.94499">Korean nobility</tspan></text>
  <text
     xml:space="preserve"
     style="font-size:32.7021px;text-align:start;writing-mode:lr-tb;direction:ltr;text-anchor:start;fill:#000000;fill-opacity:1;stroke:#000000;stroke-width:2.72518;stroke-opacity:1"
     x="325.51852"
     y="2062.7698"
     id="text396"><tspan
       sodipodi:role="line"
       id="tspan396"
       x="325.51852"
       y="2062.7698"
       style="stroke-width:2.72518">Japanese nobility</tspan></text>
  <text
     xml:space="preserve"
     style="font-size:37.513px;text-align:start;writing-mode:lr-tb;direction:ltr;text-anchor:start;fill:#000000;fill-opacity:1;stroke:#000000;stroke-width:3.12609;stroke-opacity:1"
     x="2400.7937"
     y="958.20306"
     id="text397"><tspan
       sodipodi:role="line"
       id="tspan397"
       x="2400.7937"
       y="958.20306"
       style="stroke-width:3.12609">Zarathustra</tspan></text>
  <path
     style="fill:#000000;fill-opacity:1;stroke:#000000;stroke-opacity:1"
     id="path397"
     d="m 2472.878,979.57488 c 0.345,11.29086 0.978,22.61132 0.2638,33.90242 -0.1886,2.9815 -0.5591,5.9487 -0.8387,8.923 -1.0119,8.1515 -3.2631,16.0225 -6.5663,23.5319 -1.6225,3.6887 -3.8032,7.9344 -6.2501,11.1983 -1.0726,1.4307 -2.3785,2.6707 -3.5677,4.0061 -1.2625,1.0577 -2.4254,2.2474 -3.7877,3.1732 -5.5452,3.768 -14.1728,6.4073 -20.8095,6.9353 -2.107,0.1676 -4.227,0.05 -6.3406,0.075 -7.7994,-0.2384 -15.413,-1.9784 -22.9721,-3.7578 0,0 11.3122,8.6072 11.3122,8.6072 v 0 c 7.564,1.6182 15.1767,3.2215 22.9489,3.3172 2.1714,-0.063 4.3516,0.017 6.5142,-0.188 6.8518,-0.6506 15.7368,-3.4721 21.3921,-7.4848 1.3898,-0.9861 2.5509,-2.2605 3.8263,-3.3907 1.1967,-1.4182 2.5168,-2.7408 3.5901,-4.2546 2.392,-3.3739 4.5129,-7.816 6.0975,-11.5773 3.2362,-7.6819 5.5754,-15.6708 6.5474,-23.9707 0.2741,-3.0031 0.6133,-6.0009 0.8222,-9.0092 0.7699,-11.0886 0.3931,-22.2121 1.0255,-33.30714 z" />
  <path
     style="fill:#000000;fill-opacity:1;stroke:#000000;stroke-opacity:1"
     id="path398"
     d="m 2422.1185,1036.7101 c -0.7137,0.8981 -1.4115,1.8089 -2.1409,2.6942 -2.1882,2.6557 -4.4642,5.2379 -6.6639,7.8841 -3.0006,3.6098 -5.8495,7.3197 -8.6769,11.0648 -2.9619,4.2174 -6.1143,8.5018 -7.8012,13.4233 -0.4987,2.0504 0.3793,3.1338 1.752,4.6565 1.0003,1.1097 2.0961,2.1302 3.1066,3.2306 4.2797,4.661 6.2542,7.0882 10.4886,12.0657 7.2601,8.5779 14.3996,17.2557 21.544,25.9296 0,0 13.1911,5.5912 13.1911,5.5912 v 0 c -7.5382,-8.6487 -14.9406,-17.4174 -22.2831,-26.2326 -3.2388,-3.9448 -6.4145,-7.9426 -9.7265,-11.8262 -0.8952,-1.0496 -1.8198,-2.0748 -2.7715,-3.0735 -0.4905,-0.5147 -1.048,-0.9617 -1.5519,-1.4634 -0.2473,-0.2462 -0.5686,-0.4553 -0.7,-0.7787 -0.1229,-0.3028 -0.01,-0.6535 -0.014,-0.9802 1.1817,-4.8978 4.4702,-9.0553 7.1314,-13.222 5.3603,-7.5254 11.033,-14.8782 17.8543,-21.1576 z" />
  <text
     xml:space="preserve"
     style="font-size:18.518px;text-align:start;writing-mode:lr-tb;direction:ltr;text-anchor:start;fill:#000000;fill-opacity:1;stroke:#000000;stroke-width:1.54317;stroke-opacity:1"
     x="2432.8274"
     y="1881.6071"
     id="text398"><tspan
       sodipodi:role="line"
       id="tspan398"
       x="2432.8274"
       y="1881.6071"
       style="stroke-width:1.54317">Uyghurs and Sogdians</tspan></text>
  <text
     xml:space="preserve"
     style="font-size:19.2183px;text-align:start;writing-mode:lr-tb;direction:ltr;text-anchor:start;fill:#000000;fill-opacity:1;stroke:#000000;stroke-width:1.60153;stroke-opacity:1"
     x="2475.3477"
     y="1951.6415"
     id="text399"><tspan
       sodipodi:role="line"
       id="tspan399"
       x="2475.3477"
       y="1951.6415"
       style="stroke-width:1.60153">Wu Zetian</tspan></text>
  <text
     xml:space="preserve"
     style="font-size:16.8761px;text-align:start;writing-mode:lr-tb;direction:ltr;text-anchor:start;fill:#000000;fill-opacity:1;stroke:#000000;stroke-width:1.40634;stroke-opacity:1"
     x="2453.2754"
     y="2013.1803"
     id="text400"><tspan
       sodipodi:role="line"
       id="tspan400"
       x="2453.2754"
       y="2013.1803"
       style="stroke-width:1.40634">Chinese nobility</tspan></text>
  <text
     xml:space="preserve"
     style="font-size:14.0716px;text-align:start;writing-mode:lr-tb;direction:ltr;text-anchor:start;fill:#000000;fill-opacity:1;stroke:#000000;stroke-width:1.17263;stroke-opacity:1"
     x="2436.5574"
     y="2077.6865"
     id="text401"><tspan
       sodipodi:role="line"
       id="tspan401"
       x="2436.5574"
       y="2077.6865"
       style="stroke-width:1.17263">Japanese and Korean nobility</tspan></text>
  <path
     style="fill:#000000;fill-opacity:1;stroke:#000000;stroke-opacity:1"
     id="path401"
     d="m 2519.6538,1801.0876 c 1.9214,7.3682 2.372,15.0141 2.7493,22.5879 0.2418,5.6514 0.2583,11.3088 0.169,16.9636 -0.039,2.9146 -0.019,5.8298 -0.013,8.7447 0,0.5136 -0.01,1.0273 -0.01,1.5409 0,0 13.2158,6.7362 13.2158,6.7362 v 0 c 0,-0.5156 0,-1.0313 0,-1.5469 0.017,-2.918 0.06,-5.8366 0.016,-8.7544 -0.1435,-5.7517 -0.3404,-11.5022 -0.5898,-17.2503 -0.3817,-7.5702 -0.7804,-15.1537 -2.1406,-22.626 z" />
  <path
     style="fill:#000000;fill-opacity:1;stroke:#000000;stroke-opacity:1"
     id="path402"
     d="m 2510.368,1840.1191 c 0.6307,0.2761 1.2737,0.5257 1.8921,0.8283 0.9647,0.4721 1.9138,0.9761 2.8545,1.4942 1.1893,0.655 4.727,2.6735 3.5345,2.0243 -2.7973,-1.523 -5.444,-3.3413 -8.3496,-4.6459 -1.4261,-0.6402 2.5954,1.7431 3.8771,2.6379 1.2102,0.8449 2.3986,1.7207 3.5979,2.581 6.5782,5.1526 12.9075,9.0365 20.8441,12.7641 1.0984,0.5159 2.4164,0.3595 3.6285,0.2983 3.5408,-0.1788 5.8812,-1.1797 9.2622,-2.2474 7.1272,-2.3725 13.6824,-6.1141 20.737,-8.6476 1.4097,-0.4345 2.6832,-0.9785 3.8469,-1.8704 0,0 -12.6348,-7.9956 -12.6348,-7.9956 v 0 c -1.0413,0.7478 -2.2231,1.1988 -3.4119,1.6721 -6.8041,2.8199 -13.1536,6.6776 -20.2401,8.8319 -3.4623,0.9071 -5.5661,1.7729 -9.1376,1.5924 -1.1645,-0.059 -4.3231,-1.4497 -3.426,-0.7049 2.8999,2.4073 6.3719,4.0335 9.6583,5.8785 2.1082,1.1836 -8.7872,-5.9969 -5.831,-4.3136 -1.091,-0.7891 -6.3841,-4.6464 -7.4668,-5.31 -5.323,-3.2625 -10.7299,-6.3863 -16.1157,-9.5441 -2.8789,-1.688 -5.8216,-3.3368 -8.9702,-4.4727 z" />
  <path
     style="fill:#000000;fill-opacity:1;stroke:#000000;stroke-opacity:1"
     id="path403"
     d="m 2197.8208,1542.8535 c -2.6853,0.5164 -5.4104,0.7725 -8.1073,1.2117 -10.5031,1.7105 -5.2433,1.2509 -18.1505,2.6689 -11.1478,1.2247 -16.6165,1.5026 -27.9651,2.3151 -25.4022,1.5858 -50.8553,2.0366 -76.3007,2.1766 -23.2198,-0.3708 -46.3923,1.4577 -69.4846,3.6957 -28.9142,2.632 -57.5839,7.2046 -86.1433,12.3363 -5.0336,1.0181 -10.0842,1.9554 -15.1008,3.0542 -5.1465,1.1272 -10.2655,2.3773 -15.3846,3.623 -13.6148,3.313 -27.2327,6.834 -40.5485,11.2228 -3.7613,1.2398 -7.4635,2.6521 -11.1953,3.9781 -14.3432,5.5748 -28.6395,11.3019 -42.5818,17.8277 -9.3466,4.3748 -12.3393,5.9946 -21.4908,10.6568 -11.6176,5.9467 -22.9709,12.4429 -33.8524,19.6563 -4.2433,2.8129 -8.1737,5.6833 -12.3067,8.6448 -10.9355,8.0144 -21.2084,16.8943 -31.602,25.5903 -8.9838,7.7374 -17.11,16.3882 -25.3743,24.8719 -6.2941,6.6518 -12.2894,13.5578 -18.8811,19.9197 -6.8377,6.3982 -13.5913,12.8759 -20.5727,19.1186 -9.8272,8.7977 -19.5416,17.7375 -28.8967,27.0382 -2.3824,2.3874 -4.743,4.85 -6.7325,7.5854 -1.1862,1.631 -2.1665,3.4336 -3.2189,5.152 -1.6819,2.7077 -3.1846,5.5113 -4.6918,8.316 -1.3127,2.542 -3.0615,4.8212 -4.855,7.0365 0,0 12.721,7.6044 12.721,7.6044 v 0 c 1.8281,-2.3045 3.6379,-4.642 5.0859,-7.2111 1.5101,-2.7753 2.9225,-5.6032 4.6136,-8.28 1.0001,-1.6828 1.9306,-3.4469 3.04,-5.0605 1.8741,-2.7259 4.1038,-5.203 6.3687,-7.6023 9.0924,-9.5019 18.7823,-18.4176 28.7307,-27.0146 1.8299,-1.5764 6.5838,-5.6473 8.526,-7.4076 4.1749,-3.7839 8.0031,-7.9362 12.2047,-11.693 6.6061,-6.3693 12.7345,-13.1716 18.8919,-19.9712 8.163,-8.4871 16.1633,-17.1658 25.085,-24.8747 10.358,-8.6858 20.7155,-17.3926 31.5218,-25.5198 4.0538,-2.9461 7.9874,-5.855 12.1422,-8.6639 10.7251,-7.2512 21.892,-13.8515 33.3982,-19.7835 3.51,-1.7934 6.9941,-3.6381 10.5298,-5.3802 17.4022,-8.5743 35.3641,-15.9602 53.4476,-22.9578 3.6969,-1.3274 7.3689,-2.7259 11.0905,-3.982 23.0389,-7.7762 46.7862,-13.3253 70.6281,-17.9797 12.5775,-2.2615 17.909,-3.3115 30.5793,-5.2207 18.4903,-2.7863 37.0727,-5.0127 55.6737,-6.9033 12.637,-1.1705 14.551,-1.4527 27.1133,-2.2059 11.1811,-0.6704 22.3344,-0.9334 33.5309,-1.0051 3.0696,-0.02 6.1391,-0.054 9.2087,-0.081 25.285,-0.4394 50.571,-1.0915 75.8174,-2.6208 13.2744,-0.8827 26.5528,-1.7357 39.7731,-3.2653 6.2759,-0.7261 6.6299,-1.0296 12.0381,-1.577 1.2394,-0.1254 2.4842,-0.1905 3.7262,-0.2858 z" />
  <path
     style="fill:#000000;fill-opacity:1;stroke:#000000;stroke-opacity:1"
     id="path404"
     d="m 1552.5226,1730.8186 c 1.8564,7.7383 2.3032,15.7118 3.1765,23.5962 0.957,9.6785 3.9305,18.9581 6.8466,28.1823 2.07,6.4599 4.5886,12.7688 7.1408,19.0508 3.1364,6.834 6.6313,6.9505 15.9029,11.0101 0.4218,0.1847 0.7315,-0.5605 1.0779,-0.8639 0.4238,-0.3713 0.8205,-0.7724 1.2307,-1.1586 7.335,-5.5806 16.777,-7.1873 25.5103,-9.3813 12.5116,-3.4502 25.306,-5.5896 38.1596,-7.258 0,0 -11.8168,-8.3349 -11.8168,-8.3349 v 0 c -12.8027,1.952 -25.5893,4.1076 -38.1087,7.4762 -9.0505,2.239 -18.7295,3.9675 -26.4008,9.6103 -0.3847,0.297 -0.7332,0.6479 -1.154,0.8911 -0.1739,0.1005 -0.7607,0.01 -0.5911,0.1173 28.1601,17.9091 12.9236,9.1733 10.5396,5.625 -0.3299,-0.491 -0.587,-1.0273 -0.8805,-1.5409 -2.78,-6.2239 -5.2927,-12.5945 -7.4699,-19.0523 -2.9528,-9.1382 -6.0286,-18.3106 -6.9763,-27.9261 -0.8925,-7.8626 -1.3924,-15.775 -2.7091,-23.5869 z" />
</svg>
