<?xml version="1.0" encoding="UTF-8" standalone="no"?>
<!-- Created with Inkscape (http://www.inkscape.org/) -->

<svg
   id="svg2"
   version="1.1"
   inkscape:version="1.1 (c68e22c387, 2021-05-23)"
   width="1183.9579"
   height="1064.8156"
   viewBox="0 0 1183.9579 1064.8155"
   sodipodi:docname="Mental Model.svg"
   inkscape:export-filename="C:\Users\silic\Dropbox\My PC (LAPTOP-D0O3697V)\Downloads\Mental Model.png"
   inkscape:export-xdpi="96"
   inkscape:export-ydpi="96"
   xmlns:inkscape="http://www.inkscape.org/namespaces/inkscape"
   xmlns:sodipodi="http://sodipodi.sourceforge.net/DTD/sodipodi-0.dtd"
   xmlns="http://www.w3.org/2000/svg"
   xmlns:svg="http://www.w3.org/2000/svg"
   xmlns:rdf="http://www.w3.org/1999/02/22-rdf-syntax-ns#"
   xmlns:cc="http://creativecommons.org/ns#"
   xmlns:dc="http://purl.org/dc/elements/1.1/">
  <metadata
     id="metadata8">
    <rdf:RDF>
      <cc:Work
         rdf:about="">
        <dc:format>image/svg+xml</dc:format>
        <dc:type
           rdf:resource="http://purl.org/dc/dcmitype/StillImage" />
      </cc:Work>
    </rdf:RDF>
  </metadata>
  <defs
     id="defs6" />
  <sodipodi:namedview
     pagecolor="#ffffff"
     bordercolor="#666666"
     borderopacity="1"
     objecttolerance="10"
     gridtolerance="10"
     guidetolerance="10"
     inkscape:pageopacity="0"
     inkscape:pageshadow="2"
     inkscape:window-width="1920"
     inkscape:window-height="991"
     id="namedview4"
     showgrid="false"
     inkscape:zoom="0.48083261"
     inkscape:cx="810.05321"
     inkscape:cy="676.95076"
     inkscape:window-x="-9"
     inkscape:window-y="-9"
     inkscape:window-maximized="1"
     inkscape:current-layer="svg2"
     inkscape:pagecheckerboard="0"
     fit-margin-top="0"
     fit-margin-left="0"
     fit-margin-right="0"
     fit-margin-bottom="0" />
  <text
     xml:space="preserve"
     style="font-size:26.2197px;fill:#000000;stroke-width:74.3239;stroke-linecap:square"
     x="524.54016"
     y="653.10907"
     id="text4152"><tspan
       sodipodi:role="line"
       id="tspan4150"
       x="524.54016"
       y="653.10907"
       style="stroke-width:74.3239">Memes</tspan></text>
  <text
     xml:space="preserve"
     style="font-size:30.4027px;fill:#000000;stroke-width:86.1812;stroke-linecap:square"
     x="723.52148"
     y="608.42432"
     id="text14506"><tspan
       sodipodi:role="line"
       id="tspan14504"
       x="723.52148"
       y="608.42432"
       style="stroke-width:86.1812">Non-memetic</tspan><tspan
       sodipodi:role="line"
       x="723.52148"
       y="646.42767"
       id="tspan14508"
       style="stroke-width:86.1812">memories</tspan></text>
  <path
     d="m 552.16661,566.76804 h 5.8229 v 30.8323 h -5.8229 c -2.7032,0 -4.0569,3.2681 -2.1455,5.1797 l 10.8798,10.8798 c 1.185,1.185 3.106,1.185 4.2909,0 l 10.8799,-10.8798 c 1.9113,-1.9114 0.5576,-5.1797 -2.1456,-5.1797 h -5.8228 v -30.8323 h 5.823 c 2.7031,0 4.0569,-3.2682 2.1455,-5.1797 l -10.8799,-10.8798 c -1.1849,-1.185 -3.1059,-1.185 -4.2909,0 l -10.8798,10.8798 c -1.9115,1.9114 -0.5578,5.1797 2.1454,5.1797 z"
     id="path2"
     style="stroke-width:0.126423" />
  <path
     d="m 688.8418,567.65854 h 5.8229 v 30.8323 h -5.8229 c -2.7032,0 -4.0569,3.2681 -2.1455,5.1797 l 10.8798,10.8798 c 1.185,1.185 3.106,1.185 4.2909,0 l 10.8799,-10.8798 c 1.9113,-1.9114 0.5576,-5.1797 -2.1456,-5.1797 h -5.8228 v -30.8323 h 5.823 c 2.7031,0 4.0569,-3.2682 2.1455,-5.1797 l -10.8799,-10.8798 c -1.1849,-1.185 -3.1059,-1.185 -4.2909,0 l -10.8798,10.8798 c -1.9115,1.9114 -0.5578,5.1797 2.1454,5.1797 z"
     id="path2-2"
     style="stroke-width:0.126423" />
  <rect
     style="fill:none;stroke:#000000;stroke-width:26.2898;stroke-linecap:square;stroke-opacity:1"
     id="rect16611"
     width="235.07605"
     height="112.47485"
     x="505.75369"
     y="691.18695"
     ry="1.376837" />
  <text
     xml:space="preserve"
     style="font-size:33.4097px;fill:#000000;fill-opacity:1;stroke:none;stroke-width:94.7051;stroke-linecap:square;stroke-opacity:1"
     x="555.70483"
     y="733.37347"
     id="text20788"><tspan
       sodipodi:role="line"
       id="tspan20786"
       x="555.70483"
       y="733.37347"
       style="stroke-width:94.7051">Memory/</tspan><tspan
       sodipodi:role="line"
       x="555.70483"
       y="775.13562"
       id="tspan40861"
       style="stroke-width:94.7051">Engrams</tspan></text>
  <rect
     style="fill:none;stroke:#000000;stroke-width:26.2898;stroke-linecap:square;stroke-opacity:1"
     id="rect16611-5"
     width="235.07605"
     height="112.47485"
     x="519.27185"
     y="412.4523"
     ry="1.376837" />
  <text
     xml:space="preserve"
     style="font-size:19.6175px;fill:#000000;fill-opacity:1;stroke:none;stroke-width:55.6089;stroke-linecap:square;stroke-opacity:1"
     x="549.36761"
     y="475.54385"
     id="text24226"><tspan
       sodipodi:role="line"
       id="tspan24224"
       x="549.36761"
       y="475.54385"
       style="stroke-width:55.6089">Neural processing</tspan></text>
  <path
     d="m 751.88973,155.71034 v -52.4289 c 0,-1.1507 -0.933,-2.0837 -2.0837,-2.0837 h -9.7238 c -1.1507,0 -2.0837,0.933 -2.0837,2.0837 v 52.4289 h -7.9976 c -3.7128,0 -5.5721,4.4887 -2.9469,7.1142 l 14.9432,14.9432 c 1.6276,1.6276 4.2662,1.6276 5.8936,0 l 14.9432,-14.9432 c 2.6253,-2.6253 0.766,-7.1142 -2.9468,-7.1142 z"
     id="path2-20"
     style="stroke-width:0.17364" />
  <rect
     style="fill:none;stroke:#000000;stroke-width:16.9808;stroke-linecap:square;stroke-opacity:1"
     id="rect16611-5-6"
     width="151.83728"
     height="72.6483"
     x="675.25519"
     y="8.4904003"
     ry="0.88930875" />
  <text
     xml:space="preserve"
     style="font-size:29.4982px;fill:#000000;fill-opacity:1;stroke:none;stroke-width:83.6172;stroke-linecap:square;stroke-opacity:1"
     x="701.75305"
     y="57.95134"
     id="text31796"><tspan
       sodipodi:role="line"
       id="tspan31794"
       x="701.75305"
       y="57.95134"
       style="stroke-width:83.6172">Genes</tspan></text>
  <path
     d="m 751.88977,352.92984 v -52.4289 c 0,-1.1507 -0.933,-2.0837 -2.0837,-2.0837 h -9.7238 c -1.1507,0 -2.0837,0.933 -2.0837,2.0837 v 52.4289 h -7.9976 c -3.7128,0 -5.5721,4.4887 -2.9469,7.1142 l 14.9432,14.9432 c 1.6276,1.6276 4.2662,1.6276 5.8936,0 l 14.9432,-14.9432 c 2.6253,-2.6253 0.766,-7.1142 -2.9468,-7.1142 z"
     id="path2-20-8"
     style="stroke-width:0.17364" />
  <rect
     style="fill:none;stroke:#000000;stroke-width:16.9808;stroke-linecap:square;stroke-opacity:1"
     id="rect16611-5-6-2"
     width="151.83728"
     height="72.6483"
     x="675.25525"
     y="205.70988"
     ry="0.88930875" />
  <text
     xml:space="preserve"
     style="font-size:16.58px;text-align:center;text-anchor:middle;fill:#000000;fill-opacity:1;stroke:none;stroke-width:46.9986;stroke-linecap:square;stroke-opacity:1"
     x="753.38263"
     y="234.33403"
     id="text31796-9"><tspan
       sodipodi:role="line"
       id="tspan31794-3"
       x="753.38263"
       y="234.33403"
       style="stroke-width:46.9986">Physical</tspan><tspan
       sodipodi:role="line"
       x="753.38263"
       y="255.05904"
       id="tspan34359"
       style="stroke-width:46.9986">Phenotype</tspan></text>
  <rect
     style="fill:none;stroke:#000000;stroke-width:16.9808;stroke-linecap:square;stroke-opacity:1"
     id="rect16611-5-6-2-4"
     width="151.83728"
     height="72.6483"
     x="453.76434"
     y="204.63554"
     ry="0.88930875" />
  <text
     xml:space="preserve"
     style="font-size:23.1132px;fill:#000000;fill-opacity:1;stroke:none;stroke-width:65.5181;stroke-linecap:square;stroke-opacity:1"
     x="470.85608"
     y="246.16924"
     id="text31796-9-8"><tspan
       sodipodi:role="line"
       id="tspan31794-3-5"
       x="470.85608"
       y="246.16924"
       style="stroke-width:65.5181">Epigenes</tspan></text>
  <path
     d="m 533.74151,319.87264 h 7.5067 v 39.748 h -7.5067 c -3.48488,0 -5.23003,4.2132 -2.76591,6.6775 l 14.02589,14.0259 c 1.52767,1.5277 4.00416,1.5277 5.5317,0 l 14.02602,-14.0259 c 2.46399,-2.4641 0.71884,-6.6775 -2.76604,-6.6775 h -7.50657 v -39.748 h 7.50683 c 3.48475,0 5.23003,-4.2133 2.76591,-6.6775 l -14.02602,-14.0259 c -1.52754,-1.5277 -4.00403,-1.5277 -5.5317,0 l -14.02589,14.0259 c -2.46425,2.4641 -0.7191,6.6775 2.76578,6.6775 z"
     id="path2-2-7"
     style="stroke-width:0.162981" />
  <rect
     style="fill:none;stroke:#000000;stroke-width:26.2898;stroke-linecap:square;stroke-opacity:1"
     id="rect16611-5-68"
     width="235.07605"
     height="112.47485"
     x="28.81024"
     y="414.53214"
     ry="1.376837" />
  <text
     xml:space="preserve"
     style="font-size:28.3995px;fill:#000000;fill-opacity:1;stroke:none;stroke-width:80.5029;stroke-linecap:square;stroke-opacity:1"
     x="58.331394"
     y="484.76993"
     id="text24226-2"><tspan
       sodipodi:role="line"
       id="tspan24224-4"
       x="58.331394"
       y="484.76993"
       style="stroke-width:80.5029">Sense data</tspan></text>
  <path
     d="M 430.06408,459.38394 H 321.97109 c -1.71397,0 -3.10368,1.3897 -3.10368,3.1037 v 14.4836 c 0,1.714 1.38971,3.1037 3.10368,3.1037 h 108.09299 v 11.9125 c 0,5.5302 6.68593,8.2996 10.59662,4.3894 l 22.25794,-22.258 c 2.42431,-2.4243 2.42431,-6.3545 0,-8.7785 l -22.25794,-22.2579 c -3.91039,-3.9104 -10.59662,-1.141 -10.59662,4.3892 z"
     id="path2-20-8-1"
     style="stroke-width:0.258637"
     sodipodi:nodetypes="csssscscscssc" />
  <path
     d="m 370.20523,327.07957 -62.1555,47.278 c -1.36417,1.0376 -1.62893,2.9851 -0.59127,4.3493 l 8.76847,11.5277 c 1.03766,1.3642 2.98511,1.6289 4.34928,0.5913 l 62.1555,-47.278 7.21189,9.4813 c 3.34802,4.4016 10.34608,2.5581 11.0914,-2.9217 l 4.24032,-31.1905 c 0.46185,-3.3972 -1.91751,-6.5254 -5.31456,-6.987 l -31.19054,-4.2403 c -5.47972,-0.745 -9.12479,5.5071 -5.77677,9.9086 z"
     id="path2-20-8-1-8"
     style="stroke-width:0.258637" />
  <path
     d="m 868.56438,462.50354 h -78.09299 c -1.71397,0 -3.10368,1.3897 -3.10368,3.1037 v 14.4836 c 0,1.714 1.38971,3.1037 3.10368,3.1037 h 78.09299 v 11.9125 c 0,5.5302 6.68593,8.2996 10.59662,4.3894 l 22.25794,-22.258 c 2.42431,-2.4243 2.42431,-6.3545 0,-8.7785 L 879.161,446.20204 c -3.91039,-3.9104 -10.59662,-1.141 -10.59662,4.3892 z"
     id="path2-20-8-1-4"
     style="stroke-width:0.258637" />
  <rect
     style="fill:none;stroke:#000000;stroke-width:26.2898;stroke-linecap:square;stroke-opacity:1"
     id="rect16611-5-68-3"
     width="235.07605"
     height="112.47485"
     x="935.737"
     y="413.4921"
     ry="1.376837" />
  <text
     xml:space="preserve"
     style="font-size:46.9888px;fill:#000000;fill-opacity:1;stroke:none;stroke-width:133.197;stroke-linecap:square;stroke-opacity:1"
     x="965.02216"
     y="483.44839"
     id="text24226-2-4"><tspan
       sodipodi:role="line"
       id="tspan24224-4-6"
       x="965.02216"
       y="483.44839"
       style="stroke-width:133.197">Actions</tspan></text>
  <rect
     style="fill:none;stroke:#000000;stroke-width:26.2898;stroke-linecap:square;stroke-opacity:1"
     id="rect16611-5-68-4"
     width="235.07605"
     height="112.47485"
     x="114.65376"
     y="639.7077"
     ry="1.376837" />
  <text
     xml:space="preserve"
     style="font-size:26.5182px;text-align:center;text-anchor:middle;fill:#000000;fill-opacity:1;stroke:none;stroke-width:75.17;stroke-linecap:square;stroke-opacity:1"
     x="233.18062"
     y="692.91815"
     id="text24226-2-43"><tspan
       sodipodi:role="line"
       id="tspan24224-4-8"
       x="233.18062"
       y="692.91815"
       style="text-align:center;text-anchor:middle;stroke-width:75.17">Power/Biomass</tspan><tspan
       sodipodi:role="line"
       x="233.18062"
       y="726.06592"
       style="text-align:center;text-anchor:middle;stroke-width:75.17"
       id="tspan46046">supply</tspan></text>
  <path
     d="m 646.07235,240.86876 h -22.48746 c -0.49355,0 -0.89373,0.40017 -0.89373,0.89372 v 4.17067 c 0,0.49355 0.40018,0.89373 0.89373,0.89373 h 22.48746 v 3.43028 c 0,1.59247 1.92527,2.38995 3.05137,1.26396 l 6.40934,-6.40934 c 0.6981,-0.6981 0.6981,-1.82983 0,-2.52784 l -6.40934,-6.40934 c -1.12602,-1.12603 -3.05137,-0.32855 -3.05137,1.26392 z"
     id="path2-20-8-0"
     style="stroke-width:0.0744765" />
  <path
     d="m 445.90324,558.81888 -62.1555,47.278 c -1.36417,1.0376 -1.62893,2.9851 -0.59127,4.3493 l 8.76847,11.5277 c 1.03766,1.3642 2.98511,1.6289 4.34928,0.5913 l 62.1555,-47.278 7.21189,9.4813 c 3.34802,4.4016 10.34608,2.5581 11.0914,-2.9217 l 4.24032,-31.1905 c 0.46185,-3.3972 -1.91751,-6.5254 -5.31456,-6.987 l -31.19054,-4.2403 c -5.47972,-0.745 -9.12479,5.5071 -5.77677,9.9086 z"
     id="path2-20-8-1-8-9"
     style="stroke-width:0.258637" />
  <text
     xml:space="preserve"
     style="font-size:164.714px;text-align:center;text-anchor:middle;fill:#000000;fill-opacity:1;stroke:none;stroke-width:466.907;stroke-linecap:square;stroke-opacity:1"
     x="580.96271"
     y="1062.3223"
     id="text49646"><tspan
       sodipodi:role="line"
       id="tspan49644"
       x="580.96271"
       y="1062.3223"
       style="stroke-width:466.907">External world</tspan></text>
  <path
     d="M 1078.7643,851.74605 V 583.2331 c 0,-2.68889 -2.1802,-4.86907 -4.8691,-4.86907 h -22.7219 c -2.6889,0 -4.8691,2.18018 -4.8691,4.86907 v 268.51295 h -18.6884 c -8.6758,0 -13.0205,10.48894 -6.8861,16.62407 l 34.9185,34.91844 c 3.8032,3.80328 9.9689,3.80328 13.7717,0 l 34.9184,-34.91844 c 6.1347,-6.13466 1.79,-16.62407 -6.8859,-16.62407 z"
     id="path2-20-8-3"
     style="stroke-width:0.405752"
     sodipodi:nodetypes="csssscscccssc" />
  <path
     d="m 244.65448,823.18647 v 78.09299 c 0,1.71397 1.3897,3.10368 3.1037,3.10368 h 14.4836 c 1.714,0 3.1037,-1.38971 3.1037,-3.10368 v -78.09299 h 11.9125 c 5.5302,0 8.2996,-6.68593 4.3894,-10.59662 l -22.258,-22.25794 c -2.4243,-2.42431 -6.3545,-2.42431 -8.7785,0 l -22.2579,22.25794 c -3.9104,3.91039 -1.141,10.59662 4.3892,10.59662 z"
     id="path2-20-8-1-6"
     style="stroke-width:0.258637" />
  <path
     d="m 71.576659,614.25103 v 268.51295 c 0,2.68889 -2.1802,4.86907 -4.8691,4.86907 h -22.722 c -2.6889,0 -4.8691,-2.18018 -4.8691,-4.86907 V 614.25103 h -18.6883 c -8.6758,0 -13.0206003,-10.48894 -6.8861,-16.62407 l 34.9184,-34.91839 c 3.8032,-3.8033 9.969,-3.8033 13.7718,0 l 34.9184,34.91839 c 6.134701,6.13466 1.79,16.62407 -6.8859,16.62407 z"
     id="path2-20-8-3-4"
     style="stroke-width:0.405752"
     sodipodi:nodetypes="csssscscccssc" />
</svg>
