<?xml version="1.0" encoding="UTF-8" standalone="no"?>
<!-- Created with Inkscape (http://www.inkscape.org/) -->

<svg
   width="179.95201mm"
   height="150.22675mm"
   viewBox="0 0 179.95201 150.22675"
   version="1.1"
   id="svg5"
   inkscape:version="1.1.2 (b8e25be833, 2022-02-05)"
   sodipodi:docname="Knowing.svg"
   xmlns:inkscape="http://www.inkscape.org/namespaces/inkscape"
   xmlns:sodipodi="http://sodipodi.sourceforge.net/DTD/sodipodi-0.dtd"
   xmlns="http://www.w3.org/2000/svg"
   xmlns:svg="http://www.w3.org/2000/svg">
  <sodipodi:namedview
     id="namedview7"
     pagecolor="#ffffff"
     bordercolor="#666666"
     borderopacity="1.0"
     inkscape:pageshadow="2"
     inkscape:pageopacity="0.0"
     inkscape:pagecheckerboard="0"
     inkscape:document-units="mm"
     showgrid="false"
     fit-margin-top="10"
     fit-margin-left="10"
     fit-margin-right="10"
     fit-margin-bottom="10"
     inkscape:zoom="0.77771465"
     inkscape:cx="248.80591"
     inkscape:cy="324.0263"
     inkscape:window-width="2560"
     inkscape:window-height="1377"
     inkscape:window-x="-8"
     inkscape:window-y="-8"
     inkscape:window-maximized="1"
     inkscape:current-layer="layer1" />
  <defs
     id="defs2" />
  <g
     inkscape:label="Layer 1"
     inkscape:groupmode="layer"
     id="layer1"
     transform="translate(10,10)">
    <text
       xml:space="preserve"
       style="font-style:normal;font-weight:normal;font-size:10.5833px;line-height:1.25;font-family:sans-serif;fill:#000000;fill-opacity:1;stroke:none;stroke-width:0.264583"
       x="-1.0335253"
       y="48.040829"
       id="text1904"><tspan
         sodipodi:role="line"
         id="tspan1902"
         style="stroke-width:0.264583"
         x="-1.0335253"
         y="48.040829">Perspectival knowing</tspan></text>
    <text
       xml:space="preserve"
       style="font-style:normal;font-weight:normal;font-size:10.5833px;line-height:1.25;font-family:sans-serif;fill:#000000;fill-opacity:1;stroke:none;stroke-width:0.264583"
       x="-1.0335253"
       y="8.0408268"
       id="text1904-8"><tspan
         sodipodi:role="line"
         id="tspan1902-6"
         style="stroke-width:0.264583"
         x="-1.0335253"
         y="8.0408268">Participatory knowing</tspan></text>
    <text
       xml:space="preserve"
       style="font-style:normal;font-weight:normal;font-size:10.5833px;line-height:1.25;font-family:sans-serif;fill:#000000;fill-opacity:1;stroke:none;stroke-width:0.264583"
       x="-1.0335253"
       y="88.040825"
       id="text1904-2"><tspan
         sodipodi:role="line"
         id="tspan1902-3"
         style="stroke-width:0.264583"
         x="-1.0335253"
         y="88.040825">Procedural knowing</tspan></text>
    <text
       xml:space="preserve"
       style="font-style:normal;font-weight:normal;font-size:10.5833px;line-height:1.25;font-family:sans-serif;fill:#000000;fill-opacity:1;stroke:none;stroke-width:0.264583"
       x="-1.0335253"
       y="128.04083"
       id="text1904-9"><tspan
         sodipodi:role="line"
         id="tspan1902-2"
         style="stroke-width:0.264583"
         x="-1.0335253"
         y="128.04083">Propositional knowing</tspan></text>
    <path
       d="M 45.629008,27.558774 V 11.680762 h -1.590615 v 15.835782 h -3.800588 l 4.595898,8.37537 4.595892,-8.37537 z"
       stroke="#cccccc"
       stroke-width="0.281525"
       fill="#0"
       sodipodi:nodetypes="cccccccc"
       id="path2" />
    <path
       d="M 45.629008,67.558774 V 51.680762 h -1.590615 v 15.835782 h -3.800588 l 4.595898,8.37537 4.595892,-8.37537 z"
       stroke="#cccccc"
       stroke-width="0.281525"
       fill="#0"
       sodipodi:nodetypes="cccccccc"
       id="path2-9" />
    <path
       d="M 45.629008,107.55877 V 91.680762 h -1.590615 v 15.835778 h -3.800588 l 4.595898,8.37537 4.595892,-8.37537 z"
       stroke="#cccccc"
       stroke-width="0.281525"
       fill="#0"
       sodipodi:nodetypes="cccccccc"
       id="path2-4" />
    <path
       style="fill:#000000;stroke:none;stroke-width:0.264583"
       id="path7932"
       d="m 110.17404,46.997051 c 0.91538,-0.247674 1.84715,-0.427721 2.76378,-0.670632 0.78812,-0.208862 0.97778,-0.279339 1.72773,-0.519393 0.38178,-0.138279 0.9096,-0.3205 1.28899,-0.489386 0.16787,-0.07473 0.33583,-0.151292 0.49354,-0.245595 1.24826,-0.746365 2.51578,-1.464079 3.7228,-2.275461 0.17597,-0.118298 0.72148,-0.9348 0.82984,-1.090121 0.76466,-1.270859 1.4083,-2.614154 1.97917,-3.982267 0.0787,-0.20638 0.16385,-0.410435 0.2362,-0.619138 0.12746,-0.3677 0.26819,-0.87798 0.37443,-1.253363 0.26459,-0.934887 0.52191,-1.870983 0.79565,-2.803298 0.11034,-0.383529 0.21786,-0.767881 0.33102,-1.150588 0.32259,-1.09103 0.65511,-2.177161 0.94007,-3.279066 0.24421,-0.944393 0.25445,-1.038032 0.45413,-1.969421 0.33815,-1.678651 0.49749,-3.382682 0.66587,-5.08429 0.10864,-1.439908 0.20988,-2.881023 0.25356,-4.324553 0.0108,-0.595474 0.0336,-1.19731 -0.0378,-1.790453 -0.014,-0.116027 -0.088,-0.545804 -0.109,-0.670117 -0.26071,-1.020077 -0.6303,-1.99951 -1.04185,-2.966912 -0.37066,-0.763754 -0.65584,-1.599293 -1.1787,-2.2805777 -0.0786,-0.1024731 -0.17144,-0.1932675 -0.25715,-0.2899013 -0.58002,-0.4751715 -1.26903,-0.7901932 -1.92311,-1.1491788 -0.35545,-0.1800725 -0.73222,-0.3143033 -1.10737,-0.4469484 0,0 -3.26633,2.2275127 -3.26633,2.2275127 v 0 c 0.37376,0.096838 0.7336,0.2422485 1.09679,0.3719525 0.64186,0.302965 1.29706,0.60079 1.87332,1.018499 0.078,0.07957 0.16245,0.153284 0.23399,0.238702 0.53432,0.63798 0.8604,1.428813 1.20397,2.175546 0.40106,0.947828 0.71253,1.924725 0.91826,2.934377 0.14184,0.779168 0.2061,1.566736 0.17631,2.359657 -0.0212,1.422978 -0.0481,2.847357 -0.19553,4.264179 -0.15852,1.684286 -0.34753,3.365342 -0.64956,5.031039 -0.43287,2.149965 -1.03739,4.259049 -1.69809,6.349461 -0.29993,0.958405 -0.61958,1.910513 -0.9208,2.868329 -0.25622,0.814726 -0.0913,0.407077 -0.38392,1.222383 -0.0727,0.20253 -0.15374,0.401963 -0.23062,0.602946 -0.56945,1.348565 -1.19454,2.683525 -2.01631,3.899466 -0.14114,0.180147 -0.27126,0.369501 -0.42342,0.540443 -0.14831,0.166616 -0.67853,0.564007 -0.47616,0.470188 0.97264,-0.450908 1.8734,-1.043011 2.81549,-1.554689 0.1667,-0.09054 -0.32011,0.204767 -0.48902,0.291111 -0.34757,0.177662 -0.97229,0.412644 -1.32039,0.549931 -0.74409,0.262271 -0.95303,0.350316 -1.73357,0.563216 -0.75736,0.206576 -1.51953,0.339434 -2.29104,0.474001 -0.0913,0.01593 -0.18177,0.03661 -0.27265,0.05492 0,0 -3.15253,2.397491 -3.15253,2.397491 z" />
    <path
       style="fill:#000000;stroke:none;stroke-width:0.264583"
       id="path7934"
       d="m 121.27441,12.61428 c -0.35053,-1.082654 -0.62681,-2.186363 -0.88973,-3.2929508 -0.12106,-0.6010315 -0.24345,-1.2011462 -0.37595,-1.7997207 -0.0652,-0.2946215 -0.14712,-0.6071566 -0.16171,-0.9120878 -0.005,-0.098149 0.0118,-0.1961679 0.0177,-0.2942518 -0.22482,-0.086443 0.37382,-0.2567173 0.2772,-0.1973234 -1.06426,0.6541844 -2.156,1.2628414 -3.22247,1.913414 -0.0613,0.03738 0.1322,-0.060372 0.20311,-0.07153 0.1438,-0.02263 0.48199,0.00601 0.61588,0.013925 0.74669,0.069381 1.49579,0.099963 2.24487,0.128714 0.49826,0.032603 0.99575,0.020201 1.49265,-0.021937 0.20286,-0.019055 0.40586,-0.036041 0.6092,-0.048917 0,0 3.18846,-2.3344161 3.18846,-2.3344161 v 0 c -0.2098,0.00212 -0.41959,0.00609 -0.62809,0.032461 -0.50101,0.056325 -1.00015,0.1272677 -1.50614,0.092651 -0.74275,-0.011356 -1.48578,-0.038143 -2.22495,-0.1158751 -0.14822,-0.016007 -0.47097,-0.049106 -0.62386,-0.072164 -0.0898,-0.013547 -0.18776,-0.09056 -0.26821,-0.048366 -1.20332,0.631104 -2.37592,1.3214324 -3.52917,2.0399653 -0.063,0.039273 -0.0631,0.135744 -0.0792,0.2082419 -0.0192,0.08651 -0.0173,0.1764004 -0.0259,0.2646005 0.045,0.4264001 0.14936,0.8200202 0.25118,1.2364302 0.14553,0.5951482 0.12613,0.5516925 0.25932,1.1617948 0.0458,0.210001 0.0936,0.419575 0.14042,0.629362 0.26738,1.107879 0.57082,2.211606 0.74775,3.338193 0,0 3.48764,-1.850215 3.48764,-1.850215 z" />
    <path
       style="fill:#000000;stroke:none;stroke-width:0.264583"
       id="path7936"
       d="m 104.34965,86.797567 c 0.059,0.01243 0.11851,0.02244 0.17692,0.0373 0.077,0.01958 0.3419,0.104111 0.41435,0.119261 0.46791,0.09784 0.93423,0.09407 1.40991,0.0948 2.02238,-0.07801 4.03676,-0.34262 6.03584,-0.649825 1.68028,-0.222194 3.32649,-0.617373 4.95912,-1.062588 1.58955,-0.436994 3.16657,-0.916601 4.74095,-1.404998 1.11012,-0.369017 2.20404,-0.806582 3.22283,-1.386314 3.56095,-2.026306 2.73754,-1.515372 4.55115,-2.668307 0.82078,-0.509394 1.50238,-1.188373 2.17117,-1.87621 0.58659,-0.694741 1.03642,-1.492158 1.50311,-2.26908 0.60323,-1.05591 1.11891,-2.161773 1.58182,-3.285606 0.46338,-1.116087 0.93015,-2.232197 1.34254,-3.368376 0.28136,-0.855719 0.53482,-1.720189 0.7988,-2.581336 0.0632,-0.20606 0.13416,-0.409901 0.18906,-0.618316 0.0581,-0.220551 0.0998,-0.4451 0.1497,-0.667649 0.25106,-1.594215 0.44071,-3.200268 0.517,-4.812678 0.0109,-0.594675 0.0425,-1.189879 0.0393,-1.784832 -7.9e-4,-0.137514 0.006,-0.276109 -0.0127,-0.412356 -0.0407,-0.29732 -0.1322,-0.469691 -0.24496,-0.742918 -0.30923,-0.618707 -0.68051,-1.203947 -1.03873,-1.794936 -0.46703,-0.847759 -1.03004,-1.636162 -1.59366,-2.421213 -0.91545,-1.359439 -1.81749,-2.727192 -2.76159,-4.067124 -0.48983,-0.699945 -1.0358,-1.353357 -1.71935,-1.871771 -0.41133,-0.31196 -0.53835,-0.365252 -0.98427,-0.619641 -1.06908,-0.511252 -2.22991,-0.79425 -3.35987,-1.139037 -0.67629,-0.222324 -1.36668,-0.393102 -2.07333,-0.479745 -0.17981,-0.0181 -0.36028,-0.0278 -0.54047,-0.04077 -0.0215,-0.0016 -0.0673,-0.02766 -0.0644,-0.0063 0.004,0.03062 0.2225,0.26761 0.22722,0.27293 -5.88074,3.449381 -3.88807,2.189314 -2.53602,1.607815 0.49977,-0.214942 1.00604,-0.412774 1.51255,-0.611095 1.0338,-0.411477 2.00671,-0.956974 2.99679,-1.461077 0.98248,-0.525388 2.03313,-0.907679 3.0254,-1.412382 0.22164,-0.112737 0.43812,-0.235353 0.65718,-0.353026 2.78739,-1.511686 5.47692,-3.201961 8.01386,-5.103797 1.30268,-1.035812 2.44163,-2.258732 3.45154,-3.578725 0.21058,-0.275232 0.40803,-0.560263 0.61205,-0.840396 0.9368,-1.328877 1.74845,-2.751719 2.30957,-4.281479 0.094,-0.256262 0.17046,-0.51862 0.25568,-0.777928 0.34401,-1.14975 0.50152,-2.339882 0.58123,-3.533707 -0.0188,-0.854164 -0.26596,-1.675855 -0.54099,-2.477229 -0.34672,-0.86033 -0.65337,-1.736019 -0.99701,-2.59758 -0.11083,-0.277869 -0.20848,-0.561883 -0.34002,-0.830568 -0.16596,-0.338995 -0.36729,-0.659504 -0.55093,-0.989255 -0.2438,-0.352203 -0.47172,-0.715951 -0.73141,-1.056609 -0.28277,-0.370928 -0.59114,-0.72171 -0.89439,-1.076089 -0.94206,-1.100904 -1.95571,-2.127676 -2.99143,-3.139344 -0.71678,-0.63569 -1.42637,-1.292294 -2.26821,-1.759472 -0.44462,-0.239416 -0.94355,-0.295943 -1.43851,-0.337113 -0.45827,-0.02725 -0.91571,-0.06684 -1.37334,-0.103037 0,0 -3.17418,2.274242 -3.17418,2.274242 v 0 c 0.45538,0.02444 0.91077,0.05283 1.3638,0.106822 0.45672,0.02804 0.91809,0.06485 1.354,0.214104 0.87667,0.368156 1.60372,0.996588 2.34142,1.583011 1.75851,1.492564 3.44929,3.106866 4.62631,5.113867 0.15851,0.329537 0.32936,0.653413 0.47552,0.98861 0.18096,0.415034 0.44057,1.17886 0.58925,1.614635 0.14681,0.4303 0.29882,0.858817 0.4448,1.289397 0.0636,0.187613 0.12116,0.377226 0.18174,0.565839 0.24143,0.764776 0.45878,1.549549 0.45913,2.357964 -0.0442,1.14667 -0.17757,2.290138 -0.52074,3.390302 -0.2235,0.662622 -0.28042,0.876636 -0.56282,1.526034 -0.52543,1.208265 -1.22191,2.327826 -1.98779,3.397197 -0.49955,0.660644 -0.72351,0.97934 -1.26113,1.602788 -0.85954,0.996736 -1.80987,1.91366 -2.85144,2.719178 -1.1074,0.814377 -2.24143,1.587413 -3.39856,2.329715 -0.25816,0.165608 -1.04828,0.63654 -0.77911,0.489519 0.85759,-0.468419 1.69692,-0.969508 2.54538,-1.454264 -0.52088,0.293521 -0.71765,0.417192 -1.25287,0.669703 -0.79021,0.372814 -1.61241,0.67727 -2.38931,1.078783 -0.98239,0.500531 -1.95293,1.028512 -2.96002,1.477568 -0.49669,0.199644 -0.99691,0.389321 -1.49428,0.58724 -0.12974,0.05163 -0.25901,0.104476 -0.38941,0.154437 -0.0911,0.0349 -0.19043,0.05145 -0.27496,0.100116 -1.17745,0.677963 -2.33795,1.384961 -3.50692,2.077442 0.0387,0.182589 0.0313,0.309629 0.17098,0.44322 0.1065,0.10183 0.5442,0.04773 0.67876,0.0681 0.71522,0.03927 1.41995,0.161525 2.10838,0.362378 1.1157,0.313645 2.23923,0.627735 3.31129,1.070145 0.3651,0.195193 0.61799,0.315256 0.95627,0.556865 0.6715,0.479605 1.20932,1.108314 1.70313,1.76275 0.96072,1.322996 1.90276,2.660443 2.75865,4.054517 0.50324,0.81511 0.98901,1.640345 1.48811,2.457701 0.33309,0.58342 0.68273,1.157206 1.00323,1.747428 0.0971,0.251923 0.15464,0.358468 0.19401,0.625716 0.10281,0.697846 0.0237,1.416833 0.0471,2.117632 -0.0673,1.595488 -0.22325,3.19405 -0.56583,4.75574 -0.33361,1.292688 -0.73208,2.569591 -1.16918,3.830891 -0.43479,1.125043 -0.89069,2.242201 -1.35378,3.355824 -0.48171,1.105946 -0.98593,2.206731 -1.614,3.238739 -0.48111,0.778888 -0.97038,1.561128 -1.61132,2.221592 -0.63346,0.654153 -1.30378,1.268796 -2.08685,1.743604 -1.28811,0.803791 -1.41697,0.873001 1.88583,-1.044117 0.25175,-0.146132 -0.50675,0.286909 -0.76528,0.420703 -0.5575,0.288526 -1.00595,0.488405 -1.59053,0.719011 -0.27499,0.108479 -0.55451,0.205121 -0.83176,0.307681 -1.5515,0.49643 -3.11908,0.936273 -4.68641,1.379331 -1.66268,0.46931 -3.33382,0.924272 -5.04516,1.181738 -1.93767,0.309771 -3.89198,0.54738 -5.85588,0.588422 -0.62457,0.0031 -1.26325,0.0024 -1.84435,-0.2575 0,0 -3.25433,2.257369 -3.25433,2.257369 z" />
    <path
       style="fill:#000000;stroke:none;stroke-width:0.264583"
       id="path7940"
       d="m 139.10719,6.7856623 c -1.22475,0.4014131 -2.41422,0.8898665 -3.58811,1.4199526 -1.87748,0.9006813 -3.84903,1.7441457 -5.4533,3.0888391 -0.24956,0.209179 -0.43238,0.40352 -0.65932,0.632706 -0.0774,0.09833 -0.18409,0.179473 -0.23219,0.294996 -0.11534,0.27699 -0.0967,0.770693 -0.0834,1.046551 0.0311,0.643731 0.15593,1.26674 0.28463,1.896137 0.21223,0.981962 0.56802,1.924452 0.87224,2.880008 0.1321,0.39265 0.20855,0.801949 0.35064,1.190854 0.0593,0.175757 0.1283,0.347923 0.19679,0.520212 0,0 3.44279,-1.913973 3.44279,-1.913973 v 0 c -0.0619,-0.172732 -0.11975,-0.34683 -0.18464,-0.518474 -0.13449,-0.387727 -0.23053,-0.788947 -0.39161,-1.167899 -0.35995,-0.91182 -0.72646,-1.825721 -0.92264,-2.790403 -0.1424,-0.704943 -0.3481,-1.611225 -0.14884,-2.323007 0.0817,-0.291842 0.20754,-0.383175 0.3996,-0.594057 0.25177,-0.236683 0.36624,-0.357465 0.65204,-0.5677726 0.13726,-0.1010052 0.57377,-0.367234 0.42472,-0.2846046 -5.50414,3.0514012 -2.72097,1.5213952 -1.4852,0.9428362 1.10919,-0.512346 2.22999,-1.0026154 3.40972,-1.3320264 0,0 3.11608,-2.4208753 3.11608,-2.4208753 z" />
    <path
       style="fill:#000000;stroke:none;stroke-width:0.264583"
       id="path7942"
       d="m 114.34497,127.3356 c 0.54234,0.0263 1.06952,0.16135 1.60598,0.23263 1.19418,0.0829 2.39192,0.0963 3.58669,0.0271 1.54706,-0.14077 3.06208,-0.51627 4.55109,-0.94612 0.74703,-0.21664 1.48264,-0.46503 2.19395,-0.78106 1.80878,-0.80363 3.69448,-2.02967 5.30568,-2.96273 1.3533,-0.80929 2.47099,-1.89098 3.51904,-3.05525 0.37171,-0.43358 0.83703,-0.95371 1.15986,-1.42439 0.76865,-1.12069 1.31955,-2.38868 1.86546,-3.62676 0.45341,-1.10979 0.73917,-2.28457 0.92003,-3.46829 0.0739,-0.48395 0.15794,-1.35755 0.2086,-1.8503 0.16186,-1.67765 0.12056,-3.35764 -0.032,-5.03291 -0.19325,-1.59109 -0.53148,-3.15955 -0.91342,-4.714611 -0.38164,-1.418797 -0.819,-2.821385 -1.23591,-4.229941 -0.33602,-1.026848 -0.71804,-2.046317 -1.24335,-2.993568 -0.40313,-0.726932 -0.68164,-1.104455 -1.15507,-1.806847 -0.9868,-1.506101 -2.02174,-2.977756 -3.12663,-4.399439 -0.37326,-0.433163 -0.72422,-0.911884 -1.1829,-1.263147 -0.0987,-0.07561 -0.20446,-0.141608 -0.30668,-0.21241 -0.3031,-0.216842 -0.61637,-0.418571 -0.92707,-0.624113 -0.14041,-0.09289 -0.29576,-0.174447 -0.38285,-0.32313 1.15759,0.562941 3.42696,-2.005796 -2.69698,1.868604 -0.13667,0.08646 0.30406,-0.110313 0.45702,-0.162804 0.16034,-0.05502 0.90334,-0.298883 1.06998,-0.353703 0.99146,-0.306181 1.96647,-0.660775 2.94159,-1.014605 0.89817,-0.350348 1.81154,-0.658344 2.71999,-0.980303 0.62873,-0.241318 0.69628,-0.245819 1.37533,-0.632351 1.38846,-0.790358 2.7762,-1.582679 4.14347,-2.409174 0.38385,-0.232037 0.74304,-0.502849 1.10715,-0.764773 1.033,-0.743061 1.64078,-1.232469 2.65292,-2.020657 1.99024,-1.608183 3.90489,-3.336716 5.48442,-5.360226 0.24969,-0.319881 0.47584,-0.657458 0.71376,-0.986189 1.18299,-1.788123 1.91938,-3.802983 2.58177,-5.827162 0.39642,-1.229148 0.69799,-2.484901 0.84544,-3.768106 0.0487,-0.789509 0.0687,-1.582235 -0.0261,-2.368685 -0.15697,-1.013338 -0.23446,-2.036493 -0.36668,-3.053188 -0.0956,-0.635715 -0.3578,-1.12744 -0.70125,-1.65498 -0.40617,-0.569245 -0.78732,-1.155321 -1.16952,-1.740749 -0.4498,-0.590201 -0.80716,-1.205442 -1.15271,-1.86227 -0.42202,-0.884698 -0.86759,-1.757262 -1.3581,-2.605952 -0.34198,-0.58923 -0.759,-1.001149 -1.26419,-1.444342 -0.59966,-0.520412 -1.3393,-0.845706 -2.06276,-1.155811 -0.74322,-0.285316 -1.48883,-0.55602 -2.21031,-0.894292 -0.54154,-0.232791 -1.02115,-0.574109 -1.5082,-0.900361 -1.24372,-0.858999 -0.0395,-0.545396 -3.28541,2.064811 -0.0893,0.07178 0.22795,-0.02286 0.34178,-0.03567 0.14921,-0.0168 0.29821,-0.03547 0.44732,-0.0532 2.02406,-0.449729 4.06295,-0.84835 6.06035,-1.4097 0.42531,-0.119526 0.84686,-0.252019 1.27028,-0.378029 2.02846,-0.667962 4.08679,-1.255448 6.08805,-2.003592 1.83722,-0.808638 3.70024,-1.714111 5.1935,-3.069958 0.41508,-0.376883 0.53152,-0.529986 0.90367,-0.947925 0.57552,-0.8217 1.05753,-1.718376 1.40493,-2.661116 0.17128,-0.464801 0.25775,-0.835122 0.38298,-1.309544 0.19901,-0.886238 0.30895,-1.796579 0.28589,-2.705333 -0.0264,-0.595357 -0.32873,-1.086519 -0.66374,-1.557165 -0.44741,-0.649934 -0.92362,-1.276948 -1.4979,-1.819622 -0.53707,-0.535752 -1.2506,-0.747527 -1.92921,-1.037855 -0.79069,-0.377449 -1.50832,-0.879979 -2.21959,-1.386169 0,0 -3.20722,2.040407 -3.20722,2.040407 v 0 c 0.72293,0.511437 1.44478,1.025679 2.21655,1.462556 0.15374,0.08446 0.30322,0.177194 0.46122,0.253386 0.11245,0.05422 0.23293,0.08996 0.34853,0.137081 0.27408,0.111712 0.52096,0.221361 0.76386,0.391382 0.0869,0.06083 0.17166,0.124643 0.25749,0.186963 0.56848,0.501501 1.04131,1.101865 1.43497,1.749226 0.2688,0.424379 0.55051,0.837356 0.56301,1.359625 0.0203,0.862563 -0.0598,1.726192 -0.25373,2.567895 -0.0526,0.199382 -0.0975,0.400931 -0.15766,0.598144 -0.35504,1.163378 -0.9259,2.263552 -1.70218,3.200905 -0.39696,0.413189 -0.48674,0.530275 -0.93078,0.897088 -0.16203,0.133856 -0.6884,0.478385 -0.50167,0.381932 5.32875,-2.752527 3.00902,-1.693493 1.84209,-1.086835 -2.02293,0.857409 -4.13624,1.48563 -6.22663,2.153375 -0.86457,0.260834 -1.62817,0.500348 -2.50193,0.727795 -1.50997,0.393065 -3.04183,0.688261 -4.57818,0.956053 -0.1389,0.01352 -0.27765,0.02867 -0.41671,0.04052 -0.10259,0.0087 -0.21991,-0.03178 -0.30817,0.02125 -4.40746,2.647791 -4.61227,1.611132 -3.18632,2.404512 0.53146,0.289763 0.99579,0.691753 1.56118,0.920202 0.73181,0.326573 1.47729,0.617133 2.22517,0.904028 0.70014,0.270494 1.40646,0.55398 1.97658,1.058315 0.15207,0.131652 0.31067,0.255942 0.45807,0.392798 0.29673,0.275487 0.52041,0.614907 0.75924,0.938853 0.51996,0.820295 0.99798,1.665086 1.38523,2.557534 0.40988,0.832207 0.0621,0.130558 0.45188,0.905316 0.0605,0.120275 0.11302,0.244827 0.18037,0.361411 0.13844,0.239635 0.34251,0.43476 0.49012,0.668081 0.39868,0.571574 0.78989,1.148852 1.15071,1.745297 0.30879,0.469503 0.56954,0.921575 0.65679,1.489985 0.18415,1.00666 0.29573,2.023396 0.338,3.046272 0.0674,0.757587 0.12394,1.518119 0.0243,2.276621 -0.12724,1.235027 -0.38486,2.448496 -0.75022,3.635801 -0.63798,1.987296 -1.36975,3.956838 -2.55962,5.690425 -0.22937,0.316169 -0.44789,0.640498 -0.6881,0.94851 -1.54973,1.987185 -3.44621,3.667792 -5.4022,5.242293 -1.16698,0.891622 -1.55535,1.212546 -2.75903,2.037654 -0.3879,0.265896 -1.60619,0.972743 -1.18096,0.77188 0.75889,-0.358476 1.46255,-0.823926 2.18727,-1.247236 0.24113,-0.140843 -0.48473,0.278384 -0.73625,0.399701 -0.16894,0.08148 -0.34865,0.138441 -0.52297,0.207658 -0.90433,0.329031 -1.82753,0.605515 -2.71755,0.973545 -0.97329,0.367671 -1.95322,0.717812 -2.94488,1.032931 -0.6695,0.227005 -0.37773,0.133652 -1.04988,0.339452 -0.14644,0.04484 -0.30383,0.06285 -0.43952,0.133866 -1.25096,0.654699 -2.49853,1.318379 -3.71259,2.039192 -0.0773,0.04589 -0.11244,0.150053 -0.12474,0.239101 -0.0123,0.08925 0.0368,0.176416 0.0552,0.264623 0.35321,0.454396 1.00633,0.627835 1.43484,1.01949 0.53725,0.408371 1.04979,0.850654 1.49549,1.359617 1.19945,1.332841 2.28549,2.759826 3.24613,4.275222 0.44114,0.712293 0.68897,1.080495 1.06811,1.807498 0.49257,0.944534 0.85777,1.948794 1.16039,2.968334 0.42772,1.397233 0.88803,2.785682 1.24585,4.203102 0.3832,1.53529 0.74461,3.08236 0.89224,4.66124 0.15228,1.64779 0.20194,3.30204 0.033,4.95202 -0.17174,1.77969 -0.47253,3.5479 -1.16725,5.20769 -0.3983,0.91702 -0.80409,1.82825 -1.32835,2.68275 -0.50428,0.82192 -1.11675,1.56136 -1.77246,2.26568 -0.19502,0.20581 -0.38505,0.41646 -0.58505,0.61742 -0.89909,0.90341 -1.90612,1.69423 -3.00081,2.34734 0.85991,-0.49175 1.72159,-0.9804 2.57972,-1.47524 0.22805,-0.1315 -0.4569,0.2618 -0.68943,0.38521 -0.91589,0.48609 -1.87094,0.89182 -2.87268,1.16551 -1.46607,0.45423 -2.96294,0.84476 -4.49207,1.0095 -1.15067,0.0793 -2.30463,0.0664 -3.45425,-0.0338 -0.52638,-0.0612 -1.03844,-0.1872 -1.56062,-0.27133 0,0 -3.23033,2.29279 -3.23033,2.29279 z" />
    <path
       style="fill:#000000;stroke:none;stroke-width:0.264583"
       id="path7944"
       d="m 151.34396,31.607463 c -0.31332,-1.024636 -0.69323,-2.026512 -1.03106,-3.042793 -0.25223,-0.810736 -0.55524,-1.605423 -0.75807,-2.430718 -0.0719,-0.256492 -0.0694,-0.522457 -0.0938,-0.784692 -0.0302,-0.324903 -0.026,-0.0417 -0.024,-0.307487 0.0195,-0.01888 0.0322,-0.04952 0.0583,-0.05664 0.0317,-0.0086 0.12534,-0.003 0.0974,0.01423 -1.08773,0.673172 -2.19781,1.309557 -3.29611,1.965348 -0.0342,0.0204 0.0656,-0.04749 0.10362,-0.05913 0.11591,-0.03547 0.33398,-0.03538 0.44167,-0.04008 0.84411,0.0024 1.68636,0.07836 2.53096,0.02974 0.23773,-0.01368 0.47434,-0.04251 0.71151,-0.06377 0.98289,-0.122981 1.96324,-0.283244 2.9189,-0.54687 0.75849,-0.228298 1.51582,-0.459838 2.26997,-0.70214 0.44916,-0.180782 0.92922,-0.268392 1.38752,-0.416898 -0.0101,-0.02222 -0.0202,-0.04445 -0.0304,-0.06667 0,0 3.32164,-2.205692 3.32164,-2.205692 v 0 c -0.0362,-0.03389 -0.0723,-0.06779 -0.10846,-0.10168 -0.1864,2.42e-4 -0.0708,-0.01 -0.29206,0.04511 -0.41413,0.103093 -0.82274,0.224088 -1.22338,0.372458 -0.73855,0.255209 -1.4906,0.464491 -2.23797,0.691147 -0.96306,0.316952 -1.95575,0.530963 -2.95981,0.671637 -0.22638,0.02494 -0.45197,0.05862 -0.67914,0.07482 -0.81146,0.05787 -1.62678,-0.01234 -2.4343,-0.08795 -0.15406,-0.0069 -0.29309,-0.01036 -0.44535,-0.02676 -0.0518,-0.0056 -0.10925,-0.0475 -0.15485,-0.0222 -2.19791,1.219558 -3.53697,0.781988 -3.49535,2.351193 0.0479,0.385506 0.0733,0.775732 0.19228,1.148424 0.26168,0.807543 0.58642,1.592845 0.85736,2.397281 0.34163,0.998733 0.71826,1.998956 0.88664,3.044664 0,0 3.48623,-1.843884 3.48623,-1.843884 z" />
  </g>
</svg>
