<?xml version="1.0" encoding="UTF-8"?>
<!DOCTYPE svg PUBLIC "-//W3C//DTD SVG 1.1//EN" "http://www.w3.org/Graphics/SVG/1.1/DTD/svg11.dtd">
<svg xmlns="http://www.w3.org/2000/svg" version="1.1" width="100px" height="100px" style="shape-rendering:geometricPrecision; text-rendering:geometricPrecision; image-rendering:optimizeQuality; fill-rule:evenodd; clip-rule:evenodd" xmlns:xlink="http://www.w3.org/1999/xlink">
<g><path style="opacity:0.996" fill="#000102" d="M 2.5,-0.5 C 33.8333,-0.5 65.1667,-0.5 96.5,-0.5C 97.1667,0.833333 98.1667,1.83333 99.5,2.5C 99.5,33.8333 99.5,65.1667 99.5,96.5C 98.1667,97.1667 97.1667,98.1667 96.5,99.5C 65.1667,99.5 33.8333,99.5 2.5,99.5C 1.83333,98.1667 0.833333,97.1667 -0.5,96.5C -0.5,65.1667 -0.5,33.8333 -0.5,2.5C 0.833333,1.83333 1.83333,0.833333 2.5,-0.5 Z"/></g>
<g><path style="opacity:1" fill="#099feb" d="M 7.5,6.5 C 16.1731,6.33358 24.8397,6.50025 33.5,7C 22.1064,12.3935 13.273,20.5602 7,31.5C 6.19898,23.0881 6.36565,14.7548 7.5,6.5 Z"/></g>
<g><path style="opacity:1" fill="#0ba4ee" d="M 65.5,7.5 C 74.3178,6.5067 83.3178,6.17336 92.5,6.5C 92.6664,15.1731 92.4998,23.8397 92,32.5C 86.2256,20.8914 77.3922,12.558 65.5,7.5 Z"/></g>
<g><path style="opacity:1" fill="#01a5ef" d="M 41.5,10.5 C 65.906,8.60937 81.7394,19.276 89,42.5C 91.3779,66.9185 80.8779,82.7518 57.5,90C 33.0815,92.3779 17.2482,81.8779 10,58.5C 7.9167,34.1078 18.4167,18.1078 41.5,10.5 Z"/></g>
<g><path style="opacity:1" fill="#020609" d="M 25.5,22.5 C 27.3084,22.4914 28.9751,22.9914 30.5,24C 38.4679,29.2314 46.6345,34.0648 55,38.5C 57.4881,35.7172 58.8214,32.3839 59,28.5C 60.0113,27.6634 61.1779,27.33 62.5,27.5C 62.6933,31.007 62.0267,34.3404 60.5,37.5C 63.8965,38.4939 67.2299,38.1605 70.5,36.5C 72.5962,37.6197 72.9295,39.1197 71.5,41C 68.4715,41.539 65.4715,42.2057 62.5,43C 62.0426,43.414 61.7093,43.914 61.5,44.5C 66.1611,53.8262 71.3278,62.8262 77,71.5C 77.6667,72.5 77.6667,73.5 77,74.5C 65.973,79.9053 56.3063,78.2387 48,69.5C 47.5172,68.552 47.3505,67.552 47.5,66.5C 42.914,67.1436 38.414,67.1436 34,66.5C 32.1802,62.5931 32.0135,58.5931 33.5,54.5C 21.5771,46.0768 18.9104,35.4102 25.5,22.5 Z"/></g>
<g><path style="opacity:1" fill="#04a3ee" d="M 26.5,28.5 C 34.3813,31.774 42.048,35.6073 49.5,40C 50.4506,40.7175 50.6172,41.5509 50,42.5C 33.2103,53.2329 25.3769,48.5662 26.5,28.5 Z"/></g>
<g><path style="opacity:1" fill="#04a2ed" d="M 49.5,47.5 C 50.5,47.5 51.5,47.5 52.5,47.5C 51.468,52.7311 49.468,57.5644 46.5,62C 43.5184,62.498 40.5184,62.6646 37.5,62.5C 37.3354,59.4816 37.502,56.4816 38,53.5C 41.7514,51.2046 45.5847,49.2046 49.5,47.5 Z"/></g>
<g><path style="opacity:1" fill="#03a3ee" d="M 57.5,47.5 C 58.4584,47.9528 59.2917,48.6195 60,49.5C 63.1221,56.8752 66.6221,64.0418 70.5,71C 63.5121,74.9931 57.3455,73.8264 52,67.5C 52.0904,60.3898 53.9238,53.7231 57.5,47.5 Z"/></g>
<g><path style="opacity:1" fill="#0fa4ef" d="M 6.5,69.5 C 9.736,74.2775 13.236,78.9441 17,83.5C 20.9224,86.2114 24.7557,89.0447 28.5,92C 21.1742,92.4997 13.8409,92.6663 6.5,92.5C 6.5,84.8333 6.5,77.1667 6.5,69.5 Z"/></g>
<g><path style="opacity:1" fill="#0fa2ec" d="M 91.5,70.5 C 92.4916,77.6476 92.825,84.9809 92.5,92.5C 85.1591,92.6663 77.8258,92.4997 70.5,92C 79.0439,86.29 86.0439,79.1233 91.5,70.5 Z"/></g>
</svg>
