<?xml version="1.0" encoding="utf-8" ?>
    <svg version="1.1"
        baseProfile="full"
        xmlns="http://www.w3.org/2000/svg"
        xmlns:xlink="http://www.w3.org/1999/xlink" 
         xmlns:rdf="http://www.w3.org/1999/02/22-rdf-syntax-ns#"
         xmlns:cc="http://creativecommons.org/ns#"
         xmlns:dc="http://purl.org/dc/elements/1.1/" 
        preserveAspectRatio="xMidYMid meet" height="1200" width="1000" viewBox="0,0,1030,1230 ">
<metadata>
<rdf:RDF>
      <cc:Work
         rdf:about="">
        <dc:format>image/svg+xml</dc:format>
        <dc:type
           rdf:resource="http://purl.org/dc/dcmitype/StillImage" />
        <dc:rights>
          <cc:Agent>
            <dc:title>This work is licensed under a &lt;a rel=&quot;license&quot; href=&quot;http://creativecommons.org/licenses/by-nc-sa/4.0/&quot;&gt;Creative Commons Attribution-NonCommercial-ShareAlike 4.0 International License&lt;/a&gt;.</dc:title>
          </cc:Agent>
        </dc:rights>
         <dc:creator>
           <cc:Agent>
              <dc:title>tree/tree-fruit - unknown
apple/tree-fruit - James Birkett
heater shape - https://commons.wikimedia.org/wiki/User:MG
</dc:title>
           </cc:Agent>
        </dc:creator>
      </cc:Work>
      </rdf:RDF>
</metadata>
<defs>
      <filter id="shiny" x="0" y="0" width="150%" height="150%">
      <feGaussianBlur in = "SourceAlpha" stdDeviation = "4" result = "blur1"/>
        <feSpecularLighting result = "specOut" in = "blur1" specularExponent = "20" lighting-color = "#696969">
            <fePointLight x = "300" y = "300" z = "500"/>
        </feSpecularLighting>
        <feComposite result="highlight" in = "SourceGraphic" in2 = "specOut" operator = "arithmetic" k1 = "0" k2 = "1" k3 = "1" k4 = "0"/>
      <feOffset result="offOut" in="SourceGraphic" dx="14" dy="14" />
      <feColorMatrix result = "matrixOut" in = "offOut" type = "matrix" values = "0.2 0 0 0 0 0 0.2 0 0 0 0 0 0.2 0 0 0 0 0 1 0"/>
      <feGaussianBlur result="blurOut" in="matrixOut" stdDeviation="10" />
      <feBlend in="highlight" in2="blurOut" mode="normal"/>
    </filter></defs><g  filter="url(#shiny)" ><g mask="url(#mask9-1)"><g><g  fill="#088930"><rect x='0' y='0' width='1000' height='1200'><title>Field</title></rect></g><g transform='translate(0,0)'><g  fill="#fcdd07"><g class="PlaceCharge" transform=" translate(100,157.79816513761) scale(3.6697247706422, 3.6697247706422) " >
<title>a tree</title><g  />
<g  ><path d="m 83,133 -6.3,13 14.3,13 4,68 -7,12 31,-1 14,0 c -11,-14 -11,-50 -11,-74 6,-7 12,-10 17,-14 l -10,-11 -9,8 1,-15 -11,13 -8,-16 -4,18 -15,-14 z"  fill-rule="evenodd" stroke="#000000" stroke-width="3" />
</g>
<g  ><path d="m 89,137 -4,0 2,10 -5,-2 -3.1,7 -5.4,-1 -3.2,6 -5.8,3 -5,-3 -7.1,5 -0.9,-5 -3.6,3 -1.4,-2 c -1.2,3 -3.4,3 -5.4,3 l -0.9,-4 c -2.1,2 -4.2,4 -7.2,5 l -0.4,-4 -5,4 -0.4,-6 -3.6,0 0,-4 -2.2,-1 c -0.5,-3 2,-5 4.9,-7 l -5.4,0 5,-6 c -3.5,1 -6.9,3 -10.4,6 l -2.2,-4 -2.3,2 -4.9,0 c -2,-2 -1,-5 1.8,-7 -1.3,-3 0.7,-5 2.7,-7 L 7,127 c 0.7,-2 1.1,-3 7.6,-5 l -5.4,-4 c 4.3,0 8.7,0 12.2,4 l 0.4,-4 4.5,3 1.3,-2 3.2,-3 -4.9,-1 4,-5 -7.6,4 -2.3,-5 -4.5,5 -3.1,-5 -7.7,2 3.6,-5 -5.4,-1 3.6,-2 -1.3,-3 6.7,1 -0.9,-4 6.3,-1 -8.5,0 0.9,-3 -7.7,0 3.6,-6 -2.7,-2 5,-3 0,-5 5.4,1 -0.9,-5 7.6,3 -1.8,-6 7.2,0 0.5,-2 -3.2,-1 1.4,-2 -5.4,2 -1.4,-3 -4.9,2 -3.2,-3 -4.5,0 0,-3 4.5,0 0.9,-4 4.1,2 6.3,-2 -5,-3 6.8,-2 -3.2,-3 2.3,-4 -5,-1 -1.8,-5 6.3,-1 -3.1,-4 4.9,-1 -2.2,-3 2.2,-2 -2.7,-4 4.5,-1 -0.9,-5 4.5,-1 c 0,0 -1.4,-5 2.2,-3 3.6,3 13.1,0 13.1,0 l -0.5,5 5.9,-2 1.3,5 1.8,-2 3.2,4 3.5,-2 C 57,20 56.4,18 55.5,17 l 4,-1 2.3,4 c 1.6,-3 3.3,-2 4.9,-1 L 68.1,17 65.4,7 69,4 l 2.7,8 3.6,-5 2.2,4 C 79.1,8 81,5 84,3 c 2,3 2,6 2,8 l 3,-2 3,4 -2,-8 c 4,-1 6,2 8,4 -1,-3 0,-5 3,-8 l 1,7 2,-5 7,0 0,5 c 2,-4 5,-6 9,-7 l 1,9 6,-6 4,0 -2,7 6,0 5,-5 3,8 c 1,-2 1,-4 5,-5 l 0,4 c 2,-2 5,-4 9,-4 l 5,3 -6,4 6,-1 3,3 5,-4 c 1,1 -1,4 -3,6 l 10,-1 3,3 -5,1 4,2 2,0 5,-2 -6,7 c 2,2 4,4 2,7 l -7,-1 -1,1 4,3 -5,3 2,3 -3,6 5,-3 1,5 c 2,-3 3,-5 6,-6 l 2,-1 1,3 7,0 -3,6 c 4,-3 6,-2 9,-2 l -5,3 3,3 -3,0 c 1,3 0,5 -2,7 l 4,0 2,-3 3,1 2,3 6,-1 -1,3 7,2 -3,2 3,5 -4,3 -2,-3 -2,5 -3,-4 -1,5 5,2 5,-1 1,4 2,6 -6,-2 -1,6 -3,-2 -2,2 3,3 -2,2 -4,0 3,3 -2,1 6,5 1,4 -3,0 -3,-2 3,5 -1,3 -3,-2 1,6 c -4,1 -5,-2 -7,-3 l 2,6 c -2,2 -5,1 -7,0 0,3 -2,5 -5,6 l -2,-4 -1,5 -4,-1 4,5 -7,1 3,6 -6,0 -3,5 -5,-5 -2,6 -5,-2 -5,2 -6,-3 -4,5 -2,-4 -5,4 -3,-4 -1,4 -2,-7 -5,4 c -2,-3 -1,-6 2,-9 l -6,0 0,-4 -12,4 -5,-4 -5,4 -1,-6 -4,1 -2,-3 -4,0 z"  fill-rule="evenodd" stroke="#000000" stroke-width="3" />
</g>
</g>
</g><g  fill="#da1219"><g class="PlaceCharge" transform=" translate(212.15816665133,775) scale(0.53907940224504, 0.53907940224504) " >
<title>three apples</title><g  transform="translate(-14.246038,-11.370824)"  ><path d="m 85.75,55.3 c -20,5 -45,-5 -50,35 -5,40 30,115 60,105 15,-5 10,-5 30,0 40,10 80,-89 60,-120 -20,-30 -60,-30 -100,-20 z"  stroke="#000000" stroke-width="1.00000003pt" />
<path d="m 110.75,80 -5,0.3 c 0,-25 5,-45 10,-55 5,-10 7,-18 15,-10 5,5 -6.85,3.68 -10,10 -5,10 -10,25 -10,54.7 z"  fill="#666666" stroke="#000000" stroke-width="1.00000003pt" />
<path d="m 140.75,70.3 c -10,5 -20,10 -35,10 -15,0 -20,-5 -30,-10"  fill="none" fill-rule="evenodd" stroke="#000000" stroke-width="1.00000003pt" />
</g>
<g  transform="translate(-33.496038,-31.070824)"  ><path d="M 130,80 C 120,50 95,35 70,35 c -10,0 -20,0 -35,5 15,10 25,25 45,25 15,0 40,12 50,15 z"  stroke="#000000" stroke-width="1.00000003pt" />
<path d="m 35,40 c 35,5 70,10 95,40"  fill="none" fill-opacity="0.75" stroke="#000000" stroke-width="1.00000003pt" />
<path d="m 55,35.15 c 4,1 7,5.85 10,9.85 -5,6 -9.5,5 -16.7,5.15"  fill="none" fill-opacity="0.75" stroke="#000000" stroke-width="0.625" />
<path d="m 72,35 c 8,4 10,8 13,15 -3,4 -9.75,10.125 -20.75,11.125"  fill="none" fill-opacity="0.75" stroke="#000000" stroke-width="0.625" />
<path d="m 92,39 c 5,4 9.5,13.5 10.5,18.5 C 97.5,60.5 90,65 80,65"  fill="none" fill-opacity="0.75" stroke="#000000" stroke-width="0.625" />
<path d="m 110,50 c 5.5,7 3,9 5,15 -6,1 -8,4 -15,4"  fill="none" fill-opacity="0.75" stroke="#000000" stroke-width="0.625" />
</g>
</g>
</g><g  fill="#da1219"><g class="PlaceCharge" transform=" translate(692.15816665133,775) scale(0.53907940224504, 0.53907940224504) " >
<title>three apples</title><g  transform="translate(-14.246038,-11.370824)"  ><path d="m 85.75,55.3 c -20,5 -45,-5 -50,35 -5,40 30,115 60,105 15,-5 10,-5 30,0 40,10 80,-89 60,-120 -20,-30 -60,-30 -100,-20 z"  stroke="#000000" stroke-width="1.00000003pt" />
<path d="m 110.75,80 -5,0.3 c 0,-25 5,-45 10,-55 5,-10 7,-18 15,-10 5,5 -6.85,3.68 -10,10 -5,10 -10,25 -10,54.7 z"  fill="#666666" stroke="#000000" stroke-width="1.00000003pt" />
<path d="m 140.75,70.3 c -10,5 -20,10 -35,10 -15,0 -20,-5 -30,-10"  fill="none" fill-rule="evenodd" stroke="#000000" stroke-width="1.00000003pt" />
</g>
<g  transform="translate(-33.496038,-31.070824)"  ><path d="M 130,80 C 120,50 95,35 70,35 c -10,0 -20,0 -35,5 15,10 25,25 45,25 15,0 40,12 50,15 z"  stroke="#000000" stroke-width="1.00000003pt" />
<path d="m 35,40 c 35,5 70,10 95,40"  fill="none" fill-opacity="0.75" stroke="#000000" stroke-width="1.00000003pt" />
<path d="m 55,35.15 c 4,1 7,5.85 10,9.85 -5,6 -9.5,5 -16.7,5.15"  fill="none" fill-opacity="0.75" stroke="#000000" stroke-width="0.625" />
<path d="m 72,35 c 8,4 10,8 13,15 -3,4 -9.75,10.125 -20.75,11.125"  fill="none" fill-opacity="0.75" stroke="#000000" stroke-width="0.625" />
<path d="m 92,39 c 5,4 9.5,13.5 10.5,18.5 C 97.5,60.5 90,65 80,65"  fill="none" fill-opacity="0.75" stroke="#000000" stroke-width="0.625" />
<path d="m 110,50 c 5.5,7 3,9 5,15 -6,1 -8,4 -15,4"  fill="none" fill-opacity="0.75" stroke="#000000" stroke-width="0.625" />
</g>
</g>
</g><g  fill="#da1219"><g class="PlaceCharge" transform=" translate(452.15816665133,925) scale(0.53907940224504, 0.53907940224504) " >
<title>three apples</title><g  transform="translate(-14.246038,-11.370824)"  ><path d="m 85.75,55.3 c -20,5 -45,-5 -50,35 -5,40 30,115 60,105 15,-5 10,-5 30,0 40,10 80,-89 60,-120 -20,-30 -60,-30 -100,-20 z"  stroke="#000000" stroke-width="1.00000003pt" />
<path d="m 110.75,80 -5,0.3 c 0,-25 5,-45 10,-55 5,-10 7,-18 15,-10 5,5 -6.85,3.68 -10,10 -5,10 -10,25 -10,54.7 z"  fill="#666666" stroke="#000000" stroke-width="1.00000003pt" />
<path d="m 140.75,70.3 c -10,5 -20,10 -35,10 -15,0 -20,-5 -30,-10"  fill="none" fill-rule="evenodd" stroke="#000000" stroke-width="1.00000003pt" />
</g>
<g  transform="translate(-33.496038,-31.070824)"  ><path d="M 130,80 C 120,50 95,35 70,35 c -10,0 -20,0 -35,5 15,10 25,25 45,25 15,0 40,12 50,15 z"  stroke="#000000" stroke-width="1.00000003pt" />
<path d="m 35,40 c 35,5 70,10 95,40"  fill="none" fill-opacity="0.75" stroke="#000000" stroke-width="1.00000003pt" />
<path d="m 55,35.15 c 4,1 7,5.85 10,9.85 -5,6 -9.5,5 -16.7,5.15"  fill="none" fill-opacity="0.75" stroke="#000000" stroke-width="0.625" />
<path d="m 72,35 c 8,4 10,8 13,15 -3,4 -9.75,10.125 -20.75,11.125"  fill="none" fill-opacity="0.75" stroke="#000000" stroke-width="0.625" />
<path d="m 92,39 c 5,4 9.5,13.5 10.5,18.5 C 97.5,60.5 90,65 80,65"  fill="none" fill-opacity="0.75" stroke="#000000" stroke-width="0.625" />
<path d="m 110,50 c 5.5,7 3,9 5,15 -6,1 -8,4 -15,4"  fill="none" fill-opacity="0.75" stroke="#000000" stroke-width="0.625" />
</g>
</g>
</g></g></g></g><defs><mask id="mask9-1" >
<path fill="#FFFFFF" d="m 0,0 v 800 c -2.5063876,43.11115 1.2341419,84.33503 21.489586,125.13639 20.255443,40.80137 53.477613,79.98631 98.039434,115.63581 44.56181,35.6494 100.44867,67.7517 164.92346,94.7345 64.47479,26.9828 137.51639,48.8374 215.54752,64.4933 78.03113,-15.6559 151.07273,-37.5105 215.54752,-64.4933 64.47479,-26.9828 120.36165,-59.0851 164.92346,-94.7345 44.56182,-35.6495 77.78399,-74.83444 98.03943,-115.63581 C 998.76586,884.33503 1000.1453,841.93063 1000,800 V 0 Z" />
</mask>
</defs></g></svg>
