<?xml version="1.0" encoding="UTF-8"?>
<!DOCTYPE svg PUBLIC "-//W3C//DTD SVG 1.1//EN" "http://www.w3.org/Graphics/SVG/1.1/DTD/svg11.dtd">
<svg xmlns="http://www.w3.org/2000/svg" version="1.1" width="100px" height="100px" style="shape-rendering:geometricPrecision; text-rendering:geometricPrecision; image-rendering:optimizeQuality; fill-rule:evenodd; clip-rule:evenodd" xmlns:xlink="http://www.w3.org/1999/xlink">
<g><path style="opacity:1" fill="#000000" d="M 3.5,-0.5 C 34.1667,-0.5 64.8333,-0.5 95.5,-0.5C 96.5,1.16667 97.8333,2.5 99.5,3.5C 99.5,34.1667 99.5,64.8333 99.5,95.5C 97.8333,96.5 96.5,97.8333 95.5,99.5C 64.8333,99.5 34.1667,99.5 3.5,99.5C 2.5,97.8333 1.16667,96.5 -0.5,95.5C -0.5,64.8333 -0.5,34.1667 -0.5,3.5C 1.16667,2.5 2.5,1.16667 3.5,-0.5 Z"/></g>
<g><path style="opacity:1" fill="#fe40f2" d="M 7.5,6.5 C 10.3198,6.24751 12.9865,6.74751 15.5,8C 17.5977,10.854 19.931,13.5206 22.5,16C 23.448,16.4828 24.448,16.6495 25.5,16.5C 25.3784,12.8527 23.7118,10.0194 20.5,8C 21.8333,7.66667 23.1667,7.33333 24.5,7C 40.5,6.33333 56.5,6.33333 72.5,7C 72.8333,7.33333 73.1667,7.66667 73.5,8C 72.373,9.75329 71.373,11.5866 70.5,13.5C 72.0064,14.7472 73.5064,14.7472 75,13.5C 76.9274,6.82261 81.094,4.82261 87.5,7.5C 86.3333,9.16667 85.1667,10.8333 84,12.5C 83.2195,13.9437 83.3861,15.277 84.5,16.5C 87.1506,14.3501 89.6506,12.0168 92,9.5C 92.6667,11.8333 92.6667,14.1667 92,16.5C 89.4289,18.9756 87.9289,21.9756 87.5,25.5C 88.9305,25.5792 90.2638,25.2458 91.5,24.5C 92.8333,31.8333 92.8333,39.1667 91.5,46.5C 88.562,45.4252 85.562,45.2585 82.5,46C 81.1667,47.3333 81.1667,48.6667 82.5,50C 85.5,50.3333 88.5,50.6667 91.5,51C 92.4231,53.0408 92.7564,55.2075 92.5,57.5C 90.7376,57.6427 89.0709,57.3094 87.5,56.5C 86.2801,56.8869 85.6135,57.7202 85.5,59C 87.2895,61.1642 89.4562,62.9975 92,64.5C 92.8309,71.1915 92.6642,77.8582 91.5,84.5C 88.4867,81.1624 84.82,79.1624 80.5,78.5C 80.3505,79.552 80.5172,80.552 81,81.5C 84.074,84.2855 87.2407,86.9522 90.5,89.5C 91.3857,90.325 91.719,91.325 91.5,92.5C 63.498,92.6666 35.498,92.5 7.5,92C 6.38951,89.2628 6.22284,86.4294 7,83.5C 9.48156,82.0023 11.9816,80.5023 14.5,79C 17.7892,77.0414 18.1225,74.8748 15.5,72.5C 12.864,73.9705 10.364,75.6372 8,77.5C 7.66667,77.1667 7.33333,76.8333 7,76.5C 6.33333,69.8333 6.33333,63.1667 7,56.5C 9.74046,55.7178 12.5738,55.2178 15.5,55C 16.8333,53.6667 16.8333,52.3333 15.5,51C 12.854,50.5026 10.1873,50.3359 7.5,50.5C 7.21478,48.712 7.54811,47.0453 8.5,45.5C 9.94107,46.304 11.4411,46.9706 13,47.5C 14.5,47.3333 15.3333,46.5 15.5,45C 12.9678,42.4789 10.1345,40.3122 7,38.5C 6.16915,31.8085 6.33581,25.1418 7.5,18.5C 10.1215,20.8134 13.1215,22.1467 16.5,22.5C 16.6495,21.448 16.4828,20.448 16,19.5C 13,16.8333 10,14.1667 7,11.5C 6.36026,9.73498 6.52692,8.06831 7.5,6.5 Z"/></g>
<g><path style="opacity:1" fill="#000000" d="M 29.5,18.5 C 45.1702,18.3334 60.8369,18.5001 76.5,19C 77,19.5 77.5,20 78,20.5C 78.7302,35.5181 78.5635,50.5181 77.5,65.5C 64.4957,65.3334 51.4957,65.5001 38.5,66C 35.8333,66.6667 33.1667,67.3333 30.5,68C 28.3199,70.4177 27.9865,73.0844 29.5,76C 45.1631,76.4999 60.8298,76.6666 76.5,76.5C 76.67,77.8221 76.3366,78.9887 75.5,80C 59.5,80.6667 43.5,80.6667 27.5,80C 25.9588,78.4207 24.7922,76.5873 24,74.5C 23.3333,58.1667 23.3333,41.8333 24,25.5C 25.6665,23.0043 27.4998,20.671 29.5,18.5 Z"/></g>
<g><path style="opacity:1" fill="#fe40f2" d="M 31.5,22.5 C 32.4959,22.4142 33.3292,22.7476 34,23.5C 34.8326,36.1798 34.666,48.8465 33.5,61.5C 31.8333,62.1667 30.1667,62.8333 28.5,63.5C 27.3341,51.5139 27.1674,39.5139 28,27.5C 28.6972,25.4156 29.8639,23.7489 31.5,22.5 Z"/></g>
<g><path style="opacity:1" fill="#fe40f2" d="M 39.5,22.5 C 50.748,22.1793 61.9146,22.5126 73,23.5C 73.4999,36.1623 73.6666,48.8289 73.5,61.5C 61.8333,61.5 50.1667,61.5 38.5,61.5C 38.1863,48.4206 38.5197,35.4206 39.5,22.5 Z"/></g>
<g><path style="opacity:1" fill="#000000" d="M 55.5,28.5 C 61.9801,30.9703 66.9801,35.3037 70.5,41.5C 66.8737,44.6567 63.207,47.8234 59.5,51C 57.8333,51.6667 56.1667,51.6667 54.5,51C 50.5346,47.5402 46.8679,43.8736 43.5,40C 47.2797,35.9422 51.2797,32.1089 55.5,28.5 Z"/></g>
<g><path style="opacity:1" fill="#f23ce7" d="M 53.5,34.5 C 54.7868,35.8714 55.4535,37.7047 55.5,40C 55.1667,41.8333 54.8333,43.6667 54.5,45.5C 52.5,43.8333 50.5,42.1667 48.5,40.5C 50.1897,38.4807 51.8564,36.4807 53.5,34.5 Z"/></g>
<g><path style="opacity:1" fill="#f63dea" d="M 59.5,35.5 C 65.4774,38.9601 65.4774,41.9601 59.5,44.5C 58.2588,41.463 58.2588,38.463 59.5,35.5 Z"/></g>
<g><path style="opacity:1" fill="#000000" d="M 74.5,66.5 C 76.3464,66.2222 77.6798,66.8888 78.5,68.5C 77.3523,70.1487 76.019,71.6487 74.5,73C 61.1667,73.6667 47.8333,73.6667 34.5,73C 33.3279,72.5814 32.3279,71.9147 31.5,71C 44.679,69.6847 58.0123,69.0181 71.5,69C 72.9423,68.6232 73.9423,67.7899 74.5,66.5 Z"/></g>
</svg>
