<?xml version="1.0" encoding="UTF-8" standalone="no"?>
<svg
   height="660"
   width="600"
   version="1.0"
   id="svg2"
   sodipodi:version="0.32"
   inkscape:version="1.2 (dc2aedaf03, 2022-05-15)"
   sodipodi:docname="Blason_ville_fr_Saint-Denis-de-Cabanne_(Loire).svg"
   inkscape:export-filename="/Users/olivier/Desktop/Blason Rouge/Blason_Vide_3D.png"
   inkscape:export-xdpi="144"
   inkscape:export-ydpi="144"
   inkscape:output_extension="org.inkscape.output.svg.inkscape"
   xmlns:inkscape="http://www.inkscape.org/namespaces/inkscape"
   xmlns:sodipodi="http://sodipodi.sourceforge.net/DTD/sodipodi-0.dtd"
   xmlns:xlink="http://www.w3.org/1999/xlink"
   xmlns="http://www.w3.org/2000/svg"
   xmlns:svg="http://www.w3.org/2000/svg"
   xmlns:rdf="http://www.w3.org/1999/02/22-rdf-syntax-ns#"
   xmlns:cc="http://creativecommons.org/ns#"
   xmlns:dc="http://purl.org/dc/elements/1.1/">
  <metadata
     id="metadata49">
    <rdf:RDF>
      <cc:Work
         rdf:about="">
        <dc:format>image/svg+xml</dc:format>
        <dc:type
           rdf:resource="http://purl.org/dc/dcmitype/StillImage" />
        <dc:title>Gabarit d'un blason en pointe pour le projet Blasons de Wikipédia</dc:title>
        <dc:date>03-AUG-2006</dc:date>
        <dc:creator>
          <cc:Agent>
            <dc:title>Jérôme BLUM (wagner51)</dc:title>
          </cc:Agent>
        </dc:creator>
        <cc:license
           rdf:resource="http://web.resource.org/cc/PublicDomain" />
        <dc:language>fr</dc:language>
        <dc:subject>
          <rdf:Bag>
            <rdf:li>gabarit modèle blason projet wikipédia</rdf:li>
          </rdf:Bag>
        </dc:subject>
        <dc:rights>
          <cc:Agent>
            <dc:title />
          </cc:Agent>
        </dc:rights>
        <dc:publisher>
          <cc:Agent>
            <dc:title />
          </cc:Agent>
        </dc:publisher>
        <dc:identifier />
        <dc:source />
        <dc:relation />
        <dc:coverage />
        <dc:description />
        <dc:contributor>
          <cc:Agent>
            <dc:title />
          </cc:Agent>
        </dc:contributor>
      </cc:Work>
      <cc:License
         rdf:about="http://web.resource.org/cc/PublicDomain">
        <cc:permits
           rdf:resource="http://web.resource.org/cc/Reproduction" />
        <cc:permits
           rdf:resource="http://web.resource.org/cc/Distribution" />
        <cc:permits
           rdf:resource="http://web.resource.org/cc/DerivativeWorks" />
      </cc:License>
    </rdf:RDF>
  </metadata>
  <sodipodi:namedview
     inkscape:window-height="977"
     inkscape:window-width="1280"
     inkscape:pageshadow="2"
     inkscape:pageopacity="0.0"
     guidetolerance="10.0"
     gridtolerance="10.0"
     objecttolerance="10.0"
     borderopacity="1.0"
     bordercolor="#666666"
     pagecolor="#ffffff"
     id="base"
     showgrid="false"
     height="660px"
     inkscape:zoom="1.6434876"
     inkscape:cx="318.22571"
     inkscape:cy="343.17266"
     inkscape:window-x="0"
     inkscape:window-y="0"
     inkscape:current-layer="layer4"
     showguides="true"
     inkscape:guide-bbox="true"
     inkscape:snap-intersection-line-segments="true"
     inkscape:snap-intersection-grid-guide="false"
     inkscape:object-nodes="true"
     inkscape:snap-global="false"
     inkscape:showpageshadow="2"
     inkscape:pagecheckerboard="0"
     inkscape:deskcolor="#d1d1d1"
     inkscape:window-maximized="0" />
  <desc
     id="desc4">Flag of Canton of Valais (Wallis)</desc>
  <defs
     id="defs6">
    <linearGradient
       id="linearGradient2893">
      <stop
         style="stop-color:white;stop-opacity:0.3137255;"
         offset="0"
         id="stop2895" />
      <stop
         id="stop2897"
         offset="0.19"
         style="stop-color:white;stop-opacity:0.25098041;" />
      <stop
         style="stop-color:#6b6b6b;stop-opacity:0.1254902;"
         offset="0.60000002"
         id="stop2901" />
      <stop
         style="stop-color:black;stop-opacity:0.1254902;"
         offset="1"
         id="stop2899" />
    </linearGradient>
    <radialGradient
       inkscape:collect="always"
       xlink:href="#linearGradient2893"
       id="radialGradient3163"
       gradientUnits="userSpaceOnUse"
       gradientTransform="matrix(1.353218,0,0,1.348928,-77.62935,-85.74693)"
       cx="221.44487"
       cy="226.33101"
       fx="221.44487"
       fy="226.33101"
       r="300" />
    <radialGradient
       inkscape:collect="always"
       xlink:href="#linearGradient2893"
       id="radialGradient4756"
       gradientUnits="userSpaceOnUse"
       gradientTransform="matrix(1.353218,0,0,1.348928,-77.62935,-85.74693)"
       cx="221.44487"
       cy="226.33101"
       fx="221.44487"
       fy="226.33101"
       r="300" />
    <radialGradient
       inkscape:collect="always"
       xlink:href="#linearGradient2893"
       id="radialGradient4791"
       gradientUnits="userSpaceOnUse"
       gradientTransform="matrix(1.353218,0,0,1.348928,-77.62935,-85.74693)"
       cx="221.44487"
       cy="226.33101"
       fx="221.44487"
       fy="226.33101"
       r="300" />
    <radialGradient
       inkscape:collect="always"
       xlink:href="#linearGradient2893"
       id="radialGradient4795"
       gradientUnits="userSpaceOnUse"
       gradientTransform="matrix(1.353218,0,0,1.348928,566.33415,-21.64016)"
       cx="221.44487"
       cy="226.33101"
       fx="221.44487"
       fy="226.33101"
       r="300" />
  </defs>
  <g
     inkscape:groupmode="layer"
     id="layer3"
     inkscape:label="Fond écu"
     style="display:inline">
    <path
       d="M 300,658.5 C 300,658.5 598.5,546.17969 598.5,260.72817 C 598.5,-24.723354 598.5,2.1764768 598.5,2.1764768 L 1.5,2.1764768 L 1.5,260.72817 C 1.5,546.17969 300,658.5 300,658.5 z"
       style="fill:#fcef3c;fill-opacity:1;fill-rule:evenodd;stroke:none;stroke-width:1px;stroke-linecap:butt;stroke-linejoin:miter;stroke-opacity:1;display:inline"
       id="path11587" />
    <path
       id="path7820"
       d="M 416.42121,592.35027 L 184.18244,592.35027"
       style="opacity:1;fill:none;fill-opacity:1;stroke:#000000;stroke-width:3.29945588;stroke-miterlimit:4;stroke-dasharray:none;stroke-opacity:1"
       sodipodi:nodetypes="cc" />
    <path
       style="opacity:1;fill:none;fill-opacity:1;stroke:#000000;stroke-width:3.29945588;stroke-miterlimit:4;stroke-dasharray:none;stroke-opacity:1"
       d="M 490.42121,526.35027 L 108.18244,526.35027"
       id="path7822"
       sodipodi:nodetypes="cc" />
    <path
       id="path7824"
       d="M 540.42121,460.35027 L 58.18244,460.35027"
       style="opacity:1;fill:none;fill-opacity:1;stroke:#000000;stroke-width:3.29945588;stroke-miterlimit:4;stroke-dasharray:none;stroke-opacity:1"
       sodipodi:nodetypes="cc" />
    <path
       style="opacity:1;fill:none;fill-opacity:1;stroke:#000000;stroke-width:3.29945588;stroke-miterlimit:4;stroke-dasharray:none;stroke-opacity:1"
       d="M 574.42121,394.35027 L 26.18244,394.35027"
       id="path7826"
       sodipodi:nodetypes="cc" />
    <path
       id="path7828"
       d="M 591.39839,328.39838 L 7.6016138,328.39838"
       style="opacity:1;fill:none;fill-opacity:1;stroke:#000000;stroke-width:3.20322776;stroke-miterlimit:4;stroke-dasharray:none;stroke-opacity:1"
       sodipodi:nodetypes="cc" />
    <path
       style="opacity:1;fill:none;fill-opacity:1;stroke:#000000;stroke-width:3.20322776;stroke-miterlimit:4;stroke-dasharray:none;stroke-opacity:1"
       d="M 599.39839,262.37433 L 1.6016138,262.37433"
       id="path7830"
       sodipodi:nodetypes="cc" />
    <path
       id="path7836"
       d="M 597.39839,196.35027 L 1.6016138,196.35027"
       style="opacity:1;fill:none;fill-opacity:1;stroke:#000000;stroke-width:3.20322776;stroke-miterlimit:4;stroke-dasharray:none;stroke-opacity:1"
       sodipodi:nodetypes="cc" />
    <path
       style="opacity:1;fill:none;fill-opacity:1;stroke:#000000;stroke-width:3.20322776;stroke-miterlimit:4;stroke-dasharray:none;stroke-opacity:1"
       d="M 597.39839,130.32621 L 1.6016138,130.32621"
       id="path7838"
       sodipodi:nodetypes="cc" />
    <path
       id="path7840"
       d="M 597.39839,64.302158 L 1.6016138,64.302158"
       style="opacity:1;fill:none;fill-opacity:1;stroke:#000000;stroke-width:3.20322776;stroke-miterlimit:4;stroke-dasharray:none;stroke-opacity:1"
       sodipodi:nodetypes="cc" />
    <path
       style="opacity:1;fill:none;fill-opacity:1;stroke:#000000;stroke-width:2.5;stroke-miterlimit:4;stroke-dasharray:none;stroke-opacity:1"
       d="M 300,394.35027 L 300,328.35027"
       id="path7842" />
    <path
       id="path7844"
       d="M 420,394.35027 L 420,328.35027"
       style="opacity:1;fill:none;fill-opacity:1;stroke:#000000;stroke-width:2.5;stroke-miterlimit:4;stroke-dasharray:none;stroke-opacity:1" />
    <path
       style="opacity:1;fill:none;fill-opacity:1;stroke:#000000;stroke-width:2.5;stroke-miterlimit:4;stroke-dasharray:none;stroke-opacity:1"
       d="M 180,394.35027 L 180,328.35027"
       id="path7846" />
    <path
       style="opacity:1;fill:none;fill-opacity:1;stroke:#000000;stroke-width:2.5;stroke-miterlimit:4;stroke-dasharray:none;stroke-opacity:1"
       d="M 60,394.35027 L 60,328.35027"
       id="path7848" />
    <path
       style="opacity:1;fill:none;fill-opacity:1;stroke:#000000;stroke-width:2.5;stroke-miterlimit:4;stroke-dasharray:none;stroke-opacity:1"
       d="M 540,394.35027 L 540,328.35027"
       id="path7850" />
    <path
       id="path7852"
       d="M 300,262.35 L 300,196.35"
       style="opacity:1;fill:none;fill-opacity:1;stroke:#000000;stroke-width:2.5;stroke-miterlimit:4;stroke-dasharray:none;stroke-opacity:1" />
    <path
       style="opacity:1;fill:none;fill-opacity:1;stroke:#000000;stroke-width:2.5;stroke-miterlimit:4;stroke-dasharray:none;stroke-opacity:1"
       d="M 420,262.35 L 420,196.35"
       id="path7854" />
    <path
       id="path7856"
       d="M 180,262.35 L 180,196.35"
       style="opacity:1;fill:none;fill-opacity:1;stroke:#000000;stroke-width:2.5;stroke-miterlimit:4;stroke-dasharray:none;stroke-opacity:1" />
    <path
       id="path7858"
       d="M 60,262.35 L 60,196.35"
       style="opacity:1;fill:none;fill-opacity:1;stroke:#000000;stroke-width:2.5;stroke-miterlimit:4;stroke-dasharray:none;stroke-opacity:1" />
    <path
       id="path7860"
       d="M 540,262.35 L 540,196.35"
       style="opacity:1;fill:none;fill-opacity:1;stroke:#000000;stroke-width:2.5;stroke-miterlimit:4;stroke-dasharray:none;stroke-opacity:1" />
    <path
       style="opacity:1;fill:none;fill-opacity:1;stroke:#000000;stroke-width:2.5;stroke-miterlimit:4;stroke-dasharray:none;stroke-opacity:1"
       d="M 300,130.35 L 300,64.35"
       id="path7862" />
    <path
       id="path7864"
       d="M 420,130.35 L 420,64.35"
       style="opacity:1;fill:none;fill-opacity:1;stroke:#000000;stroke-width:2.5;stroke-miterlimit:4;stroke-dasharray:none;stroke-opacity:1" />
    <path
       style="opacity:1;fill:none;fill-opacity:1;stroke:#000000;stroke-width:2.5;stroke-miterlimit:4;stroke-dasharray:none;stroke-opacity:1"
       d="M 180,130.35 L 180,64.35"
       id="path7866" />
    <path
       style="opacity:1;fill:none;fill-opacity:1;stroke:#000000;stroke-width:2.5;stroke-miterlimit:4;stroke-dasharray:none;stroke-opacity:1"
       d="M 60,130.35 L 60,64.35"
       id="path7868" />
    <path
       style="opacity:1;fill:none;fill-opacity:1;stroke:#000000;stroke-width:2.5;stroke-miterlimit:4;stroke-dasharray:none;stroke-opacity:1"
       d="M 540,130.35 L 540,64.35"
       id="path7870" />
    <path
       id="path7872"
       d="M 300,526.35 L 300,460.35"
       style="opacity:1;fill:none;fill-opacity:1;stroke:#000000;stroke-width:2.5;stroke-miterlimit:4;stroke-dasharray:none;stroke-opacity:1" />
    <path
       style="opacity:1;fill:none;fill-opacity:1;stroke:#000000;stroke-width:2.5;stroke-miterlimit:4;stroke-dasharray:none;stroke-opacity:1"
       d="M 420,526.35 L 420,460.35"
       id="path7874" />
    <path
       id="path7876"
       d="M 180,526.35 L 180,460.35"
       style="opacity:1;fill:none;fill-opacity:1;stroke:#000000;stroke-width:2.5;stroke-miterlimit:4;stroke-dasharray:none;stroke-opacity:1" />
    <path
       style="opacity:1;fill:none;fill-opacity:1;stroke:#000000;stroke-width:2.5;stroke-miterlimit:4;stroke-dasharray:none;stroke-opacity:1"
       d="M 300,658.35 L 300,592.35"
       id="path7882" />
    <path
       style="opacity:1;fill:none;fill-opacity:1;stroke:#000000;stroke-width:2.5;stroke-miterlimit:4;stroke-dasharray:none;stroke-opacity:1"
       d="M 360,460.35 L 360,394.35"
       id="path7892" />
    <path
       id="path7894"
       d="M 480,460.35 L 480,394.35"
       style="opacity:1;fill:none;fill-opacity:1;stroke:#000000;stroke-width:2.5;stroke-miterlimit:4;stroke-dasharray:none;stroke-opacity:1" />
    <path
       style="opacity:1;fill:none;fill-opacity:1;stroke:#000000;stroke-width:2.5;stroke-miterlimit:4;stroke-dasharray:none;stroke-opacity:1"
       d="M 240,460.35 L 240,394.35"
       id="path7896" />
    <path
       style="opacity:1;fill:none;fill-opacity:1;stroke:#000000;stroke-width:2.5;stroke-miterlimit:4;stroke-dasharray:none;stroke-opacity:1"
       d="M 120,460.35 L 120,394.35"
       id="path7898" />
    <path
       id="path7902"
       d="M 360,328.35 L 360,262.35"
       style="opacity:1;fill:none;fill-opacity:1;stroke:#000000;stroke-width:2.5;stroke-miterlimit:4;stroke-dasharray:none;stroke-opacity:1" />
    <path
       style="opacity:1;fill:none;fill-opacity:1;stroke:#000000;stroke-width:2.5;stroke-miterlimit:4;stroke-dasharray:none;stroke-opacity:1"
       d="M 480,328.35 L 480,262.35"
       id="path7904" />
    <path
       id="path7906"
       d="M 240,328.35 L 240,262.35"
       style="opacity:1;fill:none;fill-opacity:1;stroke:#000000;stroke-width:2.5;stroke-miterlimit:4;stroke-dasharray:none;stroke-opacity:1" />
    <path
       id="path7908"
       d="M 120,328.35 L 120,262.35"
       style="opacity:1;fill:none;fill-opacity:1;stroke:#000000;stroke-width:2.5;stroke-miterlimit:4;stroke-dasharray:none;stroke-opacity:1" />
    <path
       style="opacity:1;fill:none;fill-opacity:1;stroke:#000000;stroke-width:2.5;stroke-miterlimit:4;stroke-dasharray:none;stroke-opacity:1"
       d="M 360,196.35 L 360,130.35"
       id="path7910" />
    <path
       id="path7912"
       d="M 480,196.35 L 480,130.35"
       style="opacity:1;fill:none;fill-opacity:1;stroke:#000000;stroke-width:2.5;stroke-miterlimit:4;stroke-dasharray:none;stroke-opacity:1" />
    <path
       style="opacity:1;fill:none;fill-opacity:1;stroke:#000000;stroke-width:2.5;stroke-miterlimit:4;stroke-dasharray:none;stroke-opacity:1"
       d="M 240,196.35 L 240,130.35"
       id="path7914" />
    <path
       style="opacity:1;fill:none;fill-opacity:1;stroke:#000000;stroke-width:2.5;stroke-miterlimit:4;stroke-dasharray:none;stroke-opacity:1"
       d="M 120,196.35 L 120,130.35"
       id="path7916" />
    <path
       id="path7918"
       d="M 360.00842,64.375261 L 360.00842,1.0247393"
       style="opacity:1;fill:none;fill-opacity:1;stroke:#000000;stroke-width:2.44947839;stroke-miterlimit:4;stroke-dasharray:none;stroke-opacity:1" />
    <path
       style="opacity:1;fill:none;fill-opacity:1;stroke:#000000;stroke-width:2.44947839;stroke-miterlimit:4;stroke-dasharray:none;stroke-opacity:1"
       d="M 480.02526,64.375261 L 480.02526,1.0247393"
       id="path7920" />
    <path
       id="path7922"
       d="M 239.99158,64.375261 L 239.99158,1.0247393"
       style="opacity:1;fill:none;fill-opacity:1;stroke:#000000;stroke-width:2.44947839;stroke-miterlimit:4;stroke-dasharray:none;stroke-opacity:1" />
    <path
       id="path7924"
       d="M 119.97474,64.375261 L 119.97474,1.0247393"
       style="opacity:1;fill:none;fill-opacity:1;stroke:#000000;stroke-width:2.44947839;stroke-miterlimit:4;stroke-dasharray:none;stroke-opacity:1" />
    <path
       id="path7926"
       d="M 360,592.35 L 360,526.35"
       style="opacity:1;fill:none;fill-opacity:1;stroke:#000000;stroke-width:2.5;stroke-miterlimit:4;stroke-dasharray:none;stroke-opacity:1" />
    <path
       style="opacity:1;fill:none;fill-opacity:1;stroke:#000000;stroke-width:2.5;stroke-miterlimit:4;stroke-dasharray:none;stroke-opacity:1"
       d="M 480,538.35 L 480,526.35"
       id="path7928"
       sodipodi:nodetypes="cc" />
    <path
       id="path7930"
       d="M 240,592.35 L 240,526.35"
       style="opacity:1;fill:none;fill-opacity:1;stroke:#000000;stroke-width:2.5;stroke-miterlimit:4;stroke-dasharray:none;stroke-opacity:1" />
    <path
       id="path7932"
       d="M 120,538.35 L 120,526.35"
       style="opacity:1;fill:none;fill-opacity:1;stroke:#000000;stroke-width:2.5;stroke-miterlimit:4;stroke-dasharray:none;stroke-opacity:1"
       sodipodi:nodetypes="cc" />
    <path
       style="fill:#2b5df2;fill-opacity:1;fill-rule:evenodd;stroke:#000000;stroke-width:3.1561048;stroke-linecap:butt;stroke-linejoin:miter;stroke-miterlimit:4;stroke-dasharray:none;stroke-opacity:1"
       d="M 1.5780524,2.3780554 L 1.5780524,126.59496 C 10.325,129.11518 18.461739,128.09712 28.641975,139.24782 C 44.406504,156.51518 33.503523,168.43681 49.268061,185.7042 C 65.032598,202.97155 75.974508,191.05581 91.739045,208.32317 C 107.50359,225.59053 96.569351,237.5434 112.33388,254.81078 C 128.0984,272.07814 139.00906,260.13116 154.77361,277.3985 C 170.53816,294.66588 159.63515,306.61876 175.39969,323.88612 C 191.16427,341.1535 202.07491,329.17524 217.83942,346.44261 C 232.9623,363.00715 223.56046,374.70242 236.68417,390.86826 C 240.51921,396.93664 244.37206,402.95123 244.37206,415.08056 C 244.37206,439.06577 229.21503,439.05132 229.21503,463.03653 C 229.21504,487.02171 244.37206,487.00729 244.37206,510.9925 C 244.37206,534.9777 229.21503,534.99449 229.21503,558.9797 C 229.21504,582.96491 244.37206,582.98172 244.37206,606.96691 C 244.37206,617.14401 241.64436,622.97962 238.49676,628.18001 C 274.52856,648.83543 300,658.42195 300,658.42195 C 300,658.42195 325.47144,648.83543 361.50324,628.18001 C 358.35564,622.97962 355.62794,617.14401 355.62794,606.96691 C 355.62794,582.9817 370.78497,582.9649 370.78497,558.9797 C 370.78498,534.9945 355.62794,534.9777 355.62794,510.9925 C 355.62794,487.00729 370.78497,487.0217 370.78497,463.03653 C 370.78498,439.05133 355.62794,439.06577 355.62794,415.08056 C 355.62794,402.95123 359.48084,396.93663 363.31583,390.86826 C 376.43959,374.70243 367.03766,363.00715 382.16057,346.44261 C 397.92505,329.17524 408.8357,341.15349 424.60031,323.88612 C 440.36481,306.61877 429.46179,294.66587 445.22639,277.3985 C 460.99087,260.13117 471.90163,272.07815 487.66612,254.81078 C 503.43072,237.54339 492.49635,225.59053 508.26096,208.32317 C 524.02546,191.05581 534.96744,202.97154 550.73194,185.7042 C 566.49653,168.43682 555.59351,156.51519 571.35802,139.24782 C 581.53831,128.09711 589.67498,129.11518 598.42195,126.59496 C 598.42194,107.10252 598.42195,2.3780554 598.42195,2.3780554 L 514.63629,2.3780554 C 513.69686,3.2355815 512.73503,4.1543268 511.76114,5.2210477 C 495.99654,22.488412 506.96205,34.441297 491.19756,51.708658 C 475.43297,68.97601 464.49108,57.060254 448.72658,74.327628 C 432.96197,91.594993 443.89633,103.51665 428.13174,120.784 C 412.36723,138.05137 401.42525,126.10439 385.66075,143.37172 C 369.89615,160.63908 380.83052,172.592 365.06593,189.85934 C 349.30143,207.12673 338.35943,195.1797 322.59493,212.44706 C 306.83044,229.71442 317.79595,241.63605 302.03136,258.90344 C 301.3532,259.64622 300.66106,260.32599 300,260.96538 C 299.33892,260.326 298.64679,259.64623 297.96863,258.90344 C 282.20416,241.63604 293.16965,229.71442 277.40507,212.44706 C 261.64057,195.1797 250.69862,207.12672 234.93407,189.85934 C 219.16953,172.59201 230.10378,160.63908 214.33924,143.37172 C 198.57471,126.10439 187.6328,138.05137 171.86826,120.784 C 156.10373,103.51665 167.03799,91.594992 151.27342,74.327628 C 135.50886,57.060255 124.56697,68.97601 108.80244,51.708658 C 93.037904,34.441297 104.0034,22.488412 88.238862,5.2210477 C 87.264976,4.1543267 86.303073,3.2355814 85.363709,2.3780554 L 1.5780524,2.3780554 z"
       id="path3444" />
  </g>
  <g
     inkscape:groupmode="layer"
     id="layer4"
     inkscape:label="Meubles"
     style="display:inline">
    <text
       xml:space="preserve"
       style="font-size:146.816px;fill:#ece14c;stroke:none;stroke-width:5.50559;fill-opacity:1"
       x="225.00723"
       y="376.66745"
       id="text976"><tspan
         sodipodi:role="line"
         id="tspan974"
         x="225.00723"
         y="376.66745"
         style="stroke-width:5.50559;fill:#ece14c;fill-opacity:1;stroke:none">孫</tspan></text>
  </g>
  <g
     inkscape:groupmode="layer"
     id="layer2"
     inkscape:label="Reflet final"
     style="display:inline"
     sodipodi:insensitive="true">
    <path
       sodipodi:nodetypes="cccccc"
       d="M 300.00001,658.5 C 300.00001,658.5 598.50001,546.17969 598.50001,260.72817 C 598.50001,-24.723334 598.50001,2.1764865 598.50001,2.1764865 L 1.5,2.1764865 L 1.5,260.72817 C 1.5,546.17969 300.00001,658.5 300.00001,658.5 z"
       style="opacity:1;fill:url(#radialGradient3163);fill-opacity:1;fill-rule:evenodd;stroke:none;stroke-width:1px;stroke-linecap:butt;stroke-linejoin:miter;stroke-opacity:1"
       id="path2875"
       inkscape:export-xdpi="144"
       inkscape:export-ydpi="144" />
  </g>
  <g
     inkscape:groupmode="layer"
     id="layer1"
     inkscape:label="Contour final"
     style="display:inline"
     sodipodi:insensitive="true">
    <path
       sodipodi:nodetypes="cccccc"
       d="M 299.99999,658.50028 C 299.99999,658.50028 1.5,546.17992 1.5,260.72828 C 1.5,-24.723336 1.5,2.1764957 1.5,2.1764957 L 598.49999,2.1764957 L 598.49999,260.72828 C 598.49999,546.17992 299.99999,658.50028 299.99999,658.50028 z"
       style="opacity:1;fill:none;fill-opacity:1;fill-rule:evenodd;stroke:#000000;stroke-width:3.00000048;stroke-linecap:butt;stroke-linejoin:miter;stroke-miterlimit:4;stroke-dasharray:none;stroke-opacity:1"
       id="path1411"
       inkscape:export-xdpi="144"
       inkscape:export-ydpi="144" />
  </g>
</svg>
