<?xml version="1.0" encoding="UTF-8"?>
<!DOCTYPE svg PUBLIC "-//W3C//DTD SVG 1.1//EN" "http://www.w3.org/Graphics/SVG/1.1/DTD/svg11.dtd">
<svg xmlns="http://www.w3.org/2000/svg" version="1.1" width="100px" height="100px" style="shape-rendering:geometricPrecision; text-rendering:geometricPrecision; image-rendering:optimizeQuality; fill-rule:evenodd; clip-rule:evenodd" xmlns:xlink="http://www.w3.org/1999/xlink">
<g><path style="opacity:0.99" fill="#030304" d="M -0.5,-0.5 C 32.8333,-0.5 66.1667,-0.5 99.5,-0.5C 99.5,32.8333 99.5,66.1667 99.5,99.5C 66.1667,99.5 32.8333,99.5 -0.5,99.5C -0.5,66.1667 -0.5,32.8333 -0.5,-0.5 Z"/></g>
<g><path style="opacity:1" fill="#5d757d" d="M 7.5,7.5 C 15.9901,6.34305 24.6567,6.17639 33.5,7C 32.9558,7.71719 32.2891,8.21719 31.5,8.5C 23.6841,7.50761 15.6841,7.17428 7.5,7.5 Z"/></g>
<g><path style="opacity:1" fill="#b7e6f6" d="M 7.5,7.5 C 15.6841,7.17428 23.6841,7.50761 31.5,8.5C 26.3898,10.5572 21.7231,13.3906 17.5,17C 13.5883,21.0774 10.255,25.5774 7.5,30.5C 6.18007,22.6765 6.18007,15.0098 7.5,7.5 Z"/></g>
<g><path style="opacity:1" fill="#bbeafb" d="M 68.5,8.5 C 75.9818,7.50797 83.6484,7.17464 91.5,7.5C 91.825,15.0191 91.4916,22.3524 90.5,29.5C 85.7541,19.7533 78.4208,12.7533 68.5,8.5 Z"/></g>
<g><path style="opacity:1" fill="#8aadba" d="M 90.5,29.5 C 91.4916,22.3524 91.825,15.0191 91.5,7.5C 83.6484,7.17464 75.9818,7.50797 68.5,8.5C 67.7109,8.21719 67.0442,7.71719 66.5,7C 75.1603,6.50025 83.8269,6.33358 92.5,6.5C 92.6664,14.84 92.4997,23.1733 92,31.5C 91.2828,30.9558 90.7828,30.2891 90.5,29.5 Z"/></g>
<g><path style="opacity:1" fill="#bbeafb" d="M 43.5,10.5 C 70.4451,9.95402 85.7784,22.954 89.5,49.5C 89.5981,59.9572 86.2647,69.1239 79.5,77C 76.7896,78.7468 73.7896,79.7468 70.5,80C 62.8225,80.2366 55.1559,80.2366 47.5,80C 44.0733,81.0857 40.74,82.2524 37.5,83.5C 31.8437,81.3399 26.1771,79.1732 20.5,77C 9.74576,65.2318 6.91243,51.7318 12,36.5C 18.4748,22.8502 28.9748,14.1836 43.5,10.5 Z"/></g>
<g><path style="opacity:1" fill="#070a0a" d="M 48.5,31.5 C 51.566,33.3726 54.566,35.5393 57.5,38C 56.3349,39.0836 55.0016,39.9169 53.5,40.5C 53.3019,43.7852 51.6352,45.4518 48.5,45.5C 48.8649,42.2544 47.8649,39.5877 45.5,37.5C 47.9783,36.2776 48.9783,34.2776 48.5,31.5 Z"/></g>
<g><path style="opacity:1" fill="#070a0a" d="M 62.5,47.5 C 65.566,49.3726 68.566,51.5393 71.5,54C 70.3349,55.0836 69.0016,55.9169 67.5,56.5C 67.3019,59.7852 65.6352,61.4518 62.5,61.5C 62.8649,58.2544 61.8649,55.5877 59.5,53.5C 61.9783,52.2776 62.9783,50.2776 62.5,47.5 Z"/></g>
<g><path style="opacity:1" fill="#070809" d="M 34.5,47.5 C 35.5,47.5 36.5,47.5 37.5,47.5C 37.5,48.8333 37.5,50.1667 37.5,51.5C 45.5,53.1667 45.5,54.8333 37.5,56.5C 37.5,57.8333 37.5,59.1667 37.5,60.5C 36.5,60.5 35.5,60.5 34.5,60.5C 34.8034,57.4124 33.4701,55.7458 30.5,55.5C 30.5,54.5 30.5,53.5 30.5,52.5C 33.9103,52.6162 35.2436,50.9496 34.5,47.5 Z"/></g>
<g><path style="opacity:1" fill="#bae9f9" d="M 8.5,71.5 C 12.4744,79.8063 18.4744,86.1396 26.5,90.5C 20.3554,91.4902 14.0221,91.8235 7.5,91.5C 7.17596,84.6457 7.50929,77.979 8.5,71.5 Z"/></g>
<g><path style="opacity:1" fill="#b9e8f9" d="M 90.5,71.5 C 91.4907,77.979 91.824,84.6457 91.5,91.5C 84.9779,91.8235 78.6446,91.4902 72.5,90.5C 80.5541,86.1126 86.5541,79.7793 90.5,71.5 Z"/></g>
<g><path style="opacity:1" fill="#aad5e5" d="M 49.5,83.5 C 55.4399,84.6499 61.4399,85.4832 67.5,86C 57.0848,90.9794 46.4181,91.6461 35.5,88C 39.2192,87.6116 42.8859,86.9449 46.5,86C 47.9423,85.6232 48.9423,84.7899 49.5,83.5 Z"/></g>
<g><path style="opacity:1" fill="#8cb0bd" d="M 8.5,71.5 C 7.50929,77.979 7.17596,84.6457 7.5,91.5C 14.0221,91.8235 20.3554,91.4902 26.5,90.5C 27.2891,90.7828 27.9558,91.2828 28.5,92C 21.1742,92.4997 13.8409,92.6663 6.5,92.5C 6.33365,84.8261 6.50031,77.1594 7,69.5C 7.71719,70.0442 8.21719,70.7109 8.5,71.5 Z"/></g>
<g><path style="opacity:1" fill="#8bafbc" d="M 72.5,90.5 C 78.6446,91.4902 84.9779,91.8235 91.5,91.5C 91.824,84.6457 91.4907,77.979 90.5,71.5C 90.7828,70.7109 91.2828,70.0442 92,69.5C 92.4997,77.1594 92.6664,84.8261 92.5,92.5C 85.1591,92.6663 77.8258,92.4997 70.5,92C 71.0442,91.2828 71.7109,90.7828 72.5,90.5 Z"/></g>
</svg>
