<?xml version="1.0" encoding="UTF-8" standalone="no"?>
<svg
   width="600"
   height="660"
   version="1.1"
   id="svg4853"
   sodipodi:docname="Pallet_demo.svg"
   inkscape:version="1.2 (dc2aedaf03, 2022-05-15)"
   xmlns:inkscape="http://www.inkscape.org/namespaces/inkscape"
   xmlns:sodipodi="http://sodipodi.sourceforge.net/DTD/sodipodi-0.dtd"
   xmlns:xlink="http://www.w3.org/1999/xlink"
   xmlns="http://www.w3.org/2000/svg"
   xmlns:svg="http://www.w3.org/2000/svg">
  <sodipodi:namedview
     id="namedview4855"
     pagecolor="#ffffff"
     bordercolor="#000000"
     borderopacity="0.25"
     inkscape:showpageshadow="2"
     inkscape:pageopacity="0.0"
     inkscape:pagecheckerboard="0"
     inkscape:deskcolor="#d1d1d1"
     showgrid="false"
     inkscape:zoom="0.86138462"
     inkscape:cx="368.01214"
     inkscape:cy="381.36274"
     inkscape:window-width="1920"
     inkscape:window-height="991"
     inkscape:window-x="-9"
     inkscape:window-y="-9"
     inkscape:window-maximized="1"
     inkscape:current-layer="svg4853" />
  <defs
     id="defs4847">
    <linearGradient
       id="linearGradient1">
      <stop
         style="stop-color:#fff;stop-opacity:0.31"
         offset="0"
         id="stop4835" />
      <stop
         style="stop-color:#fff;stop-opacity:0.25"
         offset="0.19"
         id="stop4837" />
      <stop
         style="stop-color:#6b6b6b;stop-opacity:0.125"
         offset="0.6"
         id="stop4839" />
      <stop
         style="stop-color:#000;stop-opacity:0.125"
         offset="1"
         id="stop4841" />
    </linearGradient>
    <radialGradient
       cx="220"
       cy="220"
       r="405"
       id="radialGradient2"
       xlink:href="#linearGradient1"
       gradientUnits="userSpaceOnUse" />
    <clipPath
       id="shield_cut">
      <path
         id="shield"
         d="M1.5,1.5 h597 v258.5 C 598.5,546.2 300,658.39 300,658.39 300,658.39 1.5,546.2 1.5,260z" />
    </clipPath>
  </defs>
  <use
     id="layer4"
     xlink:href="#shield"
     fill="#fff" />
  <rect
     id="layer3"
     x="270"
     width="60"
     height="660"
     clip-path="url(#shield_cut)"
     fill="#e20909" />
  <use
     id="layer2"
     xlink:href="#shield"
     fill="url(#radialGradient2)" />
  <use
     id="layer1"
     xlink:href="#shield"
     style="fill:none;stroke:#000;stroke-width:3" />
  <g
     id="g3568"
     transform="matrix(0.7095306,0,0,0.7095306,13.151646,-367.51301)">
    <path
       style="fill:#000000"
       d="m 141.45668,1028.4804 c -3.07842,-4.4885 -6.57362,-14.4682 -7.76711,-22.1771 -4.2785,-27.63591 -6.97252,-40.43658 -8.51025,-40.43658 -4.26811,0 -27.128787,25.13334 -27.128787,29.82575 0,2.97082 -2.488962,5.40153 -5.531026,5.40153 -3.042064,0 -5.531024,1.2796 -5.531024,2.8436 0,6.1881 -19.911944,25.3382 -26.346221,25.3382 -3.761981,0 -6.814922,-1.189 -6.78439,-2.6421 0.129795,-6.1806 10.319599,-30.12864 15.115661,-35.52504 28.159031,-31.68369 48.979937,-78.08279 35.038487,-78.08279 -2.98911,0 -7.923674,2.37784 -10.965738,5.28407 -3.042064,2.90625 -8.870251,5.28409 -12.951482,5.28409 -4.081269,0 -8.445984,1.58524 -9.699388,3.52272 -3.564966,5.51071 -22.921522,4.16319 -25.301227,-1.76135 -3.069533,-7.64195 1.154288,-15.8462 8.180827,-15.89027 6.310419,-0.0396 48.664278,-26.92597 59.341728,-37.67042 4.59643,-4.62524 5.56425,-9.75439 3.86228,-20.46844 -3.11799,-19.62801 -5.62914,-22.42305 -19.25331,-21.42985 -9.047799,0.65959 -13.838403,-1.44134 -20.479208,-8.98112 -10.203264,-11.58452 -13.564541,-34.68551 -6.407433,-44.03642 4.749048,-6.20475 5.179288,-6.20675 12.292111,-0.0571 4.053909,3.50497 9.38301,11.01376 11.842441,16.68614 3.052938,7.0414 7.079779,10.31352 12.692399,10.31352 11.78021,0 32.03098,7.29225 40.03555,14.41667 5.0069,4.4564 6.08659,8.32991 3.99676,14.33888 -1.57484,4.52818 -3.11088,14.57396 -3.41343,22.32395 -0.30235,7.75 -1.24587,16.34846 -2.09628,19.10776 -0.94961,3.08107 7.76691,11.23664 22.59021,21.13634 38.83734,25.9375 45.1034,31.387 42.76993,37.19652 -2.37602,5.9153 -17.35628,7.23197 -22.84254,2.00766 -3.70033,-3.52364 -47.09166,-25.02384 -48.03288,-23.80008 -2.01688,2.62221 6.23965,52.92849 10.81348,65.88579 3.07768,8.71873 6.11532,25.30977 6.75036,36.86897 0.93614,17.0398 0.0332,21.2363 -4.76439,22.1771 -3.25542,0.6382 -8.43769,-2.512 -11.51611,-7.0005 z"
       id="path3052"
       inkscape:connector-curvature="0"
       sodipodi:nodetypes="scsssssccssscsssssssscssscsccscsscss" />
    <g
       transform="matrix(2.2374621,0,0,2.2374621,164.06482,684.0169)"
       id="g3">
	<path
   d="m 45.673,0 c 22.108,0 40.03,12.475 40.03,27.862 0,15.387 -17.922,27.862 -40.03,27.862 -6.931,0 -13.449,-1.227 -19.134,-3.384 C 15.319,56.564 0,64.542 0,64.542 c 0,0 9.989,-5.655 14.107,-12.521 1.052,-1.755 1.668,-3.595 2.021,-5.362 C 9.618,41.704 5.643,35.106 5.643,27.862 5.643,12.475 23.565,0 45.673,0 m 0,2.22 c -20.849,0 -37.811,11.503 -37.811,25.643 0,6.266 3.413,12.314 9.61,17.03 l 1.104,0.841 -0.271,1.36 c -0.445,2.23 -1.217,4.272 -2.294,6.069 -0.341,0.567 -0.717,1.127 -1.12,1.674 3.625,-1.646 7.421,-3.276 10.866,-4.573 l 0.785,-0.296 0.785,0.298 c 5.584,2.119 11.928,3.239 18.346,3.239 20.849,0 37.811,-11.503 37.811,-25.643 C 83.484,13.722 66.522,2.22 45.673,2.22 Z"
   id="path5" />

</g>
  </g>
  <path
     id="path3382"
     style="font-style:normal;font-variant:normal;font-weight:normal;font-stretch:normal;font-size:86.9355px;line-height:125%;font-family:KaiTi;-inkscape-font-specification:'KaiTi, Normal';text-align:start;letter-spacing:0px;word-spacing:0px;writing-mode:lr-tb;text-anchor:start;fill:#000000;fill-opacity:1;stroke:none;stroke-width:3.10344px;stroke-linecap:butt;stroke-linejoin:miter;stroke-opacity:1"
     d="m 407.75599,227.12403 q 20.02406,-4.21561 51.64102,-10.53898 31.61697,-7.37729 36.88647,-10.53901 5.26948,-3.16168 13.70067,1.0539 9.48511,3.16171 15.80848,9.48511 7.37729,5.26947 0,10.53898 -7.37727,5.2695 -17.91627,26.34749 29.50917,-5.26951 41.10204,-5.26951 11.59291,-1.05392 17.9163,8.43119 6.32337,8.43119 -14.75458,7.37727 -20.02409,-1.0539 -42.15597,1.05392 -21.07796,1.0539 -48.47935,3.16169 30.56307,30.56307 48.47935,43.20986 17.9163,11.59288 35.83257,16.86238 17.91627,5.2695 27.40135,8.43119 10.53901,4.21558 -10.53897,6.32337 -21.07799,2.10782 -35.83255,1.05392 -14.75459,-1.05392 -22.13188,-9.48508 -6.3234,-7.3773 -22.13188,-26.34749 -14.75459,-18.97017 -26.34746,-34.77865 -7.37729,25.29357 -22.13188,41.10205 -14.75459,15.80848 -34.77865,23.18574 -18.9702,7.37733 -31.61697,7.37733 -11.5929,0 2.10779,-5.26951 14.75459,-5.26947 28.45525,-12.64677 13.7007,-8.43121 24.23968,-21.07798 11.5929,-13.70069 18.97019,-35.83255 -22.13188,3.16169 -35.83257,5.26951 -13.70067,2.10779 -24.23967,4.21555 -9.48509,2.10782 -21.07796,-5.26948 -10.53901,-7.37729 2.10779,-6.32339 13.70069,0 32.67086,-2.10779 18.97017,-2.10782 48.47934,-6.3234 4.21561,-20.02409 1.0539,-31.61697 -13.7007,3.16172 -23.18578,7.3773 -9.48508,3.16168 -14.75459,7.37729 -4.21558,4.21558 -9.48508,-2.10782 -5.26948,-7.37726 -3.16169,-13.70066 3.16169,-6.3234 1.0539,-18.97017 -2.10779,-13.70069 -8.43119,-21.07799 -5.2695,-7.37729 3.16169,-5.2695 8.43118,1.0539 14.75458,4.21561 6.3234,3.16168 4.21561,10.53901 -1.05389,6.32337 -1.05389,30.56304 z m 88.52749,-52.69492 q 11.59288,10.53897 2.10779,11.59287 l -24.23967,3.16168 q -13.70069,1.0539 -32.67086,4.21561 -4.21561,12.64677 -8.43119,3.16172 -4.21561,-9.48512 -9.48508,-27.40139 -4.21561,-17.91627 -10.53901,-24.2397 -5.26947,-7.37726 2.10782,-7.37726 8.43119,0 13.70066,3.16168 5.26951,2.10779 25.29357,-2.10782 21.07799,-5.26947 27.40138,-9.48505 7.3773,-5.2695 14.75459,-2.10782 7.3773,2.10782 14.75459,9.48511 8.43119,6.32337 1.05389,10.53898 -7.37729,4.21561 -15.80848,27.40139 z m -61.12614,-24.2397 q 2.10779,12.64679 5.26951,34.77867 24.23967,-5.2695 43.20983,-9.48508 2.10779,-18.97019 1.0539,-25.29359 -1.0539,-7.3773 -10.53898,-6.3234 -8.43119,1.05389 -38.99426,6.3234 z m 22.13188,75.88072 q 10.53898,9.48509 7.3773,14.75456 -3.16172,4.21561 -5.26951,17.9163 20.02409,-2.10779 33.72476,-4.21558 6.3234,-23.18577 4.21561,-29.50917 -1.0539,-6.32343 -10.53898,-5.26951 -9.48511,1.0539 -29.50918,6.3234 z" />
</svg>
