<?xml version="1.0" encoding="UTF-8" standalone="no"?>
<svg
   height="660"
   width="600"
   version="1.0"
   id="svg2"
   sodipodi:version="0.32"
   inkscape:version="1.1.2 (b8e25be833, 2022-02-05)"
   sodipodi:docname="Xie 謝_Arms.svg"
   inkscape:export-filename="/Users/olivier/Desktop/Blason Rouge/Blason_Vide_3D.png"
   inkscape:export-xdpi="144"
   inkscape:export-ydpi="144"
   inkscape:output_extension="org.inkscape.output.svg.inkscape"
   xmlns:inkscape="http://www.inkscape.org/namespaces/inkscape"
   xmlns:sodipodi="http://sodipodi.sourceforge.net/DTD/sodipodi-0.dtd"
   xmlns:xlink="http://www.w3.org/1999/xlink"
   xmlns="http://www.w3.org/2000/svg"
   xmlns:svg="http://www.w3.org/2000/svg"
   xmlns:rdf="http://www.w3.org/1999/02/22-rdf-syntax-ns#"
   xmlns:cc="http://creativecommons.org/ns#"
   xmlns:dc="http://purl.org/dc/elements/1.1/">
  <metadata
     id="metadata49">
    <rdf:RDF>
      <cc:Work
         rdf:about="">
        <dc:format>image/svg+xml</dc:format>
        <dc:type
           rdf:resource="http://purl.org/dc/dcmitype/StillImage" />
        <dc:date>03-AUG-2006</dc:date>
        <dc:creator>
          <cc:Agent>
            <dc:title>Jérôme BLUM (wagner51)</dc:title>
          </cc:Agent>
        </dc:creator>
        <cc:license
           rdf:resource="http://web.resource.org/cc/PublicDomain" />
        <dc:language>fr</dc:language>
        <dc:subject>
          <rdf:Bag>
            <rdf:li>gabarit modèle blason projet wikipédia</rdf:li>
          </rdf:Bag>
        </dc:subject>
      </cc:Work>
      <cc:License
         rdf:about="http://web.resource.org/cc/PublicDomain">
        <cc:permits
           rdf:resource="http://web.resource.org/cc/Reproduction" />
        <cc:permits
           rdf:resource="http://web.resource.org/cc/Distribution" />
        <cc:permits
           rdf:resource="http://web.resource.org/cc/DerivativeWorks" />
      </cc:License>
    </rdf:RDF>
  </metadata>
  <sodipodi:namedview
     inkscape:window-height="1137"
     inkscape:window-width="1600"
     inkscape:pageshadow="2"
     inkscape:pageopacity="0.0"
     guidetolerance="10.0"
     gridtolerance="10.0"
     objecttolerance="10.0"
     borderopacity="1.0"
     bordercolor="#666666"
     pagecolor="#ffffff"
     id="base"
     showgrid="false"
     height="660px"
     inkscape:zoom="1.1078006"
     inkscape:cx="310.97654"
     inkscape:cy="359.27043"
     inkscape:window-x="-1608"
     inkscape:window-y="224"
     inkscape:current-layer="layer3"
     showguides="true"
     inkscape:guide-bbox="true"
     inkscape:window-maximized="1"
     inkscape:showpageshadow="2"
     inkscape:pagecheckerboard="0"
     inkscape:deskcolor="#d1d1d1" />
  <desc
     id="desc4">Flag of Canton of Valais (Wallis)</desc>
  <defs
     id="defs6">
    <linearGradient
       id="linearGradient2893">
      <stop
         style="stop-color:white;stop-opacity:0.3137255;"
         offset="0"
         id="stop2895" />
      <stop
         id="stop2897"
         offset="0.19"
         style="stop-color:white;stop-opacity:0.25098041;" />
      <stop
         style="stop-color:#6b6b6b;stop-opacity:0.1254902;"
         offset="0.60000002"
         id="stop2901" />
      <stop
         style="stop-color:black;stop-opacity:0.1254902;"
         offset="1"
         id="stop2899" />
    </linearGradient>
    <radialGradient
       inkscape:collect="always"
       xlink:href="#linearGradient2893"
       id="radialGradient3163"
       gradientUnits="userSpaceOnUse"
       gradientTransform="matrix(1.353218,0,0,1.348928,-77.62935,-85.74693)"
       cx="221.44487"
       cy="226.33101"
       fx="221.44487"
       fy="226.33101"
       r="300" />
  </defs>
  <g
     inkscape:groupmode="layer"
     id="layer3"
     inkscape:label="Fond écu"
     style="display:inline">
    <path
       id="path2855"
       style="fill:#00afca;fill-opacity:1;fill-rule:evenodd;stroke:none;stroke-width:1px;stroke-linecap:butt;stroke-linejoin:miter;stroke-opacity:1"
       d="m 298.91489,660.5 c 0,0 298.50001,-112.32031 298.50001,-397.77183 0,-285.451524 0,-258.551694 0,-258.551694 H 0.4148936 V 262.72817 C 0.4148936,548.17969 298.91489,660.5 298.91489,660.5 Z"
       sodipodi:nodetypes="cccccc" />
    <text
       xml:space="preserve"
       style="font-size:249.243px;fill:#f4c836;fill-opacity:1;stroke:none;stroke-width:9.34666;stroke-opacity:1"
       x="180.89375"
       y="231.76193"
       id="text16190"><tspan
         sodipodi:role="line"
         id="tspan16188"
         x="180.89375"
         y="231.76193"
         style="fill:#f4c836;fill-opacity:1;stroke:none;stroke-width:9.34666;stroke-opacity:1">帝</tspan><tspan
         sodipodi:role="line"
         x="180.89375"
         y="561.27234"
         style="fill:#f4c836;fill-opacity:1;stroke:none;stroke-width:9.34666;stroke-opacity:1"
         id="tspan32811">謝</tspan></text>
    <path
       fill="#00afca"
       d="m -552.35599,-760.92227 h 1000 v 500 h -1000 z"
       id="path2" />
    <g
       transform="matrix(0.5,0,0,0.5,-552.35599,-760.92227)"
       fill="#fec50c"
       id="g48">
      <g
         id="f">
        <g
           id="e">
          <path
             d="m 120,72.922 c 0,0 -9.61,-8.076 -12.874,-4.025 -5.25,6.515 16.14,38.968 16.14,50.396 0,18.759 -12.517,23.86 -27.973,26.539 -10.371,1.798 -27.259,-0.752 -27.259,-0.752 3.18,-4.273 5.248,-5.532 10.606,-5.873 -5.965,-3.097 -12.039,-9.82 -12.039,-20.284 0,-16.138 6.643,-22.79 6.643,-40.983 0,-10.093 -8.276,-22.941 -8.276,-22.941 14.629,1.464 21.879,15.009 17.754,25.834 2.328,0.335 4.442,-0.19 6.258,-1.91 1.07,3 -0.62,6.483 -2.883,9.484 1.823,0.974 3.162,0.39 6.066,-0.21 -0.276,3.092 -2.128,6.376 -6.66,9.468 13.151,-3.415 21.243,5.751 21.243,15.347 0,7.248 -5.079,12.443 -10.044,12.443 -1.604,0 -3.961,-0.661 -5.29,-1.654 -0.938,1.995 -0.455,4.665 0.51,6.66 -3.638,-0.962 -5.948,-3.123 -4.304,-7.621 -2.795,-0.257 -5.018,-1.201 -6.53,-3 1.532,-1.963 3.857,-3.093 6.53,-3.001 -2.035,-4.2 0.233,-6.55 3.538,-8.456 0,0 -2.102,8.456 3.265,8.456 2.413,0 4.612,-0.786 4.612,-4.343 0,-3.097 -2.707,-7.387 -8.966,-7.114 -6.258,0.273 -11.332,4.315 -11.332,14.306 0,9.216 7.434,13.8 17.23,14.096 8.833,0.273 15.5,-4.512 15.5,-13.625 0,-12.128 -17.508,-39.773 -17.508,-50.58 0,-8.11 7.292,-12.636 14.427,-12.636 9.252,0 17.058,9.161 17.058,9.161 l -5.435,6.815 z"
             id="path37" />
          <path
             id="d"
             d="m 122.02,292.14 c 0,20.27 -18.198,30.688 -32.498,30.688 -19.266,0 -29.524,-11.519 -29.524,-26.598 0,-8.548 1.566,-13.911 5.507,-22.092 0,0 31.78,-66.091 44.153,-91.653 1.543,-3.188 2.041,-6.818 2.041,-12.138 0,-8.217 -7.97,-14.933 -16.327,-15.139 -7.618,-0.19 -15.918,7.102 -15.918,15.412 0,10.093 5.236,14.593 10.612,14.593 6.616,0 9.252,-2.72 9.252,-7.365 0,-3.237 -1.563,-4.637 -3.81,-4.637 -5.674,0 -4.081,7.638 -4.081,7.638 -2.818,-0.617 -5.134,-3.497 -3.81,-7.093 a 10.23,10.23 0 0 1 -5.51,-3.273 c 1.521,-1.475 3.266,-2.613 5.51,-3 -1.329,-4.388 0.447,-6.531 4.286,-7.433 -0.775,1.687 -0.801,3.24 -0.544,4.705 6.043,-1.719 15.306,1.016 15.306,11.456 0,10.365 -7.194,19.093 -20.681,16.912 3.208,1.534 4.84,4.673 5.17,8.183 -2.45,-0.954 -5.17,-1.09 -5.17,-1.09 1.577,2.78 3.767,5.177 3.673,10.637 -2.5,-1.137 -4.823,-3.242 -8.027,-1.91 5.03,9.898 -1.15,23.512 -16.871,26.733 5.754,-6.745 8.571,-14.027 8.571,-21.277 0,-23.496 -6.53,-27.445 -6.53,-43.78 0,-6.835 3.513,-14.215 10.476,-19.231 v 0.273 c -4.602,-1.233 -7.55,-3.499 -9.245,-6.578 10.515,-2.982 25.8,-2.927 34.006,0.302 9.434,1.093 16.02,8.33 17.96,12.004 1.94,3.67 5.709,16.953 0,28.912 -6.25,13.088 -35.712,75.56 -44.898,95.198 -1.948,4.165 -3.13,8.583 -3.13,13.366 0,12.03 11.02,16.23 17.28,16.23 7.483,0 15.102,-5.7 15.102,-12.82 0,-4.511 -2.45,-7.228 -5.987,-7.228 -8.458,0 -7.944,7.195 -6.258,11.729 -5.264,-2.367 -8.324,-6.592 -7.483,-11.047 -2.98,-0.409 -5.817,-1.822 -8.435,-4.774 2.06,-2.6 4.572,-4.567 8.435,-4.637 -1.687,-6.912 2.94,-9.835 7.483,-11.456 -1.437,5.073 -2.38,10.911 6.258,10.911 6.3,0 11.258,1.091 14.15,5.183 0.17,-5.456 0.68,-27.005 0.68,-27.005 0.364,-8.098 -10.838,-7.867 -17.958,-5.456 2.687,-9.327 8.198,-14.37 20.952,-13.093 -3.096,-1.295 -6.395,-4.208 -6.395,-9.82 0.002,-7.593 6.162,-16.005 10.206,-18.492 l 2.022,79.051 z" />
          <use
             xlink:href="#d"
             transform="matrix(1,0,0,-1,0,645.08)"
             width="100%"
             height="100%"
             id="use40"
             x="0"
             y="0" />
        </g>
        <use
           xlink:href="#e"
           transform="matrix(-1,0,0,1,240,0)"
           width="100%"
           height="100%"
           id="use43"
           x="0"
           y="0" />
      </g>
      <use
         xlink:href="#f"
         transform="matrix(1,0,0,-1,0,1000)"
         width="100%"
         height="100%"
         id="use46"
         x="0"
         y="0" />
    </g>
  </g>
  <g
     inkscape:groupmode="layer"
     id="layer4"
     inkscape:label="Meubles" />
  <g
     inkscape:groupmode="layer"
     id="layer2"
     inkscape:label="Reflet final"
     sodipodi:insensitive="true"
     style="display:inline">
    <path
       sodipodi:nodetypes="cccccc"
       d="M 300.00001,658.5 C 300.00001,658.5 598.50001,546.17969 598.50001,260.72817 C 598.50001,-24.723334 598.50001,2.1764865 598.50001,2.1764865 L 1.5,2.1764865 L 1.5,260.72817 C 1.5,546.17969 300.00001,658.5 300.00001,658.5 z "
       style="opacity:1;fill:url(#radialGradient3163);fill-opacity:1;fill-rule:evenodd;stroke:none;stroke-width:1px;stroke-linecap:butt;stroke-linejoin:miter;stroke-opacity:1"
       id="path2875"
       inkscape:export-xdpi="144"
       inkscape:export-ydpi="144" />
  </g>
  <g
     inkscape:groupmode="layer"
     id="layer1"
     inkscape:label="Contour final"
     sodipodi:insensitive="true">
    <path
       sodipodi:nodetypes="cccccc"
       d="M 299.99999,658.50028 C 299.99999,658.50028 1.5,546.17992 1.5,260.72828 C 1.5,-24.723336 1.5,2.1764957 1.5,2.1764957 L 598.49999,2.1764957 L 598.49999,260.72828 C 598.49999,546.17992 299.99999,658.50028 299.99999,658.50028 z "
       style="opacity:1;fill:none;fill-opacity:1;fill-rule:evenodd;stroke:black;stroke-width:3.00000048;stroke-linecap:butt;stroke-linejoin:miter;stroke-miterlimit:4;stroke-dasharray:none;stroke-opacity:1"
       id="path1411"
       inkscape:export-xdpi="144"
       inkscape:export-ydpi="144" />
  </g>
</svg>
